%TF.GenerationSoftware,KiCad,Pcbnew,5.1.9-73d0e3b20d~88~ubuntu20.04.1*%
%TF.CreationDate,2021-03-31T23:36:19-04:00*%
%TF.ProjectId,MCVI,4d435649-2e6b-4696-9361-645f70636258,rev?*%
%TF.SameCoordinates,Original*%
%TF.FileFunction,Legend,Top*%
%TF.FilePolarity,Positive*%
%FSLAX46Y46*%
G04 Gerber Fmt 4.6, Leading zero omitted, Abs format (unit mm)*
G04 Created by KiCad (PCBNEW 5.1.9-73d0e3b20d~88~ubuntu20.04.1) date 2021-03-31 23:36:19*
%MOMM*%
%LPD*%
G01*
G04 APERTURE LIST*
%ADD10C,0.150000*%
%ADD11C,0.120000*%
G04 APERTURE END LIST*
D10*
X128335595Y-65452380D02*
X128335595Y-64452380D01*
X128668928Y-65166666D01*
X129002261Y-64452380D01*
X129002261Y-65452380D01*
X130049880Y-65357142D02*
X130002261Y-65404761D01*
X129859404Y-65452380D01*
X129764166Y-65452380D01*
X129621309Y-65404761D01*
X129526071Y-65309523D01*
X129478452Y-65214285D01*
X129430833Y-65023809D01*
X129430833Y-64880952D01*
X129478452Y-64690476D01*
X129526071Y-64595238D01*
X129621309Y-64500000D01*
X129764166Y-64452380D01*
X129859404Y-64452380D01*
X130002261Y-64500000D01*
X130049880Y-64547619D01*
X130335595Y-64452380D02*
X130668928Y-65452380D01*
X131002261Y-64452380D01*
X131335595Y-65452380D02*
X131335595Y-64452380D01*
X132573690Y-64785714D02*
X132573690Y-65642857D01*
X132526071Y-65738095D01*
X132430833Y-65785714D01*
X132383214Y-65785714D01*
X132573690Y-64452380D02*
X132526071Y-64500000D01*
X132573690Y-64547619D01*
X132621309Y-64500000D01*
X132573690Y-64452380D01*
X132573690Y-64547619D01*
X133478452Y-65452380D02*
X133478452Y-64928571D01*
X133430833Y-64833333D01*
X133335595Y-64785714D01*
X133145119Y-64785714D01*
X133049880Y-64833333D01*
X133478452Y-65404761D02*
X133383214Y-65452380D01*
X133145119Y-65452380D01*
X133049880Y-65404761D01*
X133002261Y-65309523D01*
X133002261Y-65214285D01*
X133049880Y-65119047D01*
X133145119Y-65071428D01*
X133383214Y-65071428D01*
X133478452Y-65023809D01*
X134383214Y-65404761D02*
X134287976Y-65452380D01*
X134097500Y-65452380D01*
X134002261Y-65404761D01*
X133954642Y-65357142D01*
X133907023Y-65261904D01*
X133907023Y-64976190D01*
X133954642Y-64880952D01*
X134002261Y-64833333D01*
X134097500Y-64785714D01*
X134287976Y-64785714D01*
X134383214Y-64833333D01*
X134811785Y-65452380D02*
X134811785Y-64452380D01*
X134907023Y-65071428D02*
X135192738Y-65452380D01*
X135192738Y-64785714D02*
X134811785Y-65166666D01*
X135573690Y-65404761D02*
X135668928Y-65452380D01*
X135859404Y-65452380D01*
X135954642Y-65404761D01*
X136002261Y-65309523D01*
X136002261Y-65261904D01*
X135954642Y-65166666D01*
X135859404Y-65119047D01*
X135716547Y-65119047D01*
X135621309Y-65071428D01*
X135573690Y-64976190D01*
X135573690Y-64928571D01*
X135621309Y-64833333D01*
X135716547Y-64785714D01*
X135859404Y-64785714D01*
X135954642Y-64833333D01*
X137145119Y-64404761D02*
X136287976Y-65690476D01*
X137954642Y-65452380D02*
X137478452Y-65452380D01*
X137478452Y-64452380D01*
X138287976Y-64928571D02*
X138621309Y-64928571D01*
X138764166Y-65452380D02*
X138287976Y-65452380D01*
X138287976Y-64452380D01*
X138764166Y-64452380D01*
X139192738Y-65452380D02*
X139192738Y-64452380D01*
X139430833Y-64452380D01*
X139573690Y-64500000D01*
X139668928Y-64595238D01*
X139716547Y-64690476D01*
X139764166Y-64880952D01*
X139764166Y-65023809D01*
X139716547Y-65214285D01*
X139668928Y-65309523D01*
X139573690Y-65404761D01*
X139430833Y-65452380D01*
X139192738Y-65452380D01*
X140145119Y-65404761D02*
X140240357Y-65452380D01*
X140430833Y-65452380D01*
X140526071Y-65404761D01*
X140573690Y-65309523D01*
X140573690Y-65261904D01*
X140526071Y-65166666D01*
X140430833Y-65119047D01*
X140287976Y-65119047D01*
X140192738Y-65071428D01*
X140145119Y-64976190D01*
X140145119Y-64928571D01*
X140192738Y-64833333D01*
X140287976Y-64785714D01*
X140430833Y-64785714D01*
X140526071Y-64833333D01*
X141764166Y-65452380D02*
X141764166Y-64452380D01*
X141764166Y-64833333D02*
X141859404Y-64785714D01*
X142049880Y-64785714D01*
X142145119Y-64833333D01*
X142192738Y-64880952D01*
X142240357Y-64976190D01*
X142240357Y-65261904D01*
X142192738Y-65357142D01*
X142145119Y-65404761D01*
X142049880Y-65452380D01*
X141859404Y-65452380D01*
X141764166Y-65404761D01*
X142811785Y-65452380D02*
X142716547Y-65404761D01*
X142668928Y-65357142D01*
X142621309Y-65261904D01*
X142621309Y-64976190D01*
X142668928Y-64880952D01*
X142716547Y-64833333D01*
X142811785Y-64785714D01*
X142954642Y-64785714D01*
X143049880Y-64833333D01*
X143097500Y-64880952D01*
X143145119Y-64976190D01*
X143145119Y-65261904D01*
X143097500Y-65357142D01*
X143049880Y-65404761D01*
X142954642Y-65452380D01*
X142811785Y-65452380D01*
X144002261Y-65452380D02*
X144002261Y-64928571D01*
X143954642Y-64833333D01*
X143859404Y-64785714D01*
X143668928Y-64785714D01*
X143573690Y-64833333D01*
X144002261Y-65404761D02*
X143907023Y-65452380D01*
X143668928Y-65452380D01*
X143573690Y-65404761D01*
X143526071Y-65309523D01*
X143526071Y-65214285D01*
X143573690Y-65119047D01*
X143668928Y-65071428D01*
X143907023Y-65071428D01*
X144002261Y-65023809D01*
X144478452Y-65452380D02*
X144478452Y-64785714D01*
X144478452Y-64976190D02*
X144526071Y-64880952D01*
X144573690Y-64833333D01*
X144668928Y-64785714D01*
X144764166Y-64785714D01*
X145526071Y-65452380D02*
X145526071Y-64452380D01*
X145526071Y-65404761D02*
X145430833Y-65452380D01*
X145240357Y-65452380D01*
X145145119Y-65404761D01*
X145097500Y-65357142D01*
X145049880Y-65261904D01*
X145049880Y-64976190D01*
X145097500Y-64880952D01*
X145145119Y-64833333D01*
X145240357Y-64785714D01*
X145430833Y-64785714D01*
X145526071Y-64833333D01*
D11*
%TO.C,R15*%
X143420000Y-140630000D02*
X143420000Y-140960000D01*
X149960000Y-140630000D02*
X143420000Y-140630000D01*
X149960000Y-140960000D02*
X149960000Y-140630000D01*
X143420000Y-143370000D02*
X143420000Y-143040000D01*
X149960000Y-143370000D02*
X143420000Y-143370000D01*
X149960000Y-143040000D02*
X149960000Y-143370000D01*
%TO.C,D6*%
X143545000Y-101910000D02*
X140455000Y-101910000D01*
X144500000Y-104470000D02*
G75*
G03*
X144500000Y-104470000I-2500000J0D01*
G01*
X142000462Y-107460000D02*
G75*
G02*
X140455170Y-101910000I-462J2990000D01*
G01*
X141999538Y-107460000D02*
G75*
G03*
X143544830Y-101910000I462J2990000D01*
G01*
%TO.C,R10*%
X161580000Y-168370000D02*
X161580000Y-168040000D01*
X155040000Y-168370000D02*
X161580000Y-168370000D01*
X155040000Y-168040000D02*
X155040000Y-168370000D01*
X161580000Y-165630000D02*
X161580000Y-165960000D01*
X155040000Y-165630000D02*
X161580000Y-165630000D01*
X155040000Y-165960000D02*
X155040000Y-165630000D01*
%TO.C,R16*%
X139580000Y-143370000D02*
X139580000Y-143040000D01*
X133040000Y-143370000D02*
X139580000Y-143370000D01*
X133040000Y-143040000D02*
X133040000Y-143370000D01*
X139580000Y-140630000D02*
X139580000Y-140960000D01*
X133040000Y-140630000D02*
X139580000Y-140630000D01*
X133040000Y-140960000D02*
X133040000Y-140630000D01*
%TO.C,R11*%
X143420000Y-89630000D02*
X143420000Y-89960000D01*
X149960000Y-89630000D02*
X143420000Y-89630000D01*
X149960000Y-89960000D02*
X149960000Y-89630000D01*
X143420000Y-92370000D02*
X143420000Y-92040000D01*
X149960000Y-92370000D02*
X143420000Y-92370000D01*
X149960000Y-92040000D02*
X149960000Y-92370000D01*
%TO.C,R17*%
X143420000Y-165630000D02*
X143420000Y-165960000D01*
X149960000Y-165630000D02*
X143420000Y-165630000D01*
X149960000Y-165960000D02*
X149960000Y-165630000D01*
X143420000Y-168370000D02*
X143420000Y-168040000D01*
X149960000Y-168370000D02*
X143420000Y-168370000D01*
X149960000Y-168040000D02*
X149960000Y-168370000D01*
%TO.C,D7*%
X143545000Y-126910000D02*
X140455000Y-126910000D01*
X144500000Y-129470000D02*
G75*
G03*
X144500000Y-129470000I-2500000J0D01*
G01*
X142000462Y-132460000D02*
G75*
G02*
X140455170Y-126910000I-462J2990000D01*
G01*
X141999538Y-132460000D02*
G75*
G03*
X143544830Y-126910000I462J2990000D01*
G01*
%TO.C,J13*%
X149150000Y-87350000D02*
X147150000Y-84850000D01*
X147150000Y-71600000D02*
X162900000Y-71600000D01*
X162900000Y-71600000D02*
X162900000Y-87350000D01*
X149200000Y-87350000D02*
X149150000Y-87350000D01*
X162900000Y-87350000D02*
X149200000Y-87350000D01*
X147150000Y-84850000D02*
X147150000Y-71600000D01*
%TO.C,R18*%
X139580000Y-168370000D02*
X139580000Y-168040000D01*
X133040000Y-168370000D02*
X139580000Y-168370000D01*
X133040000Y-168040000D02*
X133040000Y-168370000D01*
X139580000Y-165630000D02*
X139580000Y-165960000D01*
X133040000Y-165630000D02*
X139580000Y-165630000D01*
X133040000Y-165960000D02*
X133040000Y-165630000D01*
%TO.C,R13*%
X143420000Y-115630000D02*
X143420000Y-115960000D01*
X149960000Y-115630000D02*
X143420000Y-115630000D01*
X149960000Y-115960000D02*
X149960000Y-115630000D01*
X143420000Y-118370000D02*
X143420000Y-118040000D01*
X149960000Y-118370000D02*
X143420000Y-118370000D01*
X149960000Y-118040000D02*
X149960000Y-118370000D01*
%TO.C,J15*%
X149150000Y-137350000D02*
X147150000Y-134850000D01*
X147150000Y-121600000D02*
X162900000Y-121600000D01*
X162900000Y-121600000D02*
X162900000Y-137350000D01*
X149200000Y-137350000D02*
X149150000Y-137350000D01*
X162900000Y-137350000D02*
X149200000Y-137350000D01*
X147150000Y-134850000D02*
X147150000Y-121600000D01*
%TO.C,J11*%
X123150000Y-112350000D02*
X121150000Y-109850000D01*
X121150000Y-96600000D02*
X136900000Y-96600000D01*
X136900000Y-96600000D02*
X136900000Y-112350000D01*
X123200000Y-112350000D02*
X123150000Y-112350000D01*
X136900000Y-112350000D02*
X123200000Y-112350000D01*
X121150000Y-109850000D02*
X121150000Y-96600000D01*
%TO.C,J16*%
X149150000Y-162350000D02*
X147150000Y-159850000D01*
X147150000Y-146600000D02*
X162900000Y-146600000D01*
X162900000Y-146600000D02*
X162900000Y-162350000D01*
X149200000Y-162350000D02*
X149150000Y-162350000D01*
X162900000Y-162350000D02*
X149200000Y-162350000D01*
X147150000Y-159850000D02*
X147150000Y-146600000D01*
%TO.C,J14*%
X149150000Y-112350000D02*
X147150000Y-109850000D01*
X147150000Y-96600000D02*
X162900000Y-96600000D01*
X162900000Y-96600000D02*
X162900000Y-112350000D01*
X149200000Y-112350000D02*
X149150000Y-112350000D01*
X162900000Y-112350000D02*
X149200000Y-112350000D01*
X147150000Y-109850000D02*
X147150000Y-96600000D01*
%TO.C,R12*%
X139600000Y-92370000D02*
X139600000Y-92040000D01*
X133060000Y-92370000D02*
X139600000Y-92370000D01*
X133060000Y-92040000D02*
X133060000Y-92370000D01*
X139600000Y-89630000D02*
X139600000Y-89960000D01*
X133060000Y-89630000D02*
X139600000Y-89630000D01*
X133060000Y-89960000D02*
X133060000Y-89630000D01*
%TO.C,D8*%
X143545000Y-151910000D02*
X140455000Y-151910000D01*
X144500000Y-154470000D02*
G75*
G03*
X144500000Y-154470000I-2500000J0D01*
G01*
X142000462Y-157460000D02*
G75*
G02*
X140455170Y-151910000I-462J2990000D01*
G01*
X141999538Y-157460000D02*
G75*
G03*
X143544830Y-151910000I462J2990000D01*
G01*
%TO.C,D4*%
X153455000Y-177040000D02*
X156545000Y-177040000D01*
X157500000Y-174480000D02*
G75*
G03*
X157500000Y-174480000I-2500000J0D01*
G01*
X154999538Y-171490000D02*
G75*
G02*
X156544830Y-177040000I462J-2990000D01*
G01*
X155000462Y-171490000D02*
G75*
G03*
X153455170Y-177040000I-462J-2990000D01*
G01*
%TO.C,D5*%
X143545000Y-76910000D02*
X140455000Y-76910000D01*
X144500000Y-79470000D02*
G75*
G03*
X144500000Y-79470000I-2500000J0D01*
G01*
X142000462Y-82460000D02*
G75*
G02*
X140455170Y-76910000I-462J2990000D01*
G01*
X141999538Y-82460000D02*
G75*
G03*
X143544830Y-76910000I462J2990000D01*
G01*
%TO.C,J12*%
X123150000Y-87350000D02*
X121150000Y-84850000D01*
X121150000Y-71600000D02*
X136900000Y-71600000D01*
X136900000Y-71600000D02*
X136900000Y-87350000D01*
X123200000Y-87350000D02*
X123150000Y-87350000D01*
X136900000Y-87350000D02*
X123200000Y-87350000D01*
X121150000Y-84850000D02*
X121150000Y-71600000D01*
%TO.C,J9*%
X123150000Y-137350000D02*
X121150000Y-134850000D01*
X121150000Y-121600000D02*
X136900000Y-121600000D01*
X136900000Y-121600000D02*
X136900000Y-137350000D01*
X123200000Y-137350000D02*
X123150000Y-137350000D01*
X136900000Y-137350000D02*
X123200000Y-137350000D01*
X121150000Y-134850000D02*
X121150000Y-121600000D01*
%TO.C,J10*%
X123150000Y-162350000D02*
X121150000Y-159850000D01*
X121150000Y-146600000D02*
X136900000Y-146600000D01*
X136900000Y-146600000D02*
X136900000Y-162350000D01*
X123200000Y-162350000D02*
X123150000Y-162350000D01*
X136900000Y-162350000D02*
X123200000Y-162350000D01*
X121150000Y-159850000D02*
X121150000Y-146600000D01*
%TO.C,R14*%
X139580000Y-118370000D02*
X139580000Y-118040000D01*
X133040000Y-118370000D02*
X139580000Y-118370000D01*
X133040000Y-118040000D02*
X133040000Y-118370000D01*
X139580000Y-115630000D02*
X139580000Y-115960000D01*
X133040000Y-115630000D02*
X139580000Y-115630000D01*
X133040000Y-115960000D02*
X133040000Y-115630000D01*
%TO.C,R15*%
D10*
X142267857Y-139839285D02*
X142017857Y-139482142D01*
X141839285Y-139839285D02*
X141839285Y-139089285D01*
X142125000Y-139089285D01*
X142196428Y-139125000D01*
X142232142Y-139160714D01*
X142267857Y-139232142D01*
X142267857Y-139339285D01*
X142232142Y-139410714D01*
X142196428Y-139446428D01*
X142125000Y-139482142D01*
X141839285Y-139482142D01*
X142982142Y-139839285D02*
X142553571Y-139839285D01*
X142767857Y-139839285D02*
X142767857Y-139089285D01*
X142696428Y-139196428D01*
X142625000Y-139267857D01*
X142553571Y-139303571D01*
X143660714Y-139089285D02*
X143303571Y-139089285D01*
X143267857Y-139446428D01*
X143303571Y-139410714D01*
X143375000Y-139375000D01*
X143553571Y-139375000D01*
X143625000Y-139410714D01*
X143660714Y-139446428D01*
X143696428Y-139517857D01*
X143696428Y-139696428D01*
X143660714Y-139767857D01*
X143625000Y-139803571D01*
X143553571Y-139839285D01*
X143375000Y-139839285D01*
X143303571Y-139803571D01*
X143267857Y-139767857D01*
X146910714Y-142339285D02*
X146482142Y-142339285D01*
X146696428Y-142339285D02*
X146696428Y-141589285D01*
X146625000Y-141696428D01*
X146553571Y-141767857D01*
X146482142Y-141803571D01*
X147232142Y-142339285D02*
X147232142Y-141589285D01*
X147303571Y-142053571D02*
X147517857Y-142339285D01*
X147517857Y-141839285D02*
X147232142Y-142125000D01*
%TO.C,D6*%
X146412380Y-105208095D02*
X145412380Y-105208095D01*
X145412380Y-104970000D01*
X145460000Y-104827142D01*
X145555238Y-104731904D01*
X145650476Y-104684285D01*
X145840952Y-104636666D01*
X145983809Y-104636666D01*
X146174285Y-104684285D01*
X146269523Y-104731904D01*
X146364761Y-104827142D01*
X146412380Y-104970000D01*
X146412380Y-105208095D01*
X145412380Y-103779523D02*
X145412380Y-103970000D01*
X145460000Y-104065238D01*
X145507619Y-104112857D01*
X145650476Y-104208095D01*
X145840952Y-104255714D01*
X146221904Y-104255714D01*
X146317142Y-104208095D01*
X146364761Y-104160476D01*
X146412380Y-104065238D01*
X146412380Y-103874761D01*
X146364761Y-103779523D01*
X146317142Y-103731904D01*
X146221904Y-103684285D01*
X145983809Y-103684285D01*
X145888571Y-103731904D01*
X145840952Y-103779523D01*
X145793333Y-103874761D01*
X145793333Y-104065238D01*
X145840952Y-104160476D01*
X145888571Y-104208095D01*
X145983809Y-104255714D01*
X142339285Y-100696428D02*
X141589285Y-100696428D01*
X142339285Y-100267857D02*
X141910714Y-100589285D01*
X141589285Y-100267857D02*
X142017857Y-100696428D01*
%TO.C,R10*%
X154017857Y-165339285D02*
X153767857Y-164982142D01*
X153589285Y-165339285D02*
X153589285Y-164589285D01*
X153875000Y-164589285D01*
X153946428Y-164625000D01*
X153982142Y-164660714D01*
X154017857Y-164732142D01*
X154017857Y-164839285D01*
X153982142Y-164910714D01*
X153946428Y-164946428D01*
X153875000Y-164982142D01*
X153589285Y-164982142D01*
X154732142Y-165339285D02*
X154303571Y-165339285D01*
X154517857Y-165339285D02*
X154517857Y-164589285D01*
X154446428Y-164696428D01*
X154375000Y-164767857D01*
X154303571Y-164803571D01*
X155196428Y-164589285D02*
X155267857Y-164589285D01*
X155339285Y-164625000D01*
X155375000Y-164660714D01*
X155410714Y-164732142D01*
X155446428Y-164875000D01*
X155446428Y-165053571D01*
X155410714Y-165196428D01*
X155375000Y-165267857D01*
X155339285Y-165303571D01*
X155267857Y-165339285D01*
X155196428Y-165339285D01*
X155125000Y-165303571D01*
X155089285Y-165267857D01*
X155053571Y-165196428D01*
X155017857Y-165053571D01*
X155017857Y-164875000D01*
X155053571Y-164732142D01*
X155089285Y-164660714D01*
X155125000Y-164625000D01*
X155196428Y-164589285D01*
X157982142Y-166660714D02*
X158017857Y-166625000D01*
X158089285Y-166589285D01*
X158267857Y-166589285D01*
X158339285Y-166625000D01*
X158375000Y-166660714D01*
X158410714Y-166732142D01*
X158410714Y-166803571D01*
X158375000Y-166910714D01*
X157946428Y-167339285D01*
X158410714Y-167339285D01*
X158732142Y-167339285D02*
X158732142Y-166589285D01*
X158803571Y-167053571D02*
X159017857Y-167339285D01*
X159017857Y-166839285D02*
X158732142Y-167125000D01*
%TO.C,R16*%
X133017857Y-139839285D02*
X132767857Y-139482142D01*
X132589285Y-139839285D02*
X132589285Y-139089285D01*
X132875000Y-139089285D01*
X132946428Y-139125000D01*
X132982142Y-139160714D01*
X133017857Y-139232142D01*
X133017857Y-139339285D01*
X132982142Y-139410714D01*
X132946428Y-139446428D01*
X132875000Y-139482142D01*
X132589285Y-139482142D01*
X133732142Y-139839285D02*
X133303571Y-139839285D01*
X133517857Y-139839285D02*
X133517857Y-139089285D01*
X133446428Y-139196428D01*
X133375000Y-139267857D01*
X133303571Y-139303571D01*
X134375000Y-139089285D02*
X134232142Y-139089285D01*
X134160714Y-139125000D01*
X134125000Y-139160714D01*
X134053571Y-139267857D01*
X134017857Y-139410714D01*
X134017857Y-139696428D01*
X134053571Y-139767857D01*
X134089285Y-139803571D01*
X134160714Y-139839285D01*
X134303571Y-139839285D01*
X134375000Y-139803571D01*
X134410714Y-139767857D01*
X134446428Y-139696428D01*
X134446428Y-139517857D01*
X134410714Y-139446428D01*
X134375000Y-139410714D01*
X134303571Y-139375000D01*
X134160714Y-139375000D01*
X134089285Y-139410714D01*
X134053571Y-139446428D01*
X134017857Y-139517857D01*
X135303571Y-141839285D02*
X135303571Y-142339285D01*
X135125000Y-141553571D02*
X134946428Y-142089285D01*
X135410714Y-142089285D01*
X135625000Y-141589285D02*
X136125000Y-141589285D01*
X135803571Y-142339285D01*
X136553571Y-141589285D02*
X136625000Y-141589285D01*
X136696428Y-141625000D01*
X136732142Y-141660714D01*
X136767857Y-141732142D01*
X136803571Y-141875000D01*
X136803571Y-142053571D01*
X136767857Y-142196428D01*
X136732142Y-142267857D01*
X136696428Y-142303571D01*
X136625000Y-142339285D01*
X136553571Y-142339285D01*
X136482142Y-142303571D01*
X136446428Y-142267857D01*
X136410714Y-142196428D01*
X136375000Y-142053571D01*
X136375000Y-141875000D01*
X136410714Y-141732142D01*
X136446428Y-141660714D01*
X136482142Y-141625000D01*
X136553571Y-141589285D01*
X137553571Y-142339285D02*
X137303571Y-141982142D01*
X137125000Y-142339285D02*
X137125000Y-141589285D01*
X137410714Y-141589285D01*
X137482142Y-141625000D01*
X137517857Y-141660714D01*
X137553571Y-141732142D01*
X137553571Y-141839285D01*
X137517857Y-141910714D01*
X137482142Y-141946428D01*
X137410714Y-141982142D01*
X137125000Y-141982142D01*
%TO.C,R11*%
X142517857Y-89339285D02*
X142267857Y-88982142D01*
X142089285Y-89339285D02*
X142089285Y-88589285D01*
X142375000Y-88589285D01*
X142446428Y-88625000D01*
X142482142Y-88660714D01*
X142517857Y-88732142D01*
X142517857Y-88839285D01*
X142482142Y-88910714D01*
X142446428Y-88946428D01*
X142375000Y-88982142D01*
X142089285Y-88982142D01*
X143232142Y-89339285D02*
X142803571Y-89339285D01*
X143017857Y-89339285D02*
X143017857Y-88589285D01*
X142946428Y-88696428D01*
X142875000Y-88767857D01*
X142803571Y-88803571D01*
X143946428Y-89339285D02*
X143517857Y-89339285D01*
X143732142Y-89339285D02*
X143732142Y-88589285D01*
X143660714Y-88696428D01*
X143589285Y-88767857D01*
X143517857Y-88803571D01*
X146910714Y-91339285D02*
X146482142Y-91339285D01*
X146696428Y-91339285D02*
X146696428Y-90589285D01*
X146625000Y-90696428D01*
X146553571Y-90767857D01*
X146482142Y-90803571D01*
X147232142Y-91339285D02*
X147232142Y-90589285D01*
X147303571Y-91053571D02*
X147517857Y-91339285D01*
X147517857Y-90839285D02*
X147232142Y-91125000D01*
%TO.C,R17*%
X144017857Y-164839285D02*
X143767857Y-164482142D01*
X143589285Y-164839285D02*
X143589285Y-164089285D01*
X143875000Y-164089285D01*
X143946428Y-164125000D01*
X143982142Y-164160714D01*
X144017857Y-164232142D01*
X144017857Y-164339285D01*
X143982142Y-164410714D01*
X143946428Y-164446428D01*
X143875000Y-164482142D01*
X143589285Y-164482142D01*
X144732142Y-164839285D02*
X144303571Y-164839285D01*
X144517857Y-164839285D02*
X144517857Y-164089285D01*
X144446428Y-164196428D01*
X144375000Y-164267857D01*
X144303571Y-164303571D01*
X144982142Y-164089285D02*
X145482142Y-164089285D01*
X145160714Y-164839285D01*
X146660714Y-167339285D02*
X146232142Y-167339285D01*
X146446428Y-167339285D02*
X146446428Y-166589285D01*
X146375000Y-166696428D01*
X146303571Y-166767857D01*
X146232142Y-166803571D01*
X146982142Y-167339285D02*
X146982142Y-166589285D01*
X147053571Y-167053571D02*
X147267857Y-167339285D01*
X147267857Y-166839285D02*
X146982142Y-167125000D01*
%TO.C,D7*%
X146412380Y-130208095D02*
X145412380Y-130208095D01*
X145412380Y-129970000D01*
X145460000Y-129827142D01*
X145555238Y-129731904D01*
X145650476Y-129684285D01*
X145840952Y-129636666D01*
X145983809Y-129636666D01*
X146174285Y-129684285D01*
X146269523Y-129731904D01*
X146364761Y-129827142D01*
X146412380Y-129970000D01*
X146412380Y-130208095D01*
X145412380Y-129303333D02*
X145412380Y-128636666D01*
X146412380Y-129065238D01*
X142339285Y-125696428D02*
X141589285Y-125696428D01*
X142339285Y-125267857D02*
X141910714Y-125589285D01*
X141589285Y-125267857D02*
X142017857Y-125696428D01*
%TO.C,J13*%
X146952380Y-88809523D02*
X147666666Y-88809523D01*
X147809523Y-88857142D01*
X147904761Y-88952380D01*
X147952380Y-89095238D01*
X147952380Y-89190476D01*
X147952380Y-87809523D02*
X147952380Y-88380952D01*
X147952380Y-88095238D02*
X146952380Y-88095238D01*
X147095238Y-88190476D01*
X147190476Y-88285714D01*
X147238095Y-88380952D01*
X146952380Y-87476190D02*
X146952380Y-86857142D01*
X147333333Y-87190476D01*
X147333333Y-87047619D01*
X147380952Y-86952380D01*
X147428571Y-86904761D01*
X147523809Y-86857142D01*
X147761904Y-86857142D01*
X147857142Y-86904761D01*
X147904761Y-86952380D01*
X147952380Y-87047619D01*
X147952380Y-87333333D01*
X147904761Y-87428571D01*
X147857142Y-87476190D01*
%TO.C,R18*%
X133017857Y-164839285D02*
X132767857Y-164482142D01*
X132589285Y-164839285D02*
X132589285Y-164089285D01*
X132875000Y-164089285D01*
X132946428Y-164125000D01*
X132982142Y-164160714D01*
X133017857Y-164232142D01*
X133017857Y-164339285D01*
X132982142Y-164410714D01*
X132946428Y-164446428D01*
X132875000Y-164482142D01*
X132589285Y-164482142D01*
X133732142Y-164839285D02*
X133303571Y-164839285D01*
X133517857Y-164839285D02*
X133517857Y-164089285D01*
X133446428Y-164196428D01*
X133375000Y-164267857D01*
X133303571Y-164303571D01*
X134160714Y-164410714D02*
X134089285Y-164375000D01*
X134053571Y-164339285D01*
X134017857Y-164267857D01*
X134017857Y-164232142D01*
X134053571Y-164160714D01*
X134089285Y-164125000D01*
X134160714Y-164089285D01*
X134303571Y-164089285D01*
X134375000Y-164125000D01*
X134410714Y-164160714D01*
X134446428Y-164232142D01*
X134446428Y-164267857D01*
X134410714Y-164339285D01*
X134375000Y-164375000D01*
X134303571Y-164410714D01*
X134160714Y-164410714D01*
X134089285Y-164446428D01*
X134053571Y-164482142D01*
X134017857Y-164553571D01*
X134017857Y-164696428D01*
X134053571Y-164767857D01*
X134089285Y-164803571D01*
X134160714Y-164839285D01*
X134303571Y-164839285D01*
X134375000Y-164803571D01*
X134410714Y-164767857D01*
X134446428Y-164696428D01*
X134446428Y-164553571D01*
X134410714Y-164482142D01*
X134375000Y-164446428D01*
X134303571Y-164410714D01*
X135303571Y-166839285D02*
X135303571Y-167339285D01*
X135125000Y-166553571D02*
X134946428Y-167089285D01*
X135410714Y-167089285D01*
X135625000Y-166589285D02*
X136125000Y-166589285D01*
X135803571Y-167339285D01*
X136553571Y-166589285D02*
X136625000Y-166589285D01*
X136696428Y-166625000D01*
X136732142Y-166660714D01*
X136767857Y-166732142D01*
X136803571Y-166875000D01*
X136803571Y-167053571D01*
X136767857Y-167196428D01*
X136732142Y-167267857D01*
X136696428Y-167303571D01*
X136625000Y-167339285D01*
X136553571Y-167339285D01*
X136482142Y-167303571D01*
X136446428Y-167267857D01*
X136410714Y-167196428D01*
X136375000Y-167053571D01*
X136375000Y-166875000D01*
X136410714Y-166732142D01*
X136446428Y-166660714D01*
X136482142Y-166625000D01*
X136553571Y-166589285D01*
X137553571Y-167339285D02*
X137303571Y-166982142D01*
X137125000Y-167339285D02*
X137125000Y-166589285D01*
X137410714Y-166589285D01*
X137482142Y-166625000D01*
X137517857Y-166660714D01*
X137553571Y-166732142D01*
X137553571Y-166839285D01*
X137517857Y-166910714D01*
X137482142Y-166946428D01*
X137410714Y-166982142D01*
X137125000Y-166982142D01*
%TO.C,R13*%
X142517857Y-114839285D02*
X142267857Y-114482142D01*
X142089285Y-114839285D02*
X142089285Y-114089285D01*
X142375000Y-114089285D01*
X142446428Y-114125000D01*
X142482142Y-114160714D01*
X142517857Y-114232142D01*
X142517857Y-114339285D01*
X142482142Y-114410714D01*
X142446428Y-114446428D01*
X142375000Y-114482142D01*
X142089285Y-114482142D01*
X143232142Y-114839285D02*
X142803571Y-114839285D01*
X143017857Y-114839285D02*
X143017857Y-114089285D01*
X142946428Y-114196428D01*
X142875000Y-114267857D01*
X142803571Y-114303571D01*
X143482142Y-114089285D02*
X143946428Y-114089285D01*
X143696428Y-114375000D01*
X143803571Y-114375000D01*
X143875000Y-114410714D01*
X143910714Y-114446428D01*
X143946428Y-114517857D01*
X143946428Y-114696428D01*
X143910714Y-114767857D01*
X143875000Y-114803571D01*
X143803571Y-114839285D01*
X143589285Y-114839285D01*
X143517857Y-114803571D01*
X143482142Y-114767857D01*
X146910714Y-117339285D02*
X146482142Y-117339285D01*
X146696428Y-117339285D02*
X146696428Y-116589285D01*
X146625000Y-116696428D01*
X146553571Y-116767857D01*
X146482142Y-116803571D01*
X147232142Y-117339285D02*
X147232142Y-116589285D01*
X147303571Y-117053571D02*
X147517857Y-117339285D01*
X147517857Y-116839285D02*
X147232142Y-117125000D01*
%TO.C,J15*%
X146952380Y-138809523D02*
X147666666Y-138809523D01*
X147809523Y-138857142D01*
X147904761Y-138952380D01*
X147952380Y-139095238D01*
X147952380Y-139190476D01*
X147952380Y-137809523D02*
X147952380Y-138380952D01*
X147952380Y-138095238D02*
X146952380Y-138095238D01*
X147095238Y-138190476D01*
X147190476Y-138285714D01*
X147238095Y-138380952D01*
X146952380Y-136904761D02*
X146952380Y-137380952D01*
X147428571Y-137428571D01*
X147380952Y-137380952D01*
X147333333Y-137285714D01*
X147333333Y-137047619D01*
X147380952Y-136952380D01*
X147428571Y-136904761D01*
X147523809Y-136857142D01*
X147761904Y-136857142D01*
X147857142Y-136904761D01*
X147904761Y-136952380D01*
X147952380Y-137047619D01*
X147952380Y-137285714D01*
X147904761Y-137380952D01*
X147857142Y-137428571D01*
%TO.C,J11*%
X120952380Y-113809523D02*
X121666666Y-113809523D01*
X121809523Y-113857142D01*
X121904761Y-113952380D01*
X121952380Y-114095238D01*
X121952380Y-114190476D01*
X121952380Y-112809523D02*
X121952380Y-113380952D01*
X121952380Y-113095238D02*
X120952380Y-113095238D01*
X121095238Y-113190476D01*
X121190476Y-113285714D01*
X121238095Y-113380952D01*
X121952380Y-111857142D02*
X121952380Y-112428571D01*
X121952380Y-112142857D02*
X120952380Y-112142857D01*
X121095238Y-112238095D01*
X121190476Y-112333333D01*
X121238095Y-112428571D01*
%TO.C,J16*%
X146952380Y-163809523D02*
X147666666Y-163809523D01*
X147809523Y-163857142D01*
X147904761Y-163952380D01*
X147952380Y-164095238D01*
X147952380Y-164190476D01*
X147952380Y-162809523D02*
X147952380Y-163380952D01*
X147952380Y-163095238D02*
X146952380Y-163095238D01*
X147095238Y-163190476D01*
X147190476Y-163285714D01*
X147238095Y-163380952D01*
X146952380Y-161952380D02*
X146952380Y-162142857D01*
X147000000Y-162238095D01*
X147047619Y-162285714D01*
X147190476Y-162380952D01*
X147380952Y-162428571D01*
X147761904Y-162428571D01*
X147857142Y-162380952D01*
X147904761Y-162333333D01*
X147952380Y-162238095D01*
X147952380Y-162047619D01*
X147904761Y-161952380D01*
X147857142Y-161904761D01*
X147761904Y-161857142D01*
X147523809Y-161857142D01*
X147428571Y-161904761D01*
X147380952Y-161952380D01*
X147333333Y-162047619D01*
X147333333Y-162238095D01*
X147380952Y-162333333D01*
X147428571Y-162380952D01*
X147523809Y-162428571D01*
%TO.C,J14*%
X146952380Y-113809523D02*
X147666666Y-113809523D01*
X147809523Y-113857142D01*
X147904761Y-113952380D01*
X147952380Y-114095238D01*
X147952380Y-114190476D01*
X147952380Y-112809523D02*
X147952380Y-113380952D01*
X147952380Y-113095238D02*
X146952380Y-113095238D01*
X147095238Y-113190476D01*
X147190476Y-113285714D01*
X147238095Y-113380952D01*
X147285714Y-111952380D02*
X147952380Y-111952380D01*
X146904761Y-112190476D02*
X147619047Y-112428571D01*
X147619047Y-111809523D01*
%TO.C,R12*%
X132017857Y-89339285D02*
X131767857Y-88982142D01*
X131589285Y-89339285D02*
X131589285Y-88589285D01*
X131875000Y-88589285D01*
X131946428Y-88625000D01*
X131982142Y-88660714D01*
X132017857Y-88732142D01*
X132017857Y-88839285D01*
X131982142Y-88910714D01*
X131946428Y-88946428D01*
X131875000Y-88982142D01*
X131589285Y-88982142D01*
X132732142Y-89339285D02*
X132303571Y-89339285D01*
X132517857Y-89339285D02*
X132517857Y-88589285D01*
X132446428Y-88696428D01*
X132375000Y-88767857D01*
X132303571Y-88803571D01*
X133017857Y-88660714D02*
X133053571Y-88625000D01*
X133125000Y-88589285D01*
X133303571Y-88589285D01*
X133375000Y-88625000D01*
X133410714Y-88660714D01*
X133446428Y-88732142D01*
X133446428Y-88803571D01*
X133410714Y-88910714D01*
X132982142Y-89339285D01*
X133446428Y-89339285D01*
X135553571Y-90839285D02*
X135553571Y-91339285D01*
X135375000Y-90553571D02*
X135196428Y-91089285D01*
X135660714Y-91089285D01*
X135875000Y-90589285D02*
X136375000Y-90589285D01*
X136053571Y-91339285D01*
X136803571Y-90589285D02*
X136875000Y-90589285D01*
X136946428Y-90625000D01*
X136982142Y-90660714D01*
X137017857Y-90732142D01*
X137053571Y-90875000D01*
X137053571Y-91053571D01*
X137017857Y-91196428D01*
X136982142Y-91267857D01*
X136946428Y-91303571D01*
X136875000Y-91339285D01*
X136803571Y-91339285D01*
X136732142Y-91303571D01*
X136696428Y-91267857D01*
X136660714Y-91196428D01*
X136625000Y-91053571D01*
X136625000Y-90875000D01*
X136660714Y-90732142D01*
X136696428Y-90660714D01*
X136732142Y-90625000D01*
X136803571Y-90589285D01*
X137803571Y-91339285D02*
X137553571Y-90982142D01*
X137375000Y-91339285D02*
X137375000Y-90589285D01*
X137660714Y-90589285D01*
X137732142Y-90625000D01*
X137767857Y-90660714D01*
X137803571Y-90732142D01*
X137803571Y-90839285D01*
X137767857Y-90910714D01*
X137732142Y-90946428D01*
X137660714Y-90982142D01*
X137375000Y-90982142D01*
%TO.C,D8*%
X146412380Y-155208095D02*
X145412380Y-155208095D01*
X145412380Y-154970000D01*
X145460000Y-154827142D01*
X145555238Y-154731904D01*
X145650476Y-154684285D01*
X145840952Y-154636666D01*
X145983809Y-154636666D01*
X146174285Y-154684285D01*
X146269523Y-154731904D01*
X146364761Y-154827142D01*
X146412380Y-154970000D01*
X146412380Y-155208095D01*
X145840952Y-154065238D02*
X145793333Y-154160476D01*
X145745714Y-154208095D01*
X145650476Y-154255714D01*
X145602857Y-154255714D01*
X145507619Y-154208095D01*
X145460000Y-154160476D01*
X145412380Y-154065238D01*
X145412380Y-153874761D01*
X145460000Y-153779523D01*
X145507619Y-153731904D01*
X145602857Y-153684285D01*
X145650476Y-153684285D01*
X145745714Y-153731904D01*
X145793333Y-153779523D01*
X145840952Y-153874761D01*
X145840952Y-154065238D01*
X145888571Y-154160476D01*
X145936190Y-154208095D01*
X146031428Y-154255714D01*
X146221904Y-154255714D01*
X146317142Y-154208095D01*
X146364761Y-154160476D01*
X146412380Y-154065238D01*
X146412380Y-153874761D01*
X146364761Y-153779523D01*
X146317142Y-153731904D01*
X146221904Y-153684285D01*
X146031428Y-153684285D01*
X145936190Y-153731904D01*
X145888571Y-153779523D01*
X145840952Y-153874761D01*
X142339285Y-150696428D02*
X141589285Y-150696428D01*
X142339285Y-150267857D02*
X141910714Y-150589285D01*
X141589285Y-150267857D02*
X142017857Y-150696428D01*
%TO.C,D4*%
X151492380Y-175218095D02*
X150492380Y-175218095D01*
X150492380Y-174980000D01*
X150540000Y-174837142D01*
X150635238Y-174741904D01*
X150730476Y-174694285D01*
X150920952Y-174646666D01*
X151063809Y-174646666D01*
X151254285Y-174694285D01*
X151349523Y-174741904D01*
X151444761Y-174837142D01*
X151492380Y-174980000D01*
X151492380Y-175218095D01*
X150825714Y-173789523D02*
X151492380Y-173789523D01*
X150444761Y-174027619D02*
X151159047Y-174265714D01*
X151159047Y-173646666D01*
X155339285Y-178646428D02*
X154589285Y-178646428D01*
X155339285Y-178217857D02*
X154910714Y-178539285D01*
X154589285Y-178217857D02*
X155017857Y-178646428D01*
%TO.C,D5*%
X146412380Y-80208095D02*
X145412380Y-80208095D01*
X145412380Y-79970000D01*
X145460000Y-79827142D01*
X145555238Y-79731904D01*
X145650476Y-79684285D01*
X145840952Y-79636666D01*
X145983809Y-79636666D01*
X146174285Y-79684285D01*
X146269523Y-79731904D01*
X146364761Y-79827142D01*
X146412380Y-79970000D01*
X146412380Y-80208095D01*
X145412380Y-78731904D02*
X145412380Y-79208095D01*
X145888571Y-79255714D01*
X145840952Y-79208095D01*
X145793333Y-79112857D01*
X145793333Y-78874761D01*
X145840952Y-78779523D01*
X145888571Y-78731904D01*
X145983809Y-78684285D01*
X146221904Y-78684285D01*
X146317142Y-78731904D01*
X146364761Y-78779523D01*
X146412380Y-78874761D01*
X146412380Y-79112857D01*
X146364761Y-79208095D01*
X146317142Y-79255714D01*
X142339285Y-75696428D02*
X141589285Y-75696428D01*
X142339285Y-75267857D02*
X141910714Y-75589285D01*
X141589285Y-75267857D02*
X142017857Y-75696428D01*
%TO.C,J12*%
X120952380Y-88809523D02*
X121666666Y-88809523D01*
X121809523Y-88857142D01*
X121904761Y-88952380D01*
X121952380Y-89095238D01*
X121952380Y-89190476D01*
X121952380Y-87809523D02*
X121952380Y-88380952D01*
X121952380Y-88095238D02*
X120952380Y-88095238D01*
X121095238Y-88190476D01*
X121190476Y-88285714D01*
X121238095Y-88380952D01*
X121047619Y-87428571D02*
X121000000Y-87380952D01*
X120952380Y-87285714D01*
X120952380Y-87047619D01*
X121000000Y-86952380D01*
X121047619Y-86904761D01*
X121142857Y-86857142D01*
X121238095Y-86857142D01*
X121380952Y-86904761D01*
X121952380Y-87476190D01*
X121952380Y-86857142D01*
%TO.C,J9*%
X120952380Y-139333333D02*
X121666666Y-139333333D01*
X121809523Y-139380952D01*
X121904761Y-139476190D01*
X121952380Y-139619047D01*
X121952380Y-139714285D01*
X121952380Y-138809523D02*
X121952380Y-138619047D01*
X121904761Y-138523809D01*
X121857142Y-138476190D01*
X121714285Y-138380952D01*
X121523809Y-138333333D01*
X121142857Y-138333333D01*
X121047619Y-138380952D01*
X121000000Y-138428571D01*
X120952380Y-138523809D01*
X120952380Y-138714285D01*
X121000000Y-138809523D01*
X121047619Y-138857142D01*
X121142857Y-138904761D01*
X121380952Y-138904761D01*
X121476190Y-138857142D01*
X121523809Y-138809523D01*
X121571428Y-138714285D01*
X121571428Y-138523809D01*
X121523809Y-138428571D01*
X121476190Y-138380952D01*
X121380952Y-138333333D01*
%TO.C,J10*%
X120952380Y-163809523D02*
X121666666Y-163809523D01*
X121809523Y-163857142D01*
X121904761Y-163952380D01*
X121952380Y-164095238D01*
X121952380Y-164190476D01*
X121952380Y-162809523D02*
X121952380Y-163380952D01*
X121952380Y-163095238D02*
X120952380Y-163095238D01*
X121095238Y-163190476D01*
X121190476Y-163285714D01*
X121238095Y-163380952D01*
X120952380Y-162190476D02*
X120952380Y-162095238D01*
X121000000Y-162000000D01*
X121047619Y-161952380D01*
X121142857Y-161904761D01*
X121333333Y-161857142D01*
X121571428Y-161857142D01*
X121761904Y-161904761D01*
X121857142Y-161952380D01*
X121904761Y-162000000D01*
X121952380Y-162095238D01*
X121952380Y-162190476D01*
X121904761Y-162285714D01*
X121857142Y-162333333D01*
X121761904Y-162380952D01*
X121571428Y-162428571D01*
X121333333Y-162428571D01*
X121142857Y-162380952D01*
X121047619Y-162333333D01*
X121000000Y-162285714D01*
X120952380Y-162190476D01*
%TO.C,R14*%
X133017857Y-114839285D02*
X132767857Y-114482142D01*
X132589285Y-114839285D02*
X132589285Y-114089285D01*
X132875000Y-114089285D01*
X132946428Y-114125000D01*
X132982142Y-114160714D01*
X133017857Y-114232142D01*
X133017857Y-114339285D01*
X132982142Y-114410714D01*
X132946428Y-114446428D01*
X132875000Y-114482142D01*
X132589285Y-114482142D01*
X133732142Y-114839285D02*
X133303571Y-114839285D01*
X133517857Y-114839285D02*
X133517857Y-114089285D01*
X133446428Y-114196428D01*
X133375000Y-114267857D01*
X133303571Y-114303571D01*
X134375000Y-114339285D02*
X134375000Y-114839285D01*
X134196428Y-114053571D02*
X134017857Y-114589285D01*
X134482142Y-114589285D01*
X135303571Y-116839285D02*
X135303571Y-117339285D01*
X135125000Y-116553571D02*
X134946428Y-117089285D01*
X135410714Y-117089285D01*
X135625000Y-116589285D02*
X136125000Y-116589285D01*
X135803571Y-117339285D01*
X136553571Y-116589285D02*
X136625000Y-116589285D01*
X136696428Y-116625000D01*
X136732142Y-116660714D01*
X136767857Y-116732142D01*
X136803571Y-116875000D01*
X136803571Y-117053571D01*
X136767857Y-117196428D01*
X136732142Y-117267857D01*
X136696428Y-117303571D01*
X136625000Y-117339285D01*
X136553571Y-117339285D01*
X136482142Y-117303571D01*
X136446428Y-117267857D01*
X136410714Y-117196428D01*
X136375000Y-117053571D01*
X136375000Y-116875000D01*
X136410714Y-116732142D01*
X136446428Y-116660714D01*
X136482142Y-116625000D01*
X136553571Y-116589285D01*
X137553571Y-117339285D02*
X137303571Y-116982142D01*
X137125000Y-117339285D02*
X137125000Y-116589285D01*
X137410714Y-116589285D01*
X137482142Y-116625000D01*
X137517857Y-116660714D01*
X137553571Y-116732142D01*
X137553571Y-116839285D01*
X137517857Y-116910714D01*
X137482142Y-116946428D01*
X137410714Y-116982142D01*
X137125000Y-116982142D01*
%TD*%
M02*
