%TF.GenerationSoftware,KiCad,Pcbnew,5.1.9-73d0e3b20d~88~ubuntu20.04.1*%
%TF.CreationDate,2021-03-31T23:36:19-04:00*%
%TF.ProjectId,MCVI,4d435649-2e6b-4696-9361-645f70636258,rev?*%
%TF.SameCoordinates,Original*%
%TF.FileFunction,Copper,L1,Top*%
%TF.FilePolarity,Positive*%
%FSLAX46Y46*%
G04 Gerber Fmt 4.6, Leading zero omitted, Abs format (unit mm)*
G04 Created by KiCad (PCBNEW 5.1.9-73d0e3b20d~88~ubuntu20.04.1) date 2021-03-31 23:36:19*
%MOMM*%
%LPD*%
G01*
G04 APERTURE LIST*
%TA.AperFunction,ComponentPad*%
%ADD10O,1.600000X1.600000*%
%TD*%
%TA.AperFunction,ComponentPad*%
%ADD11C,1.600000*%
%TD*%
%TA.AperFunction,ComponentPad*%
%ADD12C,1.800000*%
%TD*%
%TA.AperFunction,ComponentPad*%
%ADD13R,1.800000X1.800000*%
%TD*%
%TA.AperFunction,ComponentPad*%
%ADD14C,4.500001*%
%TD*%
%TA.AperFunction,ComponentPad*%
%ADD15C,4.500000*%
%TD*%
%TA.AperFunction,ComponentPad*%
%ADD16R,4.500001X4.500001*%
%TD*%
%TA.AperFunction,ComponentPad*%
%ADD17O,1.700000X1.700000*%
%TD*%
%TA.AperFunction,ComponentPad*%
%ADD18R,1.700000X1.700000*%
%TD*%
%TA.AperFunction,Conductor*%
%ADD19C,0.250000*%
%TD*%
%TA.AperFunction,Conductor*%
%ADD20C,0.254000*%
%TD*%
%TA.AperFunction,Conductor*%
%ADD21C,0.100000*%
%TD*%
G04 APERTURE END LIST*
D10*
%TO.P,R15,2*%
%TO.N,/Panel components/CLOCK_1PQ_C*%
X142880000Y-142000000D03*
D11*
%TO.P,R15,1*%
%TO.N,/Panel components/CLOCK_1PQ*%
X150500000Y-142000000D03*
%TD*%
D12*
%TO.P,D6,2*%
%TO.N,Net-(D6-Pad2)*%
X142000000Y-105740000D03*
D13*
%TO.P,D6,1*%
%TO.N,GND1*%
X142000000Y-103200000D03*
%TD*%
D10*
%TO.P,R10,2*%
%TO.N,/Panel components/MIDI_LED_C*%
X162120000Y-167000000D03*
D11*
%TO.P,R10,1*%
%TO.N,Net-(D4-Pad2)*%
X154500000Y-167000000D03*
%TD*%
D10*
%TO.P,R16,2*%
%TO.N,/Panel components/CLOCK_1PQ_C*%
X140120000Y-142000000D03*
D11*
%TO.P,R16,1*%
%TO.N,Net-(D7-Pad2)*%
X132500000Y-142000000D03*
%TD*%
D10*
%TO.P,R11,2*%
%TO.N,/Panel components/GATE_C*%
X142880000Y-91000000D03*
D11*
%TO.P,R11,1*%
%TO.N,/Panel components/GATE*%
X150500000Y-91000000D03*
%TD*%
D10*
%TO.P,R17,2*%
%TO.N,/Panel components/CLOCK_4PQ_C*%
X142880000Y-167000000D03*
D11*
%TO.P,R17,1*%
%TO.N,/Panel components/CLOCK_4PQ*%
X150500000Y-167000000D03*
%TD*%
D12*
%TO.P,D7,2*%
%TO.N,Net-(D7-Pad2)*%
X142000000Y-130740000D03*
D13*
%TO.P,D7,1*%
%TO.N,GND1*%
X142000000Y-128200000D03*
%TD*%
D14*
%TO.P,J13,RN*%
%TO.N,N/C*%
X157500000Y-85900000D03*
D15*
%TO.P,J13,TN*%
X148600000Y-77000000D03*
D14*
%TO.P,J13,R*%
X161400000Y-80000000D03*
D16*
%TO.P,J13,S*%
%TO.N,GND1*%
X150260000Y-84240000D03*
D15*
%TO.P,J13,T*%
%TO.N,/Panel components/GATE*%
X154500000Y-73100000D03*
%TD*%
D10*
%TO.P,R18,2*%
%TO.N,/Panel components/CLOCK_4PQ_C*%
X140120000Y-167000000D03*
D11*
%TO.P,R18,1*%
%TO.N,Net-(D8-Pad2)*%
X132500000Y-167000000D03*
%TD*%
D10*
%TO.P,R13,2*%
%TO.N,/Panel components/TRIGGER_C*%
X142880000Y-117000000D03*
D11*
%TO.P,R13,1*%
%TO.N,/Panel components/TRIGGER*%
X150500000Y-117000000D03*
%TD*%
D14*
%TO.P,J15,RN*%
%TO.N,N/C*%
X157500000Y-135900000D03*
D15*
%TO.P,J15,TN*%
X148600000Y-127000000D03*
D14*
%TO.P,J15,R*%
X161400000Y-130000000D03*
D16*
%TO.P,J15,S*%
%TO.N,GND1*%
X150260000Y-134240000D03*
D15*
%TO.P,J15,T*%
%TO.N,/Panel components/CLOCK_1PQ*%
X154500000Y-123100000D03*
%TD*%
D14*
%TO.P,J11,RN*%
%TO.N,N/C*%
X131500000Y-110900000D03*
D15*
%TO.P,J11,TN*%
X122600000Y-102000000D03*
D14*
%TO.P,J11,R*%
X135400000Y-105000000D03*
D16*
%TO.P,J11,S*%
%TO.N,GND1*%
X124260000Y-109240000D03*
D15*
%TO.P,J11,T*%
%TO.N,/Panel components/VELOCITY*%
X128500000Y-98100000D03*
%TD*%
D14*
%TO.P,J16,RN*%
%TO.N,N/C*%
X157500000Y-160900000D03*
D15*
%TO.P,J16,TN*%
X148600000Y-152000000D03*
D14*
%TO.P,J16,R*%
X161400000Y-155000000D03*
D16*
%TO.P,J16,S*%
%TO.N,GND1*%
X150260000Y-159240000D03*
D15*
%TO.P,J16,T*%
%TO.N,/Panel components/CLOCK_4PQ*%
X154500000Y-148100000D03*
%TD*%
D14*
%TO.P,J14,RN*%
%TO.N,N/C*%
X157500000Y-110900000D03*
D15*
%TO.P,J14,TN*%
X148600000Y-102000000D03*
D14*
%TO.P,J14,R*%
X161400000Y-105000000D03*
D16*
%TO.P,J14,S*%
%TO.N,GND1*%
X150260000Y-109240000D03*
D15*
%TO.P,J14,T*%
%TO.N,/Panel components/TRIGGER*%
X154500000Y-98100000D03*
%TD*%
D10*
%TO.P,R12,2*%
%TO.N,/Panel components/GATE_C*%
X140140000Y-91000000D03*
D11*
%TO.P,R12,1*%
%TO.N,Net-(D5-Pad2)*%
X132520000Y-91000000D03*
%TD*%
D12*
%TO.P,D8,2*%
%TO.N,Net-(D8-Pad2)*%
X142000000Y-155740000D03*
D13*
%TO.P,D8,1*%
%TO.N,GND1*%
X142000000Y-153200000D03*
%TD*%
D12*
%TO.P,D4,2*%
%TO.N,Net-(D4-Pad2)*%
X155000000Y-173210000D03*
D13*
%TO.P,D4,1*%
%TO.N,GND1*%
X155000000Y-175750000D03*
%TD*%
D12*
%TO.P,D5,2*%
%TO.N,Net-(D5-Pad2)*%
X142000000Y-80740000D03*
D13*
%TO.P,D5,1*%
%TO.N,GND1*%
X142000000Y-78200000D03*
%TD*%
D14*
%TO.P,J12,RN*%
%TO.N,N/C*%
X131500000Y-85900000D03*
D15*
%TO.P,J12,TN*%
X122600000Y-77000000D03*
D14*
%TO.P,J12,R*%
X135400000Y-80000000D03*
D16*
%TO.P,J12,S*%
%TO.N,GND1*%
X124260000Y-84240000D03*
D15*
%TO.P,J12,T*%
%TO.N,/Panel components/NOTE*%
X128500000Y-73100000D03*
%TD*%
D14*
%TO.P,J9,RN*%
%TO.N,N/C*%
X131500000Y-135900000D03*
D15*
%TO.P,J9,TN*%
X122600000Y-127000000D03*
D14*
%TO.P,J9,R*%
X135400000Y-130000000D03*
D16*
%TO.P,J9,S*%
%TO.N,GND1*%
X124260000Y-134240000D03*
D15*
%TO.P,J9,T*%
%TO.N,/Panel components/PITCH_BEND*%
X128500000Y-123100000D03*
%TD*%
D14*
%TO.P,J10,RN*%
%TO.N,N/C*%
X131500000Y-160900000D03*
D15*
%TO.P,J10,TN*%
X122600000Y-152000000D03*
D14*
%TO.P,J10,R*%
X135400000Y-155000000D03*
D16*
%TO.P,J10,S*%
%TO.N,GND1*%
X124260000Y-159240000D03*
D15*
%TO.P,J10,T*%
%TO.N,/Panel components/CONTROL*%
X128500000Y-148100000D03*
%TD*%
D10*
%TO.P,R14,2*%
%TO.N,/Panel components/TRIGGER_C*%
X140120000Y-117000000D03*
D11*
%TO.P,R14,1*%
%TO.N,Net-(D6-Pad2)*%
X132500000Y-117000000D03*
%TD*%
D17*
%TO.P,J8,10*%
%TO.N,/Panel components/PITCH_BEND*%
X129640000Y-67500000D03*
%TO.P,J8,9*%
%TO.N,/Panel components/CONTROL*%
X132180000Y-67500000D03*
%TO.P,J8,8*%
%TO.N,/Panel components/VELOCITY*%
X134720000Y-67500000D03*
%TO.P,J8,7*%
%TO.N,/Panel components/NOTE*%
X137260000Y-67500000D03*
%TO.P,J8,6*%
%TO.N,/Panel components/MIDI_LED_C*%
X139800000Y-67500000D03*
%TO.P,J8,5*%
%TO.N,/Panel components/GATE_C*%
X142340000Y-67500000D03*
%TO.P,J8,4*%
%TO.N,/Panel components/TRIGGER_C*%
X144880000Y-67500000D03*
%TO.P,J8,3*%
%TO.N,/Panel components/CLOCK_1PQ_C*%
X147420000Y-67500000D03*
%TO.P,J8,2*%
%TO.N,/Panel components/CLOCK_4PQ_C*%
X149960000Y-67500000D03*
D18*
%TO.P,J8,1*%
%TO.N,GND1*%
X152500000Y-67500000D03*
%TD*%
D19*
%TO.N,/Panel components/CONTROL*%
X125892700Y-128995500D02*
X128500000Y-131602800D01*
X125892700Y-119916000D02*
X125892700Y-128995500D01*
X126835400Y-118973300D02*
X125892700Y-119916000D01*
X126835400Y-101545900D02*
X126835400Y-118973300D01*
X125281000Y-99991500D02*
X126835400Y-101545900D01*
X125281000Y-94766000D02*
X125281000Y-99991500D01*
X128049600Y-91997400D02*
X125281000Y-94766000D01*
X128049600Y-82867100D02*
X128049600Y-91997400D01*
X132180000Y-78736700D02*
X128049600Y-82867100D01*
X128500000Y-131602800D02*
X128500000Y-148100000D01*
X132180000Y-67500000D02*
X132180000Y-78736700D01*
%TO.N,/Panel components/VELOCITY*%
X134720000Y-67500000D02*
X134720000Y-68675300D01*
X134720000Y-68675300D02*
X132824600Y-70570700D01*
X132824600Y-70570700D02*
X132824600Y-80658900D01*
X132824600Y-80658900D02*
X128500000Y-84983500D01*
X128500000Y-84983500D02*
X128500000Y-98100000D01*
%TO.N,/Panel components/TRIGGER*%
X154500000Y-98100000D02*
X154500000Y-113000000D01*
X154500000Y-113000000D02*
X150500000Y-117000000D01*
%TO.N,Net-(D4-Pad2)*%
X154500000Y-171610000D02*
X154500000Y-167000000D01*
X154999000Y-172109000D02*
X154500000Y-171610000D01*
X154999000Y-173209000D02*
X154999000Y-172109000D01*
X155000000Y-173210000D02*
X154999000Y-173209000D01*
%TO.N,/Panel components/CLOCK_4PQ_C*%
X142880000Y-167000000D02*
X140120000Y-167000000D01*
X145347000Y-164533000D02*
X142880000Y-167000000D01*
X145347000Y-73288300D02*
X145347000Y-164533000D01*
X149960000Y-68675300D02*
X145347000Y-73288300D01*
X149960000Y-67500000D02*
X149960000Y-68675300D01*
%TO.N,/Panel components/TRIGGER_C*%
X140120000Y-117000000D02*
X142880000Y-117000000D01*
X144712000Y-115168000D02*
X142880000Y-117000000D01*
X144712000Y-68843300D02*
X144712000Y-115168000D01*
X144880000Y-68675300D02*
X144712000Y-68843300D01*
X144880000Y-67500000D02*
X144880000Y-68675300D01*
%TO.N,/Panel components/CLOCK_4PQ*%
X154500000Y-148100000D02*
X154500000Y-163000000D01*
X154500000Y-163000000D02*
X150500000Y-167000000D01*
%TO.N,/Panel components/CLOCK_1PQ*%
X154500000Y-123100000D02*
X154500000Y-138000000D01*
X154500000Y-138000000D02*
X150500000Y-142000000D01*
%TD*%
D20*
%TO.N,GND1*%
X164315001Y-178315000D02*
X154207401Y-178315000D01*
X151709901Y-176650000D01*
X153461928Y-176650000D01*
X153474188Y-176774482D01*
X153510498Y-176894180D01*
X153569463Y-177004494D01*
X153648815Y-177101185D01*
X153745506Y-177180537D01*
X153855820Y-177239502D01*
X153975518Y-177275812D01*
X154100000Y-177288072D01*
X154714250Y-177285000D01*
X154873000Y-177126250D01*
X154873000Y-175877000D01*
X155127000Y-175877000D01*
X155127000Y-177126250D01*
X155285750Y-177285000D01*
X155900000Y-177288072D01*
X156024482Y-177275812D01*
X156144180Y-177239502D01*
X156254494Y-177180537D01*
X156351185Y-177101185D01*
X156430537Y-177004494D01*
X156489502Y-176894180D01*
X156525812Y-176774482D01*
X156538072Y-176650000D01*
X156535000Y-176035750D01*
X156376250Y-175877000D01*
X155127000Y-175877000D01*
X154873000Y-175877000D01*
X153623750Y-175877000D01*
X153465000Y-176035750D01*
X153461928Y-176650000D01*
X151709901Y-176650000D01*
X150404709Y-175779872D01*
X159765000Y-175779872D01*
X159765000Y-176220128D01*
X159850890Y-176651925D01*
X160019369Y-177058669D01*
X160263962Y-177424729D01*
X160575271Y-177736038D01*
X160941331Y-177980631D01*
X161348075Y-178149110D01*
X161779872Y-178235000D01*
X162220128Y-178235000D01*
X162651925Y-178149110D01*
X163058669Y-177980631D01*
X163424729Y-177736038D01*
X163736038Y-177424729D01*
X163980631Y-177058669D01*
X164149110Y-176651925D01*
X164235000Y-176220128D01*
X164235000Y-175779872D01*
X164149110Y-175348075D01*
X163980631Y-174941331D01*
X163736038Y-174575271D01*
X163424729Y-174263962D01*
X163058669Y-174019369D01*
X162651925Y-173850890D01*
X162220128Y-173765000D01*
X161779872Y-173765000D01*
X161348075Y-173850890D01*
X160941331Y-174019369D01*
X160575271Y-174263962D01*
X160263962Y-174575271D01*
X160019369Y-174941331D01*
X159850890Y-175348075D01*
X159765000Y-175779872D01*
X150404709Y-175779872D01*
X145408269Y-172448913D01*
X145382407Y-172427688D01*
X145352266Y-172411578D01*
X145351973Y-172411382D01*
X145323191Y-172396036D01*
X145263406Y-172364081D01*
X145263055Y-172363975D01*
X145262741Y-172363807D01*
X145199424Y-172344672D01*
X145134283Y-172324912D01*
X145133918Y-172324876D01*
X145133577Y-172324773D01*
X145067599Y-172318344D01*
X145033647Y-172315000D01*
X145033280Y-172315000D01*
X144999280Y-172311687D01*
X144966002Y-172315000D01*
X139033998Y-172315000D01*
X139000720Y-172311687D01*
X138966717Y-172315000D01*
X138966353Y-172315000D01*
X138932927Y-172318292D01*
X138866422Y-172324772D01*
X138866076Y-172324877D01*
X138865717Y-172324912D01*
X138801717Y-172344326D01*
X138737258Y-172363806D01*
X138736938Y-172363977D01*
X138736594Y-172364081D01*
X138677450Y-172395694D01*
X138648026Y-172411382D01*
X138647729Y-172411580D01*
X138617593Y-172427688D01*
X138591735Y-172448909D01*
X129792600Y-178315000D01*
X119685000Y-178315000D01*
X119685000Y-175779872D01*
X119765000Y-175779872D01*
X119765000Y-176220128D01*
X119850890Y-176651925D01*
X120019369Y-177058669D01*
X120263962Y-177424729D01*
X120575271Y-177736038D01*
X120941331Y-177980631D01*
X121348075Y-178149110D01*
X121779872Y-178235000D01*
X122220128Y-178235000D01*
X122651925Y-178149110D01*
X123058669Y-177980631D01*
X123424729Y-177736038D01*
X123736038Y-177424729D01*
X123980631Y-177058669D01*
X124149110Y-176651925D01*
X124235000Y-176220128D01*
X124235000Y-175779872D01*
X124149110Y-175348075D01*
X123980631Y-174941331D01*
X123736038Y-174575271D01*
X123424729Y-174263962D01*
X123058669Y-174019369D01*
X122651925Y-173850890D01*
X122220128Y-173765000D01*
X121779872Y-173765000D01*
X121348075Y-173850890D01*
X120941331Y-174019369D01*
X120575271Y-174263962D01*
X120263962Y-174575271D01*
X120019369Y-174941331D01*
X119850890Y-175348075D01*
X119765000Y-175779872D01*
X119685000Y-175779872D01*
X119685000Y-166858665D01*
X131065000Y-166858665D01*
X131065000Y-167141335D01*
X131120147Y-167418574D01*
X131228320Y-167679727D01*
X131385363Y-167914759D01*
X131585241Y-168114637D01*
X131820273Y-168271680D01*
X132081426Y-168379853D01*
X132358665Y-168435000D01*
X132641335Y-168435000D01*
X132918574Y-168379853D01*
X133179727Y-168271680D01*
X133414759Y-168114637D01*
X133614637Y-167914759D01*
X133771680Y-167679727D01*
X133879853Y-167418574D01*
X133935000Y-167141335D01*
X133935000Y-166858665D01*
X133879853Y-166581426D01*
X133771680Y-166320273D01*
X133614637Y-166085241D01*
X133414759Y-165885363D01*
X133179727Y-165728320D01*
X132918574Y-165620147D01*
X132641335Y-165565000D01*
X132358665Y-165565000D01*
X132081426Y-165620147D01*
X131820273Y-165728320D01*
X131585241Y-165885363D01*
X131385363Y-166085241D01*
X131228320Y-166320273D01*
X131120147Y-166581426D01*
X131065000Y-166858665D01*
X119685000Y-166858665D01*
X119685000Y-161490000D01*
X121371928Y-161490000D01*
X121384188Y-161614482D01*
X121420498Y-161734180D01*
X121479463Y-161844494D01*
X121558815Y-161941185D01*
X121655506Y-162020537D01*
X121765820Y-162079502D01*
X121885518Y-162115812D01*
X122010000Y-162128072D01*
X123974250Y-162125000D01*
X124133000Y-161966250D01*
X124133000Y-159367000D01*
X124387000Y-159367000D01*
X124387000Y-161966250D01*
X124545750Y-162125000D01*
X126510000Y-162128072D01*
X126634482Y-162115812D01*
X126754180Y-162079502D01*
X126864494Y-162020537D01*
X126961185Y-161941185D01*
X127040537Y-161844494D01*
X127099502Y-161734180D01*
X127135812Y-161614482D01*
X127148072Y-161490000D01*
X127146705Y-160615852D01*
X128615000Y-160615852D01*
X128615000Y-161184148D01*
X128725869Y-161741523D01*
X128943346Y-162266560D01*
X129259074Y-162739080D01*
X129660920Y-163140926D01*
X130133440Y-163456654D01*
X130658477Y-163674131D01*
X131215852Y-163785000D01*
X131784148Y-163785000D01*
X132341523Y-163674131D01*
X132866560Y-163456654D01*
X133339080Y-163140926D01*
X133740926Y-162739080D01*
X134056654Y-162266560D01*
X134274131Y-161741523D01*
X134385000Y-161184148D01*
X134385000Y-160615852D01*
X134274131Y-160058477D01*
X134056654Y-159533440D01*
X133740926Y-159060920D01*
X133339080Y-158659074D01*
X132866560Y-158343346D01*
X132341523Y-158125869D01*
X131784148Y-158015000D01*
X131215852Y-158015000D01*
X130658477Y-158125869D01*
X130133440Y-158343346D01*
X129660920Y-158659074D01*
X129259074Y-159060920D01*
X128943346Y-159533440D01*
X128725869Y-160058477D01*
X128615000Y-160615852D01*
X127146705Y-160615852D01*
X127145000Y-159525750D01*
X126986250Y-159367000D01*
X124387000Y-159367000D01*
X124133000Y-159367000D01*
X121533750Y-159367000D01*
X121375000Y-159525750D01*
X121371928Y-161490000D01*
X119685000Y-161490000D01*
X119685000Y-156990000D01*
X121371928Y-156990000D01*
X121375000Y-158954250D01*
X121533750Y-159113000D01*
X124133000Y-159113000D01*
X124133000Y-156513750D01*
X124387000Y-156513750D01*
X124387000Y-159113000D01*
X126986250Y-159113000D01*
X127145000Y-158954250D01*
X127148072Y-156990000D01*
X127135812Y-156865518D01*
X127099502Y-156745820D01*
X127040537Y-156635506D01*
X126961185Y-156538815D01*
X126864494Y-156459463D01*
X126754180Y-156400498D01*
X126634482Y-156364188D01*
X126510000Y-156351928D01*
X124545750Y-156355000D01*
X124387000Y-156513750D01*
X124133000Y-156513750D01*
X123974250Y-156355000D01*
X122010000Y-156351928D01*
X121885518Y-156364188D01*
X121765820Y-156400498D01*
X121655506Y-156459463D01*
X121558815Y-156538815D01*
X121479463Y-156635506D01*
X121420498Y-156745820D01*
X121384188Y-156865518D01*
X121371928Y-156990000D01*
X119685000Y-156990000D01*
X119685000Y-151715852D01*
X119715000Y-151715852D01*
X119715000Y-152284148D01*
X119825869Y-152841523D01*
X120043346Y-153366560D01*
X120359074Y-153839080D01*
X120760920Y-154240926D01*
X121233440Y-154556654D01*
X121758477Y-154774131D01*
X122315852Y-154885000D01*
X122884148Y-154885000D01*
X123441523Y-154774131D01*
X123582221Y-154715852D01*
X132515000Y-154715852D01*
X132515000Y-155284148D01*
X132625869Y-155841523D01*
X132843346Y-156366560D01*
X133159074Y-156839080D01*
X133560920Y-157240926D01*
X134033440Y-157556654D01*
X134558477Y-157774131D01*
X135115852Y-157885000D01*
X135684148Y-157885000D01*
X136241523Y-157774131D01*
X136766560Y-157556654D01*
X137239080Y-157240926D01*
X137640926Y-156839080D01*
X137956654Y-156366560D01*
X138174131Y-155841523D01*
X138285000Y-155284148D01*
X138285000Y-154715852D01*
X138174131Y-154158477D01*
X138149910Y-154100000D01*
X140461928Y-154100000D01*
X140474188Y-154224482D01*
X140510498Y-154344180D01*
X140569463Y-154454494D01*
X140648815Y-154551185D01*
X140745506Y-154630537D01*
X140855820Y-154689502D01*
X140874127Y-154695056D01*
X140807688Y-154761495D01*
X140639701Y-155012905D01*
X140523989Y-155292257D01*
X140465000Y-155588816D01*
X140465000Y-155891184D01*
X140523989Y-156187743D01*
X140639701Y-156467095D01*
X140807688Y-156718505D01*
X141021495Y-156932312D01*
X141272905Y-157100299D01*
X141552257Y-157216011D01*
X141848816Y-157275000D01*
X142151184Y-157275000D01*
X142447743Y-157216011D01*
X142727095Y-157100299D01*
X142978505Y-156932312D01*
X143192312Y-156718505D01*
X143360299Y-156467095D01*
X143476011Y-156187743D01*
X143535000Y-155891184D01*
X143535000Y-155588816D01*
X143476011Y-155292257D01*
X143360299Y-155012905D01*
X143192312Y-154761495D01*
X143125873Y-154695056D01*
X143144180Y-154689502D01*
X143254494Y-154630537D01*
X143351185Y-154551185D01*
X143430537Y-154454494D01*
X143489502Y-154344180D01*
X143525812Y-154224482D01*
X143538072Y-154100000D01*
X143535000Y-153485750D01*
X143376250Y-153327000D01*
X142127000Y-153327000D01*
X142127000Y-153347000D01*
X141873000Y-153347000D01*
X141873000Y-153327000D01*
X140623750Y-153327000D01*
X140465000Y-153485750D01*
X140461928Y-154100000D01*
X138149910Y-154100000D01*
X137956654Y-153633440D01*
X137640926Y-153160920D01*
X137239080Y-152759074D01*
X136766560Y-152443346D01*
X136420492Y-152300000D01*
X140461928Y-152300000D01*
X140465000Y-152914250D01*
X140623750Y-153073000D01*
X141873000Y-153073000D01*
X141873000Y-151823750D01*
X142127000Y-151823750D01*
X142127000Y-153073000D01*
X143376250Y-153073000D01*
X143535000Y-152914250D01*
X143538072Y-152300000D01*
X143525812Y-152175518D01*
X143489502Y-152055820D01*
X143430537Y-151945506D01*
X143351185Y-151848815D01*
X143254494Y-151769463D01*
X143144180Y-151710498D01*
X143024482Y-151674188D01*
X142900000Y-151661928D01*
X142285750Y-151665000D01*
X142127000Y-151823750D01*
X141873000Y-151823750D01*
X141714250Y-151665000D01*
X141100000Y-151661928D01*
X140975518Y-151674188D01*
X140855820Y-151710498D01*
X140745506Y-151769463D01*
X140648815Y-151848815D01*
X140569463Y-151945506D01*
X140510498Y-152055820D01*
X140474188Y-152175518D01*
X140461928Y-152300000D01*
X136420492Y-152300000D01*
X136241523Y-152225869D01*
X135684148Y-152115000D01*
X135115852Y-152115000D01*
X134558477Y-152225869D01*
X134033440Y-152443346D01*
X133560920Y-152759074D01*
X133159074Y-153160920D01*
X132843346Y-153633440D01*
X132625869Y-154158477D01*
X132515000Y-154715852D01*
X123582221Y-154715852D01*
X123966560Y-154556654D01*
X124439080Y-154240926D01*
X124840926Y-153839080D01*
X125156654Y-153366560D01*
X125374131Y-152841523D01*
X125485000Y-152284148D01*
X125485000Y-151715852D01*
X125374131Y-151158477D01*
X125156654Y-150633440D01*
X124840926Y-150160920D01*
X124439080Y-149759074D01*
X123966560Y-149443346D01*
X123441523Y-149225869D01*
X122884148Y-149115000D01*
X122315852Y-149115000D01*
X121758477Y-149225869D01*
X121233440Y-149443346D01*
X120760920Y-149759074D01*
X120359074Y-150160920D01*
X120043346Y-150633440D01*
X119825869Y-151158477D01*
X119715000Y-151715852D01*
X119685000Y-151715852D01*
X119685000Y-136490000D01*
X121371928Y-136490000D01*
X121384188Y-136614482D01*
X121420498Y-136734180D01*
X121479463Y-136844494D01*
X121558815Y-136941185D01*
X121655506Y-137020537D01*
X121765820Y-137079502D01*
X121885518Y-137115812D01*
X122010000Y-137128072D01*
X123974250Y-137125000D01*
X124133000Y-136966250D01*
X124133000Y-134367000D01*
X124387000Y-134367000D01*
X124387000Y-136966250D01*
X124545750Y-137125000D01*
X126510000Y-137128072D01*
X126634482Y-137115812D01*
X126754180Y-137079502D01*
X126864494Y-137020537D01*
X126961185Y-136941185D01*
X127040537Y-136844494D01*
X127099502Y-136734180D01*
X127135812Y-136614482D01*
X127148072Y-136490000D01*
X127145000Y-134525750D01*
X126986250Y-134367000D01*
X124387000Y-134367000D01*
X124133000Y-134367000D01*
X121533750Y-134367000D01*
X121375000Y-134525750D01*
X121371928Y-136490000D01*
X119685000Y-136490000D01*
X119685000Y-131990000D01*
X121371928Y-131990000D01*
X121375000Y-133954250D01*
X121533750Y-134113000D01*
X124133000Y-134113000D01*
X124133000Y-131513750D01*
X124387000Y-131513750D01*
X124387000Y-134113000D01*
X126986250Y-134113000D01*
X127145000Y-133954250D01*
X127148072Y-131990000D01*
X127135812Y-131865518D01*
X127099502Y-131745820D01*
X127040537Y-131635506D01*
X126961185Y-131538815D01*
X126864494Y-131459463D01*
X126754180Y-131400498D01*
X126634482Y-131364188D01*
X126510000Y-131351928D01*
X124545750Y-131355000D01*
X124387000Y-131513750D01*
X124133000Y-131513750D01*
X123974250Y-131355000D01*
X122010000Y-131351928D01*
X121885518Y-131364188D01*
X121765820Y-131400498D01*
X121655506Y-131459463D01*
X121558815Y-131538815D01*
X121479463Y-131635506D01*
X121420498Y-131745820D01*
X121384188Y-131865518D01*
X121371928Y-131990000D01*
X119685000Y-131990000D01*
X119685000Y-111490000D01*
X121371928Y-111490000D01*
X121384188Y-111614482D01*
X121420498Y-111734180D01*
X121479463Y-111844494D01*
X121558815Y-111941185D01*
X121655506Y-112020537D01*
X121765820Y-112079502D01*
X121885518Y-112115812D01*
X122010000Y-112128072D01*
X123974250Y-112125000D01*
X124133000Y-111966250D01*
X124133000Y-109367000D01*
X121533750Y-109367000D01*
X121375000Y-109525750D01*
X121371928Y-111490000D01*
X119685000Y-111490000D01*
X119685000Y-106990000D01*
X121371928Y-106990000D01*
X121375000Y-108954250D01*
X121533750Y-109113000D01*
X124133000Y-109113000D01*
X124133000Y-106513750D01*
X123974250Y-106355000D01*
X122010000Y-106351928D01*
X121885518Y-106364188D01*
X121765820Y-106400498D01*
X121655506Y-106459463D01*
X121558815Y-106538815D01*
X121479463Y-106635506D01*
X121420498Y-106745820D01*
X121384188Y-106865518D01*
X121371928Y-106990000D01*
X119685000Y-106990000D01*
X119685000Y-101715852D01*
X119715000Y-101715852D01*
X119715000Y-102284148D01*
X119825869Y-102841523D01*
X120043346Y-103366560D01*
X120359074Y-103839080D01*
X120760920Y-104240926D01*
X121233440Y-104556654D01*
X121758477Y-104774131D01*
X122315852Y-104885000D01*
X122884148Y-104885000D01*
X123441523Y-104774131D01*
X123966560Y-104556654D01*
X124439080Y-104240926D01*
X124840926Y-103839080D01*
X125156654Y-103366560D01*
X125374131Y-102841523D01*
X125485000Y-102284148D01*
X125485000Y-101715852D01*
X125374368Y-101159670D01*
X126075400Y-101860702D01*
X126075400Y-106352608D01*
X124545750Y-106355000D01*
X124387000Y-106513750D01*
X124387000Y-109113000D01*
X124407000Y-109113000D01*
X124407000Y-109367000D01*
X124387000Y-109367000D01*
X124387000Y-111966250D01*
X124545750Y-112125000D01*
X126075401Y-112127392D01*
X126075401Y-118658497D01*
X125381702Y-119352196D01*
X125352699Y-119375999D01*
X125297571Y-119443174D01*
X125257726Y-119491724D01*
X125246193Y-119513301D01*
X125187154Y-119623754D01*
X125143697Y-119767015D01*
X125132700Y-119878668D01*
X125132700Y-119878678D01*
X125129024Y-119916000D01*
X125132700Y-119953322D01*
X125132701Y-125597591D01*
X124840926Y-125160920D01*
X124439080Y-124759074D01*
X123966560Y-124443346D01*
X123441523Y-124225869D01*
X122884148Y-124115000D01*
X122315852Y-124115000D01*
X121758477Y-124225869D01*
X121233440Y-124443346D01*
X120760920Y-124759074D01*
X120359074Y-125160920D01*
X120043346Y-125633440D01*
X119825869Y-126158477D01*
X119715000Y-126715852D01*
X119715000Y-127284148D01*
X119825869Y-127841523D01*
X120043346Y-128366560D01*
X120359074Y-128839080D01*
X120760920Y-129240926D01*
X121233440Y-129556654D01*
X121758477Y-129774131D01*
X122315852Y-129885000D01*
X122884148Y-129885000D01*
X123441523Y-129774131D01*
X123966560Y-129556654D01*
X124439080Y-129240926D01*
X124840926Y-128839080D01*
X125132701Y-128402408D01*
X125132701Y-128958168D01*
X125129024Y-128995500D01*
X125132701Y-129032833D01*
X125139317Y-129100000D01*
X125143698Y-129144485D01*
X125187154Y-129287746D01*
X125257726Y-129419776D01*
X125286219Y-129454494D01*
X125352700Y-129535501D01*
X125381698Y-129559299D01*
X127740000Y-131917602D01*
X127740001Y-145309653D01*
X127658477Y-145325869D01*
X127133440Y-145543346D01*
X126660920Y-145859074D01*
X126259074Y-146260920D01*
X125943346Y-146733440D01*
X125725869Y-147258477D01*
X125615000Y-147815852D01*
X125615000Y-148384148D01*
X125725869Y-148941523D01*
X125943346Y-149466560D01*
X126259074Y-149939080D01*
X126660920Y-150340926D01*
X127133440Y-150656654D01*
X127658477Y-150874131D01*
X128215852Y-150985000D01*
X128784148Y-150985000D01*
X129341523Y-150874131D01*
X129866560Y-150656654D01*
X130339080Y-150340926D01*
X130740926Y-149939080D01*
X131056654Y-149466560D01*
X131274131Y-148941523D01*
X131385000Y-148384148D01*
X131385000Y-147815852D01*
X131274131Y-147258477D01*
X131056654Y-146733440D01*
X130740926Y-146260920D01*
X130339080Y-145859074D01*
X129866560Y-145543346D01*
X129341523Y-145325869D01*
X129260000Y-145309653D01*
X129260000Y-141858665D01*
X131065000Y-141858665D01*
X131065000Y-142141335D01*
X131120147Y-142418574D01*
X131228320Y-142679727D01*
X131385363Y-142914759D01*
X131585241Y-143114637D01*
X131820273Y-143271680D01*
X132081426Y-143379853D01*
X132358665Y-143435000D01*
X132641335Y-143435000D01*
X132918574Y-143379853D01*
X133179727Y-143271680D01*
X133414759Y-143114637D01*
X133614637Y-142914759D01*
X133771680Y-142679727D01*
X133879853Y-142418574D01*
X133935000Y-142141335D01*
X133935000Y-141858665D01*
X138685000Y-141858665D01*
X138685000Y-142141335D01*
X138740147Y-142418574D01*
X138848320Y-142679727D01*
X139005363Y-142914759D01*
X139205241Y-143114637D01*
X139440273Y-143271680D01*
X139701426Y-143379853D01*
X139978665Y-143435000D01*
X140261335Y-143435000D01*
X140538574Y-143379853D01*
X140799727Y-143271680D01*
X141034759Y-143114637D01*
X141234637Y-142914759D01*
X141391680Y-142679727D01*
X141499853Y-142418574D01*
X141500000Y-142417835D01*
X141500147Y-142418574D01*
X141608320Y-142679727D01*
X141765363Y-142914759D01*
X141965241Y-143114637D01*
X142200273Y-143271680D01*
X142461426Y-143379853D01*
X142738665Y-143435000D01*
X143021335Y-143435000D01*
X143298574Y-143379853D01*
X143559727Y-143271680D01*
X143794759Y-143114637D01*
X143994637Y-142914759D01*
X144151680Y-142679727D01*
X144259853Y-142418574D01*
X144315000Y-142141335D01*
X144315000Y-141858665D01*
X144259853Y-141581426D01*
X144151680Y-141320273D01*
X143994637Y-141085241D01*
X143794759Y-140885363D01*
X143559727Y-140728320D01*
X143298574Y-140620147D01*
X143021335Y-140565000D01*
X142738665Y-140565000D01*
X142461426Y-140620147D01*
X142200273Y-140728320D01*
X141965241Y-140885363D01*
X141765363Y-141085241D01*
X141608320Y-141320273D01*
X141500147Y-141581426D01*
X141500000Y-141582165D01*
X141499853Y-141581426D01*
X141391680Y-141320273D01*
X141234637Y-141085241D01*
X141034759Y-140885363D01*
X140799727Y-140728320D01*
X140538574Y-140620147D01*
X140261335Y-140565000D01*
X139978665Y-140565000D01*
X139701426Y-140620147D01*
X139440273Y-140728320D01*
X139205241Y-140885363D01*
X139005363Y-141085241D01*
X138848320Y-141320273D01*
X138740147Y-141581426D01*
X138685000Y-141858665D01*
X133935000Y-141858665D01*
X133879853Y-141581426D01*
X133771680Y-141320273D01*
X133614637Y-141085241D01*
X133414759Y-140885363D01*
X133179727Y-140728320D01*
X132918574Y-140620147D01*
X132641335Y-140565000D01*
X132358665Y-140565000D01*
X132081426Y-140620147D01*
X131820273Y-140728320D01*
X131585241Y-140885363D01*
X131385363Y-141085241D01*
X131228320Y-141320273D01*
X131120147Y-141581426D01*
X131065000Y-141858665D01*
X129260000Y-141858665D01*
X129260000Y-137740006D01*
X129660920Y-138140926D01*
X130133440Y-138456654D01*
X130658477Y-138674131D01*
X131215852Y-138785000D01*
X131784148Y-138785000D01*
X132341523Y-138674131D01*
X132866560Y-138456654D01*
X133339080Y-138140926D01*
X133740926Y-137739080D01*
X134056654Y-137266560D01*
X134274131Y-136741523D01*
X134385000Y-136184148D01*
X134385000Y-135615852D01*
X134274131Y-135058477D01*
X134056654Y-134533440D01*
X133740926Y-134060920D01*
X133339080Y-133659074D01*
X132866560Y-133343346D01*
X132341523Y-133125869D01*
X131784148Y-133015000D01*
X131215852Y-133015000D01*
X130658477Y-133125869D01*
X130133440Y-133343346D01*
X129660920Y-133659074D01*
X129260000Y-134059994D01*
X129260000Y-131640122D01*
X129263676Y-131602799D01*
X129260000Y-131565477D01*
X129260000Y-131565467D01*
X129249003Y-131453814D01*
X129205546Y-131310553D01*
X129134975Y-131178525D01*
X129134974Y-131178523D01*
X129063799Y-131091797D01*
X129040001Y-131062799D01*
X129011004Y-131039002D01*
X127687854Y-129715852D01*
X132515000Y-129715852D01*
X132515000Y-130284148D01*
X132625869Y-130841523D01*
X132843346Y-131366560D01*
X133159074Y-131839080D01*
X133560920Y-132240926D01*
X134033440Y-132556654D01*
X134558477Y-132774131D01*
X135115852Y-132885000D01*
X135684148Y-132885000D01*
X136241523Y-132774131D01*
X136766560Y-132556654D01*
X137239080Y-132240926D01*
X137640926Y-131839080D01*
X137956654Y-131366560D01*
X138174131Y-130841523D01*
X138285000Y-130284148D01*
X138285000Y-129715852D01*
X138174131Y-129158477D01*
X138149910Y-129100000D01*
X140461928Y-129100000D01*
X140474188Y-129224482D01*
X140510498Y-129344180D01*
X140569463Y-129454494D01*
X140648815Y-129551185D01*
X140745506Y-129630537D01*
X140855820Y-129689502D01*
X140874127Y-129695056D01*
X140807688Y-129761495D01*
X140639701Y-130012905D01*
X140523989Y-130292257D01*
X140465000Y-130588816D01*
X140465000Y-130891184D01*
X140523989Y-131187743D01*
X140639701Y-131467095D01*
X140807688Y-131718505D01*
X141021495Y-131932312D01*
X141272905Y-132100299D01*
X141552257Y-132216011D01*
X141848816Y-132275000D01*
X142151184Y-132275000D01*
X142447743Y-132216011D01*
X142727095Y-132100299D01*
X142978505Y-131932312D01*
X143192312Y-131718505D01*
X143360299Y-131467095D01*
X143476011Y-131187743D01*
X143535000Y-130891184D01*
X143535000Y-130588816D01*
X143476011Y-130292257D01*
X143360299Y-130012905D01*
X143192312Y-129761495D01*
X143125873Y-129695056D01*
X143144180Y-129689502D01*
X143254494Y-129630537D01*
X143351185Y-129551185D01*
X143430537Y-129454494D01*
X143489502Y-129344180D01*
X143525812Y-129224482D01*
X143538072Y-129100000D01*
X143535000Y-128485750D01*
X143376250Y-128327000D01*
X142127000Y-128327000D01*
X142127000Y-128347000D01*
X141873000Y-128347000D01*
X141873000Y-128327000D01*
X140623750Y-128327000D01*
X140465000Y-128485750D01*
X140461928Y-129100000D01*
X138149910Y-129100000D01*
X137956654Y-128633440D01*
X137640926Y-128160920D01*
X137239080Y-127759074D01*
X136766560Y-127443346D01*
X136420492Y-127300000D01*
X140461928Y-127300000D01*
X140465000Y-127914250D01*
X140623750Y-128073000D01*
X141873000Y-128073000D01*
X141873000Y-126823750D01*
X142127000Y-126823750D01*
X142127000Y-128073000D01*
X143376250Y-128073000D01*
X143535000Y-127914250D01*
X143538072Y-127300000D01*
X143525812Y-127175518D01*
X143489502Y-127055820D01*
X143430537Y-126945506D01*
X143351185Y-126848815D01*
X143254494Y-126769463D01*
X143144180Y-126710498D01*
X143024482Y-126674188D01*
X142900000Y-126661928D01*
X142285750Y-126665000D01*
X142127000Y-126823750D01*
X141873000Y-126823750D01*
X141714250Y-126665000D01*
X141100000Y-126661928D01*
X140975518Y-126674188D01*
X140855820Y-126710498D01*
X140745506Y-126769463D01*
X140648815Y-126848815D01*
X140569463Y-126945506D01*
X140510498Y-127055820D01*
X140474188Y-127175518D01*
X140461928Y-127300000D01*
X136420492Y-127300000D01*
X136241523Y-127225869D01*
X135684148Y-127115000D01*
X135115852Y-127115000D01*
X134558477Y-127225869D01*
X134033440Y-127443346D01*
X133560920Y-127759074D01*
X133159074Y-128160920D01*
X132843346Y-128633440D01*
X132625869Y-129158477D01*
X132515000Y-129715852D01*
X127687854Y-129715852D01*
X126652700Y-128680699D01*
X126652700Y-125332706D01*
X126660920Y-125340926D01*
X127133440Y-125656654D01*
X127658477Y-125874131D01*
X128215852Y-125985000D01*
X128784148Y-125985000D01*
X129341523Y-125874131D01*
X129866560Y-125656654D01*
X130339080Y-125340926D01*
X130740926Y-124939080D01*
X131056654Y-124466560D01*
X131274131Y-123941523D01*
X131385000Y-123384148D01*
X131385000Y-122815852D01*
X131274131Y-122258477D01*
X131056654Y-121733440D01*
X130740926Y-121260920D01*
X130339080Y-120859074D01*
X129866560Y-120543346D01*
X129341523Y-120325869D01*
X128784148Y-120215000D01*
X128215852Y-120215000D01*
X127658477Y-120325869D01*
X127133440Y-120543346D01*
X126660920Y-120859074D01*
X126652700Y-120867294D01*
X126652700Y-120230801D01*
X127346403Y-119537099D01*
X127375401Y-119513301D01*
X127401732Y-119481217D01*
X127470374Y-119397577D01*
X127540946Y-119265547D01*
X127570840Y-119166997D01*
X127584403Y-119122286D01*
X127595400Y-119010633D01*
X127595400Y-119010624D01*
X127599076Y-118973301D01*
X127595400Y-118935978D01*
X127595400Y-116858665D01*
X131065000Y-116858665D01*
X131065000Y-117141335D01*
X131120147Y-117418574D01*
X131228320Y-117679727D01*
X131385363Y-117914759D01*
X131585241Y-118114637D01*
X131820273Y-118271680D01*
X132081426Y-118379853D01*
X132358665Y-118435000D01*
X132641335Y-118435000D01*
X132918574Y-118379853D01*
X133179727Y-118271680D01*
X133414759Y-118114637D01*
X133614637Y-117914759D01*
X133771680Y-117679727D01*
X133879853Y-117418574D01*
X133935000Y-117141335D01*
X133935000Y-116858665D01*
X133879853Y-116581426D01*
X133771680Y-116320273D01*
X133614637Y-116085241D01*
X133414759Y-115885363D01*
X133179727Y-115728320D01*
X132918574Y-115620147D01*
X132641335Y-115565000D01*
X132358665Y-115565000D01*
X132081426Y-115620147D01*
X131820273Y-115728320D01*
X131585241Y-115885363D01*
X131385363Y-116085241D01*
X131228320Y-116320273D01*
X131120147Y-116581426D01*
X131065000Y-116858665D01*
X127595400Y-116858665D01*
X127595400Y-110615852D01*
X128615000Y-110615852D01*
X128615000Y-111184148D01*
X128725869Y-111741523D01*
X128943346Y-112266560D01*
X129259074Y-112739080D01*
X129660920Y-113140926D01*
X130133440Y-113456654D01*
X130658477Y-113674131D01*
X131215852Y-113785000D01*
X131784148Y-113785000D01*
X132341523Y-113674131D01*
X132866560Y-113456654D01*
X133339080Y-113140926D01*
X133740926Y-112739080D01*
X134056654Y-112266560D01*
X134274131Y-111741523D01*
X134385000Y-111184148D01*
X134385000Y-110615852D01*
X134274131Y-110058477D01*
X134056654Y-109533440D01*
X133740926Y-109060920D01*
X133339080Y-108659074D01*
X132866560Y-108343346D01*
X132341523Y-108125869D01*
X131784148Y-108015000D01*
X131215852Y-108015000D01*
X130658477Y-108125869D01*
X130133440Y-108343346D01*
X129660920Y-108659074D01*
X129259074Y-109060920D01*
X128943346Y-109533440D01*
X128725869Y-110058477D01*
X128615000Y-110615852D01*
X127595400Y-110615852D01*
X127595400Y-104715852D01*
X132515000Y-104715852D01*
X132515000Y-105284148D01*
X132625869Y-105841523D01*
X132843346Y-106366560D01*
X133159074Y-106839080D01*
X133560920Y-107240926D01*
X134033440Y-107556654D01*
X134558477Y-107774131D01*
X135115852Y-107885000D01*
X135684148Y-107885000D01*
X136241523Y-107774131D01*
X136766560Y-107556654D01*
X137239080Y-107240926D01*
X137640926Y-106839080D01*
X137956654Y-106366560D01*
X138174131Y-105841523D01*
X138285000Y-105284148D01*
X138285000Y-104715852D01*
X138174131Y-104158477D01*
X138149910Y-104100000D01*
X140461928Y-104100000D01*
X140474188Y-104224482D01*
X140510498Y-104344180D01*
X140569463Y-104454494D01*
X140648815Y-104551185D01*
X140745506Y-104630537D01*
X140855820Y-104689502D01*
X140874127Y-104695056D01*
X140807688Y-104761495D01*
X140639701Y-105012905D01*
X140523989Y-105292257D01*
X140465000Y-105588816D01*
X140465000Y-105891184D01*
X140523989Y-106187743D01*
X140639701Y-106467095D01*
X140807688Y-106718505D01*
X141021495Y-106932312D01*
X141272905Y-107100299D01*
X141552257Y-107216011D01*
X141848816Y-107275000D01*
X142151184Y-107275000D01*
X142447743Y-107216011D01*
X142727095Y-107100299D01*
X142978505Y-106932312D01*
X143192312Y-106718505D01*
X143360299Y-106467095D01*
X143476011Y-106187743D01*
X143535000Y-105891184D01*
X143535000Y-105588816D01*
X143476011Y-105292257D01*
X143360299Y-105012905D01*
X143192312Y-104761495D01*
X143125873Y-104695056D01*
X143144180Y-104689502D01*
X143254494Y-104630537D01*
X143351185Y-104551185D01*
X143430537Y-104454494D01*
X143489502Y-104344180D01*
X143525812Y-104224482D01*
X143538072Y-104100000D01*
X143535000Y-103485750D01*
X143376250Y-103327000D01*
X142127000Y-103327000D01*
X142127000Y-103347000D01*
X141873000Y-103347000D01*
X141873000Y-103327000D01*
X140623750Y-103327000D01*
X140465000Y-103485750D01*
X140461928Y-104100000D01*
X138149910Y-104100000D01*
X137956654Y-103633440D01*
X137640926Y-103160920D01*
X137239080Y-102759074D01*
X136766560Y-102443346D01*
X136420492Y-102300000D01*
X140461928Y-102300000D01*
X140465000Y-102914250D01*
X140623750Y-103073000D01*
X141873000Y-103073000D01*
X141873000Y-101823750D01*
X142127000Y-101823750D01*
X142127000Y-103073000D01*
X143376250Y-103073000D01*
X143535000Y-102914250D01*
X143538072Y-102300000D01*
X143525812Y-102175518D01*
X143489502Y-102055820D01*
X143430537Y-101945506D01*
X143351185Y-101848815D01*
X143254494Y-101769463D01*
X143144180Y-101710498D01*
X143024482Y-101674188D01*
X142900000Y-101661928D01*
X142285750Y-101665000D01*
X142127000Y-101823750D01*
X141873000Y-101823750D01*
X141714250Y-101665000D01*
X141100000Y-101661928D01*
X140975518Y-101674188D01*
X140855820Y-101710498D01*
X140745506Y-101769463D01*
X140648815Y-101848815D01*
X140569463Y-101945506D01*
X140510498Y-102055820D01*
X140474188Y-102175518D01*
X140461928Y-102300000D01*
X136420492Y-102300000D01*
X136241523Y-102225869D01*
X135684148Y-102115000D01*
X135115852Y-102115000D01*
X134558477Y-102225869D01*
X134033440Y-102443346D01*
X133560920Y-102759074D01*
X133159074Y-103160920D01*
X132843346Y-103633440D01*
X132625869Y-104158477D01*
X132515000Y-104715852D01*
X127595400Y-104715852D01*
X127595400Y-101583233D01*
X127599077Y-101545900D01*
X127584403Y-101396914D01*
X127540946Y-101253653D01*
X127470374Y-101121624D01*
X127399199Y-101034897D01*
X127375401Y-101005899D01*
X127346404Y-100982102D01*
X126794449Y-100430147D01*
X127133440Y-100656654D01*
X127658477Y-100874131D01*
X128215852Y-100985000D01*
X128784148Y-100985000D01*
X129341523Y-100874131D01*
X129866560Y-100656654D01*
X130339080Y-100340926D01*
X130740926Y-99939080D01*
X131056654Y-99466560D01*
X131274131Y-98941523D01*
X131385000Y-98384148D01*
X131385000Y-97815852D01*
X131274131Y-97258477D01*
X131056654Y-96733440D01*
X130740926Y-96260920D01*
X130339080Y-95859074D01*
X129866560Y-95543346D01*
X129341523Y-95325869D01*
X129260000Y-95309653D01*
X129260000Y-90858665D01*
X131085000Y-90858665D01*
X131085000Y-91141335D01*
X131140147Y-91418574D01*
X131248320Y-91679727D01*
X131405363Y-91914759D01*
X131605241Y-92114637D01*
X131840273Y-92271680D01*
X132101426Y-92379853D01*
X132378665Y-92435000D01*
X132661335Y-92435000D01*
X132938574Y-92379853D01*
X133199727Y-92271680D01*
X133434759Y-92114637D01*
X133634637Y-91914759D01*
X133791680Y-91679727D01*
X133899853Y-91418574D01*
X133955000Y-91141335D01*
X133955000Y-90858665D01*
X133899853Y-90581426D01*
X133791680Y-90320273D01*
X133634637Y-90085241D01*
X133434759Y-89885363D01*
X133199727Y-89728320D01*
X132938574Y-89620147D01*
X132661335Y-89565000D01*
X132378665Y-89565000D01*
X132101426Y-89620147D01*
X131840273Y-89728320D01*
X131605241Y-89885363D01*
X131405363Y-90085241D01*
X131248320Y-90320273D01*
X131140147Y-90581426D01*
X131085000Y-90858665D01*
X129260000Y-90858665D01*
X129260000Y-87740006D01*
X129660920Y-88140926D01*
X130133440Y-88456654D01*
X130658477Y-88674131D01*
X131215852Y-88785000D01*
X131784148Y-88785000D01*
X132341523Y-88674131D01*
X132866560Y-88456654D01*
X133339080Y-88140926D01*
X133740926Y-87739080D01*
X134056654Y-87266560D01*
X134274131Y-86741523D01*
X134385000Y-86184148D01*
X134385000Y-85615852D01*
X134274131Y-85058477D01*
X134056654Y-84533440D01*
X133740926Y-84060920D01*
X133339080Y-83659074D01*
X132866560Y-83343346D01*
X132341523Y-83125869D01*
X131784148Y-83015000D01*
X131543302Y-83015000D01*
X132982894Y-81575408D01*
X133159074Y-81839080D01*
X133560920Y-82240926D01*
X134033440Y-82556654D01*
X134558477Y-82774131D01*
X135115852Y-82885000D01*
X135684148Y-82885000D01*
X136241523Y-82774131D01*
X136766560Y-82556654D01*
X137239080Y-82240926D01*
X137640926Y-81839080D01*
X137956654Y-81366560D01*
X138174131Y-80841523D01*
X138285000Y-80284148D01*
X138285000Y-79715852D01*
X138174131Y-79158477D01*
X138149910Y-79100000D01*
X140461928Y-79100000D01*
X140474188Y-79224482D01*
X140510498Y-79344180D01*
X140569463Y-79454494D01*
X140648815Y-79551185D01*
X140745506Y-79630537D01*
X140855820Y-79689502D01*
X140874127Y-79695056D01*
X140807688Y-79761495D01*
X140639701Y-80012905D01*
X140523989Y-80292257D01*
X140465000Y-80588816D01*
X140465000Y-80891184D01*
X140523989Y-81187743D01*
X140639701Y-81467095D01*
X140807688Y-81718505D01*
X141021495Y-81932312D01*
X141272905Y-82100299D01*
X141552257Y-82216011D01*
X141848816Y-82275000D01*
X142151184Y-82275000D01*
X142447743Y-82216011D01*
X142727095Y-82100299D01*
X142978505Y-81932312D01*
X143192312Y-81718505D01*
X143360299Y-81467095D01*
X143476011Y-81187743D01*
X143535000Y-80891184D01*
X143535000Y-80588816D01*
X143476011Y-80292257D01*
X143360299Y-80012905D01*
X143192312Y-79761495D01*
X143125873Y-79695056D01*
X143144180Y-79689502D01*
X143254494Y-79630537D01*
X143351185Y-79551185D01*
X143430537Y-79454494D01*
X143489502Y-79344180D01*
X143525812Y-79224482D01*
X143538072Y-79100000D01*
X143535000Y-78485750D01*
X143376250Y-78327000D01*
X142127000Y-78327000D01*
X142127000Y-78347000D01*
X141873000Y-78347000D01*
X141873000Y-78327000D01*
X140623750Y-78327000D01*
X140465000Y-78485750D01*
X140461928Y-79100000D01*
X138149910Y-79100000D01*
X137956654Y-78633440D01*
X137640926Y-78160920D01*
X137239080Y-77759074D01*
X136766560Y-77443346D01*
X136420492Y-77300000D01*
X140461928Y-77300000D01*
X140465000Y-77914250D01*
X140623750Y-78073000D01*
X141873000Y-78073000D01*
X141873000Y-76823750D01*
X142127000Y-76823750D01*
X142127000Y-78073000D01*
X143376250Y-78073000D01*
X143535000Y-77914250D01*
X143538072Y-77300000D01*
X143525812Y-77175518D01*
X143489502Y-77055820D01*
X143430537Y-76945506D01*
X143351185Y-76848815D01*
X143254494Y-76769463D01*
X143144180Y-76710498D01*
X143024482Y-76674188D01*
X142900000Y-76661928D01*
X142285750Y-76665000D01*
X142127000Y-76823750D01*
X141873000Y-76823750D01*
X141714250Y-76665000D01*
X141100000Y-76661928D01*
X140975518Y-76674188D01*
X140855820Y-76710498D01*
X140745506Y-76769463D01*
X140648815Y-76848815D01*
X140569463Y-76945506D01*
X140510498Y-77055820D01*
X140474188Y-77175518D01*
X140461928Y-77300000D01*
X136420492Y-77300000D01*
X136241523Y-77225869D01*
X135684148Y-77115000D01*
X135115852Y-77115000D01*
X134558477Y-77225869D01*
X134033440Y-77443346D01*
X133584600Y-77743252D01*
X133584600Y-70885501D01*
X135231008Y-69239095D01*
X135260001Y-69215301D01*
X135283795Y-69186308D01*
X135283799Y-69186304D01*
X135354973Y-69099577D01*
X135354974Y-69099576D01*
X135425546Y-68967547D01*
X135469003Y-68824286D01*
X135473089Y-68782796D01*
X135666632Y-68653475D01*
X135873475Y-68446632D01*
X135990000Y-68272240D01*
X136106525Y-68446632D01*
X136313368Y-68653475D01*
X136556589Y-68815990D01*
X136826842Y-68927932D01*
X137113740Y-68985000D01*
X137406260Y-68985000D01*
X137693158Y-68927932D01*
X137963411Y-68815990D01*
X138206632Y-68653475D01*
X138413475Y-68446632D01*
X138530000Y-68272240D01*
X138646525Y-68446632D01*
X138853368Y-68653475D01*
X139096589Y-68815990D01*
X139366842Y-68927932D01*
X139653740Y-68985000D01*
X139946260Y-68985000D01*
X140233158Y-68927932D01*
X140503411Y-68815990D01*
X140746632Y-68653475D01*
X140953475Y-68446632D01*
X141070000Y-68272240D01*
X141186525Y-68446632D01*
X141393368Y-68653475D01*
X141636589Y-68815990D01*
X141906842Y-68927932D01*
X142193740Y-68985000D01*
X142486260Y-68985000D01*
X142773158Y-68927932D01*
X143043411Y-68815990D01*
X143286632Y-68653475D01*
X143493475Y-68446632D01*
X143610000Y-68272240D01*
X143726525Y-68446632D01*
X143933368Y-68653475D01*
X143968304Y-68676819D01*
X143962997Y-68694315D01*
X143952000Y-68805968D01*
X143952000Y-68805978D01*
X143948324Y-68843300D01*
X143952000Y-68880622D01*
X143952000Y-90042604D01*
X143794759Y-89885363D01*
X143559727Y-89728320D01*
X143298574Y-89620147D01*
X143021335Y-89565000D01*
X142738665Y-89565000D01*
X142461426Y-89620147D01*
X142200273Y-89728320D01*
X141965241Y-89885363D01*
X141765363Y-90085241D01*
X141608320Y-90320273D01*
X141510000Y-90557639D01*
X141411680Y-90320273D01*
X141254637Y-90085241D01*
X141054759Y-89885363D01*
X140819727Y-89728320D01*
X140558574Y-89620147D01*
X140281335Y-89565000D01*
X139998665Y-89565000D01*
X139721426Y-89620147D01*
X139460273Y-89728320D01*
X139225241Y-89885363D01*
X139025363Y-90085241D01*
X138868320Y-90320273D01*
X138760147Y-90581426D01*
X138705000Y-90858665D01*
X138705000Y-91141335D01*
X138760147Y-91418574D01*
X138868320Y-91679727D01*
X139025363Y-91914759D01*
X139225241Y-92114637D01*
X139460273Y-92271680D01*
X139721426Y-92379853D01*
X139998665Y-92435000D01*
X140281335Y-92435000D01*
X140558574Y-92379853D01*
X140819727Y-92271680D01*
X141054759Y-92114637D01*
X141254637Y-91914759D01*
X141411680Y-91679727D01*
X141510000Y-91442361D01*
X141608320Y-91679727D01*
X141765363Y-91914759D01*
X141965241Y-92114637D01*
X142200273Y-92271680D01*
X142461426Y-92379853D01*
X142738665Y-92435000D01*
X143021335Y-92435000D01*
X143298574Y-92379853D01*
X143559727Y-92271680D01*
X143794759Y-92114637D01*
X143952000Y-91957396D01*
X143952001Y-114853197D01*
X143203886Y-115601312D01*
X143021335Y-115565000D01*
X142738665Y-115565000D01*
X142461426Y-115620147D01*
X142200273Y-115728320D01*
X141965241Y-115885363D01*
X141765363Y-116085241D01*
X141661957Y-116240000D01*
X141338043Y-116240000D01*
X141234637Y-116085241D01*
X141034759Y-115885363D01*
X140799727Y-115728320D01*
X140538574Y-115620147D01*
X140261335Y-115565000D01*
X139978665Y-115565000D01*
X139701426Y-115620147D01*
X139440273Y-115728320D01*
X139205241Y-115885363D01*
X139005363Y-116085241D01*
X138848320Y-116320273D01*
X138740147Y-116581426D01*
X138685000Y-116858665D01*
X138685000Y-117141335D01*
X138740147Y-117418574D01*
X138848320Y-117679727D01*
X139005363Y-117914759D01*
X139205241Y-118114637D01*
X139440273Y-118271680D01*
X139701426Y-118379853D01*
X139978665Y-118435000D01*
X140261335Y-118435000D01*
X140538574Y-118379853D01*
X140799727Y-118271680D01*
X141034759Y-118114637D01*
X141234637Y-117914759D01*
X141338043Y-117760000D01*
X141661957Y-117760000D01*
X141765363Y-117914759D01*
X141965241Y-118114637D01*
X142200273Y-118271680D01*
X142461426Y-118379853D01*
X142738665Y-118435000D01*
X143021335Y-118435000D01*
X143298574Y-118379853D01*
X143559727Y-118271680D01*
X143794759Y-118114637D01*
X143994637Y-117914759D01*
X144151680Y-117679727D01*
X144259853Y-117418574D01*
X144315000Y-117141335D01*
X144315000Y-116858665D01*
X144278688Y-116676114D01*
X144587000Y-116367801D01*
X144587001Y-164218197D01*
X143203886Y-165601312D01*
X143021335Y-165565000D01*
X142738665Y-165565000D01*
X142461426Y-165620147D01*
X142200273Y-165728320D01*
X141965241Y-165885363D01*
X141765363Y-166085241D01*
X141661957Y-166240000D01*
X141338043Y-166240000D01*
X141234637Y-166085241D01*
X141034759Y-165885363D01*
X140799727Y-165728320D01*
X140538574Y-165620147D01*
X140261335Y-165565000D01*
X139978665Y-165565000D01*
X139701426Y-165620147D01*
X139440273Y-165728320D01*
X139205241Y-165885363D01*
X139005363Y-166085241D01*
X138848320Y-166320273D01*
X138740147Y-166581426D01*
X138685000Y-166858665D01*
X138685000Y-167141335D01*
X138740147Y-167418574D01*
X138848320Y-167679727D01*
X139005363Y-167914759D01*
X139205241Y-168114637D01*
X139440273Y-168271680D01*
X139701426Y-168379853D01*
X139978665Y-168435000D01*
X140261335Y-168435000D01*
X140538574Y-168379853D01*
X140799727Y-168271680D01*
X141034759Y-168114637D01*
X141234637Y-167914759D01*
X141338043Y-167760000D01*
X141661957Y-167760000D01*
X141765363Y-167914759D01*
X141965241Y-168114637D01*
X142200273Y-168271680D01*
X142461426Y-168379853D01*
X142738665Y-168435000D01*
X143021335Y-168435000D01*
X143298574Y-168379853D01*
X143559727Y-168271680D01*
X143794759Y-168114637D01*
X143994637Y-167914759D01*
X144151680Y-167679727D01*
X144259853Y-167418574D01*
X144315000Y-167141335D01*
X144315000Y-166858665D01*
X149065000Y-166858665D01*
X149065000Y-167141335D01*
X149120147Y-167418574D01*
X149228320Y-167679727D01*
X149385363Y-167914759D01*
X149585241Y-168114637D01*
X149820273Y-168271680D01*
X150081426Y-168379853D01*
X150358665Y-168435000D01*
X150641335Y-168435000D01*
X150918574Y-168379853D01*
X151179727Y-168271680D01*
X151414759Y-168114637D01*
X151614637Y-167914759D01*
X151771680Y-167679727D01*
X151879853Y-167418574D01*
X151935000Y-167141335D01*
X151935000Y-166858665D01*
X153065000Y-166858665D01*
X153065000Y-167141335D01*
X153120147Y-167418574D01*
X153228320Y-167679727D01*
X153385363Y-167914759D01*
X153585241Y-168114637D01*
X153740001Y-168218044D01*
X153740000Y-171572677D01*
X153736324Y-171610000D01*
X153740000Y-171647322D01*
X153740000Y-171647332D01*
X153750997Y-171758985D01*
X153778515Y-171849701D01*
X153794454Y-171902246D01*
X153865026Y-172034276D01*
X153904871Y-172082826D01*
X153928078Y-172111105D01*
X153807688Y-172231495D01*
X153639701Y-172482905D01*
X153523989Y-172762257D01*
X153465000Y-173058816D01*
X153465000Y-173361184D01*
X153523989Y-173657743D01*
X153639701Y-173937095D01*
X153807688Y-174188505D01*
X153874127Y-174254944D01*
X153855820Y-174260498D01*
X153745506Y-174319463D01*
X153648815Y-174398815D01*
X153569463Y-174495506D01*
X153510498Y-174605820D01*
X153474188Y-174725518D01*
X153461928Y-174850000D01*
X153465000Y-175464250D01*
X153623750Y-175623000D01*
X154873000Y-175623000D01*
X154873000Y-175603000D01*
X155127000Y-175603000D01*
X155127000Y-175623000D01*
X156376250Y-175623000D01*
X156535000Y-175464250D01*
X156538072Y-174850000D01*
X156525812Y-174725518D01*
X156489502Y-174605820D01*
X156430537Y-174495506D01*
X156351185Y-174398815D01*
X156254494Y-174319463D01*
X156144180Y-174260498D01*
X156125873Y-174254944D01*
X156192312Y-174188505D01*
X156360299Y-173937095D01*
X156476011Y-173657743D01*
X156535000Y-173361184D01*
X156535000Y-173058816D01*
X156476011Y-172762257D01*
X156360299Y-172482905D01*
X156192312Y-172231495D01*
X155978505Y-172017688D01*
X155727095Y-171849701D01*
X155712736Y-171843753D01*
X155704546Y-171816753D01*
X155633974Y-171684724D01*
X155603287Y-171647332D01*
X155539001Y-171568999D01*
X155509997Y-171545196D01*
X155260000Y-171295199D01*
X155260000Y-168218043D01*
X155414759Y-168114637D01*
X155614637Y-167914759D01*
X155771680Y-167679727D01*
X155879853Y-167418574D01*
X155935000Y-167141335D01*
X155935000Y-166858665D01*
X160685000Y-166858665D01*
X160685000Y-167141335D01*
X160740147Y-167418574D01*
X160848320Y-167679727D01*
X161005363Y-167914759D01*
X161205241Y-168114637D01*
X161440273Y-168271680D01*
X161701426Y-168379853D01*
X161978665Y-168435000D01*
X162261335Y-168435000D01*
X162538574Y-168379853D01*
X162799727Y-168271680D01*
X163034759Y-168114637D01*
X163234637Y-167914759D01*
X163391680Y-167679727D01*
X163499853Y-167418574D01*
X163555000Y-167141335D01*
X163555000Y-166858665D01*
X163499853Y-166581426D01*
X163391680Y-166320273D01*
X163234637Y-166085241D01*
X163034759Y-165885363D01*
X162799727Y-165728320D01*
X162538574Y-165620147D01*
X162261335Y-165565000D01*
X161978665Y-165565000D01*
X161701426Y-165620147D01*
X161440273Y-165728320D01*
X161205241Y-165885363D01*
X161005363Y-166085241D01*
X160848320Y-166320273D01*
X160740147Y-166581426D01*
X160685000Y-166858665D01*
X155935000Y-166858665D01*
X155879853Y-166581426D01*
X155771680Y-166320273D01*
X155614637Y-166085241D01*
X155414759Y-165885363D01*
X155179727Y-165728320D01*
X154918574Y-165620147D01*
X154641335Y-165565000D01*
X154358665Y-165565000D01*
X154081426Y-165620147D01*
X153820273Y-165728320D01*
X153585241Y-165885363D01*
X153385363Y-166085241D01*
X153228320Y-166320273D01*
X153120147Y-166581426D01*
X153065000Y-166858665D01*
X151935000Y-166858665D01*
X151898688Y-166676113D01*
X155011003Y-163563799D01*
X155040001Y-163540001D01*
X155134974Y-163424276D01*
X155205546Y-163292247D01*
X155249003Y-163148986D01*
X155260000Y-163037333D01*
X155260000Y-163037324D01*
X155263676Y-163000001D01*
X155260000Y-162962678D01*
X155260000Y-162740006D01*
X155660920Y-163140926D01*
X156133440Y-163456654D01*
X156658477Y-163674131D01*
X157215852Y-163785000D01*
X157784148Y-163785000D01*
X158341523Y-163674131D01*
X158866560Y-163456654D01*
X159339080Y-163140926D01*
X159740926Y-162739080D01*
X160056654Y-162266560D01*
X160274131Y-161741523D01*
X160385000Y-161184148D01*
X160385000Y-160615852D01*
X160274131Y-160058477D01*
X160056654Y-159533440D01*
X159740926Y-159060920D01*
X159339080Y-158659074D01*
X158866560Y-158343346D01*
X158341523Y-158125869D01*
X157784148Y-158015000D01*
X157215852Y-158015000D01*
X156658477Y-158125869D01*
X156133440Y-158343346D01*
X155660920Y-158659074D01*
X155260000Y-159059994D01*
X155260000Y-154715852D01*
X158515000Y-154715852D01*
X158515000Y-155284148D01*
X158625869Y-155841523D01*
X158843346Y-156366560D01*
X159159074Y-156839080D01*
X159560920Y-157240926D01*
X160033440Y-157556654D01*
X160558477Y-157774131D01*
X161115852Y-157885000D01*
X161684148Y-157885000D01*
X162241523Y-157774131D01*
X162766560Y-157556654D01*
X163239080Y-157240926D01*
X163640926Y-156839080D01*
X163956654Y-156366560D01*
X164174131Y-155841523D01*
X164285000Y-155284148D01*
X164285000Y-154715852D01*
X164174131Y-154158477D01*
X163956654Y-153633440D01*
X163640926Y-153160920D01*
X163239080Y-152759074D01*
X162766560Y-152443346D01*
X162241523Y-152225869D01*
X161684148Y-152115000D01*
X161115852Y-152115000D01*
X160558477Y-152225869D01*
X160033440Y-152443346D01*
X159560920Y-152759074D01*
X159159074Y-153160920D01*
X158843346Y-153633440D01*
X158625869Y-154158477D01*
X158515000Y-154715852D01*
X155260000Y-154715852D01*
X155260000Y-150890347D01*
X155341523Y-150874131D01*
X155866560Y-150656654D01*
X156339080Y-150340926D01*
X156740926Y-149939080D01*
X157056654Y-149466560D01*
X157274131Y-148941523D01*
X157385000Y-148384148D01*
X157385000Y-147815852D01*
X157274131Y-147258477D01*
X157056654Y-146733440D01*
X156740926Y-146260920D01*
X156339080Y-145859074D01*
X155866560Y-145543346D01*
X155341523Y-145325869D01*
X154784148Y-145215000D01*
X154215852Y-145215000D01*
X153658477Y-145325869D01*
X153133440Y-145543346D01*
X152660920Y-145859074D01*
X152259074Y-146260920D01*
X151943346Y-146733440D01*
X151725869Y-147258477D01*
X151615000Y-147815852D01*
X151615000Y-148384148D01*
X151725869Y-148941523D01*
X151943346Y-149466560D01*
X152259074Y-149939080D01*
X152660920Y-150340926D01*
X153133440Y-150656654D01*
X153658477Y-150874131D01*
X153740000Y-150890347D01*
X153740001Y-162685197D01*
X150823887Y-165601312D01*
X150641335Y-165565000D01*
X150358665Y-165565000D01*
X150081426Y-165620147D01*
X149820273Y-165728320D01*
X149585241Y-165885363D01*
X149385363Y-166085241D01*
X149228320Y-166320273D01*
X149120147Y-166581426D01*
X149065000Y-166858665D01*
X144315000Y-166858665D01*
X144278688Y-166676114D01*
X145858003Y-165096799D01*
X145887001Y-165073001D01*
X145981974Y-164957276D01*
X146052546Y-164825247D01*
X146096003Y-164681986D01*
X146107000Y-164570333D01*
X146107000Y-164570323D01*
X146110676Y-164533000D01*
X146107000Y-164495677D01*
X146107000Y-161490000D01*
X147371928Y-161490000D01*
X147384188Y-161614482D01*
X147420498Y-161734180D01*
X147479463Y-161844494D01*
X147558815Y-161941185D01*
X147655506Y-162020537D01*
X147765820Y-162079502D01*
X147885518Y-162115812D01*
X148010000Y-162128072D01*
X149974250Y-162125000D01*
X150133000Y-161966250D01*
X150133000Y-159367000D01*
X150387000Y-159367000D01*
X150387000Y-161966250D01*
X150545750Y-162125000D01*
X152510000Y-162128072D01*
X152634482Y-162115812D01*
X152754180Y-162079502D01*
X152864494Y-162020537D01*
X152961185Y-161941185D01*
X153040537Y-161844494D01*
X153099502Y-161734180D01*
X153135812Y-161614482D01*
X153148072Y-161490000D01*
X153145000Y-159525750D01*
X152986250Y-159367000D01*
X150387000Y-159367000D01*
X150133000Y-159367000D01*
X147533750Y-159367000D01*
X147375000Y-159525750D01*
X147371928Y-161490000D01*
X146107000Y-161490000D01*
X146107000Y-156990000D01*
X147371928Y-156990000D01*
X147375000Y-158954250D01*
X147533750Y-159113000D01*
X150133000Y-159113000D01*
X150133000Y-156513750D01*
X150387000Y-156513750D01*
X150387000Y-159113000D01*
X152986250Y-159113000D01*
X153145000Y-158954250D01*
X153148072Y-156990000D01*
X153135812Y-156865518D01*
X153099502Y-156745820D01*
X153040537Y-156635506D01*
X152961185Y-156538815D01*
X152864494Y-156459463D01*
X152754180Y-156400498D01*
X152634482Y-156364188D01*
X152510000Y-156351928D01*
X150545750Y-156355000D01*
X150387000Y-156513750D01*
X150133000Y-156513750D01*
X149974250Y-156355000D01*
X148010000Y-156351928D01*
X147885518Y-156364188D01*
X147765820Y-156400498D01*
X147655506Y-156459463D01*
X147558815Y-156538815D01*
X147479463Y-156635506D01*
X147420498Y-156745820D01*
X147384188Y-156865518D01*
X147371928Y-156990000D01*
X146107000Y-156990000D01*
X146107000Y-153461825D01*
X146359074Y-153839080D01*
X146760920Y-154240926D01*
X147233440Y-154556654D01*
X147758477Y-154774131D01*
X148315852Y-154885000D01*
X148884148Y-154885000D01*
X149441523Y-154774131D01*
X149966560Y-154556654D01*
X150439080Y-154240926D01*
X150840926Y-153839080D01*
X151156654Y-153366560D01*
X151374131Y-152841523D01*
X151485000Y-152284148D01*
X151485000Y-151715852D01*
X151374131Y-151158477D01*
X151156654Y-150633440D01*
X150840926Y-150160920D01*
X150439080Y-149759074D01*
X149966560Y-149443346D01*
X149441523Y-149225869D01*
X148884148Y-149115000D01*
X148315852Y-149115000D01*
X147758477Y-149225869D01*
X147233440Y-149443346D01*
X146760920Y-149759074D01*
X146359074Y-150160920D01*
X146107000Y-150538175D01*
X146107000Y-141858665D01*
X149065000Y-141858665D01*
X149065000Y-142141335D01*
X149120147Y-142418574D01*
X149228320Y-142679727D01*
X149385363Y-142914759D01*
X149585241Y-143114637D01*
X149820273Y-143271680D01*
X150081426Y-143379853D01*
X150358665Y-143435000D01*
X150641335Y-143435000D01*
X150918574Y-143379853D01*
X151179727Y-143271680D01*
X151414759Y-143114637D01*
X151614637Y-142914759D01*
X151771680Y-142679727D01*
X151879853Y-142418574D01*
X151935000Y-142141335D01*
X151935000Y-141858665D01*
X151898688Y-141676113D01*
X155011003Y-138563799D01*
X155040001Y-138540001D01*
X155134974Y-138424276D01*
X155205546Y-138292247D01*
X155249003Y-138148986D01*
X155260000Y-138037333D01*
X155260000Y-138037324D01*
X155263676Y-138000001D01*
X155260000Y-137962678D01*
X155260000Y-137740006D01*
X155660920Y-138140926D01*
X156133440Y-138456654D01*
X156658477Y-138674131D01*
X157215852Y-138785000D01*
X157784148Y-138785000D01*
X158341523Y-138674131D01*
X158866560Y-138456654D01*
X159339080Y-138140926D01*
X159740926Y-137739080D01*
X160056654Y-137266560D01*
X160274131Y-136741523D01*
X160385000Y-136184148D01*
X160385000Y-135615852D01*
X160274131Y-135058477D01*
X160056654Y-134533440D01*
X159740926Y-134060920D01*
X159339080Y-133659074D01*
X158866560Y-133343346D01*
X158341523Y-133125869D01*
X157784148Y-133015000D01*
X157215852Y-133015000D01*
X156658477Y-133125869D01*
X156133440Y-133343346D01*
X155660920Y-133659074D01*
X155260000Y-134059994D01*
X155260000Y-129715852D01*
X158515000Y-129715852D01*
X158515000Y-130284148D01*
X158625869Y-130841523D01*
X158843346Y-131366560D01*
X159159074Y-131839080D01*
X159560920Y-132240926D01*
X160033440Y-132556654D01*
X160558477Y-132774131D01*
X161115852Y-132885000D01*
X161684148Y-132885000D01*
X162241523Y-132774131D01*
X162766560Y-132556654D01*
X163239080Y-132240926D01*
X163640926Y-131839080D01*
X163956654Y-131366560D01*
X164174131Y-130841523D01*
X164285000Y-130284148D01*
X164285000Y-129715852D01*
X164174131Y-129158477D01*
X163956654Y-128633440D01*
X163640926Y-128160920D01*
X163239080Y-127759074D01*
X162766560Y-127443346D01*
X162241523Y-127225869D01*
X161684148Y-127115000D01*
X161115852Y-127115000D01*
X160558477Y-127225869D01*
X160033440Y-127443346D01*
X159560920Y-127759074D01*
X159159074Y-128160920D01*
X158843346Y-128633440D01*
X158625869Y-129158477D01*
X158515000Y-129715852D01*
X155260000Y-129715852D01*
X155260000Y-125890347D01*
X155341523Y-125874131D01*
X155866560Y-125656654D01*
X156339080Y-125340926D01*
X156740926Y-124939080D01*
X157056654Y-124466560D01*
X157274131Y-123941523D01*
X157385000Y-123384148D01*
X157385000Y-122815852D01*
X157274131Y-122258477D01*
X157056654Y-121733440D01*
X156740926Y-121260920D01*
X156339080Y-120859074D01*
X155866560Y-120543346D01*
X155341523Y-120325869D01*
X154784148Y-120215000D01*
X154215852Y-120215000D01*
X153658477Y-120325869D01*
X153133440Y-120543346D01*
X152660920Y-120859074D01*
X152259074Y-121260920D01*
X151943346Y-121733440D01*
X151725869Y-122258477D01*
X151615000Y-122815852D01*
X151615000Y-123384148D01*
X151725869Y-123941523D01*
X151943346Y-124466560D01*
X152259074Y-124939080D01*
X152660920Y-125340926D01*
X153133440Y-125656654D01*
X153658477Y-125874131D01*
X153740000Y-125890347D01*
X153740001Y-137685197D01*
X150823887Y-140601312D01*
X150641335Y-140565000D01*
X150358665Y-140565000D01*
X150081426Y-140620147D01*
X149820273Y-140728320D01*
X149585241Y-140885363D01*
X149385363Y-141085241D01*
X149228320Y-141320273D01*
X149120147Y-141581426D01*
X149065000Y-141858665D01*
X146107000Y-141858665D01*
X146107000Y-136490000D01*
X147371928Y-136490000D01*
X147384188Y-136614482D01*
X147420498Y-136734180D01*
X147479463Y-136844494D01*
X147558815Y-136941185D01*
X147655506Y-137020537D01*
X147765820Y-137079502D01*
X147885518Y-137115812D01*
X148010000Y-137128072D01*
X149974250Y-137125000D01*
X150133000Y-136966250D01*
X150133000Y-134367000D01*
X150387000Y-134367000D01*
X150387000Y-136966250D01*
X150545750Y-137125000D01*
X152510000Y-137128072D01*
X152634482Y-137115812D01*
X152754180Y-137079502D01*
X152864494Y-137020537D01*
X152961185Y-136941185D01*
X153040537Y-136844494D01*
X153099502Y-136734180D01*
X153135812Y-136614482D01*
X153148072Y-136490000D01*
X153145000Y-134525750D01*
X152986250Y-134367000D01*
X150387000Y-134367000D01*
X150133000Y-134367000D01*
X147533750Y-134367000D01*
X147375000Y-134525750D01*
X147371928Y-136490000D01*
X146107000Y-136490000D01*
X146107000Y-131990000D01*
X147371928Y-131990000D01*
X147375000Y-133954250D01*
X147533750Y-134113000D01*
X150133000Y-134113000D01*
X150133000Y-131513750D01*
X150387000Y-131513750D01*
X150387000Y-134113000D01*
X152986250Y-134113000D01*
X153145000Y-133954250D01*
X153148072Y-131990000D01*
X153135812Y-131865518D01*
X153099502Y-131745820D01*
X153040537Y-131635506D01*
X152961185Y-131538815D01*
X152864494Y-131459463D01*
X152754180Y-131400498D01*
X152634482Y-131364188D01*
X152510000Y-131351928D01*
X150545750Y-131355000D01*
X150387000Y-131513750D01*
X150133000Y-131513750D01*
X149974250Y-131355000D01*
X148010000Y-131351928D01*
X147885518Y-131364188D01*
X147765820Y-131400498D01*
X147655506Y-131459463D01*
X147558815Y-131538815D01*
X147479463Y-131635506D01*
X147420498Y-131745820D01*
X147384188Y-131865518D01*
X147371928Y-131990000D01*
X146107000Y-131990000D01*
X146107000Y-128461825D01*
X146359074Y-128839080D01*
X146760920Y-129240926D01*
X147233440Y-129556654D01*
X147758477Y-129774131D01*
X148315852Y-129885000D01*
X148884148Y-129885000D01*
X149441523Y-129774131D01*
X149966560Y-129556654D01*
X150439080Y-129240926D01*
X150840926Y-128839080D01*
X151156654Y-128366560D01*
X151374131Y-127841523D01*
X151485000Y-127284148D01*
X151485000Y-126715852D01*
X151374131Y-126158477D01*
X151156654Y-125633440D01*
X150840926Y-125160920D01*
X150439080Y-124759074D01*
X149966560Y-124443346D01*
X149441523Y-124225869D01*
X148884148Y-124115000D01*
X148315852Y-124115000D01*
X147758477Y-124225869D01*
X147233440Y-124443346D01*
X146760920Y-124759074D01*
X146359074Y-125160920D01*
X146107000Y-125538175D01*
X146107000Y-116858665D01*
X149065000Y-116858665D01*
X149065000Y-117141335D01*
X149120147Y-117418574D01*
X149228320Y-117679727D01*
X149385363Y-117914759D01*
X149585241Y-118114637D01*
X149820273Y-118271680D01*
X150081426Y-118379853D01*
X150358665Y-118435000D01*
X150641335Y-118435000D01*
X150918574Y-118379853D01*
X151179727Y-118271680D01*
X151414759Y-118114637D01*
X151614637Y-117914759D01*
X151771680Y-117679727D01*
X151879853Y-117418574D01*
X151935000Y-117141335D01*
X151935000Y-116858665D01*
X151898688Y-116676113D01*
X155011003Y-113563799D01*
X155040001Y-113540001D01*
X155134974Y-113424276D01*
X155205546Y-113292247D01*
X155249003Y-113148986D01*
X155260000Y-113037333D01*
X155260000Y-113037324D01*
X155263676Y-113000001D01*
X155260000Y-112962678D01*
X155260000Y-112740006D01*
X155660920Y-113140926D01*
X156133440Y-113456654D01*
X156658477Y-113674131D01*
X157215852Y-113785000D01*
X157784148Y-113785000D01*
X158341523Y-113674131D01*
X158866560Y-113456654D01*
X159339080Y-113140926D01*
X159740926Y-112739080D01*
X160056654Y-112266560D01*
X160274131Y-111741523D01*
X160385000Y-111184148D01*
X160385000Y-110615852D01*
X160274131Y-110058477D01*
X160056654Y-109533440D01*
X159740926Y-109060920D01*
X159339080Y-108659074D01*
X158866560Y-108343346D01*
X158341523Y-108125869D01*
X157784148Y-108015000D01*
X157215852Y-108015000D01*
X156658477Y-108125869D01*
X156133440Y-108343346D01*
X155660920Y-108659074D01*
X155260000Y-109059994D01*
X155260000Y-104715852D01*
X158515000Y-104715852D01*
X158515000Y-105284148D01*
X158625869Y-105841523D01*
X158843346Y-106366560D01*
X159159074Y-106839080D01*
X159560920Y-107240926D01*
X160033440Y-107556654D01*
X160558477Y-107774131D01*
X161115852Y-107885000D01*
X161684148Y-107885000D01*
X162241523Y-107774131D01*
X162766560Y-107556654D01*
X163239080Y-107240926D01*
X163640926Y-106839080D01*
X163956654Y-106366560D01*
X164174131Y-105841523D01*
X164285000Y-105284148D01*
X164285000Y-104715852D01*
X164174131Y-104158477D01*
X163956654Y-103633440D01*
X163640926Y-103160920D01*
X163239080Y-102759074D01*
X162766560Y-102443346D01*
X162241523Y-102225869D01*
X161684148Y-102115000D01*
X161115852Y-102115000D01*
X160558477Y-102225869D01*
X160033440Y-102443346D01*
X159560920Y-102759074D01*
X159159074Y-103160920D01*
X158843346Y-103633440D01*
X158625869Y-104158477D01*
X158515000Y-104715852D01*
X155260000Y-104715852D01*
X155260000Y-100890347D01*
X155341523Y-100874131D01*
X155866560Y-100656654D01*
X156339080Y-100340926D01*
X156740926Y-99939080D01*
X157056654Y-99466560D01*
X157274131Y-98941523D01*
X157385000Y-98384148D01*
X157385000Y-97815852D01*
X157274131Y-97258477D01*
X157056654Y-96733440D01*
X156740926Y-96260920D01*
X156339080Y-95859074D01*
X155866560Y-95543346D01*
X155341523Y-95325869D01*
X154784148Y-95215000D01*
X154215852Y-95215000D01*
X153658477Y-95325869D01*
X153133440Y-95543346D01*
X152660920Y-95859074D01*
X152259074Y-96260920D01*
X151943346Y-96733440D01*
X151725869Y-97258477D01*
X151615000Y-97815852D01*
X151615000Y-98384148D01*
X151725869Y-98941523D01*
X151943346Y-99466560D01*
X152259074Y-99939080D01*
X152660920Y-100340926D01*
X153133440Y-100656654D01*
X153658477Y-100874131D01*
X153740000Y-100890347D01*
X153740001Y-112685197D01*
X150823887Y-115601312D01*
X150641335Y-115565000D01*
X150358665Y-115565000D01*
X150081426Y-115620147D01*
X149820273Y-115728320D01*
X149585241Y-115885363D01*
X149385363Y-116085241D01*
X149228320Y-116320273D01*
X149120147Y-116581426D01*
X149065000Y-116858665D01*
X146107000Y-116858665D01*
X146107000Y-111490000D01*
X147371928Y-111490000D01*
X147384188Y-111614482D01*
X147420498Y-111734180D01*
X147479463Y-111844494D01*
X147558815Y-111941185D01*
X147655506Y-112020537D01*
X147765820Y-112079502D01*
X147885518Y-112115812D01*
X148010000Y-112128072D01*
X149974250Y-112125000D01*
X150133000Y-111966250D01*
X150133000Y-109367000D01*
X150387000Y-109367000D01*
X150387000Y-111966250D01*
X150545750Y-112125000D01*
X152510000Y-112128072D01*
X152634482Y-112115812D01*
X152754180Y-112079502D01*
X152864494Y-112020537D01*
X152961185Y-111941185D01*
X153040537Y-111844494D01*
X153099502Y-111734180D01*
X153135812Y-111614482D01*
X153148072Y-111490000D01*
X153145000Y-109525750D01*
X152986250Y-109367000D01*
X150387000Y-109367000D01*
X150133000Y-109367000D01*
X147533750Y-109367000D01*
X147375000Y-109525750D01*
X147371928Y-111490000D01*
X146107000Y-111490000D01*
X146107000Y-106990000D01*
X147371928Y-106990000D01*
X147375000Y-108954250D01*
X147533750Y-109113000D01*
X150133000Y-109113000D01*
X150133000Y-106513750D01*
X150387000Y-106513750D01*
X150387000Y-109113000D01*
X152986250Y-109113000D01*
X153145000Y-108954250D01*
X153148072Y-106990000D01*
X153135812Y-106865518D01*
X153099502Y-106745820D01*
X153040537Y-106635506D01*
X152961185Y-106538815D01*
X152864494Y-106459463D01*
X152754180Y-106400498D01*
X152634482Y-106364188D01*
X152510000Y-106351928D01*
X150545750Y-106355000D01*
X150387000Y-106513750D01*
X150133000Y-106513750D01*
X149974250Y-106355000D01*
X148010000Y-106351928D01*
X147885518Y-106364188D01*
X147765820Y-106400498D01*
X147655506Y-106459463D01*
X147558815Y-106538815D01*
X147479463Y-106635506D01*
X147420498Y-106745820D01*
X147384188Y-106865518D01*
X147371928Y-106990000D01*
X146107000Y-106990000D01*
X146107000Y-103461825D01*
X146359074Y-103839080D01*
X146760920Y-104240926D01*
X147233440Y-104556654D01*
X147758477Y-104774131D01*
X148315852Y-104885000D01*
X148884148Y-104885000D01*
X149441523Y-104774131D01*
X149966560Y-104556654D01*
X150439080Y-104240926D01*
X150840926Y-103839080D01*
X151156654Y-103366560D01*
X151374131Y-102841523D01*
X151485000Y-102284148D01*
X151485000Y-101715852D01*
X151374131Y-101158477D01*
X151156654Y-100633440D01*
X150840926Y-100160920D01*
X150439080Y-99759074D01*
X149966560Y-99443346D01*
X149441523Y-99225869D01*
X148884148Y-99115000D01*
X148315852Y-99115000D01*
X147758477Y-99225869D01*
X147233440Y-99443346D01*
X146760920Y-99759074D01*
X146359074Y-100160920D01*
X146107000Y-100538175D01*
X146107000Y-90858665D01*
X149065000Y-90858665D01*
X149065000Y-91141335D01*
X149120147Y-91418574D01*
X149228320Y-91679727D01*
X149385363Y-91914759D01*
X149585241Y-92114637D01*
X149820273Y-92271680D01*
X150081426Y-92379853D01*
X150358665Y-92435000D01*
X150641335Y-92435000D01*
X150918574Y-92379853D01*
X151179727Y-92271680D01*
X151414759Y-92114637D01*
X151614637Y-91914759D01*
X151771680Y-91679727D01*
X151879853Y-91418574D01*
X151935000Y-91141335D01*
X151935000Y-90858665D01*
X151879853Y-90581426D01*
X151771680Y-90320273D01*
X151614637Y-90085241D01*
X151414759Y-89885363D01*
X151179727Y-89728320D01*
X150918574Y-89620147D01*
X150641335Y-89565000D01*
X150358665Y-89565000D01*
X150081426Y-89620147D01*
X149820273Y-89728320D01*
X149585241Y-89885363D01*
X149385363Y-90085241D01*
X149228320Y-90320273D01*
X149120147Y-90581426D01*
X149065000Y-90858665D01*
X146107000Y-90858665D01*
X146107000Y-86490000D01*
X147371928Y-86490000D01*
X147384188Y-86614482D01*
X147420498Y-86734180D01*
X147479463Y-86844494D01*
X147558815Y-86941185D01*
X147655506Y-87020537D01*
X147765820Y-87079502D01*
X147885518Y-87115812D01*
X148010000Y-87128072D01*
X149974250Y-87125000D01*
X150133000Y-86966250D01*
X150133000Y-84367000D01*
X150387000Y-84367000D01*
X150387000Y-86966250D01*
X150545750Y-87125000D01*
X152510000Y-87128072D01*
X152634482Y-87115812D01*
X152754180Y-87079502D01*
X152864494Y-87020537D01*
X152961185Y-86941185D01*
X153040537Y-86844494D01*
X153099502Y-86734180D01*
X153135812Y-86614482D01*
X153148072Y-86490000D01*
X153146705Y-85615852D01*
X154615000Y-85615852D01*
X154615000Y-86184148D01*
X154725869Y-86741523D01*
X154943346Y-87266560D01*
X155259074Y-87739080D01*
X155660920Y-88140926D01*
X156133440Y-88456654D01*
X156658477Y-88674131D01*
X157215852Y-88785000D01*
X157784148Y-88785000D01*
X158341523Y-88674131D01*
X158866560Y-88456654D01*
X159339080Y-88140926D01*
X159740926Y-87739080D01*
X160056654Y-87266560D01*
X160274131Y-86741523D01*
X160385000Y-86184148D01*
X160385000Y-85615852D01*
X160274131Y-85058477D01*
X160056654Y-84533440D01*
X159740926Y-84060920D01*
X159339080Y-83659074D01*
X158866560Y-83343346D01*
X158341523Y-83125869D01*
X157784148Y-83015000D01*
X157215852Y-83015000D01*
X156658477Y-83125869D01*
X156133440Y-83343346D01*
X155660920Y-83659074D01*
X155259074Y-84060920D01*
X154943346Y-84533440D01*
X154725869Y-85058477D01*
X154615000Y-85615852D01*
X153146705Y-85615852D01*
X153145000Y-84525750D01*
X152986250Y-84367000D01*
X150387000Y-84367000D01*
X150133000Y-84367000D01*
X147533750Y-84367000D01*
X147375000Y-84525750D01*
X147371928Y-86490000D01*
X146107000Y-86490000D01*
X146107000Y-81990000D01*
X147371928Y-81990000D01*
X147375000Y-83954250D01*
X147533750Y-84113000D01*
X150133000Y-84113000D01*
X150133000Y-81513750D01*
X150387000Y-81513750D01*
X150387000Y-84113000D01*
X152986250Y-84113000D01*
X153145000Y-83954250D01*
X153148072Y-81990000D01*
X153135812Y-81865518D01*
X153099502Y-81745820D01*
X153040537Y-81635506D01*
X152961185Y-81538815D01*
X152864494Y-81459463D01*
X152754180Y-81400498D01*
X152634482Y-81364188D01*
X152510000Y-81351928D01*
X150545750Y-81355000D01*
X150387000Y-81513750D01*
X150133000Y-81513750D01*
X149974250Y-81355000D01*
X148010000Y-81351928D01*
X147885518Y-81364188D01*
X147765820Y-81400498D01*
X147655506Y-81459463D01*
X147558815Y-81538815D01*
X147479463Y-81635506D01*
X147420498Y-81745820D01*
X147384188Y-81865518D01*
X147371928Y-81990000D01*
X146107000Y-81990000D01*
X146107000Y-78461825D01*
X146359074Y-78839080D01*
X146760920Y-79240926D01*
X147233440Y-79556654D01*
X147758477Y-79774131D01*
X148315852Y-79885000D01*
X148884148Y-79885000D01*
X149441523Y-79774131D01*
X149582221Y-79715852D01*
X158515000Y-79715852D01*
X158515000Y-80284148D01*
X158625869Y-80841523D01*
X158843346Y-81366560D01*
X159159074Y-81839080D01*
X159560920Y-82240926D01*
X160033440Y-82556654D01*
X160558477Y-82774131D01*
X161115852Y-82885000D01*
X161684148Y-82885000D01*
X162241523Y-82774131D01*
X162766560Y-82556654D01*
X163239080Y-82240926D01*
X163640926Y-81839080D01*
X163956654Y-81366560D01*
X164174131Y-80841523D01*
X164285000Y-80284148D01*
X164285000Y-79715852D01*
X164174131Y-79158477D01*
X163956654Y-78633440D01*
X163640926Y-78160920D01*
X163239080Y-77759074D01*
X162766560Y-77443346D01*
X162241523Y-77225869D01*
X161684148Y-77115000D01*
X161115852Y-77115000D01*
X160558477Y-77225869D01*
X160033440Y-77443346D01*
X159560920Y-77759074D01*
X159159074Y-78160920D01*
X158843346Y-78633440D01*
X158625869Y-79158477D01*
X158515000Y-79715852D01*
X149582221Y-79715852D01*
X149966560Y-79556654D01*
X150439080Y-79240926D01*
X150840926Y-78839080D01*
X151156654Y-78366560D01*
X151374131Y-77841523D01*
X151485000Y-77284148D01*
X151485000Y-76715852D01*
X151374131Y-76158477D01*
X151156654Y-75633440D01*
X150840926Y-75160920D01*
X150439080Y-74759074D01*
X149966560Y-74443346D01*
X149441523Y-74225869D01*
X148884148Y-74115000D01*
X148315852Y-74115000D01*
X147758477Y-74225869D01*
X147233440Y-74443346D01*
X146760920Y-74759074D01*
X146359074Y-75160920D01*
X146107000Y-75538175D01*
X146107000Y-73603101D01*
X146894249Y-72815852D01*
X151615000Y-72815852D01*
X151615000Y-73384148D01*
X151725869Y-73941523D01*
X151943346Y-74466560D01*
X152259074Y-74939080D01*
X152660920Y-75340926D01*
X153133440Y-75656654D01*
X153658477Y-75874131D01*
X154215852Y-75985000D01*
X154784148Y-75985000D01*
X155341523Y-75874131D01*
X155866560Y-75656654D01*
X156339080Y-75340926D01*
X156740926Y-74939080D01*
X157056654Y-74466560D01*
X157274131Y-73941523D01*
X157385000Y-73384148D01*
X157385000Y-72815852D01*
X157274131Y-72258477D01*
X157056654Y-71733440D01*
X156740926Y-71260920D01*
X156339080Y-70859074D01*
X155866560Y-70543346D01*
X155341523Y-70325869D01*
X154784148Y-70215000D01*
X154215852Y-70215000D01*
X153658477Y-70325869D01*
X153133440Y-70543346D01*
X152660920Y-70859074D01*
X152259074Y-71260920D01*
X151943346Y-71733440D01*
X151725869Y-72258477D01*
X151615000Y-72815852D01*
X146894249Y-72815852D01*
X150471003Y-69239099D01*
X150500001Y-69215301D01*
X150594974Y-69099576D01*
X150665546Y-68967547D01*
X150709003Y-68824286D01*
X150713089Y-68782796D01*
X150906632Y-68653475D01*
X151038487Y-68521620D01*
X151060498Y-68594180D01*
X151119463Y-68704494D01*
X151198815Y-68801185D01*
X151295506Y-68880537D01*
X151405820Y-68939502D01*
X151525518Y-68975812D01*
X151650000Y-68988072D01*
X152214250Y-68985000D01*
X152373000Y-68826250D01*
X152373000Y-67627000D01*
X152627000Y-67627000D01*
X152627000Y-68826250D01*
X152785750Y-68985000D01*
X153350000Y-68988072D01*
X153474482Y-68975812D01*
X153594180Y-68939502D01*
X153704494Y-68880537D01*
X153801185Y-68801185D01*
X153880537Y-68704494D01*
X153939502Y-68594180D01*
X153975812Y-68474482D01*
X153988072Y-68350000D01*
X153985000Y-67785750D01*
X153826250Y-67627000D01*
X152627000Y-67627000D01*
X152373000Y-67627000D01*
X152353000Y-67627000D01*
X152353000Y-67373000D01*
X152373000Y-67373000D01*
X152373000Y-66173750D01*
X152627000Y-66173750D01*
X152627000Y-67373000D01*
X153826250Y-67373000D01*
X153985000Y-67214250D01*
X153987364Y-66779872D01*
X159765000Y-66779872D01*
X159765000Y-67220128D01*
X159850890Y-67651925D01*
X160019369Y-68058669D01*
X160263962Y-68424729D01*
X160575271Y-68736038D01*
X160941331Y-68980631D01*
X161348075Y-69149110D01*
X161779872Y-69235000D01*
X162220128Y-69235000D01*
X162651925Y-69149110D01*
X163058669Y-68980631D01*
X163424729Y-68736038D01*
X163736038Y-68424729D01*
X163980631Y-68058669D01*
X164149110Y-67651925D01*
X164235000Y-67220128D01*
X164235000Y-66779872D01*
X164149110Y-66348075D01*
X163980631Y-65941331D01*
X163736038Y-65575271D01*
X163424729Y-65263962D01*
X163058669Y-65019369D01*
X162651925Y-64850890D01*
X162220128Y-64765000D01*
X161779872Y-64765000D01*
X161348075Y-64850890D01*
X160941331Y-65019369D01*
X160575271Y-65263962D01*
X160263962Y-65575271D01*
X160019369Y-65941331D01*
X159850890Y-66348075D01*
X159765000Y-66779872D01*
X153987364Y-66779872D01*
X153988072Y-66650000D01*
X153975812Y-66525518D01*
X153939502Y-66405820D01*
X153880537Y-66295506D01*
X153801185Y-66198815D01*
X153704494Y-66119463D01*
X153594180Y-66060498D01*
X153474482Y-66024188D01*
X153350000Y-66011928D01*
X152785750Y-66015000D01*
X152627000Y-66173750D01*
X152373000Y-66173750D01*
X152214250Y-66015000D01*
X151650000Y-66011928D01*
X151525518Y-66024188D01*
X151405820Y-66060498D01*
X151295506Y-66119463D01*
X151198815Y-66198815D01*
X151119463Y-66295506D01*
X151060498Y-66405820D01*
X151038487Y-66478380D01*
X150906632Y-66346525D01*
X150663411Y-66184010D01*
X150393158Y-66072068D01*
X150106260Y-66015000D01*
X149813740Y-66015000D01*
X149526842Y-66072068D01*
X149256589Y-66184010D01*
X149013368Y-66346525D01*
X148806525Y-66553368D01*
X148690000Y-66727760D01*
X148573475Y-66553368D01*
X148366632Y-66346525D01*
X148123411Y-66184010D01*
X147853158Y-66072068D01*
X147566260Y-66015000D01*
X147273740Y-66015000D01*
X146986842Y-66072068D01*
X146716589Y-66184010D01*
X146473368Y-66346525D01*
X146266525Y-66553368D01*
X146150000Y-66727760D01*
X146033475Y-66553368D01*
X145826632Y-66346525D01*
X145583411Y-66184010D01*
X145313158Y-66072068D01*
X145026260Y-66015000D01*
X144733740Y-66015000D01*
X144446842Y-66072068D01*
X144176589Y-66184010D01*
X143933368Y-66346525D01*
X143726525Y-66553368D01*
X143610000Y-66727760D01*
X143493475Y-66553368D01*
X143286632Y-66346525D01*
X143043411Y-66184010D01*
X142773158Y-66072068D01*
X142486260Y-66015000D01*
X142193740Y-66015000D01*
X141906842Y-66072068D01*
X141636589Y-66184010D01*
X141393368Y-66346525D01*
X141186525Y-66553368D01*
X141070000Y-66727760D01*
X140953475Y-66553368D01*
X140746632Y-66346525D01*
X140503411Y-66184010D01*
X140233158Y-66072068D01*
X139946260Y-66015000D01*
X139653740Y-66015000D01*
X139366842Y-66072068D01*
X139096589Y-66184010D01*
X138853368Y-66346525D01*
X138646525Y-66553368D01*
X138530000Y-66727760D01*
X138413475Y-66553368D01*
X138206632Y-66346525D01*
X137963411Y-66184010D01*
X137693158Y-66072068D01*
X137406260Y-66015000D01*
X137113740Y-66015000D01*
X136826842Y-66072068D01*
X136556589Y-66184010D01*
X136313368Y-66346525D01*
X136106525Y-66553368D01*
X135990000Y-66727760D01*
X135873475Y-66553368D01*
X135666632Y-66346525D01*
X135423411Y-66184010D01*
X135153158Y-66072068D01*
X134866260Y-66015000D01*
X134573740Y-66015000D01*
X134286842Y-66072068D01*
X134016589Y-66184010D01*
X133773368Y-66346525D01*
X133566525Y-66553368D01*
X133450000Y-66727760D01*
X133333475Y-66553368D01*
X133126632Y-66346525D01*
X132883411Y-66184010D01*
X132613158Y-66072068D01*
X132326260Y-66015000D01*
X132033740Y-66015000D01*
X131746842Y-66072068D01*
X131476589Y-66184010D01*
X131233368Y-66346525D01*
X131026525Y-66553368D01*
X130910000Y-66727760D01*
X130793475Y-66553368D01*
X130586632Y-66346525D01*
X130343411Y-66184010D01*
X130073158Y-66072068D01*
X129786260Y-66015000D01*
X129493740Y-66015000D01*
X129206842Y-66072068D01*
X128936589Y-66184010D01*
X128693368Y-66346525D01*
X128486525Y-66553368D01*
X128324010Y-66796589D01*
X128212068Y-67066842D01*
X128155000Y-67353740D01*
X128155000Y-67646260D01*
X128212068Y-67933158D01*
X128324010Y-68203411D01*
X128486525Y-68446632D01*
X128693368Y-68653475D01*
X128936589Y-68815990D01*
X129206842Y-68927932D01*
X129493740Y-68985000D01*
X129786260Y-68985000D01*
X130073158Y-68927932D01*
X130343411Y-68815990D01*
X130586632Y-68653475D01*
X130793475Y-68446632D01*
X130910000Y-68272240D01*
X131026525Y-68446632D01*
X131233368Y-68653475D01*
X131420000Y-68778179D01*
X131420001Y-78421897D01*
X127538603Y-82303296D01*
X127509599Y-82327099D01*
X127454471Y-82394274D01*
X127414626Y-82442824D01*
X127353782Y-82556654D01*
X127344054Y-82574854D01*
X127300597Y-82718115D01*
X127289600Y-82829768D01*
X127289600Y-82829778D01*
X127285924Y-82867100D01*
X127289600Y-82904422D01*
X127289601Y-91682597D01*
X124770003Y-94202196D01*
X124740999Y-94225999D01*
X124685871Y-94293174D01*
X124646026Y-94341724D01*
X124575455Y-94473753D01*
X124575454Y-94473754D01*
X124531997Y-94617015D01*
X124521000Y-94728668D01*
X124521000Y-94728678D01*
X124517324Y-94766000D01*
X124521000Y-94803323D01*
X124521001Y-99840995D01*
X124439080Y-99759074D01*
X123966560Y-99443346D01*
X123441523Y-99225869D01*
X122884148Y-99115000D01*
X122315852Y-99115000D01*
X121758477Y-99225869D01*
X121233440Y-99443346D01*
X120760920Y-99759074D01*
X120359074Y-100160920D01*
X120043346Y-100633440D01*
X119825869Y-101158477D01*
X119715000Y-101715852D01*
X119685000Y-101715852D01*
X119685000Y-86490000D01*
X121371928Y-86490000D01*
X121384188Y-86614482D01*
X121420498Y-86734180D01*
X121479463Y-86844494D01*
X121558815Y-86941185D01*
X121655506Y-87020537D01*
X121765820Y-87079502D01*
X121885518Y-87115812D01*
X122010000Y-87128072D01*
X123974250Y-87125000D01*
X124133000Y-86966250D01*
X124133000Y-84367000D01*
X124387000Y-84367000D01*
X124387000Y-86966250D01*
X124545750Y-87125000D01*
X126510000Y-87128072D01*
X126634482Y-87115812D01*
X126754180Y-87079502D01*
X126864494Y-87020537D01*
X126961185Y-86941185D01*
X127040537Y-86844494D01*
X127099502Y-86734180D01*
X127135812Y-86614482D01*
X127148072Y-86490000D01*
X127145000Y-84525750D01*
X126986250Y-84367000D01*
X124387000Y-84367000D01*
X124133000Y-84367000D01*
X121533750Y-84367000D01*
X121375000Y-84525750D01*
X121371928Y-86490000D01*
X119685000Y-86490000D01*
X119685000Y-81990000D01*
X121371928Y-81990000D01*
X121375000Y-83954250D01*
X121533750Y-84113000D01*
X124133000Y-84113000D01*
X124133000Y-81513750D01*
X124387000Y-81513750D01*
X124387000Y-84113000D01*
X126986250Y-84113000D01*
X127145000Y-83954250D01*
X127148072Y-81990000D01*
X127135812Y-81865518D01*
X127099502Y-81745820D01*
X127040537Y-81635506D01*
X126961185Y-81538815D01*
X126864494Y-81459463D01*
X126754180Y-81400498D01*
X126634482Y-81364188D01*
X126510000Y-81351928D01*
X124545750Y-81355000D01*
X124387000Y-81513750D01*
X124133000Y-81513750D01*
X123974250Y-81355000D01*
X122010000Y-81351928D01*
X121885518Y-81364188D01*
X121765820Y-81400498D01*
X121655506Y-81459463D01*
X121558815Y-81538815D01*
X121479463Y-81635506D01*
X121420498Y-81745820D01*
X121384188Y-81865518D01*
X121371928Y-81990000D01*
X119685000Y-81990000D01*
X119685000Y-76715852D01*
X119715000Y-76715852D01*
X119715000Y-77284148D01*
X119825869Y-77841523D01*
X120043346Y-78366560D01*
X120359074Y-78839080D01*
X120760920Y-79240926D01*
X121233440Y-79556654D01*
X121758477Y-79774131D01*
X122315852Y-79885000D01*
X122884148Y-79885000D01*
X123441523Y-79774131D01*
X123966560Y-79556654D01*
X124439080Y-79240926D01*
X124840926Y-78839080D01*
X125156654Y-78366560D01*
X125374131Y-77841523D01*
X125485000Y-77284148D01*
X125485000Y-76715852D01*
X125374131Y-76158477D01*
X125156654Y-75633440D01*
X124840926Y-75160920D01*
X124439080Y-74759074D01*
X123966560Y-74443346D01*
X123441523Y-74225869D01*
X122884148Y-74115000D01*
X122315852Y-74115000D01*
X121758477Y-74225869D01*
X121233440Y-74443346D01*
X120760920Y-74759074D01*
X120359074Y-75160920D01*
X120043346Y-75633440D01*
X119825869Y-76158477D01*
X119715000Y-76715852D01*
X119685000Y-76715852D01*
X119685000Y-72815852D01*
X125615000Y-72815852D01*
X125615000Y-73384148D01*
X125725869Y-73941523D01*
X125943346Y-74466560D01*
X126259074Y-74939080D01*
X126660920Y-75340926D01*
X127133440Y-75656654D01*
X127658477Y-75874131D01*
X128215852Y-75985000D01*
X128784148Y-75985000D01*
X129341523Y-75874131D01*
X129866560Y-75656654D01*
X130339080Y-75340926D01*
X130740926Y-74939080D01*
X131056654Y-74466560D01*
X131274131Y-73941523D01*
X131385000Y-73384148D01*
X131385000Y-72815852D01*
X131274131Y-72258477D01*
X131056654Y-71733440D01*
X130740926Y-71260920D01*
X130339080Y-70859074D01*
X129866560Y-70543346D01*
X129341523Y-70325869D01*
X128784148Y-70215000D01*
X128215852Y-70215000D01*
X127658477Y-70325869D01*
X127133440Y-70543346D01*
X126660920Y-70859074D01*
X126259074Y-71260920D01*
X125943346Y-71733440D01*
X125725869Y-72258477D01*
X125615000Y-72815852D01*
X119685000Y-72815852D01*
X119685000Y-66779872D01*
X119765000Y-66779872D01*
X119765000Y-67220128D01*
X119850890Y-67651925D01*
X120019369Y-68058669D01*
X120263962Y-68424729D01*
X120575271Y-68736038D01*
X120941331Y-68980631D01*
X121348075Y-69149110D01*
X121779872Y-69235000D01*
X122220128Y-69235000D01*
X122651925Y-69149110D01*
X123058669Y-68980631D01*
X123424729Y-68736038D01*
X123736038Y-68424729D01*
X123980631Y-68058669D01*
X124149110Y-67651925D01*
X124235000Y-67220128D01*
X124235000Y-66779872D01*
X124149110Y-66348075D01*
X123980631Y-65941331D01*
X123736038Y-65575271D01*
X123424729Y-65263962D01*
X123058669Y-65019369D01*
X122651925Y-64850890D01*
X122220128Y-64765000D01*
X121779872Y-64765000D01*
X121348075Y-64850890D01*
X120941331Y-65019369D01*
X120575271Y-65263962D01*
X120263962Y-65575271D01*
X120019369Y-65941331D01*
X119850890Y-66348075D01*
X119765000Y-66779872D01*
X119685000Y-66779872D01*
X119685000Y-64685000D01*
X164315000Y-64685000D01*
X164315001Y-178315000D01*
%TA.AperFunction,Conductor*%
D21*
G36*
X164315001Y-178315000D02*
G01*
X154207401Y-178315000D01*
X151709901Y-176650000D01*
X153461928Y-176650000D01*
X153474188Y-176774482D01*
X153510498Y-176894180D01*
X153569463Y-177004494D01*
X153648815Y-177101185D01*
X153745506Y-177180537D01*
X153855820Y-177239502D01*
X153975518Y-177275812D01*
X154100000Y-177288072D01*
X154714250Y-177285000D01*
X154873000Y-177126250D01*
X154873000Y-175877000D01*
X155127000Y-175877000D01*
X155127000Y-177126250D01*
X155285750Y-177285000D01*
X155900000Y-177288072D01*
X156024482Y-177275812D01*
X156144180Y-177239502D01*
X156254494Y-177180537D01*
X156351185Y-177101185D01*
X156430537Y-177004494D01*
X156489502Y-176894180D01*
X156525812Y-176774482D01*
X156538072Y-176650000D01*
X156535000Y-176035750D01*
X156376250Y-175877000D01*
X155127000Y-175877000D01*
X154873000Y-175877000D01*
X153623750Y-175877000D01*
X153465000Y-176035750D01*
X153461928Y-176650000D01*
X151709901Y-176650000D01*
X150404709Y-175779872D01*
X159765000Y-175779872D01*
X159765000Y-176220128D01*
X159850890Y-176651925D01*
X160019369Y-177058669D01*
X160263962Y-177424729D01*
X160575271Y-177736038D01*
X160941331Y-177980631D01*
X161348075Y-178149110D01*
X161779872Y-178235000D01*
X162220128Y-178235000D01*
X162651925Y-178149110D01*
X163058669Y-177980631D01*
X163424729Y-177736038D01*
X163736038Y-177424729D01*
X163980631Y-177058669D01*
X164149110Y-176651925D01*
X164235000Y-176220128D01*
X164235000Y-175779872D01*
X164149110Y-175348075D01*
X163980631Y-174941331D01*
X163736038Y-174575271D01*
X163424729Y-174263962D01*
X163058669Y-174019369D01*
X162651925Y-173850890D01*
X162220128Y-173765000D01*
X161779872Y-173765000D01*
X161348075Y-173850890D01*
X160941331Y-174019369D01*
X160575271Y-174263962D01*
X160263962Y-174575271D01*
X160019369Y-174941331D01*
X159850890Y-175348075D01*
X159765000Y-175779872D01*
X150404709Y-175779872D01*
X145408269Y-172448913D01*
X145382407Y-172427688D01*
X145352266Y-172411578D01*
X145351973Y-172411382D01*
X145323191Y-172396036D01*
X145263406Y-172364081D01*
X145263055Y-172363975D01*
X145262741Y-172363807D01*
X145199424Y-172344672D01*
X145134283Y-172324912D01*
X145133918Y-172324876D01*
X145133577Y-172324773D01*
X145067599Y-172318344D01*
X145033647Y-172315000D01*
X145033280Y-172315000D01*
X144999280Y-172311687D01*
X144966002Y-172315000D01*
X139033998Y-172315000D01*
X139000720Y-172311687D01*
X138966717Y-172315000D01*
X138966353Y-172315000D01*
X138932927Y-172318292D01*
X138866422Y-172324772D01*
X138866076Y-172324877D01*
X138865717Y-172324912D01*
X138801717Y-172344326D01*
X138737258Y-172363806D01*
X138736938Y-172363977D01*
X138736594Y-172364081D01*
X138677450Y-172395694D01*
X138648026Y-172411382D01*
X138647729Y-172411580D01*
X138617593Y-172427688D01*
X138591735Y-172448909D01*
X129792600Y-178315000D01*
X119685000Y-178315000D01*
X119685000Y-175779872D01*
X119765000Y-175779872D01*
X119765000Y-176220128D01*
X119850890Y-176651925D01*
X120019369Y-177058669D01*
X120263962Y-177424729D01*
X120575271Y-177736038D01*
X120941331Y-177980631D01*
X121348075Y-178149110D01*
X121779872Y-178235000D01*
X122220128Y-178235000D01*
X122651925Y-178149110D01*
X123058669Y-177980631D01*
X123424729Y-177736038D01*
X123736038Y-177424729D01*
X123980631Y-177058669D01*
X124149110Y-176651925D01*
X124235000Y-176220128D01*
X124235000Y-175779872D01*
X124149110Y-175348075D01*
X123980631Y-174941331D01*
X123736038Y-174575271D01*
X123424729Y-174263962D01*
X123058669Y-174019369D01*
X122651925Y-173850890D01*
X122220128Y-173765000D01*
X121779872Y-173765000D01*
X121348075Y-173850890D01*
X120941331Y-174019369D01*
X120575271Y-174263962D01*
X120263962Y-174575271D01*
X120019369Y-174941331D01*
X119850890Y-175348075D01*
X119765000Y-175779872D01*
X119685000Y-175779872D01*
X119685000Y-166858665D01*
X131065000Y-166858665D01*
X131065000Y-167141335D01*
X131120147Y-167418574D01*
X131228320Y-167679727D01*
X131385363Y-167914759D01*
X131585241Y-168114637D01*
X131820273Y-168271680D01*
X132081426Y-168379853D01*
X132358665Y-168435000D01*
X132641335Y-168435000D01*
X132918574Y-168379853D01*
X133179727Y-168271680D01*
X133414759Y-168114637D01*
X133614637Y-167914759D01*
X133771680Y-167679727D01*
X133879853Y-167418574D01*
X133935000Y-167141335D01*
X133935000Y-166858665D01*
X133879853Y-166581426D01*
X133771680Y-166320273D01*
X133614637Y-166085241D01*
X133414759Y-165885363D01*
X133179727Y-165728320D01*
X132918574Y-165620147D01*
X132641335Y-165565000D01*
X132358665Y-165565000D01*
X132081426Y-165620147D01*
X131820273Y-165728320D01*
X131585241Y-165885363D01*
X131385363Y-166085241D01*
X131228320Y-166320273D01*
X131120147Y-166581426D01*
X131065000Y-166858665D01*
X119685000Y-166858665D01*
X119685000Y-161490000D01*
X121371928Y-161490000D01*
X121384188Y-161614482D01*
X121420498Y-161734180D01*
X121479463Y-161844494D01*
X121558815Y-161941185D01*
X121655506Y-162020537D01*
X121765820Y-162079502D01*
X121885518Y-162115812D01*
X122010000Y-162128072D01*
X123974250Y-162125000D01*
X124133000Y-161966250D01*
X124133000Y-159367000D01*
X124387000Y-159367000D01*
X124387000Y-161966250D01*
X124545750Y-162125000D01*
X126510000Y-162128072D01*
X126634482Y-162115812D01*
X126754180Y-162079502D01*
X126864494Y-162020537D01*
X126961185Y-161941185D01*
X127040537Y-161844494D01*
X127099502Y-161734180D01*
X127135812Y-161614482D01*
X127148072Y-161490000D01*
X127146705Y-160615852D01*
X128615000Y-160615852D01*
X128615000Y-161184148D01*
X128725869Y-161741523D01*
X128943346Y-162266560D01*
X129259074Y-162739080D01*
X129660920Y-163140926D01*
X130133440Y-163456654D01*
X130658477Y-163674131D01*
X131215852Y-163785000D01*
X131784148Y-163785000D01*
X132341523Y-163674131D01*
X132866560Y-163456654D01*
X133339080Y-163140926D01*
X133740926Y-162739080D01*
X134056654Y-162266560D01*
X134274131Y-161741523D01*
X134385000Y-161184148D01*
X134385000Y-160615852D01*
X134274131Y-160058477D01*
X134056654Y-159533440D01*
X133740926Y-159060920D01*
X133339080Y-158659074D01*
X132866560Y-158343346D01*
X132341523Y-158125869D01*
X131784148Y-158015000D01*
X131215852Y-158015000D01*
X130658477Y-158125869D01*
X130133440Y-158343346D01*
X129660920Y-158659074D01*
X129259074Y-159060920D01*
X128943346Y-159533440D01*
X128725869Y-160058477D01*
X128615000Y-160615852D01*
X127146705Y-160615852D01*
X127145000Y-159525750D01*
X126986250Y-159367000D01*
X124387000Y-159367000D01*
X124133000Y-159367000D01*
X121533750Y-159367000D01*
X121375000Y-159525750D01*
X121371928Y-161490000D01*
X119685000Y-161490000D01*
X119685000Y-156990000D01*
X121371928Y-156990000D01*
X121375000Y-158954250D01*
X121533750Y-159113000D01*
X124133000Y-159113000D01*
X124133000Y-156513750D01*
X124387000Y-156513750D01*
X124387000Y-159113000D01*
X126986250Y-159113000D01*
X127145000Y-158954250D01*
X127148072Y-156990000D01*
X127135812Y-156865518D01*
X127099502Y-156745820D01*
X127040537Y-156635506D01*
X126961185Y-156538815D01*
X126864494Y-156459463D01*
X126754180Y-156400498D01*
X126634482Y-156364188D01*
X126510000Y-156351928D01*
X124545750Y-156355000D01*
X124387000Y-156513750D01*
X124133000Y-156513750D01*
X123974250Y-156355000D01*
X122010000Y-156351928D01*
X121885518Y-156364188D01*
X121765820Y-156400498D01*
X121655506Y-156459463D01*
X121558815Y-156538815D01*
X121479463Y-156635506D01*
X121420498Y-156745820D01*
X121384188Y-156865518D01*
X121371928Y-156990000D01*
X119685000Y-156990000D01*
X119685000Y-151715852D01*
X119715000Y-151715852D01*
X119715000Y-152284148D01*
X119825869Y-152841523D01*
X120043346Y-153366560D01*
X120359074Y-153839080D01*
X120760920Y-154240926D01*
X121233440Y-154556654D01*
X121758477Y-154774131D01*
X122315852Y-154885000D01*
X122884148Y-154885000D01*
X123441523Y-154774131D01*
X123582221Y-154715852D01*
X132515000Y-154715852D01*
X132515000Y-155284148D01*
X132625869Y-155841523D01*
X132843346Y-156366560D01*
X133159074Y-156839080D01*
X133560920Y-157240926D01*
X134033440Y-157556654D01*
X134558477Y-157774131D01*
X135115852Y-157885000D01*
X135684148Y-157885000D01*
X136241523Y-157774131D01*
X136766560Y-157556654D01*
X137239080Y-157240926D01*
X137640926Y-156839080D01*
X137956654Y-156366560D01*
X138174131Y-155841523D01*
X138285000Y-155284148D01*
X138285000Y-154715852D01*
X138174131Y-154158477D01*
X138149910Y-154100000D01*
X140461928Y-154100000D01*
X140474188Y-154224482D01*
X140510498Y-154344180D01*
X140569463Y-154454494D01*
X140648815Y-154551185D01*
X140745506Y-154630537D01*
X140855820Y-154689502D01*
X140874127Y-154695056D01*
X140807688Y-154761495D01*
X140639701Y-155012905D01*
X140523989Y-155292257D01*
X140465000Y-155588816D01*
X140465000Y-155891184D01*
X140523989Y-156187743D01*
X140639701Y-156467095D01*
X140807688Y-156718505D01*
X141021495Y-156932312D01*
X141272905Y-157100299D01*
X141552257Y-157216011D01*
X141848816Y-157275000D01*
X142151184Y-157275000D01*
X142447743Y-157216011D01*
X142727095Y-157100299D01*
X142978505Y-156932312D01*
X143192312Y-156718505D01*
X143360299Y-156467095D01*
X143476011Y-156187743D01*
X143535000Y-155891184D01*
X143535000Y-155588816D01*
X143476011Y-155292257D01*
X143360299Y-155012905D01*
X143192312Y-154761495D01*
X143125873Y-154695056D01*
X143144180Y-154689502D01*
X143254494Y-154630537D01*
X143351185Y-154551185D01*
X143430537Y-154454494D01*
X143489502Y-154344180D01*
X143525812Y-154224482D01*
X143538072Y-154100000D01*
X143535000Y-153485750D01*
X143376250Y-153327000D01*
X142127000Y-153327000D01*
X142127000Y-153347000D01*
X141873000Y-153347000D01*
X141873000Y-153327000D01*
X140623750Y-153327000D01*
X140465000Y-153485750D01*
X140461928Y-154100000D01*
X138149910Y-154100000D01*
X137956654Y-153633440D01*
X137640926Y-153160920D01*
X137239080Y-152759074D01*
X136766560Y-152443346D01*
X136420492Y-152300000D01*
X140461928Y-152300000D01*
X140465000Y-152914250D01*
X140623750Y-153073000D01*
X141873000Y-153073000D01*
X141873000Y-151823750D01*
X142127000Y-151823750D01*
X142127000Y-153073000D01*
X143376250Y-153073000D01*
X143535000Y-152914250D01*
X143538072Y-152300000D01*
X143525812Y-152175518D01*
X143489502Y-152055820D01*
X143430537Y-151945506D01*
X143351185Y-151848815D01*
X143254494Y-151769463D01*
X143144180Y-151710498D01*
X143024482Y-151674188D01*
X142900000Y-151661928D01*
X142285750Y-151665000D01*
X142127000Y-151823750D01*
X141873000Y-151823750D01*
X141714250Y-151665000D01*
X141100000Y-151661928D01*
X140975518Y-151674188D01*
X140855820Y-151710498D01*
X140745506Y-151769463D01*
X140648815Y-151848815D01*
X140569463Y-151945506D01*
X140510498Y-152055820D01*
X140474188Y-152175518D01*
X140461928Y-152300000D01*
X136420492Y-152300000D01*
X136241523Y-152225869D01*
X135684148Y-152115000D01*
X135115852Y-152115000D01*
X134558477Y-152225869D01*
X134033440Y-152443346D01*
X133560920Y-152759074D01*
X133159074Y-153160920D01*
X132843346Y-153633440D01*
X132625869Y-154158477D01*
X132515000Y-154715852D01*
X123582221Y-154715852D01*
X123966560Y-154556654D01*
X124439080Y-154240926D01*
X124840926Y-153839080D01*
X125156654Y-153366560D01*
X125374131Y-152841523D01*
X125485000Y-152284148D01*
X125485000Y-151715852D01*
X125374131Y-151158477D01*
X125156654Y-150633440D01*
X124840926Y-150160920D01*
X124439080Y-149759074D01*
X123966560Y-149443346D01*
X123441523Y-149225869D01*
X122884148Y-149115000D01*
X122315852Y-149115000D01*
X121758477Y-149225869D01*
X121233440Y-149443346D01*
X120760920Y-149759074D01*
X120359074Y-150160920D01*
X120043346Y-150633440D01*
X119825869Y-151158477D01*
X119715000Y-151715852D01*
X119685000Y-151715852D01*
X119685000Y-136490000D01*
X121371928Y-136490000D01*
X121384188Y-136614482D01*
X121420498Y-136734180D01*
X121479463Y-136844494D01*
X121558815Y-136941185D01*
X121655506Y-137020537D01*
X121765820Y-137079502D01*
X121885518Y-137115812D01*
X122010000Y-137128072D01*
X123974250Y-137125000D01*
X124133000Y-136966250D01*
X124133000Y-134367000D01*
X124387000Y-134367000D01*
X124387000Y-136966250D01*
X124545750Y-137125000D01*
X126510000Y-137128072D01*
X126634482Y-137115812D01*
X126754180Y-137079502D01*
X126864494Y-137020537D01*
X126961185Y-136941185D01*
X127040537Y-136844494D01*
X127099502Y-136734180D01*
X127135812Y-136614482D01*
X127148072Y-136490000D01*
X127145000Y-134525750D01*
X126986250Y-134367000D01*
X124387000Y-134367000D01*
X124133000Y-134367000D01*
X121533750Y-134367000D01*
X121375000Y-134525750D01*
X121371928Y-136490000D01*
X119685000Y-136490000D01*
X119685000Y-131990000D01*
X121371928Y-131990000D01*
X121375000Y-133954250D01*
X121533750Y-134113000D01*
X124133000Y-134113000D01*
X124133000Y-131513750D01*
X124387000Y-131513750D01*
X124387000Y-134113000D01*
X126986250Y-134113000D01*
X127145000Y-133954250D01*
X127148072Y-131990000D01*
X127135812Y-131865518D01*
X127099502Y-131745820D01*
X127040537Y-131635506D01*
X126961185Y-131538815D01*
X126864494Y-131459463D01*
X126754180Y-131400498D01*
X126634482Y-131364188D01*
X126510000Y-131351928D01*
X124545750Y-131355000D01*
X124387000Y-131513750D01*
X124133000Y-131513750D01*
X123974250Y-131355000D01*
X122010000Y-131351928D01*
X121885518Y-131364188D01*
X121765820Y-131400498D01*
X121655506Y-131459463D01*
X121558815Y-131538815D01*
X121479463Y-131635506D01*
X121420498Y-131745820D01*
X121384188Y-131865518D01*
X121371928Y-131990000D01*
X119685000Y-131990000D01*
X119685000Y-111490000D01*
X121371928Y-111490000D01*
X121384188Y-111614482D01*
X121420498Y-111734180D01*
X121479463Y-111844494D01*
X121558815Y-111941185D01*
X121655506Y-112020537D01*
X121765820Y-112079502D01*
X121885518Y-112115812D01*
X122010000Y-112128072D01*
X123974250Y-112125000D01*
X124133000Y-111966250D01*
X124133000Y-109367000D01*
X121533750Y-109367000D01*
X121375000Y-109525750D01*
X121371928Y-111490000D01*
X119685000Y-111490000D01*
X119685000Y-106990000D01*
X121371928Y-106990000D01*
X121375000Y-108954250D01*
X121533750Y-109113000D01*
X124133000Y-109113000D01*
X124133000Y-106513750D01*
X123974250Y-106355000D01*
X122010000Y-106351928D01*
X121885518Y-106364188D01*
X121765820Y-106400498D01*
X121655506Y-106459463D01*
X121558815Y-106538815D01*
X121479463Y-106635506D01*
X121420498Y-106745820D01*
X121384188Y-106865518D01*
X121371928Y-106990000D01*
X119685000Y-106990000D01*
X119685000Y-101715852D01*
X119715000Y-101715852D01*
X119715000Y-102284148D01*
X119825869Y-102841523D01*
X120043346Y-103366560D01*
X120359074Y-103839080D01*
X120760920Y-104240926D01*
X121233440Y-104556654D01*
X121758477Y-104774131D01*
X122315852Y-104885000D01*
X122884148Y-104885000D01*
X123441523Y-104774131D01*
X123966560Y-104556654D01*
X124439080Y-104240926D01*
X124840926Y-103839080D01*
X125156654Y-103366560D01*
X125374131Y-102841523D01*
X125485000Y-102284148D01*
X125485000Y-101715852D01*
X125374368Y-101159670D01*
X126075400Y-101860702D01*
X126075400Y-106352608D01*
X124545750Y-106355000D01*
X124387000Y-106513750D01*
X124387000Y-109113000D01*
X124407000Y-109113000D01*
X124407000Y-109367000D01*
X124387000Y-109367000D01*
X124387000Y-111966250D01*
X124545750Y-112125000D01*
X126075401Y-112127392D01*
X126075401Y-118658497D01*
X125381702Y-119352196D01*
X125352699Y-119375999D01*
X125297571Y-119443174D01*
X125257726Y-119491724D01*
X125246193Y-119513301D01*
X125187154Y-119623754D01*
X125143697Y-119767015D01*
X125132700Y-119878668D01*
X125132700Y-119878678D01*
X125129024Y-119916000D01*
X125132700Y-119953322D01*
X125132701Y-125597591D01*
X124840926Y-125160920D01*
X124439080Y-124759074D01*
X123966560Y-124443346D01*
X123441523Y-124225869D01*
X122884148Y-124115000D01*
X122315852Y-124115000D01*
X121758477Y-124225869D01*
X121233440Y-124443346D01*
X120760920Y-124759074D01*
X120359074Y-125160920D01*
X120043346Y-125633440D01*
X119825869Y-126158477D01*
X119715000Y-126715852D01*
X119715000Y-127284148D01*
X119825869Y-127841523D01*
X120043346Y-128366560D01*
X120359074Y-128839080D01*
X120760920Y-129240926D01*
X121233440Y-129556654D01*
X121758477Y-129774131D01*
X122315852Y-129885000D01*
X122884148Y-129885000D01*
X123441523Y-129774131D01*
X123966560Y-129556654D01*
X124439080Y-129240926D01*
X124840926Y-128839080D01*
X125132701Y-128402408D01*
X125132701Y-128958168D01*
X125129024Y-128995500D01*
X125132701Y-129032833D01*
X125139317Y-129100000D01*
X125143698Y-129144485D01*
X125187154Y-129287746D01*
X125257726Y-129419776D01*
X125286219Y-129454494D01*
X125352700Y-129535501D01*
X125381698Y-129559299D01*
X127740000Y-131917602D01*
X127740001Y-145309653D01*
X127658477Y-145325869D01*
X127133440Y-145543346D01*
X126660920Y-145859074D01*
X126259074Y-146260920D01*
X125943346Y-146733440D01*
X125725869Y-147258477D01*
X125615000Y-147815852D01*
X125615000Y-148384148D01*
X125725869Y-148941523D01*
X125943346Y-149466560D01*
X126259074Y-149939080D01*
X126660920Y-150340926D01*
X127133440Y-150656654D01*
X127658477Y-150874131D01*
X128215852Y-150985000D01*
X128784148Y-150985000D01*
X129341523Y-150874131D01*
X129866560Y-150656654D01*
X130339080Y-150340926D01*
X130740926Y-149939080D01*
X131056654Y-149466560D01*
X131274131Y-148941523D01*
X131385000Y-148384148D01*
X131385000Y-147815852D01*
X131274131Y-147258477D01*
X131056654Y-146733440D01*
X130740926Y-146260920D01*
X130339080Y-145859074D01*
X129866560Y-145543346D01*
X129341523Y-145325869D01*
X129260000Y-145309653D01*
X129260000Y-141858665D01*
X131065000Y-141858665D01*
X131065000Y-142141335D01*
X131120147Y-142418574D01*
X131228320Y-142679727D01*
X131385363Y-142914759D01*
X131585241Y-143114637D01*
X131820273Y-143271680D01*
X132081426Y-143379853D01*
X132358665Y-143435000D01*
X132641335Y-143435000D01*
X132918574Y-143379853D01*
X133179727Y-143271680D01*
X133414759Y-143114637D01*
X133614637Y-142914759D01*
X133771680Y-142679727D01*
X133879853Y-142418574D01*
X133935000Y-142141335D01*
X133935000Y-141858665D01*
X138685000Y-141858665D01*
X138685000Y-142141335D01*
X138740147Y-142418574D01*
X138848320Y-142679727D01*
X139005363Y-142914759D01*
X139205241Y-143114637D01*
X139440273Y-143271680D01*
X139701426Y-143379853D01*
X139978665Y-143435000D01*
X140261335Y-143435000D01*
X140538574Y-143379853D01*
X140799727Y-143271680D01*
X141034759Y-143114637D01*
X141234637Y-142914759D01*
X141391680Y-142679727D01*
X141499853Y-142418574D01*
X141500000Y-142417835D01*
X141500147Y-142418574D01*
X141608320Y-142679727D01*
X141765363Y-142914759D01*
X141965241Y-143114637D01*
X142200273Y-143271680D01*
X142461426Y-143379853D01*
X142738665Y-143435000D01*
X143021335Y-143435000D01*
X143298574Y-143379853D01*
X143559727Y-143271680D01*
X143794759Y-143114637D01*
X143994637Y-142914759D01*
X144151680Y-142679727D01*
X144259853Y-142418574D01*
X144315000Y-142141335D01*
X144315000Y-141858665D01*
X144259853Y-141581426D01*
X144151680Y-141320273D01*
X143994637Y-141085241D01*
X143794759Y-140885363D01*
X143559727Y-140728320D01*
X143298574Y-140620147D01*
X143021335Y-140565000D01*
X142738665Y-140565000D01*
X142461426Y-140620147D01*
X142200273Y-140728320D01*
X141965241Y-140885363D01*
X141765363Y-141085241D01*
X141608320Y-141320273D01*
X141500147Y-141581426D01*
X141500000Y-141582165D01*
X141499853Y-141581426D01*
X141391680Y-141320273D01*
X141234637Y-141085241D01*
X141034759Y-140885363D01*
X140799727Y-140728320D01*
X140538574Y-140620147D01*
X140261335Y-140565000D01*
X139978665Y-140565000D01*
X139701426Y-140620147D01*
X139440273Y-140728320D01*
X139205241Y-140885363D01*
X139005363Y-141085241D01*
X138848320Y-141320273D01*
X138740147Y-141581426D01*
X138685000Y-141858665D01*
X133935000Y-141858665D01*
X133879853Y-141581426D01*
X133771680Y-141320273D01*
X133614637Y-141085241D01*
X133414759Y-140885363D01*
X133179727Y-140728320D01*
X132918574Y-140620147D01*
X132641335Y-140565000D01*
X132358665Y-140565000D01*
X132081426Y-140620147D01*
X131820273Y-140728320D01*
X131585241Y-140885363D01*
X131385363Y-141085241D01*
X131228320Y-141320273D01*
X131120147Y-141581426D01*
X131065000Y-141858665D01*
X129260000Y-141858665D01*
X129260000Y-137740006D01*
X129660920Y-138140926D01*
X130133440Y-138456654D01*
X130658477Y-138674131D01*
X131215852Y-138785000D01*
X131784148Y-138785000D01*
X132341523Y-138674131D01*
X132866560Y-138456654D01*
X133339080Y-138140926D01*
X133740926Y-137739080D01*
X134056654Y-137266560D01*
X134274131Y-136741523D01*
X134385000Y-136184148D01*
X134385000Y-135615852D01*
X134274131Y-135058477D01*
X134056654Y-134533440D01*
X133740926Y-134060920D01*
X133339080Y-133659074D01*
X132866560Y-133343346D01*
X132341523Y-133125869D01*
X131784148Y-133015000D01*
X131215852Y-133015000D01*
X130658477Y-133125869D01*
X130133440Y-133343346D01*
X129660920Y-133659074D01*
X129260000Y-134059994D01*
X129260000Y-131640122D01*
X129263676Y-131602799D01*
X129260000Y-131565477D01*
X129260000Y-131565467D01*
X129249003Y-131453814D01*
X129205546Y-131310553D01*
X129134975Y-131178525D01*
X129134974Y-131178523D01*
X129063799Y-131091797D01*
X129040001Y-131062799D01*
X129011004Y-131039002D01*
X127687854Y-129715852D01*
X132515000Y-129715852D01*
X132515000Y-130284148D01*
X132625869Y-130841523D01*
X132843346Y-131366560D01*
X133159074Y-131839080D01*
X133560920Y-132240926D01*
X134033440Y-132556654D01*
X134558477Y-132774131D01*
X135115852Y-132885000D01*
X135684148Y-132885000D01*
X136241523Y-132774131D01*
X136766560Y-132556654D01*
X137239080Y-132240926D01*
X137640926Y-131839080D01*
X137956654Y-131366560D01*
X138174131Y-130841523D01*
X138285000Y-130284148D01*
X138285000Y-129715852D01*
X138174131Y-129158477D01*
X138149910Y-129100000D01*
X140461928Y-129100000D01*
X140474188Y-129224482D01*
X140510498Y-129344180D01*
X140569463Y-129454494D01*
X140648815Y-129551185D01*
X140745506Y-129630537D01*
X140855820Y-129689502D01*
X140874127Y-129695056D01*
X140807688Y-129761495D01*
X140639701Y-130012905D01*
X140523989Y-130292257D01*
X140465000Y-130588816D01*
X140465000Y-130891184D01*
X140523989Y-131187743D01*
X140639701Y-131467095D01*
X140807688Y-131718505D01*
X141021495Y-131932312D01*
X141272905Y-132100299D01*
X141552257Y-132216011D01*
X141848816Y-132275000D01*
X142151184Y-132275000D01*
X142447743Y-132216011D01*
X142727095Y-132100299D01*
X142978505Y-131932312D01*
X143192312Y-131718505D01*
X143360299Y-131467095D01*
X143476011Y-131187743D01*
X143535000Y-130891184D01*
X143535000Y-130588816D01*
X143476011Y-130292257D01*
X143360299Y-130012905D01*
X143192312Y-129761495D01*
X143125873Y-129695056D01*
X143144180Y-129689502D01*
X143254494Y-129630537D01*
X143351185Y-129551185D01*
X143430537Y-129454494D01*
X143489502Y-129344180D01*
X143525812Y-129224482D01*
X143538072Y-129100000D01*
X143535000Y-128485750D01*
X143376250Y-128327000D01*
X142127000Y-128327000D01*
X142127000Y-128347000D01*
X141873000Y-128347000D01*
X141873000Y-128327000D01*
X140623750Y-128327000D01*
X140465000Y-128485750D01*
X140461928Y-129100000D01*
X138149910Y-129100000D01*
X137956654Y-128633440D01*
X137640926Y-128160920D01*
X137239080Y-127759074D01*
X136766560Y-127443346D01*
X136420492Y-127300000D01*
X140461928Y-127300000D01*
X140465000Y-127914250D01*
X140623750Y-128073000D01*
X141873000Y-128073000D01*
X141873000Y-126823750D01*
X142127000Y-126823750D01*
X142127000Y-128073000D01*
X143376250Y-128073000D01*
X143535000Y-127914250D01*
X143538072Y-127300000D01*
X143525812Y-127175518D01*
X143489502Y-127055820D01*
X143430537Y-126945506D01*
X143351185Y-126848815D01*
X143254494Y-126769463D01*
X143144180Y-126710498D01*
X143024482Y-126674188D01*
X142900000Y-126661928D01*
X142285750Y-126665000D01*
X142127000Y-126823750D01*
X141873000Y-126823750D01*
X141714250Y-126665000D01*
X141100000Y-126661928D01*
X140975518Y-126674188D01*
X140855820Y-126710498D01*
X140745506Y-126769463D01*
X140648815Y-126848815D01*
X140569463Y-126945506D01*
X140510498Y-127055820D01*
X140474188Y-127175518D01*
X140461928Y-127300000D01*
X136420492Y-127300000D01*
X136241523Y-127225869D01*
X135684148Y-127115000D01*
X135115852Y-127115000D01*
X134558477Y-127225869D01*
X134033440Y-127443346D01*
X133560920Y-127759074D01*
X133159074Y-128160920D01*
X132843346Y-128633440D01*
X132625869Y-129158477D01*
X132515000Y-129715852D01*
X127687854Y-129715852D01*
X126652700Y-128680699D01*
X126652700Y-125332706D01*
X126660920Y-125340926D01*
X127133440Y-125656654D01*
X127658477Y-125874131D01*
X128215852Y-125985000D01*
X128784148Y-125985000D01*
X129341523Y-125874131D01*
X129866560Y-125656654D01*
X130339080Y-125340926D01*
X130740926Y-124939080D01*
X131056654Y-124466560D01*
X131274131Y-123941523D01*
X131385000Y-123384148D01*
X131385000Y-122815852D01*
X131274131Y-122258477D01*
X131056654Y-121733440D01*
X130740926Y-121260920D01*
X130339080Y-120859074D01*
X129866560Y-120543346D01*
X129341523Y-120325869D01*
X128784148Y-120215000D01*
X128215852Y-120215000D01*
X127658477Y-120325869D01*
X127133440Y-120543346D01*
X126660920Y-120859074D01*
X126652700Y-120867294D01*
X126652700Y-120230801D01*
X127346403Y-119537099D01*
X127375401Y-119513301D01*
X127401732Y-119481217D01*
X127470374Y-119397577D01*
X127540946Y-119265547D01*
X127570840Y-119166997D01*
X127584403Y-119122286D01*
X127595400Y-119010633D01*
X127595400Y-119010624D01*
X127599076Y-118973301D01*
X127595400Y-118935978D01*
X127595400Y-116858665D01*
X131065000Y-116858665D01*
X131065000Y-117141335D01*
X131120147Y-117418574D01*
X131228320Y-117679727D01*
X131385363Y-117914759D01*
X131585241Y-118114637D01*
X131820273Y-118271680D01*
X132081426Y-118379853D01*
X132358665Y-118435000D01*
X132641335Y-118435000D01*
X132918574Y-118379853D01*
X133179727Y-118271680D01*
X133414759Y-118114637D01*
X133614637Y-117914759D01*
X133771680Y-117679727D01*
X133879853Y-117418574D01*
X133935000Y-117141335D01*
X133935000Y-116858665D01*
X133879853Y-116581426D01*
X133771680Y-116320273D01*
X133614637Y-116085241D01*
X133414759Y-115885363D01*
X133179727Y-115728320D01*
X132918574Y-115620147D01*
X132641335Y-115565000D01*
X132358665Y-115565000D01*
X132081426Y-115620147D01*
X131820273Y-115728320D01*
X131585241Y-115885363D01*
X131385363Y-116085241D01*
X131228320Y-116320273D01*
X131120147Y-116581426D01*
X131065000Y-116858665D01*
X127595400Y-116858665D01*
X127595400Y-110615852D01*
X128615000Y-110615852D01*
X128615000Y-111184148D01*
X128725869Y-111741523D01*
X128943346Y-112266560D01*
X129259074Y-112739080D01*
X129660920Y-113140926D01*
X130133440Y-113456654D01*
X130658477Y-113674131D01*
X131215852Y-113785000D01*
X131784148Y-113785000D01*
X132341523Y-113674131D01*
X132866560Y-113456654D01*
X133339080Y-113140926D01*
X133740926Y-112739080D01*
X134056654Y-112266560D01*
X134274131Y-111741523D01*
X134385000Y-111184148D01*
X134385000Y-110615852D01*
X134274131Y-110058477D01*
X134056654Y-109533440D01*
X133740926Y-109060920D01*
X133339080Y-108659074D01*
X132866560Y-108343346D01*
X132341523Y-108125869D01*
X131784148Y-108015000D01*
X131215852Y-108015000D01*
X130658477Y-108125869D01*
X130133440Y-108343346D01*
X129660920Y-108659074D01*
X129259074Y-109060920D01*
X128943346Y-109533440D01*
X128725869Y-110058477D01*
X128615000Y-110615852D01*
X127595400Y-110615852D01*
X127595400Y-104715852D01*
X132515000Y-104715852D01*
X132515000Y-105284148D01*
X132625869Y-105841523D01*
X132843346Y-106366560D01*
X133159074Y-106839080D01*
X133560920Y-107240926D01*
X134033440Y-107556654D01*
X134558477Y-107774131D01*
X135115852Y-107885000D01*
X135684148Y-107885000D01*
X136241523Y-107774131D01*
X136766560Y-107556654D01*
X137239080Y-107240926D01*
X137640926Y-106839080D01*
X137956654Y-106366560D01*
X138174131Y-105841523D01*
X138285000Y-105284148D01*
X138285000Y-104715852D01*
X138174131Y-104158477D01*
X138149910Y-104100000D01*
X140461928Y-104100000D01*
X140474188Y-104224482D01*
X140510498Y-104344180D01*
X140569463Y-104454494D01*
X140648815Y-104551185D01*
X140745506Y-104630537D01*
X140855820Y-104689502D01*
X140874127Y-104695056D01*
X140807688Y-104761495D01*
X140639701Y-105012905D01*
X140523989Y-105292257D01*
X140465000Y-105588816D01*
X140465000Y-105891184D01*
X140523989Y-106187743D01*
X140639701Y-106467095D01*
X140807688Y-106718505D01*
X141021495Y-106932312D01*
X141272905Y-107100299D01*
X141552257Y-107216011D01*
X141848816Y-107275000D01*
X142151184Y-107275000D01*
X142447743Y-107216011D01*
X142727095Y-107100299D01*
X142978505Y-106932312D01*
X143192312Y-106718505D01*
X143360299Y-106467095D01*
X143476011Y-106187743D01*
X143535000Y-105891184D01*
X143535000Y-105588816D01*
X143476011Y-105292257D01*
X143360299Y-105012905D01*
X143192312Y-104761495D01*
X143125873Y-104695056D01*
X143144180Y-104689502D01*
X143254494Y-104630537D01*
X143351185Y-104551185D01*
X143430537Y-104454494D01*
X143489502Y-104344180D01*
X143525812Y-104224482D01*
X143538072Y-104100000D01*
X143535000Y-103485750D01*
X143376250Y-103327000D01*
X142127000Y-103327000D01*
X142127000Y-103347000D01*
X141873000Y-103347000D01*
X141873000Y-103327000D01*
X140623750Y-103327000D01*
X140465000Y-103485750D01*
X140461928Y-104100000D01*
X138149910Y-104100000D01*
X137956654Y-103633440D01*
X137640926Y-103160920D01*
X137239080Y-102759074D01*
X136766560Y-102443346D01*
X136420492Y-102300000D01*
X140461928Y-102300000D01*
X140465000Y-102914250D01*
X140623750Y-103073000D01*
X141873000Y-103073000D01*
X141873000Y-101823750D01*
X142127000Y-101823750D01*
X142127000Y-103073000D01*
X143376250Y-103073000D01*
X143535000Y-102914250D01*
X143538072Y-102300000D01*
X143525812Y-102175518D01*
X143489502Y-102055820D01*
X143430537Y-101945506D01*
X143351185Y-101848815D01*
X143254494Y-101769463D01*
X143144180Y-101710498D01*
X143024482Y-101674188D01*
X142900000Y-101661928D01*
X142285750Y-101665000D01*
X142127000Y-101823750D01*
X141873000Y-101823750D01*
X141714250Y-101665000D01*
X141100000Y-101661928D01*
X140975518Y-101674188D01*
X140855820Y-101710498D01*
X140745506Y-101769463D01*
X140648815Y-101848815D01*
X140569463Y-101945506D01*
X140510498Y-102055820D01*
X140474188Y-102175518D01*
X140461928Y-102300000D01*
X136420492Y-102300000D01*
X136241523Y-102225869D01*
X135684148Y-102115000D01*
X135115852Y-102115000D01*
X134558477Y-102225869D01*
X134033440Y-102443346D01*
X133560920Y-102759074D01*
X133159074Y-103160920D01*
X132843346Y-103633440D01*
X132625869Y-104158477D01*
X132515000Y-104715852D01*
X127595400Y-104715852D01*
X127595400Y-101583233D01*
X127599077Y-101545900D01*
X127584403Y-101396914D01*
X127540946Y-101253653D01*
X127470374Y-101121624D01*
X127399199Y-101034897D01*
X127375401Y-101005899D01*
X127346404Y-100982102D01*
X126794449Y-100430147D01*
X127133440Y-100656654D01*
X127658477Y-100874131D01*
X128215852Y-100985000D01*
X128784148Y-100985000D01*
X129341523Y-100874131D01*
X129866560Y-100656654D01*
X130339080Y-100340926D01*
X130740926Y-99939080D01*
X131056654Y-99466560D01*
X131274131Y-98941523D01*
X131385000Y-98384148D01*
X131385000Y-97815852D01*
X131274131Y-97258477D01*
X131056654Y-96733440D01*
X130740926Y-96260920D01*
X130339080Y-95859074D01*
X129866560Y-95543346D01*
X129341523Y-95325869D01*
X129260000Y-95309653D01*
X129260000Y-90858665D01*
X131085000Y-90858665D01*
X131085000Y-91141335D01*
X131140147Y-91418574D01*
X131248320Y-91679727D01*
X131405363Y-91914759D01*
X131605241Y-92114637D01*
X131840273Y-92271680D01*
X132101426Y-92379853D01*
X132378665Y-92435000D01*
X132661335Y-92435000D01*
X132938574Y-92379853D01*
X133199727Y-92271680D01*
X133434759Y-92114637D01*
X133634637Y-91914759D01*
X133791680Y-91679727D01*
X133899853Y-91418574D01*
X133955000Y-91141335D01*
X133955000Y-90858665D01*
X133899853Y-90581426D01*
X133791680Y-90320273D01*
X133634637Y-90085241D01*
X133434759Y-89885363D01*
X133199727Y-89728320D01*
X132938574Y-89620147D01*
X132661335Y-89565000D01*
X132378665Y-89565000D01*
X132101426Y-89620147D01*
X131840273Y-89728320D01*
X131605241Y-89885363D01*
X131405363Y-90085241D01*
X131248320Y-90320273D01*
X131140147Y-90581426D01*
X131085000Y-90858665D01*
X129260000Y-90858665D01*
X129260000Y-87740006D01*
X129660920Y-88140926D01*
X130133440Y-88456654D01*
X130658477Y-88674131D01*
X131215852Y-88785000D01*
X131784148Y-88785000D01*
X132341523Y-88674131D01*
X132866560Y-88456654D01*
X133339080Y-88140926D01*
X133740926Y-87739080D01*
X134056654Y-87266560D01*
X134274131Y-86741523D01*
X134385000Y-86184148D01*
X134385000Y-85615852D01*
X134274131Y-85058477D01*
X134056654Y-84533440D01*
X133740926Y-84060920D01*
X133339080Y-83659074D01*
X132866560Y-83343346D01*
X132341523Y-83125869D01*
X131784148Y-83015000D01*
X131543302Y-83015000D01*
X132982894Y-81575408D01*
X133159074Y-81839080D01*
X133560920Y-82240926D01*
X134033440Y-82556654D01*
X134558477Y-82774131D01*
X135115852Y-82885000D01*
X135684148Y-82885000D01*
X136241523Y-82774131D01*
X136766560Y-82556654D01*
X137239080Y-82240926D01*
X137640926Y-81839080D01*
X137956654Y-81366560D01*
X138174131Y-80841523D01*
X138285000Y-80284148D01*
X138285000Y-79715852D01*
X138174131Y-79158477D01*
X138149910Y-79100000D01*
X140461928Y-79100000D01*
X140474188Y-79224482D01*
X140510498Y-79344180D01*
X140569463Y-79454494D01*
X140648815Y-79551185D01*
X140745506Y-79630537D01*
X140855820Y-79689502D01*
X140874127Y-79695056D01*
X140807688Y-79761495D01*
X140639701Y-80012905D01*
X140523989Y-80292257D01*
X140465000Y-80588816D01*
X140465000Y-80891184D01*
X140523989Y-81187743D01*
X140639701Y-81467095D01*
X140807688Y-81718505D01*
X141021495Y-81932312D01*
X141272905Y-82100299D01*
X141552257Y-82216011D01*
X141848816Y-82275000D01*
X142151184Y-82275000D01*
X142447743Y-82216011D01*
X142727095Y-82100299D01*
X142978505Y-81932312D01*
X143192312Y-81718505D01*
X143360299Y-81467095D01*
X143476011Y-81187743D01*
X143535000Y-80891184D01*
X143535000Y-80588816D01*
X143476011Y-80292257D01*
X143360299Y-80012905D01*
X143192312Y-79761495D01*
X143125873Y-79695056D01*
X143144180Y-79689502D01*
X143254494Y-79630537D01*
X143351185Y-79551185D01*
X143430537Y-79454494D01*
X143489502Y-79344180D01*
X143525812Y-79224482D01*
X143538072Y-79100000D01*
X143535000Y-78485750D01*
X143376250Y-78327000D01*
X142127000Y-78327000D01*
X142127000Y-78347000D01*
X141873000Y-78347000D01*
X141873000Y-78327000D01*
X140623750Y-78327000D01*
X140465000Y-78485750D01*
X140461928Y-79100000D01*
X138149910Y-79100000D01*
X137956654Y-78633440D01*
X137640926Y-78160920D01*
X137239080Y-77759074D01*
X136766560Y-77443346D01*
X136420492Y-77300000D01*
X140461928Y-77300000D01*
X140465000Y-77914250D01*
X140623750Y-78073000D01*
X141873000Y-78073000D01*
X141873000Y-76823750D01*
X142127000Y-76823750D01*
X142127000Y-78073000D01*
X143376250Y-78073000D01*
X143535000Y-77914250D01*
X143538072Y-77300000D01*
X143525812Y-77175518D01*
X143489502Y-77055820D01*
X143430537Y-76945506D01*
X143351185Y-76848815D01*
X143254494Y-76769463D01*
X143144180Y-76710498D01*
X143024482Y-76674188D01*
X142900000Y-76661928D01*
X142285750Y-76665000D01*
X142127000Y-76823750D01*
X141873000Y-76823750D01*
X141714250Y-76665000D01*
X141100000Y-76661928D01*
X140975518Y-76674188D01*
X140855820Y-76710498D01*
X140745506Y-76769463D01*
X140648815Y-76848815D01*
X140569463Y-76945506D01*
X140510498Y-77055820D01*
X140474188Y-77175518D01*
X140461928Y-77300000D01*
X136420492Y-77300000D01*
X136241523Y-77225869D01*
X135684148Y-77115000D01*
X135115852Y-77115000D01*
X134558477Y-77225869D01*
X134033440Y-77443346D01*
X133584600Y-77743252D01*
X133584600Y-70885501D01*
X135231008Y-69239095D01*
X135260001Y-69215301D01*
X135283795Y-69186308D01*
X135283799Y-69186304D01*
X135354973Y-69099577D01*
X135354974Y-69099576D01*
X135425546Y-68967547D01*
X135469003Y-68824286D01*
X135473089Y-68782796D01*
X135666632Y-68653475D01*
X135873475Y-68446632D01*
X135990000Y-68272240D01*
X136106525Y-68446632D01*
X136313368Y-68653475D01*
X136556589Y-68815990D01*
X136826842Y-68927932D01*
X137113740Y-68985000D01*
X137406260Y-68985000D01*
X137693158Y-68927932D01*
X137963411Y-68815990D01*
X138206632Y-68653475D01*
X138413475Y-68446632D01*
X138530000Y-68272240D01*
X138646525Y-68446632D01*
X138853368Y-68653475D01*
X139096589Y-68815990D01*
X139366842Y-68927932D01*
X139653740Y-68985000D01*
X139946260Y-68985000D01*
X140233158Y-68927932D01*
X140503411Y-68815990D01*
X140746632Y-68653475D01*
X140953475Y-68446632D01*
X141070000Y-68272240D01*
X141186525Y-68446632D01*
X141393368Y-68653475D01*
X141636589Y-68815990D01*
X141906842Y-68927932D01*
X142193740Y-68985000D01*
X142486260Y-68985000D01*
X142773158Y-68927932D01*
X143043411Y-68815990D01*
X143286632Y-68653475D01*
X143493475Y-68446632D01*
X143610000Y-68272240D01*
X143726525Y-68446632D01*
X143933368Y-68653475D01*
X143968304Y-68676819D01*
X143962997Y-68694315D01*
X143952000Y-68805968D01*
X143952000Y-68805978D01*
X143948324Y-68843300D01*
X143952000Y-68880622D01*
X143952000Y-90042604D01*
X143794759Y-89885363D01*
X143559727Y-89728320D01*
X143298574Y-89620147D01*
X143021335Y-89565000D01*
X142738665Y-89565000D01*
X142461426Y-89620147D01*
X142200273Y-89728320D01*
X141965241Y-89885363D01*
X141765363Y-90085241D01*
X141608320Y-90320273D01*
X141510000Y-90557639D01*
X141411680Y-90320273D01*
X141254637Y-90085241D01*
X141054759Y-89885363D01*
X140819727Y-89728320D01*
X140558574Y-89620147D01*
X140281335Y-89565000D01*
X139998665Y-89565000D01*
X139721426Y-89620147D01*
X139460273Y-89728320D01*
X139225241Y-89885363D01*
X139025363Y-90085241D01*
X138868320Y-90320273D01*
X138760147Y-90581426D01*
X138705000Y-90858665D01*
X138705000Y-91141335D01*
X138760147Y-91418574D01*
X138868320Y-91679727D01*
X139025363Y-91914759D01*
X139225241Y-92114637D01*
X139460273Y-92271680D01*
X139721426Y-92379853D01*
X139998665Y-92435000D01*
X140281335Y-92435000D01*
X140558574Y-92379853D01*
X140819727Y-92271680D01*
X141054759Y-92114637D01*
X141254637Y-91914759D01*
X141411680Y-91679727D01*
X141510000Y-91442361D01*
X141608320Y-91679727D01*
X141765363Y-91914759D01*
X141965241Y-92114637D01*
X142200273Y-92271680D01*
X142461426Y-92379853D01*
X142738665Y-92435000D01*
X143021335Y-92435000D01*
X143298574Y-92379853D01*
X143559727Y-92271680D01*
X143794759Y-92114637D01*
X143952000Y-91957396D01*
X143952001Y-114853197D01*
X143203886Y-115601312D01*
X143021335Y-115565000D01*
X142738665Y-115565000D01*
X142461426Y-115620147D01*
X142200273Y-115728320D01*
X141965241Y-115885363D01*
X141765363Y-116085241D01*
X141661957Y-116240000D01*
X141338043Y-116240000D01*
X141234637Y-116085241D01*
X141034759Y-115885363D01*
X140799727Y-115728320D01*
X140538574Y-115620147D01*
X140261335Y-115565000D01*
X139978665Y-115565000D01*
X139701426Y-115620147D01*
X139440273Y-115728320D01*
X139205241Y-115885363D01*
X139005363Y-116085241D01*
X138848320Y-116320273D01*
X138740147Y-116581426D01*
X138685000Y-116858665D01*
X138685000Y-117141335D01*
X138740147Y-117418574D01*
X138848320Y-117679727D01*
X139005363Y-117914759D01*
X139205241Y-118114637D01*
X139440273Y-118271680D01*
X139701426Y-118379853D01*
X139978665Y-118435000D01*
X140261335Y-118435000D01*
X140538574Y-118379853D01*
X140799727Y-118271680D01*
X141034759Y-118114637D01*
X141234637Y-117914759D01*
X141338043Y-117760000D01*
X141661957Y-117760000D01*
X141765363Y-117914759D01*
X141965241Y-118114637D01*
X142200273Y-118271680D01*
X142461426Y-118379853D01*
X142738665Y-118435000D01*
X143021335Y-118435000D01*
X143298574Y-118379853D01*
X143559727Y-118271680D01*
X143794759Y-118114637D01*
X143994637Y-117914759D01*
X144151680Y-117679727D01*
X144259853Y-117418574D01*
X144315000Y-117141335D01*
X144315000Y-116858665D01*
X144278688Y-116676114D01*
X144587000Y-116367801D01*
X144587001Y-164218197D01*
X143203886Y-165601312D01*
X143021335Y-165565000D01*
X142738665Y-165565000D01*
X142461426Y-165620147D01*
X142200273Y-165728320D01*
X141965241Y-165885363D01*
X141765363Y-166085241D01*
X141661957Y-166240000D01*
X141338043Y-166240000D01*
X141234637Y-166085241D01*
X141034759Y-165885363D01*
X140799727Y-165728320D01*
X140538574Y-165620147D01*
X140261335Y-165565000D01*
X139978665Y-165565000D01*
X139701426Y-165620147D01*
X139440273Y-165728320D01*
X139205241Y-165885363D01*
X139005363Y-166085241D01*
X138848320Y-166320273D01*
X138740147Y-166581426D01*
X138685000Y-166858665D01*
X138685000Y-167141335D01*
X138740147Y-167418574D01*
X138848320Y-167679727D01*
X139005363Y-167914759D01*
X139205241Y-168114637D01*
X139440273Y-168271680D01*
X139701426Y-168379853D01*
X139978665Y-168435000D01*
X140261335Y-168435000D01*
X140538574Y-168379853D01*
X140799727Y-168271680D01*
X141034759Y-168114637D01*
X141234637Y-167914759D01*
X141338043Y-167760000D01*
X141661957Y-167760000D01*
X141765363Y-167914759D01*
X141965241Y-168114637D01*
X142200273Y-168271680D01*
X142461426Y-168379853D01*
X142738665Y-168435000D01*
X143021335Y-168435000D01*
X143298574Y-168379853D01*
X143559727Y-168271680D01*
X143794759Y-168114637D01*
X143994637Y-167914759D01*
X144151680Y-167679727D01*
X144259853Y-167418574D01*
X144315000Y-167141335D01*
X144315000Y-166858665D01*
X149065000Y-166858665D01*
X149065000Y-167141335D01*
X149120147Y-167418574D01*
X149228320Y-167679727D01*
X149385363Y-167914759D01*
X149585241Y-168114637D01*
X149820273Y-168271680D01*
X150081426Y-168379853D01*
X150358665Y-168435000D01*
X150641335Y-168435000D01*
X150918574Y-168379853D01*
X151179727Y-168271680D01*
X151414759Y-168114637D01*
X151614637Y-167914759D01*
X151771680Y-167679727D01*
X151879853Y-167418574D01*
X151935000Y-167141335D01*
X151935000Y-166858665D01*
X153065000Y-166858665D01*
X153065000Y-167141335D01*
X153120147Y-167418574D01*
X153228320Y-167679727D01*
X153385363Y-167914759D01*
X153585241Y-168114637D01*
X153740001Y-168218044D01*
X153740000Y-171572677D01*
X153736324Y-171610000D01*
X153740000Y-171647322D01*
X153740000Y-171647332D01*
X153750997Y-171758985D01*
X153778515Y-171849701D01*
X153794454Y-171902246D01*
X153865026Y-172034276D01*
X153904871Y-172082826D01*
X153928078Y-172111105D01*
X153807688Y-172231495D01*
X153639701Y-172482905D01*
X153523989Y-172762257D01*
X153465000Y-173058816D01*
X153465000Y-173361184D01*
X153523989Y-173657743D01*
X153639701Y-173937095D01*
X153807688Y-174188505D01*
X153874127Y-174254944D01*
X153855820Y-174260498D01*
X153745506Y-174319463D01*
X153648815Y-174398815D01*
X153569463Y-174495506D01*
X153510498Y-174605820D01*
X153474188Y-174725518D01*
X153461928Y-174850000D01*
X153465000Y-175464250D01*
X153623750Y-175623000D01*
X154873000Y-175623000D01*
X154873000Y-175603000D01*
X155127000Y-175603000D01*
X155127000Y-175623000D01*
X156376250Y-175623000D01*
X156535000Y-175464250D01*
X156538072Y-174850000D01*
X156525812Y-174725518D01*
X156489502Y-174605820D01*
X156430537Y-174495506D01*
X156351185Y-174398815D01*
X156254494Y-174319463D01*
X156144180Y-174260498D01*
X156125873Y-174254944D01*
X156192312Y-174188505D01*
X156360299Y-173937095D01*
X156476011Y-173657743D01*
X156535000Y-173361184D01*
X156535000Y-173058816D01*
X156476011Y-172762257D01*
X156360299Y-172482905D01*
X156192312Y-172231495D01*
X155978505Y-172017688D01*
X155727095Y-171849701D01*
X155712736Y-171843753D01*
X155704546Y-171816753D01*
X155633974Y-171684724D01*
X155603287Y-171647332D01*
X155539001Y-171568999D01*
X155509997Y-171545196D01*
X155260000Y-171295199D01*
X155260000Y-168218043D01*
X155414759Y-168114637D01*
X155614637Y-167914759D01*
X155771680Y-167679727D01*
X155879853Y-167418574D01*
X155935000Y-167141335D01*
X155935000Y-166858665D01*
X160685000Y-166858665D01*
X160685000Y-167141335D01*
X160740147Y-167418574D01*
X160848320Y-167679727D01*
X161005363Y-167914759D01*
X161205241Y-168114637D01*
X161440273Y-168271680D01*
X161701426Y-168379853D01*
X161978665Y-168435000D01*
X162261335Y-168435000D01*
X162538574Y-168379853D01*
X162799727Y-168271680D01*
X163034759Y-168114637D01*
X163234637Y-167914759D01*
X163391680Y-167679727D01*
X163499853Y-167418574D01*
X163555000Y-167141335D01*
X163555000Y-166858665D01*
X163499853Y-166581426D01*
X163391680Y-166320273D01*
X163234637Y-166085241D01*
X163034759Y-165885363D01*
X162799727Y-165728320D01*
X162538574Y-165620147D01*
X162261335Y-165565000D01*
X161978665Y-165565000D01*
X161701426Y-165620147D01*
X161440273Y-165728320D01*
X161205241Y-165885363D01*
X161005363Y-166085241D01*
X160848320Y-166320273D01*
X160740147Y-166581426D01*
X160685000Y-166858665D01*
X155935000Y-166858665D01*
X155879853Y-166581426D01*
X155771680Y-166320273D01*
X155614637Y-166085241D01*
X155414759Y-165885363D01*
X155179727Y-165728320D01*
X154918574Y-165620147D01*
X154641335Y-165565000D01*
X154358665Y-165565000D01*
X154081426Y-165620147D01*
X153820273Y-165728320D01*
X153585241Y-165885363D01*
X153385363Y-166085241D01*
X153228320Y-166320273D01*
X153120147Y-166581426D01*
X153065000Y-166858665D01*
X151935000Y-166858665D01*
X151898688Y-166676113D01*
X155011003Y-163563799D01*
X155040001Y-163540001D01*
X155134974Y-163424276D01*
X155205546Y-163292247D01*
X155249003Y-163148986D01*
X155260000Y-163037333D01*
X155260000Y-163037324D01*
X155263676Y-163000001D01*
X155260000Y-162962678D01*
X155260000Y-162740006D01*
X155660920Y-163140926D01*
X156133440Y-163456654D01*
X156658477Y-163674131D01*
X157215852Y-163785000D01*
X157784148Y-163785000D01*
X158341523Y-163674131D01*
X158866560Y-163456654D01*
X159339080Y-163140926D01*
X159740926Y-162739080D01*
X160056654Y-162266560D01*
X160274131Y-161741523D01*
X160385000Y-161184148D01*
X160385000Y-160615852D01*
X160274131Y-160058477D01*
X160056654Y-159533440D01*
X159740926Y-159060920D01*
X159339080Y-158659074D01*
X158866560Y-158343346D01*
X158341523Y-158125869D01*
X157784148Y-158015000D01*
X157215852Y-158015000D01*
X156658477Y-158125869D01*
X156133440Y-158343346D01*
X155660920Y-158659074D01*
X155260000Y-159059994D01*
X155260000Y-154715852D01*
X158515000Y-154715852D01*
X158515000Y-155284148D01*
X158625869Y-155841523D01*
X158843346Y-156366560D01*
X159159074Y-156839080D01*
X159560920Y-157240926D01*
X160033440Y-157556654D01*
X160558477Y-157774131D01*
X161115852Y-157885000D01*
X161684148Y-157885000D01*
X162241523Y-157774131D01*
X162766560Y-157556654D01*
X163239080Y-157240926D01*
X163640926Y-156839080D01*
X163956654Y-156366560D01*
X164174131Y-155841523D01*
X164285000Y-155284148D01*
X164285000Y-154715852D01*
X164174131Y-154158477D01*
X163956654Y-153633440D01*
X163640926Y-153160920D01*
X163239080Y-152759074D01*
X162766560Y-152443346D01*
X162241523Y-152225869D01*
X161684148Y-152115000D01*
X161115852Y-152115000D01*
X160558477Y-152225869D01*
X160033440Y-152443346D01*
X159560920Y-152759074D01*
X159159074Y-153160920D01*
X158843346Y-153633440D01*
X158625869Y-154158477D01*
X158515000Y-154715852D01*
X155260000Y-154715852D01*
X155260000Y-150890347D01*
X155341523Y-150874131D01*
X155866560Y-150656654D01*
X156339080Y-150340926D01*
X156740926Y-149939080D01*
X157056654Y-149466560D01*
X157274131Y-148941523D01*
X157385000Y-148384148D01*
X157385000Y-147815852D01*
X157274131Y-147258477D01*
X157056654Y-146733440D01*
X156740926Y-146260920D01*
X156339080Y-145859074D01*
X155866560Y-145543346D01*
X155341523Y-145325869D01*
X154784148Y-145215000D01*
X154215852Y-145215000D01*
X153658477Y-145325869D01*
X153133440Y-145543346D01*
X152660920Y-145859074D01*
X152259074Y-146260920D01*
X151943346Y-146733440D01*
X151725869Y-147258477D01*
X151615000Y-147815852D01*
X151615000Y-148384148D01*
X151725869Y-148941523D01*
X151943346Y-149466560D01*
X152259074Y-149939080D01*
X152660920Y-150340926D01*
X153133440Y-150656654D01*
X153658477Y-150874131D01*
X153740000Y-150890347D01*
X153740001Y-162685197D01*
X150823887Y-165601312D01*
X150641335Y-165565000D01*
X150358665Y-165565000D01*
X150081426Y-165620147D01*
X149820273Y-165728320D01*
X149585241Y-165885363D01*
X149385363Y-166085241D01*
X149228320Y-166320273D01*
X149120147Y-166581426D01*
X149065000Y-166858665D01*
X144315000Y-166858665D01*
X144278688Y-166676114D01*
X145858003Y-165096799D01*
X145887001Y-165073001D01*
X145981974Y-164957276D01*
X146052546Y-164825247D01*
X146096003Y-164681986D01*
X146107000Y-164570333D01*
X146107000Y-164570323D01*
X146110676Y-164533000D01*
X146107000Y-164495677D01*
X146107000Y-161490000D01*
X147371928Y-161490000D01*
X147384188Y-161614482D01*
X147420498Y-161734180D01*
X147479463Y-161844494D01*
X147558815Y-161941185D01*
X147655506Y-162020537D01*
X147765820Y-162079502D01*
X147885518Y-162115812D01*
X148010000Y-162128072D01*
X149974250Y-162125000D01*
X150133000Y-161966250D01*
X150133000Y-159367000D01*
X150387000Y-159367000D01*
X150387000Y-161966250D01*
X150545750Y-162125000D01*
X152510000Y-162128072D01*
X152634482Y-162115812D01*
X152754180Y-162079502D01*
X152864494Y-162020537D01*
X152961185Y-161941185D01*
X153040537Y-161844494D01*
X153099502Y-161734180D01*
X153135812Y-161614482D01*
X153148072Y-161490000D01*
X153145000Y-159525750D01*
X152986250Y-159367000D01*
X150387000Y-159367000D01*
X150133000Y-159367000D01*
X147533750Y-159367000D01*
X147375000Y-159525750D01*
X147371928Y-161490000D01*
X146107000Y-161490000D01*
X146107000Y-156990000D01*
X147371928Y-156990000D01*
X147375000Y-158954250D01*
X147533750Y-159113000D01*
X150133000Y-159113000D01*
X150133000Y-156513750D01*
X150387000Y-156513750D01*
X150387000Y-159113000D01*
X152986250Y-159113000D01*
X153145000Y-158954250D01*
X153148072Y-156990000D01*
X153135812Y-156865518D01*
X153099502Y-156745820D01*
X153040537Y-156635506D01*
X152961185Y-156538815D01*
X152864494Y-156459463D01*
X152754180Y-156400498D01*
X152634482Y-156364188D01*
X152510000Y-156351928D01*
X150545750Y-156355000D01*
X150387000Y-156513750D01*
X150133000Y-156513750D01*
X149974250Y-156355000D01*
X148010000Y-156351928D01*
X147885518Y-156364188D01*
X147765820Y-156400498D01*
X147655506Y-156459463D01*
X147558815Y-156538815D01*
X147479463Y-156635506D01*
X147420498Y-156745820D01*
X147384188Y-156865518D01*
X147371928Y-156990000D01*
X146107000Y-156990000D01*
X146107000Y-153461825D01*
X146359074Y-153839080D01*
X146760920Y-154240926D01*
X147233440Y-154556654D01*
X147758477Y-154774131D01*
X148315852Y-154885000D01*
X148884148Y-154885000D01*
X149441523Y-154774131D01*
X149966560Y-154556654D01*
X150439080Y-154240926D01*
X150840926Y-153839080D01*
X151156654Y-153366560D01*
X151374131Y-152841523D01*
X151485000Y-152284148D01*
X151485000Y-151715852D01*
X151374131Y-151158477D01*
X151156654Y-150633440D01*
X150840926Y-150160920D01*
X150439080Y-149759074D01*
X149966560Y-149443346D01*
X149441523Y-149225869D01*
X148884148Y-149115000D01*
X148315852Y-149115000D01*
X147758477Y-149225869D01*
X147233440Y-149443346D01*
X146760920Y-149759074D01*
X146359074Y-150160920D01*
X146107000Y-150538175D01*
X146107000Y-141858665D01*
X149065000Y-141858665D01*
X149065000Y-142141335D01*
X149120147Y-142418574D01*
X149228320Y-142679727D01*
X149385363Y-142914759D01*
X149585241Y-143114637D01*
X149820273Y-143271680D01*
X150081426Y-143379853D01*
X150358665Y-143435000D01*
X150641335Y-143435000D01*
X150918574Y-143379853D01*
X151179727Y-143271680D01*
X151414759Y-143114637D01*
X151614637Y-142914759D01*
X151771680Y-142679727D01*
X151879853Y-142418574D01*
X151935000Y-142141335D01*
X151935000Y-141858665D01*
X151898688Y-141676113D01*
X155011003Y-138563799D01*
X155040001Y-138540001D01*
X155134974Y-138424276D01*
X155205546Y-138292247D01*
X155249003Y-138148986D01*
X155260000Y-138037333D01*
X155260000Y-138037324D01*
X155263676Y-138000001D01*
X155260000Y-137962678D01*
X155260000Y-137740006D01*
X155660920Y-138140926D01*
X156133440Y-138456654D01*
X156658477Y-138674131D01*
X157215852Y-138785000D01*
X157784148Y-138785000D01*
X158341523Y-138674131D01*
X158866560Y-138456654D01*
X159339080Y-138140926D01*
X159740926Y-137739080D01*
X160056654Y-137266560D01*
X160274131Y-136741523D01*
X160385000Y-136184148D01*
X160385000Y-135615852D01*
X160274131Y-135058477D01*
X160056654Y-134533440D01*
X159740926Y-134060920D01*
X159339080Y-133659074D01*
X158866560Y-133343346D01*
X158341523Y-133125869D01*
X157784148Y-133015000D01*
X157215852Y-133015000D01*
X156658477Y-133125869D01*
X156133440Y-133343346D01*
X155660920Y-133659074D01*
X155260000Y-134059994D01*
X155260000Y-129715852D01*
X158515000Y-129715852D01*
X158515000Y-130284148D01*
X158625869Y-130841523D01*
X158843346Y-131366560D01*
X159159074Y-131839080D01*
X159560920Y-132240926D01*
X160033440Y-132556654D01*
X160558477Y-132774131D01*
X161115852Y-132885000D01*
X161684148Y-132885000D01*
X162241523Y-132774131D01*
X162766560Y-132556654D01*
X163239080Y-132240926D01*
X163640926Y-131839080D01*
X163956654Y-131366560D01*
X164174131Y-130841523D01*
X164285000Y-130284148D01*
X164285000Y-129715852D01*
X164174131Y-129158477D01*
X163956654Y-128633440D01*
X163640926Y-128160920D01*
X163239080Y-127759074D01*
X162766560Y-127443346D01*
X162241523Y-127225869D01*
X161684148Y-127115000D01*
X161115852Y-127115000D01*
X160558477Y-127225869D01*
X160033440Y-127443346D01*
X159560920Y-127759074D01*
X159159074Y-128160920D01*
X158843346Y-128633440D01*
X158625869Y-129158477D01*
X158515000Y-129715852D01*
X155260000Y-129715852D01*
X155260000Y-125890347D01*
X155341523Y-125874131D01*
X155866560Y-125656654D01*
X156339080Y-125340926D01*
X156740926Y-124939080D01*
X157056654Y-124466560D01*
X157274131Y-123941523D01*
X157385000Y-123384148D01*
X157385000Y-122815852D01*
X157274131Y-122258477D01*
X157056654Y-121733440D01*
X156740926Y-121260920D01*
X156339080Y-120859074D01*
X155866560Y-120543346D01*
X155341523Y-120325869D01*
X154784148Y-120215000D01*
X154215852Y-120215000D01*
X153658477Y-120325869D01*
X153133440Y-120543346D01*
X152660920Y-120859074D01*
X152259074Y-121260920D01*
X151943346Y-121733440D01*
X151725869Y-122258477D01*
X151615000Y-122815852D01*
X151615000Y-123384148D01*
X151725869Y-123941523D01*
X151943346Y-124466560D01*
X152259074Y-124939080D01*
X152660920Y-125340926D01*
X153133440Y-125656654D01*
X153658477Y-125874131D01*
X153740000Y-125890347D01*
X153740001Y-137685197D01*
X150823887Y-140601312D01*
X150641335Y-140565000D01*
X150358665Y-140565000D01*
X150081426Y-140620147D01*
X149820273Y-140728320D01*
X149585241Y-140885363D01*
X149385363Y-141085241D01*
X149228320Y-141320273D01*
X149120147Y-141581426D01*
X149065000Y-141858665D01*
X146107000Y-141858665D01*
X146107000Y-136490000D01*
X147371928Y-136490000D01*
X147384188Y-136614482D01*
X147420498Y-136734180D01*
X147479463Y-136844494D01*
X147558815Y-136941185D01*
X147655506Y-137020537D01*
X147765820Y-137079502D01*
X147885518Y-137115812D01*
X148010000Y-137128072D01*
X149974250Y-137125000D01*
X150133000Y-136966250D01*
X150133000Y-134367000D01*
X150387000Y-134367000D01*
X150387000Y-136966250D01*
X150545750Y-137125000D01*
X152510000Y-137128072D01*
X152634482Y-137115812D01*
X152754180Y-137079502D01*
X152864494Y-137020537D01*
X152961185Y-136941185D01*
X153040537Y-136844494D01*
X153099502Y-136734180D01*
X153135812Y-136614482D01*
X153148072Y-136490000D01*
X153145000Y-134525750D01*
X152986250Y-134367000D01*
X150387000Y-134367000D01*
X150133000Y-134367000D01*
X147533750Y-134367000D01*
X147375000Y-134525750D01*
X147371928Y-136490000D01*
X146107000Y-136490000D01*
X146107000Y-131990000D01*
X147371928Y-131990000D01*
X147375000Y-133954250D01*
X147533750Y-134113000D01*
X150133000Y-134113000D01*
X150133000Y-131513750D01*
X150387000Y-131513750D01*
X150387000Y-134113000D01*
X152986250Y-134113000D01*
X153145000Y-133954250D01*
X153148072Y-131990000D01*
X153135812Y-131865518D01*
X153099502Y-131745820D01*
X153040537Y-131635506D01*
X152961185Y-131538815D01*
X152864494Y-131459463D01*
X152754180Y-131400498D01*
X152634482Y-131364188D01*
X152510000Y-131351928D01*
X150545750Y-131355000D01*
X150387000Y-131513750D01*
X150133000Y-131513750D01*
X149974250Y-131355000D01*
X148010000Y-131351928D01*
X147885518Y-131364188D01*
X147765820Y-131400498D01*
X147655506Y-131459463D01*
X147558815Y-131538815D01*
X147479463Y-131635506D01*
X147420498Y-131745820D01*
X147384188Y-131865518D01*
X147371928Y-131990000D01*
X146107000Y-131990000D01*
X146107000Y-128461825D01*
X146359074Y-128839080D01*
X146760920Y-129240926D01*
X147233440Y-129556654D01*
X147758477Y-129774131D01*
X148315852Y-129885000D01*
X148884148Y-129885000D01*
X149441523Y-129774131D01*
X149966560Y-129556654D01*
X150439080Y-129240926D01*
X150840926Y-128839080D01*
X151156654Y-128366560D01*
X151374131Y-127841523D01*
X151485000Y-127284148D01*
X151485000Y-126715852D01*
X151374131Y-126158477D01*
X151156654Y-125633440D01*
X150840926Y-125160920D01*
X150439080Y-124759074D01*
X149966560Y-124443346D01*
X149441523Y-124225869D01*
X148884148Y-124115000D01*
X148315852Y-124115000D01*
X147758477Y-124225869D01*
X147233440Y-124443346D01*
X146760920Y-124759074D01*
X146359074Y-125160920D01*
X146107000Y-125538175D01*
X146107000Y-116858665D01*
X149065000Y-116858665D01*
X149065000Y-117141335D01*
X149120147Y-117418574D01*
X149228320Y-117679727D01*
X149385363Y-117914759D01*
X149585241Y-118114637D01*
X149820273Y-118271680D01*
X150081426Y-118379853D01*
X150358665Y-118435000D01*
X150641335Y-118435000D01*
X150918574Y-118379853D01*
X151179727Y-118271680D01*
X151414759Y-118114637D01*
X151614637Y-117914759D01*
X151771680Y-117679727D01*
X151879853Y-117418574D01*
X151935000Y-117141335D01*
X151935000Y-116858665D01*
X151898688Y-116676113D01*
X155011003Y-113563799D01*
X155040001Y-113540001D01*
X155134974Y-113424276D01*
X155205546Y-113292247D01*
X155249003Y-113148986D01*
X155260000Y-113037333D01*
X155260000Y-113037324D01*
X155263676Y-113000001D01*
X155260000Y-112962678D01*
X155260000Y-112740006D01*
X155660920Y-113140926D01*
X156133440Y-113456654D01*
X156658477Y-113674131D01*
X157215852Y-113785000D01*
X157784148Y-113785000D01*
X158341523Y-113674131D01*
X158866560Y-113456654D01*
X159339080Y-113140926D01*
X159740926Y-112739080D01*
X160056654Y-112266560D01*
X160274131Y-111741523D01*
X160385000Y-111184148D01*
X160385000Y-110615852D01*
X160274131Y-110058477D01*
X160056654Y-109533440D01*
X159740926Y-109060920D01*
X159339080Y-108659074D01*
X158866560Y-108343346D01*
X158341523Y-108125869D01*
X157784148Y-108015000D01*
X157215852Y-108015000D01*
X156658477Y-108125869D01*
X156133440Y-108343346D01*
X155660920Y-108659074D01*
X155260000Y-109059994D01*
X155260000Y-104715852D01*
X158515000Y-104715852D01*
X158515000Y-105284148D01*
X158625869Y-105841523D01*
X158843346Y-106366560D01*
X159159074Y-106839080D01*
X159560920Y-107240926D01*
X160033440Y-107556654D01*
X160558477Y-107774131D01*
X161115852Y-107885000D01*
X161684148Y-107885000D01*
X162241523Y-107774131D01*
X162766560Y-107556654D01*
X163239080Y-107240926D01*
X163640926Y-106839080D01*
X163956654Y-106366560D01*
X164174131Y-105841523D01*
X164285000Y-105284148D01*
X164285000Y-104715852D01*
X164174131Y-104158477D01*
X163956654Y-103633440D01*
X163640926Y-103160920D01*
X163239080Y-102759074D01*
X162766560Y-102443346D01*
X162241523Y-102225869D01*
X161684148Y-102115000D01*
X161115852Y-102115000D01*
X160558477Y-102225869D01*
X160033440Y-102443346D01*
X159560920Y-102759074D01*
X159159074Y-103160920D01*
X158843346Y-103633440D01*
X158625869Y-104158477D01*
X158515000Y-104715852D01*
X155260000Y-104715852D01*
X155260000Y-100890347D01*
X155341523Y-100874131D01*
X155866560Y-100656654D01*
X156339080Y-100340926D01*
X156740926Y-99939080D01*
X157056654Y-99466560D01*
X157274131Y-98941523D01*
X157385000Y-98384148D01*
X157385000Y-97815852D01*
X157274131Y-97258477D01*
X157056654Y-96733440D01*
X156740926Y-96260920D01*
X156339080Y-95859074D01*
X155866560Y-95543346D01*
X155341523Y-95325869D01*
X154784148Y-95215000D01*
X154215852Y-95215000D01*
X153658477Y-95325869D01*
X153133440Y-95543346D01*
X152660920Y-95859074D01*
X152259074Y-96260920D01*
X151943346Y-96733440D01*
X151725869Y-97258477D01*
X151615000Y-97815852D01*
X151615000Y-98384148D01*
X151725869Y-98941523D01*
X151943346Y-99466560D01*
X152259074Y-99939080D01*
X152660920Y-100340926D01*
X153133440Y-100656654D01*
X153658477Y-100874131D01*
X153740000Y-100890347D01*
X153740001Y-112685197D01*
X150823887Y-115601312D01*
X150641335Y-115565000D01*
X150358665Y-115565000D01*
X150081426Y-115620147D01*
X149820273Y-115728320D01*
X149585241Y-115885363D01*
X149385363Y-116085241D01*
X149228320Y-116320273D01*
X149120147Y-116581426D01*
X149065000Y-116858665D01*
X146107000Y-116858665D01*
X146107000Y-111490000D01*
X147371928Y-111490000D01*
X147384188Y-111614482D01*
X147420498Y-111734180D01*
X147479463Y-111844494D01*
X147558815Y-111941185D01*
X147655506Y-112020537D01*
X147765820Y-112079502D01*
X147885518Y-112115812D01*
X148010000Y-112128072D01*
X149974250Y-112125000D01*
X150133000Y-111966250D01*
X150133000Y-109367000D01*
X150387000Y-109367000D01*
X150387000Y-111966250D01*
X150545750Y-112125000D01*
X152510000Y-112128072D01*
X152634482Y-112115812D01*
X152754180Y-112079502D01*
X152864494Y-112020537D01*
X152961185Y-111941185D01*
X153040537Y-111844494D01*
X153099502Y-111734180D01*
X153135812Y-111614482D01*
X153148072Y-111490000D01*
X153145000Y-109525750D01*
X152986250Y-109367000D01*
X150387000Y-109367000D01*
X150133000Y-109367000D01*
X147533750Y-109367000D01*
X147375000Y-109525750D01*
X147371928Y-111490000D01*
X146107000Y-111490000D01*
X146107000Y-106990000D01*
X147371928Y-106990000D01*
X147375000Y-108954250D01*
X147533750Y-109113000D01*
X150133000Y-109113000D01*
X150133000Y-106513750D01*
X150387000Y-106513750D01*
X150387000Y-109113000D01*
X152986250Y-109113000D01*
X153145000Y-108954250D01*
X153148072Y-106990000D01*
X153135812Y-106865518D01*
X153099502Y-106745820D01*
X153040537Y-106635506D01*
X152961185Y-106538815D01*
X152864494Y-106459463D01*
X152754180Y-106400498D01*
X152634482Y-106364188D01*
X152510000Y-106351928D01*
X150545750Y-106355000D01*
X150387000Y-106513750D01*
X150133000Y-106513750D01*
X149974250Y-106355000D01*
X148010000Y-106351928D01*
X147885518Y-106364188D01*
X147765820Y-106400498D01*
X147655506Y-106459463D01*
X147558815Y-106538815D01*
X147479463Y-106635506D01*
X147420498Y-106745820D01*
X147384188Y-106865518D01*
X147371928Y-106990000D01*
X146107000Y-106990000D01*
X146107000Y-103461825D01*
X146359074Y-103839080D01*
X146760920Y-104240926D01*
X147233440Y-104556654D01*
X147758477Y-104774131D01*
X148315852Y-104885000D01*
X148884148Y-104885000D01*
X149441523Y-104774131D01*
X149966560Y-104556654D01*
X150439080Y-104240926D01*
X150840926Y-103839080D01*
X151156654Y-103366560D01*
X151374131Y-102841523D01*
X151485000Y-102284148D01*
X151485000Y-101715852D01*
X151374131Y-101158477D01*
X151156654Y-100633440D01*
X150840926Y-100160920D01*
X150439080Y-99759074D01*
X149966560Y-99443346D01*
X149441523Y-99225869D01*
X148884148Y-99115000D01*
X148315852Y-99115000D01*
X147758477Y-99225869D01*
X147233440Y-99443346D01*
X146760920Y-99759074D01*
X146359074Y-100160920D01*
X146107000Y-100538175D01*
X146107000Y-90858665D01*
X149065000Y-90858665D01*
X149065000Y-91141335D01*
X149120147Y-91418574D01*
X149228320Y-91679727D01*
X149385363Y-91914759D01*
X149585241Y-92114637D01*
X149820273Y-92271680D01*
X150081426Y-92379853D01*
X150358665Y-92435000D01*
X150641335Y-92435000D01*
X150918574Y-92379853D01*
X151179727Y-92271680D01*
X151414759Y-92114637D01*
X151614637Y-91914759D01*
X151771680Y-91679727D01*
X151879853Y-91418574D01*
X151935000Y-91141335D01*
X151935000Y-90858665D01*
X151879853Y-90581426D01*
X151771680Y-90320273D01*
X151614637Y-90085241D01*
X151414759Y-89885363D01*
X151179727Y-89728320D01*
X150918574Y-89620147D01*
X150641335Y-89565000D01*
X150358665Y-89565000D01*
X150081426Y-89620147D01*
X149820273Y-89728320D01*
X149585241Y-89885363D01*
X149385363Y-90085241D01*
X149228320Y-90320273D01*
X149120147Y-90581426D01*
X149065000Y-90858665D01*
X146107000Y-90858665D01*
X146107000Y-86490000D01*
X147371928Y-86490000D01*
X147384188Y-86614482D01*
X147420498Y-86734180D01*
X147479463Y-86844494D01*
X147558815Y-86941185D01*
X147655506Y-87020537D01*
X147765820Y-87079502D01*
X147885518Y-87115812D01*
X148010000Y-87128072D01*
X149974250Y-87125000D01*
X150133000Y-86966250D01*
X150133000Y-84367000D01*
X150387000Y-84367000D01*
X150387000Y-86966250D01*
X150545750Y-87125000D01*
X152510000Y-87128072D01*
X152634482Y-87115812D01*
X152754180Y-87079502D01*
X152864494Y-87020537D01*
X152961185Y-86941185D01*
X153040537Y-86844494D01*
X153099502Y-86734180D01*
X153135812Y-86614482D01*
X153148072Y-86490000D01*
X153146705Y-85615852D01*
X154615000Y-85615852D01*
X154615000Y-86184148D01*
X154725869Y-86741523D01*
X154943346Y-87266560D01*
X155259074Y-87739080D01*
X155660920Y-88140926D01*
X156133440Y-88456654D01*
X156658477Y-88674131D01*
X157215852Y-88785000D01*
X157784148Y-88785000D01*
X158341523Y-88674131D01*
X158866560Y-88456654D01*
X159339080Y-88140926D01*
X159740926Y-87739080D01*
X160056654Y-87266560D01*
X160274131Y-86741523D01*
X160385000Y-86184148D01*
X160385000Y-85615852D01*
X160274131Y-85058477D01*
X160056654Y-84533440D01*
X159740926Y-84060920D01*
X159339080Y-83659074D01*
X158866560Y-83343346D01*
X158341523Y-83125869D01*
X157784148Y-83015000D01*
X157215852Y-83015000D01*
X156658477Y-83125869D01*
X156133440Y-83343346D01*
X155660920Y-83659074D01*
X155259074Y-84060920D01*
X154943346Y-84533440D01*
X154725869Y-85058477D01*
X154615000Y-85615852D01*
X153146705Y-85615852D01*
X153145000Y-84525750D01*
X152986250Y-84367000D01*
X150387000Y-84367000D01*
X150133000Y-84367000D01*
X147533750Y-84367000D01*
X147375000Y-84525750D01*
X147371928Y-86490000D01*
X146107000Y-86490000D01*
X146107000Y-81990000D01*
X147371928Y-81990000D01*
X147375000Y-83954250D01*
X147533750Y-84113000D01*
X150133000Y-84113000D01*
X150133000Y-81513750D01*
X150387000Y-81513750D01*
X150387000Y-84113000D01*
X152986250Y-84113000D01*
X153145000Y-83954250D01*
X153148072Y-81990000D01*
X153135812Y-81865518D01*
X153099502Y-81745820D01*
X153040537Y-81635506D01*
X152961185Y-81538815D01*
X152864494Y-81459463D01*
X152754180Y-81400498D01*
X152634482Y-81364188D01*
X152510000Y-81351928D01*
X150545750Y-81355000D01*
X150387000Y-81513750D01*
X150133000Y-81513750D01*
X149974250Y-81355000D01*
X148010000Y-81351928D01*
X147885518Y-81364188D01*
X147765820Y-81400498D01*
X147655506Y-81459463D01*
X147558815Y-81538815D01*
X147479463Y-81635506D01*
X147420498Y-81745820D01*
X147384188Y-81865518D01*
X147371928Y-81990000D01*
X146107000Y-81990000D01*
X146107000Y-78461825D01*
X146359074Y-78839080D01*
X146760920Y-79240926D01*
X147233440Y-79556654D01*
X147758477Y-79774131D01*
X148315852Y-79885000D01*
X148884148Y-79885000D01*
X149441523Y-79774131D01*
X149582221Y-79715852D01*
X158515000Y-79715852D01*
X158515000Y-80284148D01*
X158625869Y-80841523D01*
X158843346Y-81366560D01*
X159159074Y-81839080D01*
X159560920Y-82240926D01*
X160033440Y-82556654D01*
X160558477Y-82774131D01*
X161115852Y-82885000D01*
X161684148Y-82885000D01*
X162241523Y-82774131D01*
X162766560Y-82556654D01*
X163239080Y-82240926D01*
X163640926Y-81839080D01*
X163956654Y-81366560D01*
X164174131Y-80841523D01*
X164285000Y-80284148D01*
X164285000Y-79715852D01*
X164174131Y-79158477D01*
X163956654Y-78633440D01*
X163640926Y-78160920D01*
X163239080Y-77759074D01*
X162766560Y-77443346D01*
X162241523Y-77225869D01*
X161684148Y-77115000D01*
X161115852Y-77115000D01*
X160558477Y-77225869D01*
X160033440Y-77443346D01*
X159560920Y-77759074D01*
X159159074Y-78160920D01*
X158843346Y-78633440D01*
X158625869Y-79158477D01*
X158515000Y-79715852D01*
X149582221Y-79715852D01*
X149966560Y-79556654D01*
X150439080Y-79240926D01*
X150840926Y-78839080D01*
X151156654Y-78366560D01*
X151374131Y-77841523D01*
X151485000Y-77284148D01*
X151485000Y-76715852D01*
X151374131Y-76158477D01*
X151156654Y-75633440D01*
X150840926Y-75160920D01*
X150439080Y-74759074D01*
X149966560Y-74443346D01*
X149441523Y-74225869D01*
X148884148Y-74115000D01*
X148315852Y-74115000D01*
X147758477Y-74225869D01*
X147233440Y-74443346D01*
X146760920Y-74759074D01*
X146359074Y-75160920D01*
X146107000Y-75538175D01*
X146107000Y-73603101D01*
X146894249Y-72815852D01*
X151615000Y-72815852D01*
X151615000Y-73384148D01*
X151725869Y-73941523D01*
X151943346Y-74466560D01*
X152259074Y-74939080D01*
X152660920Y-75340926D01*
X153133440Y-75656654D01*
X153658477Y-75874131D01*
X154215852Y-75985000D01*
X154784148Y-75985000D01*
X155341523Y-75874131D01*
X155866560Y-75656654D01*
X156339080Y-75340926D01*
X156740926Y-74939080D01*
X157056654Y-74466560D01*
X157274131Y-73941523D01*
X157385000Y-73384148D01*
X157385000Y-72815852D01*
X157274131Y-72258477D01*
X157056654Y-71733440D01*
X156740926Y-71260920D01*
X156339080Y-70859074D01*
X155866560Y-70543346D01*
X155341523Y-70325869D01*
X154784148Y-70215000D01*
X154215852Y-70215000D01*
X153658477Y-70325869D01*
X153133440Y-70543346D01*
X152660920Y-70859074D01*
X152259074Y-71260920D01*
X151943346Y-71733440D01*
X151725869Y-72258477D01*
X151615000Y-72815852D01*
X146894249Y-72815852D01*
X150471003Y-69239099D01*
X150500001Y-69215301D01*
X150594974Y-69099576D01*
X150665546Y-68967547D01*
X150709003Y-68824286D01*
X150713089Y-68782796D01*
X150906632Y-68653475D01*
X151038487Y-68521620D01*
X151060498Y-68594180D01*
X151119463Y-68704494D01*
X151198815Y-68801185D01*
X151295506Y-68880537D01*
X151405820Y-68939502D01*
X151525518Y-68975812D01*
X151650000Y-68988072D01*
X152214250Y-68985000D01*
X152373000Y-68826250D01*
X152373000Y-67627000D01*
X152627000Y-67627000D01*
X152627000Y-68826250D01*
X152785750Y-68985000D01*
X153350000Y-68988072D01*
X153474482Y-68975812D01*
X153594180Y-68939502D01*
X153704494Y-68880537D01*
X153801185Y-68801185D01*
X153880537Y-68704494D01*
X153939502Y-68594180D01*
X153975812Y-68474482D01*
X153988072Y-68350000D01*
X153985000Y-67785750D01*
X153826250Y-67627000D01*
X152627000Y-67627000D01*
X152373000Y-67627000D01*
X152353000Y-67627000D01*
X152353000Y-67373000D01*
X152373000Y-67373000D01*
X152373000Y-66173750D01*
X152627000Y-66173750D01*
X152627000Y-67373000D01*
X153826250Y-67373000D01*
X153985000Y-67214250D01*
X153987364Y-66779872D01*
X159765000Y-66779872D01*
X159765000Y-67220128D01*
X159850890Y-67651925D01*
X160019369Y-68058669D01*
X160263962Y-68424729D01*
X160575271Y-68736038D01*
X160941331Y-68980631D01*
X161348075Y-69149110D01*
X161779872Y-69235000D01*
X162220128Y-69235000D01*
X162651925Y-69149110D01*
X163058669Y-68980631D01*
X163424729Y-68736038D01*
X163736038Y-68424729D01*
X163980631Y-68058669D01*
X164149110Y-67651925D01*
X164235000Y-67220128D01*
X164235000Y-66779872D01*
X164149110Y-66348075D01*
X163980631Y-65941331D01*
X163736038Y-65575271D01*
X163424729Y-65263962D01*
X163058669Y-65019369D01*
X162651925Y-64850890D01*
X162220128Y-64765000D01*
X161779872Y-64765000D01*
X161348075Y-64850890D01*
X160941331Y-65019369D01*
X160575271Y-65263962D01*
X160263962Y-65575271D01*
X160019369Y-65941331D01*
X159850890Y-66348075D01*
X159765000Y-66779872D01*
X153987364Y-66779872D01*
X153988072Y-66650000D01*
X153975812Y-66525518D01*
X153939502Y-66405820D01*
X153880537Y-66295506D01*
X153801185Y-66198815D01*
X153704494Y-66119463D01*
X153594180Y-66060498D01*
X153474482Y-66024188D01*
X153350000Y-66011928D01*
X152785750Y-66015000D01*
X152627000Y-66173750D01*
X152373000Y-66173750D01*
X152214250Y-66015000D01*
X151650000Y-66011928D01*
X151525518Y-66024188D01*
X151405820Y-66060498D01*
X151295506Y-66119463D01*
X151198815Y-66198815D01*
X151119463Y-66295506D01*
X151060498Y-66405820D01*
X151038487Y-66478380D01*
X150906632Y-66346525D01*
X150663411Y-66184010D01*
X150393158Y-66072068D01*
X150106260Y-66015000D01*
X149813740Y-66015000D01*
X149526842Y-66072068D01*
X149256589Y-66184010D01*
X149013368Y-66346525D01*
X148806525Y-66553368D01*
X148690000Y-66727760D01*
X148573475Y-66553368D01*
X148366632Y-66346525D01*
X148123411Y-66184010D01*
X147853158Y-66072068D01*
X147566260Y-66015000D01*
X147273740Y-66015000D01*
X146986842Y-66072068D01*
X146716589Y-66184010D01*
X146473368Y-66346525D01*
X146266525Y-66553368D01*
X146150000Y-66727760D01*
X146033475Y-66553368D01*
X145826632Y-66346525D01*
X145583411Y-66184010D01*
X145313158Y-66072068D01*
X145026260Y-66015000D01*
X144733740Y-66015000D01*
X144446842Y-66072068D01*
X144176589Y-66184010D01*
X143933368Y-66346525D01*
X143726525Y-66553368D01*
X143610000Y-66727760D01*
X143493475Y-66553368D01*
X143286632Y-66346525D01*
X143043411Y-66184010D01*
X142773158Y-66072068D01*
X142486260Y-66015000D01*
X142193740Y-66015000D01*
X141906842Y-66072068D01*
X141636589Y-66184010D01*
X141393368Y-66346525D01*
X141186525Y-66553368D01*
X141070000Y-66727760D01*
X140953475Y-66553368D01*
X140746632Y-66346525D01*
X140503411Y-66184010D01*
X140233158Y-66072068D01*
X139946260Y-66015000D01*
X139653740Y-66015000D01*
X139366842Y-66072068D01*
X139096589Y-66184010D01*
X138853368Y-66346525D01*
X138646525Y-66553368D01*
X138530000Y-66727760D01*
X138413475Y-66553368D01*
X138206632Y-66346525D01*
X137963411Y-66184010D01*
X137693158Y-66072068D01*
X137406260Y-66015000D01*
X137113740Y-66015000D01*
X136826842Y-66072068D01*
X136556589Y-66184010D01*
X136313368Y-66346525D01*
X136106525Y-66553368D01*
X135990000Y-66727760D01*
X135873475Y-66553368D01*
X135666632Y-66346525D01*
X135423411Y-66184010D01*
X135153158Y-66072068D01*
X134866260Y-66015000D01*
X134573740Y-66015000D01*
X134286842Y-66072068D01*
X134016589Y-66184010D01*
X133773368Y-66346525D01*
X133566525Y-66553368D01*
X133450000Y-66727760D01*
X133333475Y-66553368D01*
X133126632Y-66346525D01*
X132883411Y-66184010D01*
X132613158Y-66072068D01*
X132326260Y-66015000D01*
X132033740Y-66015000D01*
X131746842Y-66072068D01*
X131476589Y-66184010D01*
X131233368Y-66346525D01*
X131026525Y-66553368D01*
X130910000Y-66727760D01*
X130793475Y-66553368D01*
X130586632Y-66346525D01*
X130343411Y-66184010D01*
X130073158Y-66072068D01*
X129786260Y-66015000D01*
X129493740Y-66015000D01*
X129206842Y-66072068D01*
X128936589Y-66184010D01*
X128693368Y-66346525D01*
X128486525Y-66553368D01*
X128324010Y-66796589D01*
X128212068Y-67066842D01*
X128155000Y-67353740D01*
X128155000Y-67646260D01*
X128212068Y-67933158D01*
X128324010Y-68203411D01*
X128486525Y-68446632D01*
X128693368Y-68653475D01*
X128936589Y-68815990D01*
X129206842Y-68927932D01*
X129493740Y-68985000D01*
X129786260Y-68985000D01*
X130073158Y-68927932D01*
X130343411Y-68815990D01*
X130586632Y-68653475D01*
X130793475Y-68446632D01*
X130910000Y-68272240D01*
X131026525Y-68446632D01*
X131233368Y-68653475D01*
X131420000Y-68778179D01*
X131420001Y-78421897D01*
X127538603Y-82303296D01*
X127509599Y-82327099D01*
X127454471Y-82394274D01*
X127414626Y-82442824D01*
X127353782Y-82556654D01*
X127344054Y-82574854D01*
X127300597Y-82718115D01*
X127289600Y-82829768D01*
X127289600Y-82829778D01*
X127285924Y-82867100D01*
X127289600Y-82904422D01*
X127289601Y-91682597D01*
X124770003Y-94202196D01*
X124740999Y-94225999D01*
X124685871Y-94293174D01*
X124646026Y-94341724D01*
X124575455Y-94473753D01*
X124575454Y-94473754D01*
X124531997Y-94617015D01*
X124521000Y-94728668D01*
X124521000Y-94728678D01*
X124517324Y-94766000D01*
X124521000Y-94803323D01*
X124521001Y-99840995D01*
X124439080Y-99759074D01*
X123966560Y-99443346D01*
X123441523Y-99225869D01*
X122884148Y-99115000D01*
X122315852Y-99115000D01*
X121758477Y-99225869D01*
X121233440Y-99443346D01*
X120760920Y-99759074D01*
X120359074Y-100160920D01*
X120043346Y-100633440D01*
X119825869Y-101158477D01*
X119715000Y-101715852D01*
X119685000Y-101715852D01*
X119685000Y-86490000D01*
X121371928Y-86490000D01*
X121384188Y-86614482D01*
X121420498Y-86734180D01*
X121479463Y-86844494D01*
X121558815Y-86941185D01*
X121655506Y-87020537D01*
X121765820Y-87079502D01*
X121885518Y-87115812D01*
X122010000Y-87128072D01*
X123974250Y-87125000D01*
X124133000Y-86966250D01*
X124133000Y-84367000D01*
X124387000Y-84367000D01*
X124387000Y-86966250D01*
X124545750Y-87125000D01*
X126510000Y-87128072D01*
X126634482Y-87115812D01*
X126754180Y-87079502D01*
X126864494Y-87020537D01*
X126961185Y-86941185D01*
X127040537Y-86844494D01*
X127099502Y-86734180D01*
X127135812Y-86614482D01*
X127148072Y-86490000D01*
X127145000Y-84525750D01*
X126986250Y-84367000D01*
X124387000Y-84367000D01*
X124133000Y-84367000D01*
X121533750Y-84367000D01*
X121375000Y-84525750D01*
X121371928Y-86490000D01*
X119685000Y-86490000D01*
X119685000Y-81990000D01*
X121371928Y-81990000D01*
X121375000Y-83954250D01*
X121533750Y-84113000D01*
X124133000Y-84113000D01*
X124133000Y-81513750D01*
X124387000Y-81513750D01*
X124387000Y-84113000D01*
X126986250Y-84113000D01*
X127145000Y-83954250D01*
X127148072Y-81990000D01*
X127135812Y-81865518D01*
X127099502Y-81745820D01*
X127040537Y-81635506D01*
X126961185Y-81538815D01*
X126864494Y-81459463D01*
X126754180Y-81400498D01*
X126634482Y-81364188D01*
X126510000Y-81351928D01*
X124545750Y-81355000D01*
X124387000Y-81513750D01*
X124133000Y-81513750D01*
X123974250Y-81355000D01*
X122010000Y-81351928D01*
X121885518Y-81364188D01*
X121765820Y-81400498D01*
X121655506Y-81459463D01*
X121558815Y-81538815D01*
X121479463Y-81635506D01*
X121420498Y-81745820D01*
X121384188Y-81865518D01*
X121371928Y-81990000D01*
X119685000Y-81990000D01*
X119685000Y-76715852D01*
X119715000Y-76715852D01*
X119715000Y-77284148D01*
X119825869Y-77841523D01*
X120043346Y-78366560D01*
X120359074Y-78839080D01*
X120760920Y-79240926D01*
X121233440Y-79556654D01*
X121758477Y-79774131D01*
X122315852Y-79885000D01*
X122884148Y-79885000D01*
X123441523Y-79774131D01*
X123966560Y-79556654D01*
X124439080Y-79240926D01*
X124840926Y-78839080D01*
X125156654Y-78366560D01*
X125374131Y-77841523D01*
X125485000Y-77284148D01*
X125485000Y-76715852D01*
X125374131Y-76158477D01*
X125156654Y-75633440D01*
X124840926Y-75160920D01*
X124439080Y-74759074D01*
X123966560Y-74443346D01*
X123441523Y-74225869D01*
X122884148Y-74115000D01*
X122315852Y-74115000D01*
X121758477Y-74225869D01*
X121233440Y-74443346D01*
X120760920Y-74759074D01*
X120359074Y-75160920D01*
X120043346Y-75633440D01*
X119825869Y-76158477D01*
X119715000Y-76715852D01*
X119685000Y-76715852D01*
X119685000Y-72815852D01*
X125615000Y-72815852D01*
X125615000Y-73384148D01*
X125725869Y-73941523D01*
X125943346Y-74466560D01*
X126259074Y-74939080D01*
X126660920Y-75340926D01*
X127133440Y-75656654D01*
X127658477Y-75874131D01*
X128215852Y-75985000D01*
X128784148Y-75985000D01*
X129341523Y-75874131D01*
X129866560Y-75656654D01*
X130339080Y-75340926D01*
X130740926Y-74939080D01*
X131056654Y-74466560D01*
X131274131Y-73941523D01*
X131385000Y-73384148D01*
X131385000Y-72815852D01*
X131274131Y-72258477D01*
X131056654Y-71733440D01*
X130740926Y-71260920D01*
X130339080Y-70859074D01*
X129866560Y-70543346D01*
X129341523Y-70325869D01*
X128784148Y-70215000D01*
X128215852Y-70215000D01*
X127658477Y-70325869D01*
X127133440Y-70543346D01*
X126660920Y-70859074D01*
X126259074Y-71260920D01*
X125943346Y-71733440D01*
X125725869Y-72258477D01*
X125615000Y-72815852D01*
X119685000Y-72815852D01*
X119685000Y-66779872D01*
X119765000Y-66779872D01*
X119765000Y-67220128D01*
X119850890Y-67651925D01*
X120019369Y-68058669D01*
X120263962Y-68424729D01*
X120575271Y-68736038D01*
X120941331Y-68980631D01*
X121348075Y-69149110D01*
X121779872Y-69235000D01*
X122220128Y-69235000D01*
X122651925Y-69149110D01*
X123058669Y-68980631D01*
X123424729Y-68736038D01*
X123736038Y-68424729D01*
X123980631Y-68058669D01*
X124149110Y-67651925D01*
X124235000Y-67220128D01*
X124235000Y-66779872D01*
X124149110Y-66348075D01*
X123980631Y-65941331D01*
X123736038Y-65575271D01*
X123424729Y-65263962D01*
X123058669Y-65019369D01*
X122651925Y-64850890D01*
X122220128Y-64765000D01*
X121779872Y-64765000D01*
X121348075Y-64850890D01*
X120941331Y-65019369D01*
X120575271Y-65263962D01*
X120263962Y-65575271D01*
X120019369Y-65941331D01*
X119850890Y-66348075D01*
X119765000Y-66779872D01*
X119685000Y-66779872D01*
X119685000Y-64685000D01*
X164315000Y-64685000D01*
X164315001Y-178315000D01*
G37*
%TD.AperFunction*%
%TD*%
M02*
