%TF.GenerationSoftware,KiCad,Pcbnew,5.1.9-73d0e3b20d~88~ubuntu20.04.1*%
%TF.CreationDate,2021-03-31T23:36:19-04:00*%
%TF.ProjectId,MCVI,4d435649-2e6b-4696-9361-645f70636258,rev?*%
%TF.SameCoordinates,Original*%
%TF.FileFunction,Legend,Bot*%
%TF.FilePolarity,Positive*%
%FSLAX46Y46*%
G04 Gerber Fmt 4.6, Leading zero omitted, Abs format (unit mm)*
G04 Created by KiCad (PCBNEW 5.1.9-73d0e3b20d~88~ubuntu20.04.1) date 2021-03-31 23:36:19*
%MOMM*%
%LPD*%
G01*
G04 APERTURE LIST*
%ADD10C,0.100000*%
%ADD11C,0.120000*%
%ADD12C,0.150000*%
G04 APERTURE END LIST*
D10*
X153919428Y-69245000D02*
X153990857Y-69209285D01*
X154098000Y-69209285D01*
X154205142Y-69245000D01*
X154276571Y-69316428D01*
X154312285Y-69387857D01*
X154348000Y-69530714D01*
X154348000Y-69637857D01*
X154312285Y-69780714D01*
X154276571Y-69852142D01*
X154205142Y-69923571D01*
X154098000Y-69959285D01*
X154026571Y-69959285D01*
X153919428Y-69923571D01*
X153883714Y-69887857D01*
X153883714Y-69637857D01*
X154026571Y-69637857D01*
X153562285Y-69959285D02*
X153562285Y-69209285D01*
X153133714Y-69959285D01*
X153133714Y-69209285D01*
X152776571Y-69959285D02*
X152776571Y-69209285D01*
X152598000Y-69209285D01*
X152490857Y-69245000D01*
X152419428Y-69316428D01*
X152383714Y-69387857D01*
X152348000Y-69530714D01*
X152348000Y-69637857D01*
X152383714Y-69780714D01*
X152419428Y-69852142D01*
X152490857Y-69923571D01*
X152598000Y-69959285D01*
X152776571Y-69959285D01*
X131033571Y-69566428D02*
X130926428Y-69602142D01*
X130890714Y-69637857D01*
X130855000Y-69709285D01*
X130855000Y-69816428D01*
X130890714Y-69887857D01*
X130926428Y-69923571D01*
X130997857Y-69959285D01*
X131283571Y-69959285D01*
X131283571Y-69209285D01*
X131033571Y-69209285D01*
X130962142Y-69245000D01*
X130926428Y-69280714D01*
X130890714Y-69352142D01*
X130890714Y-69423571D01*
X130926428Y-69495000D01*
X130962142Y-69530714D01*
X131033571Y-69566428D01*
X131283571Y-69566428D01*
X130533571Y-69566428D02*
X130283571Y-69566428D01*
X130176428Y-69959285D02*
X130533571Y-69959285D01*
X130533571Y-69209285D01*
X130176428Y-69209285D01*
X129855000Y-69959285D02*
X129855000Y-69209285D01*
X129426428Y-69959285D01*
X129426428Y-69209285D01*
X129069285Y-69959285D02*
X129069285Y-69209285D01*
X128890714Y-69209285D01*
X128783571Y-69245000D01*
X128712142Y-69316428D01*
X128676428Y-69387857D01*
X128640714Y-69530714D01*
X128640714Y-69637857D01*
X128676428Y-69780714D01*
X128712142Y-69852142D01*
X128783571Y-69923571D01*
X128890714Y-69959285D01*
X129069285Y-69959285D01*
X145854857Y-69209285D02*
X145426285Y-69209285D01*
X145640571Y-69959285D02*
X145640571Y-69209285D01*
X144747714Y-69959285D02*
X144997714Y-69602142D01*
X145176285Y-69959285D02*
X145176285Y-69209285D01*
X144890571Y-69209285D01*
X144819142Y-69245000D01*
X144783428Y-69280714D01*
X144747714Y-69352142D01*
X144747714Y-69459285D01*
X144783428Y-69530714D01*
X144819142Y-69566428D01*
X144890571Y-69602142D01*
X145176285Y-69602142D01*
X144426285Y-69959285D02*
X144426285Y-69209285D01*
X143676285Y-69245000D02*
X143747714Y-69209285D01*
X143854857Y-69209285D01*
X143962000Y-69245000D01*
X144033428Y-69316428D01*
X144069142Y-69387857D01*
X144104857Y-69530714D01*
X144104857Y-69637857D01*
X144069142Y-69780714D01*
X144033428Y-69852142D01*
X143962000Y-69923571D01*
X143854857Y-69959285D01*
X143783428Y-69959285D01*
X143676285Y-69923571D01*
X143640571Y-69887857D01*
X143640571Y-69637857D01*
X143783428Y-69637857D01*
X138520571Y-71483285D02*
X138520571Y-70733285D01*
X138234857Y-70733285D01*
X138163428Y-70769000D01*
X138127714Y-70804714D01*
X138092000Y-70876142D01*
X138092000Y-70983285D01*
X138127714Y-71054714D01*
X138163428Y-71090428D01*
X138234857Y-71126142D01*
X138520571Y-71126142D01*
X137770571Y-71483285D02*
X137770571Y-70733285D01*
X137520571Y-70733285D02*
X137092000Y-70733285D01*
X137306285Y-71483285D02*
X137306285Y-70733285D01*
X136413428Y-71411857D02*
X136449142Y-71447571D01*
X136556285Y-71483285D01*
X136627714Y-71483285D01*
X136734857Y-71447571D01*
X136806285Y-71376142D01*
X136842000Y-71304714D01*
X136877714Y-71161857D01*
X136877714Y-71054714D01*
X136842000Y-70911857D01*
X136806285Y-70840428D01*
X136734857Y-70769000D01*
X136627714Y-70733285D01*
X136556285Y-70733285D01*
X136449142Y-70769000D01*
X136413428Y-70804714D01*
X136092000Y-71483285D02*
X136092000Y-70733285D01*
X136092000Y-71090428D02*
X135663428Y-71090428D01*
X135663428Y-71483285D02*
X135663428Y-70733285D01*
X150988428Y-69887857D02*
X151024142Y-69923571D01*
X151131285Y-69959285D01*
X151202714Y-69959285D01*
X151309857Y-69923571D01*
X151381285Y-69852142D01*
X151417000Y-69780714D01*
X151452714Y-69637857D01*
X151452714Y-69530714D01*
X151417000Y-69387857D01*
X151381285Y-69316428D01*
X151309857Y-69245000D01*
X151202714Y-69209285D01*
X151131285Y-69209285D01*
X151024142Y-69245000D01*
X150988428Y-69280714D01*
X150309857Y-69959285D02*
X150667000Y-69959285D01*
X150667000Y-69209285D01*
X149738428Y-69459285D02*
X149738428Y-69959285D01*
X149917000Y-69173571D02*
X150095571Y-69709285D01*
X149631285Y-69709285D01*
X149345571Y-69959285D02*
X149345571Y-69209285D01*
X149059857Y-69209285D01*
X148988428Y-69245000D01*
X148952714Y-69280714D01*
X148917000Y-69352142D01*
X148917000Y-69459285D01*
X148952714Y-69530714D01*
X148988428Y-69566428D01*
X149059857Y-69602142D01*
X149345571Y-69602142D01*
X148095571Y-70030714D02*
X148167000Y-69995000D01*
X148238428Y-69923571D01*
X148345571Y-69816428D01*
X148417000Y-69780714D01*
X148488428Y-69780714D01*
X148452714Y-69959285D02*
X148524142Y-69923571D01*
X148595571Y-69852142D01*
X148631285Y-69709285D01*
X148631285Y-69459285D01*
X148595571Y-69316428D01*
X148524142Y-69245000D01*
X148452714Y-69209285D01*
X148309857Y-69209285D01*
X148238428Y-69245000D01*
X148167000Y-69316428D01*
X148131285Y-69459285D01*
X148131285Y-69709285D01*
X148167000Y-69852142D01*
X148238428Y-69923571D01*
X148309857Y-69959285D01*
X148452714Y-69959285D01*
X135444857Y-69209285D02*
X135194857Y-69959285D01*
X134944857Y-69209285D01*
X134694857Y-69566428D02*
X134444857Y-69566428D01*
X134337714Y-69959285D02*
X134694857Y-69959285D01*
X134694857Y-69209285D01*
X134337714Y-69209285D01*
X133659142Y-69959285D02*
X134016285Y-69959285D01*
X134016285Y-69209285D01*
X142922000Y-70769000D02*
X142993428Y-70733285D01*
X143100571Y-70733285D01*
X143207714Y-70769000D01*
X143279142Y-70840428D01*
X143314857Y-70911857D01*
X143350571Y-71054714D01*
X143350571Y-71161857D01*
X143314857Y-71304714D01*
X143279142Y-71376142D01*
X143207714Y-71447571D01*
X143100571Y-71483285D01*
X143029142Y-71483285D01*
X142922000Y-71447571D01*
X142886285Y-71411857D01*
X142886285Y-71161857D01*
X143029142Y-71161857D01*
X142600571Y-71269000D02*
X142243428Y-71269000D01*
X142672000Y-71483285D02*
X142422000Y-70733285D01*
X142172000Y-71483285D01*
X142029142Y-70733285D02*
X141600571Y-70733285D01*
X141814857Y-71483285D02*
X141814857Y-70733285D01*
X141350571Y-71090428D02*
X141100571Y-71090428D01*
X140993428Y-71483285D02*
X141350571Y-71483285D01*
X141350571Y-70733285D01*
X140993428Y-70733285D01*
X140114142Y-69959285D02*
X140471285Y-69959285D01*
X140471285Y-69209285D01*
X139864142Y-69566428D02*
X139614142Y-69566428D01*
X139507000Y-69959285D02*
X139864142Y-69959285D01*
X139864142Y-69209285D01*
X139507000Y-69209285D01*
X139185571Y-69959285D02*
X139185571Y-69209285D01*
X139007000Y-69209285D01*
X138899857Y-69245000D01*
X138828428Y-69316428D01*
X138792714Y-69387857D01*
X138757000Y-69530714D01*
X138757000Y-69637857D01*
X138792714Y-69780714D01*
X138828428Y-69852142D01*
X138899857Y-69923571D01*
X139007000Y-69959285D01*
X139185571Y-69959285D01*
X148448428Y-71411857D02*
X148484142Y-71447571D01*
X148591285Y-71483285D01*
X148662714Y-71483285D01*
X148769857Y-71447571D01*
X148841285Y-71376142D01*
X148877000Y-71304714D01*
X148912714Y-71161857D01*
X148912714Y-71054714D01*
X148877000Y-70911857D01*
X148841285Y-70840428D01*
X148769857Y-70769000D01*
X148662714Y-70733285D01*
X148591285Y-70733285D01*
X148484142Y-70769000D01*
X148448428Y-70804714D01*
X147769857Y-71483285D02*
X148127000Y-71483285D01*
X148127000Y-70733285D01*
X147127000Y-71483285D02*
X147555571Y-71483285D01*
X147341285Y-71483285D02*
X147341285Y-70733285D01*
X147412714Y-70840428D01*
X147484142Y-70911857D01*
X147555571Y-70947571D01*
X146805571Y-71483285D02*
X146805571Y-70733285D01*
X146519857Y-70733285D01*
X146448428Y-70769000D01*
X146412714Y-70804714D01*
X146377000Y-70876142D01*
X146377000Y-70983285D01*
X146412714Y-71054714D01*
X146448428Y-71090428D01*
X146519857Y-71126142D01*
X146805571Y-71126142D01*
X145555571Y-71554714D02*
X145627000Y-71519000D01*
X145698428Y-71447571D01*
X145805571Y-71340428D01*
X145877000Y-71304714D01*
X145948428Y-71304714D01*
X145912714Y-71483285D02*
X145984142Y-71447571D01*
X146055571Y-71376142D01*
X146091285Y-71233285D01*
X146091285Y-70983285D01*
X146055571Y-70840428D01*
X145984142Y-70769000D01*
X145912714Y-70733285D01*
X145769857Y-70733285D01*
X145698428Y-70769000D01*
X145627000Y-70840428D01*
X145591285Y-70983285D01*
X145591285Y-71233285D01*
X145627000Y-71376142D01*
X145698428Y-71447571D01*
X145769857Y-71483285D01*
X145912714Y-71483285D01*
X132154857Y-71411857D02*
X132190571Y-71447571D01*
X132297714Y-71483285D01*
X132369142Y-71483285D01*
X132476285Y-71447571D01*
X132547714Y-71376142D01*
X132583428Y-71304714D01*
X132619142Y-71161857D01*
X132619142Y-71054714D01*
X132583428Y-70911857D01*
X132547714Y-70840428D01*
X132476285Y-70769000D01*
X132369142Y-70733285D01*
X132297714Y-70733285D01*
X132190571Y-70769000D01*
X132154857Y-70804714D01*
X131404857Y-71411857D02*
X131440571Y-71447571D01*
X131547714Y-71483285D01*
X131619142Y-71483285D01*
X131726285Y-71447571D01*
X131797714Y-71376142D01*
X131833428Y-71304714D01*
X131869142Y-71161857D01*
X131869142Y-71054714D01*
X131833428Y-70911857D01*
X131797714Y-70840428D01*
X131726285Y-70769000D01*
X131619142Y-70733285D01*
X131547714Y-70733285D01*
X131440571Y-70769000D01*
X131404857Y-70804714D01*
D11*
%TO.C,J8*%
X151230000Y-68830000D02*
X151230000Y-66170000D01*
X151230000Y-68830000D02*
X128310000Y-68830000D01*
X128310000Y-68830000D02*
X128310000Y-66170000D01*
X151230000Y-66170000D02*
X128310000Y-66170000D01*
X153830000Y-66170000D02*
X152500000Y-66170000D01*
X153830000Y-67500000D02*
X153830000Y-66170000D01*
D12*
X154722380Y-67166666D02*
X155436666Y-67166666D01*
X155579523Y-67119047D01*
X155674761Y-67023809D01*
X155722380Y-66880952D01*
X155722380Y-66785714D01*
X155150952Y-67785714D02*
X155103333Y-67690476D01*
X155055714Y-67642857D01*
X154960476Y-67595238D01*
X154912857Y-67595238D01*
X154817619Y-67642857D01*
X154770000Y-67690476D01*
X154722380Y-67785714D01*
X154722380Y-67976190D01*
X154770000Y-68071428D01*
X154817619Y-68119047D01*
X154912857Y-68166666D01*
X154960476Y-68166666D01*
X155055714Y-68119047D01*
X155103333Y-68071428D01*
X155150952Y-67976190D01*
X155150952Y-67785714D01*
X155198571Y-67690476D01*
X155246190Y-67642857D01*
X155341428Y-67595238D01*
X155531904Y-67595238D01*
X155627142Y-67642857D01*
X155674761Y-67690476D01*
X155722380Y-67785714D01*
X155722380Y-67976190D01*
X155674761Y-68071428D01*
X155627142Y-68119047D01*
X155531904Y-68166666D01*
X155341428Y-68166666D01*
X155246190Y-68119047D01*
X155198571Y-68071428D01*
X155150952Y-67976190D01*
%TD*%
M02*
