%TF.GenerationSoftware,KiCad,Pcbnew,5.1.9-73d0e3b20d~88~ubuntu20.04.1*%
%TF.CreationDate,2021-03-31T20:48:30-04:00*%
%TF.ProjectId,MCVI,4d435649-2e6b-4696-9361-645f70636258,rev?*%
%TF.SameCoordinates,Original*%
%TF.FileFunction,Soldermask,Top*%
%TF.FilePolarity,Negative*%
%FSLAX46Y46*%
G04 Gerber Fmt 4.6, Leading zero omitted, Abs format (unit mm)*
G04 Created by KiCad (PCBNEW 5.1.9-73d0e3b20d~88~ubuntu20.04.1) date 2021-03-31 20:48:30*
%MOMM*%
%LPD*%
G01*
G04 APERTURE LIST*
%ADD10C,3.200000*%
%ADD11O,1.600000X1.600000*%
%ADD12C,1.600000*%
%ADD13C,1.800000*%
%ADD14R,1.800000X1.800000*%
%ADD15C,4.500001*%
%ADD16C,4.500000*%
%ADD17R,4.500001X4.500001*%
%ADD18O,1.700000X1.700000*%
%ADD19R,1.700000X1.700000*%
G04 APERTURE END LIST*
D10*
%TO.C,H4*%
X162000000Y-176000000D03*
%TD*%
D11*
%TO.C,R15*%
X142880000Y-117000000D03*
D12*
X150500000Y-117000000D03*
%TD*%
D13*
%TO.C,D6*%
X142000000Y-130740000D03*
D14*
X142000000Y-128200000D03*
%TD*%
D11*
%TO.C,R10*%
X162120000Y-166000000D03*
D12*
X154500000Y-166000000D03*
%TD*%
D11*
%TO.C,R16*%
X140120000Y-117000000D03*
D12*
X132500000Y-117000000D03*
%TD*%
D11*
%TO.C,R11*%
X142880000Y-166000000D03*
D12*
X150500000Y-166000000D03*
%TD*%
D11*
%TO.C,R17*%
X142880000Y-92000000D03*
D12*
X150500000Y-92000000D03*
%TD*%
D10*
%TO.C,H3*%
X122000000Y-176000000D03*
%TD*%
D13*
%TO.C,D7*%
X142000000Y-105740000D03*
D14*
X142000000Y-103200000D03*
%TD*%
D15*
%TO.C,J13*%
X157500000Y-160900000D03*
D16*
X148600000Y-152000000D03*
D15*
X161400000Y-155000000D03*
D17*
X150260000Y-159240000D03*
D16*
X154500000Y-148100000D03*
%TD*%
D11*
%TO.C,R18*%
X140120000Y-92000000D03*
D12*
X132500000Y-92000000D03*
%TD*%
D11*
%TO.C,R13*%
X142880000Y-142000000D03*
D12*
X150500000Y-142000000D03*
%TD*%
D15*
%TO.C,J15*%
X157500000Y-110900000D03*
D16*
X148600000Y-102000000D03*
D15*
X161400000Y-105000000D03*
D17*
X150260000Y-109240000D03*
D16*
X154500000Y-98100000D03*
%TD*%
D15*
%TO.C,J11*%
X131500000Y-135900000D03*
D16*
X122600000Y-127000000D03*
D15*
X135400000Y-130000000D03*
D17*
X124260000Y-134240000D03*
D16*
X128500000Y-123100000D03*
%TD*%
D15*
%TO.C,J16*%
X157500000Y-85900000D03*
D16*
X148600000Y-77000000D03*
D15*
X161400000Y-80000000D03*
D17*
X150260000Y-84240000D03*
D16*
X154500000Y-73100000D03*
%TD*%
D15*
%TO.C,J14*%
X157500000Y-135900000D03*
D16*
X148600000Y-127000000D03*
D15*
X161400000Y-130000000D03*
D17*
X150260000Y-134240000D03*
D16*
X154500000Y-123100000D03*
%TD*%
D11*
%TO.C,R12*%
X140140000Y-166000000D03*
D12*
X132520000Y-166000000D03*
%TD*%
D13*
%TO.C,D8*%
X142000000Y-80740000D03*
D14*
X142000000Y-78200000D03*
%TD*%
D10*
%TO.C,H7*%
X122000000Y-67000000D03*
%TD*%
D13*
%TO.C,D4*%
X155000000Y-173210000D03*
D14*
X155000000Y-175750000D03*
%TD*%
D13*
%TO.C,D5*%
X142000000Y-155740000D03*
D14*
X142000000Y-153200000D03*
%TD*%
D15*
%TO.C,J12*%
X131500000Y-110900000D03*
D16*
X122600000Y-102000000D03*
D15*
X135400000Y-105000000D03*
D17*
X124260000Y-109240000D03*
D16*
X128500000Y-98100000D03*
%TD*%
D15*
%TO.C,J9*%
X131500000Y-85900000D03*
D16*
X122600000Y-77000000D03*
D15*
X135400000Y-80000000D03*
D17*
X124260000Y-84240000D03*
D16*
X128500000Y-73100000D03*
%TD*%
D15*
%TO.C,J10*%
X131500000Y-160900000D03*
D16*
X122600000Y-152000000D03*
D15*
X135400000Y-155000000D03*
D17*
X124260000Y-159240000D03*
D16*
X128500000Y-148100000D03*
%TD*%
D10*
%TO.C,H8*%
X162000000Y-67000000D03*
%TD*%
D11*
%TO.C,R14*%
X140120000Y-142000000D03*
D12*
X132500000Y-142000000D03*
%TD*%
D18*
%TO.C,J8*%
X129640000Y-67500000D03*
X132180000Y-67500000D03*
X134720000Y-67500000D03*
X137260000Y-67500000D03*
X139800000Y-67500000D03*
X142340000Y-67500000D03*
X144880000Y-67500000D03*
X147420000Y-67500000D03*
X149960000Y-67500000D03*
D19*
X152500000Y-67500000D03*
%TD*%
M02*
