M48
; DRILL file {KiCad 5.1.9-73d0e3b20d~88~ubuntu20.04.1} date Wed Mar 31 23:36:22 2021
; FORMAT={-:-/ absolute / inch / decimal}
; #@! TF.CreationDate,2021-03-31T23:36:22-04:00
; #@! TF.GenerationSoftware,Kicad,Pcbnew,5.1.9-73d0e3b20d~88~ubuntu20.04.1
; #@! TF.FileFunction,Plated,1,2,PTH
FMAT,2
INCH
T1C0.0315
T2C0.0354
T3C0.0394
T4C0.1063
%
G90
G05
T1
X5.2165Y-4.6063
X5.2165Y-5.5906
X5.2165Y-6.5748
X5.2173Y-3.5827
X5.5165Y-4.6063
X5.5165Y-5.5906
X5.5165Y-6.5748
X5.5173Y-3.5827
X5.6252Y-3.5827
X5.6252Y-4.6063
X5.6252Y-5.5906
X5.6252Y-6.5748
X5.9252Y-3.5827
X5.9252Y-4.6063
X5.9252Y-5.5906
X5.9252Y-6.5748
X6.0827Y-6.5748
X6.3827Y-6.5748
T2
X5.5906Y-3.0787
X5.5906Y-3.1787
X5.5906Y-4.063
X5.5906Y-4.163
X5.5906Y-5.0472
X5.5906Y-5.1472
X5.5906Y-6.0315
X5.5906Y-6.1315
X6.1024Y-6.8193
X6.1024Y-6.9193
T3
X5.1039Y-2.6575
X5.2039Y-2.6575
X5.3039Y-2.6575
X5.4039Y-2.6575
X5.5039Y-2.6575
X5.6039Y-2.6575
X5.7039Y-2.6575
X5.8039Y-2.6575
X5.9039Y-2.6575
X6.0039Y-2.6575
T4
X4.8268Y-3.0315
X4.8268Y-4.0157
X4.8268Y-5.0
X4.8268Y-5.9843
X4.8921Y-3.3165
X4.8921Y-4.3008
X4.8921Y-5.285
X4.8921Y-6.2693
X5.0591Y-2.878
X5.0591Y-3.8622
X5.0591Y-4.8465
X5.0591Y-5.8307
X5.1772Y-3.3819
X5.1772Y-4.3661
X5.1772Y-5.3504
X5.1772Y-6.3346
X5.3307Y-3.1496
X5.3307Y-4.1339
X5.3307Y-5.1181
X5.3307Y-6.1024
X5.8504Y-3.0315
X5.8504Y-4.0157
X5.8504Y-5.0
X5.8504Y-5.9843
X5.9157Y-3.3165
X5.9157Y-4.3008
X5.9157Y-5.285
X5.9157Y-6.2693
X6.0827Y-2.878
X6.0827Y-3.8622
X6.0827Y-4.8465
X6.0827Y-5.8307
X6.2008Y-3.3819
X6.2008Y-4.3661
X6.2008Y-5.3504
X6.2008Y-6.3346
X6.3543Y-3.1496
X6.3543Y-4.1339
X6.3543Y-5.1181
X6.3543Y-6.1024
T0
M30
