M48
; DRILL file {KiCad 5.1.6-c6e7f7d~87~ubuntu20.04.1} date Fri Oct 30 18:00:50 2020
; FORMAT={-:-/ absolute / inch / decimal}
; #@! TF.CreationDate,2020-10-30T18:00:50-04:00
; #@! TF.GenerationSoftware,Kicad,Pcbnew,5.1.6-c6e7f7d~87~ubuntu20.04.1
; #@! TF.FileFunction,Plated,1,2,PTH
FMAT,2
INCH
T1C0.0157
T2C0.0315
T3C0.0354
T4C0.0394
T5C0.0400
T6C0.0433
T7C0.0469
T8C0.1063
%
G90
G05
T1
X3.1299Y-5.2756
T2
X4.8622Y-5.5906
X5.1622Y-5.5906
X4.8622Y-3.622
X5.1622Y-3.622
X5.2709Y-3.622
X5.5709Y-3.622
X1.8307Y-5.7677
X1.9291Y-5.7677
X1.8307Y-4.9803
X1.9291Y-4.9803
X5.2709Y-5.5906
X5.5709Y-5.5906
X2.9921Y-4.4291
X2.9921Y-4.5079
X2.0669Y-6.511
X2.0669Y-6.811
X2.1669Y-6.511
X2.1669Y-6.811
X4.7441Y-6.7323
X5.0441Y-6.7323
X2.6378Y-5.5709
X2.6378Y-5.6693
X2.3425Y-6.4764
X2.6425Y-6.4764
X5.2709Y-6.5354
X5.5709Y-6.5354
X5.2709Y-4.6063
X5.5709Y-4.6063
X2.7756Y-5.374
X2.7756Y-5.474
X2.7756Y-5.574
X2.7756Y-5.674
X2.7756Y-5.774
X2.7756Y-5.874
X2.7756Y-5.974
X3.0756Y-5.374
X3.0756Y-5.474
X3.0756Y-5.574
X3.0756Y-5.674
X3.0756Y-5.774
X3.0756Y-5.874
X3.0756Y-5.974
X2.4606Y-5.4677
X2.4606Y-5.7677
X1.8898Y-6.511
X1.8898Y-6.811
X1.8504Y-5.9252
X1.8504Y-6.0252
X1.8504Y-6.1252
X1.8504Y-6.2252
X2.1504Y-5.9252
X2.1504Y-6.0252
X2.1504Y-6.1252
X2.1504Y-6.2252
X2.4606Y-5.0543
X2.4606Y-5.3543
X2.6181Y-5.0543
X2.6181Y-5.3543
X1.8504Y-5.1378
X1.8504Y-5.2378
X1.8504Y-5.3378
X1.8504Y-5.4378
X2.1504Y-5.1378
X2.1504Y-5.2378
X2.1504Y-5.3378
X2.1504Y-5.4378
X2.7165Y-4.4291
X2.7165Y-4.5079
X1.6732Y-5.9252
X1.6732Y-6.2252
X4.7441Y-6.5354
X5.0441Y-6.5354
X3.2087Y-5.5709
X3.2087Y-5.6693
X4.8622Y-4.6063
X5.1622Y-4.6063
T3
X5.2362Y-3.0787
X5.2362Y-3.1787
X5.2362Y-6.0315
X5.2362Y-6.1315
X5.2362Y-5.0472
X5.2362Y-5.1472
X5.2362Y-4.063
X5.2362Y-4.163
X5.2362Y-6.7008
X5.2362Y-6.8008
T4
X4.4346Y-2.6575
X4.5346Y-2.6575
X4.6346Y-2.6575
X4.7346Y-2.6575
X4.8346Y-2.6575
X4.9346Y-2.6575
X5.0346Y-2.6575
X5.1346Y-2.6575
X5.2346Y-2.6575
X5.3346Y-2.6575
X2.3819Y-2.6575
X2.4819Y-2.6575
X2.5819Y-2.6575
X2.6819Y-2.6575
X2.7819Y-2.6575
X2.8819Y-2.6575
X2.9819Y-2.6575
X3.0819Y-2.6575
X3.1819Y-2.6575
X3.2819Y-2.6575
X1.7323Y-3.0709
X1.7323Y-3.1709
X1.7323Y-3.2709
X1.7323Y-3.3709
X1.7323Y-3.4709
X1.7323Y-3.5709
X1.7323Y-3.6709
X1.7323Y-3.7709
X1.7323Y-3.8709
X1.7323Y-3.9709
X1.7323Y-4.0709
X1.7323Y-4.1709
X1.7323Y-4.2709
X1.7323Y-4.3709
X1.7323Y-4.4709
X2.3323Y-3.0709
X2.3323Y-3.1709
X2.3323Y-3.2709
X2.3323Y-3.3709
X2.3323Y-3.4709
X2.3323Y-3.5709
X2.3323Y-3.6709
X2.3323Y-3.7709
X2.3323Y-3.8709
X2.3323Y-3.9709
X2.3323Y-4.0709
X2.3323Y-4.1709
X2.3323Y-4.2709
X2.3323Y-4.3709
X2.3323Y-4.4709
T5
X2.7937Y-3.1433
X2.7937Y-3.2433
X2.7937Y-3.3433
X2.7937Y-3.4433
X2.7937Y-3.5433
X2.8937Y-3.1433
X2.8937Y-3.2433
X2.8937Y-3.3433
X2.8937Y-3.4433
X2.8937Y-3.5433
T6
X5.7283Y-3.622
X6.0283Y-3.622
X5.7283Y-6.5748
X6.0283Y-6.5748
X5.7283Y-4.6063
X6.0283Y-4.6063
X2.9724Y-3.937
X2.9724Y-4.237
X5.7283Y-5.5906
X6.0283Y-5.5906
X2.7165Y-3.9323
X2.7165Y-4.2323
T7
X2.3819Y-6.7126
X2.4819Y-6.7126
X2.5819Y-6.7126
X1.685Y-2.7165
X1.785Y-2.7165
X1.885Y-2.7165
X1.985Y-2.7165
X2.085Y-2.7165
X2.185Y-2.7165
T8
X5.4961Y-5.9843
X5.5614Y-6.2693
X5.7283Y-5.8307
X5.8465Y-6.3346
X6.0Y-6.1024
X4.4724Y-3.0315
X4.5378Y-3.3165
X4.7047Y-2.878
X4.8228Y-3.3819
X4.9764Y-3.1496
X4.4724Y-4.0157
X4.5378Y-4.3008
X4.7047Y-3.8622
X4.8228Y-4.3661
X4.9764Y-4.1339
X4.4724Y-5.0
X4.5378Y-5.285
X4.7047Y-4.8465
X4.8228Y-5.3504
X4.9764Y-5.1181
X4.4724Y-5.9843
X4.5378Y-6.2693
X4.7047Y-5.8307
X4.8228Y-6.3346
X4.9764Y-6.1024
X5.4961Y-5.0
X5.5614Y-5.285
X5.7283Y-4.8465
X5.8465Y-5.3504
X6.0Y-5.1181
X5.4961Y-3.0315
X5.5614Y-3.3165
X5.7283Y-2.878
X5.8465Y-3.3819
X6.0Y-3.1496
X5.4961Y-4.0157
X5.5614Y-4.3008
X5.7283Y-3.8622
X5.8465Y-4.3661
X6.0Y-4.1339
T0
M30
