%TF.GenerationSoftware,KiCad,Pcbnew,5.1.6-c6e7f7d~87~ubuntu20.04.1*%
%TF.CreationDate,2020-10-30T18:00:46-04:00*%
%TF.ProjectId,midi2cv_ao,6d696469-3263-4765-9f61-6f2e6b696361,rev?*%
%TF.SameCoordinates,Original*%
%TF.FileFunction,Legend,Top*%
%TF.FilePolarity,Positive*%
%FSLAX46Y46*%
G04 Gerber Fmt 4.6, Leading zero omitted, Abs format (unit mm)*
G04 Created by KiCad (PCBNEW 5.1.6-c6e7f7d~87~ubuntu20.04.1) date 2020-10-30 18:00:46*
%MOMM*%
%LPD*%
G01*
G04 APERTURE LIST*
%ADD10C,0.150000*%
%ADD11C,0.120000*%
%ADD12C,0.010000*%
G04 APERTURE END LIST*
D10*
X42214285Y-72946428D02*
X42321428Y-72982142D01*
X42357142Y-73017857D01*
X42392857Y-73089285D01*
X42392857Y-73196428D01*
X42357142Y-73267857D01*
X42321428Y-73303571D01*
X42250000Y-73339285D01*
X41964285Y-73339285D01*
X41964285Y-72589285D01*
X42214285Y-72589285D01*
X42285714Y-72625000D01*
X42321428Y-72660714D01*
X42357142Y-72732142D01*
X42357142Y-72803571D01*
X42321428Y-72875000D01*
X42285714Y-72910714D01*
X42214285Y-72946428D01*
X41964285Y-72946428D01*
X42714285Y-72589285D02*
X42714285Y-73196428D01*
X42750000Y-73267857D01*
X42785714Y-73303571D01*
X42857142Y-73339285D01*
X43000000Y-73339285D01*
X43071428Y-73303571D01*
X43107142Y-73267857D01*
X43142857Y-73196428D01*
X43142857Y-72589285D01*
X43392857Y-72589285D02*
X43821428Y-72589285D01*
X43607142Y-73339285D02*
X43607142Y-72589285D01*
X45000000Y-73339285D02*
X44642857Y-73339285D01*
X44642857Y-72589285D01*
X45250000Y-72946428D02*
X45500000Y-72946428D01*
X45607142Y-73339285D02*
X45250000Y-73339285D01*
X45250000Y-72589285D01*
X45607142Y-72589285D01*
X45928571Y-73339285D02*
X45928571Y-72589285D01*
X46107142Y-72589285D01*
X46214285Y-72625000D01*
X46285714Y-72696428D01*
X46321428Y-72767857D01*
X46357142Y-72910714D01*
X46357142Y-73017857D01*
X46321428Y-73160714D01*
X46285714Y-73232142D01*
X46214285Y-73303571D01*
X46107142Y-73339285D01*
X45928571Y-73339285D01*
X47071428Y-73339285D02*
X46642857Y-73339285D01*
X46857142Y-73339285D02*
X46857142Y-72589285D01*
X46785714Y-72696428D01*
X46714285Y-72767857D01*
X46642857Y-72803571D01*
X47392857Y-73053571D02*
X47964285Y-73053571D01*
X48285714Y-72660714D02*
X48321428Y-72625000D01*
X48392857Y-72589285D01*
X48571428Y-72589285D01*
X48642857Y-72625000D01*
X48678571Y-72660714D01*
X48714285Y-72732142D01*
X48714285Y-72803571D01*
X48678571Y-72910714D01*
X48250000Y-73339285D01*
X48714285Y-73339285D01*
X49571428Y-73303571D02*
X49678571Y-73339285D01*
X49857142Y-73339285D01*
X49928571Y-73303571D01*
X49964285Y-73267857D01*
X50000000Y-73196428D01*
X50000000Y-73125000D01*
X49964285Y-73053571D01*
X49928571Y-73017857D01*
X49857142Y-72982142D01*
X49714285Y-72946428D01*
X49642857Y-72910714D01*
X49607142Y-72875000D01*
X49571428Y-72803571D01*
X49571428Y-72732142D01*
X49607142Y-72660714D01*
X49642857Y-72625000D01*
X49714285Y-72589285D01*
X49892857Y-72589285D01*
X50000000Y-72625000D01*
X50250000Y-72589285D02*
X50428571Y-73339285D01*
X50571428Y-72803571D01*
X50714285Y-73339285D01*
X50892857Y-72589285D01*
X51571428Y-73339285D02*
X51142857Y-73339285D01*
X51357142Y-73339285D02*
X51357142Y-72589285D01*
X51285714Y-72696428D01*
X51214285Y-72767857D01*
X51142857Y-72803571D01*
X51892857Y-73053571D02*
X52464285Y-73053571D01*
X52785714Y-72660714D02*
X52821428Y-72625000D01*
X52892857Y-72589285D01*
X53071428Y-72589285D01*
X53142857Y-72625000D01*
X53178571Y-72660714D01*
X53214285Y-72732142D01*
X53214285Y-72803571D01*
X53178571Y-72910714D01*
X52750000Y-73339285D01*
X53214285Y-73339285D01*
X54500000Y-72625000D02*
X54428571Y-72589285D01*
X54321428Y-72589285D01*
X54214285Y-72625000D01*
X54142857Y-72696428D01*
X54107142Y-72767857D01*
X54071428Y-72910714D01*
X54071428Y-73017857D01*
X54107142Y-73160714D01*
X54142857Y-73232142D01*
X54214285Y-73303571D01*
X54321428Y-73339285D01*
X54392857Y-73339285D01*
X54500000Y-73303571D01*
X54535714Y-73267857D01*
X54535714Y-73017857D01*
X54392857Y-73017857D01*
X54857142Y-73339285D02*
X54857142Y-72589285D01*
X55285714Y-73339285D01*
X55285714Y-72589285D01*
X55642857Y-73339285D02*
X55642857Y-72589285D01*
X55821428Y-72589285D01*
X55928571Y-72625000D01*
X56000000Y-72696428D01*
X56035714Y-72767857D01*
X56071428Y-72910714D01*
X56071428Y-73017857D01*
X56035714Y-73160714D01*
X56000000Y-73232142D01*
X55928571Y-73303571D01*
X55821428Y-73339285D01*
X55642857Y-73339285D01*
X85000000Y-78309523D02*
X84952380Y-78404761D01*
X84952380Y-78547619D01*
X85000000Y-78690476D01*
X85095238Y-78785714D01*
X85190476Y-78833333D01*
X85380952Y-78880952D01*
X85523809Y-78880952D01*
X85714285Y-78833333D01*
X85809523Y-78785714D01*
X85904761Y-78690476D01*
X85952380Y-78547619D01*
X85952380Y-78452380D01*
X85904761Y-78309523D01*
X85857142Y-78261904D01*
X85523809Y-78261904D01*
X85523809Y-78452380D01*
X85952380Y-77833333D02*
X84952380Y-77833333D01*
X85952380Y-77261904D01*
X84952380Y-77261904D01*
X85952380Y-76785714D02*
X84952380Y-76785714D01*
X84952380Y-76547619D01*
X85000000Y-76404761D01*
X85095238Y-76309523D01*
X85190476Y-76261904D01*
X85380952Y-76214285D01*
X85523809Y-76214285D01*
X85714285Y-76261904D01*
X85809523Y-76309523D01*
X85904761Y-76404761D01*
X85952380Y-76547619D01*
X85952380Y-76785714D01*
X85952380Y-75023809D02*
X84952380Y-75023809D01*
X85428571Y-75023809D02*
X85428571Y-74452380D01*
X85952380Y-74452380D02*
X84952380Y-74452380D01*
X85952380Y-73976190D02*
X84952380Y-73976190D01*
X85000000Y-72976190D02*
X84952380Y-73071428D01*
X84952380Y-73214285D01*
X85000000Y-73357142D01*
X85095238Y-73452380D01*
X85190476Y-73500000D01*
X85380952Y-73547619D01*
X85523809Y-73547619D01*
X85714285Y-73500000D01*
X85809523Y-73452380D01*
X85904761Y-73357142D01*
X85952380Y-73214285D01*
X85952380Y-73119047D01*
X85904761Y-72976190D01*
X85857142Y-72928571D01*
X85523809Y-72928571D01*
X85523809Y-73119047D01*
X85952380Y-72500000D02*
X84952380Y-72500000D01*
X85428571Y-72500000D02*
X85428571Y-71928571D01*
X85952380Y-71928571D02*
X84952380Y-71928571D01*
X85952380Y-70214285D02*
X85952380Y-70690476D01*
X84952380Y-70690476D01*
X84952380Y-69690476D02*
X84952380Y-69500000D01*
X85000000Y-69404761D01*
X85095238Y-69309523D01*
X85285714Y-69261904D01*
X85619047Y-69261904D01*
X85809523Y-69309523D01*
X85904761Y-69404761D01*
X85952380Y-69500000D01*
X85952380Y-69690476D01*
X85904761Y-69785714D01*
X85809523Y-69880952D01*
X85619047Y-69928571D01*
X85285714Y-69928571D01*
X85095238Y-69880952D01*
X85000000Y-69785714D01*
X84952380Y-69690476D01*
X84952380Y-68928571D02*
X85952380Y-68690476D01*
X85238095Y-68500000D01*
X85952380Y-68309523D01*
X84952380Y-68071428D01*
X59452380Y-174000000D02*
X59357142Y-173952380D01*
X59214285Y-173952380D01*
X59071428Y-174000000D01*
X58976190Y-174095238D01*
X58928571Y-174190476D01*
X58880952Y-174380952D01*
X58880952Y-174523809D01*
X58928571Y-174714285D01*
X58976190Y-174809523D01*
X59071428Y-174904761D01*
X59214285Y-174952380D01*
X59309523Y-174952380D01*
X59452380Y-174904761D01*
X59499999Y-174857142D01*
X59499999Y-174523809D01*
X59309523Y-174523809D01*
X59928571Y-174952380D02*
X59928571Y-173952380D01*
X60499999Y-174952380D01*
X60499999Y-173952380D01*
X60976190Y-174952380D02*
X60976190Y-173952380D01*
X61214285Y-173952380D01*
X61357142Y-174000000D01*
X61452380Y-174095238D01*
X61500000Y-174190476D01*
X61547619Y-174380952D01*
X61547619Y-174523809D01*
X61500000Y-174714285D01*
X61452380Y-174809523D01*
X61357142Y-174904761D01*
X61214285Y-174952380D01*
X60976190Y-174952380D01*
X63928571Y-174285714D02*
X63928571Y-174952380D01*
X63690476Y-173904761D02*
X63452380Y-174619047D01*
X64071428Y-174619047D01*
X65928571Y-174047619D02*
X65976190Y-174000000D01*
X66071428Y-173952380D01*
X66309523Y-173952380D01*
X66404761Y-174000000D01*
X66452380Y-174047619D01*
X66500000Y-174142857D01*
X66500000Y-174238095D01*
X66452380Y-174380952D01*
X65880952Y-174952380D01*
X66500000Y-174952380D01*
X68452380Y-174952380D02*
X68452380Y-173952380D01*
X68785714Y-174666666D01*
X69119047Y-173952380D01*
X69119047Y-174952380D01*
X69595238Y-174952380D02*
X69595238Y-173952380D01*
X70071428Y-174952380D02*
X70071428Y-173952380D01*
X70309523Y-173952380D01*
X70452380Y-174000000D01*
X70547619Y-174095238D01*
X70595238Y-174190476D01*
X70642857Y-174380952D01*
X70642857Y-174523809D01*
X70595238Y-174714285D01*
X70547619Y-174809523D01*
X70452380Y-174904761D01*
X70309523Y-174952380D01*
X70071428Y-174952380D01*
X71071428Y-174952380D02*
X71071428Y-173952380D01*
X72428571Y-158778571D02*
X72428571Y-157278571D01*
X72928571Y-158350000D01*
X73428571Y-157278571D01*
X73428571Y-158778571D01*
X74142857Y-158778571D02*
X74142857Y-157278571D01*
X74857142Y-158778571D02*
X74857142Y-157278571D01*
X75214285Y-157278571D01*
X75428571Y-157350000D01*
X75571428Y-157492857D01*
X75642857Y-157635714D01*
X75714285Y-157921428D01*
X75714285Y-158135714D01*
X75642857Y-158421428D01*
X75571428Y-158564285D01*
X75428571Y-158707142D01*
X75214285Y-158778571D01*
X74857142Y-158778571D01*
X76357142Y-158778571D02*
X76357142Y-157278571D01*
X77000000Y-157421428D02*
X77071428Y-157350000D01*
X77214285Y-157278571D01*
X77571428Y-157278571D01*
X77714285Y-157350000D01*
X77785714Y-157421428D01*
X77857142Y-157564285D01*
X77857142Y-157707142D01*
X77785714Y-157921428D01*
X76928571Y-158778571D01*
X77857142Y-158778571D01*
X79357142Y-158635714D02*
X79285714Y-158707142D01*
X79071428Y-158778571D01*
X78928571Y-158778571D01*
X78714285Y-158707142D01*
X78571428Y-158564285D01*
X78500000Y-158421428D01*
X78428571Y-158135714D01*
X78428571Y-157921428D01*
X78500000Y-157635714D01*
X78571428Y-157492857D01*
X78714285Y-157350000D01*
X78928571Y-157278571D01*
X79071428Y-157278571D01*
X79285714Y-157350000D01*
X79357142Y-157421428D01*
X79785714Y-157278571D02*
X80285714Y-158778571D01*
X80785714Y-157278571D01*
X70607142Y-161178571D02*
X70107142Y-160464285D01*
X69750000Y-161178571D02*
X69750000Y-159678571D01*
X70321428Y-159678571D01*
X70464285Y-159750000D01*
X70535714Y-159821428D01*
X70607142Y-159964285D01*
X70607142Y-160178571D01*
X70535714Y-160321428D01*
X70464285Y-160392857D01*
X70321428Y-160464285D01*
X69750000Y-160464285D01*
X71250000Y-161178571D02*
X71250000Y-160178571D01*
X71250000Y-159678571D02*
X71178571Y-159750000D01*
X71250000Y-159821428D01*
X71321428Y-159750000D01*
X71250000Y-159678571D01*
X71250000Y-159821428D01*
X72607142Y-161107142D02*
X72464285Y-161178571D01*
X72178571Y-161178571D01*
X72035714Y-161107142D01*
X71964285Y-161035714D01*
X71892857Y-160892857D01*
X71892857Y-160464285D01*
X71964285Y-160321428D01*
X72035714Y-160250000D01*
X72178571Y-160178571D01*
X72464285Y-160178571D01*
X72607142Y-160250000D01*
X73250000Y-161178571D02*
X73250000Y-159678571D01*
X73892857Y-161178571D02*
X73892857Y-160392857D01*
X73821428Y-160250000D01*
X73678571Y-160178571D01*
X73464285Y-160178571D01*
X73321428Y-160250000D01*
X73250000Y-160321428D01*
X75750000Y-161178571D02*
X75750000Y-159678571D01*
X75750000Y-160392857D02*
X76607142Y-160392857D01*
X76607142Y-161178571D02*
X76607142Y-159678571D01*
X77535714Y-161178571D02*
X77392857Y-161107142D01*
X77321428Y-161035714D01*
X77250000Y-160892857D01*
X77250000Y-160464285D01*
X77321428Y-160321428D01*
X77392857Y-160250000D01*
X77535714Y-160178571D01*
X77750000Y-160178571D01*
X77892857Y-160250000D01*
X77964285Y-160321428D01*
X78035714Y-160464285D01*
X78035714Y-160892857D01*
X77964285Y-161035714D01*
X77892857Y-161107142D01*
X77750000Y-161178571D01*
X77535714Y-161178571D01*
X78892857Y-161178571D02*
X78750000Y-161107142D01*
X78678571Y-160964285D01*
X78678571Y-159678571D01*
X79464285Y-161178571D02*
X79464285Y-160178571D01*
X79464285Y-160321428D02*
X79535714Y-160250000D01*
X79678571Y-160178571D01*
X79892857Y-160178571D01*
X80035714Y-160250000D01*
X80107142Y-160392857D01*
X80107142Y-161178571D01*
X80107142Y-160392857D02*
X80178571Y-160250000D01*
X80321428Y-160178571D01*
X80535714Y-160178571D01*
X80678571Y-160250000D01*
X80750000Y-160392857D01*
X80750000Y-161178571D01*
X82035714Y-161107142D02*
X81892857Y-161178571D01*
X81607142Y-161178571D01*
X81464285Y-161107142D01*
X81392857Y-160964285D01*
X81392857Y-160392857D01*
X81464285Y-160250000D01*
X81607142Y-160178571D01*
X81892857Y-160178571D01*
X82035714Y-160250000D01*
X82107142Y-160392857D01*
X82107142Y-160535714D01*
X81392857Y-160678571D01*
X82678571Y-161107142D02*
X82821428Y-161178571D01*
X83107142Y-161178571D01*
X83250000Y-161107142D01*
X83321428Y-160964285D01*
X83321428Y-160892857D01*
X83250000Y-160750000D01*
X83107142Y-160678571D01*
X82892857Y-160678571D01*
X82750000Y-160607142D01*
X82678571Y-160464285D01*
X82678571Y-160392857D01*
X82750000Y-160250000D01*
X82892857Y-160178571D01*
X83107142Y-160178571D01*
X83250000Y-160250000D01*
X71857142Y-162078571D02*
X72142857Y-162078571D01*
X72285714Y-162150000D01*
X72428571Y-162292857D01*
X72500000Y-162578571D01*
X72500000Y-163078571D01*
X72428571Y-163364285D01*
X72285714Y-163507142D01*
X72142857Y-163578571D01*
X71857142Y-163578571D01*
X71714285Y-163507142D01*
X71571428Y-163364285D01*
X71500000Y-163078571D01*
X71500000Y-162578571D01*
X71571428Y-162292857D01*
X71714285Y-162150000D01*
X71857142Y-162078571D01*
X73785714Y-163507142D02*
X73642857Y-163578571D01*
X73357142Y-163578571D01*
X73214285Y-163507142D01*
X73142857Y-163435714D01*
X73071428Y-163292857D01*
X73071428Y-162864285D01*
X73142857Y-162721428D01*
X73214285Y-162650000D01*
X73357142Y-162578571D01*
X73642857Y-162578571D01*
X73785714Y-162650000D01*
X74214285Y-162578571D02*
X74785714Y-162578571D01*
X74428571Y-162078571D02*
X74428571Y-163364285D01*
X74500000Y-163507142D01*
X74642857Y-163578571D01*
X74785714Y-163578571D01*
X76357142Y-162221428D02*
X76428571Y-162150000D01*
X76571428Y-162078571D01*
X76928571Y-162078571D01*
X77071428Y-162150000D01*
X77142857Y-162221428D01*
X77214285Y-162364285D01*
X77214285Y-162507142D01*
X77142857Y-162721428D01*
X76285714Y-163578571D01*
X77214285Y-163578571D01*
X78142857Y-162078571D02*
X78285714Y-162078571D01*
X78428571Y-162150000D01*
X78500000Y-162221428D01*
X78571428Y-162364285D01*
X78642857Y-162650000D01*
X78642857Y-163007142D01*
X78571428Y-163292857D01*
X78500000Y-163435714D01*
X78428571Y-163507142D01*
X78285714Y-163578571D01*
X78142857Y-163578571D01*
X78000000Y-163507142D01*
X77928571Y-163435714D01*
X77857142Y-163292857D01*
X77785714Y-163007142D01*
X77785714Y-162650000D01*
X77857142Y-162364285D01*
X77928571Y-162221428D01*
X78000000Y-162150000D01*
X78142857Y-162078571D01*
X79214285Y-162221428D02*
X79285714Y-162150000D01*
X79428571Y-162078571D01*
X79785714Y-162078571D01*
X79928571Y-162150000D01*
X80000000Y-162221428D01*
X80071428Y-162364285D01*
X80071428Y-162507142D01*
X80000000Y-162721428D01*
X79142857Y-163578571D01*
X80071428Y-163578571D01*
X81000000Y-162078571D02*
X81142857Y-162078571D01*
X81285714Y-162150000D01*
X81357142Y-162221428D01*
X81428571Y-162364285D01*
X81500000Y-162650000D01*
X81500000Y-163007142D01*
X81428571Y-163292857D01*
X81357142Y-163435714D01*
X81285714Y-163507142D01*
X81142857Y-163578571D01*
X81000000Y-163578571D01*
X80857142Y-163507142D01*
X80785714Y-163435714D01*
X80714285Y-163292857D01*
X80642857Y-163007142D01*
X80642857Y-162650000D01*
X80714285Y-162364285D01*
X80785714Y-162221428D01*
X80857142Y-162150000D01*
X81000000Y-162078571D01*
D11*
%TO.C,IC1*%
X73310000Y-135170000D02*
X72060000Y-135170000D01*
X72060000Y-135170000D02*
X72060000Y-153070000D01*
X72060000Y-153070000D02*
X76560000Y-153070000D01*
X76560000Y-153070000D02*
X76560000Y-135170000D01*
X76560000Y-135170000D02*
X75310000Y-135170000D01*
X69060000Y-135110000D02*
X69060000Y-153130000D01*
X69060000Y-153130000D02*
X79560000Y-153130000D01*
X79560000Y-153130000D02*
X79560000Y-135110000D01*
X79560000Y-135110000D02*
X69060000Y-135110000D01*
X75310000Y-135170000D02*
G75*
G02*
X73310000Y-135170000I-1000000J0D01*
G01*
%TO.C,J3*%
X56880000Y-72030000D02*
X56880000Y-66010000D01*
X56880000Y-66010000D02*
X41420000Y-66010000D01*
X41420000Y-66010000D02*
X41420000Y-72030000D01*
X41420000Y-72030000D02*
X56880000Y-72030000D01*
X57170000Y-71000000D02*
X57170000Y-67000000D01*
X55500000Y-66010000D02*
X55500000Y-67010000D01*
X55500000Y-67010000D02*
X42800000Y-67010000D01*
X42800000Y-67010000D02*
X42800000Y-66010000D01*
X55500000Y-67010000D02*
X55250000Y-67540000D01*
X55250000Y-67540000D02*
X43050000Y-67540000D01*
X43050000Y-67540000D02*
X42800000Y-67010000D01*
X55250000Y-66010000D02*
X55250000Y-67010000D01*
X43050000Y-66010000D02*
X43050000Y-67010000D01*
X56300000Y-72030000D02*
X56300000Y-71430000D01*
X56300000Y-71430000D02*
X54700000Y-71430000D01*
X54700000Y-71430000D02*
X54700000Y-72030000D01*
X53760000Y-72030000D02*
X53760000Y-71430000D01*
X53760000Y-71430000D02*
X52160000Y-71430000D01*
X52160000Y-71430000D02*
X52160000Y-72030000D01*
X51220000Y-72030000D02*
X51220000Y-71430000D01*
X51220000Y-71430000D02*
X49620000Y-71430000D01*
X49620000Y-71430000D02*
X49620000Y-72030000D01*
X48680000Y-72030000D02*
X48680000Y-71430000D01*
X48680000Y-71430000D02*
X47080000Y-71430000D01*
X47080000Y-71430000D02*
X47080000Y-72030000D01*
X46140000Y-72030000D02*
X46140000Y-71430000D01*
X46140000Y-71430000D02*
X44540000Y-71430000D01*
X44540000Y-71430000D02*
X44540000Y-72030000D01*
X43600000Y-72030000D02*
X43600000Y-71430000D01*
X43600000Y-71430000D02*
X42000000Y-71430000D01*
X42000000Y-71430000D02*
X42000000Y-72030000D01*
%TO.C,A1*%
X60640000Y-74060000D02*
X42600000Y-74060000D01*
X60640000Y-117500000D02*
X60640000Y-74060000D01*
X42600000Y-117500000D02*
X60640000Y-117500000D01*
X45270000Y-114830000D02*
X42600000Y-114830000D01*
X45270000Y-79270000D02*
X45270000Y-114830000D01*
X45270000Y-79270000D02*
X42600000Y-79270000D01*
X57970000Y-114830000D02*
X60640000Y-114830000D01*
X57970000Y-76730000D02*
X57970000Y-114830000D01*
X57970000Y-76730000D02*
X60640000Y-76730000D01*
X42600000Y-74060000D02*
X42600000Y-76730000D01*
X42600000Y-79270000D02*
X42600000Y-117500000D01*
X45270000Y-76730000D02*
X42600000Y-76730000D01*
X45270000Y-79270000D02*
X45270000Y-76730000D01*
D12*
%TO.C,G\u002A\u002A\u002A*%
G36*
X79935412Y-119852281D02*
G01*
X79998520Y-119853088D01*
X80071885Y-119853844D01*
X80153065Y-119854535D01*
X80239617Y-119855145D01*
X80329098Y-119855659D01*
X80419066Y-119856063D01*
X80507078Y-119856342D01*
X80590690Y-119856480D01*
X80621212Y-119856492D01*
X81016500Y-119856500D01*
X81016500Y-120262900D01*
X80032250Y-120262900D01*
X80032250Y-124358650D01*
X80629150Y-124358650D01*
X80629150Y-120847338D01*
X80484687Y-120845631D01*
X80340225Y-120843925D01*
X80338513Y-120705757D01*
X80336802Y-120567589D01*
X80676903Y-120569232D01*
X81017005Y-120570875D01*
X81018340Y-122667962D01*
X81019675Y-124765050D01*
X79644900Y-124765050D01*
X79644900Y-119848078D01*
X79935412Y-119852281D01*
G37*
X79935412Y-119852281D02*
X79998520Y-119853088D01*
X80071885Y-119853844D01*
X80153065Y-119854535D01*
X80239617Y-119855145D01*
X80329098Y-119855659D01*
X80419066Y-119856063D01*
X80507078Y-119856342D01*
X80590690Y-119856480D01*
X80621212Y-119856492D01*
X81016500Y-119856500D01*
X81016500Y-120262900D01*
X80032250Y-120262900D01*
X80032250Y-124358650D01*
X80629150Y-124358650D01*
X80629150Y-120847338D01*
X80484687Y-120845631D01*
X80340225Y-120843925D01*
X80338513Y-120705757D01*
X80336802Y-120567589D01*
X80676903Y-120569232D01*
X81017005Y-120570875D01*
X81018340Y-122667962D01*
X81019675Y-124765050D01*
X79644900Y-124765050D01*
X79644900Y-119848078D01*
X79935412Y-119852281D01*
G36*
X78598737Y-119851709D02*
G01*
X79286125Y-119853325D01*
X79287720Y-122309187D01*
X79289316Y-124765050D01*
X77911350Y-124765050D01*
X77911350Y-120262900D01*
X78305050Y-120262900D01*
X78305050Y-124358650D01*
X78895600Y-124358650D01*
X78895600Y-120262900D01*
X78305050Y-120262900D01*
X77911350Y-120262900D01*
X77911350Y-119850093D01*
X78598737Y-119851709D01*
G37*
X78598737Y-119851709D02*
X79286125Y-119853325D01*
X79287720Y-122309187D01*
X79289316Y-124765050D01*
X77911350Y-124765050D01*
X77911350Y-120262900D01*
X78305050Y-120262900D01*
X78305050Y-124358650D01*
X78895600Y-124358650D01*
X78895600Y-120262900D01*
X78305050Y-120262900D01*
X77911350Y-120262900D01*
X77911350Y-119850093D01*
X78598737Y-119851709D01*
G36*
X76566728Y-122105987D02*
G01*
X76568325Y-124355475D01*
X77062037Y-124357101D01*
X77555750Y-124358727D01*
X77555750Y-124765050D01*
X76177800Y-124765050D01*
X76177800Y-119856500D01*
X76565132Y-119856500D01*
X76566728Y-122105987D01*
G37*
X76566728Y-122105987D02*
X76568325Y-124355475D01*
X77062037Y-124357101D01*
X77555750Y-124358727D01*
X77555750Y-124765050D01*
X76177800Y-124765050D01*
X76177800Y-119856500D01*
X76565132Y-119856500D01*
X76566728Y-122105987D01*
G36*
X75820620Y-122309187D02*
G01*
X75822216Y-124765050D01*
X75434850Y-124765050D01*
X75434850Y-124358650D01*
X74837950Y-124358650D01*
X74837950Y-124765050D01*
X74444233Y-124765050D01*
X74445829Y-122309187D01*
X74447158Y-120262900D01*
X74837950Y-120262900D01*
X74837950Y-124085725D01*
X75134812Y-124084075D01*
X75431675Y-124082425D01*
X75433272Y-122172662D01*
X75434870Y-120262900D01*
X74837950Y-120262900D01*
X74447158Y-120262900D01*
X74447425Y-119853325D01*
X75819025Y-119853325D01*
X75820620Y-122309187D01*
G37*
X75820620Y-122309187D02*
X75822216Y-124765050D01*
X75434850Y-124765050D01*
X75434850Y-124358650D01*
X74837950Y-124358650D01*
X74837950Y-124765050D01*
X74444233Y-124765050D01*
X74445829Y-122309187D01*
X74447158Y-120262900D01*
X74837950Y-120262900D01*
X74837950Y-124085725D01*
X75134812Y-124084075D01*
X75431675Y-124082425D01*
X75433272Y-122172662D01*
X75434870Y-120262900D01*
X74837950Y-120262900D01*
X74447158Y-120262900D01*
X74447425Y-119853325D01*
X75819025Y-119853325D01*
X75820620Y-122309187D01*
G36*
X74088650Y-124765050D02*
G01*
X73701300Y-124765050D01*
X73701300Y-120262900D01*
X73104400Y-120262900D01*
X73104400Y-124765050D01*
X72717050Y-124765050D01*
X72715509Y-122513975D01*
X72715393Y-122343382D01*
X72715279Y-122174999D01*
X72715166Y-122009333D01*
X72715057Y-121846892D01*
X72714951Y-121688185D01*
X72714848Y-121533718D01*
X72714748Y-121383999D01*
X72714653Y-121239538D01*
X72714562Y-121100841D01*
X72714475Y-120968417D01*
X72714394Y-120842774D01*
X72714318Y-120724418D01*
X72714247Y-120613860D01*
X72714183Y-120511605D01*
X72714125Y-120418163D01*
X72714073Y-120334041D01*
X72714029Y-120259748D01*
X72713991Y-120195790D01*
X72713961Y-120142676D01*
X72713940Y-120100914D01*
X72713926Y-120071012D01*
X72713922Y-120058112D01*
X72713875Y-119853325D01*
X73401262Y-119853098D01*
X74088650Y-119852872D01*
X74088650Y-124765050D01*
G37*
X74088650Y-124765050D02*
X73701300Y-124765050D01*
X73701300Y-120262900D01*
X73104400Y-120262900D01*
X73104400Y-124765050D01*
X72717050Y-124765050D01*
X72715509Y-122513975D01*
X72715393Y-122343382D01*
X72715279Y-122174999D01*
X72715166Y-122009333D01*
X72715057Y-121846892D01*
X72714951Y-121688185D01*
X72714848Y-121533718D01*
X72714748Y-121383999D01*
X72714653Y-121239538D01*
X72714562Y-121100841D01*
X72714475Y-120968417D01*
X72714394Y-120842774D01*
X72714318Y-120724418D01*
X72714247Y-120613860D01*
X72714183Y-120511605D01*
X72714125Y-120418163D01*
X72714073Y-120334041D01*
X72714029Y-120259748D01*
X72713991Y-120195790D01*
X72713961Y-120142676D01*
X72713940Y-120100914D01*
X72713926Y-120071012D01*
X72713922Y-120058112D01*
X72713875Y-119853325D01*
X73401262Y-119853098D01*
X74088650Y-119852872D01*
X74088650Y-124765050D01*
G36*
X72355100Y-124765050D02*
G01*
X71967750Y-124765050D01*
X71967750Y-124358650D01*
X71370850Y-124358650D01*
X71370850Y-124765050D01*
X70983500Y-124765050D01*
X70983372Y-124563437D01*
X70983360Y-124541822D01*
X70983346Y-124508014D01*
X70983329Y-124462520D01*
X70983309Y-124405845D01*
X70983286Y-124338496D01*
X70983262Y-124260980D01*
X70983234Y-124173804D01*
X70983205Y-124077474D01*
X70983174Y-123972497D01*
X70983141Y-123859379D01*
X70983106Y-123738627D01*
X70983070Y-123610748D01*
X70983032Y-123476247D01*
X70982993Y-123335632D01*
X70982953Y-123189410D01*
X70982912Y-123038086D01*
X70982870Y-122882168D01*
X70982827Y-122722162D01*
X70982784Y-122558575D01*
X70982740Y-122391913D01*
X70982696Y-122222682D01*
X70982667Y-122107575D01*
X70982195Y-120262900D01*
X71370850Y-120262900D01*
X71370850Y-124085725D01*
X71667712Y-124084075D01*
X71964575Y-124082425D01*
X71966172Y-122172662D01*
X71967770Y-120262900D01*
X71370850Y-120262900D01*
X70982195Y-120262900D01*
X70982090Y-119853325D01*
X71668595Y-119853098D01*
X72355100Y-119852872D01*
X72355100Y-124765050D01*
G37*
X72355100Y-124765050D02*
X71967750Y-124765050D01*
X71967750Y-124358650D01*
X71370850Y-124358650D01*
X71370850Y-124765050D01*
X70983500Y-124765050D01*
X70983372Y-124563437D01*
X70983360Y-124541822D01*
X70983346Y-124508014D01*
X70983329Y-124462520D01*
X70983309Y-124405845D01*
X70983286Y-124338496D01*
X70983262Y-124260980D01*
X70983234Y-124173804D01*
X70983205Y-124077474D01*
X70983174Y-123972497D01*
X70983141Y-123859379D01*
X70983106Y-123738627D01*
X70983070Y-123610748D01*
X70983032Y-123476247D01*
X70982993Y-123335632D01*
X70982953Y-123189410D01*
X70982912Y-123038086D01*
X70982870Y-122882168D01*
X70982827Y-122722162D01*
X70982784Y-122558575D01*
X70982740Y-122391913D01*
X70982696Y-122222682D01*
X70982667Y-122107575D01*
X70982195Y-120262900D01*
X71370850Y-120262900D01*
X71370850Y-124085725D01*
X71667712Y-124084075D01*
X71964575Y-124082425D01*
X71966172Y-122172662D01*
X71967770Y-120262900D01*
X71370850Y-120262900D01*
X70982195Y-120262900D01*
X70982090Y-119853325D01*
X71668595Y-119853098D01*
X72355100Y-119852872D01*
X72355100Y-124765050D01*
G36*
X81016500Y-125641350D02*
G01*
X80527550Y-125641350D01*
X80527550Y-130143500D01*
X80133850Y-130143500D01*
X80133850Y-125641350D01*
X79644900Y-125641350D01*
X79644900Y-125234950D01*
X81016500Y-125234950D01*
X81016500Y-125641350D01*
G37*
X81016500Y-125641350D02*
X80527550Y-125641350D01*
X80527550Y-130143500D01*
X80133850Y-130143500D01*
X80133850Y-125641350D01*
X79644900Y-125641350D01*
X79644900Y-125234950D01*
X81016500Y-125234950D01*
X81016500Y-125641350D01*
G36*
X77555750Y-126498522D02*
G01*
X77062037Y-126500148D01*
X76568325Y-126501775D01*
X76566726Y-128322637D01*
X76565128Y-130143500D01*
X76177800Y-130143500D01*
X76177800Y-125959181D01*
X76566227Y-125959181D01*
X76566297Y-126001195D01*
X76566542Y-126036245D01*
X76566952Y-126062800D01*
X76567519Y-126079330D01*
X76568039Y-126084220D01*
X76571377Y-126086165D01*
X76580368Y-126087789D01*
X76595905Y-126089117D01*
X76618886Y-126090172D01*
X76650204Y-126090979D01*
X76690756Y-126091561D01*
X76741437Y-126091942D01*
X76803141Y-126092147D01*
X76866575Y-126092200D01*
X77162050Y-126092200D01*
X77162050Y-125641224D01*
X76865187Y-125642874D01*
X76568325Y-125644525D01*
X76566651Y-125860382D01*
X76566342Y-125911733D01*
X76566227Y-125959181D01*
X76177800Y-125959181D01*
X76177800Y-125234950D01*
X77555750Y-125234950D01*
X77555750Y-126498522D01*
G37*
X77555750Y-126498522D02*
X77062037Y-126500148D01*
X76568325Y-126501775D01*
X76566726Y-128322637D01*
X76565128Y-130143500D01*
X76177800Y-130143500D01*
X76177800Y-125959181D01*
X76566227Y-125959181D01*
X76566297Y-126001195D01*
X76566542Y-126036245D01*
X76566952Y-126062800D01*
X76567519Y-126079330D01*
X76568039Y-126084220D01*
X76571377Y-126086165D01*
X76580368Y-126087789D01*
X76595905Y-126089117D01*
X76618886Y-126090172D01*
X76650204Y-126090979D01*
X76690756Y-126091561D01*
X76741437Y-126091942D01*
X76803141Y-126092147D01*
X76866575Y-126092200D01*
X77162050Y-126092200D01*
X77162050Y-125641224D01*
X76865187Y-125642874D01*
X76568325Y-125644525D01*
X76566651Y-125860382D01*
X76566342Y-125911733D01*
X76566227Y-125959181D01*
X76177800Y-125959181D01*
X76177800Y-125234950D01*
X77555750Y-125234950D01*
X77555750Y-126498522D01*
G36*
X75822200Y-125641350D02*
G01*
X75326900Y-125641350D01*
X75326900Y-130143500D01*
X74939550Y-130143500D01*
X74939550Y-125641350D01*
X74444250Y-125641350D01*
X74444250Y-125234950D01*
X75822200Y-125234950D01*
X75822200Y-125641350D01*
G37*
X75822200Y-125641350D02*
X75326900Y-125641350D01*
X75326900Y-130143500D01*
X74939550Y-130143500D01*
X74939550Y-125641350D01*
X74444250Y-125641350D01*
X74444250Y-125234950D01*
X75822200Y-125234950D01*
X75822200Y-125641350D01*
G36*
X78298700Y-129737100D02*
G01*
X78895600Y-129737100D01*
X78895600Y-125234950D01*
X79282950Y-125234950D01*
X79284490Y-127486025D01*
X79284606Y-127656617D01*
X79284720Y-127825000D01*
X79284833Y-127990666D01*
X79284942Y-128153107D01*
X79285048Y-128311814D01*
X79285151Y-128466281D01*
X79285251Y-128616000D01*
X79285346Y-128760461D01*
X79285437Y-128899158D01*
X79285524Y-129031582D01*
X79285605Y-129157225D01*
X79285681Y-129275581D01*
X79285752Y-129386139D01*
X79285816Y-129488394D01*
X79285874Y-129581836D01*
X79285926Y-129665958D01*
X79285970Y-129740251D01*
X79286008Y-129804209D01*
X79286038Y-129857323D01*
X79286059Y-129899085D01*
X79286073Y-129928987D01*
X79286077Y-129941887D01*
X79286125Y-130146675D01*
X78598737Y-130146901D01*
X77911350Y-130147127D01*
X77911350Y-125234950D01*
X78298700Y-125234950D01*
X78298700Y-129737100D01*
G37*
X78298700Y-129737100D02*
X78895600Y-129737100D01*
X78895600Y-125234950D01*
X79282950Y-125234950D01*
X79284490Y-127486025D01*
X79284606Y-127656617D01*
X79284720Y-127825000D01*
X79284833Y-127990666D01*
X79284942Y-128153107D01*
X79285048Y-128311814D01*
X79285151Y-128466281D01*
X79285251Y-128616000D01*
X79285346Y-128760461D01*
X79285437Y-128899158D01*
X79285524Y-129031582D01*
X79285605Y-129157225D01*
X79285681Y-129275581D01*
X79285752Y-129386139D01*
X79285816Y-129488394D01*
X79285874Y-129581836D01*
X79285926Y-129665958D01*
X79285970Y-129740251D01*
X79286008Y-129804209D01*
X79286038Y-129857323D01*
X79286059Y-129899085D01*
X79286073Y-129928987D01*
X79286077Y-129941887D01*
X79286125Y-130146675D01*
X78598737Y-130146901D01*
X77911350Y-130147127D01*
X77911350Y-125234950D01*
X78298700Y-125234950D01*
X78298700Y-129737100D01*
G36*
X73104400Y-129737100D02*
G01*
X73701300Y-129737100D01*
X73701300Y-125234950D01*
X74088650Y-125234950D01*
X74088650Y-130147095D01*
X73402373Y-130147095D01*
X73310147Y-130147064D01*
X73221541Y-130146975D01*
X73137377Y-130146831D01*
X73058473Y-130146637D01*
X72985649Y-130146396D01*
X72919725Y-130146112D01*
X72861520Y-130145790D01*
X72811855Y-130145434D01*
X72771547Y-130145047D01*
X72741419Y-130144634D01*
X72722288Y-130144199D01*
X72714974Y-130143745D01*
X72714925Y-130143710D01*
X72714846Y-130137187D01*
X72714780Y-130118398D01*
X72714725Y-130087776D01*
X72714682Y-130045754D01*
X72714651Y-129992765D01*
X72714631Y-129929243D01*
X72714623Y-129855622D01*
X72714625Y-129772333D01*
X72714639Y-129679812D01*
X72714663Y-129578492D01*
X72714698Y-129468804D01*
X72714744Y-129351184D01*
X72714799Y-129226065D01*
X72714865Y-129093879D01*
X72714941Y-128955060D01*
X72715026Y-128810042D01*
X72715121Y-128659258D01*
X72715226Y-128503141D01*
X72715340Y-128342124D01*
X72715463Y-128176642D01*
X72715595Y-128007127D01*
X72715735Y-127834012D01*
X72715859Y-127687637D01*
X72717965Y-125234950D01*
X73104400Y-125234950D01*
X73104400Y-129737100D01*
G37*
X73104400Y-129737100D02*
X73701300Y-129737100D01*
X73701300Y-125234950D01*
X74088650Y-125234950D01*
X74088650Y-130147095D01*
X73402373Y-130147095D01*
X73310147Y-130147064D01*
X73221541Y-130146975D01*
X73137377Y-130146831D01*
X73058473Y-130146637D01*
X72985649Y-130146396D01*
X72919725Y-130146112D01*
X72861520Y-130145790D01*
X72811855Y-130145434D01*
X72771547Y-130145047D01*
X72741419Y-130144634D01*
X72722288Y-130144199D01*
X72714974Y-130143745D01*
X72714925Y-130143710D01*
X72714846Y-130137187D01*
X72714780Y-130118398D01*
X72714725Y-130087776D01*
X72714682Y-130045754D01*
X72714651Y-129992765D01*
X72714631Y-129929243D01*
X72714623Y-129855622D01*
X72714625Y-129772333D01*
X72714639Y-129679812D01*
X72714663Y-129578492D01*
X72714698Y-129468804D01*
X72714744Y-129351184D01*
X72714799Y-129226065D01*
X72714865Y-129093879D01*
X72714941Y-128955060D01*
X72715026Y-128810042D01*
X72715121Y-128659258D01*
X72715226Y-128503141D01*
X72715340Y-128342124D01*
X72715463Y-128176642D01*
X72715595Y-128007127D01*
X72715735Y-127834012D01*
X72715859Y-127687637D01*
X72717965Y-125234950D01*
X73104400Y-125234950D01*
X73104400Y-129737100D01*
G36*
X72355100Y-130149850D02*
G01*
X71670358Y-130149850D01*
X71578164Y-130149811D01*
X71489542Y-130149699D01*
X71405319Y-130149519D01*
X71326320Y-130149275D01*
X71253370Y-130148972D01*
X71187295Y-130148617D01*
X71128920Y-130148213D01*
X71079070Y-130147766D01*
X71038572Y-130147281D01*
X71008250Y-130146764D01*
X70988929Y-130146218D01*
X70981437Y-130145649D01*
X70981383Y-130145616D01*
X70981079Y-130139033D01*
X70980782Y-130120182D01*
X70980490Y-130089499D01*
X70980206Y-130047417D01*
X70979930Y-129994368D01*
X70979662Y-129930787D01*
X70979403Y-129857108D01*
X70979155Y-129773763D01*
X70978918Y-129681186D01*
X70978692Y-129579811D01*
X70978478Y-129470070D01*
X70978278Y-129352399D01*
X70978091Y-129227230D01*
X70977919Y-129094997D01*
X70977762Y-128956133D01*
X70977622Y-128811072D01*
X70977498Y-128660247D01*
X70977392Y-128504092D01*
X70977304Y-128343040D01*
X70977235Y-128177526D01*
X70977186Y-128007981D01*
X70977157Y-127834841D01*
X70977150Y-127688166D01*
X70977150Y-125641350D01*
X71370850Y-125641350D01*
X71370850Y-129737100D01*
X71967750Y-129737100D01*
X71967750Y-125641350D01*
X71370850Y-125641350D01*
X70977150Y-125641350D01*
X70977150Y-125234950D01*
X72355100Y-125234950D01*
X72355100Y-130149850D01*
G37*
X72355100Y-130149850D02*
X71670358Y-130149850D01*
X71578164Y-130149811D01*
X71489542Y-130149699D01*
X71405319Y-130149519D01*
X71326320Y-130149275D01*
X71253370Y-130148972D01*
X71187295Y-130148617D01*
X71128920Y-130148213D01*
X71079070Y-130147766D01*
X71038572Y-130147281D01*
X71008250Y-130146764D01*
X70988929Y-130146218D01*
X70981437Y-130145649D01*
X70981383Y-130145616D01*
X70981079Y-130139033D01*
X70980782Y-130120182D01*
X70980490Y-130089499D01*
X70980206Y-130047417D01*
X70979930Y-129994368D01*
X70979662Y-129930787D01*
X70979403Y-129857108D01*
X70979155Y-129773763D01*
X70978918Y-129681186D01*
X70978692Y-129579811D01*
X70978478Y-129470070D01*
X70978278Y-129352399D01*
X70978091Y-129227230D01*
X70977919Y-129094997D01*
X70977762Y-128956133D01*
X70977622Y-128811072D01*
X70977498Y-128660247D01*
X70977392Y-128504092D01*
X70977304Y-128343040D01*
X70977235Y-128177526D01*
X70977186Y-128007981D01*
X70977157Y-127834841D01*
X70977150Y-127688166D01*
X70977150Y-125641350D01*
X71370850Y-125641350D01*
X71370850Y-129737100D01*
X71967750Y-129737100D01*
X71967750Y-125641350D01*
X71370850Y-125641350D01*
X70977150Y-125641350D01*
X70977150Y-125234950D01*
X72355100Y-125234950D01*
X72355100Y-130149850D01*
G36*
X76174991Y-116975735D02*
G01*
X76390629Y-116982774D01*
X76598909Y-116995337D01*
X76609600Y-116996151D01*
X76928374Y-117027031D01*
X77244574Y-117070289D01*
X77557904Y-117125818D01*
X77868072Y-117193510D01*
X78174782Y-117273257D01*
X78477741Y-117364950D01*
X78776654Y-117468480D01*
X79071227Y-117583741D01*
X79361166Y-117710622D01*
X79646177Y-117849017D01*
X79925965Y-117998816D01*
X80200237Y-118159912D01*
X80468699Y-118332196D01*
X80724400Y-118510716D01*
X80972396Y-118698759D01*
X81213921Y-118897428D01*
X81448286Y-119106041D01*
X81674801Y-119323919D01*
X81892777Y-119550380D01*
X82101524Y-119784742D01*
X82300355Y-120026326D01*
X82433860Y-120200161D01*
X82618876Y-120458787D01*
X82793230Y-120724146D01*
X82956761Y-120995861D01*
X83109306Y-121273556D01*
X83250704Y-121556854D01*
X83380794Y-121845380D01*
X83499413Y-122138756D01*
X83606399Y-122436608D01*
X83701591Y-122738557D01*
X83784827Y-123044229D01*
X83855945Y-123353246D01*
X83909055Y-123631575D01*
X83937042Y-123804235D01*
X83961037Y-123975168D01*
X83981439Y-124147803D01*
X83998648Y-124325570D01*
X84013063Y-124511896D01*
X84014931Y-124539625D01*
X84017042Y-124579936D01*
X84018835Y-124631142D01*
X84020311Y-124691464D01*
X84021469Y-124759124D01*
X84022310Y-124832341D01*
X84022833Y-124909338D01*
X84023039Y-124988334D01*
X84022926Y-125067552D01*
X84022496Y-125145212D01*
X84021748Y-125219534D01*
X84020681Y-125288741D01*
X84019296Y-125351053D01*
X84017593Y-125404691D01*
X84015571Y-125447876D01*
X84014991Y-125457200D01*
X83993639Y-125725334D01*
X83965676Y-125984351D01*
X83930812Y-126236148D01*
X83888757Y-126482622D01*
X83839221Y-126725671D01*
X83787955Y-126943241D01*
X83703741Y-127253427D01*
X83607846Y-127558673D01*
X83500362Y-127858811D01*
X83381378Y-128153671D01*
X83250984Y-128443085D01*
X83109271Y-128726882D01*
X82956329Y-129004895D01*
X82792247Y-129276954D01*
X82617117Y-129542889D01*
X82431028Y-129802532D01*
X82234070Y-130055714D01*
X82026334Y-130302265D01*
X81954446Y-130383239D01*
X81922488Y-130418069D01*
X81882958Y-130460027D01*
X81837387Y-130507566D01*
X81787310Y-130559144D01*
X81734262Y-130613214D01*
X81679776Y-130668232D01*
X81625386Y-130722654D01*
X81572626Y-130774935D01*
X81523031Y-130823529D01*
X81478134Y-130866893D01*
X81439469Y-130903481D01*
X81419725Y-130921698D01*
X81177164Y-131134082D01*
X80927826Y-131335786D01*
X80671968Y-131526703D01*
X80409846Y-131706729D01*
X80141717Y-131875757D01*
X79867836Y-132033681D01*
X79588462Y-132180395D01*
X79303851Y-132315794D01*
X79014258Y-132439772D01*
X78719941Y-132552223D01*
X78421156Y-132653041D01*
X78118160Y-132742120D01*
X77811210Y-132819355D01*
X77500562Y-132884638D01*
X77186472Y-132937866D01*
X76869198Y-132978931D01*
X76548996Y-133007728D01*
X76333375Y-133020087D01*
X76294019Y-133021469D01*
X76244526Y-133022637D01*
X76187151Y-133023583D01*
X76124151Y-133024301D01*
X76057781Y-133024782D01*
X75990295Y-133025020D01*
X75923951Y-133025006D01*
X75861003Y-133024734D01*
X75803708Y-133024196D01*
X75754319Y-133023385D01*
X75715094Y-133022293D01*
X75711075Y-133022138D01*
X75389278Y-133003071D01*
X75070045Y-132971720D01*
X74753659Y-132928190D01*
X74440404Y-132872587D01*
X74130562Y-132805016D01*
X73824416Y-132725583D01*
X73522249Y-132634392D01*
X73224345Y-132531550D01*
X72930987Y-132417162D01*
X72642457Y-132291333D01*
X72359038Y-132154168D01*
X72081015Y-132005773D01*
X71808669Y-131846253D01*
X71542285Y-131675714D01*
X71282144Y-131494261D01*
X71028530Y-131302000D01*
X70973975Y-131258532D01*
X70762582Y-131082109D01*
X70553698Y-130894938D01*
X70349323Y-130698964D01*
X70151459Y-130496129D01*
X69962107Y-130288375D01*
X69894199Y-130210175D01*
X69696322Y-129969527D01*
X69507571Y-129720284D01*
X69328302Y-129463034D01*
X69158871Y-129198365D01*
X68999632Y-128926867D01*
X68850941Y-128649127D01*
X68713153Y-128365734D01*
X68586623Y-128077277D01*
X68544962Y-127974975D01*
X68433049Y-127677599D01*
X68333287Y-127376886D01*
X68245687Y-127073211D01*
X68170261Y-126766952D01*
X68107022Y-126458484D01*
X68055980Y-126148185D01*
X68017150Y-125836431D01*
X67990541Y-125523599D01*
X67976167Y-125210065D01*
X67974743Y-125000000D01*
X68059475Y-125000000D01*
X68059580Y-125096293D01*
X68059947Y-125181638D01*
X68060658Y-125257786D01*
X68061792Y-125326488D01*
X68063429Y-125389495D01*
X68065649Y-125448557D01*
X68068532Y-125505424D01*
X68072159Y-125561849D01*
X68076609Y-125619581D01*
X68081963Y-125680371D01*
X68088301Y-125745971D01*
X68095702Y-125818131D01*
X68097812Y-125838200D01*
X68137267Y-126151784D01*
X68189082Y-126462810D01*
X68253113Y-126770937D01*
X68329214Y-127075827D01*
X68417242Y-127377138D01*
X68517051Y-127674531D01*
X68628497Y-127967665D01*
X68751435Y-128256201D01*
X68885722Y-128539799D01*
X69031211Y-128818118D01*
X69187758Y-129090819D01*
X69355219Y-129357562D01*
X69533450Y-129618007D01*
X69722304Y-129871813D01*
X69915722Y-130111595D01*
X69974700Y-130181174D01*
X70031615Y-130246716D01*
X70088272Y-130310173D01*
X70146476Y-130373500D01*
X70208032Y-130438647D01*
X70274744Y-130507568D01*
X70348418Y-130582215D01*
X70379871Y-130613744D01*
X70508278Y-130740062D01*
X70632218Y-130857562D01*
X70753963Y-130968192D01*
X70875785Y-131073898D01*
X70999956Y-131176628D01*
X71128745Y-131278330D01*
X71264427Y-131380950D01*
X71337040Y-131434290D01*
X71579212Y-131603233D01*
X71830297Y-131764170D01*
X72089121Y-131916523D01*
X72354511Y-132059718D01*
X72625290Y-132193179D01*
X72900285Y-132316331D01*
X73178321Y-132428598D01*
X73458223Y-132529404D01*
X73738818Y-132618175D01*
X73774325Y-132628524D01*
X74003846Y-132691549D01*
X74229880Y-132746941D01*
X74454561Y-132795055D01*
X74680028Y-132836244D01*
X74908415Y-132870863D01*
X75141859Y-132899267D01*
X75382498Y-132921810D01*
X75632466Y-132938847D01*
X75650750Y-132939864D01*
X75678707Y-132940894D01*
X75717779Y-132941600D01*
X75766385Y-132942002D01*
X75822944Y-132942121D01*
X75885874Y-132941975D01*
X75953596Y-132941584D01*
X76024528Y-132940970D01*
X76097089Y-132940150D01*
X76169698Y-132939146D01*
X76240776Y-132937976D01*
X76308740Y-132936661D01*
X76372010Y-132935221D01*
X76429005Y-132933675D01*
X76478144Y-132932043D01*
X76517846Y-132930346D01*
X76546100Y-132928635D01*
X76690558Y-132916665D01*
X76825841Y-132903570D01*
X76955455Y-132888923D01*
X77082903Y-132872300D01*
X77211692Y-132853277D01*
X77339850Y-132832359D01*
X77649490Y-132773295D01*
X77956131Y-132701975D01*
X78259392Y-132618569D01*
X78558895Y-132523249D01*
X78854263Y-132416185D01*
X79145116Y-132297547D01*
X79431077Y-132167506D01*
X79711766Y-132026233D01*
X79986806Y-131873898D01*
X80255819Y-131710672D01*
X80518425Y-131536725D01*
X80774247Y-131352227D01*
X80981575Y-131190866D01*
X81189717Y-131017043D01*
X81394452Y-130833804D01*
X81593631Y-130643227D01*
X81785102Y-130447393D01*
X81966715Y-130248381D01*
X82022169Y-130184632D01*
X82225140Y-129938812D01*
X82417637Y-129685875D01*
X82599532Y-129426036D01*
X82770694Y-129159510D01*
X82930991Y-128886511D01*
X83080295Y-128607255D01*
X83218473Y-128321957D01*
X83345396Y-128030832D01*
X83376354Y-127954666D01*
X83488636Y-127657325D01*
X83588792Y-127356408D01*
X83676748Y-127052227D01*
X83752428Y-126745092D01*
X83815756Y-126435316D01*
X83866658Y-126123210D01*
X83905058Y-125809086D01*
X83911817Y-125739775D01*
X83917793Y-125674465D01*
X83922893Y-125615676D01*
X83927185Y-125561664D01*
X83930737Y-125510687D01*
X83933618Y-125461004D01*
X83935894Y-125410873D01*
X83937634Y-125358551D01*
X83938907Y-125302296D01*
X83939779Y-125240367D01*
X83940319Y-125171022D01*
X83940595Y-125092518D01*
X83940674Y-125003113D01*
X83940675Y-125000000D01*
X83940600Y-124910211D01*
X83940332Y-124831379D01*
X83939801Y-124761763D01*
X83938941Y-124699620D01*
X83937683Y-124643208D01*
X83935959Y-124590785D01*
X83933701Y-124540610D01*
X83930841Y-124490940D01*
X83927312Y-124440033D01*
X83923045Y-124386147D01*
X83917972Y-124327541D01*
X83912026Y-124262471D01*
X83911817Y-124260225D01*
X83876271Y-123946587D01*
X83828284Y-123635048D01*
X83767999Y-123325996D01*
X83695559Y-123019818D01*
X83611109Y-122716902D01*
X83514791Y-122417635D01*
X83406748Y-122122406D01*
X83287124Y-121831601D01*
X83156061Y-121545608D01*
X83013704Y-121264815D01*
X82860196Y-120989610D01*
X82695679Y-120720379D01*
X82520297Y-120457511D01*
X82490694Y-120415300D01*
X82303809Y-120161644D01*
X82106646Y-119915341D01*
X81899486Y-119676690D01*
X81682611Y-119445990D01*
X81456304Y-119223539D01*
X81220846Y-119009637D01*
X80976519Y-118804582D01*
X80953000Y-118785687D01*
X80709432Y-118598764D01*
X80457192Y-118420822D01*
X80196942Y-118252232D01*
X79929348Y-118093367D01*
X79655075Y-117944601D01*
X79374787Y-117806305D01*
X79089149Y-117678853D01*
X78798825Y-117562617D01*
X78717800Y-117532502D01*
X78434472Y-117435024D01*
X78148299Y-117348738D01*
X77858533Y-117273486D01*
X77564427Y-117209108D01*
X77265234Y-117155447D01*
X76960209Y-117112344D01*
X76648604Y-117079641D01*
X76539750Y-117070767D01*
X76488630Y-117067595D01*
X76426592Y-117064898D01*
X76355407Y-117062679D01*
X76276847Y-117060935D01*
X76192685Y-117059667D01*
X76104691Y-117058876D01*
X76014639Y-117058561D01*
X75924300Y-117058722D01*
X75835447Y-117059359D01*
X75749851Y-117060473D01*
X75669284Y-117062062D01*
X75595520Y-117064128D01*
X75530329Y-117066670D01*
X75475483Y-117069689D01*
X75460250Y-117070767D01*
X75184454Y-117095598D01*
X74917162Y-117127842D01*
X74656314Y-117167858D01*
X74399856Y-117216002D01*
X74145729Y-117272631D01*
X73891876Y-117338104D01*
X73842681Y-117351805D01*
X73542873Y-117442852D01*
X73246573Y-117545948D01*
X72954304Y-117660819D01*
X72666593Y-117787187D01*
X72383963Y-117924778D01*
X72106940Y-118073317D01*
X71836048Y-118232527D01*
X71571812Y-118402134D01*
X71314756Y-118581861D01*
X71065405Y-118771434D01*
X70930372Y-118880928D01*
X70785437Y-119004537D01*
X70638871Y-119135990D01*
X70493080Y-119272948D01*
X70350470Y-119413072D01*
X70213447Y-119554023D01*
X70084417Y-119693463D01*
X70021431Y-119764425D01*
X69817557Y-120007239D01*
X69624008Y-120257244D01*
X69440935Y-120514096D01*
X69268488Y-120777449D01*
X69106817Y-121046959D01*
X68956073Y-121322283D01*
X68816408Y-121603076D01*
X68687970Y-121888995D01*
X68570912Y-122179694D01*
X68465383Y-122474830D01*
X68371534Y-122774058D01*
X68289515Y-123077035D01*
X68219478Y-123383415D01*
X68161572Y-123692856D01*
X68115949Y-124005012D01*
X68097812Y-124161800D01*
X68090121Y-124235953D01*
X68083514Y-124303091D01*
X68077912Y-124364965D01*
X68073235Y-124423324D01*
X68069401Y-124479920D01*
X68066332Y-124536504D01*
X68063947Y-124594826D01*
X68062166Y-124656638D01*
X68060909Y-124723689D01*
X68060096Y-124797731D01*
X68059647Y-124880515D01*
X68059481Y-124973791D01*
X68059475Y-125000000D01*
X67974743Y-125000000D01*
X67974039Y-124896206D01*
X67984169Y-124582399D01*
X68006569Y-124269019D01*
X68041252Y-123956445D01*
X68088229Y-123645052D01*
X68147512Y-123335217D01*
X68219113Y-123027317D01*
X68303045Y-122721728D01*
X68370756Y-122504450D01*
X68475926Y-122203487D01*
X68592745Y-121907463D01*
X68721048Y-121616663D01*
X68860665Y-121331376D01*
X69011429Y-121051888D01*
X69173174Y-120778485D01*
X69345731Y-120511455D01*
X69528932Y-120251084D01*
X69722611Y-119997661D01*
X69926599Y-119751470D01*
X70078462Y-119580275D01*
X70108217Y-119548295D01*
X70145594Y-119509116D01*
X70189029Y-119464307D01*
X70236954Y-119415433D01*
X70287803Y-119364061D01*
X70340008Y-119311757D01*
X70392004Y-119260090D01*
X70442222Y-119210624D01*
X70489097Y-119164928D01*
X70531062Y-119124568D01*
X70566549Y-119091110D01*
X70580275Y-119078462D01*
X70821047Y-118867276D01*
X71069184Y-118666321D01*
X71324396Y-118475760D01*
X71586395Y-118295753D01*
X71854890Y-118126464D01*
X72129594Y-117968054D01*
X72410216Y-117820685D01*
X72696469Y-117684520D01*
X72988061Y-117559720D01*
X73284705Y-117446447D01*
X73586111Y-117344863D01*
X73777500Y-117287174D01*
X74086397Y-117204847D01*
X74398110Y-117134900D01*
X74712588Y-117077345D01*
X75029775Y-117032191D01*
X75314200Y-117002451D01*
X75521597Y-116987578D01*
X75736707Y-116978156D01*
X75955760Y-116974202D01*
X76174991Y-116975735D01*
G37*
X76174991Y-116975735D02*
X76390629Y-116982774D01*
X76598909Y-116995337D01*
X76609600Y-116996151D01*
X76928374Y-117027031D01*
X77244574Y-117070289D01*
X77557904Y-117125818D01*
X77868072Y-117193510D01*
X78174782Y-117273257D01*
X78477741Y-117364950D01*
X78776654Y-117468480D01*
X79071227Y-117583741D01*
X79361166Y-117710622D01*
X79646177Y-117849017D01*
X79925965Y-117998816D01*
X80200237Y-118159912D01*
X80468699Y-118332196D01*
X80724400Y-118510716D01*
X80972396Y-118698759D01*
X81213921Y-118897428D01*
X81448286Y-119106041D01*
X81674801Y-119323919D01*
X81892777Y-119550380D01*
X82101524Y-119784742D01*
X82300355Y-120026326D01*
X82433860Y-120200161D01*
X82618876Y-120458787D01*
X82793230Y-120724146D01*
X82956761Y-120995861D01*
X83109306Y-121273556D01*
X83250704Y-121556854D01*
X83380794Y-121845380D01*
X83499413Y-122138756D01*
X83606399Y-122436608D01*
X83701591Y-122738557D01*
X83784827Y-123044229D01*
X83855945Y-123353246D01*
X83909055Y-123631575D01*
X83937042Y-123804235D01*
X83961037Y-123975168D01*
X83981439Y-124147803D01*
X83998648Y-124325570D01*
X84013063Y-124511896D01*
X84014931Y-124539625D01*
X84017042Y-124579936D01*
X84018835Y-124631142D01*
X84020311Y-124691464D01*
X84021469Y-124759124D01*
X84022310Y-124832341D01*
X84022833Y-124909338D01*
X84023039Y-124988334D01*
X84022926Y-125067552D01*
X84022496Y-125145212D01*
X84021748Y-125219534D01*
X84020681Y-125288741D01*
X84019296Y-125351053D01*
X84017593Y-125404691D01*
X84015571Y-125447876D01*
X84014991Y-125457200D01*
X83993639Y-125725334D01*
X83965676Y-125984351D01*
X83930812Y-126236148D01*
X83888757Y-126482622D01*
X83839221Y-126725671D01*
X83787955Y-126943241D01*
X83703741Y-127253427D01*
X83607846Y-127558673D01*
X83500362Y-127858811D01*
X83381378Y-128153671D01*
X83250984Y-128443085D01*
X83109271Y-128726882D01*
X82956329Y-129004895D01*
X82792247Y-129276954D01*
X82617117Y-129542889D01*
X82431028Y-129802532D01*
X82234070Y-130055714D01*
X82026334Y-130302265D01*
X81954446Y-130383239D01*
X81922488Y-130418069D01*
X81882958Y-130460027D01*
X81837387Y-130507566D01*
X81787310Y-130559144D01*
X81734262Y-130613214D01*
X81679776Y-130668232D01*
X81625386Y-130722654D01*
X81572626Y-130774935D01*
X81523031Y-130823529D01*
X81478134Y-130866893D01*
X81439469Y-130903481D01*
X81419725Y-130921698D01*
X81177164Y-131134082D01*
X80927826Y-131335786D01*
X80671968Y-131526703D01*
X80409846Y-131706729D01*
X80141717Y-131875757D01*
X79867836Y-132033681D01*
X79588462Y-132180395D01*
X79303851Y-132315794D01*
X79014258Y-132439772D01*
X78719941Y-132552223D01*
X78421156Y-132653041D01*
X78118160Y-132742120D01*
X77811210Y-132819355D01*
X77500562Y-132884638D01*
X77186472Y-132937866D01*
X76869198Y-132978931D01*
X76548996Y-133007728D01*
X76333375Y-133020087D01*
X76294019Y-133021469D01*
X76244526Y-133022637D01*
X76187151Y-133023583D01*
X76124151Y-133024301D01*
X76057781Y-133024782D01*
X75990295Y-133025020D01*
X75923951Y-133025006D01*
X75861003Y-133024734D01*
X75803708Y-133024196D01*
X75754319Y-133023385D01*
X75715094Y-133022293D01*
X75711075Y-133022138D01*
X75389278Y-133003071D01*
X75070045Y-132971720D01*
X74753659Y-132928190D01*
X74440404Y-132872587D01*
X74130562Y-132805016D01*
X73824416Y-132725583D01*
X73522249Y-132634392D01*
X73224345Y-132531550D01*
X72930987Y-132417162D01*
X72642457Y-132291333D01*
X72359038Y-132154168D01*
X72081015Y-132005773D01*
X71808669Y-131846253D01*
X71542285Y-131675714D01*
X71282144Y-131494261D01*
X71028530Y-131302000D01*
X70973975Y-131258532D01*
X70762582Y-131082109D01*
X70553698Y-130894938D01*
X70349323Y-130698964D01*
X70151459Y-130496129D01*
X69962107Y-130288375D01*
X69894199Y-130210175D01*
X69696322Y-129969527D01*
X69507571Y-129720284D01*
X69328302Y-129463034D01*
X69158871Y-129198365D01*
X68999632Y-128926867D01*
X68850941Y-128649127D01*
X68713153Y-128365734D01*
X68586623Y-128077277D01*
X68544962Y-127974975D01*
X68433049Y-127677599D01*
X68333287Y-127376886D01*
X68245687Y-127073211D01*
X68170261Y-126766952D01*
X68107022Y-126458484D01*
X68055980Y-126148185D01*
X68017150Y-125836431D01*
X67990541Y-125523599D01*
X67976167Y-125210065D01*
X67974743Y-125000000D01*
X68059475Y-125000000D01*
X68059580Y-125096293D01*
X68059947Y-125181638D01*
X68060658Y-125257786D01*
X68061792Y-125326488D01*
X68063429Y-125389495D01*
X68065649Y-125448557D01*
X68068532Y-125505424D01*
X68072159Y-125561849D01*
X68076609Y-125619581D01*
X68081963Y-125680371D01*
X68088301Y-125745971D01*
X68095702Y-125818131D01*
X68097812Y-125838200D01*
X68137267Y-126151784D01*
X68189082Y-126462810D01*
X68253113Y-126770937D01*
X68329214Y-127075827D01*
X68417242Y-127377138D01*
X68517051Y-127674531D01*
X68628497Y-127967665D01*
X68751435Y-128256201D01*
X68885722Y-128539799D01*
X69031211Y-128818118D01*
X69187758Y-129090819D01*
X69355219Y-129357562D01*
X69533450Y-129618007D01*
X69722304Y-129871813D01*
X69915722Y-130111595D01*
X69974700Y-130181174D01*
X70031615Y-130246716D01*
X70088272Y-130310173D01*
X70146476Y-130373500D01*
X70208032Y-130438647D01*
X70274744Y-130507568D01*
X70348418Y-130582215D01*
X70379871Y-130613744D01*
X70508278Y-130740062D01*
X70632218Y-130857562D01*
X70753963Y-130968192D01*
X70875785Y-131073898D01*
X70999956Y-131176628D01*
X71128745Y-131278330D01*
X71264427Y-131380950D01*
X71337040Y-131434290D01*
X71579212Y-131603233D01*
X71830297Y-131764170D01*
X72089121Y-131916523D01*
X72354511Y-132059718D01*
X72625290Y-132193179D01*
X72900285Y-132316331D01*
X73178321Y-132428598D01*
X73458223Y-132529404D01*
X73738818Y-132618175D01*
X73774325Y-132628524D01*
X74003846Y-132691549D01*
X74229880Y-132746941D01*
X74454561Y-132795055D01*
X74680028Y-132836244D01*
X74908415Y-132870863D01*
X75141859Y-132899267D01*
X75382498Y-132921810D01*
X75632466Y-132938847D01*
X75650750Y-132939864D01*
X75678707Y-132940894D01*
X75717779Y-132941600D01*
X75766385Y-132942002D01*
X75822944Y-132942121D01*
X75885874Y-132941975D01*
X75953596Y-132941584D01*
X76024528Y-132940970D01*
X76097089Y-132940150D01*
X76169698Y-132939146D01*
X76240776Y-132937976D01*
X76308740Y-132936661D01*
X76372010Y-132935221D01*
X76429005Y-132933675D01*
X76478144Y-132932043D01*
X76517846Y-132930346D01*
X76546100Y-132928635D01*
X76690558Y-132916665D01*
X76825841Y-132903570D01*
X76955455Y-132888923D01*
X77082903Y-132872300D01*
X77211692Y-132853277D01*
X77339850Y-132832359D01*
X77649490Y-132773295D01*
X77956131Y-132701975D01*
X78259392Y-132618569D01*
X78558895Y-132523249D01*
X78854263Y-132416185D01*
X79145116Y-132297547D01*
X79431077Y-132167506D01*
X79711766Y-132026233D01*
X79986806Y-131873898D01*
X80255819Y-131710672D01*
X80518425Y-131536725D01*
X80774247Y-131352227D01*
X80981575Y-131190866D01*
X81189717Y-131017043D01*
X81394452Y-130833804D01*
X81593631Y-130643227D01*
X81785102Y-130447393D01*
X81966715Y-130248381D01*
X82022169Y-130184632D01*
X82225140Y-129938812D01*
X82417637Y-129685875D01*
X82599532Y-129426036D01*
X82770694Y-129159510D01*
X82930991Y-128886511D01*
X83080295Y-128607255D01*
X83218473Y-128321957D01*
X83345396Y-128030832D01*
X83376354Y-127954666D01*
X83488636Y-127657325D01*
X83588792Y-127356408D01*
X83676748Y-127052227D01*
X83752428Y-126745092D01*
X83815756Y-126435316D01*
X83866658Y-126123210D01*
X83905058Y-125809086D01*
X83911817Y-125739775D01*
X83917793Y-125674465D01*
X83922893Y-125615676D01*
X83927185Y-125561664D01*
X83930737Y-125510687D01*
X83933618Y-125461004D01*
X83935894Y-125410873D01*
X83937634Y-125358551D01*
X83938907Y-125302296D01*
X83939779Y-125240367D01*
X83940319Y-125171022D01*
X83940595Y-125092518D01*
X83940674Y-125003113D01*
X83940675Y-125000000D01*
X83940600Y-124910211D01*
X83940332Y-124831379D01*
X83939801Y-124761763D01*
X83938941Y-124699620D01*
X83937683Y-124643208D01*
X83935959Y-124590785D01*
X83933701Y-124540610D01*
X83930841Y-124490940D01*
X83927312Y-124440033D01*
X83923045Y-124386147D01*
X83917972Y-124327541D01*
X83912026Y-124262471D01*
X83911817Y-124260225D01*
X83876271Y-123946587D01*
X83828284Y-123635048D01*
X83767999Y-123325996D01*
X83695559Y-123019818D01*
X83611109Y-122716902D01*
X83514791Y-122417635D01*
X83406748Y-122122406D01*
X83287124Y-121831601D01*
X83156061Y-121545608D01*
X83013704Y-121264815D01*
X82860196Y-120989610D01*
X82695679Y-120720379D01*
X82520297Y-120457511D01*
X82490694Y-120415300D01*
X82303809Y-120161644D01*
X82106646Y-119915341D01*
X81899486Y-119676690D01*
X81682611Y-119445990D01*
X81456304Y-119223539D01*
X81220846Y-119009637D01*
X80976519Y-118804582D01*
X80953000Y-118785687D01*
X80709432Y-118598764D01*
X80457192Y-118420822D01*
X80196942Y-118252232D01*
X79929348Y-118093367D01*
X79655075Y-117944601D01*
X79374787Y-117806305D01*
X79089149Y-117678853D01*
X78798825Y-117562617D01*
X78717800Y-117532502D01*
X78434472Y-117435024D01*
X78148299Y-117348738D01*
X77858533Y-117273486D01*
X77564427Y-117209108D01*
X77265234Y-117155447D01*
X76960209Y-117112344D01*
X76648604Y-117079641D01*
X76539750Y-117070767D01*
X76488630Y-117067595D01*
X76426592Y-117064898D01*
X76355407Y-117062679D01*
X76276847Y-117060935D01*
X76192685Y-117059667D01*
X76104691Y-117058876D01*
X76014639Y-117058561D01*
X75924300Y-117058722D01*
X75835447Y-117059359D01*
X75749851Y-117060473D01*
X75669284Y-117062062D01*
X75595520Y-117064128D01*
X75530329Y-117066670D01*
X75475483Y-117069689D01*
X75460250Y-117070767D01*
X75184454Y-117095598D01*
X74917162Y-117127842D01*
X74656314Y-117167858D01*
X74399856Y-117216002D01*
X74145729Y-117272631D01*
X73891876Y-117338104D01*
X73842681Y-117351805D01*
X73542873Y-117442852D01*
X73246573Y-117545948D01*
X72954304Y-117660819D01*
X72666593Y-117787187D01*
X72383963Y-117924778D01*
X72106940Y-118073317D01*
X71836048Y-118232527D01*
X71571812Y-118402134D01*
X71314756Y-118581861D01*
X71065405Y-118771434D01*
X70930372Y-118880928D01*
X70785437Y-119004537D01*
X70638871Y-119135990D01*
X70493080Y-119272948D01*
X70350470Y-119413072D01*
X70213447Y-119554023D01*
X70084417Y-119693463D01*
X70021431Y-119764425D01*
X69817557Y-120007239D01*
X69624008Y-120257244D01*
X69440935Y-120514096D01*
X69268488Y-120777449D01*
X69106817Y-121046959D01*
X68956073Y-121322283D01*
X68816408Y-121603076D01*
X68687970Y-121888995D01*
X68570912Y-122179694D01*
X68465383Y-122474830D01*
X68371534Y-122774058D01*
X68289515Y-123077035D01*
X68219478Y-123383415D01*
X68161572Y-123692856D01*
X68115949Y-124005012D01*
X68097812Y-124161800D01*
X68090121Y-124235953D01*
X68083514Y-124303091D01*
X68077912Y-124364965D01*
X68073235Y-124423324D01*
X68069401Y-124479920D01*
X68066332Y-124536504D01*
X68063947Y-124594826D01*
X68062166Y-124656638D01*
X68060909Y-124723689D01*
X68060096Y-124797731D01*
X68059647Y-124880515D01*
X68059481Y-124973791D01*
X68059475Y-125000000D01*
X67974743Y-125000000D01*
X67974039Y-124896206D01*
X67984169Y-124582399D01*
X68006569Y-124269019D01*
X68041252Y-123956445D01*
X68088229Y-123645052D01*
X68147512Y-123335217D01*
X68219113Y-123027317D01*
X68303045Y-122721728D01*
X68370756Y-122504450D01*
X68475926Y-122203487D01*
X68592745Y-121907463D01*
X68721048Y-121616663D01*
X68860665Y-121331376D01*
X69011429Y-121051888D01*
X69173174Y-120778485D01*
X69345731Y-120511455D01*
X69528932Y-120251084D01*
X69722611Y-119997661D01*
X69926599Y-119751470D01*
X70078462Y-119580275D01*
X70108217Y-119548295D01*
X70145594Y-119509116D01*
X70189029Y-119464307D01*
X70236954Y-119415433D01*
X70287803Y-119364061D01*
X70340008Y-119311757D01*
X70392004Y-119260090D01*
X70442222Y-119210624D01*
X70489097Y-119164928D01*
X70531062Y-119124568D01*
X70566549Y-119091110D01*
X70580275Y-119078462D01*
X70821047Y-118867276D01*
X71069184Y-118666321D01*
X71324396Y-118475760D01*
X71586395Y-118295753D01*
X71854890Y-118126464D01*
X72129594Y-117968054D01*
X72410216Y-117820685D01*
X72696469Y-117684520D01*
X72988061Y-117559720D01*
X73284705Y-117446447D01*
X73586111Y-117344863D01*
X73777500Y-117287174D01*
X74086397Y-117204847D01*
X74398110Y-117134900D01*
X74712588Y-117077345D01*
X75029775Y-117032191D01*
X75314200Y-117002451D01*
X75521597Y-116987578D01*
X75736707Y-116978156D01*
X75955760Y-116974202D01*
X76174991Y-116975735D01*
D11*
%TO.C,R5*%
X65460000Y-135460000D02*
X65130000Y-135460000D01*
X65130000Y-135460000D02*
X65130000Y-128920000D01*
X65130000Y-128920000D02*
X65460000Y-128920000D01*
X67540000Y-135460000D02*
X67870000Y-135460000D01*
X67870000Y-135460000D02*
X67870000Y-128920000D01*
X67870000Y-128920000D02*
X67540000Y-128920000D01*
%TO.C,R4*%
X63540000Y-128920000D02*
X63870000Y-128920000D01*
X63870000Y-128920000D02*
X63870000Y-135460000D01*
X63870000Y-135460000D02*
X63540000Y-135460000D01*
X61460000Y-128920000D02*
X61130000Y-128920000D01*
X61130000Y-128920000D02*
X61130000Y-135460000D01*
X61130000Y-135460000D02*
X61460000Y-135460000D01*
%TO.C,R3*%
X61460000Y-145960000D02*
X61130000Y-145960000D01*
X61130000Y-145960000D02*
X61130000Y-139420000D01*
X61130000Y-139420000D02*
X61460000Y-139420000D01*
X63540000Y-145960000D02*
X63870000Y-145960000D01*
X63870000Y-145960000D02*
X63870000Y-139420000D01*
X63870000Y-139420000D02*
X63540000Y-139420000D01*
%TO.C,J1*%
X59120000Y-167470000D02*
X59120000Y-173490000D01*
X59120000Y-173490000D02*
X66960000Y-173490000D01*
X66960000Y-173490000D02*
X66960000Y-167470000D01*
X66960000Y-167470000D02*
X59120000Y-167470000D01*
X58830000Y-168500000D02*
X58830000Y-172500000D01*
X60500000Y-173490000D02*
X60500000Y-172490000D01*
X60500000Y-172490000D02*
X65580000Y-172490000D01*
X65580000Y-172490000D02*
X65580000Y-173490000D01*
X60500000Y-172490000D02*
X60750000Y-171960000D01*
X60750000Y-171960000D02*
X65330000Y-171960000D01*
X65330000Y-171960000D02*
X65580000Y-172490000D01*
X60750000Y-173490000D02*
X60750000Y-172490000D01*
X65330000Y-173490000D02*
X65330000Y-172490000D01*
X59700000Y-167470000D02*
X59700000Y-168070000D01*
X59700000Y-168070000D02*
X61300000Y-168070000D01*
X61300000Y-168070000D02*
X61300000Y-167470000D01*
X62240000Y-167470000D02*
X62240000Y-168070000D01*
X62240000Y-168070000D02*
X63840000Y-168070000D01*
X63840000Y-168070000D02*
X63840000Y-167470000D01*
X64780000Y-167470000D02*
X64780000Y-168070000D01*
X64780000Y-168070000D02*
X66380000Y-168070000D01*
X66380000Y-168070000D02*
X66380000Y-167470000D01*
%TO.C,R6*%
X127580000Y-172370000D02*
X127580000Y-172040000D01*
X121040000Y-172370000D02*
X127580000Y-172370000D01*
X121040000Y-172040000D02*
X121040000Y-172370000D01*
X127580000Y-169630000D02*
X127580000Y-169960000D01*
X121040000Y-169630000D02*
X127580000Y-169630000D01*
X121040000Y-169960000D02*
X121040000Y-169630000D01*
%TO.C,R14*%
X130580000Y-93370000D02*
X130580000Y-93040000D01*
X124040000Y-93370000D02*
X130580000Y-93370000D01*
X124040000Y-93040000D02*
X124040000Y-93370000D01*
X130580000Y-90630000D02*
X130580000Y-90960000D01*
X124040000Y-90630000D02*
X130580000Y-90630000D01*
X124040000Y-90960000D02*
X124040000Y-90630000D01*
%TO.C,R12*%
X130580000Y-118370000D02*
X130580000Y-118040000D01*
X124040000Y-118370000D02*
X130580000Y-118370000D01*
X124040000Y-118040000D02*
X124040000Y-118370000D01*
X130580000Y-115630000D02*
X130580000Y-115960000D01*
X124040000Y-115630000D02*
X130580000Y-115630000D01*
X124040000Y-115960000D02*
X124040000Y-115630000D01*
%TO.C,R8*%
X127580000Y-167370000D02*
X127580000Y-167040000D01*
X121040000Y-167370000D02*
X127580000Y-167370000D01*
X121040000Y-167040000D02*
X121040000Y-167370000D01*
X127580000Y-164630000D02*
X127580000Y-164960000D01*
X121040000Y-164630000D02*
X127580000Y-164630000D01*
X121040000Y-164960000D02*
X121040000Y-164630000D01*
%TO.C,J12*%
X112150000Y-109850000D02*
X112150000Y-96600000D01*
X127900000Y-112350000D02*
X114200000Y-112350000D01*
X114200000Y-112350000D02*
X114150000Y-112350000D01*
X127900000Y-96600000D02*
X127900000Y-112350000D01*
X112150000Y-96600000D02*
X127900000Y-96600000D01*
X114150000Y-112350000D02*
X112150000Y-109850000D01*
%TO.C,J9*%
X112150000Y-84850000D02*
X112150000Y-71600000D01*
X127900000Y-87350000D02*
X114200000Y-87350000D01*
X114200000Y-87350000D02*
X114150000Y-87350000D01*
X127900000Y-71600000D02*
X127900000Y-87350000D01*
X112150000Y-71600000D02*
X127900000Y-71600000D01*
X114150000Y-87350000D02*
X112150000Y-84850000D01*
%TO.C,J10*%
X112150000Y-159850000D02*
X112150000Y-146600000D01*
X127900000Y-162350000D02*
X114200000Y-162350000D01*
X114200000Y-162350000D02*
X114150000Y-162350000D01*
X127900000Y-146600000D02*
X127900000Y-162350000D01*
X112150000Y-146600000D02*
X127900000Y-146600000D01*
X114150000Y-162350000D02*
X112150000Y-159850000D01*
%TO.C,J11*%
X112150000Y-134850000D02*
X112150000Y-121600000D01*
X127900000Y-137350000D02*
X114200000Y-137350000D01*
X114200000Y-137350000D02*
X114150000Y-137350000D01*
X127900000Y-121600000D02*
X127900000Y-137350000D01*
X112150000Y-121600000D02*
X127900000Y-121600000D01*
X114150000Y-137350000D02*
X112150000Y-134850000D01*
%TO.C,R13*%
X134420000Y-90630000D02*
X134420000Y-90960000D01*
X140960000Y-90630000D02*
X134420000Y-90630000D01*
X140960000Y-90960000D02*
X140960000Y-90630000D01*
X134420000Y-93370000D02*
X134420000Y-93040000D01*
X140960000Y-93370000D02*
X134420000Y-93370000D01*
X140960000Y-93040000D02*
X140960000Y-93370000D01*
%TO.C,R11*%
X134420000Y-115630000D02*
X134420000Y-115960000D01*
X140960000Y-115630000D02*
X134420000Y-115630000D01*
X140960000Y-115960000D02*
X140960000Y-115630000D01*
X134420000Y-118370000D02*
X134420000Y-118040000D01*
X140960000Y-118370000D02*
X134420000Y-118370000D01*
X140960000Y-118040000D02*
X140960000Y-118370000D01*
%TO.C,R7*%
X134420000Y-164630000D02*
X134420000Y-164960000D01*
X140960000Y-164630000D02*
X134420000Y-164630000D01*
X140960000Y-164960000D02*
X140960000Y-164630000D01*
X134420000Y-167370000D02*
X134420000Y-167040000D01*
X140960000Y-167370000D02*
X134420000Y-167370000D01*
X140960000Y-167040000D02*
X140960000Y-167370000D01*
%TO.C,R10*%
X130580000Y-143370000D02*
X130580000Y-143040000D01*
X124040000Y-143370000D02*
X130580000Y-143370000D01*
X124040000Y-143040000D02*
X124040000Y-143370000D01*
X130580000Y-140630000D02*
X130580000Y-140960000D01*
X124040000Y-140630000D02*
X130580000Y-140630000D01*
X124040000Y-140960000D02*
X124040000Y-140630000D01*
%TO.C,R9*%
X134420000Y-140630000D02*
X134420000Y-140960000D01*
X140960000Y-140630000D02*
X134420000Y-140630000D01*
X140960000Y-140960000D02*
X140960000Y-140630000D01*
X134420000Y-143370000D02*
X134420000Y-143040000D01*
X140960000Y-143370000D02*
X134420000Y-143370000D01*
X140960000Y-143040000D02*
X140960000Y-143370000D01*
%TO.C,R1*%
X60040000Y-163460000D02*
X60040000Y-163130000D01*
X60040000Y-163130000D02*
X66580000Y-163130000D01*
X66580000Y-163130000D02*
X66580000Y-163460000D01*
X60040000Y-165540000D02*
X60040000Y-165870000D01*
X60040000Y-165870000D02*
X66580000Y-165870000D01*
X66580000Y-165870000D02*
X66580000Y-165540000D01*
%TO.C,R2*%
X43540000Y-151040000D02*
X43870000Y-151040000D01*
X43870000Y-151040000D02*
X43870000Y-157580000D01*
X43870000Y-157580000D02*
X43540000Y-157580000D01*
X41460000Y-151040000D02*
X41130000Y-151040000D01*
X41130000Y-151040000D02*
X41130000Y-157580000D01*
X41130000Y-157580000D02*
X41460000Y-157580000D01*
%TO.C,OK1*%
X51170000Y-170190000D02*
X51170000Y-171840000D01*
X51170000Y-171840000D02*
X56370000Y-171840000D01*
X56370000Y-171840000D02*
X56370000Y-166540000D01*
X56370000Y-166540000D02*
X51170000Y-166540000D01*
X51170000Y-166540000D02*
X51170000Y-168190000D01*
X51170000Y-168190000D02*
G75*
G02*
X51170000Y-170190000I0J-1000000D01*
G01*
%TO.C,J16*%
X138150000Y-84850000D02*
X138150000Y-71600000D01*
X153900000Y-87350000D02*
X140200000Y-87350000D01*
X140200000Y-87350000D02*
X140150000Y-87350000D01*
X153900000Y-71600000D02*
X153900000Y-87350000D01*
X138150000Y-71600000D02*
X153900000Y-71600000D01*
X140150000Y-87350000D02*
X138150000Y-84850000D01*
%TO.C,J15*%
X138150000Y-109850000D02*
X138150000Y-96600000D01*
X153900000Y-112350000D02*
X140200000Y-112350000D01*
X140200000Y-112350000D02*
X140150000Y-112350000D01*
X153900000Y-96600000D02*
X153900000Y-112350000D01*
X138150000Y-96600000D02*
X153900000Y-96600000D01*
X140150000Y-112350000D02*
X138150000Y-109850000D01*
%TO.C,J13*%
X138150000Y-159850000D02*
X138150000Y-146600000D01*
X153900000Y-162350000D02*
X140200000Y-162350000D01*
X140200000Y-162350000D02*
X140150000Y-162350000D01*
X153900000Y-146600000D02*
X153900000Y-162350000D01*
X138150000Y-146600000D02*
X153900000Y-146600000D01*
X140150000Y-162350000D02*
X138150000Y-159850000D01*
%TO.C,J14*%
X138150000Y-134850000D02*
X138150000Y-121600000D01*
X153900000Y-137350000D02*
X140200000Y-137350000D01*
X140200000Y-137350000D02*
X140150000Y-137350000D01*
X153900000Y-121600000D02*
X153900000Y-137350000D01*
X138150000Y-121600000D02*
X153900000Y-121600000D01*
X140150000Y-137350000D02*
X138150000Y-134850000D01*
%TO.C,J2*%
X76100000Y-87170000D02*
X76100000Y-94550000D01*
X76600000Y-87170000D02*
X76120000Y-87170000D01*
X76100000Y-82670000D02*
X76610000Y-82670000D01*
X76100000Y-75300000D02*
X76100000Y-82650000D01*
X76100000Y-75300000D02*
X76600000Y-74800000D01*
X68350000Y-75300000D02*
X76100000Y-75300000D01*
X68350000Y-75300000D02*
X67800000Y-74750000D01*
X68350000Y-94550000D02*
X68350000Y-75300000D01*
X68350000Y-94550000D02*
X67800000Y-95100000D01*
X76100000Y-94550000D02*
X68350000Y-94550000D01*
X76650000Y-95100000D02*
X76100000Y-94550000D01*
X76650000Y-74750000D02*
X76650000Y-95100000D01*
X67800000Y-74750000D02*
X76650000Y-74750000D01*
X67800000Y-95100000D02*
X67800000Y-74750000D01*
X76650000Y-95100000D02*
X67800000Y-95100000D01*
X76905000Y-95350000D02*
X67555000Y-95350000D01*
X76905000Y-74490000D02*
X76905000Y-95350000D01*
X67555000Y-74490000D02*
X76905000Y-74490000D01*
X67555000Y-95350000D02*
X67555000Y-74490000D01*
%TO.C,DAC1*%
X49810000Y-149170000D02*
X48560000Y-149170000D01*
X48560000Y-149170000D02*
X48560000Y-159450000D01*
X48560000Y-159450000D02*
X53060000Y-159450000D01*
X53060000Y-159450000D02*
X53060000Y-149170000D01*
X53060000Y-149170000D02*
X51810000Y-149170000D01*
X45560000Y-149110000D02*
X45560000Y-159510000D01*
X45560000Y-159510000D02*
X56060000Y-159510000D01*
X56060000Y-159510000D02*
X56060000Y-149110000D01*
X56060000Y-149110000D02*
X45560000Y-149110000D01*
X51810000Y-149170000D02*
G75*
G02*
X49810000Y-149170000I-1000000J0D01*
G01*
%TO.C,DAC2*%
X49810000Y-129170000D02*
X48560000Y-129170000D01*
X48560000Y-129170000D02*
X48560000Y-139450000D01*
X48560000Y-139450000D02*
X53060000Y-139450000D01*
X53060000Y-139450000D02*
X53060000Y-129170000D01*
X53060000Y-129170000D02*
X51810000Y-129170000D01*
X45560000Y-129110000D02*
X45560000Y-139510000D01*
X45560000Y-139510000D02*
X56060000Y-139510000D01*
X56060000Y-139510000D02*
X56060000Y-129110000D01*
X56060000Y-129110000D02*
X45560000Y-129110000D01*
X51810000Y-129170000D02*
G75*
G02*
X49810000Y-129170000I-1000000J0D01*
G01*
%TO.C,D13*%
X146590000Y-90660000D02*
X146590000Y-90530000D01*
X146590000Y-90530000D02*
X152030000Y-90530000D01*
X152030000Y-90530000D02*
X152030000Y-90660000D01*
X146590000Y-93340000D02*
X146590000Y-93470000D01*
X146590000Y-93470000D02*
X152030000Y-93470000D01*
X152030000Y-93470000D02*
X152030000Y-93340000D01*
X147490000Y-90530000D02*
X147490000Y-93470000D01*
X147610000Y-90530000D02*
X147610000Y-93470000D01*
X147370000Y-90530000D02*
X147370000Y-93470000D01*
%TO.C,D12*%
X146590000Y-115660000D02*
X146590000Y-115530000D01*
X146590000Y-115530000D02*
X152030000Y-115530000D01*
X152030000Y-115530000D02*
X152030000Y-115660000D01*
X146590000Y-118340000D02*
X146590000Y-118470000D01*
X146590000Y-118470000D02*
X152030000Y-118470000D01*
X152030000Y-118470000D02*
X152030000Y-118340000D01*
X147490000Y-115530000D02*
X147490000Y-118470000D01*
X147610000Y-115530000D02*
X147610000Y-118470000D01*
X147370000Y-115530000D02*
X147370000Y-118470000D01*
%TO.C,D10*%
X146590000Y-165660000D02*
X146590000Y-165530000D01*
X146590000Y-165530000D02*
X152030000Y-165530000D01*
X152030000Y-165530000D02*
X152030000Y-165660000D01*
X146590000Y-168340000D02*
X146590000Y-168470000D01*
X146590000Y-168470000D02*
X152030000Y-168470000D01*
X152030000Y-168470000D02*
X152030000Y-168340000D01*
X147490000Y-165530000D02*
X147490000Y-168470000D01*
X147610000Y-165530000D02*
X147610000Y-168470000D01*
X147370000Y-165530000D02*
X147370000Y-168470000D01*
%TO.C,D11*%
X146590000Y-140660000D02*
X146590000Y-140530000D01*
X146590000Y-140530000D02*
X152030000Y-140530000D01*
X152030000Y-140530000D02*
X152030000Y-140660000D01*
X146590000Y-143340000D02*
X146590000Y-143470000D01*
X146590000Y-143470000D02*
X152030000Y-143470000D01*
X152030000Y-143470000D02*
X152030000Y-143340000D01*
X147490000Y-140530000D02*
X147490000Y-143470000D01*
X147610000Y-140530000D02*
X147610000Y-143470000D01*
X147370000Y-140530000D02*
X147370000Y-143470000D01*
%TO.C,D5*%
X135500000Y-171470000D02*
G75*
G03*
X135500000Y-171470000I-2500000J0D01*
G01*
X134545000Y-168910000D02*
X131455000Y-168910000D01*
X133000462Y-174460000D02*
G75*
G02*
X131455170Y-168910000I-462J2990000D01*
G01*
X132999538Y-174460000D02*
G75*
G03*
X134544830Y-168910000I462J2990000D01*
G01*
%TO.C,D9*%
X135500000Y-79470000D02*
G75*
G03*
X135500000Y-79470000I-2500000J0D01*
G01*
X134545000Y-76910000D02*
X131455000Y-76910000D01*
X133000462Y-82460000D02*
G75*
G02*
X131455170Y-76910000I-462J2990000D01*
G01*
X132999538Y-82460000D02*
G75*
G03*
X134544830Y-76910000I462J2990000D01*
G01*
%TO.C,D8*%
X135500000Y-104470000D02*
G75*
G03*
X135500000Y-104470000I-2500000J0D01*
G01*
X134545000Y-101910000D02*
X131455000Y-101910000D01*
X133000462Y-107460000D02*
G75*
G02*
X131455170Y-101910000I-462J2990000D01*
G01*
X132999538Y-107460000D02*
G75*
G03*
X134544830Y-101910000I462J2990000D01*
G01*
%TO.C,D6*%
X135500000Y-154470000D02*
G75*
G03*
X135500000Y-154470000I-2500000J0D01*
G01*
X134545000Y-151910000D02*
X131455000Y-151910000D01*
X133000462Y-157460000D02*
G75*
G02*
X131455170Y-151910000I-462J2990000D01*
G01*
X132999538Y-157460000D02*
G75*
G03*
X134544830Y-151910000I462J2990000D01*
G01*
%TO.C,D7*%
X135500000Y-129470000D02*
G75*
G03*
X135500000Y-129470000I-2500000J0D01*
G01*
X134545000Y-126910000D02*
X131455000Y-126910000D01*
X133000462Y-132460000D02*
G75*
G02*
X131455170Y-126910000I-462J2990000D01*
G01*
X132999538Y-132460000D02*
G75*
G03*
X134544830Y-126910000I462J2990000D01*
G01*
%TO.C,D2*%
X76970000Y-101870000D02*
X74030000Y-101870000D01*
X76970000Y-102110000D02*
X74030000Y-102110000D01*
X76970000Y-101990000D02*
X74030000Y-101990000D01*
X74030000Y-106530000D02*
X74160000Y-106530000D01*
X74030000Y-101090000D02*
X74030000Y-106530000D01*
X74160000Y-101090000D02*
X74030000Y-101090000D01*
X76970000Y-106530000D02*
X76840000Y-106530000D01*
X76970000Y-101090000D02*
X76970000Y-106530000D01*
X76840000Y-101090000D02*
X76970000Y-101090000D01*
%TO.C,D1*%
X67530000Y-105630000D02*
X70470000Y-105630000D01*
X67530000Y-105390000D02*
X70470000Y-105390000D01*
X67530000Y-105510000D02*
X70470000Y-105510000D01*
X70470000Y-100970000D02*
X70340000Y-100970000D01*
X70470000Y-106410000D02*
X70470000Y-100970000D01*
X70340000Y-106410000D02*
X70470000Y-106410000D01*
X67530000Y-100970000D02*
X67660000Y-100970000D01*
X67530000Y-106410000D02*
X67530000Y-100970000D01*
X67660000Y-106410000D02*
X67530000Y-106410000D01*
%TO.C,D3*%
X49120000Y-167670000D02*
X46880000Y-167670000D01*
X49120000Y-167910000D02*
X46880000Y-167910000D01*
X49120000Y-167790000D02*
X46880000Y-167790000D01*
X48000000Y-171960000D02*
X48000000Y-171310000D01*
X48000000Y-166420000D02*
X48000000Y-167070000D01*
X49120000Y-171310000D02*
X49120000Y-167070000D01*
X46880000Y-171310000D02*
X49120000Y-171310000D01*
X46880000Y-167070000D02*
X46880000Y-171310000D01*
X49120000Y-167070000D02*
X46880000Y-167070000D01*
%TO.C,C4*%
X82420000Y-142121000D02*
X82420000Y-143379000D01*
X80580000Y-142121000D02*
X80580000Y-143379000D01*
%TO.C,C2*%
X74275000Y-116054775D02*
X74775000Y-116054775D01*
X74525000Y-116304775D02*
X74525000Y-115804775D01*
X75716000Y-110899000D02*
X76284000Y-110899000D01*
X75482000Y-110939000D02*
X76518000Y-110939000D01*
X75323000Y-110979000D02*
X76677000Y-110979000D01*
X75195000Y-111019000D02*
X76805000Y-111019000D01*
X75085000Y-111059000D02*
X76915000Y-111059000D01*
X74989000Y-111099000D02*
X77011000Y-111099000D01*
X74902000Y-111139000D02*
X77098000Y-111139000D01*
X74822000Y-111179000D02*
X77178000Y-111179000D01*
X74749000Y-111219000D02*
X77251000Y-111219000D01*
X74681000Y-111259000D02*
X77319000Y-111259000D01*
X74617000Y-111299000D02*
X77383000Y-111299000D01*
X74557000Y-111339000D02*
X77443000Y-111339000D01*
X74500000Y-111379000D02*
X77500000Y-111379000D01*
X74446000Y-111419000D02*
X77554000Y-111419000D01*
X74395000Y-111459000D02*
X77605000Y-111459000D01*
X77040000Y-111499000D02*
X77653000Y-111499000D01*
X74347000Y-111499000D02*
X74960000Y-111499000D01*
X77040000Y-111539000D02*
X77699000Y-111539000D01*
X74301000Y-111539000D02*
X74960000Y-111539000D01*
X77040000Y-111579000D02*
X77743000Y-111579000D01*
X74257000Y-111579000D02*
X74960000Y-111579000D01*
X77040000Y-111619000D02*
X77785000Y-111619000D01*
X74215000Y-111619000D02*
X74960000Y-111619000D01*
X77040000Y-111659000D02*
X77826000Y-111659000D01*
X74174000Y-111659000D02*
X74960000Y-111659000D01*
X77040000Y-111699000D02*
X77864000Y-111699000D01*
X74136000Y-111699000D02*
X74960000Y-111699000D01*
X77040000Y-111739000D02*
X77901000Y-111739000D01*
X74099000Y-111739000D02*
X74960000Y-111739000D01*
X77040000Y-111779000D02*
X77937000Y-111779000D01*
X74063000Y-111779000D02*
X74960000Y-111779000D01*
X77040000Y-111819000D02*
X77971000Y-111819000D01*
X74029000Y-111819000D02*
X74960000Y-111819000D01*
X77040000Y-111859000D02*
X78004000Y-111859000D01*
X73996000Y-111859000D02*
X74960000Y-111859000D01*
X77040000Y-111899000D02*
X78035000Y-111899000D01*
X73965000Y-111899000D02*
X74960000Y-111899000D01*
X77040000Y-111939000D02*
X78065000Y-111939000D01*
X73935000Y-111939000D02*
X74960000Y-111939000D01*
X77040000Y-111979000D02*
X78095000Y-111979000D01*
X73905000Y-111979000D02*
X74960000Y-111979000D01*
X77040000Y-112019000D02*
X78122000Y-112019000D01*
X73878000Y-112019000D02*
X74960000Y-112019000D01*
X77040000Y-112059000D02*
X78149000Y-112059000D01*
X73851000Y-112059000D02*
X74960000Y-112059000D01*
X77040000Y-112099000D02*
X78175000Y-112099000D01*
X73825000Y-112099000D02*
X74960000Y-112099000D01*
X77040000Y-112139000D02*
X78200000Y-112139000D01*
X73800000Y-112139000D02*
X74960000Y-112139000D01*
X77040000Y-112179000D02*
X78224000Y-112179000D01*
X73776000Y-112179000D02*
X74960000Y-112179000D01*
X77040000Y-112219000D02*
X78247000Y-112219000D01*
X73753000Y-112219000D02*
X74960000Y-112219000D01*
X77040000Y-112259000D02*
X78268000Y-112259000D01*
X73732000Y-112259000D02*
X74960000Y-112259000D01*
X77040000Y-112299000D02*
X78290000Y-112299000D01*
X73710000Y-112299000D02*
X74960000Y-112299000D01*
X77040000Y-112339000D02*
X78310000Y-112339000D01*
X73690000Y-112339000D02*
X74960000Y-112339000D01*
X77040000Y-112379000D02*
X78329000Y-112379000D01*
X73671000Y-112379000D02*
X74960000Y-112379000D01*
X77040000Y-112419000D02*
X78348000Y-112419000D01*
X73652000Y-112419000D02*
X74960000Y-112419000D01*
X77040000Y-112459000D02*
X78365000Y-112459000D01*
X73635000Y-112459000D02*
X74960000Y-112459000D01*
X77040000Y-112499000D02*
X78382000Y-112499000D01*
X73618000Y-112499000D02*
X74960000Y-112499000D01*
X77040000Y-112539000D02*
X78398000Y-112539000D01*
X73602000Y-112539000D02*
X74960000Y-112539000D01*
X77040000Y-112579000D02*
X78414000Y-112579000D01*
X73586000Y-112579000D02*
X74960000Y-112579000D01*
X77040000Y-112619000D02*
X78428000Y-112619000D01*
X73572000Y-112619000D02*
X74960000Y-112619000D01*
X77040000Y-112659000D02*
X78442000Y-112659000D01*
X73558000Y-112659000D02*
X74960000Y-112659000D01*
X77040000Y-112699000D02*
X78455000Y-112699000D01*
X73545000Y-112699000D02*
X74960000Y-112699000D01*
X77040000Y-112739000D02*
X78468000Y-112739000D01*
X73532000Y-112739000D02*
X74960000Y-112739000D01*
X77040000Y-112779000D02*
X78480000Y-112779000D01*
X73520000Y-112779000D02*
X74960000Y-112779000D01*
X77040000Y-112820000D02*
X78491000Y-112820000D01*
X73509000Y-112820000D02*
X74960000Y-112820000D01*
X77040000Y-112860000D02*
X78501000Y-112860000D01*
X73499000Y-112860000D02*
X74960000Y-112860000D01*
X77040000Y-112900000D02*
X78511000Y-112900000D01*
X73489000Y-112900000D02*
X74960000Y-112900000D01*
X77040000Y-112940000D02*
X78520000Y-112940000D01*
X73480000Y-112940000D02*
X74960000Y-112940000D01*
X77040000Y-112980000D02*
X78528000Y-112980000D01*
X73472000Y-112980000D02*
X74960000Y-112980000D01*
X77040000Y-113020000D02*
X78536000Y-113020000D01*
X73464000Y-113020000D02*
X74960000Y-113020000D01*
X77040000Y-113060000D02*
X78543000Y-113060000D01*
X73457000Y-113060000D02*
X74960000Y-113060000D01*
X77040000Y-113100000D02*
X78550000Y-113100000D01*
X73450000Y-113100000D02*
X74960000Y-113100000D01*
X77040000Y-113140000D02*
X78556000Y-113140000D01*
X73444000Y-113140000D02*
X74960000Y-113140000D01*
X77040000Y-113180000D02*
X78561000Y-113180000D01*
X73439000Y-113180000D02*
X74960000Y-113180000D01*
X77040000Y-113220000D02*
X78565000Y-113220000D01*
X73435000Y-113220000D02*
X74960000Y-113220000D01*
X77040000Y-113260000D02*
X78569000Y-113260000D01*
X73431000Y-113260000D02*
X74960000Y-113260000D01*
X77040000Y-113300000D02*
X78573000Y-113300000D01*
X73427000Y-113300000D02*
X74960000Y-113300000D01*
X77040000Y-113340000D02*
X78576000Y-113340000D01*
X73424000Y-113340000D02*
X74960000Y-113340000D01*
X77040000Y-113380000D02*
X78578000Y-113380000D01*
X73422000Y-113380000D02*
X74960000Y-113380000D01*
X77040000Y-113420000D02*
X78579000Y-113420000D01*
X73421000Y-113420000D02*
X74960000Y-113420000D01*
X73420000Y-113460000D02*
X74960000Y-113460000D01*
X77040000Y-113460000D02*
X78580000Y-113460000D01*
X73420000Y-113500000D02*
X74960000Y-113500000D01*
X77040000Y-113500000D02*
X78580000Y-113500000D01*
X78620000Y-113500000D02*
G75*
G03*
X78620000Y-113500000I-2620000J0D01*
G01*
%TO.C,C1*%
X70725000Y-110945225D02*
X70225000Y-110945225D01*
X70475000Y-110695225D02*
X70475000Y-111195225D01*
X69284000Y-116101000D02*
X68716000Y-116101000D01*
X69518000Y-116061000D02*
X68482000Y-116061000D01*
X69677000Y-116021000D02*
X68323000Y-116021000D01*
X69805000Y-115981000D02*
X68195000Y-115981000D01*
X69915000Y-115941000D02*
X68085000Y-115941000D01*
X70011000Y-115901000D02*
X67989000Y-115901000D01*
X70098000Y-115861000D02*
X67902000Y-115861000D01*
X70178000Y-115821000D02*
X67822000Y-115821000D01*
X70251000Y-115781000D02*
X67749000Y-115781000D01*
X70319000Y-115741000D02*
X67681000Y-115741000D01*
X70383000Y-115701000D02*
X67617000Y-115701000D01*
X70443000Y-115661000D02*
X67557000Y-115661000D01*
X70500000Y-115621000D02*
X67500000Y-115621000D01*
X70554000Y-115581000D02*
X67446000Y-115581000D01*
X70605000Y-115541000D02*
X67395000Y-115541000D01*
X67960000Y-115501000D02*
X67347000Y-115501000D01*
X70653000Y-115501000D02*
X70040000Y-115501000D01*
X67960000Y-115461000D02*
X67301000Y-115461000D01*
X70699000Y-115461000D02*
X70040000Y-115461000D01*
X67960000Y-115421000D02*
X67257000Y-115421000D01*
X70743000Y-115421000D02*
X70040000Y-115421000D01*
X67960000Y-115381000D02*
X67215000Y-115381000D01*
X70785000Y-115381000D02*
X70040000Y-115381000D01*
X67960000Y-115341000D02*
X67174000Y-115341000D01*
X70826000Y-115341000D02*
X70040000Y-115341000D01*
X67960000Y-115301000D02*
X67136000Y-115301000D01*
X70864000Y-115301000D02*
X70040000Y-115301000D01*
X67960000Y-115261000D02*
X67099000Y-115261000D01*
X70901000Y-115261000D02*
X70040000Y-115261000D01*
X67960000Y-115221000D02*
X67063000Y-115221000D01*
X70937000Y-115221000D02*
X70040000Y-115221000D01*
X67960000Y-115181000D02*
X67029000Y-115181000D01*
X70971000Y-115181000D02*
X70040000Y-115181000D01*
X67960000Y-115141000D02*
X66996000Y-115141000D01*
X71004000Y-115141000D02*
X70040000Y-115141000D01*
X67960000Y-115101000D02*
X66965000Y-115101000D01*
X71035000Y-115101000D02*
X70040000Y-115101000D01*
X67960000Y-115061000D02*
X66935000Y-115061000D01*
X71065000Y-115061000D02*
X70040000Y-115061000D01*
X67960000Y-115021000D02*
X66905000Y-115021000D01*
X71095000Y-115021000D02*
X70040000Y-115021000D01*
X67960000Y-114981000D02*
X66878000Y-114981000D01*
X71122000Y-114981000D02*
X70040000Y-114981000D01*
X67960000Y-114941000D02*
X66851000Y-114941000D01*
X71149000Y-114941000D02*
X70040000Y-114941000D01*
X67960000Y-114901000D02*
X66825000Y-114901000D01*
X71175000Y-114901000D02*
X70040000Y-114901000D01*
X67960000Y-114861000D02*
X66800000Y-114861000D01*
X71200000Y-114861000D02*
X70040000Y-114861000D01*
X67960000Y-114821000D02*
X66776000Y-114821000D01*
X71224000Y-114821000D02*
X70040000Y-114821000D01*
X67960000Y-114781000D02*
X66753000Y-114781000D01*
X71247000Y-114781000D02*
X70040000Y-114781000D01*
X67960000Y-114741000D02*
X66732000Y-114741000D01*
X71268000Y-114741000D02*
X70040000Y-114741000D01*
X67960000Y-114701000D02*
X66710000Y-114701000D01*
X71290000Y-114701000D02*
X70040000Y-114701000D01*
X67960000Y-114661000D02*
X66690000Y-114661000D01*
X71310000Y-114661000D02*
X70040000Y-114661000D01*
X67960000Y-114621000D02*
X66671000Y-114621000D01*
X71329000Y-114621000D02*
X70040000Y-114621000D01*
X67960000Y-114581000D02*
X66652000Y-114581000D01*
X71348000Y-114581000D02*
X70040000Y-114581000D01*
X67960000Y-114541000D02*
X66635000Y-114541000D01*
X71365000Y-114541000D02*
X70040000Y-114541000D01*
X67960000Y-114501000D02*
X66618000Y-114501000D01*
X71382000Y-114501000D02*
X70040000Y-114501000D01*
X67960000Y-114461000D02*
X66602000Y-114461000D01*
X71398000Y-114461000D02*
X70040000Y-114461000D01*
X67960000Y-114421000D02*
X66586000Y-114421000D01*
X71414000Y-114421000D02*
X70040000Y-114421000D01*
X67960000Y-114381000D02*
X66572000Y-114381000D01*
X71428000Y-114381000D02*
X70040000Y-114381000D01*
X67960000Y-114341000D02*
X66558000Y-114341000D01*
X71442000Y-114341000D02*
X70040000Y-114341000D01*
X67960000Y-114301000D02*
X66545000Y-114301000D01*
X71455000Y-114301000D02*
X70040000Y-114301000D01*
X67960000Y-114261000D02*
X66532000Y-114261000D01*
X71468000Y-114261000D02*
X70040000Y-114261000D01*
X67960000Y-114221000D02*
X66520000Y-114221000D01*
X71480000Y-114221000D02*
X70040000Y-114221000D01*
X67960000Y-114180000D02*
X66509000Y-114180000D01*
X71491000Y-114180000D02*
X70040000Y-114180000D01*
X67960000Y-114140000D02*
X66499000Y-114140000D01*
X71501000Y-114140000D02*
X70040000Y-114140000D01*
X67960000Y-114100000D02*
X66489000Y-114100000D01*
X71511000Y-114100000D02*
X70040000Y-114100000D01*
X67960000Y-114060000D02*
X66480000Y-114060000D01*
X71520000Y-114060000D02*
X70040000Y-114060000D01*
X67960000Y-114020000D02*
X66472000Y-114020000D01*
X71528000Y-114020000D02*
X70040000Y-114020000D01*
X67960000Y-113980000D02*
X66464000Y-113980000D01*
X71536000Y-113980000D02*
X70040000Y-113980000D01*
X67960000Y-113940000D02*
X66457000Y-113940000D01*
X71543000Y-113940000D02*
X70040000Y-113940000D01*
X67960000Y-113900000D02*
X66450000Y-113900000D01*
X71550000Y-113900000D02*
X70040000Y-113900000D01*
X67960000Y-113860000D02*
X66444000Y-113860000D01*
X71556000Y-113860000D02*
X70040000Y-113860000D01*
X67960000Y-113820000D02*
X66439000Y-113820000D01*
X71561000Y-113820000D02*
X70040000Y-113820000D01*
X67960000Y-113780000D02*
X66435000Y-113780000D01*
X71565000Y-113780000D02*
X70040000Y-113780000D01*
X67960000Y-113740000D02*
X66431000Y-113740000D01*
X71569000Y-113740000D02*
X70040000Y-113740000D01*
X67960000Y-113700000D02*
X66427000Y-113700000D01*
X71573000Y-113700000D02*
X70040000Y-113700000D01*
X67960000Y-113660000D02*
X66424000Y-113660000D01*
X71576000Y-113660000D02*
X70040000Y-113660000D01*
X67960000Y-113620000D02*
X66422000Y-113620000D01*
X71578000Y-113620000D02*
X70040000Y-113620000D01*
X67960000Y-113580000D02*
X66421000Y-113580000D01*
X71579000Y-113580000D02*
X70040000Y-113580000D01*
X71580000Y-113540000D02*
X70040000Y-113540000D01*
X67960000Y-113540000D02*
X66420000Y-113540000D01*
X71580000Y-113500000D02*
X70040000Y-113500000D01*
X67960000Y-113500000D02*
X66420000Y-113500000D01*
X71620000Y-113500000D02*
G75*
G03*
X71620000Y-113500000I-2620000J0D01*
G01*
%TO.C,C5*%
X47121000Y-145580000D02*
X48379000Y-145580000D01*
X47121000Y-147420000D02*
X48379000Y-147420000D01*
%TO.C,C6*%
X47121000Y-125580000D02*
X48379000Y-125580000D01*
X47121000Y-127420000D02*
X48379000Y-127420000D01*
%TO.C,C3*%
X66080000Y-143379000D02*
X66080000Y-142121000D01*
X67920000Y-143379000D02*
X67920000Y-142121000D01*
%TO.C,IC1*%
D10*
X73577857Y-134509285D02*
X73577857Y-133759285D01*
X74363571Y-134437857D02*
X74327857Y-134473571D01*
X74220714Y-134509285D01*
X74149285Y-134509285D01*
X74042142Y-134473571D01*
X73970714Y-134402142D01*
X73935000Y-134330714D01*
X73899285Y-134187857D01*
X73899285Y-134080714D01*
X73935000Y-133937857D01*
X73970714Y-133866428D01*
X74042142Y-133795000D01*
X74149285Y-133759285D01*
X74220714Y-133759285D01*
X74327857Y-133795000D01*
X74363571Y-133830714D01*
X75077857Y-134509285D02*
X74649285Y-134509285D01*
X74863571Y-134509285D02*
X74863571Y-133759285D01*
X74792142Y-133866428D01*
X74720714Y-133937857D01*
X74649285Y-133973571D01*
X72910714Y-153589285D02*
X73339285Y-153589285D01*
X73125000Y-154339285D02*
X73125000Y-153589285D01*
X73946428Y-154339285D02*
X73589285Y-154339285D01*
X73589285Y-153589285D01*
X74339285Y-153589285D02*
X74410714Y-153589285D01*
X74482142Y-153625000D01*
X74517857Y-153660714D01*
X74553571Y-153732142D01*
X74589285Y-153875000D01*
X74589285Y-154053571D01*
X74553571Y-154196428D01*
X74517857Y-154267857D01*
X74482142Y-154303571D01*
X74410714Y-154339285D01*
X74339285Y-154339285D01*
X74267857Y-154303571D01*
X74232142Y-154267857D01*
X74196428Y-154196428D01*
X74160714Y-154053571D01*
X74160714Y-153875000D01*
X74196428Y-153732142D01*
X74232142Y-153660714D01*
X74267857Y-153625000D01*
X74339285Y-153589285D01*
X74839285Y-153589285D02*
X75339285Y-153589285D01*
X75017857Y-154339285D01*
X75946428Y-153839285D02*
X75946428Y-154339285D01*
X75767857Y-153553571D02*
X75589285Y-154089285D01*
X76053571Y-154089285D01*
%TO.C,J3*%
X58166666Y-70452380D02*
X58166666Y-71166666D01*
X58119047Y-71309523D01*
X58023809Y-71404761D01*
X57880952Y-71452380D01*
X57785714Y-71452380D01*
X58547619Y-70452380D02*
X59166666Y-70452380D01*
X58833333Y-70833333D01*
X58976190Y-70833333D01*
X59071428Y-70880952D01*
X59119047Y-70928571D01*
X59166666Y-71023809D01*
X59166666Y-71261904D01*
X59119047Y-71357142D01*
X59071428Y-71404761D01*
X58976190Y-71452380D01*
X58690476Y-71452380D01*
X58595238Y-71404761D01*
X58547619Y-71357142D01*
%TO.C,A1*%
X61285714Y-76166666D02*
X61761904Y-76166666D01*
X61190476Y-76452380D02*
X61523809Y-75452380D01*
X61857142Y-76452380D01*
X62714285Y-76452380D02*
X62142857Y-76452380D01*
X62428571Y-76452380D02*
X62428571Y-75452380D01*
X62333333Y-75595238D01*
X62238095Y-75690476D01*
X62142857Y-75738095D01*
%TO.C,R5*%
X64839285Y-135125000D02*
X64482142Y-135375000D01*
X64839285Y-135553571D02*
X64089285Y-135553571D01*
X64089285Y-135267857D01*
X64125000Y-135196428D01*
X64160714Y-135160714D01*
X64232142Y-135125000D01*
X64339285Y-135125000D01*
X64410714Y-135160714D01*
X64446428Y-135196428D01*
X64482142Y-135267857D01*
X64482142Y-135553571D01*
X64089285Y-134446428D02*
X64089285Y-134803571D01*
X64446428Y-134839285D01*
X64410714Y-134803571D01*
X64375000Y-134732142D01*
X64375000Y-134553571D01*
X64410714Y-134482142D01*
X64446428Y-134446428D01*
X64517857Y-134410714D01*
X64696428Y-134410714D01*
X64767857Y-134446428D01*
X64803571Y-134482142D01*
X64839285Y-134553571D01*
X64839285Y-134732142D01*
X64803571Y-134803571D01*
X64767857Y-134839285D01*
X64339285Y-129196428D02*
X64839285Y-129196428D01*
X64053571Y-129375000D02*
X64589285Y-129553571D01*
X64589285Y-129089285D01*
X64767857Y-128803571D02*
X64803571Y-128767857D01*
X64839285Y-128803571D01*
X64803571Y-128839285D01*
X64767857Y-128803571D01*
X64839285Y-128803571D01*
X64089285Y-128517857D02*
X64089285Y-128017857D01*
X64839285Y-128339285D01*
X64839285Y-127732142D02*
X64089285Y-127732142D01*
X64553571Y-127660714D02*
X64839285Y-127446428D01*
X64339285Y-127446428D02*
X64625000Y-127732142D01*
%TO.C,R4*%
X60339285Y-135125000D02*
X59982142Y-135375000D01*
X60339285Y-135553571D02*
X59589285Y-135553571D01*
X59589285Y-135267857D01*
X59625000Y-135196428D01*
X59660714Y-135160714D01*
X59732142Y-135125000D01*
X59839285Y-135125000D01*
X59910714Y-135160714D01*
X59946428Y-135196428D01*
X59982142Y-135267857D01*
X59982142Y-135553571D01*
X59839285Y-134482142D02*
X60339285Y-134482142D01*
X59553571Y-134660714D02*
X60089285Y-134839285D01*
X60089285Y-134375000D01*
X59589285Y-128553571D02*
X59589285Y-128089285D01*
X59875000Y-128339285D01*
X59875000Y-128232142D01*
X59910714Y-128160714D01*
X59946428Y-128125000D01*
X60017857Y-128089285D01*
X60196428Y-128089285D01*
X60267857Y-128125000D01*
X60303571Y-128160714D01*
X60339285Y-128232142D01*
X60339285Y-128446428D01*
X60303571Y-128517857D01*
X60267857Y-128553571D01*
X60339285Y-127767857D02*
X59589285Y-127767857D01*
X60053571Y-127696428D02*
X60339285Y-127482142D01*
X59839285Y-127482142D02*
X60125000Y-127767857D01*
%TO.C,R3*%
X60339285Y-145625000D02*
X59982142Y-145875000D01*
X60339285Y-146053571D02*
X59589285Y-146053571D01*
X59589285Y-145767857D01*
X59625000Y-145696428D01*
X59660714Y-145660714D01*
X59732142Y-145625000D01*
X59839285Y-145625000D01*
X59910714Y-145660714D01*
X59946428Y-145696428D01*
X59982142Y-145767857D01*
X59982142Y-146053571D01*
X59589285Y-145375000D02*
X59589285Y-144910714D01*
X59875000Y-145160714D01*
X59875000Y-145053571D01*
X59910714Y-144982142D01*
X59946428Y-144946428D01*
X60017857Y-144910714D01*
X60196428Y-144910714D01*
X60267857Y-144946428D01*
X60303571Y-144982142D01*
X60339285Y-145053571D01*
X60339285Y-145267857D01*
X60303571Y-145339285D01*
X60267857Y-145375000D01*
X60339285Y-139946428D02*
X60339285Y-140375000D01*
X60339285Y-140160714D02*
X59589285Y-140160714D01*
X59696428Y-140232142D01*
X59767857Y-140303571D01*
X59803571Y-140375000D01*
X59589285Y-139482142D02*
X59589285Y-139410714D01*
X59625000Y-139339285D01*
X59660714Y-139303571D01*
X59732142Y-139267857D01*
X59875000Y-139232142D01*
X60053571Y-139232142D01*
X60196428Y-139267857D01*
X60267857Y-139303571D01*
X60303571Y-139339285D01*
X60339285Y-139410714D01*
X60339285Y-139482142D01*
X60303571Y-139553571D01*
X60267857Y-139589285D01*
X60196428Y-139625000D01*
X60053571Y-139660714D01*
X59875000Y-139660714D01*
X59732142Y-139625000D01*
X59660714Y-139589285D01*
X59625000Y-139553571D01*
X59589285Y-139482142D01*
X60339285Y-138910714D02*
X59589285Y-138910714D01*
X60053571Y-138839285D02*
X60339285Y-138625000D01*
X59839285Y-138625000D02*
X60125000Y-138910714D01*
%TO.C,J1*%
X62706666Y-165832380D02*
X62706666Y-166546666D01*
X62659047Y-166689523D01*
X62563809Y-166784761D01*
X62420952Y-166832380D01*
X62325714Y-166832380D01*
X63706666Y-166832380D02*
X63135238Y-166832380D01*
X63420952Y-166832380D02*
X63420952Y-165832380D01*
X63325714Y-165975238D01*
X63230476Y-166070476D01*
X63135238Y-166118095D01*
%TO.C,R6*%
X121375000Y-168839285D02*
X121125000Y-168482142D01*
X120946428Y-168839285D02*
X120946428Y-168089285D01*
X121232142Y-168089285D01*
X121303571Y-168125000D01*
X121339285Y-168160714D01*
X121375000Y-168232142D01*
X121375000Y-168339285D01*
X121339285Y-168410714D01*
X121303571Y-168446428D01*
X121232142Y-168482142D01*
X120946428Y-168482142D01*
X122017857Y-168089285D02*
X121875000Y-168089285D01*
X121803571Y-168125000D01*
X121767857Y-168160714D01*
X121696428Y-168267857D01*
X121660714Y-168410714D01*
X121660714Y-168696428D01*
X121696428Y-168767857D01*
X121732142Y-168803571D01*
X121803571Y-168839285D01*
X121946428Y-168839285D01*
X122017857Y-168803571D01*
X122053571Y-168767857D01*
X122089285Y-168696428D01*
X122089285Y-168517857D01*
X122053571Y-168446428D01*
X122017857Y-168410714D01*
X121946428Y-168375000D01*
X121803571Y-168375000D01*
X121732142Y-168410714D01*
X121696428Y-168446428D01*
X121660714Y-168517857D01*
X127410714Y-168839285D02*
X126982142Y-168839285D01*
X127196428Y-168839285D02*
X127196428Y-168089285D01*
X127125000Y-168196428D01*
X127053571Y-168267857D01*
X126982142Y-168303571D01*
X127732142Y-168839285D02*
X127732142Y-168089285D01*
X127803571Y-168553571D02*
X128017857Y-168839285D01*
X128017857Y-168339285D02*
X127732142Y-168625000D01*
%TO.C,R14*%
X124017857Y-89839285D02*
X123767857Y-89482142D01*
X123589285Y-89839285D02*
X123589285Y-89089285D01*
X123875000Y-89089285D01*
X123946428Y-89125000D01*
X123982142Y-89160714D01*
X124017857Y-89232142D01*
X124017857Y-89339285D01*
X123982142Y-89410714D01*
X123946428Y-89446428D01*
X123875000Y-89482142D01*
X123589285Y-89482142D01*
X124732142Y-89839285D02*
X124303571Y-89839285D01*
X124517857Y-89839285D02*
X124517857Y-89089285D01*
X124446428Y-89196428D01*
X124375000Y-89267857D01*
X124303571Y-89303571D01*
X125375000Y-89339285D02*
X125375000Y-89839285D01*
X125196428Y-89053571D02*
X125017857Y-89589285D01*
X125482142Y-89589285D01*
X130410714Y-89839285D02*
X129982142Y-89839285D01*
X130196428Y-89839285D02*
X130196428Y-89089285D01*
X130125000Y-89196428D01*
X130053571Y-89267857D01*
X129982142Y-89303571D01*
X130732142Y-89839285D02*
X130732142Y-89089285D01*
X130803571Y-89553571D02*
X131017857Y-89839285D01*
X131017857Y-89339285D02*
X130732142Y-89625000D01*
%TO.C,R12*%
X124017857Y-114839285D02*
X123767857Y-114482142D01*
X123589285Y-114839285D02*
X123589285Y-114089285D01*
X123875000Y-114089285D01*
X123946428Y-114125000D01*
X123982142Y-114160714D01*
X124017857Y-114232142D01*
X124017857Y-114339285D01*
X123982142Y-114410714D01*
X123946428Y-114446428D01*
X123875000Y-114482142D01*
X123589285Y-114482142D01*
X124732142Y-114839285D02*
X124303571Y-114839285D01*
X124517857Y-114839285D02*
X124517857Y-114089285D01*
X124446428Y-114196428D01*
X124375000Y-114267857D01*
X124303571Y-114303571D01*
X125017857Y-114160714D02*
X125053571Y-114125000D01*
X125125000Y-114089285D01*
X125303571Y-114089285D01*
X125375000Y-114125000D01*
X125410714Y-114160714D01*
X125446428Y-114232142D01*
X125446428Y-114303571D01*
X125410714Y-114410714D01*
X124982142Y-114839285D01*
X125446428Y-114839285D01*
X130410714Y-114839285D02*
X129982142Y-114839285D01*
X130196428Y-114839285D02*
X130196428Y-114089285D01*
X130125000Y-114196428D01*
X130053571Y-114267857D01*
X129982142Y-114303571D01*
X130732142Y-114839285D02*
X130732142Y-114089285D01*
X130803571Y-114553571D02*
X131017857Y-114839285D01*
X131017857Y-114339285D02*
X130732142Y-114625000D01*
%TO.C,R8*%
X121375000Y-163839285D02*
X121125000Y-163482142D01*
X120946428Y-163839285D02*
X120946428Y-163089285D01*
X121232142Y-163089285D01*
X121303571Y-163125000D01*
X121339285Y-163160714D01*
X121375000Y-163232142D01*
X121375000Y-163339285D01*
X121339285Y-163410714D01*
X121303571Y-163446428D01*
X121232142Y-163482142D01*
X120946428Y-163482142D01*
X121803571Y-163410714D02*
X121732142Y-163375000D01*
X121696428Y-163339285D01*
X121660714Y-163267857D01*
X121660714Y-163232142D01*
X121696428Y-163160714D01*
X121732142Y-163125000D01*
X121803571Y-163089285D01*
X121946428Y-163089285D01*
X122017857Y-163125000D01*
X122053571Y-163160714D01*
X122089285Y-163232142D01*
X122089285Y-163267857D01*
X122053571Y-163339285D01*
X122017857Y-163375000D01*
X121946428Y-163410714D01*
X121803571Y-163410714D01*
X121732142Y-163446428D01*
X121696428Y-163482142D01*
X121660714Y-163553571D01*
X121660714Y-163696428D01*
X121696428Y-163767857D01*
X121732142Y-163803571D01*
X121803571Y-163839285D01*
X121946428Y-163839285D01*
X122017857Y-163803571D01*
X122053571Y-163767857D01*
X122089285Y-163696428D01*
X122089285Y-163553571D01*
X122053571Y-163482142D01*
X122017857Y-163446428D01*
X121946428Y-163410714D01*
X127410714Y-163839285D02*
X126982142Y-163839285D01*
X127196428Y-163839285D02*
X127196428Y-163089285D01*
X127125000Y-163196428D01*
X127053571Y-163267857D01*
X126982142Y-163303571D01*
X127732142Y-163839285D02*
X127732142Y-163089285D01*
X127803571Y-163553571D02*
X128017857Y-163839285D01*
X128017857Y-163339285D02*
X127732142Y-163625000D01*
%TO.C,J12*%
X129952380Y-105309523D02*
X130666666Y-105309523D01*
X130809523Y-105357142D01*
X130904761Y-105452380D01*
X130952380Y-105595238D01*
X130952380Y-105690476D01*
X130952380Y-104309523D02*
X130952380Y-104880952D01*
X130952380Y-104595238D02*
X129952380Y-104595238D01*
X130095238Y-104690476D01*
X130190476Y-104785714D01*
X130238095Y-104880952D01*
X130047619Y-103928571D02*
X130000000Y-103880952D01*
X129952380Y-103785714D01*
X129952380Y-103547619D01*
X130000000Y-103452380D01*
X130047619Y-103404761D01*
X130142857Y-103357142D01*
X130238095Y-103357142D01*
X130380952Y-103404761D01*
X130952380Y-103976190D01*
X130952380Y-103357142D01*
%TO.C,J9*%
X129952380Y-79833333D02*
X130666666Y-79833333D01*
X130809523Y-79880952D01*
X130904761Y-79976190D01*
X130952380Y-80119047D01*
X130952380Y-80214285D01*
X130952380Y-79309523D02*
X130952380Y-79119047D01*
X130904761Y-79023809D01*
X130857142Y-78976190D01*
X130714285Y-78880952D01*
X130523809Y-78833333D01*
X130142857Y-78833333D01*
X130047619Y-78880952D01*
X130000000Y-78928571D01*
X129952380Y-79023809D01*
X129952380Y-79214285D01*
X130000000Y-79309523D01*
X130047619Y-79357142D01*
X130142857Y-79404761D01*
X130380952Y-79404761D01*
X130476190Y-79357142D01*
X130523809Y-79309523D01*
X130571428Y-79214285D01*
X130571428Y-79023809D01*
X130523809Y-78928571D01*
X130476190Y-78880952D01*
X130380952Y-78833333D01*
%TO.C,J10*%
X129952380Y-155309523D02*
X130666666Y-155309523D01*
X130809523Y-155357142D01*
X130904761Y-155452380D01*
X130952380Y-155595238D01*
X130952380Y-155690476D01*
X130952380Y-154309523D02*
X130952380Y-154880952D01*
X130952380Y-154595238D02*
X129952380Y-154595238D01*
X130095238Y-154690476D01*
X130190476Y-154785714D01*
X130238095Y-154880952D01*
X129952380Y-153690476D02*
X129952380Y-153595238D01*
X130000000Y-153500000D01*
X130047619Y-153452380D01*
X130142857Y-153404761D01*
X130333333Y-153357142D01*
X130571428Y-153357142D01*
X130761904Y-153404761D01*
X130857142Y-153452380D01*
X130904761Y-153500000D01*
X130952380Y-153595238D01*
X130952380Y-153690476D01*
X130904761Y-153785714D01*
X130857142Y-153833333D01*
X130761904Y-153880952D01*
X130571428Y-153928571D01*
X130333333Y-153928571D01*
X130142857Y-153880952D01*
X130047619Y-153833333D01*
X130000000Y-153785714D01*
X129952380Y-153690476D01*
%TO.C,J11*%
X129952380Y-130309523D02*
X130666666Y-130309523D01*
X130809523Y-130357142D01*
X130904761Y-130452380D01*
X130952380Y-130595238D01*
X130952380Y-130690476D01*
X130952380Y-129309523D02*
X130952380Y-129880952D01*
X130952380Y-129595238D02*
X129952380Y-129595238D01*
X130095238Y-129690476D01*
X130190476Y-129785714D01*
X130238095Y-129880952D01*
X130952380Y-128357142D02*
X130952380Y-128928571D01*
X130952380Y-128642857D02*
X129952380Y-128642857D01*
X130095238Y-128738095D01*
X130190476Y-128833333D01*
X130238095Y-128928571D01*
%TO.C,R13*%
X140017857Y-94839285D02*
X139767857Y-94482142D01*
X139589285Y-94839285D02*
X139589285Y-94089285D01*
X139875000Y-94089285D01*
X139946428Y-94125000D01*
X139982142Y-94160714D01*
X140017857Y-94232142D01*
X140017857Y-94339285D01*
X139982142Y-94410714D01*
X139946428Y-94446428D01*
X139875000Y-94482142D01*
X139589285Y-94482142D01*
X140732142Y-94839285D02*
X140303571Y-94839285D01*
X140517857Y-94839285D02*
X140517857Y-94089285D01*
X140446428Y-94196428D01*
X140375000Y-94267857D01*
X140303571Y-94303571D01*
X140982142Y-94089285D02*
X141446428Y-94089285D01*
X141196428Y-94375000D01*
X141303571Y-94375000D01*
X141375000Y-94410714D01*
X141410714Y-94446428D01*
X141446428Y-94517857D01*
X141446428Y-94696428D01*
X141410714Y-94767857D01*
X141375000Y-94803571D01*
X141303571Y-94839285D01*
X141089285Y-94839285D01*
X141017857Y-94803571D01*
X140982142Y-94767857D01*
X134410714Y-94839285D02*
X133982142Y-94839285D01*
X134196428Y-94839285D02*
X134196428Y-94089285D01*
X134125000Y-94196428D01*
X134053571Y-94267857D01*
X133982142Y-94303571D01*
X134732142Y-94839285D02*
X134732142Y-94089285D01*
X134803571Y-94553571D02*
X135017857Y-94839285D01*
X135017857Y-94339285D02*
X134732142Y-94625000D01*
%TO.C,R11*%
X140017857Y-119839285D02*
X139767857Y-119482142D01*
X139589285Y-119839285D02*
X139589285Y-119089285D01*
X139875000Y-119089285D01*
X139946428Y-119125000D01*
X139982142Y-119160714D01*
X140017857Y-119232142D01*
X140017857Y-119339285D01*
X139982142Y-119410714D01*
X139946428Y-119446428D01*
X139875000Y-119482142D01*
X139589285Y-119482142D01*
X140732142Y-119839285D02*
X140303571Y-119839285D01*
X140517857Y-119839285D02*
X140517857Y-119089285D01*
X140446428Y-119196428D01*
X140375000Y-119267857D01*
X140303571Y-119303571D01*
X141446428Y-119839285D02*
X141017857Y-119839285D01*
X141232142Y-119839285D02*
X141232142Y-119089285D01*
X141160714Y-119196428D01*
X141089285Y-119267857D01*
X141017857Y-119303571D01*
X134410714Y-119839285D02*
X133982142Y-119839285D01*
X134196428Y-119839285D02*
X134196428Y-119089285D01*
X134125000Y-119196428D01*
X134053571Y-119267857D01*
X133982142Y-119303571D01*
X134732142Y-119839285D02*
X134732142Y-119089285D01*
X134803571Y-119553571D02*
X135017857Y-119839285D01*
X135017857Y-119339285D02*
X134732142Y-119625000D01*
%TO.C,R7*%
X140375000Y-168839285D02*
X140125000Y-168482142D01*
X139946428Y-168839285D02*
X139946428Y-168089285D01*
X140232142Y-168089285D01*
X140303571Y-168125000D01*
X140339285Y-168160714D01*
X140375000Y-168232142D01*
X140375000Y-168339285D01*
X140339285Y-168410714D01*
X140303571Y-168446428D01*
X140232142Y-168482142D01*
X139946428Y-168482142D01*
X140625000Y-168089285D02*
X141125000Y-168089285D01*
X140803571Y-168839285D01*
X134410714Y-168839285D02*
X133982142Y-168839285D01*
X134196428Y-168839285D02*
X134196428Y-168089285D01*
X134125000Y-168196428D01*
X134053571Y-168267857D01*
X133982142Y-168303571D01*
X134732142Y-168839285D02*
X134732142Y-168089285D01*
X134803571Y-168553571D02*
X135017857Y-168839285D01*
X135017857Y-168339285D02*
X134732142Y-168625000D01*
%TO.C,R10*%
X124017857Y-139839285D02*
X123767857Y-139482142D01*
X123589285Y-139839285D02*
X123589285Y-139089285D01*
X123875000Y-139089285D01*
X123946428Y-139125000D01*
X123982142Y-139160714D01*
X124017857Y-139232142D01*
X124017857Y-139339285D01*
X123982142Y-139410714D01*
X123946428Y-139446428D01*
X123875000Y-139482142D01*
X123589285Y-139482142D01*
X124732142Y-139839285D02*
X124303571Y-139839285D01*
X124517857Y-139839285D02*
X124517857Y-139089285D01*
X124446428Y-139196428D01*
X124375000Y-139267857D01*
X124303571Y-139303571D01*
X125196428Y-139089285D02*
X125267857Y-139089285D01*
X125339285Y-139125000D01*
X125375000Y-139160714D01*
X125410714Y-139232142D01*
X125446428Y-139375000D01*
X125446428Y-139553571D01*
X125410714Y-139696428D01*
X125375000Y-139767857D01*
X125339285Y-139803571D01*
X125267857Y-139839285D01*
X125196428Y-139839285D01*
X125125000Y-139803571D01*
X125089285Y-139767857D01*
X125053571Y-139696428D01*
X125017857Y-139553571D01*
X125017857Y-139375000D01*
X125053571Y-139232142D01*
X125089285Y-139160714D01*
X125125000Y-139125000D01*
X125196428Y-139089285D01*
X130410714Y-139839285D02*
X129982142Y-139839285D01*
X130196428Y-139839285D02*
X130196428Y-139089285D01*
X130125000Y-139196428D01*
X130053571Y-139267857D01*
X129982142Y-139303571D01*
X130732142Y-139839285D02*
X130732142Y-139089285D01*
X130803571Y-139553571D02*
X131017857Y-139839285D01*
X131017857Y-139339285D02*
X130732142Y-139625000D01*
%TO.C,R9*%
X140375000Y-144839285D02*
X140125000Y-144482142D01*
X139946428Y-144839285D02*
X139946428Y-144089285D01*
X140232142Y-144089285D01*
X140303571Y-144125000D01*
X140339285Y-144160714D01*
X140375000Y-144232142D01*
X140375000Y-144339285D01*
X140339285Y-144410714D01*
X140303571Y-144446428D01*
X140232142Y-144482142D01*
X139946428Y-144482142D01*
X140732142Y-144839285D02*
X140875000Y-144839285D01*
X140946428Y-144803571D01*
X140982142Y-144767857D01*
X141053571Y-144660714D01*
X141089285Y-144517857D01*
X141089285Y-144232142D01*
X141053571Y-144160714D01*
X141017857Y-144125000D01*
X140946428Y-144089285D01*
X140803571Y-144089285D01*
X140732142Y-144125000D01*
X140696428Y-144160714D01*
X140660714Y-144232142D01*
X140660714Y-144410714D01*
X140696428Y-144482142D01*
X140732142Y-144517857D01*
X140803571Y-144553571D01*
X140946428Y-144553571D01*
X141017857Y-144517857D01*
X141053571Y-144482142D01*
X141089285Y-144410714D01*
X134410714Y-144839285D02*
X133982142Y-144839285D01*
X134196428Y-144839285D02*
X134196428Y-144089285D01*
X134125000Y-144196428D01*
X134053571Y-144267857D01*
X133982142Y-144303571D01*
X134732142Y-144839285D02*
X134732142Y-144089285D01*
X134803571Y-144553571D02*
X135017857Y-144839285D01*
X135017857Y-144339285D02*
X134732142Y-144625000D01*
%TO.C,R1*%
X60375000Y-162339285D02*
X60125000Y-161982142D01*
X59946428Y-162339285D02*
X59946428Y-161589285D01*
X60232142Y-161589285D01*
X60303571Y-161625000D01*
X60339285Y-161660714D01*
X60375000Y-161732142D01*
X60375000Y-161839285D01*
X60339285Y-161910714D01*
X60303571Y-161946428D01*
X60232142Y-161982142D01*
X59946428Y-161982142D01*
X61089285Y-162339285D02*
X60660714Y-162339285D01*
X60875000Y-162339285D02*
X60875000Y-161589285D01*
X60803571Y-161696428D01*
X60732142Y-161767857D01*
X60660714Y-161803571D01*
X65196428Y-161660714D02*
X65232142Y-161625000D01*
X65303571Y-161589285D01*
X65482142Y-161589285D01*
X65553571Y-161625000D01*
X65589285Y-161660714D01*
X65625000Y-161732142D01*
X65625000Y-161803571D01*
X65589285Y-161910714D01*
X65160714Y-162339285D01*
X65625000Y-162339285D01*
X65910714Y-161660714D02*
X65946428Y-161625000D01*
X66017857Y-161589285D01*
X66196428Y-161589285D01*
X66267857Y-161625000D01*
X66303571Y-161660714D01*
X66339285Y-161732142D01*
X66339285Y-161803571D01*
X66303571Y-161910714D01*
X65875000Y-162339285D01*
X66339285Y-162339285D01*
X66803571Y-161589285D02*
X66875000Y-161589285D01*
X66946428Y-161625000D01*
X66982142Y-161660714D01*
X67017857Y-161732142D01*
X67053571Y-161875000D01*
X67053571Y-162053571D01*
X67017857Y-162196428D01*
X66982142Y-162267857D01*
X66946428Y-162303571D01*
X66875000Y-162339285D01*
X66803571Y-162339285D01*
X66732142Y-162303571D01*
X66696428Y-162267857D01*
X66660714Y-162196428D01*
X66625000Y-162053571D01*
X66625000Y-161875000D01*
X66660714Y-161732142D01*
X66696428Y-161660714D01*
X66732142Y-161625000D01*
X66803571Y-161589285D01*
X67803571Y-162339285D02*
X67553571Y-161982142D01*
X67375000Y-162339285D02*
X67375000Y-161589285D01*
X67660714Y-161589285D01*
X67732142Y-161625000D01*
X67767857Y-161660714D01*
X67803571Y-161732142D01*
X67803571Y-161839285D01*
X67767857Y-161910714D01*
X67732142Y-161946428D01*
X67660714Y-161982142D01*
X67375000Y-161982142D01*
%TO.C,R2*%
X45339285Y-151625000D02*
X44982142Y-151875000D01*
X45339285Y-152053571D02*
X44589285Y-152053571D01*
X44589285Y-151767857D01*
X44625000Y-151696428D01*
X44660714Y-151660714D01*
X44732142Y-151625000D01*
X44839285Y-151625000D01*
X44910714Y-151660714D01*
X44946428Y-151696428D01*
X44982142Y-151767857D01*
X44982142Y-152053571D01*
X44660714Y-151339285D02*
X44625000Y-151303571D01*
X44589285Y-151232142D01*
X44589285Y-151053571D01*
X44625000Y-150982142D01*
X44660714Y-150946428D01*
X44732142Y-150910714D01*
X44803571Y-150910714D01*
X44910714Y-150946428D01*
X45339285Y-151375000D01*
X45339285Y-150910714D01*
X44589285Y-158410714D02*
X44589285Y-158767857D01*
X44946428Y-158803571D01*
X44910714Y-158767857D01*
X44875000Y-158696428D01*
X44875000Y-158517857D01*
X44910714Y-158446428D01*
X44946428Y-158410714D01*
X45017857Y-158375000D01*
X45196428Y-158375000D01*
X45267857Y-158410714D01*
X45303571Y-158446428D01*
X45339285Y-158517857D01*
X45339285Y-158696428D01*
X45303571Y-158767857D01*
X45267857Y-158803571D01*
X44589285Y-157910714D02*
X44589285Y-157839285D01*
X44625000Y-157767857D01*
X44660714Y-157732142D01*
X44732142Y-157696428D01*
X44875000Y-157660714D01*
X45053571Y-157660714D01*
X45196428Y-157696428D01*
X45267857Y-157732142D01*
X45303571Y-157767857D01*
X45339285Y-157839285D01*
X45339285Y-157910714D01*
X45303571Y-157982142D01*
X45267857Y-158017857D01*
X45196428Y-158053571D01*
X45053571Y-158089285D01*
X44875000Y-158089285D01*
X44732142Y-158053571D01*
X44660714Y-158017857D01*
X44625000Y-157982142D01*
X44589285Y-157910714D01*
X44589285Y-157196428D02*
X44589285Y-157125000D01*
X44625000Y-157053571D01*
X44660714Y-157017857D01*
X44732142Y-156982142D01*
X44875000Y-156946428D01*
X45053571Y-156946428D01*
X45196428Y-156982142D01*
X45267857Y-157017857D01*
X45303571Y-157053571D01*
X45339285Y-157125000D01*
X45339285Y-157196428D01*
X45303571Y-157267857D01*
X45267857Y-157303571D01*
X45196428Y-157339285D01*
X45053571Y-157375000D01*
X44875000Y-157375000D01*
X44732142Y-157339285D01*
X44660714Y-157303571D01*
X44625000Y-157267857D01*
X44589285Y-157196428D01*
X45339285Y-156196428D02*
X44982142Y-156446428D01*
X45339285Y-156625000D02*
X44589285Y-156625000D01*
X44589285Y-156339285D01*
X44625000Y-156267857D01*
X44660714Y-156232142D01*
X44732142Y-156196428D01*
X44839285Y-156196428D01*
X44910714Y-156232142D01*
X44946428Y-156267857D01*
X44982142Y-156339285D01*
X44982142Y-156625000D01*
%TO.C,OK1*%
X52428571Y-162952380D02*
X52619047Y-162952380D01*
X52714285Y-163000000D01*
X52809523Y-163095238D01*
X52857142Y-163285714D01*
X52857142Y-163619047D01*
X52809523Y-163809523D01*
X52714285Y-163904761D01*
X52619047Y-163952380D01*
X52428571Y-163952380D01*
X52333333Y-163904761D01*
X52238095Y-163809523D01*
X52190476Y-163619047D01*
X52190476Y-163285714D01*
X52238095Y-163095238D01*
X52333333Y-163000000D01*
X52428571Y-162952380D01*
X53285714Y-163952380D02*
X53285714Y-162952380D01*
X53857142Y-163952380D02*
X53428571Y-163380952D01*
X53857142Y-162952380D02*
X53285714Y-163523809D01*
X54809523Y-163952380D02*
X54238095Y-163952380D01*
X54523809Y-163952380D02*
X54523809Y-162952380D01*
X54428571Y-163095238D01*
X54333333Y-163190476D01*
X54238095Y-163238095D01*
%TO.C,J16*%
X155952380Y-80309523D02*
X156666666Y-80309523D01*
X156809523Y-80357142D01*
X156904761Y-80452380D01*
X156952380Y-80595238D01*
X156952380Y-80690476D01*
X156952380Y-79309523D02*
X156952380Y-79880952D01*
X156952380Y-79595238D02*
X155952380Y-79595238D01*
X156095238Y-79690476D01*
X156190476Y-79785714D01*
X156238095Y-79880952D01*
X155952380Y-78452380D02*
X155952380Y-78642857D01*
X156000000Y-78738095D01*
X156047619Y-78785714D01*
X156190476Y-78880952D01*
X156380952Y-78928571D01*
X156761904Y-78928571D01*
X156857142Y-78880952D01*
X156904761Y-78833333D01*
X156952380Y-78738095D01*
X156952380Y-78547619D01*
X156904761Y-78452380D01*
X156857142Y-78404761D01*
X156761904Y-78357142D01*
X156523809Y-78357142D01*
X156428571Y-78404761D01*
X156380952Y-78452380D01*
X156333333Y-78547619D01*
X156333333Y-78738095D01*
X156380952Y-78833333D01*
X156428571Y-78880952D01*
X156523809Y-78928571D01*
%TO.C,J15*%
X155952380Y-105309523D02*
X156666666Y-105309523D01*
X156809523Y-105357142D01*
X156904761Y-105452380D01*
X156952380Y-105595238D01*
X156952380Y-105690476D01*
X156952380Y-104309523D02*
X156952380Y-104880952D01*
X156952380Y-104595238D02*
X155952380Y-104595238D01*
X156095238Y-104690476D01*
X156190476Y-104785714D01*
X156238095Y-104880952D01*
X155952380Y-103404761D02*
X155952380Y-103880952D01*
X156428571Y-103928571D01*
X156380952Y-103880952D01*
X156333333Y-103785714D01*
X156333333Y-103547619D01*
X156380952Y-103452380D01*
X156428571Y-103404761D01*
X156523809Y-103357142D01*
X156761904Y-103357142D01*
X156857142Y-103404761D01*
X156904761Y-103452380D01*
X156952380Y-103547619D01*
X156952380Y-103785714D01*
X156904761Y-103880952D01*
X156857142Y-103928571D01*
%TO.C,J13*%
X155952380Y-155309523D02*
X156666666Y-155309523D01*
X156809523Y-155357142D01*
X156904761Y-155452380D01*
X156952380Y-155595238D01*
X156952380Y-155690476D01*
X156952380Y-154309523D02*
X156952380Y-154880952D01*
X156952380Y-154595238D02*
X155952380Y-154595238D01*
X156095238Y-154690476D01*
X156190476Y-154785714D01*
X156238095Y-154880952D01*
X155952380Y-153976190D02*
X155952380Y-153357142D01*
X156333333Y-153690476D01*
X156333333Y-153547619D01*
X156380952Y-153452380D01*
X156428571Y-153404761D01*
X156523809Y-153357142D01*
X156761904Y-153357142D01*
X156857142Y-153404761D01*
X156904761Y-153452380D01*
X156952380Y-153547619D01*
X156952380Y-153833333D01*
X156904761Y-153928571D01*
X156857142Y-153976190D01*
%TO.C,J14*%
X155952380Y-130309523D02*
X156666666Y-130309523D01*
X156809523Y-130357142D01*
X156904761Y-130452380D01*
X156952380Y-130595238D01*
X156952380Y-130690476D01*
X156952380Y-129309523D02*
X156952380Y-129880952D01*
X156952380Y-129595238D02*
X155952380Y-129595238D01*
X156095238Y-129690476D01*
X156190476Y-129785714D01*
X156238095Y-129880952D01*
X156285714Y-128452380D02*
X156952380Y-128452380D01*
X155904761Y-128690476D02*
X156619047Y-128928571D01*
X156619047Y-128309523D01*
%TO.C,J2*%
X65750000Y-83919285D02*
X65750000Y-84455000D01*
X65714285Y-84562142D01*
X65642857Y-84633571D01*
X65535714Y-84669285D01*
X65464285Y-84669285D01*
X66071428Y-83990714D02*
X66107142Y-83955000D01*
X66178571Y-83919285D01*
X66357142Y-83919285D01*
X66428571Y-83955000D01*
X66464285Y-83990714D01*
X66500000Y-84062142D01*
X66500000Y-84133571D01*
X66464285Y-84240714D01*
X66035714Y-84669285D01*
X66500000Y-84669285D01*
X70738095Y-73571428D02*
X71500000Y-73571428D01*
X71119047Y-73952380D02*
X71119047Y-73190476D01*
X72500000Y-73952380D02*
X71928571Y-73952380D01*
X72214285Y-73952380D02*
X72214285Y-72952380D01*
X72119047Y-73095238D01*
X72023809Y-73190476D01*
X71928571Y-73238095D01*
X72880952Y-73047619D02*
X72928571Y-73000000D01*
X73023809Y-72952380D01*
X73261904Y-72952380D01*
X73357142Y-73000000D01*
X73404761Y-73047619D01*
X73452380Y-73142857D01*
X73452380Y-73238095D01*
X73404761Y-73380952D01*
X72833333Y-73952380D01*
X73452380Y-73952380D01*
X73738095Y-72952380D02*
X74071428Y-73952380D01*
X74404761Y-72952380D01*
X70738095Y-97571428D02*
X71500000Y-97571428D01*
X72500000Y-97952380D02*
X71928571Y-97952380D01*
X72214285Y-97952380D02*
X72214285Y-96952380D01*
X72119047Y-97095238D01*
X72023809Y-97190476D01*
X71928571Y-97238095D01*
X72880952Y-97047619D02*
X72928571Y-97000000D01*
X73023809Y-96952380D01*
X73261904Y-96952380D01*
X73357142Y-97000000D01*
X73404761Y-97047619D01*
X73452380Y-97142857D01*
X73452380Y-97238095D01*
X73404761Y-97380952D01*
X72833333Y-97952380D01*
X73452380Y-97952380D01*
X73738095Y-96952380D02*
X74071428Y-97952380D01*
X74404761Y-96952380D01*
X68428571Y-96452380D02*
X68095238Y-95976190D01*
X67857142Y-96452380D02*
X67857142Y-95452380D01*
X68238095Y-95452380D01*
X68333333Y-95500000D01*
X68380952Y-95547619D01*
X68428571Y-95642857D01*
X68428571Y-95785714D01*
X68380952Y-95880952D01*
X68333333Y-95928571D01*
X68238095Y-95976190D01*
X67857142Y-95976190D01*
X68857142Y-95928571D02*
X69190476Y-95928571D01*
X69333333Y-96452380D02*
X68857142Y-96452380D01*
X68857142Y-95452380D01*
X69333333Y-95452380D01*
X69761904Y-96452380D02*
X69761904Y-95452380D01*
X70000000Y-95452380D01*
X70142857Y-95500000D01*
X70238095Y-95595238D01*
X70285714Y-95690476D01*
X70333333Y-95880952D01*
X70333333Y-96023809D01*
X70285714Y-96214285D01*
X70238095Y-96309523D01*
X70142857Y-96404761D01*
X70000000Y-96452380D01*
X69761904Y-96452380D01*
X71476190Y-96404761D02*
X71619047Y-96452380D01*
X71857142Y-96452380D01*
X71952380Y-96404761D01*
X72000000Y-96357142D01*
X72047619Y-96261904D01*
X72047619Y-96166666D01*
X72000000Y-96071428D01*
X71952380Y-96023809D01*
X71857142Y-95976190D01*
X71666666Y-95928571D01*
X71571428Y-95880952D01*
X71523809Y-95833333D01*
X71476190Y-95738095D01*
X71476190Y-95642857D01*
X71523809Y-95547619D01*
X71571428Y-95500000D01*
X71666666Y-95452380D01*
X71904761Y-95452380D01*
X72047619Y-95500000D01*
X72333333Y-95452380D02*
X72904761Y-95452380D01*
X72619047Y-96452380D02*
X72619047Y-95452380D01*
X73809523Y-96452380D02*
X73476190Y-95976190D01*
X73238095Y-96452380D02*
X73238095Y-95452380D01*
X73619047Y-95452380D01*
X73714285Y-95500000D01*
X73761904Y-95547619D01*
X73809523Y-95642857D01*
X73809523Y-95785714D01*
X73761904Y-95880952D01*
X73714285Y-95928571D01*
X73619047Y-95976190D01*
X73238095Y-95976190D01*
X74238095Y-96452380D02*
X74238095Y-95452380D01*
X74714285Y-96452380D02*
X74714285Y-95452380D01*
X75095238Y-95452380D01*
X75190476Y-95500000D01*
X75238095Y-95547619D01*
X75285714Y-95642857D01*
X75285714Y-95785714D01*
X75238095Y-95880952D01*
X75190476Y-95928571D01*
X75095238Y-95976190D01*
X74714285Y-95976190D01*
X75714285Y-95928571D02*
X76047619Y-95928571D01*
X76190476Y-96452380D02*
X75714285Y-96452380D01*
X75714285Y-95452380D01*
X76190476Y-95452380D01*
%TO.C,DAC1*%
X49560000Y-148509285D02*
X49560000Y-147759285D01*
X49738571Y-147759285D01*
X49845714Y-147795000D01*
X49917142Y-147866428D01*
X49952857Y-147937857D01*
X49988571Y-148080714D01*
X49988571Y-148187857D01*
X49952857Y-148330714D01*
X49917142Y-148402142D01*
X49845714Y-148473571D01*
X49738571Y-148509285D01*
X49560000Y-148509285D01*
X50274285Y-148295000D02*
X50631428Y-148295000D01*
X50202857Y-148509285D02*
X50452857Y-147759285D01*
X50702857Y-148509285D01*
X51381428Y-148437857D02*
X51345714Y-148473571D01*
X51238571Y-148509285D01*
X51167142Y-148509285D01*
X51060000Y-148473571D01*
X50988571Y-148402142D01*
X50952857Y-148330714D01*
X50917142Y-148187857D01*
X50917142Y-148080714D01*
X50952857Y-147937857D01*
X50988571Y-147866428D01*
X51060000Y-147795000D01*
X51167142Y-147759285D01*
X51238571Y-147759285D01*
X51345714Y-147795000D01*
X51381428Y-147830714D01*
X52095714Y-148509285D02*
X51667142Y-148509285D01*
X51881428Y-148509285D02*
X51881428Y-147759285D01*
X51810000Y-147866428D01*
X51738571Y-147937857D01*
X51667142Y-147973571D01*
X48571428Y-160839285D02*
X48571428Y-160089285D01*
X48821428Y-160625000D01*
X49071428Y-160089285D01*
X49071428Y-160839285D01*
X49857142Y-160767857D02*
X49821428Y-160803571D01*
X49714285Y-160839285D01*
X49642857Y-160839285D01*
X49535714Y-160803571D01*
X49464285Y-160732142D01*
X49428571Y-160660714D01*
X49392857Y-160517857D01*
X49392857Y-160410714D01*
X49428571Y-160267857D01*
X49464285Y-160196428D01*
X49535714Y-160125000D01*
X49642857Y-160089285D01*
X49714285Y-160089285D01*
X49821428Y-160125000D01*
X49857142Y-160160714D01*
X50178571Y-160839285D02*
X50178571Y-160089285D01*
X50464285Y-160089285D01*
X50535714Y-160125000D01*
X50571428Y-160160714D01*
X50607142Y-160232142D01*
X50607142Y-160339285D01*
X50571428Y-160410714D01*
X50535714Y-160446428D01*
X50464285Y-160482142D01*
X50178571Y-160482142D01*
X51250000Y-160339285D02*
X51250000Y-160839285D01*
X51071428Y-160053571D02*
X50892857Y-160589285D01*
X51357142Y-160589285D01*
X51750000Y-160410714D02*
X51678571Y-160375000D01*
X51642857Y-160339285D01*
X51607142Y-160267857D01*
X51607142Y-160232142D01*
X51642857Y-160160714D01*
X51678571Y-160125000D01*
X51750000Y-160089285D01*
X51892857Y-160089285D01*
X51964285Y-160125000D01*
X52000000Y-160160714D01*
X52035714Y-160232142D01*
X52035714Y-160267857D01*
X52000000Y-160339285D01*
X51964285Y-160375000D01*
X51892857Y-160410714D01*
X51750000Y-160410714D01*
X51678571Y-160446428D01*
X51642857Y-160482142D01*
X51607142Y-160553571D01*
X51607142Y-160696428D01*
X51642857Y-160767857D01*
X51678571Y-160803571D01*
X51750000Y-160839285D01*
X51892857Y-160839285D01*
X51964285Y-160803571D01*
X52000000Y-160767857D01*
X52035714Y-160696428D01*
X52035714Y-160553571D01*
X52000000Y-160482142D01*
X51964285Y-160446428D01*
X51892857Y-160410714D01*
X52321428Y-160160714D02*
X52357142Y-160125000D01*
X52428571Y-160089285D01*
X52607142Y-160089285D01*
X52678571Y-160125000D01*
X52714285Y-160160714D01*
X52750000Y-160232142D01*
X52750000Y-160303571D01*
X52714285Y-160410714D01*
X52285714Y-160839285D01*
X52750000Y-160839285D01*
X53035714Y-160160714D02*
X53071428Y-160125000D01*
X53142857Y-160089285D01*
X53321428Y-160089285D01*
X53392857Y-160125000D01*
X53428571Y-160160714D01*
X53464285Y-160232142D01*
X53464285Y-160303571D01*
X53428571Y-160410714D01*
X53000000Y-160839285D01*
X53464285Y-160839285D01*
%TO.C,DAC2*%
X49560000Y-128509285D02*
X49560000Y-127759285D01*
X49738571Y-127759285D01*
X49845714Y-127795000D01*
X49917142Y-127866428D01*
X49952857Y-127937857D01*
X49988571Y-128080714D01*
X49988571Y-128187857D01*
X49952857Y-128330714D01*
X49917142Y-128402142D01*
X49845714Y-128473571D01*
X49738571Y-128509285D01*
X49560000Y-128509285D01*
X50274285Y-128295000D02*
X50631428Y-128295000D01*
X50202857Y-128509285D02*
X50452857Y-127759285D01*
X50702857Y-128509285D01*
X51381428Y-128437857D02*
X51345714Y-128473571D01*
X51238571Y-128509285D01*
X51167142Y-128509285D01*
X51060000Y-128473571D01*
X50988571Y-128402142D01*
X50952857Y-128330714D01*
X50917142Y-128187857D01*
X50917142Y-128080714D01*
X50952857Y-127937857D01*
X50988571Y-127866428D01*
X51060000Y-127795000D01*
X51167142Y-127759285D01*
X51238571Y-127759285D01*
X51345714Y-127795000D01*
X51381428Y-127830714D01*
X51667142Y-127830714D02*
X51702857Y-127795000D01*
X51774285Y-127759285D01*
X51952857Y-127759285D01*
X52024285Y-127795000D01*
X52060000Y-127830714D01*
X52095714Y-127902142D01*
X52095714Y-127973571D01*
X52060000Y-128080714D01*
X51631428Y-128509285D01*
X52095714Y-128509285D01*
X48571428Y-140839285D02*
X48571428Y-140089285D01*
X48821428Y-140625000D01*
X49071428Y-140089285D01*
X49071428Y-140839285D01*
X49857142Y-140767857D02*
X49821428Y-140803571D01*
X49714285Y-140839285D01*
X49642857Y-140839285D01*
X49535714Y-140803571D01*
X49464285Y-140732142D01*
X49428571Y-140660714D01*
X49392857Y-140517857D01*
X49392857Y-140410714D01*
X49428571Y-140267857D01*
X49464285Y-140196428D01*
X49535714Y-140125000D01*
X49642857Y-140089285D01*
X49714285Y-140089285D01*
X49821428Y-140125000D01*
X49857142Y-140160714D01*
X50178571Y-140839285D02*
X50178571Y-140089285D01*
X50464285Y-140089285D01*
X50535714Y-140125000D01*
X50571428Y-140160714D01*
X50607142Y-140232142D01*
X50607142Y-140339285D01*
X50571428Y-140410714D01*
X50535714Y-140446428D01*
X50464285Y-140482142D01*
X50178571Y-140482142D01*
X51250000Y-140339285D02*
X51250000Y-140839285D01*
X51071428Y-140053571D02*
X50892857Y-140589285D01*
X51357142Y-140589285D01*
X51750000Y-140410714D02*
X51678571Y-140375000D01*
X51642857Y-140339285D01*
X51607142Y-140267857D01*
X51607142Y-140232142D01*
X51642857Y-140160714D01*
X51678571Y-140125000D01*
X51750000Y-140089285D01*
X51892857Y-140089285D01*
X51964285Y-140125000D01*
X52000000Y-140160714D01*
X52035714Y-140232142D01*
X52035714Y-140267857D01*
X52000000Y-140339285D01*
X51964285Y-140375000D01*
X51892857Y-140410714D01*
X51750000Y-140410714D01*
X51678571Y-140446428D01*
X51642857Y-140482142D01*
X51607142Y-140553571D01*
X51607142Y-140696428D01*
X51642857Y-140767857D01*
X51678571Y-140803571D01*
X51750000Y-140839285D01*
X51892857Y-140839285D01*
X51964285Y-140803571D01*
X52000000Y-140767857D01*
X52035714Y-140696428D01*
X52035714Y-140553571D01*
X52000000Y-140482142D01*
X51964285Y-140446428D01*
X51892857Y-140410714D01*
X52321428Y-140160714D02*
X52357142Y-140125000D01*
X52428571Y-140089285D01*
X52607142Y-140089285D01*
X52678571Y-140125000D01*
X52714285Y-140160714D01*
X52750000Y-140232142D01*
X52750000Y-140303571D01*
X52714285Y-140410714D01*
X52285714Y-140839285D01*
X52750000Y-140839285D01*
X53035714Y-140160714D02*
X53071428Y-140125000D01*
X53142857Y-140089285D01*
X53321428Y-140089285D01*
X53392857Y-140125000D01*
X53428571Y-140160714D01*
X53464285Y-140232142D01*
X53464285Y-140303571D01*
X53428571Y-140410714D01*
X53000000Y-140839285D01*
X53464285Y-140839285D01*
%TO.C,D13*%
X144589285Y-89839285D02*
X144589285Y-89089285D01*
X144767857Y-89089285D01*
X144875000Y-89125000D01*
X144946428Y-89196428D01*
X144982142Y-89267857D01*
X145017857Y-89410714D01*
X145017857Y-89517857D01*
X144982142Y-89660714D01*
X144946428Y-89732142D01*
X144875000Y-89803571D01*
X144767857Y-89839285D01*
X144589285Y-89839285D01*
X145732142Y-89839285D02*
X145303571Y-89839285D01*
X145517857Y-89839285D02*
X145517857Y-89089285D01*
X145446428Y-89196428D01*
X145375000Y-89267857D01*
X145303571Y-89303571D01*
X145982142Y-89089285D02*
X146446428Y-89089285D01*
X146196428Y-89375000D01*
X146303571Y-89375000D01*
X146375000Y-89410714D01*
X146410714Y-89446428D01*
X146446428Y-89517857D01*
X146446428Y-89696428D01*
X146410714Y-89767857D01*
X146375000Y-89803571D01*
X146303571Y-89839285D01*
X146089285Y-89839285D01*
X146017857Y-89803571D01*
X145982142Y-89767857D01*
X151446428Y-89839285D02*
X151017857Y-89839285D01*
X151232142Y-89839285D02*
X151232142Y-89089285D01*
X151160714Y-89196428D01*
X151089285Y-89267857D01*
X151017857Y-89303571D01*
X151767857Y-89339285D02*
X151767857Y-89839285D01*
X151767857Y-89410714D02*
X151803571Y-89375000D01*
X151875000Y-89339285D01*
X151982142Y-89339285D01*
X152053571Y-89375000D01*
X152089285Y-89446428D01*
X152089285Y-89839285D01*
X152803571Y-89089285D02*
X152446428Y-89089285D01*
X152410714Y-89446428D01*
X152446428Y-89410714D01*
X152517857Y-89375000D01*
X152696428Y-89375000D01*
X152767857Y-89410714D01*
X152803571Y-89446428D01*
X152839285Y-89517857D01*
X152839285Y-89696428D01*
X152803571Y-89767857D01*
X152767857Y-89803571D01*
X152696428Y-89839285D01*
X152517857Y-89839285D01*
X152446428Y-89803571D01*
X152410714Y-89767857D01*
X153267857Y-89410714D02*
X153196428Y-89375000D01*
X153160714Y-89339285D01*
X153125000Y-89267857D01*
X153125000Y-89232142D01*
X153160714Y-89160714D01*
X153196428Y-89125000D01*
X153267857Y-89089285D01*
X153410714Y-89089285D01*
X153482142Y-89125000D01*
X153517857Y-89160714D01*
X153553571Y-89232142D01*
X153553571Y-89267857D01*
X153517857Y-89339285D01*
X153482142Y-89375000D01*
X153410714Y-89410714D01*
X153267857Y-89410714D01*
X153196428Y-89446428D01*
X153160714Y-89482142D01*
X153125000Y-89553571D01*
X153125000Y-89696428D01*
X153160714Y-89767857D01*
X153196428Y-89803571D01*
X153267857Y-89839285D01*
X153410714Y-89839285D01*
X153482142Y-89803571D01*
X153517857Y-89767857D01*
X153553571Y-89696428D01*
X153553571Y-89553571D01*
X153517857Y-89482142D01*
X153482142Y-89446428D01*
X153410714Y-89410714D01*
X154267857Y-89839285D02*
X153839285Y-89839285D01*
X154053571Y-89839285D02*
X154053571Y-89089285D01*
X153982142Y-89196428D01*
X153910714Y-89267857D01*
X153839285Y-89303571D01*
X154517857Y-89089285D02*
X155017857Y-89089285D01*
X154696428Y-89839285D01*
%TO.C,D12*%
X144589285Y-114839285D02*
X144589285Y-114089285D01*
X144767857Y-114089285D01*
X144875000Y-114125000D01*
X144946428Y-114196428D01*
X144982142Y-114267857D01*
X145017857Y-114410714D01*
X145017857Y-114517857D01*
X144982142Y-114660714D01*
X144946428Y-114732142D01*
X144875000Y-114803571D01*
X144767857Y-114839285D01*
X144589285Y-114839285D01*
X145732142Y-114839285D02*
X145303571Y-114839285D01*
X145517857Y-114839285D02*
X145517857Y-114089285D01*
X145446428Y-114196428D01*
X145375000Y-114267857D01*
X145303571Y-114303571D01*
X146017857Y-114160714D02*
X146053571Y-114125000D01*
X146125000Y-114089285D01*
X146303571Y-114089285D01*
X146375000Y-114125000D01*
X146410714Y-114160714D01*
X146446428Y-114232142D01*
X146446428Y-114303571D01*
X146410714Y-114410714D01*
X145982142Y-114839285D01*
X146446428Y-114839285D01*
X151446428Y-114839285D02*
X151017857Y-114839285D01*
X151232142Y-114839285D02*
X151232142Y-114089285D01*
X151160714Y-114196428D01*
X151089285Y-114267857D01*
X151017857Y-114303571D01*
X151767857Y-114339285D02*
X151767857Y-114839285D01*
X151767857Y-114410714D02*
X151803571Y-114375000D01*
X151875000Y-114339285D01*
X151982142Y-114339285D01*
X152053571Y-114375000D01*
X152089285Y-114446428D01*
X152089285Y-114839285D01*
X152803571Y-114089285D02*
X152446428Y-114089285D01*
X152410714Y-114446428D01*
X152446428Y-114410714D01*
X152517857Y-114375000D01*
X152696428Y-114375000D01*
X152767857Y-114410714D01*
X152803571Y-114446428D01*
X152839285Y-114517857D01*
X152839285Y-114696428D01*
X152803571Y-114767857D01*
X152767857Y-114803571D01*
X152696428Y-114839285D01*
X152517857Y-114839285D01*
X152446428Y-114803571D01*
X152410714Y-114767857D01*
X153267857Y-114410714D02*
X153196428Y-114375000D01*
X153160714Y-114339285D01*
X153125000Y-114267857D01*
X153125000Y-114232142D01*
X153160714Y-114160714D01*
X153196428Y-114125000D01*
X153267857Y-114089285D01*
X153410714Y-114089285D01*
X153482142Y-114125000D01*
X153517857Y-114160714D01*
X153553571Y-114232142D01*
X153553571Y-114267857D01*
X153517857Y-114339285D01*
X153482142Y-114375000D01*
X153410714Y-114410714D01*
X153267857Y-114410714D01*
X153196428Y-114446428D01*
X153160714Y-114482142D01*
X153125000Y-114553571D01*
X153125000Y-114696428D01*
X153160714Y-114767857D01*
X153196428Y-114803571D01*
X153267857Y-114839285D01*
X153410714Y-114839285D01*
X153482142Y-114803571D01*
X153517857Y-114767857D01*
X153553571Y-114696428D01*
X153553571Y-114553571D01*
X153517857Y-114482142D01*
X153482142Y-114446428D01*
X153410714Y-114410714D01*
X154267857Y-114839285D02*
X153839285Y-114839285D01*
X154053571Y-114839285D02*
X154053571Y-114089285D01*
X153982142Y-114196428D01*
X153910714Y-114267857D01*
X153839285Y-114303571D01*
X154517857Y-114089285D02*
X155017857Y-114089285D01*
X154696428Y-114839285D01*
%TO.C,D10*%
X144589285Y-164839285D02*
X144589285Y-164089285D01*
X144767857Y-164089285D01*
X144875000Y-164125000D01*
X144946428Y-164196428D01*
X144982142Y-164267857D01*
X145017857Y-164410714D01*
X145017857Y-164517857D01*
X144982142Y-164660714D01*
X144946428Y-164732142D01*
X144875000Y-164803571D01*
X144767857Y-164839285D01*
X144589285Y-164839285D01*
X145732142Y-164839285D02*
X145303571Y-164839285D01*
X145517857Y-164839285D02*
X145517857Y-164089285D01*
X145446428Y-164196428D01*
X145375000Y-164267857D01*
X145303571Y-164303571D01*
X146196428Y-164089285D02*
X146267857Y-164089285D01*
X146339285Y-164125000D01*
X146375000Y-164160714D01*
X146410714Y-164232142D01*
X146446428Y-164375000D01*
X146446428Y-164553571D01*
X146410714Y-164696428D01*
X146375000Y-164767857D01*
X146339285Y-164803571D01*
X146267857Y-164839285D01*
X146196428Y-164839285D01*
X146125000Y-164803571D01*
X146089285Y-164767857D01*
X146053571Y-164696428D01*
X146017857Y-164553571D01*
X146017857Y-164375000D01*
X146053571Y-164232142D01*
X146089285Y-164160714D01*
X146125000Y-164125000D01*
X146196428Y-164089285D01*
X151446428Y-164839285D02*
X151017857Y-164839285D01*
X151232142Y-164839285D02*
X151232142Y-164089285D01*
X151160714Y-164196428D01*
X151089285Y-164267857D01*
X151017857Y-164303571D01*
X151767857Y-164339285D02*
X151767857Y-164839285D01*
X151767857Y-164410714D02*
X151803571Y-164375000D01*
X151875000Y-164339285D01*
X151982142Y-164339285D01*
X152053571Y-164375000D01*
X152089285Y-164446428D01*
X152089285Y-164839285D01*
X152803571Y-164089285D02*
X152446428Y-164089285D01*
X152410714Y-164446428D01*
X152446428Y-164410714D01*
X152517857Y-164375000D01*
X152696428Y-164375000D01*
X152767857Y-164410714D01*
X152803571Y-164446428D01*
X152839285Y-164517857D01*
X152839285Y-164696428D01*
X152803571Y-164767857D01*
X152767857Y-164803571D01*
X152696428Y-164839285D01*
X152517857Y-164839285D01*
X152446428Y-164803571D01*
X152410714Y-164767857D01*
X153267857Y-164410714D02*
X153196428Y-164375000D01*
X153160714Y-164339285D01*
X153125000Y-164267857D01*
X153125000Y-164232142D01*
X153160714Y-164160714D01*
X153196428Y-164125000D01*
X153267857Y-164089285D01*
X153410714Y-164089285D01*
X153482142Y-164125000D01*
X153517857Y-164160714D01*
X153553571Y-164232142D01*
X153553571Y-164267857D01*
X153517857Y-164339285D01*
X153482142Y-164375000D01*
X153410714Y-164410714D01*
X153267857Y-164410714D01*
X153196428Y-164446428D01*
X153160714Y-164482142D01*
X153125000Y-164553571D01*
X153125000Y-164696428D01*
X153160714Y-164767857D01*
X153196428Y-164803571D01*
X153267857Y-164839285D01*
X153410714Y-164839285D01*
X153482142Y-164803571D01*
X153517857Y-164767857D01*
X153553571Y-164696428D01*
X153553571Y-164553571D01*
X153517857Y-164482142D01*
X153482142Y-164446428D01*
X153410714Y-164410714D01*
X154267857Y-164839285D02*
X153839285Y-164839285D01*
X154053571Y-164839285D02*
X154053571Y-164089285D01*
X153982142Y-164196428D01*
X153910714Y-164267857D01*
X153839285Y-164303571D01*
X154517857Y-164089285D02*
X155017857Y-164089285D01*
X154696428Y-164839285D01*
%TO.C,D11*%
X144589285Y-139839285D02*
X144589285Y-139089285D01*
X144767857Y-139089285D01*
X144875000Y-139125000D01*
X144946428Y-139196428D01*
X144982142Y-139267857D01*
X145017857Y-139410714D01*
X145017857Y-139517857D01*
X144982142Y-139660714D01*
X144946428Y-139732142D01*
X144875000Y-139803571D01*
X144767857Y-139839285D01*
X144589285Y-139839285D01*
X145732142Y-139839285D02*
X145303571Y-139839285D01*
X145517857Y-139839285D02*
X145517857Y-139089285D01*
X145446428Y-139196428D01*
X145375000Y-139267857D01*
X145303571Y-139303571D01*
X146446428Y-139839285D02*
X146017857Y-139839285D01*
X146232142Y-139839285D02*
X146232142Y-139089285D01*
X146160714Y-139196428D01*
X146089285Y-139267857D01*
X146017857Y-139303571D01*
X151446428Y-139839285D02*
X151017857Y-139839285D01*
X151232142Y-139839285D02*
X151232142Y-139089285D01*
X151160714Y-139196428D01*
X151089285Y-139267857D01*
X151017857Y-139303571D01*
X151767857Y-139339285D02*
X151767857Y-139839285D01*
X151767857Y-139410714D02*
X151803571Y-139375000D01*
X151875000Y-139339285D01*
X151982142Y-139339285D01*
X152053571Y-139375000D01*
X152089285Y-139446428D01*
X152089285Y-139839285D01*
X152803571Y-139089285D02*
X152446428Y-139089285D01*
X152410714Y-139446428D01*
X152446428Y-139410714D01*
X152517857Y-139375000D01*
X152696428Y-139375000D01*
X152767857Y-139410714D01*
X152803571Y-139446428D01*
X152839285Y-139517857D01*
X152839285Y-139696428D01*
X152803571Y-139767857D01*
X152767857Y-139803571D01*
X152696428Y-139839285D01*
X152517857Y-139839285D01*
X152446428Y-139803571D01*
X152410714Y-139767857D01*
X153267857Y-139410714D02*
X153196428Y-139375000D01*
X153160714Y-139339285D01*
X153125000Y-139267857D01*
X153125000Y-139232142D01*
X153160714Y-139160714D01*
X153196428Y-139125000D01*
X153267857Y-139089285D01*
X153410714Y-139089285D01*
X153482142Y-139125000D01*
X153517857Y-139160714D01*
X153553571Y-139232142D01*
X153553571Y-139267857D01*
X153517857Y-139339285D01*
X153482142Y-139375000D01*
X153410714Y-139410714D01*
X153267857Y-139410714D01*
X153196428Y-139446428D01*
X153160714Y-139482142D01*
X153125000Y-139553571D01*
X153125000Y-139696428D01*
X153160714Y-139767857D01*
X153196428Y-139803571D01*
X153267857Y-139839285D01*
X153410714Y-139839285D01*
X153482142Y-139803571D01*
X153517857Y-139767857D01*
X153553571Y-139696428D01*
X153553571Y-139553571D01*
X153517857Y-139482142D01*
X153482142Y-139446428D01*
X153410714Y-139410714D01*
X154267857Y-139839285D02*
X153839285Y-139839285D01*
X154053571Y-139839285D02*
X154053571Y-139089285D01*
X153982142Y-139196428D01*
X153910714Y-139267857D01*
X153839285Y-139303571D01*
X154517857Y-139089285D02*
X155017857Y-139089285D01*
X154696428Y-139839285D01*
%TO.C,D5*%
X137412380Y-172208095D02*
X136412380Y-172208095D01*
X136412380Y-171970000D01*
X136460000Y-171827142D01*
X136555238Y-171731904D01*
X136650476Y-171684285D01*
X136840952Y-171636666D01*
X136983809Y-171636666D01*
X137174285Y-171684285D01*
X137269523Y-171731904D01*
X137364761Y-171827142D01*
X137412380Y-171970000D01*
X137412380Y-172208095D01*
X136412380Y-170731904D02*
X136412380Y-171208095D01*
X136888571Y-171255714D01*
X136840952Y-171208095D01*
X136793333Y-171112857D01*
X136793333Y-170874761D01*
X136840952Y-170779523D01*
X136888571Y-170731904D01*
X136983809Y-170684285D01*
X137221904Y-170684285D01*
X137317142Y-170731904D01*
X137364761Y-170779523D01*
X137412380Y-170874761D01*
X137412380Y-171112857D01*
X137364761Y-171208095D01*
X137317142Y-171255714D01*
%TO.C,D9*%
X137412380Y-80208095D02*
X136412380Y-80208095D01*
X136412380Y-79970000D01*
X136460000Y-79827142D01*
X136555238Y-79731904D01*
X136650476Y-79684285D01*
X136840952Y-79636666D01*
X136983809Y-79636666D01*
X137174285Y-79684285D01*
X137269523Y-79731904D01*
X137364761Y-79827142D01*
X137412380Y-79970000D01*
X137412380Y-80208095D01*
X137412380Y-79160476D02*
X137412380Y-78970000D01*
X137364761Y-78874761D01*
X137317142Y-78827142D01*
X137174285Y-78731904D01*
X136983809Y-78684285D01*
X136602857Y-78684285D01*
X136507619Y-78731904D01*
X136460000Y-78779523D01*
X136412380Y-78874761D01*
X136412380Y-79065238D01*
X136460000Y-79160476D01*
X136507619Y-79208095D01*
X136602857Y-79255714D01*
X136840952Y-79255714D01*
X136936190Y-79208095D01*
X136983809Y-79160476D01*
X137031428Y-79065238D01*
X137031428Y-78874761D01*
X136983809Y-78779523D01*
X136936190Y-78731904D01*
X136840952Y-78684285D01*
%TO.C,D8*%
X137412380Y-105208095D02*
X136412380Y-105208095D01*
X136412380Y-104970000D01*
X136460000Y-104827142D01*
X136555238Y-104731904D01*
X136650476Y-104684285D01*
X136840952Y-104636666D01*
X136983809Y-104636666D01*
X137174285Y-104684285D01*
X137269523Y-104731904D01*
X137364761Y-104827142D01*
X137412380Y-104970000D01*
X137412380Y-105208095D01*
X136840952Y-104065238D02*
X136793333Y-104160476D01*
X136745714Y-104208095D01*
X136650476Y-104255714D01*
X136602857Y-104255714D01*
X136507619Y-104208095D01*
X136460000Y-104160476D01*
X136412380Y-104065238D01*
X136412380Y-103874761D01*
X136460000Y-103779523D01*
X136507619Y-103731904D01*
X136602857Y-103684285D01*
X136650476Y-103684285D01*
X136745714Y-103731904D01*
X136793333Y-103779523D01*
X136840952Y-103874761D01*
X136840952Y-104065238D01*
X136888571Y-104160476D01*
X136936190Y-104208095D01*
X137031428Y-104255714D01*
X137221904Y-104255714D01*
X137317142Y-104208095D01*
X137364761Y-104160476D01*
X137412380Y-104065238D01*
X137412380Y-103874761D01*
X137364761Y-103779523D01*
X137317142Y-103731904D01*
X137221904Y-103684285D01*
X137031428Y-103684285D01*
X136936190Y-103731904D01*
X136888571Y-103779523D01*
X136840952Y-103874761D01*
%TO.C,D6*%
X137412380Y-155208095D02*
X136412380Y-155208095D01*
X136412380Y-154970000D01*
X136460000Y-154827142D01*
X136555238Y-154731904D01*
X136650476Y-154684285D01*
X136840952Y-154636666D01*
X136983809Y-154636666D01*
X137174285Y-154684285D01*
X137269523Y-154731904D01*
X137364761Y-154827142D01*
X137412380Y-154970000D01*
X137412380Y-155208095D01*
X136412380Y-153779523D02*
X136412380Y-153970000D01*
X136460000Y-154065238D01*
X136507619Y-154112857D01*
X136650476Y-154208095D01*
X136840952Y-154255714D01*
X137221904Y-154255714D01*
X137317142Y-154208095D01*
X137364761Y-154160476D01*
X137412380Y-154065238D01*
X137412380Y-153874761D01*
X137364761Y-153779523D01*
X137317142Y-153731904D01*
X137221904Y-153684285D01*
X136983809Y-153684285D01*
X136888571Y-153731904D01*
X136840952Y-153779523D01*
X136793333Y-153874761D01*
X136793333Y-154065238D01*
X136840952Y-154160476D01*
X136888571Y-154208095D01*
X136983809Y-154255714D01*
%TO.C,D7*%
X137412380Y-130208095D02*
X136412380Y-130208095D01*
X136412380Y-129970000D01*
X136460000Y-129827142D01*
X136555238Y-129731904D01*
X136650476Y-129684285D01*
X136840952Y-129636666D01*
X136983809Y-129636666D01*
X137174285Y-129684285D01*
X137269523Y-129731904D01*
X137364761Y-129827142D01*
X137412380Y-129970000D01*
X137412380Y-130208095D01*
X136412380Y-129303333D02*
X136412380Y-128636666D01*
X137412380Y-129065238D01*
%TO.C,D2*%
X78339285Y-100553571D02*
X77589285Y-100553571D01*
X77589285Y-100375000D01*
X77625000Y-100267857D01*
X77696428Y-100196428D01*
X77767857Y-100160714D01*
X77910714Y-100125000D01*
X78017857Y-100125000D01*
X78160714Y-100160714D01*
X78232142Y-100196428D01*
X78303571Y-100267857D01*
X78339285Y-100375000D01*
X78339285Y-100553571D01*
X77660714Y-99839285D02*
X77625000Y-99803571D01*
X77589285Y-99732142D01*
X77589285Y-99553571D01*
X77625000Y-99482142D01*
X77660714Y-99446428D01*
X77732142Y-99410714D01*
X77803571Y-99410714D01*
X77910714Y-99446428D01*
X78339285Y-99875000D01*
X78339285Y-99410714D01*
X78339285Y-109053571D02*
X78339285Y-109482142D01*
X78339285Y-109267857D02*
X77589285Y-109267857D01*
X77696428Y-109339285D01*
X77767857Y-109410714D01*
X77803571Y-109482142D01*
X77839285Y-108732142D02*
X78339285Y-108732142D01*
X77910714Y-108732142D02*
X77875000Y-108696428D01*
X77839285Y-108625000D01*
X77839285Y-108517857D01*
X77875000Y-108446428D01*
X77946428Y-108410714D01*
X78339285Y-108410714D01*
X77589285Y-107696428D02*
X77589285Y-108053571D01*
X77946428Y-108089285D01*
X77910714Y-108053571D01*
X77875000Y-107982142D01*
X77875000Y-107803571D01*
X77910714Y-107732142D01*
X77946428Y-107696428D01*
X78017857Y-107660714D01*
X78196428Y-107660714D01*
X78267857Y-107696428D01*
X78303571Y-107732142D01*
X78339285Y-107803571D01*
X78339285Y-107982142D01*
X78303571Y-108053571D01*
X78267857Y-108089285D01*
X77910714Y-107232142D02*
X77875000Y-107303571D01*
X77839285Y-107339285D01*
X77767857Y-107375000D01*
X77732142Y-107375000D01*
X77660714Y-107339285D01*
X77625000Y-107303571D01*
X77589285Y-107232142D01*
X77589285Y-107089285D01*
X77625000Y-107017857D01*
X77660714Y-106982142D01*
X77732142Y-106946428D01*
X77767857Y-106946428D01*
X77839285Y-106982142D01*
X77875000Y-107017857D01*
X77910714Y-107089285D01*
X77910714Y-107232142D01*
X77946428Y-107303571D01*
X77982142Y-107339285D01*
X78053571Y-107375000D01*
X78196428Y-107375000D01*
X78267857Y-107339285D01*
X78303571Y-107303571D01*
X78339285Y-107232142D01*
X78339285Y-107089285D01*
X78303571Y-107017857D01*
X78267857Y-106982142D01*
X78196428Y-106946428D01*
X78053571Y-106946428D01*
X77982142Y-106982142D01*
X77946428Y-107017857D01*
X77910714Y-107089285D01*
X78339285Y-106232142D02*
X78339285Y-106660714D01*
X78339285Y-106446428D02*
X77589285Y-106446428D01*
X77696428Y-106517857D01*
X77767857Y-106589285D01*
X77803571Y-106660714D01*
X77589285Y-105982142D02*
X77589285Y-105482142D01*
X78339285Y-105803571D01*
%TO.C,D1*%
X66839285Y-108053571D02*
X66089285Y-108053571D01*
X66089285Y-107875000D01*
X66125000Y-107767857D01*
X66196428Y-107696428D01*
X66267857Y-107660714D01*
X66410714Y-107625000D01*
X66517857Y-107625000D01*
X66660714Y-107660714D01*
X66732142Y-107696428D01*
X66803571Y-107767857D01*
X66839285Y-107875000D01*
X66839285Y-108053571D01*
X66839285Y-106910714D02*
X66839285Y-107339285D01*
X66839285Y-107125000D02*
X66089285Y-107125000D01*
X66196428Y-107196428D01*
X66267857Y-107267857D01*
X66303571Y-107339285D01*
X66839285Y-101553571D02*
X66839285Y-101982142D01*
X66839285Y-101767857D02*
X66089285Y-101767857D01*
X66196428Y-101839285D01*
X66267857Y-101910714D01*
X66303571Y-101982142D01*
X66339285Y-101232142D02*
X66839285Y-101232142D01*
X66410714Y-101232142D02*
X66375000Y-101196428D01*
X66339285Y-101125000D01*
X66339285Y-101017857D01*
X66375000Y-100946428D01*
X66446428Y-100910714D01*
X66839285Y-100910714D01*
X66089285Y-100196428D02*
X66089285Y-100553571D01*
X66446428Y-100589285D01*
X66410714Y-100553571D01*
X66375000Y-100482142D01*
X66375000Y-100303571D01*
X66410714Y-100232142D01*
X66446428Y-100196428D01*
X66517857Y-100160714D01*
X66696428Y-100160714D01*
X66767857Y-100196428D01*
X66803571Y-100232142D01*
X66839285Y-100303571D01*
X66839285Y-100482142D01*
X66803571Y-100553571D01*
X66767857Y-100589285D01*
X66410714Y-99732142D02*
X66375000Y-99803571D01*
X66339285Y-99839285D01*
X66267857Y-99875000D01*
X66232142Y-99875000D01*
X66160714Y-99839285D01*
X66125000Y-99803571D01*
X66089285Y-99732142D01*
X66089285Y-99589285D01*
X66125000Y-99517857D01*
X66160714Y-99482142D01*
X66232142Y-99446428D01*
X66267857Y-99446428D01*
X66339285Y-99482142D01*
X66375000Y-99517857D01*
X66410714Y-99589285D01*
X66410714Y-99732142D01*
X66446428Y-99803571D01*
X66482142Y-99839285D01*
X66553571Y-99875000D01*
X66696428Y-99875000D01*
X66767857Y-99839285D01*
X66803571Y-99803571D01*
X66839285Y-99732142D01*
X66839285Y-99589285D01*
X66803571Y-99517857D01*
X66767857Y-99482142D01*
X66696428Y-99446428D01*
X66553571Y-99446428D01*
X66482142Y-99482142D01*
X66446428Y-99517857D01*
X66410714Y-99589285D01*
X66839285Y-98732142D02*
X66839285Y-99160714D01*
X66839285Y-98946428D02*
X66089285Y-98946428D01*
X66196428Y-99017857D01*
X66267857Y-99089285D01*
X66303571Y-99160714D01*
X66089285Y-98482142D02*
X66089285Y-97982142D01*
X66839285Y-98303571D01*
%TO.C,D3*%
X50339285Y-165933571D02*
X49589285Y-165933571D01*
X49589285Y-165755000D01*
X49625000Y-165647857D01*
X49696428Y-165576428D01*
X49767857Y-165540714D01*
X49910714Y-165505000D01*
X50017857Y-165505000D01*
X50160714Y-165540714D01*
X50232142Y-165576428D01*
X50303571Y-165647857D01*
X50339285Y-165755000D01*
X50339285Y-165933571D01*
X49589285Y-165255000D02*
X49589285Y-164790714D01*
X49875000Y-165040714D01*
X49875000Y-164933571D01*
X49910714Y-164862142D01*
X49946428Y-164826428D01*
X50017857Y-164790714D01*
X50196428Y-164790714D01*
X50267857Y-164826428D01*
X50303571Y-164862142D01*
X50339285Y-164933571D01*
X50339285Y-165147857D01*
X50303571Y-165219285D01*
X50267857Y-165255000D01*
X50339285Y-174487142D02*
X50339285Y-174915714D01*
X50339285Y-174701428D02*
X49589285Y-174701428D01*
X49696428Y-174772857D01*
X49767857Y-174844285D01*
X49803571Y-174915714D01*
X50339285Y-174165714D02*
X49589285Y-174165714D01*
X50339285Y-173737142D01*
X49589285Y-173737142D01*
X49839285Y-173058571D02*
X50339285Y-173058571D01*
X49553571Y-173237142D02*
X50089285Y-173415714D01*
X50089285Y-172951428D01*
X50339285Y-172272857D02*
X50339285Y-172701428D01*
X50339285Y-172487142D02*
X49589285Y-172487142D01*
X49696428Y-172558571D01*
X49767857Y-172630000D01*
X49803571Y-172701428D01*
X49839285Y-171630000D02*
X50339285Y-171630000D01*
X49553571Y-171808571D02*
X50089285Y-171987142D01*
X50089285Y-171522857D01*
X49910714Y-171130000D02*
X49875000Y-171201428D01*
X49839285Y-171237142D01*
X49767857Y-171272857D01*
X49732142Y-171272857D01*
X49660714Y-171237142D01*
X49625000Y-171201428D01*
X49589285Y-171130000D01*
X49589285Y-170987142D01*
X49625000Y-170915714D01*
X49660714Y-170880000D01*
X49732142Y-170844285D01*
X49767857Y-170844285D01*
X49839285Y-170880000D01*
X49875000Y-170915714D01*
X49910714Y-170987142D01*
X49910714Y-171130000D01*
X49946428Y-171201428D01*
X49982142Y-171237142D01*
X50053571Y-171272857D01*
X50196428Y-171272857D01*
X50267857Y-171237142D01*
X50303571Y-171201428D01*
X50339285Y-171130000D01*
X50339285Y-170987142D01*
X50303571Y-170915714D01*
X50267857Y-170880000D01*
X50196428Y-170844285D01*
X50053571Y-170844285D01*
X49982142Y-170880000D01*
X49946428Y-170915714D01*
X49910714Y-170987142D01*
%TO.C,C4*%
X83767857Y-141125000D02*
X83803571Y-141160714D01*
X83839285Y-141267857D01*
X83839285Y-141339285D01*
X83803571Y-141446428D01*
X83732142Y-141517857D01*
X83660714Y-141553571D01*
X83517857Y-141589285D01*
X83410714Y-141589285D01*
X83267857Y-141553571D01*
X83196428Y-141517857D01*
X83125000Y-141446428D01*
X83089285Y-141339285D01*
X83089285Y-141267857D01*
X83125000Y-141160714D01*
X83160714Y-141125000D01*
X83339285Y-140482142D02*
X83839285Y-140482142D01*
X83053571Y-140660714D02*
X83589285Y-140839285D01*
X83589285Y-140375000D01*
X83089285Y-145732142D02*
X83089285Y-145660714D01*
X83125000Y-145589285D01*
X83160714Y-145553571D01*
X83232142Y-145517857D01*
X83375000Y-145482142D01*
X83553571Y-145482142D01*
X83696428Y-145517857D01*
X83767857Y-145553571D01*
X83803571Y-145589285D01*
X83839285Y-145660714D01*
X83839285Y-145732142D01*
X83803571Y-145803571D01*
X83767857Y-145839285D01*
X83696428Y-145875000D01*
X83553571Y-145910714D01*
X83375000Y-145910714D01*
X83232142Y-145875000D01*
X83160714Y-145839285D01*
X83125000Y-145803571D01*
X83089285Y-145732142D01*
X83767857Y-145160714D02*
X83803571Y-145125000D01*
X83839285Y-145160714D01*
X83803571Y-145196428D01*
X83767857Y-145160714D01*
X83839285Y-145160714D01*
X83839285Y-144410714D02*
X83839285Y-144839285D01*
X83839285Y-144625000D02*
X83089285Y-144625000D01*
X83196428Y-144696428D01*
X83267857Y-144767857D01*
X83303571Y-144839285D01*
X83339285Y-143767857D02*
X83839285Y-143767857D01*
X83339285Y-144089285D02*
X83732142Y-144089285D01*
X83803571Y-144053571D01*
X83839285Y-143982142D01*
X83839285Y-143875000D01*
X83803571Y-143803571D01*
X83767857Y-143767857D01*
X83446428Y-143160714D02*
X83446428Y-143410714D01*
X83839285Y-143410714D02*
X83089285Y-143410714D01*
X83089285Y-143053571D01*
%TO.C,C2*%
X72767857Y-115625000D02*
X72803571Y-115660714D01*
X72839285Y-115767857D01*
X72839285Y-115839285D01*
X72803571Y-115946428D01*
X72732142Y-116017857D01*
X72660714Y-116053571D01*
X72517857Y-116089285D01*
X72410714Y-116089285D01*
X72267857Y-116053571D01*
X72196428Y-116017857D01*
X72125000Y-115946428D01*
X72089285Y-115839285D01*
X72089285Y-115767857D01*
X72125000Y-115660714D01*
X72160714Y-115625000D01*
X72160714Y-115339285D02*
X72125000Y-115303571D01*
X72089285Y-115232142D01*
X72089285Y-115053571D01*
X72125000Y-114982142D01*
X72160714Y-114946428D01*
X72232142Y-114910714D01*
X72303571Y-114910714D01*
X72410714Y-114946428D01*
X72839285Y-115375000D01*
X72839285Y-114910714D01*
X72839285Y-112303571D02*
X72839285Y-112732142D01*
X72839285Y-112517857D02*
X72089285Y-112517857D01*
X72196428Y-112589285D01*
X72267857Y-112660714D01*
X72303571Y-112732142D01*
X72089285Y-111839285D02*
X72089285Y-111767857D01*
X72125000Y-111696428D01*
X72160714Y-111660714D01*
X72232142Y-111625000D01*
X72375000Y-111589285D01*
X72553571Y-111589285D01*
X72696428Y-111625000D01*
X72767857Y-111660714D01*
X72803571Y-111696428D01*
X72839285Y-111767857D01*
X72839285Y-111839285D01*
X72803571Y-111910714D01*
X72767857Y-111946428D01*
X72696428Y-111982142D01*
X72553571Y-112017857D01*
X72375000Y-112017857D01*
X72232142Y-111982142D01*
X72160714Y-111946428D01*
X72125000Y-111910714D01*
X72089285Y-111839285D01*
X72339285Y-110946428D02*
X72839285Y-110946428D01*
X72339285Y-111267857D02*
X72732142Y-111267857D01*
X72803571Y-111232142D01*
X72839285Y-111160714D01*
X72839285Y-111053571D01*
X72803571Y-110982142D01*
X72767857Y-110946428D01*
X72446428Y-110339285D02*
X72446428Y-110589285D01*
X72839285Y-110589285D02*
X72089285Y-110589285D01*
X72089285Y-110232142D01*
%TO.C,C1*%
X72767857Y-111625000D02*
X72803571Y-111660714D01*
X72839285Y-111767857D01*
X72839285Y-111839285D01*
X72803571Y-111946428D01*
X72732142Y-112017857D01*
X72660714Y-112053571D01*
X72517857Y-112089285D01*
X72410714Y-112089285D01*
X72267857Y-112053571D01*
X72196428Y-112017857D01*
X72125000Y-111946428D01*
X72089285Y-111839285D01*
X72089285Y-111767857D01*
X72125000Y-111660714D01*
X72160714Y-111625000D01*
X72839285Y-110910714D02*
X72839285Y-111339285D01*
X72839285Y-111125000D02*
X72089285Y-111125000D01*
X72196428Y-111196428D01*
X72267857Y-111267857D01*
X72303571Y-111339285D01*
X72839285Y-116303571D02*
X72839285Y-116732142D01*
X72839285Y-116517857D02*
X72089285Y-116517857D01*
X72196428Y-116589285D01*
X72267857Y-116660714D01*
X72303571Y-116732142D01*
X72089285Y-115839285D02*
X72089285Y-115767857D01*
X72125000Y-115696428D01*
X72160714Y-115660714D01*
X72232142Y-115625000D01*
X72375000Y-115589285D01*
X72553571Y-115589285D01*
X72696428Y-115625000D01*
X72767857Y-115660714D01*
X72803571Y-115696428D01*
X72839285Y-115767857D01*
X72839285Y-115839285D01*
X72803571Y-115910714D01*
X72767857Y-115946428D01*
X72696428Y-115982142D01*
X72553571Y-116017857D01*
X72375000Y-116017857D01*
X72232142Y-115982142D01*
X72160714Y-115946428D01*
X72125000Y-115910714D01*
X72089285Y-115839285D01*
X72339285Y-114946428D02*
X72839285Y-114946428D01*
X72339285Y-115267857D02*
X72732142Y-115267857D01*
X72803571Y-115232142D01*
X72839285Y-115160714D01*
X72839285Y-115053571D01*
X72803571Y-114982142D01*
X72767857Y-114946428D01*
X72446428Y-114339285D02*
X72446428Y-114589285D01*
X72839285Y-114589285D02*
X72089285Y-114589285D01*
X72089285Y-114232142D01*
%TO.C,C5*%
X45875000Y-144767857D02*
X45839285Y-144803571D01*
X45732142Y-144839285D01*
X45660714Y-144839285D01*
X45553571Y-144803571D01*
X45482142Y-144732142D01*
X45446428Y-144660714D01*
X45410714Y-144517857D01*
X45410714Y-144410714D01*
X45446428Y-144267857D01*
X45482142Y-144196428D01*
X45553571Y-144125000D01*
X45660714Y-144089285D01*
X45732142Y-144089285D01*
X45839285Y-144125000D01*
X45875000Y-144160714D01*
X46553571Y-144089285D02*
X46196428Y-144089285D01*
X46160714Y-144446428D01*
X46196428Y-144410714D01*
X46267857Y-144375000D01*
X46446428Y-144375000D01*
X46517857Y-144410714D01*
X46553571Y-144446428D01*
X46589285Y-144517857D01*
X46589285Y-144696428D01*
X46553571Y-144767857D01*
X46517857Y-144803571D01*
X46446428Y-144839285D01*
X46267857Y-144839285D01*
X46196428Y-144803571D01*
X46160714Y-144767857D01*
X48267857Y-144089285D02*
X48339285Y-144089285D01*
X48410714Y-144125000D01*
X48446428Y-144160714D01*
X48482142Y-144232142D01*
X48517857Y-144375000D01*
X48517857Y-144553571D01*
X48482142Y-144696428D01*
X48446428Y-144767857D01*
X48410714Y-144803571D01*
X48339285Y-144839285D01*
X48267857Y-144839285D01*
X48196428Y-144803571D01*
X48160714Y-144767857D01*
X48125000Y-144696428D01*
X48089285Y-144553571D01*
X48089285Y-144375000D01*
X48125000Y-144232142D01*
X48160714Y-144160714D01*
X48196428Y-144125000D01*
X48267857Y-144089285D01*
X48839285Y-144767857D02*
X48875000Y-144803571D01*
X48839285Y-144839285D01*
X48803571Y-144803571D01*
X48839285Y-144767857D01*
X48839285Y-144839285D01*
X49589285Y-144839285D02*
X49160714Y-144839285D01*
X49375000Y-144839285D02*
X49375000Y-144089285D01*
X49303571Y-144196428D01*
X49232142Y-144267857D01*
X49160714Y-144303571D01*
X50232142Y-144339285D02*
X50232142Y-144839285D01*
X49910714Y-144339285D02*
X49910714Y-144732142D01*
X49946428Y-144803571D01*
X50017857Y-144839285D01*
X50125000Y-144839285D01*
X50196428Y-144803571D01*
X50232142Y-144767857D01*
X50839285Y-144446428D02*
X50589285Y-144446428D01*
X50589285Y-144839285D02*
X50589285Y-144089285D01*
X50946428Y-144089285D01*
%TO.C,C6*%
X45875000Y-124767857D02*
X45839285Y-124803571D01*
X45732142Y-124839285D01*
X45660714Y-124839285D01*
X45553571Y-124803571D01*
X45482142Y-124732142D01*
X45446428Y-124660714D01*
X45410714Y-124517857D01*
X45410714Y-124410714D01*
X45446428Y-124267857D01*
X45482142Y-124196428D01*
X45553571Y-124125000D01*
X45660714Y-124089285D01*
X45732142Y-124089285D01*
X45839285Y-124125000D01*
X45875000Y-124160714D01*
X46517857Y-124089285D02*
X46375000Y-124089285D01*
X46303571Y-124125000D01*
X46267857Y-124160714D01*
X46196428Y-124267857D01*
X46160714Y-124410714D01*
X46160714Y-124696428D01*
X46196428Y-124767857D01*
X46232142Y-124803571D01*
X46303571Y-124839285D01*
X46446428Y-124839285D01*
X46517857Y-124803571D01*
X46553571Y-124767857D01*
X46589285Y-124696428D01*
X46589285Y-124517857D01*
X46553571Y-124446428D01*
X46517857Y-124410714D01*
X46446428Y-124375000D01*
X46303571Y-124375000D01*
X46232142Y-124410714D01*
X46196428Y-124446428D01*
X46160714Y-124517857D01*
X48267857Y-124089285D02*
X48339285Y-124089285D01*
X48410714Y-124125000D01*
X48446428Y-124160714D01*
X48482142Y-124232142D01*
X48517857Y-124375000D01*
X48517857Y-124553571D01*
X48482142Y-124696428D01*
X48446428Y-124767857D01*
X48410714Y-124803571D01*
X48339285Y-124839285D01*
X48267857Y-124839285D01*
X48196428Y-124803571D01*
X48160714Y-124767857D01*
X48125000Y-124696428D01*
X48089285Y-124553571D01*
X48089285Y-124375000D01*
X48125000Y-124232142D01*
X48160714Y-124160714D01*
X48196428Y-124125000D01*
X48267857Y-124089285D01*
X48839285Y-124767857D02*
X48875000Y-124803571D01*
X48839285Y-124839285D01*
X48803571Y-124803571D01*
X48839285Y-124767857D01*
X48839285Y-124839285D01*
X49589285Y-124839285D02*
X49160714Y-124839285D01*
X49375000Y-124839285D02*
X49375000Y-124089285D01*
X49303571Y-124196428D01*
X49232142Y-124267857D01*
X49160714Y-124303571D01*
X50232142Y-124339285D02*
X50232142Y-124839285D01*
X49910714Y-124339285D02*
X49910714Y-124732142D01*
X49946428Y-124803571D01*
X50017857Y-124839285D01*
X50125000Y-124839285D01*
X50196428Y-124803571D01*
X50232142Y-124767857D01*
X50839285Y-124446428D02*
X50589285Y-124446428D01*
X50589285Y-124839285D02*
X50589285Y-124089285D01*
X50946428Y-124089285D01*
%TO.C,C3*%
X65267857Y-144625000D02*
X65303571Y-144660714D01*
X65339285Y-144767857D01*
X65339285Y-144839285D01*
X65303571Y-144946428D01*
X65232142Y-145017857D01*
X65160714Y-145053571D01*
X65017857Y-145089285D01*
X64910714Y-145089285D01*
X64767857Y-145053571D01*
X64696428Y-145017857D01*
X64625000Y-144946428D01*
X64589285Y-144839285D01*
X64589285Y-144767857D01*
X64625000Y-144660714D01*
X64660714Y-144625000D01*
X64589285Y-144375000D02*
X64589285Y-143910714D01*
X64875000Y-144160714D01*
X64875000Y-144053571D01*
X64910714Y-143982142D01*
X64946428Y-143946428D01*
X65017857Y-143910714D01*
X65196428Y-143910714D01*
X65267857Y-143946428D01*
X65303571Y-143982142D01*
X65339285Y-144053571D01*
X65339285Y-144267857D01*
X65303571Y-144339285D01*
X65267857Y-144375000D01*
X64589285Y-142232142D02*
X64589285Y-142160714D01*
X64625000Y-142089285D01*
X64660714Y-142053571D01*
X64732142Y-142017857D01*
X64875000Y-141982142D01*
X65053571Y-141982142D01*
X65196428Y-142017857D01*
X65267857Y-142053571D01*
X65303571Y-142089285D01*
X65339285Y-142160714D01*
X65339285Y-142232142D01*
X65303571Y-142303571D01*
X65267857Y-142339285D01*
X65196428Y-142375000D01*
X65053571Y-142410714D01*
X64875000Y-142410714D01*
X64732142Y-142375000D01*
X64660714Y-142339285D01*
X64625000Y-142303571D01*
X64589285Y-142232142D01*
X65267857Y-141660714D02*
X65303571Y-141625000D01*
X65339285Y-141660714D01*
X65303571Y-141696428D01*
X65267857Y-141660714D01*
X65339285Y-141660714D01*
X65339285Y-140910714D02*
X65339285Y-141339285D01*
X65339285Y-141125000D02*
X64589285Y-141125000D01*
X64696428Y-141196428D01*
X64767857Y-141267857D01*
X64803571Y-141339285D01*
X64839285Y-140267857D02*
X65339285Y-140267857D01*
X64839285Y-140589285D02*
X65232142Y-140589285D01*
X65303571Y-140553571D01*
X65339285Y-140482142D01*
X65339285Y-140375000D01*
X65303571Y-140303571D01*
X65267857Y-140267857D01*
X64946428Y-139660714D02*
X64946428Y-139910714D01*
X65339285Y-139910714D02*
X64589285Y-139910714D01*
X64589285Y-139553571D01*
%TD*%
M02*
