%TF.GenerationSoftware,KiCad,Pcbnew,5.1.6-c6e7f7d~87~ubuntu20.04.1*%
%TF.CreationDate,2020-10-30T18:00:46-04:00*%
%TF.ProjectId,midi2cv_ao,6d696469-3263-4765-9f61-6f2e6b696361,rev?*%
%TF.SameCoordinates,Original*%
%TF.FileFunction,Legend,Bot*%
%TF.FilePolarity,Positive*%
%FSLAX46Y46*%
G04 Gerber Fmt 4.6, Leading zero omitted, Abs format (unit mm)*
G04 Created by KiCad (PCBNEW 5.1.6-c6e7f7d~87~ubuntu20.04.1) date 2020-10-30 18:00:46*
%MOMM*%
%LPD*%
G01*
G04 APERTURE LIST*
%ADD10C,0.150000*%
%ADD11C,0.120000*%
G04 APERTURE END LIST*
D10*
X133750000Y-68987500D02*
X133821428Y-68951785D01*
X133928571Y-68951785D01*
X134035714Y-68987500D01*
X134107142Y-69058928D01*
X134142857Y-69130357D01*
X134178571Y-69273214D01*
X134178571Y-69380357D01*
X134142857Y-69523214D01*
X134107142Y-69594642D01*
X134035714Y-69666071D01*
X133928571Y-69701785D01*
X133857142Y-69701785D01*
X133750000Y-69666071D01*
X133714285Y-69630357D01*
X133714285Y-69380357D01*
X133857142Y-69380357D01*
X133428571Y-69487500D02*
X133071428Y-69487500D01*
X133500000Y-69701785D02*
X133250000Y-68951785D01*
X133000000Y-69701785D01*
X132857142Y-68951785D02*
X132428571Y-68951785D01*
X132642857Y-69701785D02*
X132642857Y-68951785D01*
X132178571Y-69308928D02*
X131928571Y-69308928D01*
X131821428Y-69701785D02*
X132178571Y-69701785D01*
X132178571Y-68951785D01*
X131821428Y-68951785D01*
X128214285Y-69630357D02*
X128250000Y-69666071D01*
X128357142Y-69701785D01*
X128428571Y-69701785D01*
X128535714Y-69666071D01*
X128607142Y-69594642D01*
X128642857Y-69523214D01*
X128678571Y-69380357D01*
X128678571Y-69273214D01*
X128642857Y-69130357D01*
X128607142Y-69058928D01*
X128535714Y-68987500D01*
X128428571Y-68951785D01*
X128357142Y-68951785D01*
X128250000Y-68987500D01*
X128214285Y-69023214D01*
X127535714Y-69701785D02*
X127892857Y-69701785D01*
X127892857Y-68951785D01*
X127285714Y-69701785D02*
X127285714Y-68951785D01*
X126857142Y-69701785D02*
X127178571Y-69273214D01*
X126857142Y-68951785D02*
X127285714Y-69380357D01*
X123321428Y-69701785D02*
X123678571Y-69701785D01*
X123678571Y-68951785D01*
X123071428Y-69308928D02*
X122821428Y-69308928D01*
X122714285Y-69701785D02*
X123071428Y-69701785D01*
X123071428Y-68951785D01*
X122714285Y-68951785D01*
X122392857Y-69701785D02*
X122392857Y-68951785D01*
X122214285Y-68951785D01*
X122107142Y-68987500D01*
X122035714Y-69058928D01*
X122000000Y-69130357D01*
X121964285Y-69273214D01*
X121964285Y-69380357D01*
X122000000Y-69523214D01*
X122035714Y-69594642D01*
X122107142Y-69666071D01*
X122214285Y-69701785D01*
X122392857Y-69701785D01*
X121178571Y-68951785D02*
X120928571Y-69701785D01*
X120678571Y-68951785D01*
X120428571Y-69308928D02*
X120178571Y-69308928D01*
X120071428Y-69701785D02*
X120428571Y-69701785D01*
X120428571Y-68951785D01*
X120071428Y-68951785D01*
X119392857Y-69701785D02*
X119750000Y-69701785D01*
X119750000Y-68951785D01*
X118321428Y-69308928D02*
X118214285Y-69344642D01*
X118178571Y-69380357D01*
X118142857Y-69451785D01*
X118142857Y-69558928D01*
X118178571Y-69630357D01*
X118214285Y-69666071D01*
X118285714Y-69701785D01*
X118571428Y-69701785D01*
X118571428Y-68951785D01*
X118321428Y-68951785D01*
X118250000Y-68987500D01*
X118214285Y-69023214D01*
X118178571Y-69094642D01*
X118178571Y-69166071D01*
X118214285Y-69237500D01*
X118250000Y-69273214D01*
X118321428Y-69308928D01*
X118571428Y-69308928D01*
X117821428Y-69308928D02*
X117571428Y-69308928D01*
X117464285Y-69701785D02*
X117821428Y-69701785D01*
X117821428Y-68951785D01*
X117464285Y-68951785D01*
X117142857Y-69701785D02*
X117142857Y-68951785D01*
X116714285Y-69701785D01*
X116714285Y-68951785D01*
X116357142Y-69701785D02*
X116357142Y-68951785D01*
X116178571Y-68951785D01*
X116071428Y-68987500D01*
X116000000Y-69058928D01*
X115964285Y-69130357D01*
X115928571Y-69273214D01*
X115928571Y-69380357D01*
X115964285Y-69523214D01*
X116000000Y-69594642D01*
X116071428Y-69666071D01*
X116178571Y-69701785D01*
X116357142Y-69701785D01*
X113321428Y-69701785D02*
X113321428Y-68951785D01*
X112892857Y-69701785D01*
X112892857Y-68951785D01*
X112392857Y-68951785D02*
X112250000Y-68951785D01*
X112178571Y-68987500D01*
X112107142Y-69058928D01*
X112071428Y-69201785D01*
X112071428Y-69451785D01*
X112107142Y-69594642D01*
X112178571Y-69666071D01*
X112250000Y-69701785D01*
X112392857Y-69701785D01*
X112464285Y-69666071D01*
X112535714Y-69594642D01*
X112571428Y-69451785D01*
X112571428Y-69201785D01*
X112535714Y-69058928D01*
X112464285Y-68987500D01*
X112392857Y-68951785D01*
X111857142Y-68951785D02*
X111428571Y-68951785D01*
X111642857Y-69701785D02*
X111642857Y-68951785D01*
X111178571Y-69308928D02*
X110928571Y-69308928D01*
X110821428Y-69701785D02*
X111178571Y-69701785D01*
X111178571Y-68951785D01*
X110821428Y-68951785D01*
X131053571Y-70226785D02*
X130625000Y-70226785D01*
X130839285Y-70976785D02*
X130839285Y-70226785D01*
X129946428Y-70976785D02*
X130196428Y-70619642D01*
X130375000Y-70976785D02*
X130375000Y-70226785D01*
X130089285Y-70226785D01*
X130017857Y-70262500D01*
X129982142Y-70298214D01*
X129946428Y-70369642D01*
X129946428Y-70476785D01*
X129982142Y-70548214D01*
X130017857Y-70583928D01*
X130089285Y-70619642D01*
X130375000Y-70619642D01*
X129625000Y-70976785D02*
X129625000Y-70226785D01*
X128875000Y-70262500D02*
X128946428Y-70226785D01*
X129053571Y-70226785D01*
X129160714Y-70262500D01*
X129232142Y-70333928D01*
X129267857Y-70405357D01*
X129303571Y-70548214D01*
X129303571Y-70655357D01*
X129267857Y-70798214D01*
X129232142Y-70869642D01*
X129160714Y-70941071D01*
X129053571Y-70976785D01*
X128982142Y-70976785D01*
X128875000Y-70941071D01*
X128839285Y-70905357D01*
X128839285Y-70655357D01*
X128982142Y-70655357D01*
X125803571Y-70905357D02*
X125839285Y-70941071D01*
X125946428Y-70976785D01*
X126017857Y-70976785D01*
X126125000Y-70941071D01*
X126196428Y-70869642D01*
X126232142Y-70798214D01*
X126267857Y-70655357D01*
X126267857Y-70548214D01*
X126232142Y-70405357D01*
X126196428Y-70333928D01*
X126125000Y-70262500D01*
X126017857Y-70226785D01*
X125946428Y-70226785D01*
X125839285Y-70262500D01*
X125803571Y-70298214D01*
X125125000Y-70976785D02*
X125482142Y-70976785D01*
X125482142Y-70226785D01*
X124875000Y-70976785D02*
X124875000Y-70226785D01*
X124446428Y-70976785D02*
X124767857Y-70548214D01*
X124446428Y-70226785D02*
X124875000Y-70655357D01*
X123589285Y-70191071D02*
X124232142Y-71155357D01*
X123017857Y-70476785D02*
X123017857Y-70976785D01*
X123196428Y-70191071D02*
X123375000Y-70726785D01*
X122910714Y-70726785D01*
X115339285Y-70905357D02*
X115375000Y-70941071D01*
X115482142Y-70976785D01*
X115553571Y-70976785D01*
X115660714Y-70941071D01*
X115732142Y-70869642D01*
X115767857Y-70798214D01*
X115803571Y-70655357D01*
X115803571Y-70548214D01*
X115767857Y-70405357D01*
X115732142Y-70333928D01*
X115660714Y-70262500D01*
X115553571Y-70226785D01*
X115482142Y-70226785D01*
X115375000Y-70262500D01*
X115339285Y-70298214D01*
X114589285Y-70905357D02*
X114625000Y-70941071D01*
X114732142Y-70976785D01*
X114803571Y-70976785D01*
X114910714Y-70941071D01*
X114982142Y-70869642D01*
X115017857Y-70798214D01*
X115053571Y-70655357D01*
X115053571Y-70548214D01*
X115017857Y-70405357D01*
X114982142Y-70333928D01*
X114910714Y-70262500D01*
X114803571Y-70226785D01*
X114732142Y-70226785D01*
X114625000Y-70262500D01*
X114589285Y-70298214D01*
X84750000Y-70201785D02*
X84750000Y-69451785D01*
X84321428Y-70201785D01*
X84321428Y-69451785D01*
X83821428Y-69451785D02*
X83678571Y-69451785D01*
X83607142Y-69487500D01*
X83535714Y-69558928D01*
X83500000Y-69701785D01*
X83500000Y-69951785D01*
X83535714Y-70094642D01*
X83607142Y-70166071D01*
X83678571Y-70201785D01*
X83821428Y-70201785D01*
X83892857Y-70166071D01*
X83964285Y-70094642D01*
X84000000Y-69951785D01*
X84000000Y-69701785D01*
X83964285Y-69558928D01*
X83892857Y-69487500D01*
X83821428Y-69451785D01*
X83285714Y-69451785D02*
X82857142Y-69451785D01*
X83071428Y-70201785D02*
X83071428Y-69451785D01*
X82607142Y-69808928D02*
X82357142Y-69808928D01*
X82250000Y-70201785D02*
X82607142Y-70201785D01*
X82607142Y-69451785D01*
X82250000Y-69451785D01*
X79964285Y-69808928D02*
X79857142Y-69844642D01*
X79821428Y-69880357D01*
X79785714Y-69951785D01*
X79785714Y-70058928D01*
X79821428Y-70130357D01*
X79857142Y-70166071D01*
X79928571Y-70201785D01*
X80214285Y-70201785D01*
X80214285Y-69451785D01*
X79964285Y-69451785D01*
X79892857Y-69487500D01*
X79857142Y-69523214D01*
X79821428Y-69594642D01*
X79821428Y-69666071D01*
X79857142Y-69737500D01*
X79892857Y-69773214D01*
X79964285Y-69808928D01*
X80214285Y-69808928D01*
X79464285Y-69808928D02*
X79214285Y-69808928D01*
X79107142Y-70201785D02*
X79464285Y-70201785D01*
X79464285Y-69451785D01*
X79107142Y-69451785D01*
X78785714Y-70201785D02*
X78785714Y-69451785D01*
X78357142Y-70201785D01*
X78357142Y-69451785D01*
X78000000Y-70201785D02*
X78000000Y-69451785D01*
X77821428Y-69451785D01*
X77714285Y-69487500D01*
X77642857Y-69558928D01*
X77607142Y-69630357D01*
X77571428Y-69773214D01*
X77571428Y-69880357D01*
X77607142Y-70023214D01*
X77642857Y-70094642D01*
X77714285Y-70166071D01*
X77821428Y-70201785D01*
X78000000Y-70201785D01*
X74035714Y-70201785D02*
X74392857Y-70201785D01*
X74392857Y-69451785D01*
X73785714Y-69808928D02*
X73535714Y-69808928D01*
X73428571Y-70201785D02*
X73785714Y-70201785D01*
X73785714Y-69451785D01*
X73428571Y-69451785D01*
X73107142Y-70201785D02*
X73107142Y-69451785D01*
X72928571Y-69451785D01*
X72821428Y-69487500D01*
X72750000Y-69558928D01*
X72714285Y-69630357D01*
X72678571Y-69773214D01*
X72678571Y-69880357D01*
X72714285Y-70023214D01*
X72750000Y-70094642D01*
X72821428Y-70166071D01*
X72928571Y-70201785D01*
X73107142Y-70201785D01*
X68500000Y-70130357D02*
X68535714Y-70166071D01*
X68642857Y-70201785D01*
X68714285Y-70201785D01*
X68821428Y-70166071D01*
X68892857Y-70094642D01*
X68928571Y-70023214D01*
X68964285Y-69880357D01*
X68964285Y-69773214D01*
X68928571Y-69630357D01*
X68892857Y-69558928D01*
X68821428Y-69487500D01*
X68714285Y-69451785D01*
X68642857Y-69451785D01*
X68535714Y-69487500D01*
X68500000Y-69523214D01*
X67821428Y-70201785D02*
X68178571Y-70201785D01*
X68178571Y-69451785D01*
X67571428Y-70201785D02*
X67571428Y-69451785D01*
X67142857Y-70201785D02*
X67464285Y-69773214D01*
X67142857Y-69451785D02*
X67571428Y-69880357D01*
X64142857Y-69487500D02*
X64214285Y-69451785D01*
X64321428Y-69451785D01*
X64428571Y-69487500D01*
X64500000Y-69558928D01*
X64535714Y-69630357D01*
X64571428Y-69773214D01*
X64571428Y-69880357D01*
X64535714Y-70023214D01*
X64500000Y-70094642D01*
X64428571Y-70166071D01*
X64321428Y-70201785D01*
X64250000Y-70201785D01*
X64142857Y-70166071D01*
X64107142Y-70130357D01*
X64107142Y-69880357D01*
X64250000Y-69880357D01*
X63821428Y-69987500D02*
X63464285Y-69987500D01*
X63892857Y-70201785D02*
X63642857Y-69451785D01*
X63392857Y-70201785D01*
X63250000Y-69451785D02*
X62821428Y-69451785D01*
X63035714Y-70201785D02*
X63035714Y-69451785D01*
X62571428Y-69808928D02*
X62321428Y-69808928D01*
X62214285Y-70201785D02*
X62571428Y-70201785D01*
X62571428Y-69451785D01*
X62214285Y-69451785D01*
X80767857Y-71405357D02*
X80803571Y-71441071D01*
X80910714Y-71476785D01*
X80982142Y-71476785D01*
X81089285Y-71441071D01*
X81160714Y-71369642D01*
X81196428Y-71298214D01*
X81232142Y-71155357D01*
X81232142Y-71048214D01*
X81196428Y-70905357D01*
X81160714Y-70833928D01*
X81089285Y-70762500D01*
X80982142Y-70726785D01*
X80910714Y-70726785D01*
X80803571Y-70762500D01*
X80767857Y-70798214D01*
X80017857Y-71405357D02*
X80053571Y-71441071D01*
X80160714Y-71476785D01*
X80232142Y-71476785D01*
X80339285Y-71441071D01*
X80410714Y-71369642D01*
X80446428Y-71298214D01*
X80482142Y-71155357D01*
X80482142Y-71048214D01*
X80446428Y-70905357D01*
X80410714Y-70833928D01*
X80339285Y-70762500D01*
X80232142Y-70726785D01*
X80160714Y-70726785D01*
X80053571Y-70762500D01*
X80017857Y-70798214D01*
X76375000Y-70726785D02*
X76125000Y-71476785D01*
X75875000Y-70726785D01*
X75625000Y-71083928D02*
X75375000Y-71083928D01*
X75267857Y-71476785D02*
X75625000Y-71476785D01*
X75625000Y-70726785D01*
X75267857Y-70726785D01*
X74589285Y-71476785D02*
X74946428Y-71476785D01*
X74946428Y-70726785D01*
X71625000Y-71405357D02*
X71660714Y-71441071D01*
X71767857Y-71476785D01*
X71839285Y-71476785D01*
X71946428Y-71441071D01*
X72017857Y-71369642D01*
X72053571Y-71298214D01*
X72089285Y-71155357D01*
X72089285Y-71048214D01*
X72053571Y-70905357D01*
X72017857Y-70833928D01*
X71946428Y-70762500D01*
X71839285Y-70726785D01*
X71767857Y-70726785D01*
X71660714Y-70762500D01*
X71625000Y-70798214D01*
X70946428Y-71476785D02*
X71303571Y-71476785D01*
X71303571Y-70726785D01*
X70696428Y-71476785D02*
X70696428Y-70726785D01*
X70267857Y-71476785D02*
X70589285Y-71048214D01*
X70267857Y-70726785D02*
X70696428Y-71155357D01*
X69410714Y-70691071D02*
X70053571Y-71655357D01*
X68839285Y-70976785D02*
X68839285Y-71476785D01*
X69017857Y-70691071D02*
X69196428Y-71226785D01*
X68732142Y-71226785D01*
X66267857Y-70726785D02*
X65839285Y-70726785D01*
X66053571Y-71476785D02*
X66053571Y-70726785D01*
X65160714Y-71476785D02*
X65410714Y-71119642D01*
X65589285Y-71476785D02*
X65589285Y-70726785D01*
X65303571Y-70726785D01*
X65232142Y-70762500D01*
X65196428Y-70798214D01*
X65160714Y-70869642D01*
X65160714Y-70976785D01*
X65196428Y-71048214D01*
X65232142Y-71083928D01*
X65303571Y-71119642D01*
X65589285Y-71119642D01*
X64839285Y-71476785D02*
X64839285Y-70726785D01*
X64089285Y-70762500D02*
X64160714Y-70726785D01*
X64267857Y-70726785D01*
X64375000Y-70762500D01*
X64446428Y-70833928D01*
X64482142Y-70905357D01*
X64517857Y-71048214D01*
X64517857Y-71155357D01*
X64482142Y-71298214D01*
X64446428Y-71369642D01*
X64375000Y-71441071D01*
X64267857Y-71476785D01*
X64196428Y-71476785D01*
X64089285Y-71441071D01*
X64053571Y-71405357D01*
X64053571Y-71155357D01*
X64196428Y-71155357D01*
X78525000Y-94976190D02*
X78477380Y-94880952D01*
X78477380Y-94738095D01*
X78525000Y-94595238D01*
X78620238Y-94500000D01*
X78715476Y-94452380D01*
X78905952Y-94404761D01*
X79048809Y-94404761D01*
X79239285Y-94452380D01*
X79334523Y-94500000D01*
X79429761Y-94595238D01*
X79477380Y-94738095D01*
X79477380Y-94833333D01*
X79429761Y-94976190D01*
X79382142Y-95023809D01*
X79048809Y-95023809D01*
X79048809Y-94833333D01*
X79477380Y-95452380D02*
X78810714Y-95452380D01*
X78477380Y-95452380D02*
X78525000Y-95404761D01*
X78572619Y-95452380D01*
X78525000Y-95500000D01*
X78477380Y-95452380D01*
X78572619Y-95452380D01*
X78810714Y-95785714D02*
X78810714Y-96166666D01*
X78477380Y-95928571D02*
X79334523Y-95928571D01*
X79429761Y-95976190D01*
X79477380Y-96071428D01*
X79477380Y-96166666D01*
X79477380Y-96500000D02*
X78477380Y-96500000D01*
X79477380Y-96928571D02*
X78953571Y-96928571D01*
X78858333Y-96880952D01*
X78810714Y-96785714D01*
X78810714Y-96642857D01*
X78858333Y-96547619D01*
X78905952Y-96500000D01*
X78810714Y-97833333D02*
X79477380Y-97833333D01*
X78810714Y-97404761D02*
X79334523Y-97404761D01*
X79429761Y-97452380D01*
X79477380Y-97547619D01*
X79477380Y-97690476D01*
X79429761Y-97785714D01*
X79382142Y-97833333D01*
X79477380Y-98309523D02*
X78477380Y-98309523D01*
X78858333Y-98309523D02*
X78810714Y-98404761D01*
X78810714Y-98595238D01*
X78858333Y-98690476D01*
X78905952Y-98738095D01*
X79001190Y-98785714D01*
X79286904Y-98785714D01*
X79382142Y-98738095D01*
X79429761Y-98690476D01*
X79477380Y-98595238D01*
X79477380Y-98404761D01*
X79429761Y-98309523D01*
X79477380Y-99976190D02*
X78810714Y-99976190D01*
X79001190Y-99976190D02*
X78905952Y-100023809D01*
X78858333Y-100071428D01*
X78810714Y-100166666D01*
X78810714Y-100261904D01*
X79429761Y-100976190D02*
X79477380Y-100880952D01*
X79477380Y-100690476D01*
X79429761Y-100595238D01*
X79334523Y-100547619D01*
X78953571Y-100547619D01*
X78858333Y-100595238D01*
X78810714Y-100690476D01*
X78810714Y-100880952D01*
X78858333Y-100976190D01*
X78953571Y-101023809D01*
X79048809Y-101023809D01*
X79144047Y-100547619D01*
X78810714Y-101452380D02*
X79810714Y-101452380D01*
X78858333Y-101452380D02*
X78810714Y-101547619D01*
X78810714Y-101738095D01*
X78858333Y-101833333D01*
X78905952Y-101880952D01*
X79001190Y-101928571D01*
X79286904Y-101928571D01*
X79382142Y-101880952D01*
X79429761Y-101833333D01*
X79477380Y-101738095D01*
X79477380Y-101547619D01*
X79429761Y-101452380D01*
X79477380Y-102500000D02*
X79429761Y-102404761D01*
X79382142Y-102357142D01*
X79286904Y-102309523D01*
X79001190Y-102309523D01*
X78905952Y-102357142D01*
X78858333Y-102404761D01*
X78810714Y-102500000D01*
X78810714Y-102642857D01*
X78858333Y-102738095D01*
X78905952Y-102785714D01*
X79001190Y-102833333D01*
X79286904Y-102833333D01*
X79382142Y-102785714D01*
X79429761Y-102738095D01*
X79477380Y-102642857D01*
X79477380Y-102500000D01*
X81127380Y-81023809D02*
X80127380Y-81023809D01*
X81127380Y-81452380D02*
X80603571Y-81452380D01*
X80508333Y-81404761D01*
X80460714Y-81309523D01*
X80460714Y-81166666D01*
X80508333Y-81071428D01*
X80555952Y-81023809D01*
X80460714Y-81785714D02*
X80460714Y-82166666D01*
X80127380Y-81928571D02*
X80984523Y-81928571D01*
X81079761Y-81976190D01*
X81127380Y-82071428D01*
X81127380Y-82166666D01*
X80460714Y-82357142D02*
X80460714Y-82738095D01*
X80127380Y-82500000D02*
X80984523Y-82500000D01*
X81079761Y-82547619D01*
X81127380Y-82642857D01*
X81127380Y-82738095D01*
X80460714Y-83071428D02*
X81460714Y-83071428D01*
X80508333Y-83071428D02*
X80460714Y-83166666D01*
X80460714Y-83357142D01*
X80508333Y-83452380D01*
X80555952Y-83500000D01*
X80651190Y-83547619D01*
X80936904Y-83547619D01*
X81032142Y-83500000D01*
X81079761Y-83452380D01*
X81127380Y-83357142D01*
X81127380Y-83166666D01*
X81079761Y-83071428D01*
X81079761Y-83928571D02*
X81127380Y-84023809D01*
X81127380Y-84214285D01*
X81079761Y-84309523D01*
X80984523Y-84357142D01*
X80936904Y-84357142D01*
X80841666Y-84309523D01*
X80794047Y-84214285D01*
X80794047Y-84071428D01*
X80746428Y-83976190D01*
X80651190Y-83928571D01*
X80603571Y-83928571D01*
X80508333Y-83976190D01*
X80460714Y-84071428D01*
X80460714Y-84214285D01*
X80508333Y-84309523D01*
X81032142Y-84785714D02*
X81079761Y-84833333D01*
X81127380Y-84785714D01*
X81079761Y-84738095D01*
X81032142Y-84785714D01*
X81127380Y-84785714D01*
X80508333Y-84785714D02*
X80555952Y-84833333D01*
X80603571Y-84785714D01*
X80555952Y-84738095D01*
X80508333Y-84785714D01*
X80603571Y-84785714D01*
X80079761Y-85976190D02*
X81365476Y-85119047D01*
X80079761Y-87023809D02*
X81365476Y-86166666D01*
X80460714Y-87785714D02*
X81270238Y-87785714D01*
X81365476Y-87738095D01*
X81413095Y-87690476D01*
X81460714Y-87595238D01*
X81460714Y-87452380D01*
X81413095Y-87357142D01*
X81079761Y-87785714D02*
X81127380Y-87690476D01*
X81127380Y-87500000D01*
X81079761Y-87404761D01*
X81032142Y-87357142D01*
X80936904Y-87309523D01*
X80651190Y-87309523D01*
X80555952Y-87357142D01*
X80508333Y-87404761D01*
X80460714Y-87500000D01*
X80460714Y-87690476D01*
X80508333Y-87785714D01*
X81127380Y-88261904D02*
X80460714Y-88261904D01*
X80127380Y-88261904D02*
X80175000Y-88214285D01*
X80222619Y-88261904D01*
X80175000Y-88309523D01*
X80127380Y-88261904D01*
X80222619Y-88261904D01*
X80460714Y-88595238D02*
X80460714Y-88976190D01*
X80127380Y-88738095D02*
X80984523Y-88738095D01*
X81079761Y-88785714D01*
X81127380Y-88880952D01*
X81127380Y-88976190D01*
X81127380Y-89309523D02*
X80127380Y-89309523D01*
X81127380Y-89738095D02*
X80603571Y-89738095D01*
X80508333Y-89690476D01*
X80460714Y-89595238D01*
X80460714Y-89452380D01*
X80508333Y-89357142D01*
X80555952Y-89309523D01*
X80460714Y-90642857D02*
X81127380Y-90642857D01*
X80460714Y-90214285D02*
X80984523Y-90214285D01*
X81079761Y-90261904D01*
X81127380Y-90357142D01*
X81127380Y-90500000D01*
X81079761Y-90595238D01*
X81032142Y-90642857D01*
X81127380Y-91119047D02*
X80127380Y-91119047D01*
X80508333Y-91119047D02*
X80460714Y-91214285D01*
X80460714Y-91404761D01*
X80508333Y-91500000D01*
X80555952Y-91547619D01*
X80651190Y-91595238D01*
X80936904Y-91595238D01*
X81032142Y-91547619D01*
X81079761Y-91500000D01*
X81127380Y-91404761D01*
X81127380Y-91214285D01*
X81079761Y-91119047D01*
X81032142Y-92023809D02*
X81079761Y-92071428D01*
X81127380Y-92023809D01*
X81079761Y-91976190D01*
X81032142Y-92023809D01*
X81127380Y-92023809D01*
X81079761Y-92928571D02*
X81127380Y-92833333D01*
X81127380Y-92642857D01*
X81079761Y-92547619D01*
X81032142Y-92500000D01*
X80936904Y-92452380D01*
X80651190Y-92452380D01*
X80555952Y-92500000D01*
X80508333Y-92547619D01*
X80460714Y-92642857D01*
X80460714Y-92833333D01*
X80508333Y-92928571D01*
X81127380Y-93500000D02*
X81079761Y-93404761D01*
X81032142Y-93357142D01*
X80936904Y-93309523D01*
X80651190Y-93309523D01*
X80555952Y-93357142D01*
X80508333Y-93404761D01*
X80460714Y-93500000D01*
X80460714Y-93642857D01*
X80508333Y-93738095D01*
X80555952Y-93785714D01*
X80651190Y-93833333D01*
X80936904Y-93833333D01*
X81032142Y-93785714D01*
X81079761Y-93738095D01*
X81127380Y-93642857D01*
X81127380Y-93500000D01*
X81127380Y-94261904D02*
X80460714Y-94261904D01*
X80555952Y-94261904D02*
X80508333Y-94309523D01*
X80460714Y-94404761D01*
X80460714Y-94547619D01*
X80508333Y-94642857D01*
X80603571Y-94690476D01*
X81127380Y-94690476D01*
X80603571Y-94690476D02*
X80508333Y-94738095D01*
X80460714Y-94833333D01*
X80460714Y-94976190D01*
X80508333Y-95071428D01*
X80603571Y-95119047D01*
X81127380Y-95119047D01*
X80079761Y-96309523D02*
X81365476Y-95452380D01*
X81127380Y-96642857D02*
X80127380Y-96642857D01*
X81127380Y-97071428D02*
X80603571Y-97071428D01*
X80508333Y-97023809D01*
X80460714Y-96928571D01*
X80460714Y-96785714D01*
X80508333Y-96690476D01*
X80555952Y-96642857D01*
X81127380Y-97690476D02*
X81079761Y-97595238D01*
X81032142Y-97547619D01*
X80936904Y-97500000D01*
X80651190Y-97500000D01*
X80555952Y-97547619D01*
X80508333Y-97595238D01*
X80460714Y-97690476D01*
X80460714Y-97833333D01*
X80508333Y-97928571D01*
X80555952Y-97976190D01*
X80651190Y-98023809D01*
X80936904Y-98023809D01*
X81032142Y-97976190D01*
X81079761Y-97928571D01*
X81127380Y-97833333D01*
X81127380Y-97690476D01*
X81127380Y-98595238D02*
X81079761Y-98500000D01*
X80984523Y-98452380D01*
X80127380Y-98452380D01*
X81127380Y-98976190D02*
X80460714Y-98976190D01*
X80555952Y-98976190D02*
X80508333Y-99023809D01*
X80460714Y-99119047D01*
X80460714Y-99261904D01*
X80508333Y-99357142D01*
X80603571Y-99404761D01*
X81127380Y-99404761D01*
X80603571Y-99404761D02*
X80508333Y-99452380D01*
X80460714Y-99547619D01*
X80460714Y-99690476D01*
X80508333Y-99785714D01*
X80603571Y-99833333D01*
X81127380Y-99833333D01*
X81079761Y-100690476D02*
X81127380Y-100595238D01*
X81127380Y-100404761D01*
X81079761Y-100309523D01*
X80984523Y-100261904D01*
X80603571Y-100261904D01*
X80508333Y-100309523D01*
X80460714Y-100404761D01*
X80460714Y-100595238D01*
X80508333Y-100690476D01*
X80603571Y-100738095D01*
X80698809Y-100738095D01*
X80794047Y-100261904D01*
X81079761Y-101119047D02*
X81127380Y-101214285D01*
X81127380Y-101404761D01*
X81079761Y-101500000D01*
X80984523Y-101547619D01*
X80936904Y-101547619D01*
X80841666Y-101500000D01*
X80794047Y-101404761D01*
X80794047Y-101261904D01*
X80746428Y-101166666D01*
X80651190Y-101119047D01*
X80603571Y-101119047D01*
X80508333Y-101166666D01*
X80460714Y-101261904D01*
X80460714Y-101404761D01*
X80508333Y-101500000D01*
X81127380Y-101976190D02*
X80460714Y-101976190D01*
X80651190Y-101976190D02*
X80555952Y-102023809D01*
X80508333Y-102071428D01*
X80460714Y-102166666D01*
X80460714Y-102261904D01*
X81127380Y-102595238D02*
X80460714Y-102595238D01*
X80127380Y-102595238D02*
X80175000Y-102547619D01*
X80222619Y-102595238D01*
X80175000Y-102642857D01*
X80127380Y-102595238D01*
X80222619Y-102595238D01*
X81079761Y-103500000D02*
X81127380Y-103404761D01*
X81127380Y-103214285D01*
X81079761Y-103119047D01*
X81032142Y-103071428D01*
X80936904Y-103023809D01*
X80651190Y-103023809D01*
X80555952Y-103071428D01*
X80508333Y-103119047D01*
X80460714Y-103214285D01*
X80460714Y-103404761D01*
X80508333Y-103500000D01*
X81127380Y-103928571D02*
X80127380Y-103928571D01*
X81127380Y-104357142D02*
X80603571Y-104357142D01*
X80508333Y-104309523D01*
X80460714Y-104214285D01*
X80460714Y-104071428D01*
X80508333Y-103976190D01*
X80555952Y-103928571D01*
X81127380Y-105261904D02*
X80603571Y-105261904D01*
X80508333Y-105214285D01*
X80460714Y-105119047D01*
X80460714Y-104928571D01*
X80508333Y-104833333D01*
X81079761Y-105261904D02*
X81127380Y-105166666D01*
X81127380Y-104928571D01*
X81079761Y-104833333D01*
X80984523Y-104785714D01*
X80889285Y-104785714D01*
X80794047Y-104833333D01*
X80746428Y-104928571D01*
X80746428Y-105166666D01*
X80698809Y-105261904D01*
X81127380Y-105738095D02*
X80460714Y-105738095D01*
X80651190Y-105738095D02*
X80555952Y-105785714D01*
X80508333Y-105833333D01*
X80460714Y-105928571D01*
X80460714Y-106023809D01*
X81127380Y-106785714D02*
X80127380Y-106785714D01*
X81079761Y-106785714D02*
X81127380Y-106690476D01*
X81127380Y-106500000D01*
X81079761Y-106404761D01*
X81032142Y-106357142D01*
X80936904Y-106309523D01*
X80651190Y-106309523D01*
X80555952Y-106357142D01*
X80508333Y-106404761D01*
X80460714Y-106500000D01*
X80460714Y-106690476D01*
X80508333Y-106785714D01*
X81079761Y-107214285D02*
X81127380Y-107309523D01*
X81127380Y-107500000D01*
X81079761Y-107595238D01*
X80984523Y-107642857D01*
X80936904Y-107642857D01*
X80841666Y-107595238D01*
X80794047Y-107500000D01*
X80794047Y-107357142D01*
X80746428Y-107261904D01*
X80651190Y-107214285D01*
X80603571Y-107214285D01*
X80508333Y-107261904D01*
X80460714Y-107357142D01*
X80460714Y-107500000D01*
X80508333Y-107595238D01*
X80079761Y-108785714D02*
X81365476Y-107928571D01*
X81127380Y-109119047D02*
X80460714Y-109119047D01*
X80555952Y-109119047D02*
X80508333Y-109166666D01*
X80460714Y-109261904D01*
X80460714Y-109404761D01*
X80508333Y-109500000D01*
X80603571Y-109547619D01*
X81127380Y-109547619D01*
X80603571Y-109547619D02*
X80508333Y-109595238D01*
X80460714Y-109690476D01*
X80460714Y-109833333D01*
X80508333Y-109928571D01*
X80603571Y-109976190D01*
X81127380Y-109976190D01*
X81127380Y-110452380D02*
X80460714Y-110452380D01*
X80127380Y-110452380D02*
X80175000Y-110404761D01*
X80222619Y-110452380D01*
X80175000Y-110500000D01*
X80127380Y-110452380D01*
X80222619Y-110452380D01*
X81127380Y-111357142D02*
X80127380Y-111357142D01*
X81079761Y-111357142D02*
X81127380Y-111261904D01*
X81127380Y-111071428D01*
X81079761Y-110976190D01*
X81032142Y-110928571D01*
X80936904Y-110880952D01*
X80651190Y-110880952D01*
X80555952Y-110928571D01*
X80508333Y-110976190D01*
X80460714Y-111071428D01*
X80460714Y-111261904D01*
X80508333Y-111357142D01*
X81127380Y-111833333D02*
X80460714Y-111833333D01*
X80127380Y-111833333D02*
X80175000Y-111785714D01*
X80222619Y-111833333D01*
X80175000Y-111880952D01*
X80127380Y-111833333D01*
X80222619Y-111833333D01*
X80222619Y-112261904D02*
X80175000Y-112309523D01*
X80127380Y-112404761D01*
X80127380Y-112642857D01*
X80175000Y-112738095D01*
X80222619Y-112785714D01*
X80317857Y-112833333D01*
X80413095Y-112833333D01*
X80555952Y-112785714D01*
X81127380Y-112214285D01*
X81127380Y-112833333D01*
X81079761Y-113690476D02*
X81127380Y-113595238D01*
X81127380Y-113404761D01*
X81079761Y-113309523D01*
X81032142Y-113261904D01*
X80936904Y-113214285D01*
X80651190Y-113214285D01*
X80555952Y-113261904D01*
X80508333Y-113309523D01*
X80460714Y-113404761D01*
X80460714Y-113595238D01*
X80508333Y-113690476D01*
X80460714Y-114023809D02*
X81127380Y-114261904D01*
X80460714Y-114500000D01*
X81222619Y-114642857D02*
X81222619Y-115404761D01*
X81127380Y-116071428D02*
X80603571Y-116071428D01*
X80508333Y-116023809D01*
X80460714Y-115928571D01*
X80460714Y-115738095D01*
X80508333Y-115642857D01*
X81079761Y-116071428D02*
X81127380Y-115976190D01*
X81127380Y-115738095D01*
X81079761Y-115642857D01*
X80984523Y-115595238D01*
X80889285Y-115595238D01*
X80794047Y-115642857D01*
X80746428Y-115738095D01*
X80746428Y-115976190D01*
X80698809Y-116071428D01*
X81127380Y-116690476D02*
X81079761Y-116595238D01*
X81032142Y-116547619D01*
X80936904Y-116500000D01*
X80651190Y-116500000D01*
X80555952Y-116547619D01*
X80508333Y-116595238D01*
X80460714Y-116690476D01*
X80460714Y-116833333D01*
X80508333Y-116928571D01*
X80555952Y-116976190D01*
X80651190Y-117023809D01*
X80936904Y-117023809D01*
X81032142Y-116976190D01*
X81079761Y-116928571D01*
X81127380Y-116833333D01*
X81127380Y-116690476D01*
X82253571Y-85880952D02*
X82301190Y-86023809D01*
X82348809Y-86071428D01*
X82444047Y-86119047D01*
X82586904Y-86119047D01*
X82682142Y-86071428D01*
X82729761Y-86023809D01*
X82777380Y-85928571D01*
X82777380Y-85547619D01*
X81777380Y-85547619D01*
X81777380Y-85880952D01*
X81825000Y-85976190D01*
X81872619Y-86023809D01*
X81967857Y-86071428D01*
X82063095Y-86071428D01*
X82158333Y-86023809D01*
X82205952Y-85976190D01*
X82253571Y-85880952D01*
X82253571Y-85547619D01*
X82777380Y-86976190D02*
X82253571Y-86976190D01*
X82158333Y-86928571D01*
X82110714Y-86833333D01*
X82110714Y-86642857D01*
X82158333Y-86547619D01*
X82729761Y-86976190D02*
X82777380Y-86880952D01*
X82777380Y-86642857D01*
X82729761Y-86547619D01*
X82634523Y-86499999D01*
X82539285Y-86499999D01*
X82444047Y-86547619D01*
X82396428Y-86642857D01*
X82396428Y-86880952D01*
X82348809Y-86976190D01*
X82729761Y-87404761D02*
X82777380Y-87499999D01*
X82777380Y-87690476D01*
X82729761Y-87785714D01*
X82634523Y-87833333D01*
X82586904Y-87833333D01*
X82491666Y-87785714D01*
X82444047Y-87690476D01*
X82444047Y-87547619D01*
X82396428Y-87452380D01*
X82301190Y-87404761D01*
X82253571Y-87404761D01*
X82158333Y-87452380D01*
X82110714Y-87547619D01*
X82110714Y-87690476D01*
X82158333Y-87785714D01*
X82729761Y-88642857D02*
X82777380Y-88547619D01*
X82777380Y-88357142D01*
X82729761Y-88261904D01*
X82634523Y-88214285D01*
X82253571Y-88214285D01*
X82158333Y-88261904D01*
X82110714Y-88357142D01*
X82110714Y-88547619D01*
X82158333Y-88642857D01*
X82253571Y-88690476D01*
X82348809Y-88690476D01*
X82444047Y-88214285D01*
X82777380Y-89547619D02*
X81777380Y-89547619D01*
X82729761Y-89547619D02*
X82777380Y-89452380D01*
X82777380Y-89261904D01*
X82729761Y-89166666D01*
X82682142Y-89119047D01*
X82586904Y-89071428D01*
X82301190Y-89071428D01*
X82205952Y-89119047D01*
X82158333Y-89166666D01*
X82110714Y-89261904D01*
X82110714Y-89452380D01*
X82158333Y-89547619D01*
X82777380Y-90928571D02*
X82729761Y-90833333D01*
X82682142Y-90785714D01*
X82586904Y-90738095D01*
X82301190Y-90738095D01*
X82205952Y-90785714D01*
X82158333Y-90833333D01*
X82110714Y-90928571D01*
X82110714Y-91071428D01*
X82158333Y-91166666D01*
X82205952Y-91214285D01*
X82301190Y-91261904D01*
X82586904Y-91261904D01*
X82682142Y-91214285D01*
X82729761Y-91166666D01*
X82777380Y-91071428D01*
X82777380Y-90928571D01*
X82110714Y-91690476D02*
X82777380Y-91690476D01*
X82205952Y-91690476D02*
X82158333Y-91738095D01*
X82110714Y-91833333D01*
X82110714Y-91976190D01*
X82158333Y-92071428D01*
X82253571Y-92119047D01*
X82777380Y-92119047D01*
X82777380Y-93785714D02*
X81777380Y-93785714D01*
X82729761Y-93785714D02*
X82777380Y-93690476D01*
X82777380Y-93499999D01*
X82729761Y-93404761D01*
X82682142Y-93357142D01*
X82586904Y-93309523D01*
X82301190Y-93309523D01*
X82205952Y-93357142D01*
X82158333Y-93404761D01*
X82110714Y-93499999D01*
X82110714Y-93690476D01*
X82158333Y-93785714D01*
X82729761Y-94642857D02*
X82777380Y-94547619D01*
X82777380Y-94357142D01*
X82729761Y-94261904D01*
X82634523Y-94214285D01*
X82253571Y-94214285D01*
X82158333Y-94261904D01*
X82110714Y-94357142D01*
X82110714Y-94547619D01*
X82158333Y-94642857D01*
X82253571Y-94690476D01*
X82348809Y-94690476D01*
X82444047Y-94214285D01*
X82729761Y-95071428D02*
X82777380Y-95166666D01*
X82777380Y-95357142D01*
X82729761Y-95452380D01*
X82634523Y-95499999D01*
X82586904Y-95499999D01*
X82491666Y-95452380D01*
X82444047Y-95357142D01*
X82444047Y-95214285D01*
X82396428Y-95119047D01*
X82301190Y-95071428D01*
X82253571Y-95071428D01*
X82158333Y-95119047D01*
X82110714Y-95214285D01*
X82110714Y-95357142D01*
X82158333Y-95452380D01*
X82777380Y-95928571D02*
X82110714Y-95928571D01*
X81777380Y-95928571D02*
X81825000Y-95880952D01*
X81872619Y-95928571D01*
X81825000Y-95976190D01*
X81777380Y-95928571D01*
X81872619Y-95928571D01*
X82110714Y-96833333D02*
X82920238Y-96833333D01*
X83015476Y-96785714D01*
X83063095Y-96738095D01*
X83110714Y-96642857D01*
X83110714Y-96499999D01*
X83063095Y-96404761D01*
X82729761Y-96833333D02*
X82777380Y-96738095D01*
X82777380Y-96547619D01*
X82729761Y-96452380D01*
X82682142Y-96404761D01*
X82586904Y-96357142D01*
X82301190Y-96357142D01*
X82205952Y-96404761D01*
X82158333Y-96452380D01*
X82110714Y-96547619D01*
X82110714Y-96738095D01*
X82158333Y-96833333D01*
X82110714Y-97309523D02*
X82777380Y-97309523D01*
X82205952Y-97309523D02*
X82158333Y-97357142D01*
X82110714Y-97452380D01*
X82110714Y-97595238D01*
X82158333Y-97690476D01*
X82253571Y-97738095D01*
X82777380Y-97738095D01*
X82777380Y-98976190D02*
X81777380Y-98976190D01*
X82158333Y-98976190D02*
X82110714Y-99071428D01*
X82110714Y-99261904D01*
X82158333Y-99357142D01*
X82205952Y-99404761D01*
X82301190Y-99452380D01*
X82586904Y-99452380D01*
X82682142Y-99404761D01*
X82729761Y-99357142D01*
X82777380Y-99261904D01*
X82777380Y-99071428D01*
X82729761Y-98976190D01*
X82110714Y-99785714D02*
X82777380Y-100023809D01*
X82110714Y-100261904D02*
X82777380Y-100023809D01*
X83015476Y-99928571D01*
X83063095Y-99880952D01*
X83110714Y-99785714D01*
X82777380Y-101880952D02*
X82777380Y-101404761D01*
X81777380Y-101404761D01*
X82777380Y-102642857D02*
X82253571Y-102642857D01*
X82158333Y-102595238D01*
X82110714Y-102499999D01*
X82110714Y-102309523D01*
X82158333Y-102214285D01*
X82729761Y-102642857D02*
X82777380Y-102547619D01*
X82777380Y-102309523D01*
X82729761Y-102214285D01*
X82634523Y-102166666D01*
X82539285Y-102166666D01*
X82444047Y-102214285D01*
X82396428Y-102309523D01*
X82396428Y-102547619D01*
X82348809Y-102642857D01*
X82777380Y-103119047D02*
X82110714Y-103119047D01*
X82301190Y-103119047D02*
X82205952Y-103166666D01*
X82158333Y-103214285D01*
X82110714Y-103309523D01*
X82110714Y-103404761D01*
X82777380Y-103738095D02*
X82110714Y-103738095D01*
X82301190Y-103738095D02*
X82205952Y-103785714D01*
X82158333Y-103833333D01*
X82110714Y-103928571D01*
X82110714Y-104023809D01*
X82110714Y-104261904D02*
X82777380Y-104499999D01*
X82110714Y-104738095D02*
X82777380Y-104499999D01*
X83015476Y-104404761D01*
X83063095Y-104357142D01*
X83110714Y-104261904D01*
X82777380Y-105880952D02*
X81777380Y-105880952D01*
X82491666Y-106214285D01*
X81777380Y-106547619D01*
X82777380Y-106547619D01*
X82729761Y-107452380D02*
X82777380Y-107357142D01*
X82777380Y-107166666D01*
X82729761Y-107071428D01*
X82682142Y-107023809D01*
X82586904Y-106976190D01*
X82301190Y-106976190D01*
X82205952Y-107023809D01*
X82158333Y-107071428D01*
X82110714Y-107166666D01*
X82110714Y-107357142D01*
X82158333Y-107452380D01*
X81825000Y-108404761D02*
X81777380Y-108309523D01*
X81777380Y-108166666D01*
X81825000Y-108023809D01*
X81920238Y-107928571D01*
X82015476Y-107880952D01*
X82205952Y-107833333D01*
X82348809Y-107833333D01*
X82539285Y-107880952D01*
X82634523Y-107928571D01*
X82729761Y-108023809D01*
X82777380Y-108166666D01*
X82777380Y-108261904D01*
X82729761Y-108404761D01*
X82682142Y-108452380D01*
X82348809Y-108452380D01*
X82348809Y-108261904D01*
X82777380Y-109023809D02*
X82729761Y-108928571D01*
X82682142Y-108880952D01*
X82586904Y-108833333D01*
X82301190Y-108833333D01*
X82205952Y-108880952D01*
X82158333Y-108928571D01*
X82110714Y-109023809D01*
X82110714Y-109166666D01*
X82158333Y-109261904D01*
X82205952Y-109309523D01*
X82301190Y-109357142D01*
X82586904Y-109357142D01*
X82682142Y-109309523D01*
X82729761Y-109261904D01*
X82777380Y-109166666D01*
X82777380Y-109023809D01*
X82110714Y-109690476D02*
X82777380Y-109928571D01*
X82110714Y-110166666D01*
X82729761Y-110928571D02*
X82777380Y-110833333D01*
X82777380Y-110642857D01*
X82729761Y-110547619D01*
X82634523Y-110499999D01*
X82253571Y-110499999D01*
X82158333Y-110547619D01*
X82110714Y-110642857D01*
X82110714Y-110833333D01*
X82158333Y-110928571D01*
X82253571Y-110976190D01*
X82348809Y-110976190D01*
X82444047Y-110499999D01*
X82777380Y-111404761D02*
X82110714Y-111404761D01*
X82301190Y-111404761D02*
X82205952Y-111452380D01*
X82158333Y-111499999D01*
X82110714Y-111595238D01*
X82110714Y-111690476D01*
X82110714Y-112023809D02*
X82777380Y-112023809D01*
X82205952Y-112023809D02*
X82158333Y-112071428D01*
X82110714Y-112166666D01*
X82110714Y-112309523D01*
X82158333Y-112404761D01*
X82253571Y-112452380D01*
X82777380Y-112452380D01*
X84427380Y-85000000D02*
X83427380Y-85000000D01*
X84427380Y-85428571D02*
X83903571Y-85428571D01*
X83808333Y-85380952D01*
X83760714Y-85285714D01*
X83760714Y-85142857D01*
X83808333Y-85047619D01*
X83855952Y-85000000D01*
X83760714Y-85761904D02*
X83760714Y-86142857D01*
X83427380Y-85904761D02*
X84284523Y-85904761D01*
X84379761Y-85952380D01*
X84427380Y-86047619D01*
X84427380Y-86142857D01*
X83760714Y-86333333D02*
X83760714Y-86714285D01*
X83427380Y-86476190D02*
X84284523Y-86476190D01*
X84379761Y-86523809D01*
X84427380Y-86619047D01*
X84427380Y-86714285D01*
X83760714Y-87047619D02*
X84760714Y-87047619D01*
X83808333Y-87047619D02*
X83760714Y-87142857D01*
X83760714Y-87333333D01*
X83808333Y-87428571D01*
X83855952Y-87476190D01*
X83951190Y-87523809D01*
X84236904Y-87523809D01*
X84332142Y-87476190D01*
X84379761Y-87428571D01*
X84427380Y-87333333D01*
X84427380Y-87142857D01*
X84379761Y-87047619D01*
X84379761Y-87904761D02*
X84427380Y-88000000D01*
X84427380Y-88190476D01*
X84379761Y-88285714D01*
X84284523Y-88333333D01*
X84236904Y-88333333D01*
X84141666Y-88285714D01*
X84094047Y-88190476D01*
X84094047Y-88047619D01*
X84046428Y-87952380D01*
X83951190Y-87904761D01*
X83903571Y-87904761D01*
X83808333Y-87952380D01*
X83760714Y-88047619D01*
X83760714Y-88190476D01*
X83808333Y-88285714D01*
X84332142Y-88761904D02*
X84379761Y-88809523D01*
X84427380Y-88761904D01*
X84379761Y-88714285D01*
X84332142Y-88761904D01*
X84427380Y-88761904D01*
X83808333Y-88761904D02*
X83855952Y-88809523D01*
X83903571Y-88761904D01*
X83855952Y-88714285D01*
X83808333Y-88761904D01*
X83903571Y-88761904D01*
X83379761Y-89952380D02*
X84665476Y-89095238D01*
X83379761Y-91000000D02*
X84665476Y-90142857D01*
X83760714Y-91761904D02*
X84570238Y-91761904D01*
X84665476Y-91714285D01*
X84713095Y-91666666D01*
X84760714Y-91571428D01*
X84760714Y-91428571D01*
X84713095Y-91333333D01*
X84379761Y-91761904D02*
X84427380Y-91666666D01*
X84427380Y-91476190D01*
X84379761Y-91380952D01*
X84332142Y-91333333D01*
X84236904Y-91285714D01*
X83951190Y-91285714D01*
X83855952Y-91333333D01*
X83808333Y-91380952D01*
X83760714Y-91476190D01*
X83760714Y-91666666D01*
X83808333Y-91761904D01*
X84427380Y-92238095D02*
X83760714Y-92238095D01*
X83427380Y-92238095D02*
X83475000Y-92190476D01*
X83522619Y-92238095D01*
X83475000Y-92285714D01*
X83427380Y-92238095D01*
X83522619Y-92238095D01*
X83760714Y-92571428D02*
X83760714Y-92952380D01*
X83427380Y-92714285D02*
X84284523Y-92714285D01*
X84379761Y-92761904D01*
X84427380Y-92857142D01*
X84427380Y-92952380D01*
X84427380Y-93285714D02*
X83427380Y-93285714D01*
X84427380Y-93714285D02*
X83903571Y-93714285D01*
X83808333Y-93666666D01*
X83760714Y-93571428D01*
X83760714Y-93428571D01*
X83808333Y-93333333D01*
X83855952Y-93285714D01*
X83760714Y-94619047D02*
X84427380Y-94619047D01*
X83760714Y-94190476D02*
X84284523Y-94190476D01*
X84379761Y-94238095D01*
X84427380Y-94333333D01*
X84427380Y-94476190D01*
X84379761Y-94571428D01*
X84332142Y-94619047D01*
X84427380Y-95095238D02*
X83427380Y-95095238D01*
X83808333Y-95095238D02*
X83760714Y-95190476D01*
X83760714Y-95380952D01*
X83808333Y-95476190D01*
X83855952Y-95523809D01*
X83951190Y-95571428D01*
X84236904Y-95571428D01*
X84332142Y-95523809D01*
X84379761Y-95476190D01*
X84427380Y-95380952D01*
X84427380Y-95190476D01*
X84379761Y-95095238D01*
X84332142Y-96000000D02*
X84379761Y-96047619D01*
X84427380Y-96000000D01*
X84379761Y-95952380D01*
X84332142Y-96000000D01*
X84427380Y-96000000D01*
X84379761Y-96904761D02*
X84427380Y-96809523D01*
X84427380Y-96619047D01*
X84379761Y-96523809D01*
X84332142Y-96476190D01*
X84236904Y-96428571D01*
X83951190Y-96428571D01*
X83855952Y-96476190D01*
X83808333Y-96523809D01*
X83760714Y-96619047D01*
X83760714Y-96809523D01*
X83808333Y-96904761D01*
X84427380Y-97476190D02*
X84379761Y-97380952D01*
X84332142Y-97333333D01*
X84236904Y-97285714D01*
X83951190Y-97285714D01*
X83855952Y-97333333D01*
X83808333Y-97380952D01*
X83760714Y-97476190D01*
X83760714Y-97619047D01*
X83808333Y-97714285D01*
X83855952Y-97761904D01*
X83951190Y-97809523D01*
X84236904Y-97809523D01*
X84332142Y-97761904D01*
X84379761Y-97714285D01*
X84427380Y-97619047D01*
X84427380Y-97476190D01*
X84427380Y-98238095D02*
X83760714Y-98238095D01*
X83855952Y-98238095D02*
X83808333Y-98285714D01*
X83760714Y-98380952D01*
X83760714Y-98523809D01*
X83808333Y-98619047D01*
X83903571Y-98666666D01*
X84427380Y-98666666D01*
X83903571Y-98666666D02*
X83808333Y-98714285D01*
X83760714Y-98809523D01*
X83760714Y-98952380D01*
X83808333Y-99047619D01*
X83903571Y-99095238D01*
X84427380Y-99095238D01*
X83379761Y-100285714D02*
X84665476Y-99428571D01*
X84379761Y-101000000D02*
X84427380Y-100904761D01*
X84427380Y-100714285D01*
X84379761Y-100619047D01*
X84284523Y-100571428D01*
X83903571Y-100571428D01*
X83808333Y-100619047D01*
X83760714Y-100714285D01*
X83760714Y-100904761D01*
X83808333Y-101000000D01*
X83903571Y-101047619D01*
X83998809Y-101047619D01*
X84094047Y-100571428D01*
X84427380Y-101619047D02*
X84379761Y-101523809D01*
X84284523Y-101476190D01*
X83427380Y-101476190D01*
X84427380Y-102000000D02*
X83427380Y-102000000D01*
X84046428Y-102095238D02*
X84427380Y-102380952D01*
X83760714Y-102380952D02*
X84141666Y-102000000D01*
X84427380Y-103238095D02*
X83903571Y-103238095D01*
X83808333Y-103190476D01*
X83760714Y-103095238D01*
X83760714Y-102904761D01*
X83808333Y-102809523D01*
X84379761Y-103238095D02*
X84427380Y-103142857D01*
X84427380Y-102904761D01*
X84379761Y-102809523D01*
X84284523Y-102761904D01*
X84189285Y-102761904D01*
X84094047Y-102809523D01*
X84046428Y-102904761D01*
X84046428Y-103142857D01*
X83998809Y-103238095D01*
X83760714Y-103619047D02*
X84427380Y-103857142D01*
X83760714Y-104095238D02*
X84427380Y-103857142D01*
X84665476Y-103761904D01*
X84713095Y-103714285D01*
X84760714Y-103619047D01*
X84379761Y-104857142D02*
X84427380Y-104761904D01*
X84427380Y-104571428D01*
X84379761Y-104476190D01*
X84284523Y-104428571D01*
X83903571Y-104428571D01*
X83808333Y-104476190D01*
X83760714Y-104571428D01*
X83760714Y-104761904D01*
X83808333Y-104857142D01*
X83903571Y-104904761D01*
X83998809Y-104904761D01*
X84094047Y-104428571D01*
X84427380Y-105333333D02*
X83760714Y-105333333D01*
X83855952Y-105333333D02*
X83808333Y-105380952D01*
X83760714Y-105476190D01*
X83760714Y-105619047D01*
X83808333Y-105714285D01*
X83903571Y-105761904D01*
X84427380Y-105761904D01*
X83903571Y-105761904D02*
X83808333Y-105809523D01*
X83760714Y-105904761D01*
X83760714Y-106047619D01*
X83808333Y-106142857D01*
X83903571Y-106190476D01*
X84427380Y-106190476D01*
X83379761Y-107380952D02*
X84665476Y-106523809D01*
X84427380Y-107714285D02*
X83760714Y-107714285D01*
X83855952Y-107714285D02*
X83808333Y-107761904D01*
X83760714Y-107857142D01*
X83760714Y-108000000D01*
X83808333Y-108095238D01*
X83903571Y-108142857D01*
X84427380Y-108142857D01*
X83903571Y-108142857D02*
X83808333Y-108190476D01*
X83760714Y-108285714D01*
X83760714Y-108428571D01*
X83808333Y-108523809D01*
X83903571Y-108571428D01*
X84427380Y-108571428D01*
X84427380Y-109047619D02*
X83760714Y-109047619D01*
X83427380Y-109047619D02*
X83475000Y-109000000D01*
X83522619Y-109047619D01*
X83475000Y-109095238D01*
X83427380Y-109047619D01*
X83522619Y-109047619D01*
X84427380Y-109952380D02*
X83427380Y-109952380D01*
X84379761Y-109952380D02*
X84427380Y-109857142D01*
X84427380Y-109666666D01*
X84379761Y-109571428D01*
X84332142Y-109523809D01*
X84236904Y-109476190D01*
X83951190Y-109476190D01*
X83855952Y-109523809D01*
X83808333Y-109571428D01*
X83760714Y-109666666D01*
X83760714Y-109857142D01*
X83808333Y-109952380D01*
X84427380Y-110428571D02*
X83760714Y-110428571D01*
X83427380Y-110428571D02*
X83475000Y-110380952D01*
X83522619Y-110428571D01*
X83475000Y-110476190D01*
X83427380Y-110428571D01*
X83522619Y-110428571D01*
X83522619Y-110857142D02*
X83475000Y-110904761D01*
X83427380Y-111000000D01*
X83427380Y-111238095D01*
X83475000Y-111333333D01*
X83522619Y-111380952D01*
X83617857Y-111428571D01*
X83713095Y-111428571D01*
X83855952Y-111380952D01*
X84427380Y-110809523D01*
X84427380Y-111428571D01*
X84379761Y-112285714D02*
X84427380Y-112190476D01*
X84427380Y-112000000D01*
X84379761Y-111904761D01*
X84332142Y-111857142D01*
X84236904Y-111809523D01*
X83951190Y-111809523D01*
X83855952Y-111857142D01*
X83808333Y-111904761D01*
X83760714Y-112000000D01*
X83760714Y-112190476D01*
X83808333Y-112285714D01*
X83760714Y-112619047D02*
X84427380Y-112857142D01*
X83760714Y-113095238D01*
D11*
%TO.C,J8*%
X136830000Y-67500000D02*
X136830000Y-66170000D01*
X136830000Y-66170000D02*
X135500000Y-66170000D01*
X134230000Y-66170000D02*
X111310000Y-66170000D01*
X111310000Y-68830000D02*
X111310000Y-66170000D01*
X134230000Y-68830000D02*
X111310000Y-68830000D01*
X134230000Y-68830000D02*
X134230000Y-66170000D01*
%TO.C,J4*%
X59170000Y-66170000D02*
X59170000Y-67500000D01*
X60500000Y-66170000D02*
X59170000Y-66170000D01*
X61770000Y-66170000D02*
X61770000Y-68830000D01*
X61770000Y-68830000D02*
X84690000Y-68830000D01*
X61770000Y-66170000D02*
X84690000Y-66170000D01*
X84690000Y-66170000D02*
X84690000Y-68830000D01*
%TO.C,J8*%
D10*
X137722380Y-67166666D02*
X138436666Y-67166666D01*
X138579523Y-67119047D01*
X138674761Y-67023809D01*
X138722380Y-66880952D01*
X138722380Y-66785714D01*
X138150952Y-67785714D02*
X138103333Y-67690476D01*
X138055714Y-67642857D01*
X137960476Y-67595238D01*
X137912857Y-67595238D01*
X137817619Y-67642857D01*
X137770000Y-67690476D01*
X137722380Y-67785714D01*
X137722380Y-67976190D01*
X137770000Y-68071428D01*
X137817619Y-68119047D01*
X137912857Y-68166666D01*
X137960476Y-68166666D01*
X138055714Y-68119047D01*
X138103333Y-68071428D01*
X138150952Y-67976190D01*
X138150952Y-67785714D01*
X138198571Y-67690476D01*
X138246190Y-67642857D01*
X138341428Y-67595238D01*
X138531904Y-67595238D01*
X138627142Y-67642857D01*
X138674761Y-67690476D01*
X138722380Y-67785714D01*
X138722380Y-67976190D01*
X138674761Y-68071428D01*
X138627142Y-68119047D01*
X138531904Y-68166666D01*
X138341428Y-68166666D01*
X138246190Y-68119047D01*
X138198571Y-68071428D01*
X138150952Y-67976190D01*
%TO.C,J4*%
X57622380Y-67166666D02*
X58336666Y-67166666D01*
X58479523Y-67119047D01*
X58574761Y-67023809D01*
X58622380Y-66880952D01*
X58622380Y-66785714D01*
X57955714Y-68071428D02*
X58622380Y-68071428D01*
X57574761Y-67833333D02*
X58289047Y-67595238D01*
X58289047Y-68214285D01*
%TD*%
M02*
