G04 #@! TF.GenerationSoftware,KiCad,Pcbnew,5.1.9-73d0e3b20d~88~ubuntu20.04.1*
G04 #@! TF.CreationDate,2021-03-06T16:40:51-05:00*
G04 #@! TF.ProjectId,MCVI-panel,4d435649-2d70-4616-9e65-6c2e6b696361,rev?*
G04 #@! TF.SameCoordinates,Original*
G04 #@! TF.FileFunction,Legend,Bot*
G04 #@! TF.FilePolarity,Positive*
%FSLAX46Y46*%
G04 Gerber Fmt 4.6, Leading zero omitted, Abs format (unit mm)*
G04 Created by KiCad (PCBNEW 5.1.9-73d0e3b20d~88~ubuntu20.04.1) date 2021-03-06 16:40:51*
%MOMM*%
%LPD*%
G01*
G04 APERTURE LIST*
%ADD10C,0.150000*%
G04 APERTURE END LIST*
D10*
X52100000Y-200077380D02*
X52100000Y-199077380D01*
X51719047Y-199077380D01*
X51623809Y-199125000D01*
X51576190Y-199172619D01*
X51528571Y-199267857D01*
X51528571Y-199410714D01*
X51576190Y-199505952D01*
X51623809Y-199553571D01*
X51719047Y-199601190D01*
X52100000Y-199601190D01*
X50671428Y-200077380D02*
X50671428Y-199553571D01*
X50719047Y-199458333D01*
X50814285Y-199410714D01*
X51004761Y-199410714D01*
X51100000Y-199458333D01*
X50671428Y-200029761D02*
X50766666Y-200077380D01*
X51004761Y-200077380D01*
X51100000Y-200029761D01*
X51147619Y-199934523D01*
X51147619Y-199839285D01*
X51100000Y-199744047D01*
X51004761Y-199696428D01*
X50766666Y-199696428D01*
X50671428Y-199648809D01*
X50195238Y-199410714D02*
X50195238Y-200077380D01*
X50195238Y-199505952D02*
X50147619Y-199458333D01*
X50052380Y-199410714D01*
X49909523Y-199410714D01*
X49814285Y-199458333D01*
X49766666Y-199553571D01*
X49766666Y-200077380D01*
X48909523Y-200029761D02*
X49004761Y-200077380D01*
X49195238Y-200077380D01*
X49290476Y-200029761D01*
X49338095Y-199934523D01*
X49338095Y-199553571D01*
X49290476Y-199458333D01*
X49195238Y-199410714D01*
X49004761Y-199410714D01*
X48909523Y-199458333D01*
X48861904Y-199553571D01*
X48861904Y-199648809D01*
X49338095Y-199744047D01*
X48290476Y-200077380D02*
X48385714Y-200029761D01*
X48433333Y-199934523D01*
X48433333Y-199077380D01*
X46719047Y-200077380D02*
X46719047Y-199077380D01*
X46719047Y-200029761D02*
X46814285Y-200077380D01*
X47004761Y-200077380D01*
X47100000Y-200029761D01*
X47147619Y-199982142D01*
X47195238Y-199886904D01*
X47195238Y-199601190D01*
X47147619Y-199505952D01*
X47100000Y-199458333D01*
X47004761Y-199410714D01*
X46814285Y-199410714D01*
X46719047Y-199458333D01*
X45861904Y-200029761D02*
X45957142Y-200077380D01*
X46147619Y-200077380D01*
X46242857Y-200029761D01*
X46290476Y-199934523D01*
X46290476Y-199553571D01*
X46242857Y-199458333D01*
X46147619Y-199410714D01*
X45957142Y-199410714D01*
X45861904Y-199458333D01*
X45814285Y-199553571D01*
X45814285Y-199648809D01*
X46290476Y-199744047D01*
X45433333Y-200029761D02*
X45338095Y-200077380D01*
X45147619Y-200077380D01*
X45052380Y-200029761D01*
X45004761Y-199934523D01*
X45004761Y-199886904D01*
X45052380Y-199791666D01*
X45147619Y-199744047D01*
X45290476Y-199744047D01*
X45385714Y-199696428D01*
X45433333Y-199601190D01*
X45433333Y-199553571D01*
X45385714Y-199458333D01*
X45290476Y-199410714D01*
X45147619Y-199410714D01*
X45052380Y-199458333D01*
X44576190Y-200077380D02*
X44576190Y-199410714D01*
X44576190Y-199077380D02*
X44623809Y-199125000D01*
X44576190Y-199172619D01*
X44528571Y-199125000D01*
X44576190Y-199077380D01*
X44576190Y-199172619D01*
X43671428Y-199410714D02*
X43671428Y-200220238D01*
X43719047Y-200315476D01*
X43766666Y-200363095D01*
X43861904Y-200410714D01*
X44004761Y-200410714D01*
X44100000Y-200363095D01*
X43671428Y-200029761D02*
X43766666Y-200077380D01*
X43957142Y-200077380D01*
X44052380Y-200029761D01*
X44100000Y-199982142D01*
X44147619Y-199886904D01*
X44147619Y-199601190D01*
X44100000Y-199505952D01*
X44052380Y-199458333D01*
X43957142Y-199410714D01*
X43766666Y-199410714D01*
X43671428Y-199458333D01*
X43195238Y-199410714D02*
X43195238Y-200077380D01*
X43195238Y-199505952D02*
X43147619Y-199458333D01*
X43052380Y-199410714D01*
X42909523Y-199410714D01*
X42814285Y-199458333D01*
X42766666Y-199553571D01*
X42766666Y-200077380D01*
X41528571Y-200077380D02*
X41528571Y-199077380D01*
X41528571Y-199458333D02*
X41433333Y-199410714D01*
X41242857Y-199410714D01*
X41147619Y-199458333D01*
X41100000Y-199505952D01*
X41052380Y-199601190D01*
X41052380Y-199886904D01*
X41100000Y-199982142D01*
X41147619Y-200029761D01*
X41242857Y-200077380D01*
X41433333Y-200077380D01*
X41528571Y-200029761D01*
X40719047Y-199410714D02*
X40480952Y-200077380D01*
X40242857Y-199410714D02*
X40480952Y-200077380D01*
X40576190Y-200315476D01*
X40623809Y-200363095D01*
X40719047Y-200410714D01*
X38528571Y-200077380D02*
X38861904Y-199601190D01*
X39100000Y-200077380D02*
X39100000Y-199077380D01*
X38719047Y-199077380D01*
X38623809Y-199125000D01*
X38576190Y-199172619D01*
X38528571Y-199267857D01*
X38528571Y-199410714D01*
X38576190Y-199505952D01*
X38623809Y-199553571D01*
X38719047Y-199601190D01*
X39100000Y-199601190D01*
X38100000Y-200077380D02*
X38100000Y-199410714D01*
X38100000Y-199077380D02*
X38147619Y-199125000D01*
X38100000Y-199172619D01*
X38052380Y-199125000D01*
X38100000Y-199077380D01*
X38100000Y-199172619D01*
X37195238Y-200029761D02*
X37290476Y-200077380D01*
X37480952Y-200077380D01*
X37576190Y-200029761D01*
X37623809Y-199982142D01*
X37671428Y-199886904D01*
X37671428Y-199601190D01*
X37623809Y-199505952D01*
X37576190Y-199458333D01*
X37480952Y-199410714D01*
X37290476Y-199410714D01*
X37195238Y-199458333D01*
X36766666Y-200077380D02*
X36766666Y-199077380D01*
X36338095Y-200077380D02*
X36338095Y-199553571D01*
X36385714Y-199458333D01*
X36480952Y-199410714D01*
X36623809Y-199410714D01*
X36719047Y-199458333D01*
X36766666Y-199505952D01*
X35100000Y-200077380D02*
X35100000Y-199077380D01*
X35100000Y-199553571D02*
X34528571Y-199553571D01*
X34528571Y-200077380D02*
X34528571Y-199077380D01*
X33909523Y-200077380D02*
X34004761Y-200029761D01*
X34052380Y-199982142D01*
X34100000Y-199886904D01*
X34100000Y-199601190D01*
X34052380Y-199505952D01*
X34004761Y-199458333D01*
X33909523Y-199410714D01*
X33766666Y-199410714D01*
X33671428Y-199458333D01*
X33623809Y-199505952D01*
X33576190Y-199601190D01*
X33576190Y-199886904D01*
X33623809Y-199982142D01*
X33671428Y-200029761D01*
X33766666Y-200077380D01*
X33909523Y-200077380D01*
X33004761Y-200077380D02*
X33100000Y-200029761D01*
X33147619Y-199934523D01*
X33147619Y-199077380D01*
X32623809Y-200077380D02*
X32623809Y-199410714D01*
X32623809Y-199505952D02*
X32576190Y-199458333D01*
X32480952Y-199410714D01*
X32338095Y-199410714D01*
X32242857Y-199458333D01*
X32195238Y-199553571D01*
X32195238Y-200077380D01*
X32195238Y-199553571D02*
X32147619Y-199458333D01*
X32052380Y-199410714D01*
X31909523Y-199410714D01*
X31814285Y-199458333D01*
X31766666Y-199553571D01*
X31766666Y-200077380D01*
X30909523Y-200029761D02*
X31004761Y-200077380D01*
X31195238Y-200077380D01*
X31290476Y-200029761D01*
X31338095Y-199934523D01*
X31338095Y-199553571D01*
X31290476Y-199458333D01*
X31195238Y-199410714D01*
X31004761Y-199410714D01*
X30909523Y-199458333D01*
X30861904Y-199553571D01*
X30861904Y-199648809D01*
X31338095Y-199744047D01*
X30480952Y-200029761D02*
X30385714Y-200077380D01*
X30195238Y-200077380D01*
X30100000Y-200029761D01*
X30052380Y-199934523D01*
X30052380Y-199886904D01*
X30100000Y-199791666D01*
X30195238Y-199744047D01*
X30338095Y-199744047D01*
X30433333Y-199696428D01*
X30480952Y-199601190D01*
X30480952Y-199553571D01*
X30433333Y-199458333D01*
X30338095Y-199410714D01*
X30195238Y-199410714D01*
X30100000Y-199458333D01*
X45361904Y-201727380D02*
X45361904Y-200727380D01*
X45028571Y-201441666D01*
X44695238Y-200727380D01*
X44695238Y-201727380D01*
X43790476Y-201727380D02*
X43790476Y-201203571D01*
X43838095Y-201108333D01*
X43933333Y-201060714D01*
X44123809Y-201060714D01*
X44219047Y-201108333D01*
X43790476Y-201679761D02*
X43885714Y-201727380D01*
X44123809Y-201727380D01*
X44219047Y-201679761D01*
X44266666Y-201584523D01*
X44266666Y-201489285D01*
X44219047Y-201394047D01*
X44123809Y-201346428D01*
X43885714Y-201346428D01*
X43790476Y-201298809D01*
X43314285Y-201727380D02*
X43314285Y-201060714D01*
X43314285Y-201251190D02*
X43266666Y-201155952D01*
X43219047Y-201108333D01*
X43123809Y-201060714D01*
X43028571Y-201060714D01*
X42266666Y-201679761D02*
X42361904Y-201727380D01*
X42552380Y-201727380D01*
X42647619Y-201679761D01*
X42695238Y-201632142D01*
X42742857Y-201536904D01*
X42742857Y-201251190D01*
X42695238Y-201155952D01*
X42647619Y-201108333D01*
X42552380Y-201060714D01*
X42361904Y-201060714D01*
X42266666Y-201108333D01*
X41838095Y-201727380D02*
X41838095Y-200727380D01*
X41409523Y-201727380D02*
X41409523Y-201203571D01*
X41457142Y-201108333D01*
X41552380Y-201060714D01*
X41695238Y-201060714D01*
X41790476Y-201108333D01*
X41838095Y-201155952D01*
X40219047Y-200822619D02*
X40171428Y-200775000D01*
X40076190Y-200727380D01*
X39838095Y-200727380D01*
X39742857Y-200775000D01*
X39695238Y-200822619D01*
X39647619Y-200917857D01*
X39647619Y-201013095D01*
X39695238Y-201155952D01*
X40266666Y-201727380D01*
X39647619Y-201727380D01*
X39028571Y-200727380D02*
X38933333Y-200727380D01*
X38838095Y-200775000D01*
X38790476Y-200822619D01*
X38742857Y-200917857D01*
X38695238Y-201108333D01*
X38695238Y-201346428D01*
X38742857Y-201536904D01*
X38790476Y-201632142D01*
X38838095Y-201679761D01*
X38933333Y-201727380D01*
X39028571Y-201727380D01*
X39123809Y-201679761D01*
X39171428Y-201632142D01*
X39219047Y-201536904D01*
X39266666Y-201346428D01*
X39266666Y-201108333D01*
X39219047Y-200917857D01*
X39171428Y-200822619D01*
X39123809Y-200775000D01*
X39028571Y-200727380D01*
X38314285Y-200822619D02*
X38266666Y-200775000D01*
X38171428Y-200727380D01*
X37933333Y-200727380D01*
X37838095Y-200775000D01*
X37790476Y-200822619D01*
X37742857Y-200917857D01*
X37742857Y-201013095D01*
X37790476Y-201155952D01*
X38361904Y-201727380D01*
X37742857Y-201727380D01*
X36790476Y-201727380D02*
X37361904Y-201727380D01*
X37076190Y-201727380D02*
X37076190Y-200727380D01*
X37171428Y-200870238D01*
X37266666Y-200965476D01*
X37361904Y-201013095D01*
X45719047Y-204027380D02*
X45719047Y-204741666D01*
X45766666Y-204884523D01*
X45861904Y-204979761D01*
X46004761Y-205027380D01*
X46100000Y-205027380D01*
X44766666Y-205027380D02*
X45242857Y-205027380D01*
X45242857Y-204027380D01*
X43861904Y-204932142D02*
X43909523Y-204979761D01*
X44052380Y-205027380D01*
X44147619Y-205027380D01*
X44290476Y-204979761D01*
X44385714Y-204884523D01*
X44433333Y-204789285D01*
X44480952Y-204598809D01*
X44480952Y-204455952D01*
X44433333Y-204265476D01*
X44385714Y-204170238D01*
X44290476Y-204075000D01*
X44147619Y-204027380D01*
X44052380Y-204027380D01*
X43909523Y-204075000D01*
X43861904Y-204122619D01*
X43147619Y-204027380D02*
X43147619Y-204741666D01*
X43195238Y-204884523D01*
X43290476Y-204979761D01*
X43433333Y-205027380D01*
X43528571Y-205027380D01*
X42195238Y-205027380D02*
X42671428Y-205027380D01*
X42671428Y-204027380D01*
X41290476Y-204932142D02*
X41338095Y-204979761D01*
X41480952Y-205027380D01*
X41576190Y-205027380D01*
X41719047Y-204979761D01*
X41814285Y-204884523D01*
X41861904Y-204789285D01*
X41909523Y-204598809D01*
X41909523Y-204455952D01*
X41861904Y-204265476D01*
X41814285Y-204170238D01*
X41719047Y-204075000D01*
X41576190Y-204027380D01*
X41480952Y-204027380D01*
X41338095Y-204075000D01*
X41290476Y-204122619D01*
X40576190Y-204027380D02*
X40576190Y-204741666D01*
X40623809Y-204884523D01*
X40719047Y-204979761D01*
X40861904Y-205027380D01*
X40957142Y-205027380D01*
X39623809Y-205027380D02*
X40100000Y-205027380D01*
X40100000Y-204027380D01*
X38719047Y-204932142D02*
X38766666Y-204979761D01*
X38909523Y-205027380D01*
X39004761Y-205027380D01*
X39147619Y-204979761D01*
X39242857Y-204884523D01*
X39290476Y-204789285D01*
X39338095Y-204598809D01*
X39338095Y-204455952D01*
X39290476Y-204265476D01*
X39242857Y-204170238D01*
X39147619Y-204075000D01*
X39004761Y-204027380D01*
X38909523Y-204027380D01*
X38766666Y-204075000D01*
X38719047Y-204122619D01*
X38004761Y-204027380D02*
X38004761Y-204741666D01*
X38052380Y-204884523D01*
X38147619Y-204979761D01*
X38290476Y-205027380D01*
X38385714Y-205027380D01*
X37052380Y-205027380D02*
X37528571Y-205027380D01*
X37528571Y-204027380D01*
X36147619Y-204932142D02*
X36195238Y-204979761D01*
X36338095Y-205027380D01*
X36433333Y-205027380D01*
X36576190Y-204979761D01*
X36671428Y-204884523D01*
X36719047Y-204789285D01*
X36766666Y-204598809D01*
X36766666Y-204455952D01*
X36719047Y-204265476D01*
X36671428Y-204170238D01*
X36576190Y-204075000D01*
X36433333Y-204027380D01*
X36338095Y-204027380D01*
X36195238Y-204075000D01*
X36147619Y-204122619D01*
M02*
