M48
; DRILL file {KiCad 5.1.9-73d0e3b20d~88~ubuntu20.04.1} date Sat Mar  6 16:40:54 2021
; FORMAT={-:-/ absolute / inch / decimal}
; #@! TF.CreationDate,2021-03-06T16:40:54-05:00
; #@! TF.GenerationSoftware,Kicad,Pcbnew,5.1.9-73d0e3b20d~88~ubuntu20.04.1
; #@! TF.FileFunction,Plated,1,2,PTH
FMAT,2
INCH
T1C0.1260
T2C0.1299
T3C0.1969
T4C0.2756
T5C0.3937
%
G90
G05
T2
X1.1811Y-7.3858
X2.0551Y-7.3858
T3
X1.6181Y-3.252
X1.6181Y-4.2362
X1.6181Y-5.2205
X1.6181Y-5.2205
X1.6181Y-6.2047
X2.1299Y-6.9921
T4
X1.6181Y-1.6772
T5
X1.1063Y-3.252
X1.1063Y-4.2362
X1.1063Y-5.2205
X1.1063Y-6.2047
X2.1299Y-3.252
X2.1299Y-4.2362
X2.1299Y-5.2205
X2.1299Y-6.2047
T1
G00X0.752Y-0.4173
M15
G01X0.8622Y-0.4173
M16
G05
G00X0.752Y-8.0551
M15
G01X0.8622Y-8.0551
M16
G05
G00X2.4843Y-0.4173
M15
G01X2.374Y-0.4173
M16
G05
G00X2.4843Y-8.0551
M15
G01X2.374Y-8.0551
M16
G05
T0
M30
