%TF.GenerationSoftware,KiCad,Pcbnew,5.1.9-73d0e3b20d~88~ubuntu20.04.1*%
%TF.CreationDate,2021-03-31T20:46:55-04:00*%
%TF.ProjectId,MCVI,4d435649-2e6b-4696-9361-645f70636258,rev?*%
%TF.SameCoordinates,Original*%
%TF.FileFunction,Soldermask,Top*%
%TF.FilePolarity,Negative*%
%FSLAX46Y46*%
G04 Gerber Fmt 4.6, Leading zero omitted, Abs format (unit mm)*
G04 Created by KiCad (PCBNEW 5.1.9-73d0e3b20d~88~ubuntu20.04.1) date 2021-03-31 20:46:55*
%MOMM*%
%LPD*%
G01*
G04 APERTURE LIST*
%ADD10O,2.400000X1.600000*%
%ADD11R,2.400000X1.600000*%
%ADD12C,1.600000*%
%ADD13O,2.200000X2.200000*%
%ADD14R,2.200000X2.200000*%
%ADD15O,1.600000X1.600000*%
%ADD16C,3.200000*%
%ADD17O,1.700000X1.700000*%
%ADD18R,1.700000X1.700000*%
%ADD19R,1.600000X1.600000*%
%ADD20O,2.190000X1.740000*%
%ADD21O,1.727200X1.727200*%
%ADD22R,1.727200X1.727200*%
G04 APERTURE END LIST*
D10*
%TO.C,DAC2*%
X72195000Y-110260000D03*
X64575000Y-117880000D03*
X72195000Y-112800000D03*
X64575000Y-115340000D03*
X72195000Y-115340000D03*
X64575000Y-112800000D03*
X72195000Y-117880000D03*
D11*
X64575000Y-110260000D03*
%TD*%
D12*
%TO.C,C12*%
X76005000Y-86130000D03*
X78505000Y-86130000D03*
%TD*%
D13*
%TO.C,D3*%
X55685000Y-58825000D03*
D14*
X63305000Y-58825000D03*
%TD*%
D12*
%TO.C,C8*%
X60765000Y-93750000D03*
X60765000Y-96250000D03*
%TD*%
D15*
%TO.C,R6*%
X60765000Y-73430000D03*
D12*
X68385000Y-73430000D03*
%TD*%
%TO.C,C5*%
X60765000Y-112760000D03*
X60765000Y-110260000D03*
%TD*%
%TO.C,C9*%
X76005000Y-93750000D03*
X78505000Y-93750000D03*
%TD*%
%TO.C,C13*%
X76005000Y-101370000D03*
X78505000Y-101370000D03*
%TD*%
%TO.C,C4*%
X41715000Y-112760000D03*
X41715000Y-110260000D03*
%TD*%
%TO.C,C7*%
X56955000Y-96290000D03*
X56955000Y-98790000D03*
%TD*%
D16*
%TO.C,H6*%
X82500000Y-67000000D03*
%TD*%
D17*
%TO.C,J2*%
X74860000Y-67500000D03*
X72320000Y-67500000D03*
X69780000Y-67500000D03*
X67240000Y-67500000D03*
X64700000Y-67500000D03*
X62160000Y-67500000D03*
X59620000Y-67500000D03*
X57080000Y-67500000D03*
X54540000Y-67500000D03*
D18*
X52000000Y-67500000D03*
%TD*%
D15*
%TO.C,R4*%
X68385000Y-77875000D03*
D12*
X60765000Y-77875000D03*
%TD*%
%TO.C,C2*%
X46065000Y-51205000D03*
D19*
X48065000Y-51205000D03*
%TD*%
D20*
%TO.C,J3*%
X81720000Y-112800000D03*
X81720000Y-115340000D03*
G36*
G01*
X82565001Y-118750000D02*
X80874999Y-118750000D01*
G75*
G02*
X80625000Y-118500001I0J249999D01*
G01*
X80625000Y-117259999D01*
G75*
G02*
X80874999Y-117010000I249999J0D01*
G01*
X82565001Y-117010000D01*
G75*
G02*
X82815000Y-117259999I0J-249999D01*
G01*
X82815000Y-118500001D01*
G75*
G02*
X82565001Y-118750000I-249999J0D01*
G01*
G37*
%TD*%
D15*
%TO.C,R7*%
X83625000Y-105180000D03*
D12*
X76005000Y-105180000D03*
%TD*%
D15*
%TO.C,R8*%
X83625000Y-89940000D03*
D12*
X76005000Y-89940000D03*
%TD*%
D20*
%TO.C,J4*%
X43620000Y-163600000D03*
G36*
G01*
X42774999Y-160190000D02*
X44465001Y-160190000D01*
G75*
G02*
X44715000Y-160439999I0J-249999D01*
G01*
X44715000Y-161680001D01*
G75*
G02*
X44465001Y-161930000I-249999J0D01*
G01*
X42774999Y-161930000D01*
G75*
G02*
X42525000Y-161680001I0J249999D01*
G01*
X42525000Y-160439999D01*
G75*
G02*
X42774999Y-160190000I249999J0D01*
G01*
G37*
%TD*%
D16*
%TO.C,H5*%
X42500000Y-67000000D03*
%TD*%
D12*
%TO.C,C10*%
X76005000Y-78510000D03*
X78505000Y-78510000D03*
%TD*%
%TO.C,C6*%
X41715000Y-93790000D03*
X41715000Y-96290000D03*
%TD*%
D15*
%TO.C,R9*%
X83625000Y-97560000D03*
D12*
X76005000Y-97560000D03*
%TD*%
D10*
%TO.C,U1*%
X49970000Y-134390000D03*
X42350000Y-142010000D03*
X49970000Y-136930000D03*
X42350000Y-139470000D03*
X49970000Y-139470000D03*
X42350000Y-136930000D03*
X49970000Y-142010000D03*
D11*
X42350000Y-134390000D03*
%TD*%
D15*
%TO.C,A1*%
X75370000Y-166140000D03*
X60130000Y-166140000D03*
X75370000Y-130580000D03*
X60130000Y-163600000D03*
X75370000Y-133120000D03*
X60130000Y-161060000D03*
X75370000Y-135660000D03*
X60130000Y-158520000D03*
X75370000Y-138200000D03*
X60130000Y-155980000D03*
X75370000Y-140740000D03*
X60130000Y-153440000D03*
X75370000Y-143280000D03*
X60130000Y-150900000D03*
X75370000Y-145820000D03*
X60130000Y-148360000D03*
X75370000Y-148360000D03*
X60130000Y-145820000D03*
X75370000Y-150900000D03*
X60130000Y-143280000D03*
X75370000Y-153440000D03*
X60130000Y-140740000D03*
X75370000Y-155980000D03*
X60130000Y-138200000D03*
X75370000Y-158520000D03*
X60130000Y-135660000D03*
X75370000Y-161060000D03*
X60130000Y-133120000D03*
X75370000Y-163600000D03*
D19*
X60130000Y-130580000D03*
%TD*%
D10*
%TO.C,IC2*%
X53145000Y-88670000D03*
X45525000Y-103910000D03*
X53145000Y-91210000D03*
X45525000Y-101370000D03*
X53145000Y-93750000D03*
X45525000Y-98830000D03*
X53145000Y-96290000D03*
X45525000Y-96290000D03*
X53145000Y-98830000D03*
X45525000Y-93750000D03*
X53145000Y-101370000D03*
X45525000Y-91210000D03*
X53145000Y-103910000D03*
D11*
X45525000Y-88670000D03*
%TD*%
D12*
%TO.C,C1*%
X49970000Y-130201000D03*
X47470000Y-130201000D03*
%TD*%
D15*
%TO.C,R3*%
X68385000Y-82320000D03*
D12*
X60765000Y-82320000D03*
%TD*%
D15*
%TO.C,R5*%
X83625000Y-82320000D03*
D12*
X76005000Y-82320000D03*
%TD*%
D15*
%TO.C,R1*%
X42350000Y-154710000D03*
D12*
X42350000Y-147090000D03*
%TD*%
D15*
%TO.C,R2*%
X49970000Y-126135000D03*
D12*
X42350000Y-126135000D03*
%TD*%
D10*
%TO.C,DAC1*%
X53145000Y-110260000D03*
X45525000Y-117880000D03*
X53145000Y-112800000D03*
X45525000Y-115340000D03*
X53145000Y-115340000D03*
X45525000Y-112800000D03*
X53145000Y-117880000D03*
D11*
X45525000Y-110260000D03*
%TD*%
D16*
%TO.C,H1*%
X42500000Y-176000000D03*
%TD*%
D12*
%TO.C,C3*%
X48065000Y-58825000D03*
D19*
X46065000Y-58825000D03*
%TD*%
D15*
%TO.C,D1*%
X53780000Y-147090000D03*
D19*
X46160000Y-147090000D03*
%TD*%
D21*
%TO.C,J1*%
X70925000Y-48665000D03*
X73465000Y-48665000D03*
X70925000Y-51205000D03*
X73465000Y-51205000D03*
X70925000Y-53745000D03*
X73465000Y-53745000D03*
X70925000Y-56285000D03*
X73465000Y-56285000D03*
X70925000Y-58825000D03*
D22*
X73465000Y-58825000D03*
%TD*%
D13*
%TO.C,D2*%
X63305000Y-51205000D03*
D14*
X55685000Y-51205000D03*
%TD*%
D12*
%TO.C,C11*%
X76005000Y-108990000D03*
X78505000Y-108990000D03*
%TD*%
D10*
%TO.C,IC1*%
X72195000Y-88670000D03*
X64575000Y-103910000D03*
X72195000Y-91210000D03*
X64575000Y-101370000D03*
X72195000Y-93750000D03*
X64575000Y-98830000D03*
X72195000Y-96290000D03*
X64575000Y-96290000D03*
X72195000Y-98830000D03*
X64575000Y-93750000D03*
X72195000Y-101370000D03*
X64575000Y-91210000D03*
X72195000Y-103910000D03*
D11*
X64575000Y-88670000D03*
%TD*%
D16*
%TO.C,H2*%
X82500000Y-176000000D03*
%TD*%
M02*
