%TF.GenerationSoftware,KiCad,Pcbnew,5.1.9-73d0e3b20d~88~ubuntu20.04.1*%
%TF.CreationDate,2021-03-06T21:53:08-05:00*%
%TF.ProjectId,MCVI,4d435649-2e6b-4696-9361-645f70636258,rev?*%
%TF.SameCoordinates,Original*%
%TF.FileFunction,Soldermask,Top*%
%TF.FilePolarity,Negative*%
%FSLAX46Y46*%
G04 Gerber Fmt 4.6, Leading zero omitted, Abs format (unit mm)*
G04 Created by KiCad (PCBNEW 5.1.9-73d0e3b20d~88~ubuntu20.04.1) date 2021-03-06 21:53:08*
%MOMM*%
%LPD*%
G01*
G04 APERTURE LIST*
%ADD10C,4.500001*%
%ADD11C,4.500000*%
%ADD12R,4.500001X4.500001*%
%ADD13O,1.600000X1.600000*%
%ADD14C,1.600000*%
%ADD15O,2.190000X1.740000*%
%ADD16C,3.200000*%
%ADD17C,1.800000*%
%ADD18R,1.800000X1.800000*%
%ADD19O,1.700000X1.700000*%
%ADD20R,1.700000X1.700000*%
%ADD21O,2.400000X1.600000*%
%ADD22R,2.400000X1.600000*%
%ADD23R,1.600000X1.600000*%
%ADD24O,2.200000X2.200000*%
%ADD25R,2.200000X2.200000*%
%ADD26O,1.727200X1.727200*%
%ADD27R,1.727200X1.727200*%
G04 APERTURE END LIST*
D10*
%TO.C,J14*%
X157500000Y-135900000D03*
D11*
X148600000Y-127000000D03*
D10*
X161400000Y-130000000D03*
D12*
X150260000Y-134240000D03*
D11*
X154500000Y-123100000D03*
%TD*%
D13*
%TO.C,R9*%
X83625000Y-97560000D03*
D14*
X76005000Y-97560000D03*
%TD*%
D13*
%TO.C,R8*%
X83625000Y-89940000D03*
D14*
X76005000Y-89940000D03*
%TD*%
D13*
%TO.C,R7*%
X83625000Y-105180000D03*
D14*
X76005000Y-105180000D03*
%TD*%
D13*
%TO.C,R5*%
X83625000Y-82320000D03*
D14*
X76005000Y-82320000D03*
%TD*%
D15*
%TO.C,J4*%
X43620000Y-163600000D03*
G36*
G01*
X42774999Y-160190000D02*
X44465001Y-160190000D01*
G75*
G02*
X44715000Y-160439999I0J-249999D01*
G01*
X44715000Y-161680001D01*
G75*
G02*
X44465001Y-161930000I-249999J0D01*
G01*
X42774999Y-161930000D01*
G75*
G02*
X42525000Y-161680001I0J249999D01*
G01*
X42525000Y-160439999D01*
G75*
G02*
X42774999Y-160190000I249999J0D01*
G01*
G37*
%TD*%
%TO.C,J3*%
X81720000Y-112800000D03*
X81720000Y-115340000D03*
G36*
G01*
X82565001Y-118750000D02*
X80874999Y-118750000D01*
G75*
G02*
X80625000Y-118500001I0J249999D01*
G01*
X80625000Y-117259999D01*
G75*
G02*
X80874999Y-117010000I249999J0D01*
G01*
X82565001Y-117010000D01*
G75*
G02*
X82815000Y-117259999I0J-249999D01*
G01*
X82815000Y-118500001D01*
G75*
G02*
X82565001Y-118750000I-249999J0D01*
G01*
G37*
%TD*%
D14*
%TO.C,C13*%
X76005000Y-101370000D03*
X78505000Y-101370000D03*
%TD*%
%TO.C,C12*%
X76005000Y-86130000D03*
X78505000Y-86130000D03*
%TD*%
%TO.C,C11*%
X76005000Y-108990000D03*
X78505000Y-108990000D03*
%TD*%
%TO.C,C10*%
X76005000Y-78510000D03*
X78505000Y-78510000D03*
%TD*%
D16*
%TO.C,REF\u002A\u002A8*%
X162000000Y-176000000D03*
%TD*%
%TO.C,REF\u002A\u002A7*%
X122000000Y-176000000D03*
%TD*%
%TO.C,REF\u002A\u002A5*%
X122000000Y-67000000D03*
%TD*%
%TO.C,REF\u002A\u002A6*%
X162000000Y-67000000D03*
%TD*%
D13*
%TO.C,R18*%
X140120000Y-92000000D03*
D14*
X132500000Y-92000000D03*
%TD*%
D10*
%TO.C,J15*%
X157500000Y-110900000D03*
D11*
X148600000Y-102000000D03*
D10*
X161400000Y-105000000D03*
D12*
X150260000Y-109240000D03*
D11*
X154500000Y-98100000D03*
%TD*%
D10*
%TO.C,J11*%
X131500000Y-135900000D03*
D11*
X122600000Y-127000000D03*
D10*
X135400000Y-130000000D03*
D12*
X124260000Y-134240000D03*
D11*
X128500000Y-123100000D03*
%TD*%
D17*
%TO.C,D8*%
X142000000Y-80740000D03*
D18*
X142000000Y-78200000D03*
%TD*%
D13*
%TO.C,R16*%
X140120000Y-117000000D03*
D14*
X132500000Y-117000000D03*
%TD*%
D17*
%TO.C,D7*%
X142000000Y-105740000D03*
D18*
X142000000Y-103200000D03*
%TD*%
D13*
%TO.C,R11*%
X142880000Y-166000000D03*
D14*
X150500000Y-166000000D03*
%TD*%
D17*
%TO.C,D4*%
X155000000Y-173210000D03*
D18*
X155000000Y-175750000D03*
%TD*%
D13*
%TO.C,R15*%
X142880000Y-117000000D03*
D14*
X150500000Y-117000000D03*
%TD*%
D13*
%TO.C,R13*%
X142880000Y-142000000D03*
D14*
X150500000Y-142000000D03*
%TD*%
D13*
%TO.C,R10*%
X162120000Y-166000000D03*
D14*
X154500000Y-166000000D03*
%TD*%
D17*
%TO.C,D6*%
X142000000Y-130740000D03*
D18*
X142000000Y-128200000D03*
%TD*%
D13*
%TO.C,R17*%
X142880000Y-92000000D03*
D14*
X150500000Y-92000000D03*
%TD*%
D10*
%TO.C,J12*%
X131500000Y-110900000D03*
D11*
X122600000Y-102000000D03*
D10*
X135400000Y-105000000D03*
D12*
X124260000Y-109240000D03*
D11*
X128500000Y-98100000D03*
%TD*%
D10*
%TO.C,J10*%
X131500000Y-160900000D03*
D11*
X122600000Y-152000000D03*
D10*
X135400000Y-155000000D03*
D12*
X124260000Y-159240000D03*
D11*
X128500000Y-148100000D03*
%TD*%
D10*
%TO.C,J16*%
X157500000Y-85900000D03*
D11*
X148600000Y-77000000D03*
D10*
X161400000Y-80000000D03*
D12*
X150260000Y-84240000D03*
D11*
X154500000Y-73100000D03*
%TD*%
D19*
%TO.C,J8*%
X129640000Y-67500000D03*
X132180000Y-67500000D03*
X134720000Y-67500000D03*
X137260000Y-67500000D03*
X139800000Y-67500000D03*
X142340000Y-67500000D03*
X144880000Y-67500000D03*
X147420000Y-67500000D03*
X149960000Y-67500000D03*
D20*
X152500000Y-67500000D03*
%TD*%
D13*
%TO.C,R14*%
X140120000Y-142000000D03*
D14*
X132500000Y-142000000D03*
%TD*%
D17*
%TO.C,D5*%
X142000000Y-155740000D03*
D18*
X142000000Y-153200000D03*
%TD*%
D13*
%TO.C,R12*%
X140140000Y-166000000D03*
D14*
X132520000Y-166000000D03*
%TD*%
D10*
%TO.C,J9*%
X131500000Y-85900000D03*
D11*
X122600000Y-77000000D03*
D10*
X135400000Y-80000000D03*
D12*
X124260000Y-84240000D03*
D11*
X128500000Y-73100000D03*
%TD*%
D10*
%TO.C,J13*%
X157500000Y-160900000D03*
D11*
X148600000Y-152000000D03*
D10*
X161400000Y-155000000D03*
D12*
X150260000Y-159240000D03*
D11*
X154500000Y-148100000D03*
%TD*%
D21*
%TO.C,IC2*%
X53145000Y-88670000D03*
X45525000Y-103910000D03*
X53145000Y-91210000D03*
X45525000Y-101370000D03*
X53145000Y-93750000D03*
X45525000Y-98830000D03*
X53145000Y-96290000D03*
X45525000Y-96290000D03*
X53145000Y-98830000D03*
X45525000Y-93750000D03*
X53145000Y-101370000D03*
X45525000Y-91210000D03*
X53145000Y-103910000D03*
D22*
X45525000Y-88670000D03*
%TD*%
D13*
%TO.C,D1*%
X53780000Y-147090000D03*
D23*
X46160000Y-147090000D03*
%TD*%
D21*
%TO.C,U1*%
X49970000Y-134390000D03*
X42350000Y-142010000D03*
X49970000Y-136930000D03*
X42350000Y-139470000D03*
X49970000Y-139470000D03*
X42350000Y-136930000D03*
X49970000Y-142010000D03*
D22*
X42350000Y-134390000D03*
%TD*%
D16*
%TO.C,REF\u002A\u002A4*%
X82500000Y-176000000D03*
%TD*%
%TO.C,REF\u002A\u002A3*%
X42500000Y-176000000D03*
%TD*%
%TO.C,REF\u002A\u002A2*%
X82500000Y-67000000D03*
%TD*%
%TO.C,REF\u002A\u002A1*%
X42500000Y-67000000D03*
%TD*%
D14*
%TO.C,C4*%
X41715000Y-112760000D03*
X41715000Y-110260000D03*
%TD*%
%TO.C,C5*%
X60765000Y-112760000D03*
X60765000Y-110260000D03*
%TD*%
%TO.C,C8*%
X60765000Y-93750000D03*
X60765000Y-96250000D03*
%TD*%
D21*
%TO.C,IC1*%
X72195000Y-88670000D03*
X64575000Y-103910000D03*
X72195000Y-91210000D03*
X64575000Y-101370000D03*
X72195000Y-93750000D03*
X64575000Y-98830000D03*
X72195000Y-96290000D03*
X64575000Y-96290000D03*
X72195000Y-98830000D03*
X64575000Y-93750000D03*
X72195000Y-101370000D03*
X64575000Y-91210000D03*
X72195000Y-103910000D03*
D22*
X64575000Y-88670000D03*
%TD*%
D14*
%TO.C,C6*%
X41715000Y-93790000D03*
X41715000Y-96290000D03*
%TD*%
D24*
%TO.C,D2*%
X63305000Y-51205000D03*
D25*
X55685000Y-51205000D03*
%TD*%
D13*
%TO.C,R6*%
X60765000Y-73430000D03*
D14*
X68385000Y-73430000D03*
%TD*%
D13*
%TO.C,R4*%
X68385000Y-77875000D03*
D14*
X60765000Y-77875000D03*
%TD*%
%TO.C,C9*%
X76005000Y-93750000D03*
X78505000Y-93750000D03*
%TD*%
%TO.C,C2*%
X46065000Y-51205000D03*
D23*
X48065000Y-51205000D03*
%TD*%
D14*
%TO.C,C7*%
X56955000Y-96290000D03*
X56955000Y-98790000D03*
%TD*%
D26*
%TO.C,J1*%
X70925000Y-48665000D03*
X73465000Y-48665000D03*
X70925000Y-51205000D03*
X73465000Y-51205000D03*
X70925000Y-53745000D03*
X73465000Y-53745000D03*
X70925000Y-56285000D03*
X73465000Y-56285000D03*
X70925000Y-58825000D03*
D27*
X73465000Y-58825000D03*
%TD*%
D13*
%TO.C,R2*%
X49970000Y-126135000D03*
D14*
X42350000Y-126135000D03*
%TD*%
D13*
%TO.C,R3*%
X68385000Y-82320000D03*
D14*
X60765000Y-82320000D03*
%TD*%
D13*
%TO.C,R1*%
X42350000Y-154710000D03*
D14*
X42350000Y-147090000D03*
%TD*%
D19*
%TO.C,J2*%
X74860000Y-67500000D03*
X72320000Y-67500000D03*
X69780000Y-67500000D03*
X67240000Y-67500000D03*
X64700000Y-67500000D03*
X62160000Y-67500000D03*
X59620000Y-67500000D03*
X57080000Y-67500000D03*
X54540000Y-67500000D03*
D20*
X52000000Y-67500000D03*
%TD*%
D24*
%TO.C,D3*%
X55685000Y-58825000D03*
D25*
X63305000Y-58825000D03*
%TD*%
D21*
%TO.C,DAC2*%
X72195000Y-110260000D03*
X64575000Y-117880000D03*
X72195000Y-112800000D03*
X64575000Y-115340000D03*
X72195000Y-115340000D03*
X64575000Y-112800000D03*
X72195000Y-117880000D03*
D22*
X64575000Y-110260000D03*
%TD*%
D21*
%TO.C,DAC1*%
X53145000Y-110260000D03*
X45525000Y-117880000D03*
X53145000Y-112800000D03*
X45525000Y-115340000D03*
X53145000Y-115340000D03*
X45525000Y-112800000D03*
X53145000Y-117880000D03*
D22*
X45525000Y-110260000D03*
%TD*%
D13*
%TO.C,A1*%
X75370000Y-166140000D03*
X60130000Y-166140000D03*
X75370000Y-130580000D03*
X60130000Y-163600000D03*
X75370000Y-133120000D03*
X60130000Y-161060000D03*
X75370000Y-135660000D03*
X60130000Y-158520000D03*
X75370000Y-138200000D03*
X60130000Y-155980000D03*
X75370000Y-140740000D03*
X60130000Y-153440000D03*
X75370000Y-143280000D03*
X60130000Y-150900000D03*
X75370000Y-145820000D03*
X60130000Y-148360000D03*
X75370000Y-148360000D03*
X60130000Y-145820000D03*
X75370000Y-150900000D03*
X60130000Y-143280000D03*
X75370000Y-153440000D03*
X60130000Y-140740000D03*
X75370000Y-155980000D03*
X60130000Y-138200000D03*
X75370000Y-158520000D03*
X60130000Y-135660000D03*
X75370000Y-161060000D03*
X60130000Y-133120000D03*
X75370000Y-163600000D03*
D23*
X60130000Y-130580000D03*
%TD*%
D14*
%TO.C,C1*%
X49970000Y-130201000D03*
X47470000Y-130201000D03*
%TD*%
%TO.C,C3*%
X48065000Y-58825000D03*
D23*
X46065000Y-58825000D03*
%TD*%
M02*
