M48
; DRILL file {KiCad 5.1.9-73d0e3b20d~88~ubuntu20.04.1} date Wed Mar 31 20:47:01 2021
; FORMAT={-:-/ absolute / inch / decimal}
; #@! TF.CreationDate,2021-03-31T20:47:01-04:00
; #@! TF.GenerationSoftware,Kicad,Pcbnew,5.1.9-73d0e3b20d~88~ubuntu20.04.1
; #@! TF.FileFunction,Plated,1,2,PTH
FMAT,2
INCH
T1C0.0157
T2C0.0315
T3C0.0394
T4C0.0400
T5C0.0433
T6C0.0469
%
G90
G05
T1
X2.037Y-4.034
X2.4624Y-6.1071
T2
X1.6423Y-3.6925
X1.6423Y-3.7909
X1.6423Y-4.3409
X1.6423Y-4.4394
X1.6673Y-4.9659
X1.6673Y-5.2909
X1.6673Y-5.3909
X1.6673Y-5.4909
X1.6673Y-5.5909
X1.6673Y-5.7909
X1.6673Y-6.0909
X1.7923Y-3.4909
X1.7923Y-3.5909
X1.7923Y-3.6909
X1.7923Y-3.7909
X1.7923Y-3.8909
X1.7923Y-3.9909
X1.7923Y-4.0909
X1.7923Y-4.3409
X1.7923Y-4.4409
X1.7923Y-4.5409
X1.7923Y-4.6409
X1.8136Y-2.0159
X1.8136Y-2.3159
X1.8173Y-5.7909
X1.8689Y-5.126
X1.8923Y-2.0159
X1.8923Y-2.3159
X1.9673Y-4.9659
X1.9673Y-5.126
X1.9673Y-5.2909
X1.9673Y-5.3909
X1.9673Y-5.4909
X1.9673Y-5.5909
X2.0923Y-3.4909
X2.0923Y-3.5909
X2.0923Y-3.6909
X2.0923Y-3.7909
X2.0923Y-3.8909
X2.0923Y-3.9909
X2.0923Y-4.0909
X2.0923Y-4.3409
X2.0923Y-4.4409
X2.0923Y-4.5409
X2.0923Y-4.6409
X2.1173Y-5.7909
X2.2423Y-3.7909
X2.2423Y-3.8894
X2.3673Y-5.1409
X2.3673Y-5.2409
X2.3673Y-5.3409
X2.3673Y-5.4409
X2.3673Y-5.5409
X2.3673Y-5.6409
X2.3673Y-5.7409
X2.3673Y-5.8409
X2.3673Y-5.9409
X2.3673Y-6.0409
X2.3673Y-6.1409
X2.3673Y-6.2409
X2.3673Y-6.3409
X2.3673Y-6.4409
X2.3673Y-6.5409
X2.3923Y-2.8909
X2.3923Y-3.0659
X2.3923Y-3.2409
X2.3923Y-3.6909
X2.3923Y-3.7894
X2.3923Y-4.3409
X2.3923Y-4.4394
X2.5423Y-3.4909
X2.5423Y-3.5909
X2.5423Y-3.6909
X2.5423Y-3.7909
X2.5423Y-3.8909
X2.5423Y-3.9909
X2.5423Y-4.0909
X2.5423Y-4.3409
X2.5423Y-4.4409
X2.5423Y-4.5409
X2.5423Y-4.6409
X2.6923Y-2.8909
X2.6923Y-3.0659
X2.6923Y-3.2409
X2.8423Y-3.4909
X2.8423Y-3.5909
X2.8423Y-3.6909
X2.8423Y-3.7909
X2.8423Y-3.8909
X2.8423Y-3.9909
X2.8423Y-4.0909
X2.8423Y-4.3409
X2.8423Y-4.4409
X2.8423Y-4.5409
X2.8423Y-4.6409
X2.9673Y-5.1409
X2.9673Y-5.2409
X2.9673Y-5.3409
X2.9673Y-5.4409
X2.9673Y-5.5409
X2.9673Y-5.6409
X2.9673Y-5.7409
X2.9673Y-5.8409
X2.9673Y-5.9409
X2.9673Y-6.0409
X2.9673Y-6.1409
X2.9673Y-6.2409
X2.9673Y-6.3409
X2.9673Y-6.4409
X2.9673Y-6.5409
X2.9923Y-3.0909
X2.9923Y-3.2409
X2.9923Y-3.3909
X2.9923Y-3.5409
X2.9923Y-3.6909
X2.9923Y-3.8409
X2.9923Y-3.9909
X2.9923Y-4.1409
X2.9923Y-4.2909
X3.0907Y-3.0909
X3.0907Y-3.3909
X3.0907Y-3.6909
X3.0907Y-3.9909
X3.0907Y-4.2909
X3.2923Y-3.2409
X3.2923Y-3.5409
X3.2923Y-3.8409
X3.2923Y-4.1409
T3
X2.0472Y-2.6575
X2.1472Y-2.6575
X2.2472Y-2.6575
X2.3472Y-2.6575
X2.4472Y-2.6575
X2.5472Y-2.6575
X2.6472Y-2.6575
X2.7472Y-2.6575
X2.8472Y-2.6575
X2.9472Y-2.6575
T4
X2.7923Y-1.9159
X2.7923Y-2.0159
X2.7923Y-2.1159
X2.7923Y-2.2159
X2.7923Y-2.3159
X2.8923Y-1.9159
X2.8923Y-2.0159
X2.8923Y-2.1159
X2.8923Y-2.2159
X2.8923Y-2.3159
T5
X2.1923Y-2.0159
X2.1923Y-2.3159
X2.4923Y-2.0159
X2.4923Y-2.3159
T6
X1.7173Y-6.3409
X1.7173Y-6.4409
X3.2173Y-4.4409
X3.2173Y-4.5409
X3.2173Y-4.6409
T0
M30
