%TF.GenerationSoftware,KiCad,Pcbnew,5.1.9-73d0e3b20d~88~ubuntu20.04.1*%
%TF.CreationDate,2021-03-06T16:45:59-05:00*%
%TF.ProjectId,MCVI,4d435649-2e6b-4696-9361-645f70636258,rev?*%
%TF.SameCoordinates,Original*%
%TF.FileFunction,Legend,Top*%
%TF.FilePolarity,Positive*%
%FSLAX46Y46*%
G04 Gerber Fmt 4.6, Leading zero omitted, Abs format (unit mm)*
G04 Created by KiCad (PCBNEW 5.1.9-73d0e3b20d~88~ubuntu20.04.1) date 2021-03-06 16:45:59*
%MOMM*%
%LPD*%
G01*
G04 APERTURE LIST*
%ADD10C,0.150000*%
%ADD11C,0.600000*%
%ADD12C,0.120000*%
%ADD13C,0.010000*%
G04 APERTURE END LIST*
D10*
X128335595Y-65452380D02*
X128335595Y-64452380D01*
X128668928Y-65166666D01*
X129002261Y-64452380D01*
X129002261Y-65452380D01*
X130049880Y-65357142D02*
X130002261Y-65404761D01*
X129859404Y-65452380D01*
X129764166Y-65452380D01*
X129621309Y-65404761D01*
X129526071Y-65309523D01*
X129478452Y-65214285D01*
X129430833Y-65023809D01*
X129430833Y-64880952D01*
X129478452Y-64690476D01*
X129526071Y-64595238D01*
X129621309Y-64500000D01*
X129764166Y-64452380D01*
X129859404Y-64452380D01*
X130002261Y-64500000D01*
X130049880Y-64547619D01*
X130335595Y-64452380D02*
X130668928Y-65452380D01*
X131002261Y-64452380D01*
X131335595Y-65452380D02*
X131335595Y-64452380D01*
X132573690Y-64785714D02*
X132573690Y-65642857D01*
X132526071Y-65738095D01*
X132430833Y-65785714D01*
X132383214Y-65785714D01*
X132573690Y-64452380D02*
X132526071Y-64500000D01*
X132573690Y-64547619D01*
X132621309Y-64500000D01*
X132573690Y-64452380D01*
X132573690Y-64547619D01*
X133478452Y-65452380D02*
X133478452Y-64928571D01*
X133430833Y-64833333D01*
X133335595Y-64785714D01*
X133145119Y-64785714D01*
X133049880Y-64833333D01*
X133478452Y-65404761D02*
X133383214Y-65452380D01*
X133145119Y-65452380D01*
X133049880Y-65404761D01*
X133002261Y-65309523D01*
X133002261Y-65214285D01*
X133049880Y-65119047D01*
X133145119Y-65071428D01*
X133383214Y-65071428D01*
X133478452Y-65023809D01*
X134383214Y-65404761D02*
X134287976Y-65452380D01*
X134097500Y-65452380D01*
X134002261Y-65404761D01*
X133954642Y-65357142D01*
X133907023Y-65261904D01*
X133907023Y-64976190D01*
X133954642Y-64880952D01*
X134002261Y-64833333D01*
X134097500Y-64785714D01*
X134287976Y-64785714D01*
X134383214Y-64833333D01*
X134811785Y-65452380D02*
X134811785Y-64452380D01*
X134907023Y-65071428D02*
X135192738Y-65452380D01*
X135192738Y-64785714D02*
X134811785Y-65166666D01*
X135573690Y-65404761D02*
X135668928Y-65452380D01*
X135859404Y-65452380D01*
X135954642Y-65404761D01*
X136002261Y-65309523D01*
X136002261Y-65261904D01*
X135954642Y-65166666D01*
X135859404Y-65119047D01*
X135716547Y-65119047D01*
X135621309Y-65071428D01*
X135573690Y-64976190D01*
X135573690Y-64928571D01*
X135621309Y-64833333D01*
X135716547Y-64785714D01*
X135859404Y-64785714D01*
X135954642Y-64833333D01*
X137145119Y-64404761D02*
X136287976Y-65690476D01*
X137954642Y-65452380D02*
X137478452Y-65452380D01*
X137478452Y-64452380D01*
X138287976Y-64928571D02*
X138621309Y-64928571D01*
X138764166Y-65452380D02*
X138287976Y-65452380D01*
X138287976Y-64452380D01*
X138764166Y-64452380D01*
X139192738Y-65452380D02*
X139192738Y-64452380D01*
X139430833Y-64452380D01*
X139573690Y-64500000D01*
X139668928Y-64595238D01*
X139716547Y-64690476D01*
X139764166Y-64880952D01*
X139764166Y-65023809D01*
X139716547Y-65214285D01*
X139668928Y-65309523D01*
X139573690Y-65404761D01*
X139430833Y-65452380D01*
X139192738Y-65452380D01*
X140145119Y-65404761D02*
X140240357Y-65452380D01*
X140430833Y-65452380D01*
X140526071Y-65404761D01*
X140573690Y-65309523D01*
X140573690Y-65261904D01*
X140526071Y-65166666D01*
X140430833Y-65119047D01*
X140287976Y-65119047D01*
X140192738Y-65071428D01*
X140145119Y-64976190D01*
X140145119Y-64928571D01*
X140192738Y-64833333D01*
X140287976Y-64785714D01*
X140430833Y-64785714D01*
X140526071Y-64833333D01*
X141764166Y-65452380D02*
X141764166Y-64452380D01*
X141764166Y-64833333D02*
X141859404Y-64785714D01*
X142049880Y-64785714D01*
X142145119Y-64833333D01*
X142192738Y-64880952D01*
X142240357Y-64976190D01*
X142240357Y-65261904D01*
X142192738Y-65357142D01*
X142145119Y-65404761D01*
X142049880Y-65452380D01*
X141859404Y-65452380D01*
X141764166Y-65404761D01*
X142811785Y-65452380D02*
X142716547Y-65404761D01*
X142668928Y-65357142D01*
X142621309Y-65261904D01*
X142621309Y-64976190D01*
X142668928Y-64880952D01*
X142716547Y-64833333D01*
X142811785Y-64785714D01*
X142954642Y-64785714D01*
X143049880Y-64833333D01*
X143097500Y-64880952D01*
X143145119Y-64976190D01*
X143145119Y-65261904D01*
X143097500Y-65357142D01*
X143049880Y-65404761D01*
X142954642Y-65452380D01*
X142811785Y-65452380D01*
X144002261Y-65452380D02*
X144002261Y-64928571D01*
X143954642Y-64833333D01*
X143859404Y-64785714D01*
X143668928Y-64785714D01*
X143573690Y-64833333D01*
X144002261Y-65404761D02*
X143907023Y-65452380D01*
X143668928Y-65452380D01*
X143573690Y-65404761D01*
X143526071Y-65309523D01*
X143526071Y-65214285D01*
X143573690Y-65119047D01*
X143668928Y-65071428D01*
X143907023Y-65071428D01*
X144002261Y-65023809D01*
X144478452Y-65452380D02*
X144478452Y-64785714D01*
X144478452Y-64976190D02*
X144526071Y-64880952D01*
X144573690Y-64833333D01*
X144668928Y-64785714D01*
X144764166Y-64785714D01*
X145526071Y-65452380D02*
X145526071Y-64452380D01*
X145526071Y-65404761D02*
X145430833Y-65452380D01*
X145240357Y-65452380D01*
X145145119Y-65404761D01*
X145097500Y-65357142D01*
X145049880Y-65261904D01*
X145049880Y-64976190D01*
X145097500Y-64880952D01*
X145145119Y-64833333D01*
X145240357Y-64785714D01*
X145430833Y-64785714D01*
X145526071Y-64833333D01*
X42335595Y-44702380D02*
X42335595Y-43702380D01*
X42668928Y-44416666D01*
X43002261Y-43702380D01*
X43002261Y-44702380D01*
X44049880Y-44607142D02*
X44002261Y-44654761D01*
X43859404Y-44702380D01*
X43764166Y-44702380D01*
X43621309Y-44654761D01*
X43526071Y-44559523D01*
X43478452Y-44464285D01*
X43430833Y-44273809D01*
X43430833Y-44130952D01*
X43478452Y-43940476D01*
X43526071Y-43845238D01*
X43621309Y-43750000D01*
X43764166Y-43702380D01*
X43859404Y-43702380D01*
X44002261Y-43750000D01*
X44049880Y-43797619D01*
X44335595Y-43702380D02*
X44668928Y-44702380D01*
X45002261Y-43702380D01*
X45335595Y-44702380D02*
X45335595Y-43702380D01*
X46573690Y-44702380D02*
X46573690Y-44035714D01*
X46573690Y-44130952D02*
X46621309Y-44083333D01*
X46716547Y-44035714D01*
X46859404Y-44035714D01*
X46954642Y-44083333D01*
X47002261Y-44178571D01*
X47002261Y-44702380D01*
X47002261Y-44178571D02*
X47049880Y-44083333D01*
X47145119Y-44035714D01*
X47287976Y-44035714D01*
X47383214Y-44083333D01*
X47430833Y-44178571D01*
X47430833Y-44702380D01*
X48335595Y-44702380D02*
X48335595Y-44178571D01*
X48287976Y-44083333D01*
X48192738Y-44035714D01*
X48002261Y-44035714D01*
X47907023Y-44083333D01*
X48335595Y-44654761D02*
X48240357Y-44702380D01*
X48002261Y-44702380D01*
X47907023Y-44654761D01*
X47859404Y-44559523D01*
X47859404Y-44464285D01*
X47907023Y-44369047D01*
X48002261Y-44321428D01*
X48240357Y-44321428D01*
X48335595Y-44273809D01*
X48811785Y-44702380D02*
X48811785Y-44035714D01*
X48811785Y-43702380D02*
X48764166Y-43750000D01*
X48811785Y-43797619D01*
X48859404Y-43750000D01*
X48811785Y-43702380D01*
X48811785Y-43797619D01*
X49287976Y-44035714D02*
X49287976Y-44702380D01*
X49287976Y-44130952D02*
X49335595Y-44083333D01*
X49430833Y-44035714D01*
X49573690Y-44035714D01*
X49668928Y-44083333D01*
X49716547Y-44178571D01*
X49716547Y-44702380D01*
X50954642Y-44702380D02*
X50954642Y-43702380D01*
X50954642Y-44083333D02*
X51049880Y-44035714D01*
X51240357Y-44035714D01*
X51335595Y-44083333D01*
X51383214Y-44130952D01*
X51430833Y-44226190D01*
X51430833Y-44511904D01*
X51383214Y-44607142D01*
X51335595Y-44654761D01*
X51240357Y-44702380D01*
X51049880Y-44702380D01*
X50954642Y-44654761D01*
X52002261Y-44702380D02*
X51907023Y-44654761D01*
X51859404Y-44607142D01*
X51811785Y-44511904D01*
X51811785Y-44226190D01*
X51859404Y-44130952D01*
X51907023Y-44083333D01*
X52002261Y-44035714D01*
X52145119Y-44035714D01*
X52240357Y-44083333D01*
X52287976Y-44130952D01*
X52335595Y-44226190D01*
X52335595Y-44511904D01*
X52287976Y-44607142D01*
X52240357Y-44654761D01*
X52145119Y-44702380D01*
X52002261Y-44702380D01*
X53192738Y-44702380D02*
X53192738Y-44178571D01*
X53145119Y-44083333D01*
X53049880Y-44035714D01*
X52859404Y-44035714D01*
X52764166Y-44083333D01*
X53192738Y-44654761D02*
X53097500Y-44702380D01*
X52859404Y-44702380D01*
X52764166Y-44654761D01*
X52716547Y-44559523D01*
X52716547Y-44464285D01*
X52764166Y-44369047D01*
X52859404Y-44321428D01*
X53097500Y-44321428D01*
X53192738Y-44273809D01*
X53668928Y-44702380D02*
X53668928Y-44035714D01*
X53668928Y-44226190D02*
X53716547Y-44130952D01*
X53764166Y-44083333D01*
X53859404Y-44035714D01*
X53954642Y-44035714D01*
X54716547Y-44702380D02*
X54716547Y-43702380D01*
X54716547Y-44654761D02*
X54621309Y-44702380D01*
X54430833Y-44702380D01*
X54335595Y-44654761D01*
X54287976Y-44607142D01*
X54240357Y-44511904D01*
X54240357Y-44226190D01*
X54287976Y-44130952D01*
X54335595Y-44083333D01*
X54430833Y-44035714D01*
X54621309Y-44035714D01*
X54716547Y-44083333D01*
D11*
X42250000Y-172059523D02*
X42250000Y-168059523D01*
X43583333Y-170916666D01*
X44916666Y-168059523D01*
X44916666Y-172059523D01*
X49107142Y-171678571D02*
X48916666Y-171869047D01*
X48345238Y-172059523D01*
X47964285Y-172059523D01*
X47392857Y-171869047D01*
X47011904Y-171488095D01*
X46821428Y-171107142D01*
X46630952Y-170345238D01*
X46630952Y-169773809D01*
X46821428Y-169011904D01*
X47011904Y-168630952D01*
X47392857Y-168250000D01*
X47964285Y-168059523D01*
X48345238Y-168059523D01*
X48916666Y-168250000D01*
X49107142Y-168440476D01*
X50250000Y-168059523D02*
X51583333Y-172059523D01*
X52916666Y-168059523D01*
X54250000Y-172059523D02*
X54250000Y-168059523D01*
D10*
X75630000Y-118311428D02*
X75594285Y-118373333D01*
X75594285Y-118466190D01*
X75630000Y-118559047D01*
X75701428Y-118620952D01*
X75772857Y-118651904D01*
X75915714Y-118682857D01*
X76022857Y-118682857D01*
X76165714Y-118651904D01*
X76237142Y-118620952D01*
X76308571Y-118559047D01*
X76344285Y-118466190D01*
X76344285Y-118404285D01*
X76308571Y-118311428D01*
X76272857Y-118280476D01*
X76022857Y-118280476D01*
X76022857Y-118404285D01*
X76344285Y-118001904D02*
X75594285Y-118001904D01*
X76344285Y-117630476D01*
X75594285Y-117630476D01*
X76344285Y-117320952D02*
X75594285Y-117320952D01*
X75594285Y-117166190D01*
X75630000Y-117073333D01*
X75701428Y-117011428D01*
X75772857Y-116980476D01*
X75915714Y-116949523D01*
X76022857Y-116949523D01*
X76165714Y-116980476D01*
X76237142Y-117011428D01*
X76308571Y-117073333D01*
X76344285Y-117166190D01*
X76344285Y-117320952D01*
X76308571Y-116206666D02*
X76344285Y-116113809D01*
X76344285Y-115959047D01*
X76308571Y-115897142D01*
X76272857Y-115866190D01*
X76201428Y-115835238D01*
X76130000Y-115835238D01*
X76058571Y-115866190D01*
X76022857Y-115897142D01*
X75987142Y-115959047D01*
X75951428Y-116082857D01*
X75915714Y-116144761D01*
X75880000Y-116175714D01*
X75808571Y-116206666D01*
X75737142Y-116206666D01*
X75665714Y-116175714D01*
X75630000Y-116144761D01*
X75594285Y-116082857D01*
X75594285Y-115928095D01*
X75630000Y-115835238D01*
X75594285Y-115618571D02*
X76344285Y-115463809D01*
X75808571Y-115340000D01*
X76344285Y-115216190D01*
X75594285Y-115061428D01*
X76344285Y-114473333D02*
X76344285Y-114844761D01*
X76344285Y-114659047D02*
X75594285Y-114659047D01*
X75701428Y-114720952D01*
X75772857Y-114782857D01*
X75808571Y-114844761D01*
X76308571Y-113730476D02*
X76344285Y-113637619D01*
X76344285Y-113482857D01*
X76308571Y-113420952D01*
X76272857Y-113390000D01*
X76201428Y-113359047D01*
X76130000Y-113359047D01*
X76058571Y-113390000D01*
X76022857Y-113420952D01*
X75987142Y-113482857D01*
X75951428Y-113606666D01*
X75915714Y-113668571D01*
X75880000Y-113699523D01*
X75808571Y-113730476D01*
X75737142Y-113730476D01*
X75665714Y-113699523D01*
X75630000Y-113668571D01*
X75594285Y-113606666D01*
X75594285Y-113451904D01*
X75630000Y-113359047D01*
X75594285Y-113142380D02*
X76344285Y-112987619D01*
X75808571Y-112863809D01*
X76344285Y-112740000D01*
X75594285Y-112585238D01*
X75594285Y-112399523D02*
X75594285Y-111997142D01*
X75880000Y-112213809D01*
X75880000Y-112120952D01*
X75915714Y-112059047D01*
X75951428Y-112028095D01*
X76022857Y-111997142D01*
X76201428Y-111997142D01*
X76272857Y-112028095D01*
X76308571Y-112059047D01*
X76344285Y-112120952D01*
X76344285Y-112306666D01*
X76308571Y-112368571D01*
X76272857Y-112399523D01*
D12*
X57514285Y-175582857D02*
X57514285Y-174382857D01*
X57914285Y-175240000D01*
X58314285Y-174382857D01*
X58314285Y-175582857D01*
X58885714Y-175582857D02*
X58885714Y-174382857D01*
X59457142Y-175582857D02*
X59457142Y-174382857D01*
X59742857Y-174382857D01*
X59914285Y-174440000D01*
X60028571Y-174554285D01*
X60085714Y-174668571D01*
X60142857Y-174897142D01*
X60142857Y-175068571D01*
X60085714Y-175297142D01*
X60028571Y-175411428D01*
X59914285Y-175525714D01*
X59742857Y-175582857D01*
X59457142Y-175582857D01*
X60657142Y-175582857D02*
X60657142Y-174382857D01*
X61971428Y-174782857D02*
X62428571Y-174782857D01*
X62142857Y-174382857D02*
X62142857Y-175411428D01*
X62200000Y-175525714D01*
X62314285Y-175582857D01*
X62428571Y-175582857D01*
X63000000Y-175582857D02*
X62885714Y-175525714D01*
X62828571Y-175468571D01*
X62771428Y-175354285D01*
X62771428Y-175011428D01*
X62828571Y-174897142D01*
X62885714Y-174840000D01*
X63000000Y-174782857D01*
X63171428Y-174782857D01*
X63285714Y-174840000D01*
X63342857Y-174897142D01*
X63400000Y-175011428D01*
X63400000Y-175354285D01*
X63342857Y-175468571D01*
X63285714Y-175525714D01*
X63171428Y-175582857D01*
X63000000Y-175582857D01*
X65514285Y-175468571D02*
X65457142Y-175525714D01*
X65285714Y-175582857D01*
X65171428Y-175582857D01*
X65000000Y-175525714D01*
X64885714Y-175411428D01*
X64828571Y-175297142D01*
X64771428Y-175068571D01*
X64771428Y-174897142D01*
X64828571Y-174668571D01*
X64885714Y-174554285D01*
X65000000Y-174440000D01*
X65171428Y-174382857D01*
X65285714Y-174382857D01*
X65457142Y-174440000D01*
X65514285Y-174497142D01*
X65857142Y-174382857D02*
X66257142Y-175582857D01*
X66657142Y-174382857D01*
X51400000Y-177502857D02*
X51000000Y-176931428D01*
X50714285Y-177502857D02*
X50714285Y-176302857D01*
X51171428Y-176302857D01*
X51285714Y-176360000D01*
X51342857Y-176417142D01*
X51400000Y-176531428D01*
X51400000Y-176702857D01*
X51342857Y-176817142D01*
X51285714Y-176874285D01*
X51171428Y-176931428D01*
X50714285Y-176931428D01*
X51914285Y-177502857D02*
X51914285Y-176702857D01*
X51914285Y-176302857D02*
X51857142Y-176360000D01*
X51914285Y-176417142D01*
X51971428Y-176360000D01*
X51914285Y-176302857D01*
X51914285Y-176417142D01*
X53000000Y-177445714D02*
X52885714Y-177502857D01*
X52657142Y-177502857D01*
X52542857Y-177445714D01*
X52485714Y-177388571D01*
X52428571Y-177274285D01*
X52428571Y-176931428D01*
X52485714Y-176817142D01*
X52542857Y-176760000D01*
X52657142Y-176702857D01*
X52885714Y-176702857D01*
X53000000Y-176760000D01*
X53514285Y-177502857D02*
X53514285Y-176302857D01*
X54028571Y-177502857D02*
X54028571Y-176874285D01*
X53971428Y-176760000D01*
X53857142Y-176702857D01*
X53685714Y-176702857D01*
X53571428Y-176760000D01*
X53514285Y-176817142D01*
X55514285Y-177502857D02*
X55514285Y-176302857D01*
X55514285Y-176874285D02*
X56200000Y-176874285D01*
X56200000Y-177502857D02*
X56200000Y-176302857D01*
X56942857Y-177502857D02*
X56828571Y-177445714D01*
X56771428Y-177388571D01*
X56714285Y-177274285D01*
X56714285Y-176931428D01*
X56771428Y-176817142D01*
X56828571Y-176760000D01*
X56942857Y-176702857D01*
X57114285Y-176702857D01*
X57228571Y-176760000D01*
X57285714Y-176817142D01*
X57342857Y-176931428D01*
X57342857Y-177274285D01*
X57285714Y-177388571D01*
X57228571Y-177445714D01*
X57114285Y-177502857D01*
X56942857Y-177502857D01*
X58028571Y-177502857D02*
X57914285Y-177445714D01*
X57857142Y-177331428D01*
X57857142Y-176302857D01*
X58485714Y-177502857D02*
X58485714Y-176702857D01*
X58485714Y-176817142D02*
X58542857Y-176760000D01*
X58657142Y-176702857D01*
X58828571Y-176702857D01*
X58942857Y-176760000D01*
X59000000Y-176874285D01*
X59000000Y-177502857D01*
X59000000Y-176874285D02*
X59057142Y-176760000D01*
X59171428Y-176702857D01*
X59342857Y-176702857D01*
X59457142Y-176760000D01*
X59514285Y-176874285D01*
X59514285Y-177502857D01*
X60542857Y-177445714D02*
X60428571Y-177502857D01*
X60200000Y-177502857D01*
X60085714Y-177445714D01*
X60028571Y-177331428D01*
X60028571Y-176874285D01*
X60085714Y-176760000D01*
X60200000Y-176702857D01*
X60428571Y-176702857D01*
X60542857Y-176760000D01*
X60600000Y-176874285D01*
X60600000Y-176988571D01*
X60028571Y-177102857D01*
X61057142Y-177445714D02*
X61171428Y-177502857D01*
X61400000Y-177502857D01*
X61514285Y-177445714D01*
X61571428Y-177331428D01*
X61571428Y-177274285D01*
X61514285Y-177160000D01*
X61400000Y-177102857D01*
X61228571Y-177102857D01*
X61114285Y-177045714D01*
X61057142Y-176931428D01*
X61057142Y-176874285D01*
X61114285Y-176760000D01*
X61228571Y-176702857D01*
X61400000Y-176702857D01*
X61514285Y-176760000D01*
X63857142Y-176245714D02*
X62828571Y-177788571D01*
X65171428Y-177502857D02*
X65171428Y-176302857D01*
X65571428Y-177160000D01*
X65971428Y-176302857D01*
X65971428Y-177502857D01*
X67057142Y-177502857D02*
X67057142Y-176874285D01*
X67000000Y-176760000D01*
X66885714Y-176702857D01*
X66657142Y-176702857D01*
X66542857Y-176760000D01*
X67057142Y-177445714D02*
X66942857Y-177502857D01*
X66657142Y-177502857D01*
X66542857Y-177445714D01*
X66485714Y-177331428D01*
X66485714Y-177217142D01*
X66542857Y-177102857D01*
X66657142Y-177045714D01*
X66942857Y-177045714D01*
X67057142Y-176988571D01*
X67628571Y-177502857D02*
X67628571Y-176702857D01*
X67628571Y-176931428D02*
X67685714Y-176817142D01*
X67742857Y-176760000D01*
X67857142Y-176702857D01*
X67971428Y-176702857D01*
X69228571Y-176417142D02*
X69285714Y-176360000D01*
X69400000Y-176302857D01*
X69685714Y-176302857D01*
X69800000Y-176360000D01*
X69857142Y-176417142D01*
X69914285Y-176531428D01*
X69914285Y-176645714D01*
X69857142Y-176817142D01*
X69171428Y-177502857D01*
X69914285Y-177502857D01*
X70657142Y-176302857D02*
X70771428Y-176302857D01*
X70885714Y-176360000D01*
X70942857Y-176417142D01*
X71000000Y-176531428D01*
X71057142Y-176760000D01*
X71057142Y-177045714D01*
X71000000Y-177274285D01*
X70942857Y-177388571D01*
X70885714Y-177445714D01*
X70771428Y-177502857D01*
X70657142Y-177502857D01*
X70542857Y-177445714D01*
X70485714Y-177388571D01*
X70428571Y-177274285D01*
X70371428Y-177045714D01*
X70371428Y-176760000D01*
X70428571Y-176531428D01*
X70485714Y-176417142D01*
X70542857Y-176360000D01*
X70657142Y-176302857D01*
X71514285Y-176417142D02*
X71571428Y-176360000D01*
X71685714Y-176302857D01*
X71971428Y-176302857D01*
X72085714Y-176360000D01*
X72142857Y-176417142D01*
X72200000Y-176531428D01*
X72200000Y-176645714D01*
X72142857Y-176817142D01*
X71457142Y-177502857D01*
X72200000Y-177502857D01*
X73342857Y-177502857D02*
X72657142Y-177502857D01*
X73000000Y-177502857D02*
X73000000Y-176302857D01*
X72885714Y-176474285D01*
X72771428Y-176588571D01*
X72657142Y-176645714D01*
D10*
X49702380Y-165654761D02*
X48702380Y-165654761D01*
X49416666Y-165321428D01*
X48702380Y-164988095D01*
X49702380Y-164988095D01*
X49702380Y-164511904D02*
X48702380Y-164511904D01*
X49702380Y-164035714D02*
X48702380Y-164035714D01*
X48702380Y-163797619D01*
X48750000Y-163654761D01*
X48845238Y-163559523D01*
X48940476Y-163511904D01*
X49130952Y-163464285D01*
X49273809Y-163464285D01*
X49464285Y-163511904D01*
X49559523Y-163559523D01*
X49654761Y-163654761D01*
X49702380Y-163797619D01*
X49702380Y-164035714D01*
X49702380Y-163035714D02*
X48702380Y-163035714D01*
X48702380Y-160559523D02*
X48702380Y-161035714D01*
X49178571Y-161083333D01*
X49130952Y-161035714D01*
X49083333Y-160940476D01*
X49083333Y-160702380D01*
X49130952Y-160607142D01*
X49178571Y-160559523D01*
X49273809Y-160511904D01*
X49511904Y-160511904D01*
X49607142Y-160559523D01*
X49654761Y-160607142D01*
X49702380Y-160702380D01*
X49702380Y-160940476D01*
X49654761Y-161035714D01*
X49607142Y-161083333D01*
X49035714Y-158892857D02*
X49702380Y-158892857D01*
X48654761Y-159130952D02*
X49369047Y-159369047D01*
X49369047Y-158750000D01*
D12*
%TO.C,J14*%
X149150000Y-137350000D02*
X147150000Y-134850000D01*
X147150000Y-121600000D02*
X162900000Y-121600000D01*
X162900000Y-121600000D02*
X162900000Y-137350000D01*
X149200000Y-137350000D02*
X149150000Y-137350000D01*
X162900000Y-137350000D02*
X149200000Y-137350000D01*
X147150000Y-134850000D02*
X147150000Y-121600000D01*
%TO.C,R9*%
X83085000Y-98930000D02*
X83085000Y-98600000D01*
X76545000Y-98930000D02*
X83085000Y-98930000D01*
X76545000Y-98600000D02*
X76545000Y-98930000D01*
X83085000Y-96190000D02*
X83085000Y-96520000D01*
X76545000Y-96190000D02*
X83085000Y-96190000D01*
X76545000Y-96520000D02*
X76545000Y-96190000D01*
%TO.C,R8*%
X83085000Y-91310000D02*
X83085000Y-90980000D01*
X76545000Y-91310000D02*
X83085000Y-91310000D01*
X76545000Y-90980000D02*
X76545000Y-91310000D01*
X83085000Y-88570000D02*
X83085000Y-88900000D01*
X76545000Y-88570000D02*
X83085000Y-88570000D01*
X76545000Y-88900000D02*
X76545000Y-88570000D01*
%TO.C,R7*%
X83085000Y-106550000D02*
X83085000Y-106220000D01*
X76545000Y-106550000D02*
X83085000Y-106550000D01*
X76545000Y-106220000D02*
X76545000Y-106550000D01*
X83085000Y-103810000D02*
X83085000Y-104140000D01*
X76545000Y-103810000D02*
X83085000Y-103810000D01*
X76545000Y-104140000D02*
X76545000Y-103810000D01*
%TO.C,R5*%
X83085000Y-83690000D02*
X83085000Y-83360000D01*
X76545000Y-83690000D02*
X83085000Y-83690000D01*
X76545000Y-83360000D02*
X76545000Y-83690000D01*
X83085000Y-80950000D02*
X83085000Y-81280000D01*
X76545000Y-80950000D02*
X83085000Y-80950000D01*
X76545000Y-81280000D02*
X76545000Y-80950000D01*
%TO.C,J4*%
X46650000Y-159680000D02*
X40630000Y-159680000D01*
X40630000Y-159680000D02*
X40630000Y-164980000D01*
X40630000Y-164980000D02*
X46650000Y-164980000D01*
X46650000Y-164980000D02*
X46650000Y-159680000D01*
X45620000Y-159390000D02*
X41620000Y-159390000D01*
X40630000Y-161060000D02*
X41630000Y-161060000D01*
X41630000Y-161060000D02*
X41630000Y-163600000D01*
X41630000Y-163600000D02*
X40630000Y-163600000D01*
X41630000Y-161060000D02*
X42160000Y-161310000D01*
X42160000Y-161310000D02*
X42160000Y-163350000D01*
X42160000Y-163350000D02*
X41630000Y-163600000D01*
X40630000Y-161310000D02*
X41630000Y-161310000D01*
X40630000Y-163350000D02*
X41630000Y-163350000D01*
X46650000Y-160260000D02*
X46050000Y-160260000D01*
X46050000Y-160260000D02*
X46050000Y-161860000D01*
X46050000Y-161860000D02*
X46650000Y-161860000D01*
X46650000Y-162800000D02*
X46050000Y-162800000D01*
X46050000Y-162800000D02*
X46050000Y-164400000D01*
X46050000Y-164400000D02*
X46650000Y-164400000D01*
%TO.C,J3*%
X78690000Y-119260000D02*
X84710000Y-119260000D01*
X84710000Y-119260000D02*
X84710000Y-111420000D01*
X84710000Y-111420000D02*
X78690000Y-111420000D01*
X78690000Y-111420000D02*
X78690000Y-119260000D01*
X79720000Y-119550000D02*
X83720000Y-119550000D01*
X84710000Y-117880000D02*
X83710000Y-117880000D01*
X83710000Y-117880000D02*
X83710000Y-112800000D01*
X83710000Y-112800000D02*
X84710000Y-112800000D01*
X83710000Y-117880000D02*
X83180000Y-117630000D01*
X83180000Y-117630000D02*
X83180000Y-113050000D01*
X83180000Y-113050000D02*
X83710000Y-112800000D01*
X84710000Y-117630000D02*
X83710000Y-117630000D01*
X84710000Y-113050000D02*
X83710000Y-113050000D01*
X78690000Y-118680000D02*
X79290000Y-118680000D01*
X79290000Y-118680000D02*
X79290000Y-117080000D01*
X79290000Y-117080000D02*
X78690000Y-117080000D01*
X78690000Y-116140000D02*
X79290000Y-116140000D01*
X79290000Y-116140000D02*
X79290000Y-114540000D01*
X79290000Y-114540000D02*
X78690000Y-114540000D01*
X78690000Y-113600000D02*
X79290000Y-113600000D01*
X79290000Y-113600000D02*
X79290000Y-112000000D01*
X79290000Y-112000000D02*
X78690000Y-112000000D01*
%TO.C,C13*%
X77884000Y-102290000D02*
X76626000Y-102290000D01*
X77884000Y-100450000D02*
X76626000Y-100450000D01*
%TO.C,C12*%
X77884000Y-87050000D02*
X76626000Y-87050000D01*
X77884000Y-85210000D02*
X76626000Y-85210000D01*
%TO.C,C11*%
X77884000Y-109910000D02*
X76626000Y-109910000D01*
X77884000Y-108070000D02*
X76626000Y-108070000D01*
%TO.C,C10*%
X77884000Y-79430000D02*
X76626000Y-79430000D01*
X77884000Y-77590000D02*
X76626000Y-77590000D01*
%TO.C,R18*%
X139580000Y-93370000D02*
X139580000Y-93040000D01*
X133040000Y-93370000D02*
X139580000Y-93370000D01*
X133040000Y-93040000D02*
X133040000Y-93370000D01*
X139580000Y-90630000D02*
X139580000Y-90960000D01*
X133040000Y-90630000D02*
X139580000Y-90630000D01*
X133040000Y-90960000D02*
X133040000Y-90630000D01*
%TO.C,J15*%
X149150000Y-112350000D02*
X147150000Y-109850000D01*
X147150000Y-96600000D02*
X162900000Y-96600000D01*
X162900000Y-96600000D02*
X162900000Y-112350000D01*
X149200000Y-112350000D02*
X149150000Y-112350000D01*
X162900000Y-112350000D02*
X149200000Y-112350000D01*
X147150000Y-109850000D02*
X147150000Y-96600000D01*
%TO.C,J11*%
X123150000Y-137350000D02*
X121150000Y-134850000D01*
X121150000Y-121600000D02*
X136900000Y-121600000D01*
X136900000Y-121600000D02*
X136900000Y-137350000D01*
X123200000Y-137350000D02*
X123150000Y-137350000D01*
X136900000Y-137350000D02*
X123200000Y-137350000D01*
X121150000Y-134850000D02*
X121150000Y-121600000D01*
%TO.C,D8*%
X142000462Y-82460000D02*
G75*
G02*
X140455170Y-76910000I-462J2990000D01*
G01*
X141999538Y-82460000D02*
G75*
G03*
X143544830Y-76910000I462J2990000D01*
G01*
X143545000Y-76910000D02*
X140455000Y-76910000D01*
X144500000Y-79470000D02*
G75*
G03*
X144500000Y-79470000I-2500000J0D01*
G01*
%TO.C,R16*%
X139580000Y-118370000D02*
X139580000Y-118040000D01*
X133040000Y-118370000D02*
X139580000Y-118370000D01*
X133040000Y-118040000D02*
X133040000Y-118370000D01*
X139580000Y-115630000D02*
X139580000Y-115960000D01*
X133040000Y-115630000D02*
X139580000Y-115630000D01*
X133040000Y-115960000D02*
X133040000Y-115630000D01*
%TO.C,D7*%
X142000462Y-107460000D02*
G75*
G02*
X140455170Y-101910000I-462J2990000D01*
G01*
X141999538Y-107460000D02*
G75*
G03*
X143544830Y-101910000I462J2990000D01*
G01*
X143545000Y-101910000D02*
X140455000Y-101910000D01*
X144500000Y-104470000D02*
G75*
G03*
X144500000Y-104470000I-2500000J0D01*
G01*
%TO.C,R11*%
X143420000Y-164630000D02*
X143420000Y-164960000D01*
X149960000Y-164630000D02*
X143420000Y-164630000D01*
X149960000Y-164960000D02*
X149960000Y-164630000D01*
X143420000Y-167370000D02*
X143420000Y-167040000D01*
X149960000Y-167370000D02*
X143420000Y-167370000D01*
X149960000Y-167040000D02*
X149960000Y-167370000D01*
%TO.C,D4*%
X154999538Y-171490000D02*
G75*
G02*
X156544830Y-177040000I462J-2990000D01*
G01*
X155000462Y-171490000D02*
G75*
G03*
X153455170Y-177040000I-462J-2990000D01*
G01*
X153455000Y-177040000D02*
X156545000Y-177040000D01*
X157500000Y-174480000D02*
G75*
G03*
X157500000Y-174480000I-2500000J0D01*
G01*
%TO.C,R15*%
X143420000Y-115630000D02*
X143420000Y-115960000D01*
X149960000Y-115630000D02*
X143420000Y-115630000D01*
X149960000Y-115960000D02*
X149960000Y-115630000D01*
X143420000Y-118370000D02*
X143420000Y-118040000D01*
X149960000Y-118370000D02*
X143420000Y-118370000D01*
X149960000Y-118040000D02*
X149960000Y-118370000D01*
%TO.C,R13*%
X143420000Y-140630000D02*
X143420000Y-140960000D01*
X149960000Y-140630000D02*
X143420000Y-140630000D01*
X149960000Y-140960000D02*
X149960000Y-140630000D01*
X143420000Y-143370000D02*
X143420000Y-143040000D01*
X149960000Y-143370000D02*
X143420000Y-143370000D01*
X149960000Y-143040000D02*
X149960000Y-143370000D01*
%TO.C,R10*%
X161580000Y-167370000D02*
X161580000Y-167040000D01*
X155040000Y-167370000D02*
X161580000Y-167370000D01*
X155040000Y-167040000D02*
X155040000Y-167370000D01*
X161580000Y-164630000D02*
X161580000Y-164960000D01*
X155040000Y-164630000D02*
X161580000Y-164630000D01*
X155040000Y-164960000D02*
X155040000Y-164630000D01*
%TO.C,D6*%
X142000462Y-132460000D02*
G75*
G02*
X140455170Y-126910000I-462J2990000D01*
G01*
X141999538Y-132460000D02*
G75*
G03*
X143544830Y-126910000I462J2990000D01*
G01*
X143545000Y-126910000D02*
X140455000Y-126910000D01*
X144500000Y-129470000D02*
G75*
G03*
X144500000Y-129470000I-2500000J0D01*
G01*
%TO.C,R17*%
X143420000Y-90630000D02*
X143420000Y-90960000D01*
X149960000Y-90630000D02*
X143420000Y-90630000D01*
X149960000Y-90960000D02*
X149960000Y-90630000D01*
X143420000Y-93370000D02*
X143420000Y-93040000D01*
X149960000Y-93370000D02*
X143420000Y-93370000D01*
X149960000Y-93040000D02*
X149960000Y-93370000D01*
%TO.C,J12*%
X123150000Y-112350000D02*
X121150000Y-109850000D01*
X121150000Y-96600000D02*
X136900000Y-96600000D01*
X136900000Y-96600000D02*
X136900000Y-112350000D01*
X123200000Y-112350000D02*
X123150000Y-112350000D01*
X136900000Y-112350000D02*
X123200000Y-112350000D01*
X121150000Y-109850000D02*
X121150000Y-96600000D01*
%TO.C,J10*%
X123150000Y-162350000D02*
X121150000Y-159850000D01*
X121150000Y-146600000D02*
X136900000Y-146600000D01*
X136900000Y-146600000D02*
X136900000Y-162350000D01*
X123200000Y-162350000D02*
X123150000Y-162350000D01*
X136900000Y-162350000D02*
X123200000Y-162350000D01*
X121150000Y-159850000D02*
X121150000Y-146600000D01*
%TO.C,J16*%
X149150000Y-87350000D02*
X147150000Y-84850000D01*
X147150000Y-71600000D02*
X162900000Y-71600000D01*
X162900000Y-71600000D02*
X162900000Y-87350000D01*
X149200000Y-87350000D02*
X149150000Y-87350000D01*
X162900000Y-87350000D02*
X149200000Y-87350000D01*
X147150000Y-84850000D02*
X147150000Y-71600000D01*
%TO.C,R14*%
X139580000Y-143370000D02*
X139580000Y-143040000D01*
X133040000Y-143370000D02*
X139580000Y-143370000D01*
X133040000Y-143040000D02*
X133040000Y-143370000D01*
X139580000Y-140630000D02*
X139580000Y-140960000D01*
X133040000Y-140630000D02*
X139580000Y-140630000D01*
X133040000Y-140960000D02*
X133040000Y-140630000D01*
%TO.C,D5*%
X142000462Y-157460000D02*
G75*
G02*
X140455170Y-151910000I-462J2990000D01*
G01*
X141999538Y-157460000D02*
G75*
G03*
X143544830Y-151910000I462J2990000D01*
G01*
X143545000Y-151910000D02*
X140455000Y-151910000D01*
X144500000Y-154470000D02*
G75*
G03*
X144500000Y-154470000I-2500000J0D01*
G01*
%TO.C,R12*%
X139600000Y-167370000D02*
X139600000Y-167040000D01*
X133060000Y-167370000D02*
X139600000Y-167370000D01*
X133060000Y-167040000D02*
X133060000Y-167370000D01*
X139600000Y-164630000D02*
X139600000Y-164960000D01*
X133060000Y-164630000D02*
X139600000Y-164630000D01*
X133060000Y-164960000D02*
X133060000Y-164630000D01*
%TO.C,J9*%
X123150000Y-87350000D02*
X121150000Y-84850000D01*
X121150000Y-71600000D02*
X136900000Y-71600000D01*
X136900000Y-71600000D02*
X136900000Y-87350000D01*
X123200000Y-87350000D02*
X123150000Y-87350000D01*
X136900000Y-87350000D02*
X123200000Y-87350000D01*
X121150000Y-84850000D02*
X121150000Y-71600000D01*
%TO.C,J13*%
X149150000Y-162350000D02*
X147150000Y-159850000D01*
X147150000Y-146600000D02*
X162900000Y-146600000D01*
X162900000Y-146600000D02*
X162900000Y-162350000D01*
X149200000Y-162350000D02*
X149150000Y-162350000D01*
X162900000Y-162350000D02*
X149200000Y-162350000D01*
X147150000Y-159850000D02*
X147150000Y-146600000D01*
%TO.C,IC2*%
X50335000Y-87340000D02*
G75*
G02*
X48335000Y-87340000I-1000000J0D01*
G01*
X54585000Y-87280000D02*
X44085000Y-87280000D01*
X54585000Y-105300000D02*
X54585000Y-87280000D01*
X44085000Y-105300000D02*
X54585000Y-105300000D01*
X44085000Y-87280000D02*
X44085000Y-105300000D01*
X51585000Y-87340000D02*
X50335000Y-87340000D01*
X51585000Y-105240000D02*
X51585000Y-87340000D01*
X47085000Y-105240000D02*
X51585000Y-105240000D01*
X47085000Y-87340000D02*
X47085000Y-105240000D01*
X48335000Y-87340000D02*
X47085000Y-87340000D01*
%TO.C,D1*%
X48450000Y-145970000D02*
X48450000Y-148210000D01*
X48690000Y-145970000D02*
X48690000Y-148210000D01*
X48570000Y-145970000D02*
X48570000Y-148210000D01*
X52740000Y-147090000D02*
X52090000Y-147090000D01*
X47200000Y-147090000D02*
X47850000Y-147090000D01*
X52090000Y-145970000D02*
X47850000Y-145970000D01*
X52090000Y-148210000D02*
X52090000Y-145970000D01*
X47850000Y-148210000D02*
X52090000Y-148210000D01*
X47850000Y-145970000D02*
X47850000Y-148210000D01*
%TO.C,U1*%
X47160000Y-133060000D02*
G75*
G02*
X45160000Y-133060000I-1000000J0D01*
G01*
X51410000Y-133000000D02*
X40910000Y-133000000D01*
X51410000Y-143400000D02*
X51410000Y-133000000D01*
X40910000Y-143400000D02*
X51410000Y-143400000D01*
X40910000Y-133000000D02*
X40910000Y-143400000D01*
X48410000Y-133060000D02*
X47160000Y-133060000D01*
X48410000Y-143340000D02*
X48410000Y-133060000D01*
X43910000Y-143340000D02*
X48410000Y-143340000D01*
X43910000Y-133060000D02*
X43910000Y-143340000D01*
X45160000Y-133060000D02*
X43910000Y-133060000D01*
D13*
%TO.C,G\u002A\u002A\u002A1*%
G36*
X52277365Y-74026239D02*
G01*
X52324548Y-74026842D01*
X52379401Y-74027408D01*
X52440096Y-74027924D01*
X52504808Y-74028380D01*
X52571710Y-74028765D01*
X52638975Y-74029067D01*
X52704778Y-74029275D01*
X52767293Y-74029378D01*
X52790112Y-74029387D01*
X53085654Y-74029393D01*
X53085654Y-74333243D01*
X52349767Y-74333243D01*
X52349767Y-77395486D01*
X52796047Y-77395486D01*
X52796047Y-74770207D01*
X52688038Y-74768930D01*
X52580028Y-74767654D01*
X52578749Y-74664351D01*
X52577469Y-74561048D01*
X52831751Y-74562277D01*
X53086032Y-74563505D01*
X53088028Y-77699337D01*
X52060159Y-77699337D01*
X52060159Y-74023097D01*
X52277365Y-74026239D01*
G37*
X52277365Y-74026239D02*
X52324548Y-74026842D01*
X52379401Y-74027408D01*
X52440096Y-74027924D01*
X52504808Y-74028380D01*
X52571710Y-74028765D01*
X52638975Y-74029067D01*
X52704778Y-74029275D01*
X52767293Y-74029378D01*
X52790112Y-74029387D01*
X53085654Y-74029393D01*
X53085654Y-74333243D01*
X52349767Y-74333243D01*
X52349767Y-77395486D01*
X52796047Y-77395486D01*
X52796047Y-74770207D01*
X52688038Y-74768930D01*
X52580028Y-74767654D01*
X52578749Y-74664351D01*
X52577469Y-74561048D01*
X52831751Y-74562277D01*
X53086032Y-74563505D01*
X53088028Y-77699337D01*
X52060159Y-77699337D01*
X52060159Y-74023097D01*
X52277365Y-74026239D01*
G36*
X51277982Y-74025811D02*
G01*
X51791916Y-74027019D01*
X51794302Y-77699337D01*
X50764047Y-77699337D01*
X50764047Y-74333243D01*
X51058402Y-74333243D01*
X51058402Y-77395486D01*
X51499935Y-77395486D01*
X51499935Y-74333243D01*
X51058402Y-74333243D01*
X50764047Y-74333243D01*
X50764047Y-74024603D01*
X51277982Y-74025811D01*
G37*
X51277982Y-74025811D02*
X51791916Y-74027019D01*
X51794302Y-77699337D01*
X50764047Y-77699337D01*
X50764047Y-74333243D01*
X51058402Y-74333243D01*
X51058402Y-77395486D01*
X51499935Y-77395486D01*
X51499935Y-74333243D01*
X51058402Y-74333243D01*
X50764047Y-74333243D01*
X50764047Y-74024603D01*
X51277982Y-74025811D01*
G36*
X49758723Y-75711253D02*
G01*
X49759916Y-77393112D01*
X50498178Y-77395544D01*
X50498178Y-77699337D01*
X49467935Y-77699337D01*
X49467935Y-74029393D01*
X49757529Y-74029393D01*
X49758723Y-75711253D01*
G37*
X49758723Y-75711253D02*
X49759916Y-77393112D01*
X50498178Y-77395544D01*
X50498178Y-77699337D01*
X49467935Y-77699337D01*
X49467935Y-74029393D01*
X49757529Y-74029393D01*
X49758723Y-75711253D01*
G36*
X49202078Y-77699337D02*
G01*
X48912458Y-77699337D01*
X48912458Y-77395486D01*
X48466178Y-77395486D01*
X48466178Y-77699337D01*
X48171811Y-77699337D01*
X48173003Y-75863178D01*
X48173997Y-74333243D01*
X48466178Y-74333243D01*
X48466178Y-77191431D01*
X48910084Y-77188963D01*
X48912474Y-74333243D01*
X48466178Y-74333243D01*
X48173997Y-74333243D01*
X48174196Y-74027019D01*
X49199692Y-74027019D01*
X49202078Y-77699337D01*
G37*
X49202078Y-77699337D02*
X48912458Y-77699337D01*
X48912458Y-77395486D01*
X48466178Y-77395486D01*
X48466178Y-77699337D01*
X48171811Y-77699337D01*
X48173003Y-75863178D01*
X48173997Y-74333243D01*
X48466178Y-74333243D01*
X48466178Y-77191431D01*
X48910084Y-77188963D01*
X48912474Y-74333243D01*
X48466178Y-74333243D01*
X48173997Y-74333243D01*
X48174196Y-74027019D01*
X49199692Y-74027019D01*
X49202078Y-77699337D01*
G36*
X47905954Y-77699337D02*
G01*
X47616346Y-77699337D01*
X47616346Y-74333243D01*
X47170066Y-74333243D01*
X47170066Y-77699337D01*
X46880458Y-77699337D01*
X46879307Y-76016290D01*
X46879220Y-75888744D01*
X46879134Y-75762851D01*
X46879050Y-75638988D01*
X46878968Y-75517537D01*
X46878889Y-75398877D01*
X46878812Y-75283388D01*
X46878738Y-75171449D01*
X46878666Y-75063440D01*
X46878598Y-74959742D01*
X46878534Y-74860733D01*
X46878473Y-74766794D01*
X46878416Y-74678304D01*
X46878363Y-74595643D01*
X46878315Y-74519192D01*
X46878271Y-74449328D01*
X46878233Y-74386433D01*
X46878200Y-74330887D01*
X46878172Y-74283068D01*
X46878149Y-74243356D01*
X46878133Y-74212133D01*
X46878123Y-74189776D01*
X46878120Y-74180131D01*
X46878084Y-74027019D01*
X47905954Y-74026681D01*
X47905954Y-77699337D01*
G37*
X47905954Y-77699337D02*
X47616346Y-77699337D01*
X47616346Y-74333243D01*
X47170066Y-74333243D01*
X47170066Y-77699337D01*
X46880458Y-77699337D01*
X46879307Y-76016290D01*
X46879220Y-75888744D01*
X46879134Y-75762851D01*
X46879050Y-75638988D01*
X46878968Y-75517537D01*
X46878889Y-75398877D01*
X46878812Y-75283388D01*
X46878738Y-75171449D01*
X46878666Y-75063440D01*
X46878598Y-74959742D01*
X46878534Y-74860733D01*
X46878473Y-74766794D01*
X46878416Y-74678304D01*
X46878363Y-74595643D01*
X46878315Y-74519192D01*
X46878271Y-74449328D01*
X46878233Y-74386433D01*
X46878200Y-74330887D01*
X46878172Y-74283068D01*
X46878149Y-74243356D01*
X46878133Y-74212133D01*
X46878123Y-74189776D01*
X46878120Y-74180131D01*
X46878084Y-74027019D01*
X47905954Y-74026681D01*
X47905954Y-77699337D01*
G36*
X46609841Y-77699337D02*
G01*
X46320234Y-77699337D01*
X46320234Y-77395486D01*
X45873954Y-77395486D01*
X45873954Y-77699337D01*
X45584346Y-77699337D01*
X45584250Y-77548598D01*
X45584242Y-77532438D01*
X45584231Y-77507161D01*
X45584218Y-77473146D01*
X45584204Y-77430772D01*
X45584187Y-77380418D01*
X45584168Y-77322463D01*
X45584148Y-77257284D01*
X45584126Y-77185262D01*
X45584103Y-77106774D01*
X45584078Y-77022200D01*
X45584052Y-76931918D01*
X45584025Y-76836307D01*
X45583996Y-76735746D01*
X45583967Y-76630614D01*
X45583937Y-76521288D01*
X45583906Y-76408149D01*
X45583875Y-76291575D01*
X45583843Y-76171944D01*
X45583811Y-76049636D01*
X45583778Y-75925029D01*
X45583746Y-75798501D01*
X45583724Y-75712439D01*
X45583371Y-74333243D01*
X45873954Y-74333243D01*
X45873954Y-77191431D01*
X46317860Y-77188963D01*
X46319055Y-75761103D01*
X46320249Y-74333243D01*
X45873954Y-74333243D01*
X45583371Y-74333243D01*
X45583292Y-74027019D01*
X46096567Y-74026850D01*
X46609841Y-74026681D01*
X46609841Y-77699337D01*
G37*
X46609841Y-77699337D02*
X46320234Y-77699337D01*
X46320234Y-77395486D01*
X45873954Y-77395486D01*
X45873954Y-77699337D01*
X45584346Y-77699337D01*
X45584250Y-77548598D01*
X45584242Y-77532438D01*
X45584231Y-77507161D01*
X45584218Y-77473146D01*
X45584204Y-77430772D01*
X45584187Y-77380418D01*
X45584168Y-77322463D01*
X45584148Y-77257284D01*
X45584126Y-77185262D01*
X45584103Y-77106774D01*
X45584078Y-77022200D01*
X45584052Y-76931918D01*
X45584025Y-76836307D01*
X45583996Y-76735746D01*
X45583967Y-76630614D01*
X45583937Y-76521288D01*
X45583906Y-76408149D01*
X45583875Y-76291575D01*
X45583843Y-76171944D01*
X45583811Y-76049636D01*
X45583778Y-75925029D01*
X45583746Y-75798501D01*
X45583724Y-75712439D01*
X45583371Y-74333243D01*
X45873954Y-74333243D01*
X45873954Y-77191431D01*
X46317860Y-77188963D01*
X46319055Y-75761103D01*
X46320249Y-74333243D01*
X45873954Y-74333243D01*
X45583371Y-74333243D01*
X45583292Y-74027019D01*
X46096567Y-74026850D01*
X46609841Y-74026681D01*
X46609841Y-77699337D01*
G36*
X53085654Y-78354514D02*
G01*
X52720084Y-78354514D01*
X52720084Y-81720608D01*
X52425729Y-81720608D01*
X52425729Y-78354514D01*
X52060159Y-78354514D01*
X52060159Y-78050664D01*
X53085654Y-78050664D01*
X53085654Y-78354514D01*
G37*
X53085654Y-78354514D02*
X52720084Y-78354514D01*
X52720084Y-81720608D01*
X52425729Y-81720608D01*
X52425729Y-78354514D01*
X52060159Y-78354514D01*
X52060159Y-78050664D01*
X53085654Y-78050664D01*
X53085654Y-78354514D01*
G36*
X50498178Y-78995391D02*
G01*
X49759916Y-78997823D01*
X49758721Y-80359215D01*
X49757526Y-81720608D01*
X49467935Y-81720608D01*
X49467935Y-78592145D01*
X49758348Y-78592145D01*
X49758400Y-78623558D01*
X49758583Y-78649763D01*
X49758890Y-78669618D01*
X49759314Y-78681976D01*
X49759703Y-78685632D01*
X49762199Y-78687086D01*
X49768920Y-78688301D01*
X49780537Y-78689294D01*
X49797719Y-78690083D01*
X49821135Y-78690686D01*
X49851454Y-78691121D01*
X49889346Y-78691406D01*
X49935480Y-78691559D01*
X49982907Y-78691598D01*
X50203823Y-78691598D01*
X50203823Y-78354420D01*
X49981869Y-78355654D01*
X49759916Y-78356888D01*
X49758665Y-78518277D01*
X49758434Y-78556670D01*
X49758348Y-78592145D01*
X49467935Y-78592145D01*
X49467935Y-78050664D01*
X50498178Y-78050664D01*
X50498178Y-78995391D01*
G37*
X50498178Y-78995391D02*
X49759916Y-78997823D01*
X49758721Y-80359215D01*
X49757526Y-81720608D01*
X49467935Y-81720608D01*
X49467935Y-78592145D01*
X49758348Y-78592145D01*
X49758400Y-78623558D01*
X49758583Y-78649763D01*
X49758890Y-78669618D01*
X49759314Y-78681976D01*
X49759703Y-78685632D01*
X49762199Y-78687086D01*
X49768920Y-78688301D01*
X49780537Y-78689294D01*
X49797719Y-78690083D01*
X49821135Y-78690686D01*
X49851454Y-78691121D01*
X49889346Y-78691406D01*
X49935480Y-78691559D01*
X49982907Y-78691598D01*
X50203823Y-78691598D01*
X50203823Y-78354420D01*
X49981869Y-78355654D01*
X49759916Y-78356888D01*
X49758665Y-78518277D01*
X49758434Y-78556670D01*
X49758348Y-78592145D01*
X49467935Y-78592145D01*
X49467935Y-78050664D01*
X50498178Y-78050664D01*
X50498178Y-78995391D01*
G36*
X49202066Y-78354514D02*
G01*
X48831748Y-78354514D01*
X48831748Y-81720608D01*
X48542140Y-81720608D01*
X48542140Y-78354514D01*
X48171823Y-78354514D01*
X48171823Y-78050664D01*
X49202066Y-78050664D01*
X49202066Y-78354514D01*
G37*
X49202066Y-78354514D02*
X48831748Y-78354514D01*
X48831748Y-81720608D01*
X48542140Y-81720608D01*
X48542140Y-78354514D01*
X48171823Y-78354514D01*
X48171823Y-78050664D01*
X49202066Y-78050664D01*
X49202066Y-78354514D01*
G36*
X51053654Y-81416757D02*
G01*
X51499935Y-81416757D01*
X51499935Y-78050664D01*
X51789542Y-78050664D01*
X51790694Y-79733711D01*
X51790781Y-79861256D01*
X51790866Y-79987150D01*
X51790950Y-80111012D01*
X51791032Y-80232463D01*
X51791111Y-80351124D01*
X51791189Y-80466613D01*
X51791263Y-80578552D01*
X51791334Y-80686560D01*
X51791402Y-80790259D01*
X51791467Y-80889267D01*
X51791528Y-80983207D01*
X51791585Y-81071696D01*
X51791637Y-81154357D01*
X51791685Y-81230809D01*
X51791729Y-81300672D01*
X51791768Y-81363567D01*
X51791801Y-81419114D01*
X51791829Y-81466933D01*
X51791851Y-81506644D01*
X51791867Y-81537868D01*
X51791878Y-81560225D01*
X51791881Y-81569869D01*
X51791916Y-81722982D01*
X51277982Y-81723151D01*
X50764047Y-81723320D01*
X50764047Y-78050664D01*
X51053654Y-78050664D01*
X51053654Y-81416757D01*
G37*
X51053654Y-81416757D02*
X51499935Y-81416757D01*
X51499935Y-78050664D01*
X51789542Y-78050664D01*
X51790694Y-79733711D01*
X51790781Y-79861256D01*
X51790866Y-79987150D01*
X51790950Y-80111012D01*
X51791032Y-80232463D01*
X51791111Y-80351124D01*
X51791189Y-80466613D01*
X51791263Y-80578552D01*
X51791334Y-80686560D01*
X51791402Y-80790259D01*
X51791467Y-80889267D01*
X51791528Y-80983207D01*
X51791585Y-81071696D01*
X51791637Y-81154357D01*
X51791685Y-81230809D01*
X51791729Y-81300672D01*
X51791768Y-81363567D01*
X51791801Y-81419114D01*
X51791829Y-81466933D01*
X51791851Y-81506644D01*
X51791867Y-81537868D01*
X51791878Y-81560225D01*
X51791881Y-81569869D01*
X51791916Y-81722982D01*
X51277982Y-81723151D01*
X50764047Y-81723320D01*
X50764047Y-78050664D01*
X51053654Y-78050664D01*
X51053654Y-81416757D01*
G36*
X47170066Y-81416757D02*
G01*
X47616346Y-81416757D01*
X47616346Y-78050664D01*
X47905954Y-78050664D01*
X47905954Y-81723296D01*
X47392850Y-81723296D01*
X47323895Y-81723273D01*
X47257648Y-81723206D01*
X47194722Y-81723099D01*
X47135728Y-81722953D01*
X47081280Y-81722773D01*
X47031991Y-81722561D01*
X46988474Y-81722320D01*
X46951340Y-81722054D01*
X46921204Y-81721765D01*
X46898678Y-81721456D01*
X46884375Y-81721131D01*
X46878907Y-81720791D01*
X46878870Y-81720765D01*
X46878811Y-81715888D01*
X46878761Y-81701840D01*
X46878720Y-81678945D01*
X46878688Y-81647527D01*
X46878665Y-81607909D01*
X46878650Y-81560416D01*
X46878644Y-81505372D01*
X46878646Y-81443100D01*
X46878656Y-81373926D01*
X46878674Y-81298172D01*
X46878700Y-81216163D01*
X46878734Y-81128223D01*
X46878776Y-81034675D01*
X46878825Y-80935845D01*
X46878882Y-80832055D01*
X46878945Y-80723630D01*
X46879017Y-80610894D01*
X46879095Y-80494171D01*
X46879180Y-80373785D01*
X46879272Y-80250060D01*
X46879370Y-80123320D01*
X46879476Y-79993888D01*
X46879568Y-79884449D01*
X46881143Y-78050664D01*
X47170066Y-78050664D01*
X47170066Y-81416757D01*
G37*
X47170066Y-81416757D02*
X47616346Y-81416757D01*
X47616346Y-78050664D01*
X47905954Y-78050664D01*
X47905954Y-81723296D01*
X47392850Y-81723296D01*
X47323895Y-81723273D01*
X47257648Y-81723206D01*
X47194722Y-81723099D01*
X47135728Y-81722953D01*
X47081280Y-81722773D01*
X47031991Y-81722561D01*
X46988474Y-81722320D01*
X46951340Y-81722054D01*
X46921204Y-81721765D01*
X46898678Y-81721456D01*
X46884375Y-81721131D01*
X46878907Y-81720791D01*
X46878870Y-81720765D01*
X46878811Y-81715888D01*
X46878761Y-81701840D01*
X46878720Y-81678945D01*
X46878688Y-81647527D01*
X46878665Y-81607909D01*
X46878650Y-81560416D01*
X46878644Y-81505372D01*
X46878646Y-81443100D01*
X46878656Y-81373926D01*
X46878674Y-81298172D01*
X46878700Y-81216163D01*
X46878734Y-81128223D01*
X46878776Y-81034675D01*
X46878825Y-80935845D01*
X46878882Y-80832055D01*
X46878945Y-80723630D01*
X46879017Y-80610894D01*
X46879095Y-80494171D01*
X46879180Y-80373785D01*
X46879272Y-80250060D01*
X46879370Y-80123320D01*
X46879476Y-79993888D01*
X46879568Y-79884449D01*
X46881143Y-78050664D01*
X47170066Y-78050664D01*
X47170066Y-81416757D01*
G36*
X46609841Y-81725355D02*
G01*
X46097885Y-81725355D01*
X46028955Y-81725327D01*
X45962696Y-81725243D01*
X45899725Y-81725108D01*
X45840660Y-81724926D01*
X45786118Y-81724700D01*
X45736716Y-81724434D01*
X45693071Y-81724132D01*
X45655801Y-81723798D01*
X45625521Y-81723435D01*
X45602851Y-81723048D01*
X45588406Y-81722640D01*
X45582804Y-81722215D01*
X45582763Y-81722190D01*
X45582537Y-81717268D01*
X45582314Y-81703174D01*
X45582096Y-81680234D01*
X45581884Y-81648770D01*
X45581677Y-81609108D01*
X45581477Y-81561571D01*
X45581284Y-81506483D01*
X45581098Y-81444169D01*
X45580920Y-81374953D01*
X45580751Y-81299158D01*
X45580592Y-81217109D01*
X45580442Y-81129131D01*
X45580302Y-81035547D01*
X45580174Y-80936681D01*
X45580057Y-80832857D01*
X45579951Y-80724400D01*
X45579859Y-80611634D01*
X45579779Y-80494882D01*
X45579714Y-80374470D01*
X45579662Y-80250721D01*
X45579625Y-80123959D01*
X45579604Y-79994508D01*
X45579598Y-79884844D01*
X45579598Y-78354514D01*
X45873954Y-78354514D01*
X45873954Y-81416757D01*
X46320234Y-81416757D01*
X46320234Y-78354514D01*
X45873954Y-78354514D01*
X45579598Y-78354514D01*
X45579598Y-78050664D01*
X46609841Y-78050664D01*
X46609841Y-81725355D01*
G37*
X46609841Y-81725355D02*
X46097885Y-81725355D01*
X46028955Y-81725327D01*
X45962696Y-81725243D01*
X45899725Y-81725108D01*
X45840660Y-81724926D01*
X45786118Y-81724700D01*
X45736716Y-81724434D01*
X45693071Y-81724132D01*
X45655801Y-81723798D01*
X45625521Y-81723435D01*
X45602851Y-81723048D01*
X45588406Y-81722640D01*
X45582804Y-81722215D01*
X45582763Y-81722190D01*
X45582537Y-81717268D01*
X45582314Y-81703174D01*
X45582096Y-81680234D01*
X45581884Y-81648770D01*
X45581677Y-81609108D01*
X45581477Y-81561571D01*
X45581284Y-81506483D01*
X45581098Y-81444169D01*
X45580920Y-81374953D01*
X45580751Y-81299158D01*
X45580592Y-81217109D01*
X45580442Y-81129131D01*
X45580302Y-81035547D01*
X45580174Y-80936681D01*
X45580057Y-80832857D01*
X45579951Y-80724400D01*
X45579859Y-80611634D01*
X45579779Y-80494882D01*
X45579714Y-80374470D01*
X45579662Y-80250721D01*
X45579625Y-80123959D01*
X45579604Y-79994508D01*
X45579598Y-79884844D01*
X45579598Y-78354514D01*
X45873954Y-78354514D01*
X45873954Y-81416757D01*
X46320234Y-81416757D01*
X46320234Y-78354514D01*
X45873954Y-78354514D01*
X45579598Y-78354514D01*
X45579598Y-78050664D01*
X46609841Y-78050664D01*
X46609841Y-81725355D01*
G36*
X49465835Y-71875550D02*
G01*
X49627060Y-71880813D01*
X49782783Y-71890206D01*
X49790776Y-71890815D01*
X50029112Y-71913902D01*
X50265523Y-71946245D01*
X50499789Y-71987762D01*
X50731690Y-72038373D01*
X50961006Y-72097997D01*
X51187517Y-72166552D01*
X51411003Y-72243958D01*
X51631245Y-72330134D01*
X51848022Y-72424999D01*
X52061114Y-72528471D01*
X52270302Y-72640471D01*
X52475365Y-72760916D01*
X52676084Y-72889727D01*
X52867262Y-73023200D01*
X53052680Y-73163792D01*
X53233259Y-73312330D01*
X53408485Y-73468303D01*
X53577842Y-73631202D01*
X53740815Y-73800518D01*
X53896888Y-73975743D01*
X54045546Y-74156365D01*
X54145363Y-74286336D01*
X54283693Y-74479701D01*
X54414051Y-74678100D01*
X54536317Y-74881252D01*
X54650370Y-75088874D01*
X54756088Y-75300686D01*
X54853351Y-75516406D01*
X54942038Y-75735753D01*
X55022028Y-75958446D01*
X55093199Y-76184202D01*
X55155432Y-76412742D01*
X55208605Y-76643783D01*
X55248312Y-76851879D01*
X55269238Y-76980971D01*
X55287178Y-77108771D01*
X55302432Y-77237844D01*
X55315298Y-77370754D01*
X55326075Y-77510063D01*
X55327473Y-77530795D01*
X55329050Y-77560934D01*
X55330391Y-77599219D01*
X55331494Y-77644320D01*
X55332361Y-77694906D01*
X55332989Y-77749648D01*
X55333381Y-77807216D01*
X55333534Y-77866279D01*
X55333450Y-77925507D01*
X55333129Y-77983570D01*
X55332569Y-78039139D01*
X55331771Y-78090882D01*
X55330736Y-78137470D01*
X55329462Y-78177573D01*
X55327951Y-78209861D01*
X55327517Y-78216832D01*
X55311553Y-78417307D01*
X55290647Y-78610964D01*
X55264580Y-78799224D01*
X55233137Y-78983503D01*
X55196100Y-79165222D01*
X55157771Y-79327891D01*
X55094807Y-79559806D01*
X55023110Y-79788027D01*
X54942748Y-80012429D01*
X54853788Y-80232886D01*
X54756297Y-80449270D01*
X54650343Y-80661455D01*
X54535994Y-80869315D01*
X54413316Y-81072723D01*
X54282378Y-81271553D01*
X54143246Y-81465679D01*
X53995988Y-81654974D01*
X53840671Y-81839311D01*
X53786922Y-81899852D01*
X53763029Y-81925893D01*
X53733474Y-81957263D01*
X53699402Y-81992807D01*
X53661962Y-82031370D01*
X53622299Y-82071796D01*
X53581562Y-82112931D01*
X53540897Y-82153620D01*
X53501450Y-82192709D01*
X53464369Y-82229041D01*
X53430802Y-82261462D01*
X53401893Y-82288818D01*
X53387131Y-82302439D01*
X53205777Y-82461230D01*
X53019357Y-82612037D01*
X52828061Y-82754779D01*
X52632082Y-82889377D01*
X52431611Y-83015753D01*
X52226841Y-83133827D01*
X52017963Y-83243520D01*
X51805169Y-83344753D01*
X51588651Y-83437447D01*
X51368601Y-83521523D01*
X51145211Y-83596900D01*
X50918672Y-83663502D01*
X50689176Y-83721247D01*
X50456916Y-83770057D01*
X50222083Y-83809853D01*
X49984868Y-83840556D01*
X49745465Y-83862087D01*
X49584253Y-83871327D01*
X49554828Y-83872361D01*
X49517823Y-83873234D01*
X49474927Y-83873941D01*
X49427824Y-83874478D01*
X49378201Y-83874838D01*
X49327745Y-83875016D01*
X49278142Y-83875005D01*
X49231078Y-83874802D01*
X49188240Y-83874400D01*
X49151314Y-83873793D01*
X49121987Y-83872976D01*
X49118982Y-83872861D01*
X48878386Y-83858605D01*
X48639707Y-83835165D01*
X48403157Y-83802619D01*
X48168947Y-83761047D01*
X47937290Y-83710527D01*
X47708396Y-83651137D01*
X47482477Y-83582957D01*
X47259745Y-83506066D01*
X47040411Y-83420542D01*
X46824688Y-83326464D01*
X46612786Y-83223911D01*
X46404918Y-83112962D01*
X46201295Y-82993695D01*
X46002129Y-82866189D01*
X45807631Y-82730523D01*
X45618014Y-82586776D01*
X45577225Y-82554277D01*
X45419174Y-82422372D01*
X45262999Y-82282431D01*
X45110195Y-82135908D01*
X44962260Y-81984256D01*
X44820688Y-81828926D01*
X44769916Y-81770458D01*
X44621970Y-81590535D01*
X44480848Y-81404185D01*
X44346815Y-81211849D01*
X44220138Y-81013965D01*
X44101080Y-80810976D01*
X43989909Y-80603320D01*
X43886890Y-80391437D01*
X43792289Y-80175769D01*
X43761140Y-80099281D01*
X43677467Y-79876944D01*
X43602878Y-79652112D01*
X43537383Y-79425065D01*
X43480990Y-79196086D01*
X43433708Y-78965456D01*
X43395547Y-78733457D01*
X43366514Y-78500370D01*
X43346620Y-78266476D01*
X43335873Y-78032058D01*
X43334809Y-77875000D01*
X43398159Y-77875000D01*
X43398238Y-77946995D01*
X43398513Y-78010805D01*
X43399044Y-78067738D01*
X43399892Y-78119104D01*
X43401116Y-78166212D01*
X43402775Y-78210370D01*
X43404931Y-78252888D01*
X43407643Y-78295074D01*
X43410970Y-78338239D01*
X43414973Y-78383689D01*
X43419711Y-78432736D01*
X43425245Y-78486687D01*
X43426823Y-78501692D01*
X43456322Y-78736147D01*
X43495062Y-78968690D01*
X43542935Y-79199066D01*
X43599833Y-79427021D01*
X43665649Y-79652300D01*
X43740272Y-79874650D01*
X43823596Y-80093816D01*
X43915513Y-80309543D01*
X44015914Y-80521579D01*
X44124691Y-80729669D01*
X44241736Y-80933557D01*
X44366940Y-81132991D01*
X44500197Y-81327716D01*
X44641396Y-81517477D01*
X44786007Y-81696754D01*
X44830103Y-81748775D01*
X44872657Y-81797779D01*
X44915017Y-81845224D01*
X44958534Y-81892570D01*
X45004557Y-81941279D01*
X45054435Y-81992808D01*
X45109519Y-82048619D01*
X45133035Y-82072193D01*
X45229040Y-82166636D01*
X45321706Y-82254486D01*
X45412730Y-82337200D01*
X45503812Y-82416233D01*
X45596650Y-82493040D01*
X45692941Y-82569079D01*
X45794385Y-82645804D01*
X45848675Y-82685685D01*
X46029738Y-82811998D01*
X46217466Y-82932324D01*
X46410979Y-83046233D01*
X46609401Y-83153295D01*
X46811853Y-83253079D01*
X47017457Y-83345155D01*
X47225334Y-83429092D01*
X47434607Y-83504462D01*
X47644397Y-83570832D01*
X47670944Y-83578570D01*
X47842549Y-83625691D01*
X48011546Y-83667106D01*
X48179533Y-83703079D01*
X48348105Y-83733874D01*
X48518862Y-83759758D01*
X48693400Y-83780995D01*
X48873317Y-83797850D01*
X49060209Y-83810587D01*
X49073879Y-83811347D01*
X49094782Y-83812117D01*
X49123995Y-83812645D01*
X49160335Y-83812946D01*
X49202622Y-83813035D01*
X49249673Y-83812926D01*
X49300306Y-83812634D01*
X49353339Y-83812174D01*
X49407590Y-83811561D01*
X49461878Y-83810810D01*
X49515020Y-83809936D01*
X49565834Y-83808953D01*
X49613139Y-83807876D01*
X49655752Y-83806720D01*
X49692491Y-83805500D01*
X49722176Y-83804231D01*
X49743299Y-83802952D01*
X49851306Y-83794003D01*
X49952452Y-83784211D01*
X50049359Y-83773261D01*
X50144648Y-83760833D01*
X50240939Y-83746609D01*
X50336757Y-83730970D01*
X50568264Y-83686810D01*
X50797528Y-83633486D01*
X51024265Y-83571127D01*
X51248193Y-83499860D01*
X51469029Y-83419812D01*
X51686489Y-83331111D01*
X51900291Y-83233884D01*
X52110153Y-83128259D01*
X52315790Y-83014364D01*
X52516921Y-82892325D01*
X52713262Y-82762271D01*
X52904531Y-82624329D01*
X53059542Y-82503686D01*
X53215163Y-82373724D01*
X53368236Y-82236723D01*
X53517154Y-82094236D01*
X53660310Y-81947818D01*
X53796096Y-81799024D01*
X53837557Y-81751361D01*
X53989311Y-81567570D01*
X54133234Y-81378459D01*
X54269230Y-81184186D01*
X54397202Y-80984914D01*
X54517050Y-80780803D01*
X54628679Y-80572014D01*
X54731990Y-80358707D01*
X54826885Y-80141043D01*
X54850032Y-80084096D01*
X54933981Y-79861786D01*
X55008864Y-79636801D01*
X55074625Y-79409376D01*
X55131208Y-79179742D01*
X55178557Y-78948134D01*
X55216614Y-78714784D01*
X55245324Y-78479925D01*
X55250378Y-78428103D01*
X55254846Y-78379274D01*
X55258659Y-78335319D01*
X55261868Y-78294936D01*
X55264524Y-78256823D01*
X55266677Y-78219677D01*
X55268379Y-78182195D01*
X55269681Y-78143076D01*
X55270632Y-78101017D01*
X55271284Y-78054715D01*
X55271688Y-78002867D01*
X55271894Y-77944173D01*
X55271953Y-77877328D01*
X55271954Y-77875000D01*
X55271898Y-77807868D01*
X55271697Y-77748929D01*
X55271301Y-77696879D01*
X55270657Y-77650417D01*
X55269717Y-77608240D01*
X55268428Y-77569046D01*
X55266740Y-77531532D01*
X55264602Y-77494395D01*
X55261963Y-77456334D01*
X55258773Y-77416045D01*
X55254980Y-77372227D01*
X55250534Y-77323577D01*
X55250378Y-77321897D01*
X55223801Y-77087402D01*
X55187923Y-76854476D01*
X55142850Y-76623409D01*
X55088690Y-76394491D01*
X55025549Y-76168011D01*
X54953536Y-75944261D01*
X54872756Y-75723528D01*
X54783317Y-75506104D01*
X54685327Y-75292278D01*
X54578892Y-75082339D01*
X54464119Y-74876578D01*
X54341115Y-74675284D01*
X54209989Y-74478747D01*
X54187856Y-74447187D01*
X54048129Y-74257538D01*
X53900717Y-74073386D01*
X53745831Y-73894956D01*
X53583682Y-73722469D01*
X53414480Y-73556151D01*
X53238437Y-73396224D01*
X53055762Y-73242912D01*
X53038178Y-73228785D01*
X52856071Y-73089030D01*
X52667480Y-72955989D01*
X52472901Y-72829940D01*
X52272831Y-72711163D01*
X52067767Y-72599936D01*
X51858206Y-72496537D01*
X51644645Y-72401246D01*
X51427580Y-72314340D01*
X51367000Y-72291824D01*
X51155167Y-72218944D01*
X50941205Y-72154431D01*
X50724558Y-72098167D01*
X50504665Y-72050034D01*
X50280970Y-72009914D01*
X50052914Y-71977688D01*
X49819938Y-71953237D01*
X49738552Y-71946602D01*
X49700332Y-71944230D01*
X49653948Y-71942214D01*
X49600726Y-71940555D01*
X49541989Y-71939251D01*
X49479064Y-71938303D01*
X49413274Y-71937712D01*
X49345946Y-71937476D01*
X49278402Y-71937596D01*
X49211970Y-71938073D01*
X49147973Y-71938905D01*
X49087737Y-71940094D01*
X49032585Y-71941639D01*
X48983844Y-71943539D01*
X48942839Y-71945796D01*
X48931449Y-71946602D01*
X48725247Y-71965167D01*
X48525402Y-71989275D01*
X48330376Y-72019193D01*
X48138631Y-72055189D01*
X47948629Y-72097529D01*
X47758833Y-72146480D01*
X47722052Y-72156724D01*
X47497896Y-72224797D01*
X47276363Y-72301878D01*
X47057845Y-72387762D01*
X46842734Y-72482243D01*
X46631422Y-72585115D01*
X46424302Y-72696172D01*
X46221766Y-72815208D01*
X46024206Y-72942017D01*
X45832014Y-73076392D01*
X45645584Y-73218129D01*
X45544624Y-73299994D01*
X45436262Y-73392412D01*
X45326680Y-73490694D01*
X45217677Y-73593092D01*
X45111053Y-73697858D01*
X45008606Y-73803242D01*
X44912135Y-73907497D01*
X44865043Y-73960552D01*
X44712614Y-74142095D01*
X44567904Y-74329015D01*
X44431027Y-74521053D01*
X44302094Y-74717953D01*
X44181219Y-74919456D01*
X44068513Y-75125306D01*
X43964090Y-75335245D01*
X43868062Y-75549015D01*
X43780542Y-75766361D01*
X43701642Y-75987023D01*
X43631474Y-76210745D01*
X43570152Y-76437270D01*
X43517788Y-76666339D01*
X43474494Y-76897697D01*
X43440383Y-77131084D01*
X43426823Y-77248309D01*
X43421072Y-77303751D01*
X43416133Y-77353947D01*
X43411944Y-77400208D01*
X43408447Y-77443841D01*
X43405581Y-77486156D01*
X43403286Y-77528462D01*
X43401503Y-77572067D01*
X43400172Y-77618281D01*
X43399232Y-77668413D01*
X43398624Y-77723772D01*
X43398288Y-77785666D01*
X43398164Y-77855405D01*
X43398159Y-77875000D01*
X43334809Y-77875000D01*
X43334282Y-77797398D01*
X43341856Y-77562775D01*
X43358604Y-77328473D01*
X43384535Y-77094772D01*
X43419658Y-76861955D01*
X43463981Y-76630303D01*
X43517515Y-76400097D01*
X43580268Y-76171619D01*
X43630893Y-76009168D01*
X43709524Y-75784150D01*
X43796866Y-75562823D01*
X43892793Y-75345403D01*
X43997180Y-75132104D01*
X44109901Y-74923141D01*
X44230832Y-74718728D01*
X44359846Y-74519079D01*
X44496819Y-74324409D01*
X44641625Y-74134934D01*
X44794140Y-73950866D01*
X44907683Y-73822869D01*
X44929929Y-73798959D01*
X44957875Y-73769667D01*
X44990350Y-73736165D01*
X45026181Y-73699623D01*
X45064199Y-73661214D01*
X45103231Y-73622109D01*
X45142106Y-73583479D01*
X45179653Y-73546495D01*
X45214699Y-73512330D01*
X45246075Y-73482154D01*
X45272608Y-73457139D01*
X45282869Y-73447683D01*
X45462886Y-73289787D01*
X45648409Y-73139540D01*
X45839222Y-72997064D01*
X46035109Y-72862480D01*
X46235853Y-72735908D01*
X46441239Y-72617471D01*
X46651050Y-72507289D01*
X46865071Y-72405483D01*
X47083084Y-72312174D01*
X47304874Y-72227484D01*
X47530224Y-72151534D01*
X47673318Y-72108402D01*
X47904269Y-72046848D01*
X48137326Y-71994552D01*
X48372449Y-71951520D01*
X48609599Y-71917760D01*
X48822253Y-71895525D01*
X48977316Y-71884405D01*
X49138146Y-71877360D01*
X49301924Y-71874404D01*
X49465835Y-71875550D01*
G37*
X49465835Y-71875550D02*
X49627060Y-71880813D01*
X49782783Y-71890206D01*
X49790776Y-71890815D01*
X50029112Y-71913902D01*
X50265523Y-71946245D01*
X50499789Y-71987762D01*
X50731690Y-72038373D01*
X50961006Y-72097997D01*
X51187517Y-72166552D01*
X51411003Y-72243958D01*
X51631245Y-72330134D01*
X51848022Y-72424999D01*
X52061114Y-72528471D01*
X52270302Y-72640471D01*
X52475365Y-72760916D01*
X52676084Y-72889727D01*
X52867262Y-73023200D01*
X53052680Y-73163792D01*
X53233259Y-73312330D01*
X53408485Y-73468303D01*
X53577842Y-73631202D01*
X53740815Y-73800518D01*
X53896888Y-73975743D01*
X54045546Y-74156365D01*
X54145363Y-74286336D01*
X54283693Y-74479701D01*
X54414051Y-74678100D01*
X54536317Y-74881252D01*
X54650370Y-75088874D01*
X54756088Y-75300686D01*
X54853351Y-75516406D01*
X54942038Y-75735753D01*
X55022028Y-75958446D01*
X55093199Y-76184202D01*
X55155432Y-76412742D01*
X55208605Y-76643783D01*
X55248312Y-76851879D01*
X55269238Y-76980971D01*
X55287178Y-77108771D01*
X55302432Y-77237844D01*
X55315298Y-77370754D01*
X55326075Y-77510063D01*
X55327473Y-77530795D01*
X55329050Y-77560934D01*
X55330391Y-77599219D01*
X55331494Y-77644320D01*
X55332361Y-77694906D01*
X55332989Y-77749648D01*
X55333381Y-77807216D01*
X55333534Y-77866279D01*
X55333450Y-77925507D01*
X55333129Y-77983570D01*
X55332569Y-78039139D01*
X55331771Y-78090882D01*
X55330736Y-78137470D01*
X55329462Y-78177573D01*
X55327951Y-78209861D01*
X55327517Y-78216832D01*
X55311553Y-78417307D01*
X55290647Y-78610964D01*
X55264580Y-78799224D01*
X55233137Y-78983503D01*
X55196100Y-79165222D01*
X55157771Y-79327891D01*
X55094807Y-79559806D01*
X55023110Y-79788027D01*
X54942748Y-80012429D01*
X54853788Y-80232886D01*
X54756297Y-80449270D01*
X54650343Y-80661455D01*
X54535994Y-80869315D01*
X54413316Y-81072723D01*
X54282378Y-81271553D01*
X54143246Y-81465679D01*
X53995988Y-81654974D01*
X53840671Y-81839311D01*
X53786922Y-81899852D01*
X53763029Y-81925893D01*
X53733474Y-81957263D01*
X53699402Y-81992807D01*
X53661962Y-82031370D01*
X53622299Y-82071796D01*
X53581562Y-82112931D01*
X53540897Y-82153620D01*
X53501450Y-82192709D01*
X53464369Y-82229041D01*
X53430802Y-82261462D01*
X53401893Y-82288818D01*
X53387131Y-82302439D01*
X53205777Y-82461230D01*
X53019357Y-82612037D01*
X52828061Y-82754779D01*
X52632082Y-82889377D01*
X52431611Y-83015753D01*
X52226841Y-83133827D01*
X52017963Y-83243520D01*
X51805169Y-83344753D01*
X51588651Y-83437447D01*
X51368601Y-83521523D01*
X51145211Y-83596900D01*
X50918672Y-83663502D01*
X50689176Y-83721247D01*
X50456916Y-83770057D01*
X50222083Y-83809853D01*
X49984868Y-83840556D01*
X49745465Y-83862087D01*
X49584253Y-83871327D01*
X49554828Y-83872361D01*
X49517823Y-83873234D01*
X49474927Y-83873941D01*
X49427824Y-83874478D01*
X49378201Y-83874838D01*
X49327745Y-83875016D01*
X49278142Y-83875005D01*
X49231078Y-83874802D01*
X49188240Y-83874400D01*
X49151314Y-83873793D01*
X49121987Y-83872976D01*
X49118982Y-83872861D01*
X48878386Y-83858605D01*
X48639707Y-83835165D01*
X48403157Y-83802619D01*
X48168947Y-83761047D01*
X47937290Y-83710527D01*
X47708396Y-83651137D01*
X47482477Y-83582957D01*
X47259745Y-83506066D01*
X47040411Y-83420542D01*
X46824688Y-83326464D01*
X46612786Y-83223911D01*
X46404918Y-83112962D01*
X46201295Y-82993695D01*
X46002129Y-82866189D01*
X45807631Y-82730523D01*
X45618014Y-82586776D01*
X45577225Y-82554277D01*
X45419174Y-82422372D01*
X45262999Y-82282431D01*
X45110195Y-82135908D01*
X44962260Y-81984256D01*
X44820688Y-81828926D01*
X44769916Y-81770458D01*
X44621970Y-81590535D01*
X44480848Y-81404185D01*
X44346815Y-81211849D01*
X44220138Y-81013965D01*
X44101080Y-80810976D01*
X43989909Y-80603320D01*
X43886890Y-80391437D01*
X43792289Y-80175769D01*
X43761140Y-80099281D01*
X43677467Y-79876944D01*
X43602878Y-79652112D01*
X43537383Y-79425065D01*
X43480990Y-79196086D01*
X43433708Y-78965456D01*
X43395547Y-78733457D01*
X43366514Y-78500370D01*
X43346620Y-78266476D01*
X43335873Y-78032058D01*
X43334809Y-77875000D01*
X43398159Y-77875000D01*
X43398238Y-77946995D01*
X43398513Y-78010805D01*
X43399044Y-78067738D01*
X43399892Y-78119104D01*
X43401116Y-78166212D01*
X43402775Y-78210370D01*
X43404931Y-78252888D01*
X43407643Y-78295074D01*
X43410970Y-78338239D01*
X43414973Y-78383689D01*
X43419711Y-78432736D01*
X43425245Y-78486687D01*
X43426823Y-78501692D01*
X43456322Y-78736147D01*
X43495062Y-78968690D01*
X43542935Y-79199066D01*
X43599833Y-79427021D01*
X43665649Y-79652300D01*
X43740272Y-79874650D01*
X43823596Y-80093816D01*
X43915513Y-80309543D01*
X44015914Y-80521579D01*
X44124691Y-80729669D01*
X44241736Y-80933557D01*
X44366940Y-81132991D01*
X44500197Y-81327716D01*
X44641396Y-81517477D01*
X44786007Y-81696754D01*
X44830103Y-81748775D01*
X44872657Y-81797779D01*
X44915017Y-81845224D01*
X44958534Y-81892570D01*
X45004557Y-81941279D01*
X45054435Y-81992808D01*
X45109519Y-82048619D01*
X45133035Y-82072193D01*
X45229040Y-82166636D01*
X45321706Y-82254486D01*
X45412730Y-82337200D01*
X45503812Y-82416233D01*
X45596650Y-82493040D01*
X45692941Y-82569079D01*
X45794385Y-82645804D01*
X45848675Y-82685685D01*
X46029738Y-82811998D01*
X46217466Y-82932324D01*
X46410979Y-83046233D01*
X46609401Y-83153295D01*
X46811853Y-83253079D01*
X47017457Y-83345155D01*
X47225334Y-83429092D01*
X47434607Y-83504462D01*
X47644397Y-83570832D01*
X47670944Y-83578570D01*
X47842549Y-83625691D01*
X48011546Y-83667106D01*
X48179533Y-83703079D01*
X48348105Y-83733874D01*
X48518862Y-83759758D01*
X48693400Y-83780995D01*
X48873317Y-83797850D01*
X49060209Y-83810587D01*
X49073879Y-83811347D01*
X49094782Y-83812117D01*
X49123995Y-83812645D01*
X49160335Y-83812946D01*
X49202622Y-83813035D01*
X49249673Y-83812926D01*
X49300306Y-83812634D01*
X49353339Y-83812174D01*
X49407590Y-83811561D01*
X49461878Y-83810810D01*
X49515020Y-83809936D01*
X49565834Y-83808953D01*
X49613139Y-83807876D01*
X49655752Y-83806720D01*
X49692491Y-83805500D01*
X49722176Y-83804231D01*
X49743299Y-83802952D01*
X49851306Y-83794003D01*
X49952452Y-83784211D01*
X50049359Y-83773261D01*
X50144648Y-83760833D01*
X50240939Y-83746609D01*
X50336757Y-83730970D01*
X50568264Y-83686810D01*
X50797528Y-83633486D01*
X51024265Y-83571127D01*
X51248193Y-83499860D01*
X51469029Y-83419812D01*
X51686489Y-83331111D01*
X51900291Y-83233884D01*
X52110153Y-83128259D01*
X52315790Y-83014364D01*
X52516921Y-82892325D01*
X52713262Y-82762271D01*
X52904531Y-82624329D01*
X53059542Y-82503686D01*
X53215163Y-82373724D01*
X53368236Y-82236723D01*
X53517154Y-82094236D01*
X53660310Y-81947818D01*
X53796096Y-81799024D01*
X53837557Y-81751361D01*
X53989311Y-81567570D01*
X54133234Y-81378459D01*
X54269230Y-81184186D01*
X54397202Y-80984914D01*
X54517050Y-80780803D01*
X54628679Y-80572014D01*
X54731990Y-80358707D01*
X54826885Y-80141043D01*
X54850032Y-80084096D01*
X54933981Y-79861786D01*
X55008864Y-79636801D01*
X55074625Y-79409376D01*
X55131208Y-79179742D01*
X55178557Y-78948134D01*
X55216614Y-78714784D01*
X55245324Y-78479925D01*
X55250378Y-78428103D01*
X55254846Y-78379274D01*
X55258659Y-78335319D01*
X55261868Y-78294936D01*
X55264524Y-78256823D01*
X55266677Y-78219677D01*
X55268379Y-78182195D01*
X55269681Y-78143076D01*
X55270632Y-78101017D01*
X55271284Y-78054715D01*
X55271688Y-78002867D01*
X55271894Y-77944173D01*
X55271953Y-77877328D01*
X55271954Y-77875000D01*
X55271898Y-77807868D01*
X55271697Y-77748929D01*
X55271301Y-77696879D01*
X55270657Y-77650417D01*
X55269717Y-77608240D01*
X55268428Y-77569046D01*
X55266740Y-77531532D01*
X55264602Y-77494395D01*
X55261963Y-77456334D01*
X55258773Y-77416045D01*
X55254980Y-77372227D01*
X55250534Y-77323577D01*
X55250378Y-77321897D01*
X55223801Y-77087402D01*
X55187923Y-76854476D01*
X55142850Y-76623409D01*
X55088690Y-76394491D01*
X55025549Y-76168011D01*
X54953536Y-75944261D01*
X54872756Y-75723528D01*
X54783317Y-75506104D01*
X54685327Y-75292278D01*
X54578892Y-75082339D01*
X54464119Y-74876578D01*
X54341115Y-74675284D01*
X54209989Y-74478747D01*
X54187856Y-74447187D01*
X54048129Y-74257538D01*
X53900717Y-74073386D01*
X53745831Y-73894956D01*
X53583682Y-73722469D01*
X53414480Y-73556151D01*
X53238437Y-73396224D01*
X53055762Y-73242912D01*
X53038178Y-73228785D01*
X52856071Y-73089030D01*
X52667480Y-72955989D01*
X52472901Y-72829940D01*
X52272831Y-72711163D01*
X52067767Y-72599936D01*
X51858206Y-72496537D01*
X51644645Y-72401246D01*
X51427580Y-72314340D01*
X51367000Y-72291824D01*
X51155167Y-72218944D01*
X50941205Y-72154431D01*
X50724558Y-72098167D01*
X50504665Y-72050034D01*
X50280970Y-72009914D01*
X50052914Y-71977688D01*
X49819938Y-71953237D01*
X49738552Y-71946602D01*
X49700332Y-71944230D01*
X49653948Y-71942214D01*
X49600726Y-71940555D01*
X49541989Y-71939251D01*
X49479064Y-71938303D01*
X49413274Y-71937712D01*
X49345946Y-71937476D01*
X49278402Y-71937596D01*
X49211970Y-71938073D01*
X49147973Y-71938905D01*
X49087737Y-71940094D01*
X49032585Y-71941639D01*
X48983844Y-71943539D01*
X48942839Y-71945796D01*
X48931449Y-71946602D01*
X48725247Y-71965167D01*
X48525402Y-71989275D01*
X48330376Y-72019193D01*
X48138631Y-72055189D01*
X47948629Y-72097529D01*
X47758833Y-72146480D01*
X47722052Y-72156724D01*
X47497896Y-72224797D01*
X47276363Y-72301878D01*
X47057845Y-72387762D01*
X46842734Y-72482243D01*
X46631422Y-72585115D01*
X46424302Y-72696172D01*
X46221766Y-72815208D01*
X46024206Y-72942017D01*
X45832014Y-73076392D01*
X45645584Y-73218129D01*
X45544624Y-73299994D01*
X45436262Y-73392412D01*
X45326680Y-73490694D01*
X45217677Y-73593092D01*
X45111053Y-73697858D01*
X45008606Y-73803242D01*
X44912135Y-73907497D01*
X44865043Y-73960552D01*
X44712614Y-74142095D01*
X44567904Y-74329015D01*
X44431027Y-74521053D01*
X44302094Y-74717953D01*
X44181219Y-74919456D01*
X44068513Y-75125306D01*
X43964090Y-75335245D01*
X43868062Y-75549015D01*
X43780542Y-75766361D01*
X43701642Y-75987023D01*
X43631474Y-76210745D01*
X43570152Y-76437270D01*
X43517788Y-76666339D01*
X43474494Y-76897697D01*
X43440383Y-77131084D01*
X43426823Y-77248309D01*
X43421072Y-77303751D01*
X43416133Y-77353947D01*
X43411944Y-77400208D01*
X43408447Y-77443841D01*
X43405581Y-77486156D01*
X43403286Y-77528462D01*
X43401503Y-77572067D01*
X43400172Y-77618281D01*
X43399232Y-77668413D01*
X43398624Y-77723772D01*
X43398288Y-77785666D01*
X43398164Y-77855405D01*
X43398159Y-77875000D01*
X43334809Y-77875000D01*
X43334282Y-77797398D01*
X43341856Y-77562775D01*
X43358604Y-77328473D01*
X43384535Y-77094772D01*
X43419658Y-76861955D01*
X43463981Y-76630303D01*
X43517515Y-76400097D01*
X43580268Y-76171619D01*
X43630893Y-76009168D01*
X43709524Y-75784150D01*
X43796866Y-75562823D01*
X43892793Y-75345403D01*
X43997180Y-75132104D01*
X44109901Y-74923141D01*
X44230832Y-74718728D01*
X44359846Y-74519079D01*
X44496819Y-74324409D01*
X44641625Y-74134934D01*
X44794140Y-73950866D01*
X44907683Y-73822869D01*
X44929929Y-73798959D01*
X44957875Y-73769667D01*
X44990350Y-73736165D01*
X45026181Y-73699623D01*
X45064199Y-73661214D01*
X45103231Y-73622109D01*
X45142106Y-73583479D01*
X45179653Y-73546495D01*
X45214699Y-73512330D01*
X45246075Y-73482154D01*
X45272608Y-73457139D01*
X45282869Y-73447683D01*
X45462886Y-73289787D01*
X45648409Y-73139540D01*
X45839222Y-72997064D01*
X46035109Y-72862480D01*
X46235853Y-72735908D01*
X46441239Y-72617471D01*
X46651050Y-72507289D01*
X46865071Y-72405483D01*
X47083084Y-72312174D01*
X47304874Y-72227484D01*
X47530224Y-72151534D01*
X47673318Y-72108402D01*
X47904269Y-72046848D01*
X48137326Y-71994552D01*
X48372449Y-71951520D01*
X48609599Y-71917760D01*
X48822253Y-71895525D01*
X48977316Y-71884405D01*
X49138146Y-71877360D01*
X49301924Y-71874404D01*
X49465835Y-71875550D01*
D12*
%TO.C,C4*%
X42635000Y-110881000D02*
X42635000Y-112139000D01*
X40795000Y-110881000D02*
X40795000Y-112139000D01*
%TO.C,C5*%
X61685000Y-110881000D02*
X61685000Y-112139000D01*
X59845000Y-110881000D02*
X59845000Y-112139000D01*
%TO.C,C8*%
X59845000Y-95629000D02*
X59845000Y-94371000D01*
X61685000Y-95629000D02*
X61685000Y-94371000D01*
%TO.C,IC1*%
X69385000Y-87340000D02*
G75*
G02*
X67385000Y-87340000I-1000000J0D01*
G01*
X73635000Y-87280000D02*
X63135000Y-87280000D01*
X73635000Y-105300000D02*
X73635000Y-87280000D01*
X63135000Y-105300000D02*
X73635000Y-105300000D01*
X63135000Y-87280000D02*
X63135000Y-105300000D01*
X70635000Y-87340000D02*
X69385000Y-87340000D01*
X70635000Y-105240000D02*
X70635000Y-87340000D01*
X66135000Y-105240000D02*
X70635000Y-105240000D01*
X66135000Y-87340000D02*
X66135000Y-105240000D01*
X67385000Y-87340000D02*
X66135000Y-87340000D01*
%TO.C,C6*%
X40795000Y-95669000D02*
X40795000Y-94411000D01*
X42635000Y-95669000D02*
X42635000Y-94411000D01*
%TO.C,D2*%
X56775000Y-49865000D02*
X56775000Y-49735000D01*
X56775000Y-49735000D02*
X62215000Y-49735000D01*
X62215000Y-49735000D02*
X62215000Y-49865000D01*
X56775000Y-52545000D02*
X56775000Y-52675000D01*
X56775000Y-52675000D02*
X62215000Y-52675000D01*
X62215000Y-52675000D02*
X62215000Y-52545000D01*
X57675000Y-49735000D02*
X57675000Y-52675000D01*
X57795000Y-49735000D02*
X57795000Y-52675000D01*
X57555000Y-49735000D02*
X57555000Y-52675000D01*
%TO.C,R6*%
X61305000Y-72060000D02*
X61305000Y-72390000D01*
X67845000Y-72060000D02*
X61305000Y-72060000D01*
X67845000Y-72390000D02*
X67845000Y-72060000D01*
X61305000Y-74800000D02*
X61305000Y-74470000D01*
X67845000Y-74800000D02*
X61305000Y-74800000D01*
X67845000Y-74470000D02*
X67845000Y-74800000D01*
%TO.C,R4*%
X67845000Y-79245000D02*
X67845000Y-78915000D01*
X61305000Y-79245000D02*
X67845000Y-79245000D01*
X61305000Y-78915000D02*
X61305000Y-79245000D01*
X67845000Y-76505000D02*
X67845000Y-76835000D01*
X61305000Y-76505000D02*
X67845000Y-76505000D01*
X61305000Y-76835000D02*
X61305000Y-76505000D01*
%TO.C,C9*%
X77884000Y-94670000D02*
X76626000Y-94670000D01*
X77884000Y-92830000D02*
X76626000Y-92830000D01*
%TO.C,C2*%
X49685000Y-51205000D02*
G75*
G03*
X49685000Y-51205000I-2620000J0D01*
G01*
X47065000Y-50165000D02*
X47065000Y-48625000D01*
X47065000Y-53785000D02*
X47065000Y-52245000D01*
X47025000Y-50165000D02*
X47025000Y-48625000D01*
X47025000Y-53785000D02*
X47025000Y-52245000D01*
X46985000Y-53784000D02*
X46985000Y-52245000D01*
X46985000Y-50165000D02*
X46985000Y-48626000D01*
X46945000Y-53783000D02*
X46945000Y-52245000D01*
X46945000Y-50165000D02*
X46945000Y-48627000D01*
X46905000Y-53781000D02*
X46905000Y-52245000D01*
X46905000Y-50165000D02*
X46905000Y-48629000D01*
X46865000Y-53778000D02*
X46865000Y-52245000D01*
X46865000Y-50165000D02*
X46865000Y-48632000D01*
X46825000Y-53774000D02*
X46825000Y-52245000D01*
X46825000Y-50165000D02*
X46825000Y-48636000D01*
X46785000Y-53770000D02*
X46785000Y-52245000D01*
X46785000Y-50165000D02*
X46785000Y-48640000D01*
X46745000Y-53766000D02*
X46745000Y-52245000D01*
X46745000Y-50165000D02*
X46745000Y-48644000D01*
X46705000Y-53761000D02*
X46705000Y-52245000D01*
X46705000Y-50165000D02*
X46705000Y-48649000D01*
X46665000Y-53755000D02*
X46665000Y-52245000D01*
X46665000Y-50165000D02*
X46665000Y-48655000D01*
X46625000Y-53748000D02*
X46625000Y-52245000D01*
X46625000Y-50165000D02*
X46625000Y-48662000D01*
X46585000Y-53741000D02*
X46585000Y-52245000D01*
X46585000Y-50165000D02*
X46585000Y-48669000D01*
X46545000Y-53733000D02*
X46545000Y-52245000D01*
X46545000Y-50165000D02*
X46545000Y-48677000D01*
X46505000Y-53725000D02*
X46505000Y-52245000D01*
X46505000Y-50165000D02*
X46505000Y-48685000D01*
X46465000Y-53716000D02*
X46465000Y-52245000D01*
X46465000Y-50165000D02*
X46465000Y-48694000D01*
X46425000Y-53706000D02*
X46425000Y-52245000D01*
X46425000Y-50165000D02*
X46425000Y-48704000D01*
X46385000Y-53696000D02*
X46385000Y-52245000D01*
X46385000Y-50165000D02*
X46385000Y-48714000D01*
X46344000Y-53685000D02*
X46344000Y-52245000D01*
X46344000Y-50165000D02*
X46344000Y-48725000D01*
X46304000Y-53673000D02*
X46304000Y-52245000D01*
X46304000Y-50165000D02*
X46304000Y-48737000D01*
X46264000Y-53660000D02*
X46264000Y-52245000D01*
X46264000Y-50165000D02*
X46264000Y-48750000D01*
X46224000Y-53647000D02*
X46224000Y-52245000D01*
X46224000Y-50165000D02*
X46224000Y-48763000D01*
X46184000Y-53633000D02*
X46184000Y-52245000D01*
X46184000Y-50165000D02*
X46184000Y-48777000D01*
X46144000Y-53619000D02*
X46144000Y-52245000D01*
X46144000Y-50165000D02*
X46144000Y-48791000D01*
X46104000Y-53603000D02*
X46104000Y-52245000D01*
X46104000Y-50165000D02*
X46104000Y-48807000D01*
X46064000Y-53587000D02*
X46064000Y-52245000D01*
X46064000Y-50165000D02*
X46064000Y-48823000D01*
X46024000Y-53570000D02*
X46024000Y-52245000D01*
X46024000Y-50165000D02*
X46024000Y-48840000D01*
X45984000Y-53553000D02*
X45984000Y-52245000D01*
X45984000Y-50165000D02*
X45984000Y-48857000D01*
X45944000Y-53534000D02*
X45944000Y-52245000D01*
X45944000Y-50165000D02*
X45944000Y-48876000D01*
X45904000Y-53515000D02*
X45904000Y-52245000D01*
X45904000Y-50165000D02*
X45904000Y-48895000D01*
X45864000Y-53495000D02*
X45864000Y-52245000D01*
X45864000Y-50165000D02*
X45864000Y-48915000D01*
X45824000Y-53473000D02*
X45824000Y-52245000D01*
X45824000Y-50165000D02*
X45824000Y-48937000D01*
X45784000Y-53452000D02*
X45784000Y-52245000D01*
X45784000Y-50165000D02*
X45784000Y-48958000D01*
X45744000Y-53429000D02*
X45744000Y-52245000D01*
X45744000Y-50165000D02*
X45744000Y-48981000D01*
X45704000Y-53405000D02*
X45704000Y-52245000D01*
X45704000Y-50165000D02*
X45704000Y-49005000D01*
X45664000Y-53380000D02*
X45664000Y-52245000D01*
X45664000Y-50165000D02*
X45664000Y-49030000D01*
X45624000Y-53354000D02*
X45624000Y-52245000D01*
X45624000Y-50165000D02*
X45624000Y-49056000D01*
X45584000Y-53327000D02*
X45584000Y-52245000D01*
X45584000Y-50165000D02*
X45584000Y-49083000D01*
X45544000Y-53300000D02*
X45544000Y-52245000D01*
X45544000Y-50165000D02*
X45544000Y-49110000D01*
X45504000Y-53270000D02*
X45504000Y-52245000D01*
X45504000Y-50165000D02*
X45504000Y-49140000D01*
X45464000Y-53240000D02*
X45464000Y-52245000D01*
X45464000Y-50165000D02*
X45464000Y-49170000D01*
X45424000Y-53209000D02*
X45424000Y-52245000D01*
X45424000Y-50165000D02*
X45424000Y-49201000D01*
X45384000Y-53176000D02*
X45384000Y-52245000D01*
X45384000Y-50165000D02*
X45384000Y-49234000D01*
X45344000Y-53142000D02*
X45344000Y-52245000D01*
X45344000Y-50165000D02*
X45344000Y-49268000D01*
X45304000Y-53106000D02*
X45304000Y-52245000D01*
X45304000Y-50165000D02*
X45304000Y-49304000D01*
X45264000Y-53069000D02*
X45264000Y-52245000D01*
X45264000Y-50165000D02*
X45264000Y-49341000D01*
X45224000Y-53031000D02*
X45224000Y-52245000D01*
X45224000Y-50165000D02*
X45224000Y-49379000D01*
X45184000Y-52990000D02*
X45184000Y-52245000D01*
X45184000Y-50165000D02*
X45184000Y-49420000D01*
X45144000Y-52948000D02*
X45144000Y-52245000D01*
X45144000Y-50165000D02*
X45144000Y-49462000D01*
X45104000Y-52904000D02*
X45104000Y-52245000D01*
X45104000Y-50165000D02*
X45104000Y-49506000D01*
X45064000Y-52858000D02*
X45064000Y-52245000D01*
X45064000Y-50165000D02*
X45064000Y-49552000D01*
X45024000Y-52810000D02*
X45024000Y-49600000D01*
X44984000Y-52759000D02*
X44984000Y-49651000D01*
X44944000Y-52705000D02*
X44944000Y-49705000D01*
X44904000Y-52648000D02*
X44904000Y-49762000D01*
X44864000Y-52588000D02*
X44864000Y-49822000D01*
X44824000Y-52524000D02*
X44824000Y-49886000D01*
X44784000Y-52456000D02*
X44784000Y-49954000D01*
X44744000Y-52383000D02*
X44744000Y-50027000D01*
X44704000Y-52303000D02*
X44704000Y-50107000D01*
X44664000Y-52216000D02*
X44664000Y-50194000D01*
X44624000Y-52120000D02*
X44624000Y-50290000D01*
X44584000Y-52010000D02*
X44584000Y-50400000D01*
X44544000Y-51882000D02*
X44544000Y-50528000D01*
X44504000Y-51723000D02*
X44504000Y-50687000D01*
X44464000Y-51489000D02*
X44464000Y-50921000D01*
X49869775Y-52680000D02*
X49369775Y-52680000D01*
X49619775Y-52930000D02*
X49619775Y-52430000D01*
%TO.C,C7*%
X56035000Y-98169000D02*
X56035000Y-96911000D01*
X57875000Y-98169000D02*
X57875000Y-96911000D01*
%TO.C,J1*%
X67520000Y-64175000D02*
X67520000Y-43315000D01*
X67520000Y-43315000D02*
X76870000Y-43315000D01*
X76870000Y-43315000D02*
X76870000Y-64175000D01*
X76870000Y-64175000D02*
X67520000Y-64175000D01*
X76615000Y-63925000D02*
X67765000Y-63925000D01*
X67765000Y-63925000D02*
X67765000Y-43575000D01*
X67765000Y-43575000D02*
X76615000Y-43575000D01*
X76615000Y-43575000D02*
X76615000Y-63925000D01*
X76615000Y-63925000D02*
X76065000Y-63375000D01*
X76065000Y-63375000D02*
X68315000Y-63375000D01*
X68315000Y-63375000D02*
X67765000Y-63925000D01*
X68315000Y-63375000D02*
X68315000Y-44125000D01*
X68315000Y-44125000D02*
X67765000Y-43575000D01*
X68315000Y-44125000D02*
X76065000Y-44125000D01*
X76065000Y-44125000D02*
X76565000Y-43625000D01*
X76065000Y-44125000D02*
X76065000Y-51475000D01*
X76065000Y-51495000D02*
X76575000Y-51495000D01*
X76565000Y-55995000D02*
X76085000Y-55995000D01*
X76065000Y-55995000D02*
X76065000Y-63375000D01*
%TO.C,R2*%
X49430000Y-127505000D02*
X49430000Y-127175000D01*
X42890000Y-127505000D02*
X49430000Y-127505000D01*
X42890000Y-127175000D02*
X42890000Y-127505000D01*
X49430000Y-124765000D02*
X49430000Y-125095000D01*
X42890000Y-124765000D02*
X49430000Y-124765000D01*
X42890000Y-125095000D02*
X42890000Y-124765000D01*
%TO.C,R3*%
X67845000Y-83690000D02*
X67845000Y-83360000D01*
X61305000Y-83690000D02*
X67845000Y-83690000D01*
X61305000Y-83360000D02*
X61305000Y-83690000D01*
X67845000Y-80950000D02*
X67845000Y-81280000D01*
X61305000Y-80950000D02*
X67845000Y-80950000D01*
X61305000Y-81280000D02*
X61305000Y-80950000D01*
%TO.C,R1*%
X40980000Y-154170000D02*
X41310000Y-154170000D01*
X40980000Y-147630000D02*
X40980000Y-154170000D01*
X41310000Y-147630000D02*
X40980000Y-147630000D01*
X43720000Y-154170000D02*
X43390000Y-154170000D01*
X43720000Y-147630000D02*
X43720000Y-154170000D01*
X43390000Y-147630000D02*
X43720000Y-147630000D01*
%TO.C,D3*%
X62215000Y-60165000D02*
X62215000Y-60295000D01*
X62215000Y-60295000D02*
X56775000Y-60295000D01*
X56775000Y-60295000D02*
X56775000Y-60165000D01*
X62215000Y-57485000D02*
X62215000Y-57355000D01*
X62215000Y-57355000D02*
X56775000Y-57355000D01*
X56775000Y-57355000D02*
X56775000Y-57485000D01*
X61315000Y-60295000D02*
X61315000Y-57355000D01*
X61195000Y-60295000D02*
X61195000Y-57355000D01*
X61435000Y-60295000D02*
X61435000Y-57355000D01*
%TO.C,DAC2*%
X69385000Y-108930000D02*
G75*
G02*
X67385000Y-108930000I-1000000J0D01*
G01*
X73635000Y-108870000D02*
X63135000Y-108870000D01*
X73635000Y-119270000D02*
X73635000Y-108870000D01*
X63135000Y-119270000D02*
X73635000Y-119270000D01*
X63135000Y-108870000D02*
X63135000Y-119270000D01*
X70635000Y-108930000D02*
X69385000Y-108930000D01*
X70635000Y-119210000D02*
X70635000Y-108930000D01*
X66135000Y-119210000D02*
X70635000Y-119210000D01*
X66135000Y-108930000D02*
X66135000Y-119210000D01*
X67385000Y-108930000D02*
X66135000Y-108930000D01*
%TO.C,DAC1*%
X50335000Y-108930000D02*
G75*
G02*
X48335000Y-108930000I-1000000J0D01*
G01*
X54585000Y-108870000D02*
X44085000Y-108870000D01*
X54585000Y-119270000D02*
X54585000Y-108870000D01*
X44085000Y-119270000D02*
X54585000Y-119270000D01*
X44085000Y-108870000D02*
X44085000Y-119270000D01*
X51585000Y-108930000D02*
X50335000Y-108930000D01*
X51585000Y-119210000D02*
X51585000Y-108930000D01*
X47085000Y-119210000D02*
X51585000Y-119210000D01*
X47085000Y-108930000D02*
X47085000Y-119210000D01*
X48335000Y-108930000D02*
X47085000Y-108930000D01*
%TO.C,A1*%
X63940000Y-172490000D02*
X63940000Y-162330000D01*
X71560000Y-172490000D02*
X63940000Y-172490000D01*
X71560000Y-162330000D02*
X71560000Y-172490000D01*
X63940000Y-162330000D02*
X71560000Y-162330000D01*
X61400000Y-131850000D02*
X61400000Y-129310000D01*
X61400000Y-129310000D02*
X58730000Y-129310000D01*
X58730000Y-131850000D02*
X58730000Y-170080000D01*
X58730000Y-126640000D02*
X58730000Y-129310000D01*
X74100000Y-129310000D02*
X76770000Y-129310000D01*
X74100000Y-129310000D02*
X74100000Y-167410000D01*
X74100000Y-167410000D02*
X76770000Y-167410000D01*
X61400000Y-131850000D02*
X58730000Y-131850000D01*
X61400000Y-131850000D02*
X61400000Y-167410000D01*
X61400000Y-167410000D02*
X58730000Y-167410000D01*
X58730000Y-170080000D02*
X76770000Y-170080000D01*
X76770000Y-170080000D02*
X76770000Y-126640000D01*
X76770000Y-126640000D02*
X58730000Y-126640000D01*
%TO.C,C1*%
X48091000Y-129281000D02*
X49349000Y-129281000D01*
X48091000Y-131121000D02*
X49349000Y-131121000D01*
%TO.C,C3*%
X49685000Y-58825000D02*
G75*
G03*
X49685000Y-58825000I-2620000J0D01*
G01*
X47065000Y-59865000D02*
X47065000Y-61405000D01*
X47065000Y-56245000D02*
X47065000Y-57785000D01*
X47105000Y-59865000D02*
X47105000Y-61405000D01*
X47105000Y-56245000D02*
X47105000Y-57785000D01*
X47145000Y-56246000D02*
X47145000Y-57785000D01*
X47145000Y-59865000D02*
X47145000Y-61404000D01*
X47185000Y-56247000D02*
X47185000Y-57785000D01*
X47185000Y-59865000D02*
X47185000Y-61403000D01*
X47225000Y-56249000D02*
X47225000Y-57785000D01*
X47225000Y-59865000D02*
X47225000Y-61401000D01*
X47265000Y-56252000D02*
X47265000Y-57785000D01*
X47265000Y-59865000D02*
X47265000Y-61398000D01*
X47305000Y-56256000D02*
X47305000Y-57785000D01*
X47305000Y-59865000D02*
X47305000Y-61394000D01*
X47345000Y-56260000D02*
X47345000Y-57785000D01*
X47345000Y-59865000D02*
X47345000Y-61390000D01*
X47385000Y-56264000D02*
X47385000Y-57785000D01*
X47385000Y-59865000D02*
X47385000Y-61386000D01*
X47425000Y-56269000D02*
X47425000Y-57785000D01*
X47425000Y-59865000D02*
X47425000Y-61381000D01*
X47465000Y-56275000D02*
X47465000Y-57785000D01*
X47465000Y-59865000D02*
X47465000Y-61375000D01*
X47505000Y-56282000D02*
X47505000Y-57785000D01*
X47505000Y-59865000D02*
X47505000Y-61368000D01*
X47545000Y-56289000D02*
X47545000Y-57785000D01*
X47545000Y-59865000D02*
X47545000Y-61361000D01*
X47585000Y-56297000D02*
X47585000Y-57785000D01*
X47585000Y-59865000D02*
X47585000Y-61353000D01*
X47625000Y-56305000D02*
X47625000Y-57785000D01*
X47625000Y-59865000D02*
X47625000Y-61345000D01*
X47665000Y-56314000D02*
X47665000Y-57785000D01*
X47665000Y-59865000D02*
X47665000Y-61336000D01*
X47705000Y-56324000D02*
X47705000Y-57785000D01*
X47705000Y-59865000D02*
X47705000Y-61326000D01*
X47745000Y-56334000D02*
X47745000Y-57785000D01*
X47745000Y-59865000D02*
X47745000Y-61316000D01*
X47786000Y-56345000D02*
X47786000Y-57785000D01*
X47786000Y-59865000D02*
X47786000Y-61305000D01*
X47826000Y-56357000D02*
X47826000Y-57785000D01*
X47826000Y-59865000D02*
X47826000Y-61293000D01*
X47866000Y-56370000D02*
X47866000Y-57785000D01*
X47866000Y-59865000D02*
X47866000Y-61280000D01*
X47906000Y-56383000D02*
X47906000Y-57785000D01*
X47906000Y-59865000D02*
X47906000Y-61267000D01*
X47946000Y-56397000D02*
X47946000Y-57785000D01*
X47946000Y-59865000D02*
X47946000Y-61253000D01*
X47986000Y-56411000D02*
X47986000Y-57785000D01*
X47986000Y-59865000D02*
X47986000Y-61239000D01*
X48026000Y-56427000D02*
X48026000Y-57785000D01*
X48026000Y-59865000D02*
X48026000Y-61223000D01*
X48066000Y-56443000D02*
X48066000Y-57785000D01*
X48066000Y-59865000D02*
X48066000Y-61207000D01*
X48106000Y-56460000D02*
X48106000Y-57785000D01*
X48106000Y-59865000D02*
X48106000Y-61190000D01*
X48146000Y-56477000D02*
X48146000Y-57785000D01*
X48146000Y-59865000D02*
X48146000Y-61173000D01*
X48186000Y-56496000D02*
X48186000Y-57785000D01*
X48186000Y-59865000D02*
X48186000Y-61154000D01*
X48226000Y-56515000D02*
X48226000Y-57785000D01*
X48226000Y-59865000D02*
X48226000Y-61135000D01*
X48266000Y-56535000D02*
X48266000Y-57785000D01*
X48266000Y-59865000D02*
X48266000Y-61115000D01*
X48306000Y-56557000D02*
X48306000Y-57785000D01*
X48306000Y-59865000D02*
X48306000Y-61093000D01*
X48346000Y-56578000D02*
X48346000Y-57785000D01*
X48346000Y-59865000D02*
X48346000Y-61072000D01*
X48386000Y-56601000D02*
X48386000Y-57785000D01*
X48386000Y-59865000D02*
X48386000Y-61049000D01*
X48426000Y-56625000D02*
X48426000Y-57785000D01*
X48426000Y-59865000D02*
X48426000Y-61025000D01*
X48466000Y-56650000D02*
X48466000Y-57785000D01*
X48466000Y-59865000D02*
X48466000Y-61000000D01*
X48506000Y-56676000D02*
X48506000Y-57785000D01*
X48506000Y-59865000D02*
X48506000Y-60974000D01*
X48546000Y-56703000D02*
X48546000Y-57785000D01*
X48546000Y-59865000D02*
X48546000Y-60947000D01*
X48586000Y-56730000D02*
X48586000Y-57785000D01*
X48586000Y-59865000D02*
X48586000Y-60920000D01*
X48626000Y-56760000D02*
X48626000Y-57785000D01*
X48626000Y-59865000D02*
X48626000Y-60890000D01*
X48666000Y-56790000D02*
X48666000Y-57785000D01*
X48666000Y-59865000D02*
X48666000Y-60860000D01*
X48706000Y-56821000D02*
X48706000Y-57785000D01*
X48706000Y-59865000D02*
X48706000Y-60829000D01*
X48746000Y-56854000D02*
X48746000Y-57785000D01*
X48746000Y-59865000D02*
X48746000Y-60796000D01*
X48786000Y-56888000D02*
X48786000Y-57785000D01*
X48786000Y-59865000D02*
X48786000Y-60762000D01*
X48826000Y-56924000D02*
X48826000Y-57785000D01*
X48826000Y-59865000D02*
X48826000Y-60726000D01*
X48866000Y-56961000D02*
X48866000Y-57785000D01*
X48866000Y-59865000D02*
X48866000Y-60689000D01*
X48906000Y-56999000D02*
X48906000Y-57785000D01*
X48906000Y-59865000D02*
X48906000Y-60651000D01*
X48946000Y-57040000D02*
X48946000Y-57785000D01*
X48946000Y-59865000D02*
X48946000Y-60610000D01*
X48986000Y-57082000D02*
X48986000Y-57785000D01*
X48986000Y-59865000D02*
X48986000Y-60568000D01*
X49026000Y-57126000D02*
X49026000Y-57785000D01*
X49026000Y-59865000D02*
X49026000Y-60524000D01*
X49066000Y-57172000D02*
X49066000Y-57785000D01*
X49066000Y-59865000D02*
X49066000Y-60478000D01*
X49106000Y-57220000D02*
X49106000Y-60430000D01*
X49146000Y-57271000D02*
X49146000Y-60379000D01*
X49186000Y-57325000D02*
X49186000Y-60325000D01*
X49226000Y-57382000D02*
X49226000Y-60268000D01*
X49266000Y-57442000D02*
X49266000Y-60208000D01*
X49306000Y-57506000D02*
X49306000Y-60144000D01*
X49346000Y-57574000D02*
X49346000Y-60076000D01*
X49386000Y-57647000D02*
X49386000Y-60003000D01*
X49426000Y-57727000D02*
X49426000Y-59923000D01*
X49466000Y-57814000D02*
X49466000Y-59836000D01*
X49506000Y-57910000D02*
X49506000Y-59740000D01*
X49546000Y-58020000D02*
X49546000Y-59630000D01*
X49586000Y-58148000D02*
X49586000Y-59502000D01*
X49626000Y-58307000D02*
X49626000Y-59343000D01*
X49666000Y-58541000D02*
X49666000Y-59109000D01*
X44260225Y-57350000D02*
X44760225Y-57350000D01*
X44510225Y-57100000D02*
X44510225Y-57600000D01*
%TO.C,J14*%
D10*
X144452380Y-138209523D02*
X145166666Y-138209523D01*
X145309523Y-138257142D01*
X145404761Y-138352380D01*
X145452380Y-138495238D01*
X145452380Y-138590476D01*
X145452380Y-137209523D02*
X145452380Y-137780952D01*
X145452380Y-137495238D02*
X144452380Y-137495238D01*
X144595238Y-137590476D01*
X144690476Y-137685714D01*
X144738095Y-137780952D01*
X144785714Y-136352380D02*
X145452380Y-136352380D01*
X144404761Y-136590476D02*
X145119047Y-136828571D01*
X145119047Y-136209523D01*
%TO.C,R9*%
X79690000Y-95867285D02*
X79440000Y-95510142D01*
X79261428Y-95867285D02*
X79261428Y-95117285D01*
X79547142Y-95117285D01*
X79618571Y-95153000D01*
X79654285Y-95188714D01*
X79690000Y-95260142D01*
X79690000Y-95367285D01*
X79654285Y-95438714D01*
X79618571Y-95474428D01*
X79547142Y-95510142D01*
X79261428Y-95510142D01*
X80047142Y-95867285D02*
X80190000Y-95867285D01*
X80261428Y-95831571D01*
X80297142Y-95795857D01*
X80368571Y-95688714D01*
X80404285Y-95545857D01*
X80404285Y-95260142D01*
X80368571Y-95188714D01*
X80332857Y-95153000D01*
X80261428Y-95117285D01*
X80118571Y-95117285D01*
X80047142Y-95153000D01*
X80011428Y-95188714D01*
X79975714Y-95260142D01*
X79975714Y-95438714D01*
X80011428Y-95510142D01*
X80047142Y-95545857D01*
X80118571Y-95581571D01*
X80261428Y-95581571D01*
X80332857Y-95545857D01*
X80368571Y-95510142D01*
X80404285Y-95438714D01*
X79725714Y-97899285D02*
X79297142Y-97899285D01*
X79511428Y-97899285D02*
X79511428Y-97149285D01*
X79440000Y-97256428D01*
X79368571Y-97327857D01*
X79297142Y-97363571D01*
X80047142Y-97899285D02*
X80047142Y-97149285D01*
X80118571Y-97613571D02*
X80332857Y-97899285D01*
X80332857Y-97399285D02*
X80047142Y-97685000D01*
%TO.C,R8*%
X79690000Y-88247285D02*
X79440000Y-87890142D01*
X79261428Y-88247285D02*
X79261428Y-87497285D01*
X79547142Y-87497285D01*
X79618571Y-87533000D01*
X79654285Y-87568714D01*
X79690000Y-87640142D01*
X79690000Y-87747285D01*
X79654285Y-87818714D01*
X79618571Y-87854428D01*
X79547142Y-87890142D01*
X79261428Y-87890142D01*
X80118571Y-87818714D02*
X80047142Y-87783000D01*
X80011428Y-87747285D01*
X79975714Y-87675857D01*
X79975714Y-87640142D01*
X80011428Y-87568714D01*
X80047142Y-87533000D01*
X80118571Y-87497285D01*
X80261428Y-87497285D01*
X80332857Y-87533000D01*
X80368571Y-87568714D01*
X80404285Y-87640142D01*
X80404285Y-87675857D01*
X80368571Y-87747285D01*
X80332857Y-87783000D01*
X80261428Y-87818714D01*
X80118571Y-87818714D01*
X80047142Y-87854428D01*
X80011428Y-87890142D01*
X79975714Y-87961571D01*
X79975714Y-88104428D01*
X80011428Y-88175857D01*
X80047142Y-88211571D01*
X80118571Y-88247285D01*
X80261428Y-88247285D01*
X80332857Y-88211571D01*
X80368571Y-88175857D01*
X80404285Y-88104428D01*
X80404285Y-87961571D01*
X80368571Y-87890142D01*
X80332857Y-87854428D01*
X80261428Y-87818714D01*
X79725714Y-90279285D02*
X79297142Y-90279285D01*
X79511428Y-90279285D02*
X79511428Y-89529285D01*
X79440000Y-89636428D01*
X79368571Y-89707857D01*
X79297142Y-89743571D01*
X80047142Y-90279285D02*
X80047142Y-89529285D01*
X80118571Y-89993571D02*
X80332857Y-90279285D01*
X80332857Y-89779285D02*
X80047142Y-90065000D01*
%TO.C,R7*%
X79690000Y-103487285D02*
X79440000Y-103130142D01*
X79261428Y-103487285D02*
X79261428Y-102737285D01*
X79547142Y-102737285D01*
X79618571Y-102773000D01*
X79654285Y-102808714D01*
X79690000Y-102880142D01*
X79690000Y-102987285D01*
X79654285Y-103058714D01*
X79618571Y-103094428D01*
X79547142Y-103130142D01*
X79261428Y-103130142D01*
X79940000Y-102737285D02*
X80440000Y-102737285D01*
X80118571Y-103487285D01*
X79725714Y-105519285D02*
X79297142Y-105519285D01*
X79511428Y-105519285D02*
X79511428Y-104769285D01*
X79440000Y-104876428D01*
X79368571Y-104947857D01*
X79297142Y-104983571D01*
X80047142Y-105519285D02*
X80047142Y-104769285D01*
X80118571Y-105233571D02*
X80332857Y-105519285D01*
X80332857Y-105019285D02*
X80047142Y-105305000D01*
%TO.C,R5*%
X79690000Y-80627285D02*
X79440000Y-80270142D01*
X79261428Y-80627285D02*
X79261428Y-79877285D01*
X79547142Y-79877285D01*
X79618571Y-79913000D01*
X79654285Y-79948714D01*
X79690000Y-80020142D01*
X79690000Y-80127285D01*
X79654285Y-80198714D01*
X79618571Y-80234428D01*
X79547142Y-80270142D01*
X79261428Y-80270142D01*
X80368571Y-79877285D02*
X80011428Y-79877285D01*
X79975714Y-80234428D01*
X80011428Y-80198714D01*
X80082857Y-80163000D01*
X80261428Y-80163000D01*
X80332857Y-80198714D01*
X80368571Y-80234428D01*
X80404285Y-80305857D01*
X80404285Y-80484428D01*
X80368571Y-80555857D01*
X80332857Y-80591571D01*
X80261428Y-80627285D01*
X80082857Y-80627285D01*
X80011428Y-80591571D01*
X79975714Y-80555857D01*
X79725714Y-82659285D02*
X79297142Y-82659285D01*
X79511428Y-82659285D02*
X79511428Y-81909285D01*
X79440000Y-82016428D01*
X79368571Y-82087857D01*
X79297142Y-82123571D01*
X80047142Y-82659285D02*
X80047142Y-81909285D01*
X80118571Y-82373571D02*
X80332857Y-82659285D01*
X80332857Y-82159285D02*
X80047142Y-82445000D01*
%TO.C,J4*%
X47192380Y-162663333D02*
X47906666Y-162663333D01*
X48049523Y-162710952D01*
X48144761Y-162806190D01*
X48192380Y-162949047D01*
X48192380Y-163044285D01*
X47525714Y-161758571D02*
X48192380Y-161758571D01*
X47144761Y-161996666D02*
X47859047Y-162234761D01*
X47859047Y-161615714D01*
%TO.C,J3*%
X77052380Y-115673333D02*
X77766666Y-115673333D01*
X77909523Y-115720952D01*
X78004761Y-115816190D01*
X78052380Y-115959047D01*
X78052380Y-116054285D01*
X77052380Y-115292380D02*
X77052380Y-114673333D01*
X77433333Y-115006666D01*
X77433333Y-114863809D01*
X77480952Y-114768571D01*
X77528571Y-114720952D01*
X77623809Y-114673333D01*
X77861904Y-114673333D01*
X77957142Y-114720952D01*
X78004761Y-114768571D01*
X78052380Y-114863809D01*
X78052380Y-115149523D01*
X78004761Y-115244761D01*
X77957142Y-115292380D01*
%TO.C,C13*%
X75517857Y-100017857D02*
X75482142Y-100053571D01*
X75375000Y-100089285D01*
X75303571Y-100089285D01*
X75196428Y-100053571D01*
X75125000Y-99982142D01*
X75089285Y-99910714D01*
X75053571Y-99767857D01*
X75053571Y-99660714D01*
X75089285Y-99517857D01*
X75125000Y-99446428D01*
X75196428Y-99375000D01*
X75303571Y-99339285D01*
X75375000Y-99339285D01*
X75482142Y-99375000D01*
X75517857Y-99410714D01*
X76232142Y-100089285D02*
X75803571Y-100089285D01*
X76017857Y-100089285D02*
X76017857Y-99339285D01*
X75946428Y-99446428D01*
X75875000Y-99517857D01*
X75803571Y-99553571D01*
X76482142Y-99339285D02*
X76946428Y-99339285D01*
X76696428Y-99625000D01*
X76803571Y-99625000D01*
X76875000Y-99660714D01*
X76910714Y-99696428D01*
X76946428Y-99767857D01*
X76946428Y-99946428D01*
X76910714Y-100017857D01*
X76875000Y-100053571D01*
X76803571Y-100089285D01*
X76589285Y-100089285D01*
X76517857Y-100053571D01*
X76482142Y-100017857D01*
X77732142Y-99339285D02*
X78196428Y-99339285D01*
X77946428Y-99625000D01*
X78053571Y-99625000D01*
X78125000Y-99660714D01*
X78160714Y-99696428D01*
X78196428Y-99767857D01*
X78196428Y-99946428D01*
X78160714Y-100017857D01*
X78125000Y-100053571D01*
X78053571Y-100089285D01*
X77839285Y-100089285D01*
X77767857Y-100053571D01*
X77732142Y-100017857D01*
X78446428Y-99339285D02*
X78910714Y-99339285D01*
X78660714Y-99625000D01*
X78767857Y-99625000D01*
X78839285Y-99660714D01*
X78875000Y-99696428D01*
X78910714Y-99767857D01*
X78910714Y-99946428D01*
X78875000Y-100017857D01*
X78839285Y-100053571D01*
X78767857Y-100089285D01*
X78553571Y-100089285D01*
X78482142Y-100053571D01*
X78446428Y-100017857D01*
X79232142Y-99589285D02*
X79232142Y-100339285D01*
X79232142Y-99625000D02*
X79303571Y-99589285D01*
X79446428Y-99589285D01*
X79517857Y-99625000D01*
X79553571Y-99660714D01*
X79589285Y-99732142D01*
X79589285Y-99946428D01*
X79553571Y-100017857D01*
X79517857Y-100053571D01*
X79446428Y-100089285D01*
X79303571Y-100089285D01*
X79232142Y-100053571D01*
X80160714Y-99696428D02*
X79910714Y-99696428D01*
X79910714Y-100089285D02*
X79910714Y-99339285D01*
X80267857Y-99339285D01*
%TO.C,C12*%
X75517857Y-84767857D02*
X75482142Y-84803571D01*
X75375000Y-84839285D01*
X75303571Y-84839285D01*
X75196428Y-84803571D01*
X75125000Y-84732142D01*
X75089285Y-84660714D01*
X75053571Y-84517857D01*
X75053571Y-84410714D01*
X75089285Y-84267857D01*
X75125000Y-84196428D01*
X75196428Y-84125000D01*
X75303571Y-84089285D01*
X75375000Y-84089285D01*
X75482142Y-84125000D01*
X75517857Y-84160714D01*
X76232142Y-84839285D02*
X75803571Y-84839285D01*
X76017857Y-84839285D02*
X76017857Y-84089285D01*
X75946428Y-84196428D01*
X75875000Y-84267857D01*
X75803571Y-84303571D01*
X76517857Y-84160714D02*
X76553571Y-84125000D01*
X76625000Y-84089285D01*
X76803571Y-84089285D01*
X76875000Y-84125000D01*
X76910714Y-84160714D01*
X76946428Y-84232142D01*
X76946428Y-84303571D01*
X76910714Y-84410714D01*
X76482142Y-84839285D01*
X76946428Y-84839285D01*
X77732142Y-84089285D02*
X78196428Y-84089285D01*
X77946428Y-84375000D01*
X78053571Y-84375000D01*
X78125000Y-84410714D01*
X78160714Y-84446428D01*
X78196428Y-84517857D01*
X78196428Y-84696428D01*
X78160714Y-84767857D01*
X78125000Y-84803571D01*
X78053571Y-84839285D01*
X77839285Y-84839285D01*
X77767857Y-84803571D01*
X77732142Y-84767857D01*
X78446428Y-84089285D02*
X78910714Y-84089285D01*
X78660714Y-84375000D01*
X78767857Y-84375000D01*
X78839285Y-84410714D01*
X78875000Y-84446428D01*
X78910714Y-84517857D01*
X78910714Y-84696428D01*
X78875000Y-84767857D01*
X78839285Y-84803571D01*
X78767857Y-84839285D01*
X78553571Y-84839285D01*
X78482142Y-84803571D01*
X78446428Y-84767857D01*
X79232142Y-84339285D02*
X79232142Y-85089285D01*
X79232142Y-84375000D02*
X79303571Y-84339285D01*
X79446428Y-84339285D01*
X79517857Y-84375000D01*
X79553571Y-84410714D01*
X79589285Y-84482142D01*
X79589285Y-84696428D01*
X79553571Y-84767857D01*
X79517857Y-84803571D01*
X79446428Y-84839285D01*
X79303571Y-84839285D01*
X79232142Y-84803571D01*
X80160714Y-84446428D02*
X79910714Y-84446428D01*
X79910714Y-84839285D02*
X79910714Y-84089285D01*
X80267857Y-84089285D01*
%TO.C,C11*%
X75517857Y-107517857D02*
X75482142Y-107553571D01*
X75375000Y-107589285D01*
X75303571Y-107589285D01*
X75196428Y-107553571D01*
X75125000Y-107482142D01*
X75089285Y-107410714D01*
X75053571Y-107267857D01*
X75053571Y-107160714D01*
X75089285Y-107017857D01*
X75125000Y-106946428D01*
X75196428Y-106875000D01*
X75303571Y-106839285D01*
X75375000Y-106839285D01*
X75482142Y-106875000D01*
X75517857Y-106910714D01*
X76232142Y-107589285D02*
X75803571Y-107589285D01*
X76017857Y-107589285D02*
X76017857Y-106839285D01*
X75946428Y-106946428D01*
X75875000Y-107017857D01*
X75803571Y-107053571D01*
X76946428Y-107589285D02*
X76517857Y-107589285D01*
X76732142Y-107589285D02*
X76732142Y-106839285D01*
X76660714Y-106946428D01*
X76589285Y-107017857D01*
X76517857Y-107053571D01*
X77732142Y-106839285D02*
X78196428Y-106839285D01*
X77946428Y-107125000D01*
X78053571Y-107125000D01*
X78125000Y-107160714D01*
X78160714Y-107196428D01*
X78196428Y-107267857D01*
X78196428Y-107446428D01*
X78160714Y-107517857D01*
X78125000Y-107553571D01*
X78053571Y-107589285D01*
X77839285Y-107589285D01*
X77767857Y-107553571D01*
X77732142Y-107517857D01*
X78446428Y-106839285D02*
X78910714Y-106839285D01*
X78660714Y-107125000D01*
X78767857Y-107125000D01*
X78839285Y-107160714D01*
X78875000Y-107196428D01*
X78910714Y-107267857D01*
X78910714Y-107446428D01*
X78875000Y-107517857D01*
X78839285Y-107553571D01*
X78767857Y-107589285D01*
X78553571Y-107589285D01*
X78482142Y-107553571D01*
X78446428Y-107517857D01*
X79232142Y-107089285D02*
X79232142Y-107839285D01*
X79232142Y-107125000D02*
X79303571Y-107089285D01*
X79446428Y-107089285D01*
X79517857Y-107125000D01*
X79553571Y-107160714D01*
X79589285Y-107232142D01*
X79589285Y-107446428D01*
X79553571Y-107517857D01*
X79517857Y-107553571D01*
X79446428Y-107589285D01*
X79303571Y-107589285D01*
X79232142Y-107553571D01*
X80160714Y-107196428D02*
X79910714Y-107196428D01*
X79910714Y-107589285D02*
X79910714Y-106839285D01*
X80267857Y-106839285D01*
%TO.C,C10*%
X75267857Y-77267857D02*
X75232142Y-77303571D01*
X75125000Y-77339285D01*
X75053571Y-77339285D01*
X74946428Y-77303571D01*
X74875000Y-77232142D01*
X74839285Y-77160714D01*
X74803571Y-77017857D01*
X74803571Y-76910714D01*
X74839285Y-76767857D01*
X74875000Y-76696428D01*
X74946428Y-76625000D01*
X75053571Y-76589285D01*
X75125000Y-76589285D01*
X75232142Y-76625000D01*
X75267857Y-76660714D01*
X75982142Y-77339285D02*
X75553571Y-77339285D01*
X75767857Y-77339285D02*
X75767857Y-76589285D01*
X75696428Y-76696428D01*
X75625000Y-76767857D01*
X75553571Y-76803571D01*
X76446428Y-76589285D02*
X76517857Y-76589285D01*
X76589285Y-76625000D01*
X76625000Y-76660714D01*
X76660714Y-76732142D01*
X76696428Y-76875000D01*
X76696428Y-77053571D01*
X76660714Y-77196428D01*
X76625000Y-77267857D01*
X76589285Y-77303571D01*
X76517857Y-77339285D01*
X76446428Y-77339285D01*
X76375000Y-77303571D01*
X76339285Y-77267857D01*
X76303571Y-77196428D01*
X76267857Y-77053571D01*
X76267857Y-76875000D01*
X76303571Y-76732142D01*
X76339285Y-76660714D01*
X76375000Y-76625000D01*
X76446428Y-76589285D01*
X77482142Y-76589285D02*
X77946428Y-76589285D01*
X77696428Y-76875000D01*
X77803571Y-76875000D01*
X77875000Y-76910714D01*
X77910714Y-76946428D01*
X77946428Y-77017857D01*
X77946428Y-77196428D01*
X77910714Y-77267857D01*
X77875000Y-77303571D01*
X77803571Y-77339285D01*
X77589285Y-77339285D01*
X77517857Y-77303571D01*
X77482142Y-77267857D01*
X78196428Y-76589285D02*
X78660714Y-76589285D01*
X78410714Y-76875000D01*
X78517857Y-76875000D01*
X78589285Y-76910714D01*
X78625000Y-76946428D01*
X78660714Y-77017857D01*
X78660714Y-77196428D01*
X78625000Y-77267857D01*
X78589285Y-77303571D01*
X78517857Y-77339285D01*
X78303571Y-77339285D01*
X78232142Y-77303571D01*
X78196428Y-77267857D01*
X78982142Y-76839285D02*
X78982142Y-77589285D01*
X78982142Y-76875000D02*
X79053571Y-76839285D01*
X79196428Y-76839285D01*
X79267857Y-76875000D01*
X79303571Y-76910714D01*
X79339285Y-76982142D01*
X79339285Y-77196428D01*
X79303571Y-77267857D01*
X79267857Y-77303571D01*
X79196428Y-77339285D01*
X79053571Y-77339285D01*
X78982142Y-77303571D01*
X79910714Y-76946428D02*
X79660714Y-76946428D01*
X79660714Y-77339285D02*
X79660714Y-76589285D01*
X80017857Y-76589285D01*
%TO.C,R18*%
X133017857Y-89839285D02*
X132767857Y-89482142D01*
X132589285Y-89839285D02*
X132589285Y-89089285D01*
X132875000Y-89089285D01*
X132946428Y-89125000D01*
X132982142Y-89160714D01*
X133017857Y-89232142D01*
X133017857Y-89339285D01*
X132982142Y-89410714D01*
X132946428Y-89446428D01*
X132875000Y-89482142D01*
X132589285Y-89482142D01*
X133732142Y-89839285D02*
X133303571Y-89839285D01*
X133517857Y-89839285D02*
X133517857Y-89089285D01*
X133446428Y-89196428D01*
X133375000Y-89267857D01*
X133303571Y-89303571D01*
X134160714Y-89410714D02*
X134089285Y-89375000D01*
X134053571Y-89339285D01*
X134017857Y-89267857D01*
X134017857Y-89232142D01*
X134053571Y-89160714D01*
X134089285Y-89125000D01*
X134160714Y-89089285D01*
X134303571Y-89089285D01*
X134375000Y-89125000D01*
X134410714Y-89160714D01*
X134446428Y-89232142D01*
X134446428Y-89267857D01*
X134410714Y-89339285D01*
X134375000Y-89375000D01*
X134303571Y-89410714D01*
X134160714Y-89410714D01*
X134089285Y-89446428D01*
X134053571Y-89482142D01*
X134017857Y-89553571D01*
X134017857Y-89696428D01*
X134053571Y-89767857D01*
X134089285Y-89803571D01*
X134160714Y-89839285D01*
X134303571Y-89839285D01*
X134375000Y-89803571D01*
X134410714Y-89767857D01*
X134446428Y-89696428D01*
X134446428Y-89553571D01*
X134410714Y-89482142D01*
X134375000Y-89446428D01*
X134303571Y-89410714D01*
X135303571Y-91839285D02*
X135303571Y-92339285D01*
X135125000Y-91553571D02*
X134946428Y-92089285D01*
X135410714Y-92089285D01*
X135625000Y-91589285D02*
X136125000Y-91589285D01*
X135803571Y-92339285D01*
X136553571Y-91589285D02*
X136625000Y-91589285D01*
X136696428Y-91625000D01*
X136732142Y-91660714D01*
X136767857Y-91732142D01*
X136803571Y-91875000D01*
X136803571Y-92053571D01*
X136767857Y-92196428D01*
X136732142Y-92267857D01*
X136696428Y-92303571D01*
X136625000Y-92339285D01*
X136553571Y-92339285D01*
X136482142Y-92303571D01*
X136446428Y-92267857D01*
X136410714Y-92196428D01*
X136375000Y-92053571D01*
X136375000Y-91875000D01*
X136410714Y-91732142D01*
X136446428Y-91660714D01*
X136482142Y-91625000D01*
X136553571Y-91589285D01*
X137553571Y-92339285D02*
X137303571Y-91982142D01*
X137125000Y-92339285D02*
X137125000Y-91589285D01*
X137410714Y-91589285D01*
X137482142Y-91625000D01*
X137517857Y-91660714D01*
X137553571Y-91732142D01*
X137553571Y-91839285D01*
X137517857Y-91910714D01*
X137482142Y-91946428D01*
X137410714Y-91982142D01*
X137125000Y-91982142D01*
%TO.C,J15*%
X144452380Y-113209523D02*
X145166666Y-113209523D01*
X145309523Y-113257142D01*
X145404761Y-113352380D01*
X145452380Y-113495238D01*
X145452380Y-113590476D01*
X145452380Y-112209523D02*
X145452380Y-112780952D01*
X145452380Y-112495238D02*
X144452380Y-112495238D01*
X144595238Y-112590476D01*
X144690476Y-112685714D01*
X144738095Y-112780952D01*
X144452380Y-111304761D02*
X144452380Y-111780952D01*
X144928571Y-111828571D01*
X144880952Y-111780952D01*
X144833333Y-111685714D01*
X144833333Y-111447619D01*
X144880952Y-111352380D01*
X144928571Y-111304761D01*
X145023809Y-111257142D01*
X145261904Y-111257142D01*
X145357142Y-111304761D01*
X145404761Y-111352380D01*
X145452380Y-111447619D01*
X145452380Y-111685714D01*
X145404761Y-111780952D01*
X145357142Y-111828571D01*
%TO.C,J11*%
X138452380Y-138209523D02*
X139166666Y-138209523D01*
X139309523Y-138257142D01*
X139404761Y-138352380D01*
X139452380Y-138495238D01*
X139452380Y-138590476D01*
X139452380Y-137209523D02*
X139452380Y-137780952D01*
X139452380Y-137495238D02*
X138452380Y-137495238D01*
X138595238Y-137590476D01*
X138690476Y-137685714D01*
X138738095Y-137780952D01*
X139452380Y-136257142D02*
X139452380Y-136828571D01*
X139452380Y-136542857D02*
X138452380Y-136542857D01*
X138595238Y-136638095D01*
X138690476Y-136733333D01*
X138738095Y-136828571D01*
%TO.C,D8*%
X146412380Y-80208095D02*
X145412380Y-80208095D01*
X145412380Y-79970000D01*
X145460000Y-79827142D01*
X145555238Y-79731904D01*
X145650476Y-79684285D01*
X145840952Y-79636666D01*
X145983809Y-79636666D01*
X146174285Y-79684285D01*
X146269523Y-79731904D01*
X146364761Y-79827142D01*
X146412380Y-79970000D01*
X146412380Y-80208095D01*
X145840952Y-79065238D02*
X145793333Y-79160476D01*
X145745714Y-79208095D01*
X145650476Y-79255714D01*
X145602857Y-79255714D01*
X145507619Y-79208095D01*
X145460000Y-79160476D01*
X145412380Y-79065238D01*
X145412380Y-78874761D01*
X145460000Y-78779523D01*
X145507619Y-78731904D01*
X145602857Y-78684285D01*
X145650476Y-78684285D01*
X145745714Y-78731904D01*
X145793333Y-78779523D01*
X145840952Y-78874761D01*
X145840952Y-79065238D01*
X145888571Y-79160476D01*
X145936190Y-79208095D01*
X146031428Y-79255714D01*
X146221904Y-79255714D01*
X146317142Y-79208095D01*
X146364761Y-79160476D01*
X146412380Y-79065238D01*
X146412380Y-78874761D01*
X146364761Y-78779523D01*
X146317142Y-78731904D01*
X146221904Y-78684285D01*
X146031428Y-78684285D01*
X145936190Y-78731904D01*
X145888571Y-78779523D01*
X145840952Y-78874761D01*
X142339285Y-75696428D02*
X141589285Y-75696428D01*
X142339285Y-75267857D02*
X141910714Y-75589285D01*
X141589285Y-75267857D02*
X142017857Y-75696428D01*
%TO.C,R16*%
X133017857Y-114839285D02*
X132767857Y-114482142D01*
X132589285Y-114839285D02*
X132589285Y-114089285D01*
X132875000Y-114089285D01*
X132946428Y-114125000D01*
X132982142Y-114160714D01*
X133017857Y-114232142D01*
X133017857Y-114339285D01*
X132982142Y-114410714D01*
X132946428Y-114446428D01*
X132875000Y-114482142D01*
X132589285Y-114482142D01*
X133732142Y-114839285D02*
X133303571Y-114839285D01*
X133517857Y-114839285D02*
X133517857Y-114089285D01*
X133446428Y-114196428D01*
X133375000Y-114267857D01*
X133303571Y-114303571D01*
X134375000Y-114089285D02*
X134232142Y-114089285D01*
X134160714Y-114125000D01*
X134125000Y-114160714D01*
X134053571Y-114267857D01*
X134017857Y-114410714D01*
X134017857Y-114696428D01*
X134053571Y-114767857D01*
X134089285Y-114803571D01*
X134160714Y-114839285D01*
X134303571Y-114839285D01*
X134375000Y-114803571D01*
X134410714Y-114767857D01*
X134446428Y-114696428D01*
X134446428Y-114517857D01*
X134410714Y-114446428D01*
X134375000Y-114410714D01*
X134303571Y-114375000D01*
X134160714Y-114375000D01*
X134089285Y-114410714D01*
X134053571Y-114446428D01*
X134017857Y-114517857D01*
X135303571Y-116839285D02*
X135303571Y-117339285D01*
X135125000Y-116553571D02*
X134946428Y-117089285D01*
X135410714Y-117089285D01*
X135625000Y-116589285D02*
X136125000Y-116589285D01*
X135803571Y-117339285D01*
X136553571Y-116589285D02*
X136625000Y-116589285D01*
X136696428Y-116625000D01*
X136732142Y-116660714D01*
X136767857Y-116732142D01*
X136803571Y-116875000D01*
X136803571Y-117053571D01*
X136767857Y-117196428D01*
X136732142Y-117267857D01*
X136696428Y-117303571D01*
X136625000Y-117339285D01*
X136553571Y-117339285D01*
X136482142Y-117303571D01*
X136446428Y-117267857D01*
X136410714Y-117196428D01*
X136375000Y-117053571D01*
X136375000Y-116875000D01*
X136410714Y-116732142D01*
X136446428Y-116660714D01*
X136482142Y-116625000D01*
X136553571Y-116589285D01*
X137553571Y-117339285D02*
X137303571Y-116982142D01*
X137125000Y-117339285D02*
X137125000Y-116589285D01*
X137410714Y-116589285D01*
X137482142Y-116625000D01*
X137517857Y-116660714D01*
X137553571Y-116732142D01*
X137553571Y-116839285D01*
X137517857Y-116910714D01*
X137482142Y-116946428D01*
X137410714Y-116982142D01*
X137125000Y-116982142D01*
%TO.C,D7*%
X146412380Y-105208095D02*
X145412380Y-105208095D01*
X145412380Y-104970000D01*
X145460000Y-104827142D01*
X145555238Y-104731904D01*
X145650476Y-104684285D01*
X145840952Y-104636666D01*
X145983809Y-104636666D01*
X146174285Y-104684285D01*
X146269523Y-104731904D01*
X146364761Y-104827142D01*
X146412380Y-104970000D01*
X146412380Y-105208095D01*
X145412380Y-104303333D02*
X145412380Y-103636666D01*
X146412380Y-104065238D01*
X142339285Y-100696428D02*
X141589285Y-100696428D01*
X142339285Y-100267857D02*
X141910714Y-100589285D01*
X141589285Y-100267857D02*
X142017857Y-100696428D01*
%TO.C,R11*%
X142517857Y-164339285D02*
X142267857Y-163982142D01*
X142089285Y-164339285D02*
X142089285Y-163589285D01*
X142375000Y-163589285D01*
X142446428Y-163625000D01*
X142482142Y-163660714D01*
X142517857Y-163732142D01*
X142517857Y-163839285D01*
X142482142Y-163910714D01*
X142446428Y-163946428D01*
X142375000Y-163982142D01*
X142089285Y-163982142D01*
X143232142Y-164339285D02*
X142803571Y-164339285D01*
X143017857Y-164339285D02*
X143017857Y-163589285D01*
X142946428Y-163696428D01*
X142875000Y-163767857D01*
X142803571Y-163803571D01*
X143946428Y-164339285D02*
X143517857Y-164339285D01*
X143732142Y-164339285D02*
X143732142Y-163589285D01*
X143660714Y-163696428D01*
X143589285Y-163767857D01*
X143517857Y-163803571D01*
X146910714Y-166339285D02*
X146482142Y-166339285D01*
X146696428Y-166339285D02*
X146696428Y-165589285D01*
X146625000Y-165696428D01*
X146553571Y-165767857D01*
X146482142Y-165803571D01*
X147232142Y-166339285D02*
X147232142Y-165589285D01*
X147303571Y-166053571D02*
X147517857Y-166339285D01*
X147517857Y-165839285D02*
X147232142Y-166125000D01*
%TO.C,D4*%
X151492380Y-175218095D02*
X150492380Y-175218095D01*
X150492380Y-174980000D01*
X150540000Y-174837142D01*
X150635238Y-174741904D01*
X150730476Y-174694285D01*
X150920952Y-174646666D01*
X151063809Y-174646666D01*
X151254285Y-174694285D01*
X151349523Y-174741904D01*
X151444761Y-174837142D01*
X151492380Y-174980000D01*
X151492380Y-175218095D01*
X150825714Y-173789523D02*
X151492380Y-173789523D01*
X150444761Y-174027619D02*
X151159047Y-174265714D01*
X151159047Y-173646666D01*
X155339285Y-178646428D02*
X154589285Y-178646428D01*
X155339285Y-178217857D02*
X154910714Y-178539285D01*
X154589285Y-178217857D02*
X155017857Y-178646428D01*
%TO.C,R15*%
X142267857Y-114839285D02*
X142017857Y-114482142D01*
X141839285Y-114839285D02*
X141839285Y-114089285D01*
X142125000Y-114089285D01*
X142196428Y-114125000D01*
X142232142Y-114160714D01*
X142267857Y-114232142D01*
X142267857Y-114339285D01*
X142232142Y-114410714D01*
X142196428Y-114446428D01*
X142125000Y-114482142D01*
X141839285Y-114482142D01*
X142982142Y-114839285D02*
X142553571Y-114839285D01*
X142767857Y-114839285D02*
X142767857Y-114089285D01*
X142696428Y-114196428D01*
X142625000Y-114267857D01*
X142553571Y-114303571D01*
X143660714Y-114089285D02*
X143303571Y-114089285D01*
X143267857Y-114446428D01*
X143303571Y-114410714D01*
X143375000Y-114375000D01*
X143553571Y-114375000D01*
X143625000Y-114410714D01*
X143660714Y-114446428D01*
X143696428Y-114517857D01*
X143696428Y-114696428D01*
X143660714Y-114767857D01*
X143625000Y-114803571D01*
X143553571Y-114839285D01*
X143375000Y-114839285D01*
X143303571Y-114803571D01*
X143267857Y-114767857D01*
X146910714Y-117339285D02*
X146482142Y-117339285D01*
X146696428Y-117339285D02*
X146696428Y-116589285D01*
X146625000Y-116696428D01*
X146553571Y-116767857D01*
X146482142Y-116803571D01*
X147232142Y-117339285D02*
X147232142Y-116589285D01*
X147303571Y-117053571D02*
X147517857Y-117339285D01*
X147517857Y-116839285D02*
X147232142Y-117125000D01*
%TO.C,R13*%
X142517857Y-139839285D02*
X142267857Y-139482142D01*
X142089285Y-139839285D02*
X142089285Y-139089285D01*
X142375000Y-139089285D01*
X142446428Y-139125000D01*
X142482142Y-139160714D01*
X142517857Y-139232142D01*
X142517857Y-139339285D01*
X142482142Y-139410714D01*
X142446428Y-139446428D01*
X142375000Y-139482142D01*
X142089285Y-139482142D01*
X143232142Y-139839285D02*
X142803571Y-139839285D01*
X143017857Y-139839285D02*
X143017857Y-139089285D01*
X142946428Y-139196428D01*
X142875000Y-139267857D01*
X142803571Y-139303571D01*
X143482142Y-139089285D02*
X143946428Y-139089285D01*
X143696428Y-139375000D01*
X143803571Y-139375000D01*
X143875000Y-139410714D01*
X143910714Y-139446428D01*
X143946428Y-139517857D01*
X143946428Y-139696428D01*
X143910714Y-139767857D01*
X143875000Y-139803571D01*
X143803571Y-139839285D01*
X143589285Y-139839285D01*
X143517857Y-139803571D01*
X143482142Y-139767857D01*
X146910714Y-142339285D02*
X146482142Y-142339285D01*
X146696428Y-142339285D02*
X146696428Y-141589285D01*
X146625000Y-141696428D01*
X146553571Y-141767857D01*
X146482142Y-141803571D01*
X147232142Y-142339285D02*
X147232142Y-141589285D01*
X147303571Y-142053571D02*
X147517857Y-142339285D01*
X147517857Y-141839285D02*
X147232142Y-142125000D01*
%TO.C,R10*%
X154017857Y-164339285D02*
X153767857Y-163982142D01*
X153589285Y-164339285D02*
X153589285Y-163589285D01*
X153875000Y-163589285D01*
X153946428Y-163625000D01*
X153982142Y-163660714D01*
X154017857Y-163732142D01*
X154017857Y-163839285D01*
X153982142Y-163910714D01*
X153946428Y-163946428D01*
X153875000Y-163982142D01*
X153589285Y-163982142D01*
X154732142Y-164339285D02*
X154303571Y-164339285D01*
X154517857Y-164339285D02*
X154517857Y-163589285D01*
X154446428Y-163696428D01*
X154375000Y-163767857D01*
X154303571Y-163803571D01*
X155196428Y-163589285D02*
X155267857Y-163589285D01*
X155339285Y-163625000D01*
X155375000Y-163660714D01*
X155410714Y-163732142D01*
X155446428Y-163875000D01*
X155446428Y-164053571D01*
X155410714Y-164196428D01*
X155375000Y-164267857D01*
X155339285Y-164303571D01*
X155267857Y-164339285D01*
X155196428Y-164339285D01*
X155125000Y-164303571D01*
X155089285Y-164267857D01*
X155053571Y-164196428D01*
X155017857Y-164053571D01*
X155017857Y-163875000D01*
X155053571Y-163732142D01*
X155089285Y-163660714D01*
X155125000Y-163625000D01*
X155196428Y-163589285D01*
X157553571Y-165839285D02*
X157553571Y-166339285D01*
X157375000Y-165553571D02*
X157196428Y-166089285D01*
X157660714Y-166089285D01*
X157875000Y-165589285D02*
X158375000Y-165589285D01*
X158053571Y-166339285D01*
X158803571Y-165589285D02*
X158875000Y-165589285D01*
X158946428Y-165625000D01*
X158982142Y-165660714D01*
X159017857Y-165732142D01*
X159053571Y-165875000D01*
X159053571Y-166053571D01*
X159017857Y-166196428D01*
X158982142Y-166267857D01*
X158946428Y-166303571D01*
X158875000Y-166339285D01*
X158803571Y-166339285D01*
X158732142Y-166303571D01*
X158696428Y-166267857D01*
X158660714Y-166196428D01*
X158625000Y-166053571D01*
X158625000Y-165875000D01*
X158660714Y-165732142D01*
X158696428Y-165660714D01*
X158732142Y-165625000D01*
X158803571Y-165589285D01*
X159803571Y-166339285D02*
X159553571Y-165982142D01*
X159375000Y-166339285D02*
X159375000Y-165589285D01*
X159660714Y-165589285D01*
X159732142Y-165625000D01*
X159767857Y-165660714D01*
X159803571Y-165732142D01*
X159803571Y-165839285D01*
X159767857Y-165910714D01*
X159732142Y-165946428D01*
X159660714Y-165982142D01*
X159375000Y-165982142D01*
%TO.C,D6*%
X146412380Y-130208095D02*
X145412380Y-130208095D01*
X145412380Y-129970000D01*
X145460000Y-129827142D01*
X145555238Y-129731904D01*
X145650476Y-129684285D01*
X145840952Y-129636666D01*
X145983809Y-129636666D01*
X146174285Y-129684285D01*
X146269523Y-129731904D01*
X146364761Y-129827142D01*
X146412380Y-129970000D01*
X146412380Y-130208095D01*
X145412380Y-128779523D02*
X145412380Y-128970000D01*
X145460000Y-129065238D01*
X145507619Y-129112857D01*
X145650476Y-129208095D01*
X145840952Y-129255714D01*
X146221904Y-129255714D01*
X146317142Y-129208095D01*
X146364761Y-129160476D01*
X146412380Y-129065238D01*
X146412380Y-128874761D01*
X146364761Y-128779523D01*
X146317142Y-128731904D01*
X146221904Y-128684285D01*
X145983809Y-128684285D01*
X145888571Y-128731904D01*
X145840952Y-128779523D01*
X145793333Y-128874761D01*
X145793333Y-129065238D01*
X145840952Y-129160476D01*
X145888571Y-129208095D01*
X145983809Y-129255714D01*
X142339285Y-125696428D02*
X141589285Y-125696428D01*
X142339285Y-125267857D02*
X141910714Y-125589285D01*
X141589285Y-125267857D02*
X142017857Y-125696428D01*
%TO.C,R17*%
X144017857Y-89839285D02*
X143767857Y-89482142D01*
X143589285Y-89839285D02*
X143589285Y-89089285D01*
X143875000Y-89089285D01*
X143946428Y-89125000D01*
X143982142Y-89160714D01*
X144017857Y-89232142D01*
X144017857Y-89339285D01*
X143982142Y-89410714D01*
X143946428Y-89446428D01*
X143875000Y-89482142D01*
X143589285Y-89482142D01*
X144732142Y-89839285D02*
X144303571Y-89839285D01*
X144517857Y-89839285D02*
X144517857Y-89089285D01*
X144446428Y-89196428D01*
X144375000Y-89267857D01*
X144303571Y-89303571D01*
X144982142Y-89089285D02*
X145482142Y-89089285D01*
X145160714Y-89839285D01*
X146660714Y-92339285D02*
X146232142Y-92339285D01*
X146446428Y-92339285D02*
X146446428Y-91589285D01*
X146375000Y-91696428D01*
X146303571Y-91767857D01*
X146232142Y-91803571D01*
X146982142Y-92339285D02*
X146982142Y-91589285D01*
X147053571Y-92053571D02*
X147267857Y-92339285D01*
X147267857Y-91839285D02*
X146982142Y-92125000D01*
%TO.C,J12*%
X138452380Y-113209523D02*
X139166666Y-113209523D01*
X139309523Y-113257142D01*
X139404761Y-113352380D01*
X139452380Y-113495238D01*
X139452380Y-113590476D01*
X139452380Y-112209523D02*
X139452380Y-112780952D01*
X139452380Y-112495238D02*
X138452380Y-112495238D01*
X138595238Y-112590476D01*
X138690476Y-112685714D01*
X138738095Y-112780952D01*
X138547619Y-111828571D02*
X138500000Y-111780952D01*
X138452380Y-111685714D01*
X138452380Y-111447619D01*
X138500000Y-111352380D01*
X138547619Y-111304761D01*
X138642857Y-111257142D01*
X138738095Y-111257142D01*
X138880952Y-111304761D01*
X139452380Y-111876190D01*
X139452380Y-111257142D01*
%TO.C,J10*%
X138652380Y-162559523D02*
X139366666Y-162559523D01*
X139509523Y-162607142D01*
X139604761Y-162702380D01*
X139652380Y-162845238D01*
X139652380Y-162940476D01*
X139652380Y-161559523D02*
X139652380Y-162130952D01*
X139652380Y-161845238D02*
X138652380Y-161845238D01*
X138795238Y-161940476D01*
X138890476Y-162035714D01*
X138938095Y-162130952D01*
X138652380Y-160940476D02*
X138652380Y-160845238D01*
X138700000Y-160750000D01*
X138747619Y-160702380D01*
X138842857Y-160654761D01*
X139033333Y-160607142D01*
X139271428Y-160607142D01*
X139461904Y-160654761D01*
X139557142Y-160702380D01*
X139604761Y-160750000D01*
X139652380Y-160845238D01*
X139652380Y-160940476D01*
X139604761Y-161035714D01*
X139557142Y-161083333D01*
X139461904Y-161130952D01*
X139271428Y-161178571D01*
X139033333Y-161178571D01*
X138842857Y-161130952D01*
X138747619Y-161083333D01*
X138700000Y-161035714D01*
X138652380Y-160940476D01*
%TO.C,J16*%
X144452380Y-88009523D02*
X145166666Y-88009523D01*
X145309523Y-88057142D01*
X145404761Y-88152380D01*
X145452380Y-88295238D01*
X145452380Y-88390476D01*
X145452380Y-87009523D02*
X145452380Y-87580952D01*
X145452380Y-87295238D02*
X144452380Y-87295238D01*
X144595238Y-87390476D01*
X144690476Y-87485714D01*
X144738095Y-87580952D01*
X144452380Y-86152380D02*
X144452380Y-86342857D01*
X144500000Y-86438095D01*
X144547619Y-86485714D01*
X144690476Y-86580952D01*
X144880952Y-86628571D01*
X145261904Y-86628571D01*
X145357142Y-86580952D01*
X145404761Y-86533333D01*
X145452380Y-86438095D01*
X145452380Y-86247619D01*
X145404761Y-86152380D01*
X145357142Y-86104761D01*
X145261904Y-86057142D01*
X145023809Y-86057142D01*
X144928571Y-86104761D01*
X144880952Y-86152380D01*
X144833333Y-86247619D01*
X144833333Y-86438095D01*
X144880952Y-86533333D01*
X144928571Y-86580952D01*
X145023809Y-86628571D01*
%TO.C,R14*%
X133017857Y-139839285D02*
X132767857Y-139482142D01*
X132589285Y-139839285D02*
X132589285Y-139089285D01*
X132875000Y-139089285D01*
X132946428Y-139125000D01*
X132982142Y-139160714D01*
X133017857Y-139232142D01*
X133017857Y-139339285D01*
X132982142Y-139410714D01*
X132946428Y-139446428D01*
X132875000Y-139482142D01*
X132589285Y-139482142D01*
X133732142Y-139839285D02*
X133303571Y-139839285D01*
X133517857Y-139839285D02*
X133517857Y-139089285D01*
X133446428Y-139196428D01*
X133375000Y-139267857D01*
X133303571Y-139303571D01*
X134375000Y-139339285D02*
X134375000Y-139839285D01*
X134196428Y-139053571D02*
X134017857Y-139589285D01*
X134482142Y-139589285D01*
X135303571Y-141839285D02*
X135303571Y-142339285D01*
X135125000Y-141553571D02*
X134946428Y-142089285D01*
X135410714Y-142089285D01*
X135625000Y-141589285D02*
X136125000Y-141589285D01*
X135803571Y-142339285D01*
X136553571Y-141589285D02*
X136625000Y-141589285D01*
X136696428Y-141625000D01*
X136732142Y-141660714D01*
X136767857Y-141732142D01*
X136803571Y-141875000D01*
X136803571Y-142053571D01*
X136767857Y-142196428D01*
X136732142Y-142267857D01*
X136696428Y-142303571D01*
X136625000Y-142339285D01*
X136553571Y-142339285D01*
X136482142Y-142303571D01*
X136446428Y-142267857D01*
X136410714Y-142196428D01*
X136375000Y-142053571D01*
X136375000Y-141875000D01*
X136410714Y-141732142D01*
X136446428Y-141660714D01*
X136482142Y-141625000D01*
X136553571Y-141589285D01*
X137553571Y-142339285D02*
X137303571Y-141982142D01*
X137125000Y-142339285D02*
X137125000Y-141589285D01*
X137410714Y-141589285D01*
X137482142Y-141625000D01*
X137517857Y-141660714D01*
X137553571Y-141732142D01*
X137553571Y-141839285D01*
X137517857Y-141910714D01*
X137482142Y-141946428D01*
X137410714Y-141982142D01*
X137125000Y-141982142D01*
%TO.C,D5*%
X146412380Y-155208095D02*
X145412380Y-155208095D01*
X145412380Y-154970000D01*
X145460000Y-154827142D01*
X145555238Y-154731904D01*
X145650476Y-154684285D01*
X145840952Y-154636666D01*
X145983809Y-154636666D01*
X146174285Y-154684285D01*
X146269523Y-154731904D01*
X146364761Y-154827142D01*
X146412380Y-154970000D01*
X146412380Y-155208095D01*
X145412380Y-153731904D02*
X145412380Y-154208095D01*
X145888571Y-154255714D01*
X145840952Y-154208095D01*
X145793333Y-154112857D01*
X145793333Y-153874761D01*
X145840952Y-153779523D01*
X145888571Y-153731904D01*
X145983809Y-153684285D01*
X146221904Y-153684285D01*
X146317142Y-153731904D01*
X146364761Y-153779523D01*
X146412380Y-153874761D01*
X146412380Y-154112857D01*
X146364761Y-154208095D01*
X146317142Y-154255714D01*
X142339285Y-150696428D02*
X141589285Y-150696428D01*
X142339285Y-150267857D02*
X141910714Y-150589285D01*
X141589285Y-150267857D02*
X142017857Y-150696428D01*
%TO.C,R12*%
X132017857Y-164339285D02*
X131767857Y-163982142D01*
X131589285Y-164339285D02*
X131589285Y-163589285D01*
X131875000Y-163589285D01*
X131946428Y-163625000D01*
X131982142Y-163660714D01*
X132017857Y-163732142D01*
X132017857Y-163839285D01*
X131982142Y-163910714D01*
X131946428Y-163946428D01*
X131875000Y-163982142D01*
X131589285Y-163982142D01*
X132732142Y-164339285D02*
X132303571Y-164339285D01*
X132517857Y-164339285D02*
X132517857Y-163589285D01*
X132446428Y-163696428D01*
X132375000Y-163767857D01*
X132303571Y-163803571D01*
X133017857Y-163660714D02*
X133053571Y-163625000D01*
X133125000Y-163589285D01*
X133303571Y-163589285D01*
X133375000Y-163625000D01*
X133410714Y-163660714D01*
X133446428Y-163732142D01*
X133446428Y-163803571D01*
X133410714Y-163910714D01*
X132982142Y-164339285D01*
X133446428Y-164339285D01*
X135553571Y-165839285D02*
X135553571Y-166339285D01*
X135375000Y-165553571D02*
X135196428Y-166089285D01*
X135660714Y-166089285D01*
X135875000Y-165589285D02*
X136375000Y-165589285D01*
X136053571Y-166339285D01*
X136803571Y-165589285D02*
X136875000Y-165589285D01*
X136946428Y-165625000D01*
X136982142Y-165660714D01*
X137017857Y-165732142D01*
X137053571Y-165875000D01*
X137053571Y-166053571D01*
X137017857Y-166196428D01*
X136982142Y-166267857D01*
X136946428Y-166303571D01*
X136875000Y-166339285D01*
X136803571Y-166339285D01*
X136732142Y-166303571D01*
X136696428Y-166267857D01*
X136660714Y-166196428D01*
X136625000Y-166053571D01*
X136625000Y-165875000D01*
X136660714Y-165732142D01*
X136696428Y-165660714D01*
X136732142Y-165625000D01*
X136803571Y-165589285D01*
X137803571Y-166339285D02*
X137553571Y-165982142D01*
X137375000Y-166339285D02*
X137375000Y-165589285D01*
X137660714Y-165589285D01*
X137732142Y-165625000D01*
X137767857Y-165660714D01*
X137803571Y-165732142D01*
X137803571Y-165839285D01*
X137767857Y-165910714D01*
X137732142Y-165946428D01*
X137660714Y-165982142D01*
X137375000Y-165982142D01*
%TO.C,J9*%
X138252380Y-87533333D02*
X138966666Y-87533333D01*
X139109523Y-87580952D01*
X139204761Y-87676190D01*
X139252380Y-87819047D01*
X139252380Y-87914285D01*
X139252380Y-87009523D02*
X139252380Y-86819047D01*
X139204761Y-86723809D01*
X139157142Y-86676190D01*
X139014285Y-86580952D01*
X138823809Y-86533333D01*
X138442857Y-86533333D01*
X138347619Y-86580952D01*
X138300000Y-86628571D01*
X138252380Y-86723809D01*
X138252380Y-86914285D01*
X138300000Y-87009523D01*
X138347619Y-87057142D01*
X138442857Y-87104761D01*
X138680952Y-87104761D01*
X138776190Y-87057142D01*
X138823809Y-87009523D01*
X138871428Y-86914285D01*
X138871428Y-86723809D01*
X138823809Y-86628571D01*
X138776190Y-86580952D01*
X138680952Y-86533333D01*
%TO.C,J13*%
X144202380Y-162559523D02*
X144916666Y-162559523D01*
X145059523Y-162607142D01*
X145154761Y-162702380D01*
X145202380Y-162845238D01*
X145202380Y-162940476D01*
X145202380Y-161559523D02*
X145202380Y-162130952D01*
X145202380Y-161845238D02*
X144202380Y-161845238D01*
X144345238Y-161940476D01*
X144440476Y-162035714D01*
X144488095Y-162130952D01*
X144202380Y-161226190D02*
X144202380Y-160607142D01*
X144583333Y-160940476D01*
X144583333Y-160797619D01*
X144630952Y-160702380D01*
X144678571Y-160654761D01*
X144773809Y-160607142D01*
X145011904Y-160607142D01*
X145107142Y-160654761D01*
X145154761Y-160702380D01*
X145202380Y-160797619D01*
X145202380Y-161083333D01*
X145154761Y-161178571D01*
X145107142Y-161226190D01*
%TO.C,IC2*%
X48602857Y-86679285D02*
X48602857Y-85929285D01*
X49388571Y-86607857D02*
X49352857Y-86643571D01*
X49245714Y-86679285D01*
X49174285Y-86679285D01*
X49067142Y-86643571D01*
X48995714Y-86572142D01*
X48960000Y-86500714D01*
X48924285Y-86357857D01*
X48924285Y-86250714D01*
X48960000Y-86107857D01*
X48995714Y-86036428D01*
X49067142Y-85965000D01*
X49174285Y-85929285D01*
X49245714Y-85929285D01*
X49352857Y-85965000D01*
X49388571Y-86000714D01*
X49674285Y-86000714D02*
X49710000Y-85965000D01*
X49781428Y-85929285D01*
X49960000Y-85929285D01*
X50031428Y-85965000D01*
X50067142Y-86000714D01*
X50102857Y-86072142D01*
X50102857Y-86143571D01*
X50067142Y-86250714D01*
X49638571Y-86679285D01*
X50102857Y-86679285D01*
X48924285Y-97879285D02*
X48924285Y-97450714D01*
X49674285Y-97665000D02*
X48924285Y-97665000D01*
X49674285Y-96843571D02*
X49674285Y-97200714D01*
X48924285Y-97200714D01*
X48924285Y-96450714D02*
X48924285Y-96379285D01*
X48960000Y-96307857D01*
X48995714Y-96272142D01*
X49067142Y-96236428D01*
X49210000Y-96200714D01*
X49388571Y-96200714D01*
X49531428Y-96236428D01*
X49602857Y-96272142D01*
X49638571Y-96307857D01*
X49674285Y-96379285D01*
X49674285Y-96450714D01*
X49638571Y-96522142D01*
X49602857Y-96557857D01*
X49531428Y-96593571D01*
X49388571Y-96629285D01*
X49210000Y-96629285D01*
X49067142Y-96593571D01*
X48995714Y-96557857D01*
X48960000Y-96522142D01*
X48924285Y-96450714D01*
X48924285Y-95950714D02*
X48924285Y-95450714D01*
X49674285Y-95772142D01*
X49174285Y-94843571D02*
X49674285Y-94843571D01*
X48888571Y-95022142D02*
X49424285Y-95200714D01*
X49424285Y-94736428D01*
%TO.C,D1*%
X50051428Y-145524285D02*
X50051428Y-144774285D01*
X50230000Y-144774285D01*
X50337142Y-144810000D01*
X50408571Y-144881428D01*
X50444285Y-144952857D01*
X50480000Y-145095714D01*
X50480000Y-145202857D01*
X50444285Y-145345714D01*
X50408571Y-145417142D01*
X50337142Y-145488571D01*
X50230000Y-145524285D01*
X50051428Y-145524285D01*
X51194285Y-145524285D02*
X50765714Y-145524285D01*
X50980000Y-145524285D02*
X50980000Y-144774285D01*
X50908571Y-144881428D01*
X50837142Y-144952857D01*
X50765714Y-144988571D01*
X45963571Y-145524285D02*
X45963571Y-144774285D01*
X46392142Y-145524285D02*
X46070714Y-145095714D01*
X46392142Y-144774285D02*
X45963571Y-145202857D01*
X48362857Y-147429285D02*
X47934285Y-147429285D01*
X48148571Y-147429285D02*
X48148571Y-146679285D01*
X48077142Y-146786428D01*
X48005714Y-146857857D01*
X47934285Y-146893571D01*
X48684285Y-147429285D02*
X48684285Y-146679285D01*
X49112857Y-147429285D01*
X49112857Y-146679285D01*
X49791428Y-146929285D02*
X49791428Y-147429285D01*
X49612857Y-146643571D02*
X49434285Y-147179285D01*
X49898571Y-147179285D01*
X50577142Y-147429285D02*
X50148571Y-147429285D01*
X50362857Y-147429285D02*
X50362857Y-146679285D01*
X50291428Y-146786428D01*
X50220000Y-146857857D01*
X50148571Y-146893571D01*
X51220000Y-146929285D02*
X51220000Y-147429285D01*
X51041428Y-146643571D02*
X50862857Y-147179285D01*
X51327142Y-147179285D01*
X51720000Y-147000714D02*
X51648571Y-146965000D01*
X51612857Y-146929285D01*
X51577142Y-146857857D01*
X51577142Y-146822142D01*
X51612857Y-146750714D01*
X51648571Y-146715000D01*
X51720000Y-146679285D01*
X51862857Y-146679285D01*
X51934285Y-146715000D01*
X51970000Y-146750714D01*
X52005714Y-146822142D01*
X52005714Y-146857857D01*
X51970000Y-146929285D01*
X51934285Y-146965000D01*
X51862857Y-147000714D01*
X51720000Y-147000714D01*
X51648571Y-147036428D01*
X51612857Y-147072142D01*
X51577142Y-147143571D01*
X51577142Y-147286428D01*
X51612857Y-147357857D01*
X51648571Y-147393571D01*
X51720000Y-147429285D01*
X51862857Y-147429285D01*
X51934285Y-147393571D01*
X51970000Y-147357857D01*
X52005714Y-147286428D01*
X52005714Y-147143571D01*
X51970000Y-147072142D01*
X51934285Y-147036428D01*
X51862857Y-147000714D01*
%TO.C,U1*%
X45588571Y-131649285D02*
X45588571Y-132256428D01*
X45624285Y-132327857D01*
X45660000Y-132363571D01*
X45731428Y-132399285D01*
X45874285Y-132399285D01*
X45945714Y-132363571D01*
X45981428Y-132327857D01*
X46017142Y-132256428D01*
X46017142Y-131649285D01*
X46767142Y-132399285D02*
X46338571Y-132399285D01*
X46552857Y-132399285D02*
X46552857Y-131649285D01*
X46481428Y-131756428D01*
X46410000Y-131827857D01*
X46338571Y-131863571D01*
X45749285Y-139521428D02*
X45749285Y-139664285D01*
X45785000Y-139735714D01*
X45820714Y-139771428D01*
X45927857Y-139842857D01*
X46070714Y-139878571D01*
X46356428Y-139878571D01*
X46427857Y-139842857D01*
X46463571Y-139807142D01*
X46499285Y-139735714D01*
X46499285Y-139592857D01*
X46463571Y-139521428D01*
X46427857Y-139485714D01*
X46356428Y-139450000D01*
X46177857Y-139450000D01*
X46106428Y-139485714D01*
X46070714Y-139521428D01*
X46035000Y-139592857D01*
X46035000Y-139735714D01*
X46070714Y-139807142D01*
X46106428Y-139842857D01*
X46177857Y-139878571D01*
X46499285Y-139128571D02*
X45749285Y-139128571D01*
X46499285Y-138700000D01*
X45749285Y-138700000D01*
X46499285Y-137950000D02*
X46499285Y-138378571D01*
X46499285Y-138164285D02*
X45749285Y-138164285D01*
X45856428Y-138235714D01*
X45927857Y-138307142D01*
X45963571Y-138378571D01*
X45749285Y-137700000D02*
X45749285Y-137235714D01*
X46035000Y-137485714D01*
X46035000Y-137378571D01*
X46070714Y-137307142D01*
X46106428Y-137271428D01*
X46177857Y-137235714D01*
X46356428Y-137235714D01*
X46427857Y-137271428D01*
X46463571Y-137307142D01*
X46499285Y-137378571D01*
X46499285Y-137592857D01*
X46463571Y-137664285D01*
X46427857Y-137700000D01*
X45749285Y-136985714D02*
X45749285Y-136485714D01*
X46499285Y-136807142D01*
%TO.C,C4*%
X43517857Y-113625000D02*
X43553571Y-113660714D01*
X43589285Y-113767857D01*
X43589285Y-113839285D01*
X43553571Y-113946428D01*
X43482142Y-114017857D01*
X43410714Y-114053571D01*
X43267857Y-114089285D01*
X43160714Y-114089285D01*
X43017857Y-114053571D01*
X42946428Y-114017857D01*
X42875000Y-113946428D01*
X42839285Y-113839285D01*
X42839285Y-113767857D01*
X42875000Y-113660714D01*
X42910714Y-113625000D01*
X43089285Y-112982142D02*
X43589285Y-112982142D01*
X42803571Y-113160714D02*
X43339285Y-113339285D01*
X43339285Y-112875000D01*
X42839285Y-111232142D02*
X42839285Y-111160714D01*
X42875000Y-111089285D01*
X42910714Y-111053571D01*
X42982142Y-111017857D01*
X43125000Y-110982142D01*
X43303571Y-110982142D01*
X43446428Y-111017857D01*
X43517857Y-111053571D01*
X43553571Y-111089285D01*
X43589285Y-111160714D01*
X43589285Y-111232142D01*
X43553571Y-111303571D01*
X43517857Y-111339285D01*
X43446428Y-111375000D01*
X43303571Y-111410714D01*
X43125000Y-111410714D01*
X42982142Y-111375000D01*
X42910714Y-111339285D01*
X42875000Y-111303571D01*
X42839285Y-111232142D01*
X43517857Y-110660714D02*
X43553571Y-110625000D01*
X43589285Y-110660714D01*
X43553571Y-110696428D01*
X43517857Y-110660714D01*
X43589285Y-110660714D01*
X43589285Y-109910714D02*
X43589285Y-110339285D01*
X43589285Y-110125000D02*
X42839285Y-110125000D01*
X42946428Y-110196428D01*
X43017857Y-110267857D01*
X43053571Y-110339285D01*
X43089285Y-109267857D02*
X43589285Y-109267857D01*
X43089285Y-109589285D02*
X43482142Y-109589285D01*
X43553571Y-109553571D01*
X43589285Y-109482142D01*
X43589285Y-109375000D01*
X43553571Y-109303571D01*
X43517857Y-109267857D01*
X43196428Y-108660714D02*
X43196428Y-108910714D01*
X43589285Y-108910714D02*
X42839285Y-108910714D01*
X42839285Y-108553571D01*
%TO.C,C5*%
X59267857Y-113125000D02*
X59303571Y-113160714D01*
X59339285Y-113267857D01*
X59339285Y-113339285D01*
X59303571Y-113446428D01*
X59232142Y-113517857D01*
X59160714Y-113553571D01*
X59017857Y-113589285D01*
X58910714Y-113589285D01*
X58767857Y-113553571D01*
X58696428Y-113517857D01*
X58625000Y-113446428D01*
X58589285Y-113339285D01*
X58589285Y-113267857D01*
X58625000Y-113160714D01*
X58660714Y-113125000D01*
X58589285Y-112446428D02*
X58589285Y-112803571D01*
X58946428Y-112839285D01*
X58910714Y-112803571D01*
X58875000Y-112732142D01*
X58875000Y-112553571D01*
X58910714Y-112482142D01*
X58946428Y-112446428D01*
X59017857Y-112410714D01*
X59196428Y-112410714D01*
X59267857Y-112446428D01*
X59303571Y-112482142D01*
X59339285Y-112553571D01*
X59339285Y-112732142D01*
X59303571Y-112803571D01*
X59267857Y-112839285D01*
X58589285Y-111482142D02*
X58589285Y-111410714D01*
X58625000Y-111339285D01*
X58660714Y-111303571D01*
X58732142Y-111267857D01*
X58875000Y-111232142D01*
X59053571Y-111232142D01*
X59196428Y-111267857D01*
X59267857Y-111303571D01*
X59303571Y-111339285D01*
X59339285Y-111410714D01*
X59339285Y-111482142D01*
X59303571Y-111553571D01*
X59267857Y-111589285D01*
X59196428Y-111625000D01*
X59053571Y-111660714D01*
X58875000Y-111660714D01*
X58732142Y-111625000D01*
X58660714Y-111589285D01*
X58625000Y-111553571D01*
X58589285Y-111482142D01*
X59267857Y-110910714D02*
X59303571Y-110875000D01*
X59339285Y-110910714D01*
X59303571Y-110946428D01*
X59267857Y-110910714D01*
X59339285Y-110910714D01*
X59339285Y-110160714D02*
X59339285Y-110589285D01*
X59339285Y-110375000D02*
X58589285Y-110375000D01*
X58696428Y-110446428D01*
X58767857Y-110517857D01*
X58803571Y-110589285D01*
X58839285Y-109517857D02*
X59339285Y-109517857D01*
X58839285Y-109839285D02*
X59232142Y-109839285D01*
X59303571Y-109803571D01*
X59339285Y-109732142D01*
X59339285Y-109625000D01*
X59303571Y-109553571D01*
X59267857Y-109517857D01*
X58946428Y-108910714D02*
X58946428Y-109160714D01*
X59339285Y-109160714D02*
X58589285Y-109160714D01*
X58589285Y-108803571D01*
%TO.C,C8*%
X59267857Y-96375000D02*
X59303571Y-96410714D01*
X59339285Y-96517857D01*
X59339285Y-96589285D01*
X59303571Y-96696428D01*
X59232142Y-96767857D01*
X59160714Y-96803571D01*
X59017857Y-96839285D01*
X58910714Y-96839285D01*
X58767857Y-96803571D01*
X58696428Y-96767857D01*
X58625000Y-96696428D01*
X58589285Y-96589285D01*
X58589285Y-96517857D01*
X58625000Y-96410714D01*
X58660714Y-96375000D01*
X58910714Y-95946428D02*
X58875000Y-96017857D01*
X58839285Y-96053571D01*
X58767857Y-96089285D01*
X58732142Y-96089285D01*
X58660714Y-96053571D01*
X58625000Y-96017857D01*
X58589285Y-95946428D01*
X58589285Y-95803571D01*
X58625000Y-95732142D01*
X58660714Y-95696428D01*
X58732142Y-95660714D01*
X58767857Y-95660714D01*
X58839285Y-95696428D01*
X58875000Y-95732142D01*
X58910714Y-95803571D01*
X58910714Y-95946428D01*
X58946428Y-96017857D01*
X58982142Y-96053571D01*
X59053571Y-96089285D01*
X59196428Y-96089285D01*
X59267857Y-96053571D01*
X59303571Y-96017857D01*
X59339285Y-95946428D01*
X59339285Y-95803571D01*
X59303571Y-95732142D01*
X59267857Y-95696428D01*
X59196428Y-95660714D01*
X59053571Y-95660714D01*
X58982142Y-95696428D01*
X58946428Y-95732142D01*
X58910714Y-95803571D01*
X58589285Y-94732142D02*
X58589285Y-94660714D01*
X58625000Y-94589285D01*
X58660714Y-94553571D01*
X58732142Y-94517857D01*
X58875000Y-94482142D01*
X59053571Y-94482142D01*
X59196428Y-94517857D01*
X59267857Y-94553571D01*
X59303571Y-94589285D01*
X59339285Y-94660714D01*
X59339285Y-94732142D01*
X59303571Y-94803571D01*
X59267857Y-94839285D01*
X59196428Y-94875000D01*
X59053571Y-94910714D01*
X58875000Y-94910714D01*
X58732142Y-94875000D01*
X58660714Y-94839285D01*
X58625000Y-94803571D01*
X58589285Y-94732142D01*
X59267857Y-94160714D02*
X59303571Y-94125000D01*
X59339285Y-94160714D01*
X59303571Y-94196428D01*
X59267857Y-94160714D01*
X59339285Y-94160714D01*
X59339285Y-93410714D02*
X59339285Y-93839285D01*
X59339285Y-93625000D02*
X58589285Y-93625000D01*
X58696428Y-93696428D01*
X58767857Y-93767857D01*
X58803571Y-93839285D01*
X58839285Y-92767857D02*
X59339285Y-92767857D01*
X58839285Y-93089285D02*
X59232142Y-93089285D01*
X59303571Y-93053571D01*
X59339285Y-92982142D01*
X59339285Y-92875000D01*
X59303571Y-92803571D01*
X59267857Y-92767857D01*
X58946428Y-92160714D02*
X58946428Y-92410714D01*
X59339285Y-92410714D02*
X58589285Y-92410714D01*
X58589285Y-92053571D01*
%TO.C,IC1*%
X67652857Y-86679285D02*
X67652857Y-85929285D01*
X68438571Y-86607857D02*
X68402857Y-86643571D01*
X68295714Y-86679285D01*
X68224285Y-86679285D01*
X68117142Y-86643571D01*
X68045714Y-86572142D01*
X68010000Y-86500714D01*
X67974285Y-86357857D01*
X67974285Y-86250714D01*
X68010000Y-86107857D01*
X68045714Y-86036428D01*
X68117142Y-85965000D01*
X68224285Y-85929285D01*
X68295714Y-85929285D01*
X68402857Y-85965000D01*
X68438571Y-86000714D01*
X69152857Y-86679285D02*
X68724285Y-86679285D01*
X68938571Y-86679285D02*
X68938571Y-85929285D01*
X68867142Y-86036428D01*
X68795714Y-86107857D01*
X68724285Y-86143571D01*
X68164285Y-97859285D02*
X68164285Y-97430714D01*
X68914285Y-97645000D02*
X68164285Y-97645000D01*
X68914285Y-96823571D02*
X68914285Y-97180714D01*
X68164285Y-97180714D01*
X68164285Y-96430714D02*
X68164285Y-96359285D01*
X68200000Y-96287857D01*
X68235714Y-96252142D01*
X68307142Y-96216428D01*
X68450000Y-96180714D01*
X68628571Y-96180714D01*
X68771428Y-96216428D01*
X68842857Y-96252142D01*
X68878571Y-96287857D01*
X68914285Y-96359285D01*
X68914285Y-96430714D01*
X68878571Y-96502142D01*
X68842857Y-96537857D01*
X68771428Y-96573571D01*
X68628571Y-96609285D01*
X68450000Y-96609285D01*
X68307142Y-96573571D01*
X68235714Y-96537857D01*
X68200000Y-96502142D01*
X68164285Y-96430714D01*
X68164285Y-95930714D02*
X68164285Y-95430714D01*
X68914285Y-95752142D01*
X68414285Y-94823571D02*
X68914285Y-94823571D01*
X68128571Y-95002142D02*
X68664285Y-95180714D01*
X68664285Y-94716428D01*
%TO.C,C6*%
X43767857Y-96875000D02*
X43803571Y-96910714D01*
X43839285Y-97017857D01*
X43839285Y-97089285D01*
X43803571Y-97196428D01*
X43732142Y-97267857D01*
X43660714Y-97303571D01*
X43517857Y-97339285D01*
X43410714Y-97339285D01*
X43267857Y-97303571D01*
X43196428Y-97267857D01*
X43125000Y-97196428D01*
X43089285Y-97089285D01*
X43089285Y-97017857D01*
X43125000Y-96910714D01*
X43160714Y-96875000D01*
X43089285Y-96232142D02*
X43089285Y-96375000D01*
X43125000Y-96446428D01*
X43160714Y-96482142D01*
X43267857Y-96553571D01*
X43410714Y-96589285D01*
X43696428Y-96589285D01*
X43767857Y-96553571D01*
X43803571Y-96517857D01*
X43839285Y-96446428D01*
X43839285Y-96303571D01*
X43803571Y-96232142D01*
X43767857Y-96196428D01*
X43696428Y-96160714D01*
X43517857Y-96160714D01*
X43446428Y-96196428D01*
X43410714Y-96232142D01*
X43375000Y-96303571D01*
X43375000Y-96446428D01*
X43410714Y-96517857D01*
X43446428Y-96553571D01*
X43517857Y-96589285D01*
X43089285Y-94982142D02*
X43089285Y-94910714D01*
X43125000Y-94839285D01*
X43160714Y-94803571D01*
X43232142Y-94767857D01*
X43375000Y-94732142D01*
X43553571Y-94732142D01*
X43696428Y-94767857D01*
X43767857Y-94803571D01*
X43803571Y-94839285D01*
X43839285Y-94910714D01*
X43839285Y-94982142D01*
X43803571Y-95053571D01*
X43767857Y-95089285D01*
X43696428Y-95125000D01*
X43553571Y-95160714D01*
X43375000Y-95160714D01*
X43232142Y-95125000D01*
X43160714Y-95089285D01*
X43125000Y-95053571D01*
X43089285Y-94982142D01*
X43767857Y-94410714D02*
X43803571Y-94375000D01*
X43839285Y-94410714D01*
X43803571Y-94446428D01*
X43767857Y-94410714D01*
X43839285Y-94410714D01*
X43839285Y-93660714D02*
X43839285Y-94089285D01*
X43839285Y-93875000D02*
X43089285Y-93875000D01*
X43196428Y-93946428D01*
X43267857Y-94017857D01*
X43303571Y-94089285D01*
X43339285Y-93017857D02*
X43839285Y-93017857D01*
X43339285Y-93339285D02*
X43732142Y-93339285D01*
X43803571Y-93303571D01*
X43839285Y-93232142D01*
X43839285Y-93125000D01*
X43803571Y-93053571D01*
X43767857Y-93017857D01*
X43446428Y-92410714D02*
X43446428Y-92660714D01*
X43839285Y-92660714D02*
X43089285Y-92660714D01*
X43089285Y-92303571D01*
%TO.C,D2*%
X62946428Y-53839285D02*
X62946428Y-53089285D01*
X63125000Y-53089285D01*
X63232142Y-53125000D01*
X63303571Y-53196428D01*
X63339285Y-53267857D01*
X63375000Y-53410714D01*
X63375000Y-53517857D01*
X63339285Y-53660714D01*
X63303571Y-53732142D01*
X63232142Y-53803571D01*
X63125000Y-53839285D01*
X62946428Y-53839285D01*
X63660714Y-53160714D02*
X63696428Y-53125000D01*
X63767857Y-53089285D01*
X63946428Y-53089285D01*
X64017857Y-53125000D01*
X64053571Y-53160714D01*
X64089285Y-53232142D01*
X64089285Y-53303571D01*
X64053571Y-53410714D01*
X63625000Y-53839285D01*
X64089285Y-53839285D01*
X55553571Y-53839285D02*
X55553571Y-53089285D01*
X55982142Y-53839285D02*
X55660714Y-53410714D01*
X55982142Y-53089285D02*
X55553571Y-53517857D01*
X58501428Y-51494285D02*
X58072857Y-51494285D01*
X58287142Y-51494285D02*
X58287142Y-50744285D01*
X58215714Y-50851428D01*
X58144285Y-50922857D01*
X58072857Y-50958571D01*
X58822857Y-50994285D02*
X58822857Y-51494285D01*
X58822857Y-51065714D02*
X58858571Y-51030000D01*
X58930000Y-50994285D01*
X59037142Y-50994285D01*
X59108571Y-51030000D01*
X59144285Y-51101428D01*
X59144285Y-51494285D01*
X59858571Y-50744285D02*
X59501428Y-50744285D01*
X59465714Y-51101428D01*
X59501428Y-51065714D01*
X59572857Y-51030000D01*
X59751428Y-51030000D01*
X59822857Y-51065714D01*
X59858571Y-51101428D01*
X59894285Y-51172857D01*
X59894285Y-51351428D01*
X59858571Y-51422857D01*
X59822857Y-51458571D01*
X59751428Y-51494285D01*
X59572857Y-51494285D01*
X59501428Y-51458571D01*
X59465714Y-51422857D01*
X60322857Y-51065714D02*
X60251428Y-51030000D01*
X60215714Y-50994285D01*
X60180000Y-50922857D01*
X60180000Y-50887142D01*
X60215714Y-50815714D01*
X60251428Y-50780000D01*
X60322857Y-50744285D01*
X60465714Y-50744285D01*
X60537142Y-50780000D01*
X60572857Y-50815714D01*
X60608571Y-50887142D01*
X60608571Y-50922857D01*
X60572857Y-50994285D01*
X60537142Y-51030000D01*
X60465714Y-51065714D01*
X60322857Y-51065714D01*
X60251428Y-51101428D01*
X60215714Y-51137142D01*
X60180000Y-51208571D01*
X60180000Y-51351428D01*
X60215714Y-51422857D01*
X60251428Y-51458571D01*
X60322857Y-51494285D01*
X60465714Y-51494285D01*
X60537142Y-51458571D01*
X60572857Y-51422857D01*
X60608571Y-51351428D01*
X60608571Y-51208571D01*
X60572857Y-51137142D01*
X60537142Y-51101428D01*
X60465714Y-51065714D01*
X61322857Y-51494285D02*
X60894285Y-51494285D01*
X61108571Y-51494285D02*
X61108571Y-50744285D01*
X61037142Y-50851428D01*
X60965714Y-50922857D01*
X60894285Y-50958571D01*
X61572857Y-50744285D02*
X62072857Y-50744285D01*
X61751428Y-51494285D01*
%TO.C,R6*%
X67260000Y-75769285D02*
X67010000Y-75412142D01*
X66831428Y-75769285D02*
X66831428Y-75019285D01*
X67117142Y-75019285D01*
X67188571Y-75055000D01*
X67224285Y-75090714D01*
X67260000Y-75162142D01*
X67260000Y-75269285D01*
X67224285Y-75340714D01*
X67188571Y-75376428D01*
X67117142Y-75412142D01*
X66831428Y-75412142D01*
X67902857Y-75019285D02*
X67760000Y-75019285D01*
X67688571Y-75055000D01*
X67652857Y-75090714D01*
X67581428Y-75197857D01*
X67545714Y-75340714D01*
X67545714Y-75626428D01*
X67581428Y-75697857D01*
X67617142Y-75733571D01*
X67688571Y-75769285D01*
X67831428Y-75769285D01*
X67902857Y-75733571D01*
X67938571Y-75697857D01*
X67974285Y-75626428D01*
X67974285Y-75447857D01*
X67938571Y-75376428D01*
X67902857Y-75340714D01*
X67831428Y-75305000D01*
X67688571Y-75305000D01*
X67617142Y-75340714D01*
X67581428Y-75376428D01*
X67545714Y-75447857D01*
X63968571Y-73169285D02*
X63968571Y-73669285D01*
X63790000Y-72883571D02*
X63611428Y-73419285D01*
X64075714Y-73419285D01*
X64361428Y-73597857D02*
X64397142Y-73633571D01*
X64361428Y-73669285D01*
X64325714Y-73633571D01*
X64361428Y-73597857D01*
X64361428Y-73669285D01*
X64647142Y-72919285D02*
X65147142Y-72919285D01*
X64825714Y-73669285D01*
X65432857Y-73669285D02*
X65432857Y-72919285D01*
X65504285Y-73383571D02*
X65718571Y-73669285D01*
X65718571Y-73169285D02*
X65432857Y-73455000D01*
%TO.C,R4*%
X67140000Y-80114285D02*
X66890000Y-79757142D01*
X66711428Y-80114285D02*
X66711428Y-79364285D01*
X66997142Y-79364285D01*
X67068571Y-79400000D01*
X67104285Y-79435714D01*
X67140000Y-79507142D01*
X67140000Y-79614285D01*
X67104285Y-79685714D01*
X67068571Y-79721428D01*
X66997142Y-79757142D01*
X66711428Y-79757142D01*
X67782857Y-79614285D02*
X67782857Y-80114285D01*
X67604285Y-79328571D02*
X67425714Y-79864285D01*
X67890000Y-79864285D01*
X63711428Y-77564285D02*
X64175714Y-77564285D01*
X63925714Y-77850000D01*
X64032857Y-77850000D01*
X64104285Y-77885714D01*
X64140000Y-77921428D01*
X64175714Y-77992857D01*
X64175714Y-78171428D01*
X64140000Y-78242857D01*
X64104285Y-78278571D01*
X64032857Y-78314285D01*
X63818571Y-78314285D01*
X63747142Y-78278571D01*
X63711428Y-78242857D01*
X64497142Y-78314285D02*
X64497142Y-77564285D01*
X64568571Y-78028571D02*
X64782857Y-78314285D01*
X64782857Y-77814285D02*
X64497142Y-78100000D01*
%TO.C,C9*%
X75625000Y-92517857D02*
X75589285Y-92553571D01*
X75482142Y-92589285D01*
X75410714Y-92589285D01*
X75303571Y-92553571D01*
X75232142Y-92482142D01*
X75196428Y-92410714D01*
X75160714Y-92267857D01*
X75160714Y-92160714D01*
X75196428Y-92017857D01*
X75232142Y-91946428D01*
X75303571Y-91875000D01*
X75410714Y-91839285D01*
X75482142Y-91839285D01*
X75589285Y-91875000D01*
X75625000Y-91910714D01*
X75982142Y-92589285D02*
X76125000Y-92589285D01*
X76196428Y-92553571D01*
X76232142Y-92517857D01*
X76303571Y-92410714D01*
X76339285Y-92267857D01*
X76339285Y-91982142D01*
X76303571Y-91910714D01*
X76267857Y-91875000D01*
X76196428Y-91839285D01*
X76053571Y-91839285D01*
X75982142Y-91875000D01*
X75946428Y-91910714D01*
X75910714Y-91982142D01*
X75910714Y-92160714D01*
X75946428Y-92232142D01*
X75982142Y-92267857D01*
X76053571Y-92303571D01*
X76196428Y-92303571D01*
X76267857Y-92267857D01*
X76303571Y-92232142D01*
X76339285Y-92160714D01*
X78017857Y-91839285D02*
X78089285Y-91839285D01*
X78160714Y-91875000D01*
X78196428Y-91910714D01*
X78232142Y-91982142D01*
X78267857Y-92125000D01*
X78267857Y-92303571D01*
X78232142Y-92446428D01*
X78196428Y-92517857D01*
X78160714Y-92553571D01*
X78089285Y-92589285D01*
X78017857Y-92589285D01*
X77946428Y-92553571D01*
X77910714Y-92517857D01*
X77875000Y-92446428D01*
X77839285Y-92303571D01*
X77839285Y-92125000D01*
X77875000Y-91982142D01*
X77910714Y-91910714D01*
X77946428Y-91875000D01*
X78017857Y-91839285D01*
X78589285Y-92517857D02*
X78625000Y-92553571D01*
X78589285Y-92589285D01*
X78553571Y-92553571D01*
X78589285Y-92517857D01*
X78589285Y-92589285D01*
X79339285Y-92589285D02*
X78910714Y-92589285D01*
X79125000Y-92589285D02*
X79125000Y-91839285D01*
X79053571Y-91946428D01*
X78982142Y-92017857D01*
X78910714Y-92053571D01*
X79982142Y-92089285D02*
X79982142Y-92589285D01*
X79660714Y-92089285D02*
X79660714Y-92482142D01*
X79696428Y-92553571D01*
X79767857Y-92589285D01*
X79875000Y-92589285D01*
X79946428Y-92553571D01*
X79982142Y-92517857D01*
X80589285Y-92196428D02*
X80339285Y-92196428D01*
X80339285Y-92589285D02*
X80339285Y-91839285D01*
X80696428Y-91839285D01*
%TO.C,C2*%
X44440000Y-48572857D02*
X44404285Y-48608571D01*
X44297142Y-48644285D01*
X44225714Y-48644285D01*
X44118571Y-48608571D01*
X44047142Y-48537142D01*
X44011428Y-48465714D01*
X43975714Y-48322857D01*
X43975714Y-48215714D01*
X44011428Y-48072857D01*
X44047142Y-48001428D01*
X44118571Y-47930000D01*
X44225714Y-47894285D01*
X44297142Y-47894285D01*
X44404285Y-47930000D01*
X44440000Y-47965714D01*
X44725714Y-47965714D02*
X44761428Y-47930000D01*
X44832857Y-47894285D01*
X45011428Y-47894285D01*
X45082857Y-47930000D01*
X45118571Y-47965714D01*
X45154285Y-48037142D01*
X45154285Y-48108571D01*
X45118571Y-48215714D01*
X44690000Y-48644285D01*
X45154285Y-48644285D01*
X46561428Y-51444285D02*
X46132857Y-51444285D01*
X46347142Y-51444285D02*
X46347142Y-50694285D01*
X46275714Y-50801428D01*
X46204285Y-50872857D01*
X46132857Y-50908571D01*
X47025714Y-50694285D02*
X47097142Y-50694285D01*
X47168571Y-50730000D01*
X47204285Y-50765714D01*
X47240000Y-50837142D01*
X47275714Y-50980000D01*
X47275714Y-51158571D01*
X47240000Y-51301428D01*
X47204285Y-51372857D01*
X47168571Y-51408571D01*
X47097142Y-51444285D01*
X47025714Y-51444285D01*
X46954285Y-51408571D01*
X46918571Y-51372857D01*
X46882857Y-51301428D01*
X46847142Y-51158571D01*
X46847142Y-50980000D01*
X46882857Y-50837142D01*
X46918571Y-50765714D01*
X46954285Y-50730000D01*
X47025714Y-50694285D01*
X47918571Y-50944285D02*
X47918571Y-51444285D01*
X47597142Y-50944285D02*
X47597142Y-51337142D01*
X47632857Y-51408571D01*
X47704285Y-51444285D01*
X47811428Y-51444285D01*
X47882857Y-51408571D01*
X47918571Y-51372857D01*
X48525714Y-51051428D02*
X48275714Y-51051428D01*
X48275714Y-51444285D02*
X48275714Y-50694285D01*
X48632857Y-50694285D01*
%TO.C,C7*%
X55517857Y-98875000D02*
X55553571Y-98910714D01*
X55589285Y-99017857D01*
X55589285Y-99089285D01*
X55553571Y-99196428D01*
X55482142Y-99267857D01*
X55410714Y-99303571D01*
X55267857Y-99339285D01*
X55160714Y-99339285D01*
X55017857Y-99303571D01*
X54946428Y-99267857D01*
X54875000Y-99196428D01*
X54839285Y-99089285D01*
X54839285Y-99017857D01*
X54875000Y-98910714D01*
X54910714Y-98875000D01*
X54839285Y-98625000D02*
X54839285Y-98125000D01*
X55589285Y-98446428D01*
X54839285Y-97232142D02*
X54839285Y-97160714D01*
X54875000Y-97089285D01*
X54910714Y-97053571D01*
X54982142Y-97017857D01*
X55125000Y-96982142D01*
X55303571Y-96982142D01*
X55446428Y-97017857D01*
X55517857Y-97053571D01*
X55553571Y-97089285D01*
X55589285Y-97160714D01*
X55589285Y-97232142D01*
X55553571Y-97303571D01*
X55517857Y-97339285D01*
X55446428Y-97375000D01*
X55303571Y-97410714D01*
X55125000Y-97410714D01*
X54982142Y-97375000D01*
X54910714Y-97339285D01*
X54875000Y-97303571D01*
X54839285Y-97232142D01*
X55517857Y-96660714D02*
X55553571Y-96625000D01*
X55589285Y-96660714D01*
X55553571Y-96696428D01*
X55517857Y-96660714D01*
X55589285Y-96660714D01*
X55589285Y-95910714D02*
X55589285Y-96339285D01*
X55589285Y-96125000D02*
X54839285Y-96125000D01*
X54946428Y-96196428D01*
X55017857Y-96267857D01*
X55053571Y-96339285D01*
X55089285Y-95267857D02*
X55589285Y-95267857D01*
X55089285Y-95589285D02*
X55482142Y-95589285D01*
X55553571Y-95553571D01*
X55589285Y-95482142D01*
X55589285Y-95375000D01*
X55553571Y-95303571D01*
X55517857Y-95267857D01*
X55196428Y-94660714D02*
X55196428Y-94910714D01*
X55589285Y-94910714D02*
X54839285Y-94910714D01*
X54839285Y-94553571D01*
%TO.C,J1*%
X77965000Y-53164285D02*
X77965000Y-53700000D01*
X77929285Y-53807142D01*
X77857857Y-53878571D01*
X77750714Y-53914285D01*
X77679285Y-53914285D01*
X78715000Y-53914285D02*
X78286428Y-53914285D01*
X78500714Y-53914285D02*
X78500714Y-53164285D01*
X78429285Y-53271428D01*
X78357857Y-53342857D01*
X78286428Y-53378571D01*
X70298571Y-65627380D02*
X69965238Y-65151190D01*
X69727142Y-65627380D02*
X69727142Y-64627380D01*
X70108095Y-64627380D01*
X70203333Y-64675000D01*
X70250952Y-64722619D01*
X70298571Y-64817857D01*
X70298571Y-64960714D01*
X70250952Y-65055952D01*
X70203333Y-65103571D01*
X70108095Y-65151190D01*
X69727142Y-65151190D01*
X70727142Y-65103571D02*
X71060476Y-65103571D01*
X71203333Y-65627380D02*
X70727142Y-65627380D01*
X70727142Y-64627380D01*
X71203333Y-64627380D01*
X71631904Y-65627380D02*
X71631904Y-64627380D01*
X71870000Y-64627380D01*
X72012857Y-64675000D01*
X72108095Y-64770238D01*
X72155714Y-64865476D01*
X72203333Y-65055952D01*
X72203333Y-65198809D01*
X72155714Y-65389285D01*
X72108095Y-65484523D01*
X72012857Y-65579761D01*
X71870000Y-65627380D01*
X71631904Y-65627380D01*
X73346190Y-65579761D02*
X73489047Y-65627380D01*
X73727142Y-65627380D01*
X73822380Y-65579761D01*
X73870000Y-65532142D01*
X73917619Y-65436904D01*
X73917619Y-65341666D01*
X73870000Y-65246428D01*
X73822380Y-65198809D01*
X73727142Y-65151190D01*
X73536666Y-65103571D01*
X73441428Y-65055952D01*
X73393809Y-65008333D01*
X73346190Y-64913095D01*
X73346190Y-64817857D01*
X73393809Y-64722619D01*
X73441428Y-64675000D01*
X73536666Y-64627380D01*
X73774761Y-64627380D01*
X73917619Y-64675000D01*
X74203333Y-64627380D02*
X74774761Y-64627380D01*
X74489047Y-65627380D02*
X74489047Y-64627380D01*
X75679523Y-65627380D02*
X75346190Y-65151190D01*
X75108095Y-65627380D02*
X75108095Y-64627380D01*
X75489047Y-64627380D01*
X75584285Y-64675000D01*
X75631904Y-64722619D01*
X75679523Y-64817857D01*
X75679523Y-64960714D01*
X75631904Y-65055952D01*
X75584285Y-65103571D01*
X75489047Y-65151190D01*
X75108095Y-65151190D01*
X76108095Y-65627380D02*
X76108095Y-64627380D01*
X76584285Y-65627380D02*
X76584285Y-64627380D01*
X76965238Y-64627380D01*
X77060476Y-64675000D01*
X77108095Y-64722619D01*
X77155714Y-64817857D01*
X77155714Y-64960714D01*
X77108095Y-65055952D01*
X77060476Y-65103571D01*
X76965238Y-65151190D01*
X76584285Y-65151190D01*
X77584285Y-65103571D02*
X77917619Y-65103571D01*
X78060476Y-65627380D02*
X77584285Y-65627380D01*
X77584285Y-64627380D01*
X78060476Y-64627380D01*
X65353095Y-65246428D02*
X66115000Y-65246428D01*
X67115000Y-65627380D02*
X66543571Y-65627380D01*
X66829285Y-65627380D02*
X66829285Y-64627380D01*
X66734047Y-64770238D01*
X66638809Y-64865476D01*
X66543571Y-64913095D01*
X67495952Y-64722619D02*
X67543571Y-64675000D01*
X67638809Y-64627380D01*
X67876904Y-64627380D01*
X67972142Y-64675000D01*
X68019761Y-64722619D01*
X68067380Y-64817857D01*
X68067380Y-64913095D01*
X68019761Y-65055952D01*
X67448333Y-65627380D01*
X68067380Y-65627380D01*
X68353095Y-64627380D02*
X68686428Y-65627380D01*
X69019761Y-64627380D01*
X70703095Y-42396428D02*
X71465000Y-42396428D01*
X71084047Y-42777380D02*
X71084047Y-42015476D01*
X72465000Y-42777380D02*
X71893571Y-42777380D01*
X72179285Y-42777380D02*
X72179285Y-41777380D01*
X72084047Y-41920238D01*
X71988809Y-42015476D01*
X71893571Y-42063095D01*
X72845952Y-41872619D02*
X72893571Y-41825000D01*
X72988809Y-41777380D01*
X73226904Y-41777380D01*
X73322142Y-41825000D01*
X73369761Y-41872619D01*
X73417380Y-41967857D01*
X73417380Y-42063095D01*
X73369761Y-42205952D01*
X72798333Y-42777380D01*
X73417380Y-42777380D01*
X73703095Y-41777380D02*
X74036428Y-42777380D01*
X74369761Y-41777380D01*
%TO.C,R2*%
X46035000Y-124442285D02*
X45785000Y-124085142D01*
X45606428Y-124442285D02*
X45606428Y-123692285D01*
X45892142Y-123692285D01*
X45963571Y-123728000D01*
X45999285Y-123763714D01*
X46035000Y-123835142D01*
X46035000Y-123942285D01*
X45999285Y-124013714D01*
X45963571Y-124049428D01*
X45892142Y-124085142D01*
X45606428Y-124085142D01*
X46320714Y-123763714D02*
X46356428Y-123728000D01*
X46427857Y-123692285D01*
X46606428Y-123692285D01*
X46677857Y-123728000D01*
X46713571Y-123763714D01*
X46749285Y-123835142D01*
X46749285Y-123906571D01*
X46713571Y-124013714D01*
X46285000Y-124442285D01*
X46749285Y-124442285D01*
X45070714Y-125724285D02*
X45535000Y-125724285D01*
X45285000Y-126010000D01*
X45392142Y-126010000D01*
X45463571Y-126045714D01*
X45499285Y-126081428D01*
X45535000Y-126152857D01*
X45535000Y-126331428D01*
X45499285Y-126402857D01*
X45463571Y-126438571D01*
X45392142Y-126474285D01*
X45177857Y-126474285D01*
X45106428Y-126438571D01*
X45070714Y-126402857D01*
X45856428Y-126402857D02*
X45892142Y-126438571D01*
X45856428Y-126474285D01*
X45820714Y-126438571D01*
X45856428Y-126402857D01*
X45856428Y-126474285D01*
X46249285Y-126474285D02*
X46392142Y-126474285D01*
X46463571Y-126438571D01*
X46499285Y-126402857D01*
X46570714Y-126295714D01*
X46606428Y-126152857D01*
X46606428Y-125867142D01*
X46570714Y-125795714D01*
X46535000Y-125760000D01*
X46463571Y-125724285D01*
X46320714Y-125724285D01*
X46249285Y-125760000D01*
X46213571Y-125795714D01*
X46177857Y-125867142D01*
X46177857Y-126045714D01*
X46213571Y-126117142D01*
X46249285Y-126152857D01*
X46320714Y-126188571D01*
X46463571Y-126188571D01*
X46535000Y-126152857D01*
X46570714Y-126117142D01*
X46606428Y-126045714D01*
X46927857Y-126474285D02*
X46927857Y-125724285D01*
X46999285Y-126188571D02*
X47213571Y-126474285D01*
X47213571Y-125974285D02*
X46927857Y-126260000D01*
%TO.C,R3*%
X67117000Y-84691285D02*
X66867000Y-84334142D01*
X66688428Y-84691285D02*
X66688428Y-83941285D01*
X66974142Y-83941285D01*
X67045571Y-83977000D01*
X67081285Y-84012714D01*
X67117000Y-84084142D01*
X67117000Y-84191285D01*
X67081285Y-84262714D01*
X67045571Y-84298428D01*
X66974142Y-84334142D01*
X66688428Y-84334142D01*
X67367000Y-83941285D02*
X67831285Y-83941285D01*
X67581285Y-84227000D01*
X67688428Y-84227000D01*
X67759857Y-84262714D01*
X67795571Y-84298428D01*
X67831285Y-84369857D01*
X67831285Y-84548428D01*
X67795571Y-84619857D01*
X67759857Y-84655571D01*
X67688428Y-84691285D01*
X67474142Y-84691285D01*
X67402714Y-84655571D01*
X67367000Y-84619857D01*
X64318571Y-82659285D02*
X63890000Y-82659285D01*
X64104285Y-82659285D02*
X64104285Y-81909285D01*
X64032857Y-82016428D01*
X63961428Y-82087857D01*
X63890000Y-82123571D01*
X64782857Y-81909285D02*
X64854285Y-81909285D01*
X64925714Y-81945000D01*
X64961428Y-81980714D01*
X64997142Y-82052142D01*
X65032857Y-82195000D01*
X65032857Y-82373571D01*
X64997142Y-82516428D01*
X64961428Y-82587857D01*
X64925714Y-82623571D01*
X64854285Y-82659285D01*
X64782857Y-82659285D01*
X64711428Y-82623571D01*
X64675714Y-82587857D01*
X64640000Y-82516428D01*
X64604285Y-82373571D01*
X64604285Y-82195000D01*
X64640000Y-82052142D01*
X64675714Y-81980714D01*
X64711428Y-81945000D01*
X64782857Y-81909285D01*
X65354285Y-82659285D02*
X65354285Y-81909285D01*
X65425714Y-82373571D02*
X65640000Y-82659285D01*
X65640000Y-82159285D02*
X65354285Y-82445000D01*
%TO.C,R1*%
X40589285Y-153875000D02*
X40232142Y-154125000D01*
X40589285Y-154303571D02*
X39839285Y-154303571D01*
X39839285Y-154017857D01*
X39875000Y-153946428D01*
X39910714Y-153910714D01*
X39982142Y-153875000D01*
X40089285Y-153875000D01*
X40160714Y-153910714D01*
X40196428Y-153946428D01*
X40232142Y-154017857D01*
X40232142Y-154303571D01*
X40589285Y-153160714D02*
X40589285Y-153589285D01*
X40589285Y-153375000D02*
X39839285Y-153375000D01*
X39946428Y-153446428D01*
X40017857Y-153517857D01*
X40053571Y-153589285D01*
X41860714Y-152043571D02*
X41825000Y-152007857D01*
X41789285Y-151936428D01*
X41789285Y-151757857D01*
X41825000Y-151686428D01*
X41860714Y-151650714D01*
X41932142Y-151615000D01*
X42003571Y-151615000D01*
X42110714Y-151650714D01*
X42539285Y-152079285D01*
X42539285Y-151615000D01*
X41860714Y-151329285D02*
X41825000Y-151293571D01*
X41789285Y-151222142D01*
X41789285Y-151043571D01*
X41825000Y-150972142D01*
X41860714Y-150936428D01*
X41932142Y-150900714D01*
X42003571Y-150900714D01*
X42110714Y-150936428D01*
X42539285Y-151365000D01*
X42539285Y-150900714D01*
X41789285Y-150436428D02*
X41789285Y-150365000D01*
X41825000Y-150293571D01*
X41860714Y-150257857D01*
X41932142Y-150222142D01*
X42075000Y-150186428D01*
X42253571Y-150186428D01*
X42396428Y-150222142D01*
X42467857Y-150257857D01*
X42503571Y-150293571D01*
X42539285Y-150365000D01*
X42539285Y-150436428D01*
X42503571Y-150507857D01*
X42467857Y-150543571D01*
X42396428Y-150579285D01*
X42253571Y-150615000D01*
X42075000Y-150615000D01*
X41932142Y-150579285D01*
X41860714Y-150543571D01*
X41825000Y-150507857D01*
X41789285Y-150436428D01*
X42539285Y-149436428D02*
X42182142Y-149686428D01*
X42539285Y-149865000D02*
X41789285Y-149865000D01*
X41789285Y-149579285D01*
X41825000Y-149507857D01*
X41860714Y-149472142D01*
X41932142Y-149436428D01*
X42039285Y-149436428D01*
X42110714Y-149472142D01*
X42146428Y-149507857D01*
X42182142Y-149579285D01*
X42182142Y-149865000D01*
%TO.C,D3*%
X55196428Y-61339285D02*
X55196428Y-60589285D01*
X55375000Y-60589285D01*
X55482142Y-60625000D01*
X55553571Y-60696428D01*
X55589285Y-60767857D01*
X55625000Y-60910714D01*
X55625000Y-61017857D01*
X55589285Y-61160714D01*
X55553571Y-61232142D01*
X55482142Y-61303571D01*
X55375000Y-61339285D01*
X55196428Y-61339285D01*
X55875000Y-60589285D02*
X56339285Y-60589285D01*
X56089285Y-60875000D01*
X56196428Y-60875000D01*
X56267857Y-60910714D01*
X56303571Y-60946428D01*
X56339285Y-61017857D01*
X56339285Y-61196428D01*
X56303571Y-61267857D01*
X56267857Y-61303571D01*
X56196428Y-61339285D01*
X55982142Y-61339285D01*
X55910714Y-61303571D01*
X55875000Y-61267857D01*
X63303571Y-61339285D02*
X63303571Y-60589285D01*
X63732142Y-61339285D02*
X63410714Y-60910714D01*
X63732142Y-60589285D02*
X63303571Y-61017857D01*
X57501428Y-59264285D02*
X57072857Y-59264285D01*
X57287142Y-59264285D02*
X57287142Y-58514285D01*
X57215714Y-58621428D01*
X57144285Y-58692857D01*
X57072857Y-58728571D01*
X57822857Y-58764285D02*
X57822857Y-59264285D01*
X57822857Y-58835714D02*
X57858571Y-58800000D01*
X57930000Y-58764285D01*
X58037142Y-58764285D01*
X58108571Y-58800000D01*
X58144285Y-58871428D01*
X58144285Y-59264285D01*
X58858571Y-58514285D02*
X58501428Y-58514285D01*
X58465714Y-58871428D01*
X58501428Y-58835714D01*
X58572857Y-58800000D01*
X58751428Y-58800000D01*
X58822857Y-58835714D01*
X58858571Y-58871428D01*
X58894285Y-58942857D01*
X58894285Y-59121428D01*
X58858571Y-59192857D01*
X58822857Y-59228571D01*
X58751428Y-59264285D01*
X58572857Y-59264285D01*
X58501428Y-59228571D01*
X58465714Y-59192857D01*
X59322857Y-58835714D02*
X59251428Y-58800000D01*
X59215714Y-58764285D01*
X59180000Y-58692857D01*
X59180000Y-58657142D01*
X59215714Y-58585714D01*
X59251428Y-58550000D01*
X59322857Y-58514285D01*
X59465714Y-58514285D01*
X59537142Y-58550000D01*
X59572857Y-58585714D01*
X59608571Y-58657142D01*
X59608571Y-58692857D01*
X59572857Y-58764285D01*
X59537142Y-58800000D01*
X59465714Y-58835714D01*
X59322857Y-58835714D01*
X59251428Y-58871428D01*
X59215714Y-58907142D01*
X59180000Y-58978571D01*
X59180000Y-59121428D01*
X59215714Y-59192857D01*
X59251428Y-59228571D01*
X59322857Y-59264285D01*
X59465714Y-59264285D01*
X59537142Y-59228571D01*
X59572857Y-59192857D01*
X59608571Y-59121428D01*
X59608571Y-58978571D01*
X59572857Y-58907142D01*
X59537142Y-58871428D01*
X59465714Y-58835714D01*
X60322857Y-59264285D02*
X59894285Y-59264285D01*
X60108571Y-59264285D02*
X60108571Y-58514285D01*
X60037142Y-58621428D01*
X59965714Y-58692857D01*
X59894285Y-58728571D01*
X60572857Y-58514285D02*
X61072857Y-58514285D01*
X60751428Y-59264285D01*
%TO.C,DAC2*%
X70325000Y-108299285D02*
X70325000Y-107549285D01*
X70503571Y-107549285D01*
X70610714Y-107585000D01*
X70682142Y-107656428D01*
X70717857Y-107727857D01*
X70753571Y-107870714D01*
X70753571Y-107977857D01*
X70717857Y-108120714D01*
X70682142Y-108192142D01*
X70610714Y-108263571D01*
X70503571Y-108299285D01*
X70325000Y-108299285D01*
X71039285Y-108085000D02*
X71396428Y-108085000D01*
X70967857Y-108299285D02*
X71217857Y-107549285D01*
X71467857Y-108299285D01*
X72146428Y-108227857D02*
X72110714Y-108263571D01*
X72003571Y-108299285D01*
X71932142Y-108299285D01*
X71825000Y-108263571D01*
X71753571Y-108192142D01*
X71717857Y-108120714D01*
X71682142Y-107977857D01*
X71682142Y-107870714D01*
X71717857Y-107727857D01*
X71753571Y-107656428D01*
X71825000Y-107585000D01*
X71932142Y-107549285D01*
X72003571Y-107549285D01*
X72110714Y-107585000D01*
X72146428Y-107620714D01*
X72432142Y-107620714D02*
X72467857Y-107585000D01*
X72539285Y-107549285D01*
X72717857Y-107549285D01*
X72789285Y-107585000D01*
X72825000Y-107620714D01*
X72860714Y-107692142D01*
X72860714Y-107763571D01*
X72825000Y-107870714D01*
X72396428Y-108299285D01*
X72860714Y-108299285D01*
X67714285Y-116388571D02*
X66964285Y-116388571D01*
X67500000Y-116138571D01*
X66964285Y-115888571D01*
X67714285Y-115888571D01*
X67642857Y-115102857D02*
X67678571Y-115138571D01*
X67714285Y-115245714D01*
X67714285Y-115317142D01*
X67678571Y-115424285D01*
X67607142Y-115495714D01*
X67535714Y-115531428D01*
X67392857Y-115567142D01*
X67285714Y-115567142D01*
X67142857Y-115531428D01*
X67071428Y-115495714D01*
X67000000Y-115424285D01*
X66964285Y-115317142D01*
X66964285Y-115245714D01*
X67000000Y-115138571D01*
X67035714Y-115102857D01*
X67714285Y-114781428D02*
X66964285Y-114781428D01*
X66964285Y-114495714D01*
X67000000Y-114424285D01*
X67035714Y-114388571D01*
X67107142Y-114352857D01*
X67214285Y-114352857D01*
X67285714Y-114388571D01*
X67321428Y-114424285D01*
X67357142Y-114495714D01*
X67357142Y-114781428D01*
X67214285Y-113710000D02*
X67714285Y-113710000D01*
X66928571Y-113888571D02*
X67464285Y-114067142D01*
X67464285Y-113602857D01*
X67285714Y-113210000D02*
X67250000Y-113281428D01*
X67214285Y-113317142D01*
X67142857Y-113352857D01*
X67107142Y-113352857D01*
X67035714Y-113317142D01*
X67000000Y-113281428D01*
X66964285Y-113210000D01*
X66964285Y-113067142D01*
X67000000Y-112995714D01*
X67035714Y-112960000D01*
X67107142Y-112924285D01*
X67142857Y-112924285D01*
X67214285Y-112960000D01*
X67250000Y-112995714D01*
X67285714Y-113067142D01*
X67285714Y-113210000D01*
X67321428Y-113281428D01*
X67357142Y-113317142D01*
X67428571Y-113352857D01*
X67571428Y-113352857D01*
X67642857Y-113317142D01*
X67678571Y-113281428D01*
X67714285Y-113210000D01*
X67714285Y-113067142D01*
X67678571Y-112995714D01*
X67642857Y-112960000D01*
X67571428Y-112924285D01*
X67428571Y-112924285D01*
X67357142Y-112960000D01*
X67321428Y-112995714D01*
X67285714Y-113067142D01*
X67035714Y-112638571D02*
X67000000Y-112602857D01*
X66964285Y-112531428D01*
X66964285Y-112352857D01*
X67000000Y-112281428D01*
X67035714Y-112245714D01*
X67107142Y-112210000D01*
X67178571Y-112210000D01*
X67285714Y-112245714D01*
X67714285Y-112674285D01*
X67714285Y-112210000D01*
X67035714Y-111924285D02*
X67000000Y-111888571D01*
X66964285Y-111817142D01*
X66964285Y-111638571D01*
X67000000Y-111567142D01*
X67035714Y-111531428D01*
X67107142Y-111495714D01*
X67178571Y-111495714D01*
X67285714Y-111531428D01*
X67714285Y-111960000D01*
X67714285Y-111495714D01*
%TO.C,DAC1*%
X51475000Y-108269285D02*
X51475000Y-107519285D01*
X51653571Y-107519285D01*
X51760714Y-107555000D01*
X51832142Y-107626428D01*
X51867857Y-107697857D01*
X51903571Y-107840714D01*
X51903571Y-107947857D01*
X51867857Y-108090714D01*
X51832142Y-108162142D01*
X51760714Y-108233571D01*
X51653571Y-108269285D01*
X51475000Y-108269285D01*
X52189285Y-108055000D02*
X52546428Y-108055000D01*
X52117857Y-108269285D02*
X52367857Y-107519285D01*
X52617857Y-108269285D01*
X53296428Y-108197857D02*
X53260714Y-108233571D01*
X53153571Y-108269285D01*
X53082142Y-108269285D01*
X52975000Y-108233571D01*
X52903571Y-108162142D01*
X52867857Y-108090714D01*
X52832142Y-107947857D01*
X52832142Y-107840714D01*
X52867857Y-107697857D01*
X52903571Y-107626428D01*
X52975000Y-107555000D01*
X53082142Y-107519285D01*
X53153571Y-107519285D01*
X53260714Y-107555000D01*
X53296428Y-107590714D01*
X54010714Y-108269285D02*
X53582142Y-108269285D01*
X53796428Y-108269285D02*
X53796428Y-107519285D01*
X53725000Y-107626428D01*
X53653571Y-107697857D01*
X53582142Y-107733571D01*
X49674285Y-116498571D02*
X48924285Y-116498571D01*
X49460000Y-116248571D01*
X48924285Y-115998571D01*
X49674285Y-115998571D01*
X49602857Y-115212857D02*
X49638571Y-115248571D01*
X49674285Y-115355714D01*
X49674285Y-115427142D01*
X49638571Y-115534285D01*
X49567142Y-115605714D01*
X49495714Y-115641428D01*
X49352857Y-115677142D01*
X49245714Y-115677142D01*
X49102857Y-115641428D01*
X49031428Y-115605714D01*
X48960000Y-115534285D01*
X48924285Y-115427142D01*
X48924285Y-115355714D01*
X48960000Y-115248571D01*
X48995714Y-115212857D01*
X49674285Y-114891428D02*
X48924285Y-114891428D01*
X48924285Y-114605714D01*
X48960000Y-114534285D01*
X48995714Y-114498571D01*
X49067142Y-114462857D01*
X49174285Y-114462857D01*
X49245714Y-114498571D01*
X49281428Y-114534285D01*
X49317142Y-114605714D01*
X49317142Y-114891428D01*
X49174285Y-113820000D02*
X49674285Y-113820000D01*
X48888571Y-113998571D02*
X49424285Y-114177142D01*
X49424285Y-113712857D01*
X49245714Y-113320000D02*
X49210000Y-113391428D01*
X49174285Y-113427142D01*
X49102857Y-113462857D01*
X49067142Y-113462857D01*
X48995714Y-113427142D01*
X48960000Y-113391428D01*
X48924285Y-113320000D01*
X48924285Y-113177142D01*
X48960000Y-113105714D01*
X48995714Y-113070000D01*
X49067142Y-113034285D01*
X49102857Y-113034285D01*
X49174285Y-113070000D01*
X49210000Y-113105714D01*
X49245714Y-113177142D01*
X49245714Y-113320000D01*
X49281428Y-113391428D01*
X49317142Y-113427142D01*
X49388571Y-113462857D01*
X49531428Y-113462857D01*
X49602857Y-113427142D01*
X49638571Y-113391428D01*
X49674285Y-113320000D01*
X49674285Y-113177142D01*
X49638571Y-113105714D01*
X49602857Y-113070000D01*
X49531428Y-113034285D01*
X49388571Y-113034285D01*
X49317142Y-113070000D01*
X49281428Y-113105714D01*
X49245714Y-113177142D01*
X48995714Y-112748571D02*
X48960000Y-112712857D01*
X48924285Y-112641428D01*
X48924285Y-112462857D01*
X48960000Y-112391428D01*
X48995714Y-112355714D01*
X49067142Y-112320000D01*
X49138571Y-112320000D01*
X49245714Y-112355714D01*
X49674285Y-112784285D01*
X49674285Y-112320000D01*
X48995714Y-112034285D02*
X48960000Y-111998571D01*
X48924285Y-111927142D01*
X48924285Y-111748571D01*
X48960000Y-111677142D01*
X48995714Y-111641428D01*
X49067142Y-111605714D01*
X49138571Y-111605714D01*
X49245714Y-111641428D01*
X49674285Y-112070000D01*
X49674285Y-111605714D01*
%TO.C,A1*%
X67214285Y-125625000D02*
X67571428Y-125625000D01*
X67142857Y-125839285D02*
X67392857Y-125089285D01*
X67642857Y-125839285D01*
X68285714Y-125839285D02*
X67857142Y-125839285D01*
X68071428Y-125839285D02*
X68071428Y-125089285D01*
X68000000Y-125196428D01*
X67928571Y-125267857D01*
X67857142Y-125303571D01*
X63076428Y-149120000D02*
X63433571Y-149120000D01*
X63005000Y-149334285D02*
X63255000Y-148584285D01*
X63505000Y-149334285D01*
X63755000Y-149334285D02*
X63755000Y-148834285D01*
X63755000Y-148977142D02*
X63790714Y-148905714D01*
X63826428Y-148870000D01*
X63897857Y-148834285D01*
X63969285Y-148834285D01*
X64540714Y-149334285D02*
X64540714Y-148584285D01*
X64540714Y-149298571D02*
X64469285Y-149334285D01*
X64326428Y-149334285D01*
X64255000Y-149298571D01*
X64219285Y-149262857D01*
X64183571Y-149191428D01*
X64183571Y-148977142D01*
X64219285Y-148905714D01*
X64255000Y-148870000D01*
X64326428Y-148834285D01*
X64469285Y-148834285D01*
X64540714Y-148870000D01*
X65219285Y-148834285D02*
X65219285Y-149334285D01*
X64897857Y-148834285D02*
X64897857Y-149227142D01*
X64933571Y-149298571D01*
X65005000Y-149334285D01*
X65112142Y-149334285D01*
X65183571Y-149298571D01*
X65219285Y-149262857D01*
X65576428Y-149334285D02*
X65576428Y-148834285D01*
X65576428Y-148584285D02*
X65540714Y-148620000D01*
X65576428Y-148655714D01*
X65612142Y-148620000D01*
X65576428Y-148584285D01*
X65576428Y-148655714D01*
X65933571Y-148834285D02*
X65933571Y-149334285D01*
X65933571Y-148905714D02*
X65969285Y-148870000D01*
X66040714Y-148834285D01*
X66147857Y-148834285D01*
X66219285Y-148870000D01*
X66255000Y-148941428D01*
X66255000Y-149334285D01*
X66719285Y-149334285D02*
X66647857Y-149298571D01*
X66612142Y-149262857D01*
X66576428Y-149191428D01*
X66576428Y-148977142D01*
X66612142Y-148905714D01*
X66647857Y-148870000D01*
X66719285Y-148834285D01*
X66826428Y-148834285D01*
X66897857Y-148870000D01*
X66933571Y-148905714D01*
X66969285Y-148977142D01*
X66969285Y-149191428D01*
X66933571Y-149262857D01*
X66897857Y-149298571D01*
X66826428Y-149334285D01*
X66719285Y-149334285D01*
X67112142Y-149405714D02*
X67683571Y-149405714D01*
X67862142Y-149334285D02*
X67862142Y-148584285D01*
X68290714Y-149334285D01*
X68290714Y-148584285D01*
X68969285Y-149334285D02*
X68969285Y-148941428D01*
X68933571Y-148870000D01*
X68862142Y-148834285D01*
X68719285Y-148834285D01*
X68647857Y-148870000D01*
X68969285Y-149298571D02*
X68897857Y-149334285D01*
X68719285Y-149334285D01*
X68647857Y-149298571D01*
X68612142Y-149227142D01*
X68612142Y-149155714D01*
X68647857Y-149084285D01*
X68719285Y-149048571D01*
X68897857Y-149048571D01*
X68969285Y-149012857D01*
X69326428Y-148834285D02*
X69326428Y-149334285D01*
X69326428Y-148905714D02*
X69362142Y-148870000D01*
X69433571Y-148834285D01*
X69540714Y-148834285D01*
X69612142Y-148870000D01*
X69647857Y-148941428D01*
X69647857Y-149334285D01*
X70112142Y-149334285D02*
X70040714Y-149298571D01*
X70005000Y-149262857D01*
X69969285Y-149191428D01*
X69969285Y-148977142D01*
X70005000Y-148905714D01*
X70040714Y-148870000D01*
X70112142Y-148834285D01*
X70219285Y-148834285D01*
X70290714Y-148870000D01*
X70326428Y-148905714D01*
X70362142Y-148977142D01*
X70362142Y-149191428D01*
X70326428Y-149262857D01*
X70290714Y-149298571D01*
X70219285Y-149334285D01*
X70112142Y-149334285D01*
X70505000Y-149405714D02*
X71076428Y-149405714D01*
X71183571Y-148834285D02*
X71362142Y-149334285D01*
X71540714Y-148834285D01*
X71755000Y-148584285D02*
X72219285Y-148584285D01*
X71969285Y-148870000D01*
X72076428Y-148870000D01*
X72147857Y-148905714D01*
X72183571Y-148941428D01*
X72219285Y-149012857D01*
X72219285Y-149191428D01*
X72183571Y-149262857D01*
X72147857Y-149298571D01*
X72076428Y-149334285D01*
X71862142Y-149334285D01*
X71790714Y-149298571D01*
X71755000Y-149262857D01*
X72540714Y-149262857D02*
X72576428Y-149298571D01*
X72540714Y-149334285D01*
X72505000Y-149298571D01*
X72540714Y-149262857D01*
X72540714Y-149334285D01*
X72826428Y-149334285D02*
X73219285Y-148834285D01*
X72826428Y-148834285D02*
X73219285Y-149334285D01*
%TO.C,C1*%
X47375000Y-128767857D02*
X47339285Y-128803571D01*
X47232142Y-128839285D01*
X47160714Y-128839285D01*
X47053571Y-128803571D01*
X46982142Y-128732142D01*
X46946428Y-128660714D01*
X46910714Y-128517857D01*
X46910714Y-128410714D01*
X46946428Y-128267857D01*
X46982142Y-128196428D01*
X47053571Y-128125000D01*
X47160714Y-128089285D01*
X47232142Y-128089285D01*
X47339285Y-128125000D01*
X47375000Y-128160714D01*
X48089285Y-128839285D02*
X47660714Y-128839285D01*
X47875000Y-128839285D02*
X47875000Y-128089285D01*
X47803571Y-128196428D01*
X47732142Y-128267857D01*
X47660714Y-128303571D01*
X49017857Y-128089285D02*
X49089285Y-128089285D01*
X49160714Y-128125000D01*
X49196428Y-128160714D01*
X49232142Y-128232142D01*
X49267857Y-128375000D01*
X49267857Y-128553571D01*
X49232142Y-128696428D01*
X49196428Y-128767857D01*
X49160714Y-128803571D01*
X49089285Y-128839285D01*
X49017857Y-128839285D01*
X48946428Y-128803571D01*
X48910714Y-128767857D01*
X48875000Y-128696428D01*
X48839285Y-128553571D01*
X48839285Y-128375000D01*
X48875000Y-128232142D01*
X48910714Y-128160714D01*
X48946428Y-128125000D01*
X49017857Y-128089285D01*
X49589285Y-128767857D02*
X49625000Y-128803571D01*
X49589285Y-128839285D01*
X49553571Y-128803571D01*
X49589285Y-128767857D01*
X49589285Y-128839285D01*
X50339285Y-128839285D02*
X49910714Y-128839285D01*
X50125000Y-128839285D02*
X50125000Y-128089285D01*
X50053571Y-128196428D01*
X49982142Y-128267857D01*
X49910714Y-128303571D01*
X50982142Y-128339285D02*
X50982142Y-128839285D01*
X50660714Y-128339285D02*
X50660714Y-128732142D01*
X50696428Y-128803571D01*
X50767857Y-128839285D01*
X50875000Y-128839285D01*
X50946428Y-128803571D01*
X50982142Y-128767857D01*
X51589285Y-128446428D02*
X51339285Y-128446428D01*
X51339285Y-128839285D02*
X51339285Y-128089285D01*
X51696428Y-128089285D01*
%TO.C,C3*%
X44390000Y-56042857D02*
X44354285Y-56078571D01*
X44247142Y-56114285D01*
X44175714Y-56114285D01*
X44068571Y-56078571D01*
X43997142Y-56007142D01*
X43961428Y-55935714D01*
X43925714Y-55792857D01*
X43925714Y-55685714D01*
X43961428Y-55542857D01*
X43997142Y-55471428D01*
X44068571Y-55400000D01*
X44175714Y-55364285D01*
X44247142Y-55364285D01*
X44354285Y-55400000D01*
X44390000Y-55435714D01*
X44640000Y-55364285D02*
X45104285Y-55364285D01*
X44854285Y-55650000D01*
X44961428Y-55650000D01*
X45032857Y-55685714D01*
X45068571Y-55721428D01*
X45104285Y-55792857D01*
X45104285Y-55971428D01*
X45068571Y-56042857D01*
X45032857Y-56078571D01*
X44961428Y-56114285D01*
X44747142Y-56114285D01*
X44675714Y-56078571D01*
X44640000Y-56042857D01*
X46311428Y-59114285D02*
X45882857Y-59114285D01*
X46097142Y-59114285D02*
X46097142Y-58364285D01*
X46025714Y-58471428D01*
X45954285Y-58542857D01*
X45882857Y-58578571D01*
X46775714Y-58364285D02*
X46847142Y-58364285D01*
X46918571Y-58400000D01*
X46954285Y-58435714D01*
X46990000Y-58507142D01*
X47025714Y-58650000D01*
X47025714Y-58828571D01*
X46990000Y-58971428D01*
X46954285Y-59042857D01*
X46918571Y-59078571D01*
X46847142Y-59114285D01*
X46775714Y-59114285D01*
X46704285Y-59078571D01*
X46668571Y-59042857D01*
X46632857Y-58971428D01*
X46597142Y-58828571D01*
X46597142Y-58650000D01*
X46632857Y-58507142D01*
X46668571Y-58435714D01*
X46704285Y-58400000D01*
X46775714Y-58364285D01*
X47668571Y-58614285D02*
X47668571Y-59114285D01*
X47347142Y-58614285D02*
X47347142Y-59007142D01*
X47382857Y-59078571D01*
X47454285Y-59114285D01*
X47561428Y-59114285D01*
X47632857Y-59078571D01*
X47668571Y-59042857D01*
X48275714Y-58721428D02*
X48025714Y-58721428D01*
X48025714Y-59114285D02*
X48025714Y-58364285D01*
X48382857Y-58364285D01*
%TD*%
M02*
