%TF.GenerationSoftware,KiCad,Pcbnew,5.1.9-73d0e3b20d~88~ubuntu20.04.1*%
%TF.CreationDate,2021-03-31T20:46:55-04:00*%
%TF.ProjectId,MCVI,4d435649-2e6b-4696-9361-645f70636258,rev?*%
%TF.SameCoordinates,Original*%
%TF.FileFunction,Legend,Bot*%
%TF.FilePolarity,Positive*%
%FSLAX46Y46*%
G04 Gerber Fmt 4.6, Leading zero omitted, Abs format (unit mm)*
G04 Created by KiCad (PCBNEW 5.1.9-73d0e3b20d~88~ubuntu20.04.1) date 2021-03-31 20:46:55*
%MOMM*%
%LPD*%
G01*
G04 APERTURE LIST*
%ADD10C,0.100000*%
%ADD11C,0.150000*%
%ADD12C,0.120000*%
%ADD13C,0.010000*%
G04 APERTURE END LIST*
D10*
X75915571Y-69693428D02*
X75808428Y-69729142D01*
X75772714Y-69764857D01*
X75737000Y-69836285D01*
X75737000Y-69943428D01*
X75772714Y-70014857D01*
X75808428Y-70050571D01*
X75879857Y-70086285D01*
X76165571Y-70086285D01*
X76165571Y-69336285D01*
X75915571Y-69336285D01*
X75844142Y-69372000D01*
X75808428Y-69407714D01*
X75772714Y-69479142D01*
X75772714Y-69550571D01*
X75808428Y-69622000D01*
X75844142Y-69657714D01*
X75915571Y-69693428D01*
X76165571Y-69693428D01*
X75415571Y-69693428D02*
X75165571Y-69693428D01*
X75058428Y-70086285D02*
X75415571Y-70086285D01*
X75415571Y-69336285D01*
X75058428Y-69336285D01*
X74737000Y-70086285D02*
X74737000Y-69336285D01*
X74308428Y-70086285D01*
X74308428Y-69336285D01*
X73951285Y-70086285D02*
X73951285Y-69336285D01*
X73772714Y-69336285D01*
X73665571Y-69372000D01*
X73594142Y-69443428D01*
X73558428Y-69514857D01*
X73522714Y-69657714D01*
X73522714Y-69764857D01*
X73558428Y-69907714D01*
X73594142Y-69979142D01*
X73665571Y-70050571D01*
X73772714Y-70086285D01*
X73951285Y-70086285D01*
X68670571Y-71356285D02*
X68670571Y-70606285D01*
X68384857Y-70606285D01*
X68313428Y-70642000D01*
X68277714Y-70677714D01*
X68242000Y-70749142D01*
X68242000Y-70856285D01*
X68277714Y-70927714D01*
X68313428Y-70963428D01*
X68384857Y-70999142D01*
X68670571Y-70999142D01*
X67920571Y-71356285D02*
X67920571Y-70606285D01*
X67670571Y-70606285D02*
X67242000Y-70606285D01*
X67456285Y-71356285D02*
X67456285Y-70606285D01*
X66563428Y-71284857D02*
X66599142Y-71320571D01*
X66706285Y-71356285D01*
X66777714Y-71356285D01*
X66884857Y-71320571D01*
X66956285Y-71249142D01*
X66992000Y-71177714D01*
X67027714Y-71034857D01*
X67027714Y-70927714D01*
X66992000Y-70784857D01*
X66956285Y-70713428D01*
X66884857Y-70642000D01*
X66777714Y-70606285D01*
X66706285Y-70606285D01*
X66599142Y-70642000D01*
X66563428Y-70677714D01*
X66242000Y-71356285D02*
X66242000Y-70606285D01*
X66242000Y-70963428D02*
X65813428Y-70963428D01*
X65813428Y-71356285D02*
X65813428Y-70606285D01*
X60764857Y-69336285D02*
X60336285Y-69336285D01*
X60550571Y-70086285D02*
X60550571Y-69336285D01*
X59657714Y-70086285D02*
X59907714Y-69729142D01*
X60086285Y-70086285D02*
X60086285Y-69336285D01*
X59800571Y-69336285D01*
X59729142Y-69372000D01*
X59693428Y-69407714D01*
X59657714Y-69479142D01*
X59657714Y-69586285D01*
X59693428Y-69657714D01*
X59729142Y-69693428D01*
X59800571Y-69729142D01*
X60086285Y-69729142D01*
X59336285Y-70086285D02*
X59336285Y-69336285D01*
X58586285Y-69372000D02*
X58657714Y-69336285D01*
X58764857Y-69336285D01*
X58872000Y-69372000D01*
X58943428Y-69443428D01*
X58979142Y-69514857D01*
X59014857Y-69657714D01*
X59014857Y-69764857D01*
X58979142Y-69907714D01*
X58943428Y-69979142D01*
X58872000Y-70050571D01*
X58764857Y-70086285D01*
X58693428Y-70086285D01*
X58586285Y-70050571D01*
X58550571Y-70014857D01*
X58550571Y-69764857D01*
X58693428Y-69764857D01*
X70674857Y-69336285D02*
X70424857Y-70086285D01*
X70174857Y-69336285D01*
X69924857Y-69693428D02*
X69674857Y-69693428D01*
X69567714Y-70086285D02*
X69924857Y-70086285D01*
X69924857Y-69336285D01*
X69567714Y-69336285D01*
X68889142Y-70086285D02*
X69246285Y-70086285D01*
X69246285Y-69336285D01*
X52573428Y-70642000D02*
X52644857Y-70606285D01*
X52752000Y-70606285D01*
X52859142Y-70642000D01*
X52930571Y-70713428D01*
X52966285Y-70784857D01*
X53002000Y-70927714D01*
X53002000Y-71034857D01*
X52966285Y-71177714D01*
X52930571Y-71249142D01*
X52859142Y-71320571D01*
X52752000Y-71356285D01*
X52680571Y-71356285D01*
X52573428Y-71320571D01*
X52537714Y-71284857D01*
X52537714Y-71034857D01*
X52680571Y-71034857D01*
X52216285Y-71356285D02*
X52216285Y-70606285D01*
X51787714Y-71356285D01*
X51787714Y-70606285D01*
X51430571Y-71356285D02*
X51430571Y-70606285D01*
X51252000Y-70606285D01*
X51144857Y-70642000D01*
X51073428Y-70713428D01*
X51037714Y-70784857D01*
X51002000Y-70927714D01*
X51002000Y-71034857D01*
X51037714Y-71177714D01*
X51073428Y-71249142D01*
X51144857Y-71320571D01*
X51252000Y-71356285D01*
X51430571Y-71356285D01*
X58278428Y-71284857D02*
X58314142Y-71320571D01*
X58421285Y-71356285D01*
X58492714Y-71356285D01*
X58599857Y-71320571D01*
X58671285Y-71249142D01*
X58707000Y-71177714D01*
X58742714Y-71034857D01*
X58742714Y-70927714D01*
X58707000Y-70784857D01*
X58671285Y-70713428D01*
X58599857Y-70642000D01*
X58492714Y-70606285D01*
X58421285Y-70606285D01*
X58314142Y-70642000D01*
X58278428Y-70677714D01*
X57599857Y-71356285D02*
X57957000Y-71356285D01*
X57957000Y-70606285D01*
X56957000Y-71356285D02*
X57385571Y-71356285D01*
X57171285Y-71356285D02*
X57171285Y-70606285D01*
X57242714Y-70713428D01*
X57314142Y-70784857D01*
X57385571Y-70820571D01*
X56635571Y-71356285D02*
X56635571Y-70606285D01*
X56349857Y-70606285D01*
X56278428Y-70642000D01*
X56242714Y-70677714D01*
X56207000Y-70749142D01*
X56207000Y-70856285D01*
X56242714Y-70927714D01*
X56278428Y-70963428D01*
X56349857Y-70999142D01*
X56635571Y-70999142D01*
X55385571Y-71427714D02*
X55457000Y-71392000D01*
X55528428Y-71320571D01*
X55635571Y-71213428D01*
X55707000Y-71177714D01*
X55778428Y-71177714D01*
X55742714Y-71356285D02*
X55814142Y-71320571D01*
X55885571Y-71249142D01*
X55921285Y-71106285D01*
X55921285Y-70856285D01*
X55885571Y-70713428D01*
X55814142Y-70642000D01*
X55742714Y-70606285D01*
X55599857Y-70606285D01*
X55528428Y-70642000D01*
X55457000Y-70713428D01*
X55421285Y-70856285D01*
X55421285Y-71106285D01*
X55457000Y-71249142D01*
X55528428Y-71320571D01*
X55599857Y-71356285D01*
X55742714Y-71356285D01*
X55738428Y-70014857D02*
X55774142Y-70050571D01*
X55881285Y-70086285D01*
X55952714Y-70086285D01*
X56059857Y-70050571D01*
X56131285Y-69979142D01*
X56167000Y-69907714D01*
X56202714Y-69764857D01*
X56202714Y-69657714D01*
X56167000Y-69514857D01*
X56131285Y-69443428D01*
X56059857Y-69372000D01*
X55952714Y-69336285D01*
X55881285Y-69336285D01*
X55774142Y-69372000D01*
X55738428Y-69407714D01*
X55059857Y-70086285D02*
X55417000Y-70086285D01*
X55417000Y-69336285D01*
X54488428Y-69586285D02*
X54488428Y-70086285D01*
X54667000Y-69300571D02*
X54845571Y-69836285D01*
X54381285Y-69836285D01*
X54095571Y-70086285D02*
X54095571Y-69336285D01*
X53809857Y-69336285D01*
X53738428Y-69372000D01*
X53702714Y-69407714D01*
X53667000Y-69479142D01*
X53667000Y-69586285D01*
X53702714Y-69657714D01*
X53738428Y-69693428D01*
X53809857Y-69729142D01*
X54095571Y-69729142D01*
X52845571Y-70157714D02*
X52917000Y-70122000D01*
X52988428Y-70050571D01*
X53095571Y-69943428D01*
X53167000Y-69907714D01*
X53238428Y-69907714D01*
X53202714Y-70086285D02*
X53274142Y-70050571D01*
X53345571Y-69979142D01*
X53381285Y-69836285D01*
X53381285Y-69586285D01*
X53345571Y-69443428D01*
X53274142Y-69372000D01*
X53202714Y-69336285D01*
X53059857Y-69336285D01*
X52988428Y-69372000D01*
X52917000Y-69443428D01*
X52881285Y-69586285D01*
X52881285Y-69836285D01*
X52917000Y-69979142D01*
X52988428Y-70050571D01*
X53059857Y-70086285D01*
X53202714Y-70086285D01*
X62912000Y-70642000D02*
X62983428Y-70606285D01*
X63090571Y-70606285D01*
X63197714Y-70642000D01*
X63269142Y-70713428D01*
X63304857Y-70784857D01*
X63340571Y-70927714D01*
X63340571Y-71034857D01*
X63304857Y-71177714D01*
X63269142Y-71249142D01*
X63197714Y-71320571D01*
X63090571Y-71356285D01*
X63019142Y-71356285D01*
X62912000Y-71320571D01*
X62876285Y-71284857D01*
X62876285Y-71034857D01*
X63019142Y-71034857D01*
X62590571Y-71142000D02*
X62233428Y-71142000D01*
X62662000Y-71356285D02*
X62412000Y-70606285D01*
X62162000Y-71356285D01*
X62019142Y-70606285D02*
X61590571Y-70606285D01*
X61804857Y-71356285D02*
X61804857Y-70606285D01*
X61340571Y-70963428D02*
X61090571Y-70963428D01*
X60983428Y-71356285D02*
X61340571Y-71356285D01*
X61340571Y-70606285D01*
X60983428Y-70606285D01*
X65184142Y-70086285D02*
X65541285Y-70086285D01*
X65541285Y-69336285D01*
X64934142Y-69693428D02*
X64684142Y-69693428D01*
X64577000Y-70086285D02*
X64934142Y-70086285D01*
X64934142Y-69336285D01*
X64577000Y-69336285D01*
X64255571Y-70086285D02*
X64255571Y-69336285D01*
X64077000Y-69336285D01*
X63969857Y-69372000D01*
X63898428Y-69443428D01*
X63862714Y-69514857D01*
X63827000Y-69657714D01*
X63827000Y-69764857D01*
X63862714Y-69907714D01*
X63898428Y-69979142D01*
X63969857Y-70050571D01*
X64077000Y-70086285D01*
X64255571Y-70086285D01*
D11*
X64458000Y-142177190D02*
X64410380Y-142081952D01*
X64410380Y-141939095D01*
X64458000Y-141796238D01*
X64553238Y-141701000D01*
X64648476Y-141653380D01*
X64838952Y-141605761D01*
X64981809Y-141605761D01*
X65172285Y-141653380D01*
X65267523Y-141701000D01*
X65362761Y-141796238D01*
X65410380Y-141939095D01*
X65410380Y-142034333D01*
X65362761Y-142177190D01*
X65315142Y-142224809D01*
X64981809Y-142224809D01*
X64981809Y-142034333D01*
X65410380Y-142653380D02*
X64743714Y-142653380D01*
X64410380Y-142653380D02*
X64458000Y-142605761D01*
X64505619Y-142653380D01*
X64458000Y-142701000D01*
X64410380Y-142653380D01*
X64505619Y-142653380D01*
X64743714Y-142986714D02*
X64743714Y-143367666D01*
X64410380Y-143129571D02*
X65267523Y-143129571D01*
X65362761Y-143177190D01*
X65410380Y-143272428D01*
X65410380Y-143367666D01*
X65410380Y-143701000D02*
X64410380Y-143701000D01*
X65410380Y-144129571D02*
X64886571Y-144129571D01*
X64791333Y-144081952D01*
X64743714Y-143986714D01*
X64743714Y-143843857D01*
X64791333Y-143748619D01*
X64838952Y-143701000D01*
X64743714Y-145034333D02*
X65410380Y-145034333D01*
X64743714Y-144605761D02*
X65267523Y-144605761D01*
X65362761Y-144653380D01*
X65410380Y-144748619D01*
X65410380Y-144891476D01*
X65362761Y-144986714D01*
X65315142Y-145034333D01*
X65410380Y-145510523D02*
X64410380Y-145510523D01*
X64791333Y-145510523D02*
X64743714Y-145605761D01*
X64743714Y-145796238D01*
X64791333Y-145891476D01*
X64838952Y-145939095D01*
X64934190Y-145986714D01*
X65219904Y-145986714D01*
X65315142Y-145939095D01*
X65362761Y-145891476D01*
X65410380Y-145796238D01*
X65410380Y-145605761D01*
X65362761Y-145510523D01*
X65410380Y-147177190D02*
X64743714Y-147177190D01*
X64934190Y-147177190D02*
X64838952Y-147224809D01*
X64791333Y-147272428D01*
X64743714Y-147367666D01*
X64743714Y-147462904D01*
X65362761Y-148177190D02*
X65410380Y-148081952D01*
X65410380Y-147891476D01*
X65362761Y-147796238D01*
X65267523Y-147748619D01*
X64886571Y-147748619D01*
X64791333Y-147796238D01*
X64743714Y-147891476D01*
X64743714Y-148081952D01*
X64791333Y-148177190D01*
X64886571Y-148224809D01*
X64981809Y-148224809D01*
X65077047Y-147748619D01*
X64743714Y-148653380D02*
X65743714Y-148653380D01*
X64791333Y-148653380D02*
X64743714Y-148748619D01*
X64743714Y-148939095D01*
X64791333Y-149034333D01*
X64838952Y-149081952D01*
X64934190Y-149129571D01*
X65219904Y-149129571D01*
X65315142Y-149081952D01*
X65362761Y-149034333D01*
X65410380Y-148939095D01*
X65410380Y-148748619D01*
X65362761Y-148653380D01*
X65410380Y-149701000D02*
X65362761Y-149605761D01*
X65315142Y-149558142D01*
X65219904Y-149510523D01*
X64934190Y-149510523D01*
X64838952Y-149558142D01*
X64791333Y-149605761D01*
X64743714Y-149701000D01*
X64743714Y-149843857D01*
X64791333Y-149939095D01*
X64838952Y-149986714D01*
X64934190Y-150034333D01*
X65219904Y-150034333D01*
X65315142Y-149986714D01*
X65362761Y-149939095D01*
X65410380Y-149843857D01*
X65410380Y-149701000D01*
X67060380Y-130653380D02*
X66060380Y-130653380D01*
X67060380Y-131081952D02*
X66536571Y-131081952D01*
X66441333Y-131034333D01*
X66393714Y-130939095D01*
X66393714Y-130796238D01*
X66441333Y-130701000D01*
X66488952Y-130653380D01*
X66393714Y-131415285D02*
X66393714Y-131796238D01*
X66060380Y-131558142D02*
X66917523Y-131558142D01*
X67012761Y-131605761D01*
X67060380Y-131701000D01*
X67060380Y-131796238D01*
X66393714Y-131986714D02*
X66393714Y-132367666D01*
X66060380Y-132129571D02*
X66917523Y-132129571D01*
X67012761Y-132177190D01*
X67060380Y-132272428D01*
X67060380Y-132367666D01*
X66393714Y-132701000D02*
X67393714Y-132701000D01*
X66441333Y-132701000D02*
X66393714Y-132796238D01*
X66393714Y-132986714D01*
X66441333Y-133081952D01*
X66488952Y-133129571D01*
X66584190Y-133177190D01*
X66869904Y-133177190D01*
X66965142Y-133129571D01*
X67012761Y-133081952D01*
X67060380Y-132986714D01*
X67060380Y-132796238D01*
X67012761Y-132701000D01*
X67012761Y-133558142D02*
X67060380Y-133653380D01*
X67060380Y-133843857D01*
X67012761Y-133939095D01*
X66917523Y-133986714D01*
X66869904Y-133986714D01*
X66774666Y-133939095D01*
X66727047Y-133843857D01*
X66727047Y-133701000D01*
X66679428Y-133605761D01*
X66584190Y-133558142D01*
X66536571Y-133558142D01*
X66441333Y-133605761D01*
X66393714Y-133701000D01*
X66393714Y-133843857D01*
X66441333Y-133939095D01*
X66965142Y-134415285D02*
X67012761Y-134462904D01*
X67060380Y-134415285D01*
X67012761Y-134367666D01*
X66965142Y-134415285D01*
X67060380Y-134415285D01*
X66441333Y-134415285D02*
X66488952Y-134462904D01*
X66536571Y-134415285D01*
X66488952Y-134367666D01*
X66441333Y-134415285D01*
X66536571Y-134415285D01*
X66012761Y-135605761D02*
X67298476Y-134748619D01*
X66012761Y-136653380D02*
X67298476Y-135796238D01*
X66393714Y-137415285D02*
X67203238Y-137415285D01*
X67298476Y-137367666D01*
X67346095Y-137320047D01*
X67393714Y-137224809D01*
X67393714Y-137081952D01*
X67346095Y-136986714D01*
X67012761Y-137415285D02*
X67060380Y-137320047D01*
X67060380Y-137129571D01*
X67012761Y-137034333D01*
X66965142Y-136986714D01*
X66869904Y-136939095D01*
X66584190Y-136939095D01*
X66488952Y-136986714D01*
X66441333Y-137034333D01*
X66393714Y-137129571D01*
X66393714Y-137320047D01*
X66441333Y-137415285D01*
X67060380Y-137891476D02*
X66393714Y-137891476D01*
X66060380Y-137891476D02*
X66108000Y-137843857D01*
X66155619Y-137891476D01*
X66108000Y-137939095D01*
X66060380Y-137891476D01*
X66155619Y-137891476D01*
X66393714Y-138224809D02*
X66393714Y-138605761D01*
X66060380Y-138367666D02*
X66917523Y-138367666D01*
X67012761Y-138415285D01*
X67060380Y-138510523D01*
X67060380Y-138605761D01*
X67060380Y-138939095D02*
X66060380Y-138939095D01*
X67060380Y-139367666D02*
X66536571Y-139367666D01*
X66441333Y-139320047D01*
X66393714Y-139224809D01*
X66393714Y-139081952D01*
X66441333Y-138986714D01*
X66488952Y-138939095D01*
X66393714Y-140272428D02*
X67060380Y-140272428D01*
X66393714Y-139843857D02*
X66917523Y-139843857D01*
X67012761Y-139891476D01*
X67060380Y-139986714D01*
X67060380Y-140129571D01*
X67012761Y-140224809D01*
X66965142Y-140272428D01*
X67060380Y-140748619D02*
X66060380Y-140748619D01*
X66441333Y-140748619D02*
X66393714Y-140843857D01*
X66393714Y-141034333D01*
X66441333Y-141129571D01*
X66488952Y-141177190D01*
X66584190Y-141224809D01*
X66869904Y-141224809D01*
X66965142Y-141177190D01*
X67012761Y-141129571D01*
X67060380Y-141034333D01*
X67060380Y-140843857D01*
X67012761Y-140748619D01*
X66965142Y-141653380D02*
X67012761Y-141701000D01*
X67060380Y-141653380D01*
X67012761Y-141605761D01*
X66965142Y-141653380D01*
X67060380Y-141653380D01*
X67012761Y-142558142D02*
X67060380Y-142462904D01*
X67060380Y-142272428D01*
X67012761Y-142177190D01*
X66965142Y-142129571D01*
X66869904Y-142081952D01*
X66584190Y-142081952D01*
X66488952Y-142129571D01*
X66441333Y-142177190D01*
X66393714Y-142272428D01*
X66393714Y-142462904D01*
X66441333Y-142558142D01*
X67060380Y-143129571D02*
X67012761Y-143034333D01*
X66965142Y-142986714D01*
X66869904Y-142939095D01*
X66584190Y-142939095D01*
X66488952Y-142986714D01*
X66441333Y-143034333D01*
X66393714Y-143129571D01*
X66393714Y-143272428D01*
X66441333Y-143367666D01*
X66488952Y-143415285D01*
X66584190Y-143462904D01*
X66869904Y-143462904D01*
X66965142Y-143415285D01*
X67012761Y-143367666D01*
X67060380Y-143272428D01*
X67060380Y-143129571D01*
X67060380Y-143891476D02*
X66393714Y-143891476D01*
X66488952Y-143891476D02*
X66441333Y-143939095D01*
X66393714Y-144034333D01*
X66393714Y-144177190D01*
X66441333Y-144272428D01*
X66536571Y-144320047D01*
X67060380Y-144320047D01*
X66536571Y-144320047D02*
X66441333Y-144367666D01*
X66393714Y-144462904D01*
X66393714Y-144605761D01*
X66441333Y-144701000D01*
X66536571Y-144748619D01*
X67060380Y-144748619D01*
X66012761Y-145939095D02*
X67298476Y-145081952D01*
X67060380Y-146272428D02*
X66060380Y-146272428D01*
X67060380Y-146701000D02*
X66536571Y-146701000D01*
X66441333Y-146653380D01*
X66393714Y-146558142D01*
X66393714Y-146415285D01*
X66441333Y-146320047D01*
X66488952Y-146272428D01*
X67060380Y-147320047D02*
X67012761Y-147224809D01*
X66965142Y-147177190D01*
X66869904Y-147129571D01*
X66584190Y-147129571D01*
X66488952Y-147177190D01*
X66441333Y-147224809D01*
X66393714Y-147320047D01*
X66393714Y-147462904D01*
X66441333Y-147558142D01*
X66488952Y-147605761D01*
X66584190Y-147653380D01*
X66869904Y-147653380D01*
X66965142Y-147605761D01*
X67012761Y-147558142D01*
X67060380Y-147462904D01*
X67060380Y-147320047D01*
X67060380Y-148224809D02*
X67012761Y-148129571D01*
X66917523Y-148081952D01*
X66060380Y-148081952D01*
X67060380Y-148605761D02*
X66393714Y-148605761D01*
X66488952Y-148605761D02*
X66441333Y-148653380D01*
X66393714Y-148748619D01*
X66393714Y-148891476D01*
X66441333Y-148986714D01*
X66536571Y-149034333D01*
X67060380Y-149034333D01*
X66536571Y-149034333D02*
X66441333Y-149081952D01*
X66393714Y-149177190D01*
X66393714Y-149320047D01*
X66441333Y-149415285D01*
X66536571Y-149462904D01*
X67060380Y-149462904D01*
X67012761Y-150320047D02*
X67060380Y-150224809D01*
X67060380Y-150034333D01*
X67012761Y-149939095D01*
X66917523Y-149891476D01*
X66536571Y-149891476D01*
X66441333Y-149939095D01*
X66393714Y-150034333D01*
X66393714Y-150224809D01*
X66441333Y-150320047D01*
X66536571Y-150367666D01*
X66631809Y-150367666D01*
X66727047Y-149891476D01*
X67012761Y-150748619D02*
X67060380Y-150843857D01*
X67060380Y-151034333D01*
X67012761Y-151129571D01*
X66917523Y-151177190D01*
X66869904Y-151177190D01*
X66774666Y-151129571D01*
X66727047Y-151034333D01*
X66727047Y-150891476D01*
X66679428Y-150796238D01*
X66584190Y-150748619D01*
X66536571Y-150748619D01*
X66441333Y-150796238D01*
X66393714Y-150891476D01*
X66393714Y-151034333D01*
X66441333Y-151129571D01*
X67060380Y-151605761D02*
X66393714Y-151605761D01*
X66584190Y-151605761D02*
X66488952Y-151653380D01*
X66441333Y-151701000D01*
X66393714Y-151796238D01*
X66393714Y-151891476D01*
X67060380Y-152224809D02*
X66393714Y-152224809D01*
X66060380Y-152224809D02*
X66108000Y-152177190D01*
X66155619Y-152224809D01*
X66108000Y-152272428D01*
X66060380Y-152224809D01*
X66155619Y-152224809D01*
X67012761Y-153129571D02*
X67060380Y-153034333D01*
X67060380Y-152843857D01*
X67012761Y-152748619D01*
X66965142Y-152701000D01*
X66869904Y-152653380D01*
X66584190Y-152653380D01*
X66488952Y-152701000D01*
X66441333Y-152748619D01*
X66393714Y-152843857D01*
X66393714Y-153034333D01*
X66441333Y-153129571D01*
X67060380Y-153558142D02*
X66060380Y-153558142D01*
X67060380Y-153986714D02*
X66536571Y-153986714D01*
X66441333Y-153939095D01*
X66393714Y-153843857D01*
X66393714Y-153701000D01*
X66441333Y-153605761D01*
X66488952Y-153558142D01*
X67060380Y-154891476D02*
X66536571Y-154891476D01*
X66441333Y-154843857D01*
X66393714Y-154748619D01*
X66393714Y-154558142D01*
X66441333Y-154462904D01*
X67012761Y-154891476D02*
X67060380Y-154796238D01*
X67060380Y-154558142D01*
X67012761Y-154462904D01*
X66917523Y-154415285D01*
X66822285Y-154415285D01*
X66727047Y-154462904D01*
X66679428Y-154558142D01*
X66679428Y-154796238D01*
X66631809Y-154891476D01*
X67060380Y-155367666D02*
X66393714Y-155367666D01*
X66584190Y-155367666D02*
X66488952Y-155415285D01*
X66441333Y-155462904D01*
X66393714Y-155558142D01*
X66393714Y-155653380D01*
X67060380Y-156415285D02*
X66060380Y-156415285D01*
X67012761Y-156415285D02*
X67060380Y-156320047D01*
X67060380Y-156129571D01*
X67012761Y-156034333D01*
X66965142Y-155986714D01*
X66869904Y-155939095D01*
X66584190Y-155939095D01*
X66488952Y-155986714D01*
X66441333Y-156034333D01*
X66393714Y-156129571D01*
X66393714Y-156320047D01*
X66441333Y-156415285D01*
X67012761Y-156843857D02*
X67060380Y-156939095D01*
X67060380Y-157129571D01*
X67012761Y-157224809D01*
X66917523Y-157272428D01*
X66869904Y-157272428D01*
X66774666Y-157224809D01*
X66727047Y-157129571D01*
X66727047Y-156986714D01*
X66679428Y-156891476D01*
X66584190Y-156843857D01*
X66536571Y-156843857D01*
X66441333Y-156891476D01*
X66393714Y-156986714D01*
X66393714Y-157129571D01*
X66441333Y-157224809D01*
X66012761Y-158415285D02*
X67298476Y-157558142D01*
X67060380Y-158748619D02*
X66060380Y-158748619D01*
X66774666Y-159081952D01*
X66060380Y-159415285D01*
X67060380Y-159415285D01*
X66965142Y-160462904D02*
X67012761Y-160415285D01*
X67060380Y-160272428D01*
X67060380Y-160177190D01*
X67012761Y-160034333D01*
X66917523Y-159939095D01*
X66822285Y-159891476D01*
X66631809Y-159843857D01*
X66488952Y-159843857D01*
X66298476Y-159891476D01*
X66203238Y-159939095D01*
X66108000Y-160034333D01*
X66060380Y-160177190D01*
X66060380Y-160272428D01*
X66108000Y-160415285D01*
X66155619Y-160462904D01*
X66060380Y-160748619D02*
X67060380Y-161081952D01*
X66060380Y-161415285D01*
X67060380Y-161748619D02*
X66060380Y-161748619D01*
X68186571Y-133081952D02*
X68234190Y-133224809D01*
X68281809Y-133272428D01*
X68377047Y-133320047D01*
X68519904Y-133320047D01*
X68615142Y-133272428D01*
X68662761Y-133224809D01*
X68710380Y-133129571D01*
X68710380Y-132748619D01*
X67710380Y-132748619D01*
X67710380Y-133081952D01*
X67758000Y-133177190D01*
X67805619Y-133224809D01*
X67900857Y-133272428D01*
X67996095Y-133272428D01*
X68091333Y-133224809D01*
X68138952Y-133177190D01*
X68186571Y-133081952D01*
X68186571Y-132748619D01*
X68710380Y-134177190D02*
X68186571Y-134177190D01*
X68091333Y-134129571D01*
X68043714Y-134034333D01*
X68043714Y-133843857D01*
X68091333Y-133748619D01*
X68662761Y-134177190D02*
X68710380Y-134081952D01*
X68710380Y-133843857D01*
X68662761Y-133748619D01*
X68567523Y-133700999D01*
X68472285Y-133700999D01*
X68377047Y-133748619D01*
X68329428Y-133843857D01*
X68329428Y-134081952D01*
X68281809Y-134177190D01*
X68662761Y-134605761D02*
X68710380Y-134701000D01*
X68710380Y-134891476D01*
X68662761Y-134986714D01*
X68567523Y-135034333D01*
X68519904Y-135034333D01*
X68424666Y-134986714D01*
X68377047Y-134891476D01*
X68377047Y-134748619D01*
X68329428Y-134653380D01*
X68234190Y-134605761D01*
X68186571Y-134605761D01*
X68091333Y-134653380D01*
X68043714Y-134748619D01*
X68043714Y-134891476D01*
X68091333Y-134986714D01*
X68662761Y-135843857D02*
X68710380Y-135748619D01*
X68710380Y-135558142D01*
X68662761Y-135462904D01*
X68567523Y-135415285D01*
X68186571Y-135415285D01*
X68091333Y-135462904D01*
X68043714Y-135558142D01*
X68043714Y-135748619D01*
X68091333Y-135843857D01*
X68186571Y-135891476D01*
X68281809Y-135891476D01*
X68377047Y-135415285D01*
X68710380Y-136748619D02*
X67710380Y-136748619D01*
X68662761Y-136748619D02*
X68710380Y-136653380D01*
X68710380Y-136462904D01*
X68662761Y-136367666D01*
X68615142Y-136320047D01*
X68519904Y-136272428D01*
X68234190Y-136272428D01*
X68138952Y-136320047D01*
X68091333Y-136367666D01*
X68043714Y-136462904D01*
X68043714Y-136653380D01*
X68091333Y-136748619D01*
X68710380Y-138129571D02*
X68662761Y-138034333D01*
X68615142Y-137986714D01*
X68519904Y-137939095D01*
X68234190Y-137939095D01*
X68138952Y-137986714D01*
X68091333Y-138034333D01*
X68043714Y-138129571D01*
X68043714Y-138272428D01*
X68091333Y-138367666D01*
X68138952Y-138415285D01*
X68234190Y-138462904D01*
X68519904Y-138462904D01*
X68615142Y-138415285D01*
X68662761Y-138367666D01*
X68710380Y-138272428D01*
X68710380Y-138129571D01*
X68043714Y-138891476D02*
X68710380Y-138891476D01*
X68138952Y-138891476D02*
X68091333Y-138939095D01*
X68043714Y-139034333D01*
X68043714Y-139177190D01*
X68091333Y-139272428D01*
X68186571Y-139320047D01*
X68710380Y-139320047D01*
X68710380Y-140986714D02*
X67710380Y-140986714D01*
X68662761Y-140986714D02*
X68710380Y-140891476D01*
X68710380Y-140701000D01*
X68662761Y-140605761D01*
X68615142Y-140558142D01*
X68519904Y-140510523D01*
X68234190Y-140510523D01*
X68138952Y-140558142D01*
X68091333Y-140605761D01*
X68043714Y-140701000D01*
X68043714Y-140891476D01*
X68091333Y-140986714D01*
X68662761Y-141843857D02*
X68710380Y-141748619D01*
X68710380Y-141558142D01*
X68662761Y-141462904D01*
X68567523Y-141415285D01*
X68186571Y-141415285D01*
X68091333Y-141462904D01*
X68043714Y-141558142D01*
X68043714Y-141748619D01*
X68091333Y-141843857D01*
X68186571Y-141891476D01*
X68281809Y-141891476D01*
X68377047Y-141415285D01*
X68662761Y-142272428D02*
X68710380Y-142367666D01*
X68710380Y-142558142D01*
X68662761Y-142653380D01*
X68567523Y-142701000D01*
X68519904Y-142701000D01*
X68424666Y-142653380D01*
X68377047Y-142558142D01*
X68377047Y-142415285D01*
X68329428Y-142320047D01*
X68234190Y-142272428D01*
X68186571Y-142272428D01*
X68091333Y-142320047D01*
X68043714Y-142415285D01*
X68043714Y-142558142D01*
X68091333Y-142653380D01*
X68710380Y-143129571D02*
X68043714Y-143129571D01*
X67710380Y-143129571D02*
X67758000Y-143081952D01*
X67805619Y-143129571D01*
X67758000Y-143177190D01*
X67710380Y-143129571D01*
X67805619Y-143129571D01*
X68043714Y-144034333D02*
X68853238Y-144034333D01*
X68948476Y-143986714D01*
X68996095Y-143939095D01*
X69043714Y-143843857D01*
X69043714Y-143701000D01*
X68996095Y-143605761D01*
X68662761Y-144034333D02*
X68710380Y-143939095D01*
X68710380Y-143748619D01*
X68662761Y-143653380D01*
X68615142Y-143605761D01*
X68519904Y-143558142D01*
X68234190Y-143558142D01*
X68138952Y-143605761D01*
X68091333Y-143653380D01*
X68043714Y-143748619D01*
X68043714Y-143939095D01*
X68091333Y-144034333D01*
X68043714Y-144510523D02*
X68710380Y-144510523D01*
X68138952Y-144510523D02*
X68091333Y-144558142D01*
X68043714Y-144653380D01*
X68043714Y-144796238D01*
X68091333Y-144891476D01*
X68186571Y-144939095D01*
X68710380Y-144939095D01*
X68710380Y-146177190D02*
X67710380Y-146177190D01*
X68091333Y-146177190D02*
X68043714Y-146272428D01*
X68043714Y-146462904D01*
X68091333Y-146558142D01*
X68138952Y-146605761D01*
X68234190Y-146653380D01*
X68519904Y-146653380D01*
X68615142Y-146605761D01*
X68662761Y-146558142D01*
X68710380Y-146462904D01*
X68710380Y-146272428D01*
X68662761Y-146177190D01*
X68043714Y-146986714D02*
X68710380Y-147224809D01*
X68043714Y-147462904D02*
X68710380Y-147224809D01*
X68948476Y-147129571D01*
X68996095Y-147081952D01*
X69043714Y-146986714D01*
X68710380Y-149081952D02*
X68710380Y-148605761D01*
X67710380Y-148605761D01*
X68710380Y-149843857D02*
X68186571Y-149843857D01*
X68091333Y-149796238D01*
X68043714Y-149700999D01*
X68043714Y-149510523D01*
X68091333Y-149415285D01*
X68662761Y-149843857D02*
X68710380Y-149748619D01*
X68710380Y-149510523D01*
X68662761Y-149415285D01*
X68567523Y-149367666D01*
X68472285Y-149367666D01*
X68377047Y-149415285D01*
X68329428Y-149510523D01*
X68329428Y-149748619D01*
X68281809Y-149843857D01*
X68710380Y-150320047D02*
X68043714Y-150320047D01*
X68234190Y-150320047D02*
X68138952Y-150367666D01*
X68091333Y-150415285D01*
X68043714Y-150510523D01*
X68043714Y-150605761D01*
X68710380Y-150939095D02*
X68043714Y-150939095D01*
X68234190Y-150939095D02*
X68138952Y-150986714D01*
X68091333Y-151034333D01*
X68043714Y-151129571D01*
X68043714Y-151224809D01*
X68043714Y-151462904D02*
X68710380Y-151700999D01*
X68043714Y-151939095D02*
X68710380Y-151700999D01*
X68948476Y-151605761D01*
X68996095Y-151558142D01*
X69043714Y-151462904D01*
X68710380Y-153081952D02*
X67710380Y-153081952D01*
X68424666Y-153415285D01*
X67710380Y-153748619D01*
X68710380Y-153748619D01*
X68662761Y-154653380D02*
X68710380Y-154558142D01*
X68710380Y-154367666D01*
X68662761Y-154272428D01*
X68615142Y-154224809D01*
X68519904Y-154177190D01*
X68234190Y-154177190D01*
X68138952Y-154224809D01*
X68091333Y-154272428D01*
X68043714Y-154367666D01*
X68043714Y-154558142D01*
X68091333Y-154653380D01*
X67758000Y-155605761D02*
X67710380Y-155510523D01*
X67710380Y-155367666D01*
X67758000Y-155224809D01*
X67853238Y-155129571D01*
X67948476Y-155081952D01*
X68138952Y-155034333D01*
X68281809Y-155034333D01*
X68472285Y-155081952D01*
X68567523Y-155129571D01*
X68662761Y-155224809D01*
X68710380Y-155367666D01*
X68710380Y-155462904D01*
X68662761Y-155605761D01*
X68615142Y-155653380D01*
X68281809Y-155653380D01*
X68281809Y-155462904D01*
X68710380Y-156224809D02*
X68662761Y-156129571D01*
X68615142Y-156081952D01*
X68519904Y-156034333D01*
X68234190Y-156034333D01*
X68138952Y-156081952D01*
X68091333Y-156129571D01*
X68043714Y-156224809D01*
X68043714Y-156367666D01*
X68091333Y-156462904D01*
X68138952Y-156510523D01*
X68234190Y-156558142D01*
X68519904Y-156558142D01*
X68615142Y-156510523D01*
X68662761Y-156462904D01*
X68710380Y-156367666D01*
X68710380Y-156224809D01*
X68043714Y-156891476D02*
X68710380Y-157129571D01*
X68043714Y-157367666D01*
X68662761Y-158129571D02*
X68710380Y-158034333D01*
X68710380Y-157843857D01*
X68662761Y-157748619D01*
X68567523Y-157700999D01*
X68186571Y-157700999D01*
X68091333Y-157748619D01*
X68043714Y-157843857D01*
X68043714Y-158034333D01*
X68091333Y-158129571D01*
X68186571Y-158177190D01*
X68281809Y-158177190D01*
X68377047Y-157700999D01*
X68710380Y-158605761D02*
X68043714Y-158605761D01*
X68234190Y-158605761D02*
X68138952Y-158653380D01*
X68091333Y-158700999D01*
X68043714Y-158796238D01*
X68043714Y-158891476D01*
X68043714Y-159224809D02*
X68710380Y-159224809D01*
X68138952Y-159224809D02*
X68091333Y-159272428D01*
X68043714Y-159367666D01*
X68043714Y-159510523D01*
X68091333Y-159605761D01*
X68186571Y-159653380D01*
X68710380Y-159653380D01*
X70360380Y-132201000D02*
X69360380Y-132201000D01*
X70360380Y-132629571D02*
X69836571Y-132629571D01*
X69741333Y-132581952D01*
X69693714Y-132486714D01*
X69693714Y-132343857D01*
X69741333Y-132248619D01*
X69788952Y-132201000D01*
X69693714Y-132962904D02*
X69693714Y-133343857D01*
X69360380Y-133105761D02*
X70217523Y-133105761D01*
X70312761Y-133153380D01*
X70360380Y-133248619D01*
X70360380Y-133343857D01*
X69693714Y-133534333D02*
X69693714Y-133915285D01*
X69360380Y-133677190D02*
X70217523Y-133677190D01*
X70312761Y-133724809D01*
X70360380Y-133820047D01*
X70360380Y-133915285D01*
X69693714Y-134248619D02*
X70693714Y-134248619D01*
X69741333Y-134248619D02*
X69693714Y-134343857D01*
X69693714Y-134534333D01*
X69741333Y-134629571D01*
X69788952Y-134677190D01*
X69884190Y-134724809D01*
X70169904Y-134724809D01*
X70265142Y-134677190D01*
X70312761Y-134629571D01*
X70360380Y-134534333D01*
X70360380Y-134343857D01*
X70312761Y-134248619D01*
X70312761Y-135105761D02*
X70360380Y-135201000D01*
X70360380Y-135391476D01*
X70312761Y-135486714D01*
X70217523Y-135534333D01*
X70169904Y-135534333D01*
X70074666Y-135486714D01*
X70027047Y-135391476D01*
X70027047Y-135248619D01*
X69979428Y-135153380D01*
X69884190Y-135105761D01*
X69836571Y-135105761D01*
X69741333Y-135153380D01*
X69693714Y-135248619D01*
X69693714Y-135391476D01*
X69741333Y-135486714D01*
X70265142Y-135962904D02*
X70312761Y-136010523D01*
X70360380Y-135962904D01*
X70312761Y-135915285D01*
X70265142Y-135962904D01*
X70360380Y-135962904D01*
X69741333Y-135962904D02*
X69788952Y-136010523D01*
X69836571Y-135962904D01*
X69788952Y-135915285D01*
X69741333Y-135962904D01*
X69836571Y-135962904D01*
X69312761Y-137153380D02*
X70598476Y-136296238D01*
X69312761Y-138201000D02*
X70598476Y-137343857D01*
X69693714Y-138962904D02*
X70503238Y-138962904D01*
X70598476Y-138915285D01*
X70646095Y-138867666D01*
X70693714Y-138772428D01*
X70693714Y-138629571D01*
X70646095Y-138534333D01*
X70312761Y-138962904D02*
X70360380Y-138867666D01*
X70360380Y-138677190D01*
X70312761Y-138581952D01*
X70265142Y-138534333D01*
X70169904Y-138486714D01*
X69884190Y-138486714D01*
X69788952Y-138534333D01*
X69741333Y-138581952D01*
X69693714Y-138677190D01*
X69693714Y-138867666D01*
X69741333Y-138962904D01*
X70360380Y-139439095D02*
X69693714Y-139439095D01*
X69360380Y-139439095D02*
X69408000Y-139391476D01*
X69455619Y-139439095D01*
X69408000Y-139486714D01*
X69360380Y-139439095D01*
X69455619Y-139439095D01*
X69693714Y-139772428D02*
X69693714Y-140153380D01*
X69360380Y-139915285D02*
X70217523Y-139915285D01*
X70312761Y-139962904D01*
X70360380Y-140058142D01*
X70360380Y-140153380D01*
X70360380Y-140486714D02*
X69360380Y-140486714D01*
X70360380Y-140915285D02*
X69836571Y-140915285D01*
X69741333Y-140867666D01*
X69693714Y-140772428D01*
X69693714Y-140629571D01*
X69741333Y-140534333D01*
X69788952Y-140486714D01*
X69693714Y-141820047D02*
X70360380Y-141820047D01*
X69693714Y-141391476D02*
X70217523Y-141391476D01*
X70312761Y-141439095D01*
X70360380Y-141534333D01*
X70360380Y-141677190D01*
X70312761Y-141772428D01*
X70265142Y-141820047D01*
X70360380Y-142296238D02*
X69360380Y-142296238D01*
X69741333Y-142296238D02*
X69693714Y-142391476D01*
X69693714Y-142581952D01*
X69741333Y-142677190D01*
X69788952Y-142724809D01*
X69884190Y-142772428D01*
X70169904Y-142772428D01*
X70265142Y-142724809D01*
X70312761Y-142677190D01*
X70360380Y-142581952D01*
X70360380Y-142391476D01*
X70312761Y-142296238D01*
X70265142Y-143201000D02*
X70312761Y-143248619D01*
X70360380Y-143201000D01*
X70312761Y-143153380D01*
X70265142Y-143201000D01*
X70360380Y-143201000D01*
X70312761Y-144105761D02*
X70360380Y-144010523D01*
X70360380Y-143820047D01*
X70312761Y-143724809D01*
X70265142Y-143677190D01*
X70169904Y-143629571D01*
X69884190Y-143629571D01*
X69788952Y-143677190D01*
X69741333Y-143724809D01*
X69693714Y-143820047D01*
X69693714Y-144010523D01*
X69741333Y-144105761D01*
X70360380Y-144677190D02*
X70312761Y-144581952D01*
X70265142Y-144534333D01*
X70169904Y-144486714D01*
X69884190Y-144486714D01*
X69788952Y-144534333D01*
X69741333Y-144581952D01*
X69693714Y-144677190D01*
X69693714Y-144820047D01*
X69741333Y-144915285D01*
X69788952Y-144962904D01*
X69884190Y-145010523D01*
X70169904Y-145010523D01*
X70265142Y-144962904D01*
X70312761Y-144915285D01*
X70360380Y-144820047D01*
X70360380Y-144677190D01*
X70360380Y-145439095D02*
X69693714Y-145439095D01*
X69788952Y-145439095D02*
X69741333Y-145486714D01*
X69693714Y-145581952D01*
X69693714Y-145724809D01*
X69741333Y-145820047D01*
X69836571Y-145867666D01*
X70360380Y-145867666D01*
X69836571Y-145867666D02*
X69741333Y-145915285D01*
X69693714Y-146010523D01*
X69693714Y-146153380D01*
X69741333Y-146248619D01*
X69836571Y-146296238D01*
X70360380Y-146296238D01*
X69312761Y-147486714D02*
X70598476Y-146629571D01*
X70312761Y-148201000D02*
X70360380Y-148105761D01*
X70360380Y-147915285D01*
X70312761Y-147820047D01*
X70217523Y-147772428D01*
X69836571Y-147772428D01*
X69741333Y-147820047D01*
X69693714Y-147915285D01*
X69693714Y-148105761D01*
X69741333Y-148201000D01*
X69836571Y-148248619D01*
X69931809Y-148248619D01*
X70027047Y-147772428D01*
X70360380Y-148820047D02*
X70312761Y-148724809D01*
X70217523Y-148677190D01*
X69360380Y-148677190D01*
X70360380Y-149201000D02*
X69360380Y-149201000D01*
X69979428Y-149296238D02*
X70360380Y-149581952D01*
X69693714Y-149581952D02*
X70074666Y-149201000D01*
X70360380Y-150439095D02*
X69836571Y-150439095D01*
X69741333Y-150391476D01*
X69693714Y-150296238D01*
X69693714Y-150105761D01*
X69741333Y-150010523D01*
X70312761Y-150439095D02*
X70360380Y-150343857D01*
X70360380Y-150105761D01*
X70312761Y-150010523D01*
X70217523Y-149962904D01*
X70122285Y-149962904D01*
X70027047Y-150010523D01*
X69979428Y-150105761D01*
X69979428Y-150343857D01*
X69931809Y-150439095D01*
X69693714Y-150820047D02*
X70360380Y-151058142D01*
X69693714Y-151296238D02*
X70360380Y-151058142D01*
X70598476Y-150962904D01*
X70646095Y-150915285D01*
X70693714Y-150820047D01*
X70312761Y-152058142D02*
X70360380Y-151962904D01*
X70360380Y-151772428D01*
X70312761Y-151677190D01*
X70217523Y-151629571D01*
X69836571Y-151629571D01*
X69741333Y-151677190D01*
X69693714Y-151772428D01*
X69693714Y-151962904D01*
X69741333Y-152058142D01*
X69836571Y-152105761D01*
X69931809Y-152105761D01*
X70027047Y-151629571D01*
X70360380Y-152534333D02*
X69693714Y-152534333D01*
X69788952Y-152534333D02*
X69741333Y-152581952D01*
X69693714Y-152677190D01*
X69693714Y-152820047D01*
X69741333Y-152915285D01*
X69836571Y-152962904D01*
X70360380Y-152962904D01*
X69836571Y-152962904D02*
X69741333Y-153010523D01*
X69693714Y-153105761D01*
X69693714Y-153248619D01*
X69741333Y-153343857D01*
X69836571Y-153391476D01*
X70360380Y-153391476D01*
X69312761Y-154581952D02*
X70598476Y-153724809D01*
X70360380Y-154915285D02*
X69693714Y-154915285D01*
X69788952Y-154915285D02*
X69741333Y-154962904D01*
X69693714Y-155058142D01*
X69693714Y-155201000D01*
X69741333Y-155296238D01*
X69836571Y-155343857D01*
X70360380Y-155343857D01*
X69836571Y-155343857D02*
X69741333Y-155391476D01*
X69693714Y-155486714D01*
X69693714Y-155629571D01*
X69741333Y-155724809D01*
X69836571Y-155772428D01*
X70360380Y-155772428D01*
X70360380Y-156248619D02*
X69693714Y-156248619D01*
X69360380Y-156248619D02*
X69408000Y-156201000D01*
X69455619Y-156248619D01*
X69408000Y-156296238D01*
X69360380Y-156248619D01*
X69455619Y-156248619D01*
X70360380Y-157153380D02*
X69360380Y-157153380D01*
X70312761Y-157153380D02*
X70360380Y-157058142D01*
X70360380Y-156867666D01*
X70312761Y-156772428D01*
X70265142Y-156724809D01*
X70169904Y-156677190D01*
X69884190Y-156677190D01*
X69788952Y-156724809D01*
X69741333Y-156772428D01*
X69693714Y-156867666D01*
X69693714Y-157058142D01*
X69741333Y-157153380D01*
X70360380Y-157629571D02*
X69693714Y-157629571D01*
X69360380Y-157629571D02*
X69408000Y-157581952D01*
X69455619Y-157629571D01*
X69408000Y-157677190D01*
X69360380Y-157629571D01*
X69455619Y-157629571D01*
X69455619Y-158058142D02*
X69408000Y-158105761D01*
X69360380Y-158201000D01*
X69360380Y-158439095D01*
X69408000Y-158534333D01*
X69455619Y-158581952D01*
X69550857Y-158629571D01*
X69646095Y-158629571D01*
X69788952Y-158581952D01*
X70360380Y-158010523D01*
X70360380Y-158629571D01*
X70312761Y-159486714D02*
X70360380Y-159391476D01*
X70360380Y-159201000D01*
X70312761Y-159105761D01*
X70265142Y-159058142D01*
X70169904Y-159010523D01*
X69884190Y-159010523D01*
X69788952Y-159058142D01*
X69741333Y-159105761D01*
X69693714Y-159201000D01*
X69693714Y-159391476D01*
X69741333Y-159486714D01*
X69693714Y-159820047D02*
X70360380Y-160058142D01*
X69693714Y-160296238D01*
X71058000Y-145081952D02*
X71010380Y-144986714D01*
X71010380Y-144843857D01*
X71058000Y-144701000D01*
X71153238Y-144605761D01*
X71248476Y-144558142D01*
X71438952Y-144510523D01*
X71581809Y-144510523D01*
X71772285Y-144558142D01*
X71867523Y-144605761D01*
X71962761Y-144701000D01*
X72010380Y-144843857D01*
X72010380Y-144939095D01*
X71962761Y-145081952D01*
X71915142Y-145129571D01*
X71581809Y-145129571D01*
X71581809Y-144939095D01*
X72010380Y-145558142D02*
X71010380Y-145558142D01*
X71010380Y-145939095D01*
X71058000Y-146034333D01*
X71105619Y-146081952D01*
X71200857Y-146129571D01*
X71343714Y-146129571D01*
X71438952Y-146081952D01*
X71486571Y-146034333D01*
X71534190Y-145939095D01*
X71534190Y-145558142D01*
X72010380Y-147034333D02*
X72010380Y-146558142D01*
X71010380Y-146558142D01*
X71010380Y-147272428D02*
X71010380Y-147891476D01*
X71391333Y-147558142D01*
X71391333Y-147701000D01*
X71438952Y-147796238D01*
X71486571Y-147843857D01*
X71581809Y-147891476D01*
X71819904Y-147891476D01*
X71915142Y-147843857D01*
X71962761Y-147796238D01*
X72010380Y-147701000D01*
X72010380Y-147415285D01*
X71962761Y-147320047D01*
X71915142Y-147272428D01*
D10*
X72464857Y-71284857D02*
X72500571Y-71320571D01*
X72607714Y-71356285D01*
X72679142Y-71356285D01*
X72786285Y-71320571D01*
X72857714Y-71249142D01*
X72893428Y-71177714D01*
X72929142Y-71034857D01*
X72929142Y-70927714D01*
X72893428Y-70784857D01*
X72857714Y-70713428D01*
X72786285Y-70642000D01*
X72679142Y-70606285D01*
X72607714Y-70606285D01*
X72500571Y-70642000D01*
X72464857Y-70677714D01*
X71714857Y-71284857D02*
X71750571Y-71320571D01*
X71857714Y-71356285D01*
X71929142Y-71356285D01*
X72036285Y-71320571D01*
X72107714Y-71249142D01*
X72143428Y-71177714D01*
X72179142Y-71034857D01*
X72179142Y-70927714D01*
X72143428Y-70784857D01*
X72107714Y-70713428D01*
X72036285Y-70642000D01*
X71929142Y-70606285D01*
X71857714Y-70606285D01*
X71750571Y-70642000D01*
X71714857Y-70677714D01*
D12*
%TO.C,J2*%
X50670000Y-66170000D02*
X50670000Y-67500000D01*
X52000000Y-66170000D02*
X50670000Y-66170000D01*
X53270000Y-66170000D02*
X53270000Y-68830000D01*
X53270000Y-68830000D02*
X76190000Y-68830000D01*
X53270000Y-66170000D02*
X76190000Y-66170000D01*
X76190000Y-66170000D02*
X76190000Y-68830000D01*
D13*
%TO.C,GRAF2*%
G36*
X69669918Y-163849744D02*
G01*
X69697568Y-163905201D01*
X69748480Y-163954148D01*
X69767338Y-163967629D01*
X69792015Y-163982314D01*
X69818816Y-163991842D01*
X69854587Y-163997293D01*
X69906169Y-163999747D01*
X69974267Y-164000286D01*
X70067588Y-163997852D01*
X70137657Y-163989394D01*
X70189931Y-163973174D01*
X70229869Y-163947454D01*
X70262929Y-163910497D01*
X70264886Y-163907782D01*
X70284908Y-163871360D01*
X70294815Y-163827502D01*
X70297257Y-163771724D01*
X70297257Y-163681048D01*
X70385283Y-163681010D01*
X70434308Y-163680166D01*
X70463065Y-163675024D01*
X70480311Y-163661587D01*
X70494808Y-163635858D01*
X70497769Y-163629679D01*
X70511648Y-163600764D01*
X70520414Y-163578376D01*
X70521171Y-163561729D01*
X70511023Y-163550036D01*
X70487073Y-163542510D01*
X70446426Y-163538366D01*
X70386186Y-163536815D01*
X70303455Y-163537071D01*
X70195339Y-163538349D01*
X70163000Y-163538748D01*
X70051524Y-163540185D01*
X69978603Y-163541472D01*
X69978603Y-163680971D01*
X70040499Y-163681755D01*
X70080997Y-163685240D01*
X70107708Y-163693124D01*
X70128244Y-163707105D01*
X70138260Y-163716597D01*
X70167567Y-163755404D01*
X70169952Y-163789763D01*
X70145750Y-163825216D01*
X70144857Y-163826114D01*
X70126153Y-163840539D01*
X70100732Y-163849313D01*
X70061584Y-163853739D01*
X70001697Y-163855118D01*
X69988430Y-163855143D01*
X69905901Y-163851812D01*
X69848691Y-163840969D01*
X69813766Y-163821340D01*
X69798094Y-163791650D01*
X69796514Y-163774491D01*
X69803926Y-163733766D01*
X69828330Y-163705832D01*
X69872980Y-163689017D01*
X69941130Y-163681650D01*
X69978603Y-163680971D01*
X69978603Y-163541472D01*
X69965245Y-163541708D01*
X69900333Y-163543677D01*
X69852958Y-163546450D01*
X69819290Y-163550388D01*
X69795498Y-163555849D01*
X69777753Y-163563192D01*
X69762224Y-163572777D01*
X69756381Y-163576887D01*
X69701185Y-163631405D01*
X69669890Y-163700336D01*
X69661165Y-163780072D01*
X69669918Y-163849744D01*
G37*
X69669918Y-163849744D02*
X69697568Y-163905201D01*
X69748480Y-163954148D01*
X69767338Y-163967629D01*
X69792015Y-163982314D01*
X69818816Y-163991842D01*
X69854587Y-163997293D01*
X69906169Y-163999747D01*
X69974267Y-164000286D01*
X70067588Y-163997852D01*
X70137657Y-163989394D01*
X70189931Y-163973174D01*
X70229869Y-163947454D01*
X70262929Y-163910497D01*
X70264886Y-163907782D01*
X70284908Y-163871360D01*
X70294815Y-163827502D01*
X70297257Y-163771724D01*
X70297257Y-163681048D01*
X70385283Y-163681010D01*
X70434308Y-163680166D01*
X70463065Y-163675024D01*
X70480311Y-163661587D01*
X70494808Y-163635858D01*
X70497769Y-163629679D01*
X70511648Y-163600764D01*
X70520414Y-163578376D01*
X70521171Y-163561729D01*
X70511023Y-163550036D01*
X70487073Y-163542510D01*
X70446426Y-163538366D01*
X70386186Y-163536815D01*
X70303455Y-163537071D01*
X70195339Y-163538349D01*
X70163000Y-163538748D01*
X70051524Y-163540185D01*
X69978603Y-163541472D01*
X69978603Y-163680971D01*
X70040499Y-163681755D01*
X70080997Y-163685240D01*
X70107708Y-163693124D01*
X70128244Y-163707105D01*
X70138260Y-163716597D01*
X70167567Y-163755404D01*
X70169952Y-163789763D01*
X70145750Y-163825216D01*
X70144857Y-163826114D01*
X70126153Y-163840539D01*
X70100732Y-163849313D01*
X70061584Y-163853739D01*
X70001697Y-163855118D01*
X69988430Y-163855143D01*
X69905901Y-163851812D01*
X69848691Y-163840969D01*
X69813766Y-163821340D01*
X69798094Y-163791650D01*
X69796514Y-163774491D01*
X69803926Y-163733766D01*
X69828330Y-163705832D01*
X69872980Y-163689017D01*
X69941130Y-163681650D01*
X69978603Y-163680971D01*
X69978603Y-163541472D01*
X69965245Y-163541708D01*
X69900333Y-163543677D01*
X69852958Y-163546450D01*
X69819290Y-163550388D01*
X69795498Y-163555849D01*
X69777753Y-163563192D01*
X69762224Y-163572777D01*
X69756381Y-163576887D01*
X69701185Y-163631405D01*
X69669890Y-163700336D01*
X69661165Y-163780072D01*
X69669918Y-163849744D01*
G36*
X69677780Y-164966093D02*
G01*
X69704723Y-165012672D01*
X69731466Y-165045057D01*
X69759484Y-165068742D01*
X69793748Y-165085059D01*
X69839227Y-165095339D01*
X69900892Y-165100914D01*
X69983711Y-165103116D01*
X70043246Y-165103371D01*
X70262391Y-165103371D01*
X70290044Y-165041686D01*
X70317697Y-164980000D01*
X70077670Y-164972743D01*
X69988028Y-164969744D01*
X69922962Y-164966598D01*
X69878026Y-164962701D01*
X69848770Y-164957447D01*
X69830748Y-164950231D01*
X69819511Y-164940450D01*
X69817079Y-164937312D01*
X69798083Y-164889761D01*
X69805600Y-164841697D01*
X69825543Y-164813086D01*
X69839675Y-164801447D01*
X69858220Y-164793391D01*
X69886334Y-164788271D01*
X69929173Y-164785441D01*
X69991895Y-164784256D01*
X70057261Y-164784057D01*
X70139268Y-164784018D01*
X70197316Y-164782614D01*
X70236465Y-164777914D01*
X70261780Y-164767987D01*
X70278323Y-164750903D01*
X70291156Y-164724732D01*
X70304491Y-164689775D01*
X70319007Y-164651596D01*
X70061389Y-164656141D01*
X69968519Y-164657971D01*
X69899889Y-164660112D01*
X69850711Y-164663181D01*
X69816198Y-164667794D01*
X69791562Y-164674568D01*
X69772016Y-164684119D01*
X69754770Y-164695634D01*
X69699680Y-164751190D01*
X69667822Y-164818980D01*
X69660191Y-164892713D01*
X69677780Y-164966093D01*
G37*
X69677780Y-164966093D02*
X69704723Y-165012672D01*
X69731466Y-165045057D01*
X69759484Y-165068742D01*
X69793748Y-165085059D01*
X69839227Y-165095339D01*
X69900892Y-165100914D01*
X69983711Y-165103116D01*
X70043246Y-165103371D01*
X70262391Y-165103371D01*
X70290044Y-165041686D01*
X70317697Y-164980000D01*
X70077670Y-164972743D01*
X69988028Y-164969744D01*
X69922962Y-164966598D01*
X69878026Y-164962701D01*
X69848770Y-164957447D01*
X69830748Y-164950231D01*
X69819511Y-164940450D01*
X69817079Y-164937312D01*
X69798083Y-164889761D01*
X69805600Y-164841697D01*
X69825543Y-164813086D01*
X69839675Y-164801447D01*
X69858220Y-164793391D01*
X69886334Y-164788271D01*
X69929173Y-164785441D01*
X69991895Y-164784256D01*
X70057261Y-164784057D01*
X70139268Y-164784018D01*
X70197316Y-164782614D01*
X70236465Y-164777914D01*
X70261780Y-164767987D01*
X70278323Y-164750903D01*
X70291156Y-164724732D01*
X70304491Y-164689775D01*
X70319007Y-164651596D01*
X70061389Y-164656141D01*
X69968519Y-164657971D01*
X69899889Y-164660112D01*
X69850711Y-164663181D01*
X69816198Y-164667794D01*
X69791562Y-164674568D01*
X69772016Y-164684119D01*
X69754770Y-164695634D01*
X69699680Y-164751190D01*
X69667822Y-164818980D01*
X69660191Y-164892713D01*
X69677780Y-164966093D01*
G36*
X69671962Y-163291115D02*
G01*
X69707733Y-163359145D01*
X69765301Y-163409351D01*
X69802312Y-163427185D01*
X69857882Y-163441063D01*
X69928096Y-163448167D01*
X70004727Y-163448840D01*
X70079552Y-163443427D01*
X70144342Y-163432270D01*
X70190873Y-163415714D01*
X70198887Y-163410626D01*
X70258707Y-163350355D01*
X70294535Y-163278769D01*
X70305020Y-163201092D01*
X70288810Y-163122548D01*
X70279092Y-163100689D01*
X70249143Y-163058122D01*
X70209433Y-163020763D01*
X70204397Y-163017232D01*
X70180124Y-163002881D01*
X70154178Y-162993394D01*
X70120022Y-162987790D01*
X70071119Y-162985086D01*
X70000935Y-162984299D01*
X69985200Y-162984286D01*
X69980192Y-162984322D01*
X69980192Y-163129429D01*
X70046430Y-163130273D01*
X70090386Y-163133596D01*
X70118779Y-163140583D01*
X70138325Y-163152416D01*
X70144857Y-163158457D01*
X70169680Y-163193186D01*
X70168548Y-163226903D01*
X70147016Y-163260995D01*
X70124029Y-163281329D01*
X70090478Y-163293371D01*
X70037569Y-163300134D01*
X70031399Y-163300598D01*
X69935513Y-163301752D01*
X69864299Y-163289688D01*
X69818194Y-163264570D01*
X69797635Y-163226560D01*
X69796514Y-163212992D01*
X69802152Y-163177364D01*
X69821686Y-163152994D01*
X69859042Y-163138093D01*
X69918150Y-163130875D01*
X69980192Y-163129429D01*
X69980192Y-162984322D01*
X69910413Y-162984826D01*
X69858159Y-162987096D01*
X69821949Y-162992068D01*
X69795299Y-163000713D01*
X69771722Y-163014005D01*
X69767338Y-163016943D01*
X69708249Y-163066313D01*
X69673947Y-163120109D01*
X69660331Y-163185602D01*
X69659665Y-163207842D01*
X69671962Y-163291115D01*
G37*
X69671962Y-163291115D02*
X69707733Y-163359145D01*
X69765301Y-163409351D01*
X69802312Y-163427185D01*
X69857882Y-163441063D01*
X69928096Y-163448167D01*
X70004727Y-163448840D01*
X70079552Y-163443427D01*
X70144342Y-163432270D01*
X70190873Y-163415714D01*
X70198887Y-163410626D01*
X70258707Y-163350355D01*
X70294535Y-163278769D01*
X70305020Y-163201092D01*
X70288810Y-163122548D01*
X70279092Y-163100689D01*
X70249143Y-163058122D01*
X70209433Y-163020763D01*
X70204397Y-163017232D01*
X70180124Y-163002881D01*
X70154178Y-162993394D01*
X70120022Y-162987790D01*
X70071119Y-162985086D01*
X70000935Y-162984299D01*
X69985200Y-162984286D01*
X69980192Y-162984322D01*
X69980192Y-163129429D01*
X70046430Y-163130273D01*
X70090386Y-163133596D01*
X70118779Y-163140583D01*
X70138325Y-163152416D01*
X70144857Y-163158457D01*
X70169680Y-163193186D01*
X70168548Y-163226903D01*
X70147016Y-163260995D01*
X70124029Y-163281329D01*
X70090478Y-163293371D01*
X70037569Y-163300134D01*
X70031399Y-163300598D01*
X69935513Y-163301752D01*
X69864299Y-163289688D01*
X69818194Y-163264570D01*
X69797635Y-163226560D01*
X69796514Y-163212992D01*
X69802152Y-163177364D01*
X69821686Y-163152994D01*
X69859042Y-163138093D01*
X69918150Y-163130875D01*
X69980192Y-163129429D01*
X69980192Y-162984322D01*
X69910413Y-162984826D01*
X69858159Y-162987096D01*
X69821949Y-162992068D01*
X69795299Y-163000713D01*
X69771722Y-163014005D01*
X69767338Y-163016943D01*
X69708249Y-163066313D01*
X69673947Y-163120109D01*
X69660331Y-163185602D01*
X69659665Y-163207842D01*
X69671962Y-163291115D01*
G36*
X69681239Y-164418303D02*
G01*
X69719735Y-164475527D01*
X69775335Y-164519749D01*
X69846086Y-164546167D01*
X69898162Y-164551510D01*
X69919893Y-164550903D01*
X69936531Y-164545822D01*
X69951437Y-164531855D01*
X69967973Y-164504589D01*
X69989498Y-164459612D01*
X70019374Y-164392511D01*
X70019524Y-164392171D01*
X70047813Y-164330407D01*
X70072933Y-164279759D01*
X70092179Y-164245404D01*
X70102848Y-164232518D01*
X70102934Y-164232514D01*
X70126166Y-164243872D01*
X70151774Y-164270431D01*
X70170221Y-164300923D01*
X70173886Y-164316370D01*
X70161212Y-164358515D01*
X70129471Y-164394808D01*
X70094572Y-164412517D01*
X70068845Y-164429552D01*
X70039546Y-164462922D01*
X70014235Y-164502149D01*
X70000471Y-164536756D01*
X69999714Y-164543993D01*
X70012160Y-164552139D01*
X70043972Y-164552630D01*
X70086866Y-164546643D01*
X70132558Y-164535357D01*
X70172761Y-164519950D01*
X70174322Y-164519171D01*
X70239062Y-164472804D01*
X70283097Y-164412711D01*
X70304711Y-164344465D01*
X70302185Y-164273638D01*
X70273804Y-164205804D01*
X70271808Y-164202788D01*
X70223448Y-164149427D01*
X70160352Y-164114340D01*
X70077387Y-164094922D01*
X70054078Y-164092316D01*
X69944055Y-164087701D01*
X69892748Y-164093233D01*
X69892748Y-164232514D01*
X69924753Y-164234324D01*
X69934093Y-164244222D01*
X69927105Y-164268898D01*
X69910587Y-164307795D01*
X69889881Y-164351275D01*
X69889333Y-164352356D01*
X69869949Y-164389209D01*
X69857013Y-164404000D01*
X69843451Y-164400353D01*
X69825632Y-164384995D01*
X69799845Y-164345923D01*
X69797950Y-164303846D01*
X69816717Y-164266103D01*
X69852915Y-164240034D01*
X69892748Y-164232514D01*
X69892748Y-164093233D01*
X69856027Y-164097194D01*
X69786212Y-164121550D01*
X69737302Y-164155456D01*
X69687878Y-164216653D01*
X69663359Y-164284063D01*
X69661797Y-164352880D01*
X69681239Y-164418303D01*
G37*
X69681239Y-164418303D02*
X69719735Y-164475527D01*
X69775335Y-164519749D01*
X69846086Y-164546167D01*
X69898162Y-164551510D01*
X69919893Y-164550903D01*
X69936531Y-164545822D01*
X69951437Y-164531855D01*
X69967973Y-164504589D01*
X69989498Y-164459612D01*
X70019374Y-164392511D01*
X70019524Y-164392171D01*
X70047813Y-164330407D01*
X70072933Y-164279759D01*
X70092179Y-164245404D01*
X70102848Y-164232518D01*
X70102934Y-164232514D01*
X70126166Y-164243872D01*
X70151774Y-164270431D01*
X70170221Y-164300923D01*
X70173886Y-164316370D01*
X70161212Y-164358515D01*
X70129471Y-164394808D01*
X70094572Y-164412517D01*
X70068845Y-164429552D01*
X70039546Y-164462922D01*
X70014235Y-164502149D01*
X70000471Y-164536756D01*
X69999714Y-164543993D01*
X70012160Y-164552139D01*
X70043972Y-164552630D01*
X70086866Y-164546643D01*
X70132558Y-164535357D01*
X70172761Y-164519950D01*
X70174322Y-164519171D01*
X70239062Y-164472804D01*
X70283097Y-164412711D01*
X70304711Y-164344465D01*
X70302185Y-164273638D01*
X70273804Y-164205804D01*
X70271808Y-164202788D01*
X70223448Y-164149427D01*
X70160352Y-164114340D01*
X70077387Y-164094922D01*
X70054078Y-164092316D01*
X69944055Y-164087701D01*
X69892748Y-164093233D01*
X69892748Y-164232514D01*
X69924753Y-164234324D01*
X69934093Y-164244222D01*
X69927105Y-164268898D01*
X69910587Y-164307795D01*
X69889881Y-164351275D01*
X69889333Y-164352356D01*
X69869949Y-164389209D01*
X69857013Y-164404000D01*
X69843451Y-164400353D01*
X69825632Y-164384995D01*
X69799845Y-164345923D01*
X69797950Y-164303846D01*
X69816717Y-164266103D01*
X69852915Y-164240034D01*
X69892748Y-164232514D01*
X69892748Y-164093233D01*
X69856027Y-164097194D01*
X69786212Y-164121550D01*
X69737302Y-164155456D01*
X69687878Y-164216653D01*
X69663359Y-164284063D01*
X69661797Y-164352880D01*
X69681239Y-164418303D01*
G36*
X69601289Y-165625886D02*
G01*
X69660613Y-165630139D01*
X69695572Y-165635025D01*
X69710820Y-165641795D01*
X69711015Y-165651702D01*
X69709195Y-165654914D01*
X69696015Y-165697644D01*
X69696785Y-165753227D01*
X69710333Y-165809737D01*
X69727861Y-165845082D01*
X69755861Y-165881321D01*
X69787549Y-165907813D01*
X69827813Y-165925999D01*
X69881543Y-165937322D01*
X69953626Y-165943222D01*
X70048951Y-165945143D01*
X70067237Y-165945177D01*
X70272646Y-165945200D01*
X70288580Y-165899491D01*
X70299420Y-165867027D01*
X70304468Y-165849215D01*
X70304514Y-165848691D01*
X70290828Y-165846937D01*
X70253076Y-165845444D01*
X70196224Y-165844326D01*
X70125234Y-165843697D01*
X70082073Y-165843600D01*
X69996973Y-165843398D01*
X69935981Y-165842358D01*
X69894177Y-165839831D01*
X69866642Y-165835164D01*
X69848456Y-165827707D01*
X69834698Y-165816811D01*
X69828073Y-165810007D01*
X69801375Y-165763272D01*
X69799375Y-165712272D01*
X69821955Y-165666001D01*
X69830107Y-165657444D01*
X69845436Y-165644893D01*
X69863618Y-165636188D01*
X69889909Y-165630631D01*
X69929562Y-165627526D01*
X69987832Y-165626176D01*
X70068173Y-165625886D01*
X70272646Y-165625886D01*
X70288580Y-165580177D01*
X70299420Y-165547713D01*
X70304468Y-165529901D01*
X70304514Y-165529377D01*
X70290623Y-165528037D01*
X70251439Y-165526828D01*
X70190700Y-165525801D01*
X70112141Y-165525002D01*
X70019498Y-165524481D01*
X69916509Y-165524286D01*
X69519342Y-165524286D01*
X69499444Y-165571457D01*
X69479547Y-165618629D01*
X69601289Y-165625886D01*
G37*
X69601289Y-165625886D02*
X69660613Y-165630139D01*
X69695572Y-165635025D01*
X69710820Y-165641795D01*
X69711015Y-165651702D01*
X69709195Y-165654914D01*
X69696015Y-165697644D01*
X69696785Y-165753227D01*
X69710333Y-165809737D01*
X69727861Y-165845082D01*
X69755861Y-165881321D01*
X69787549Y-165907813D01*
X69827813Y-165925999D01*
X69881543Y-165937322D01*
X69953626Y-165943222D01*
X70048951Y-165945143D01*
X70067237Y-165945177D01*
X70272646Y-165945200D01*
X70288580Y-165899491D01*
X70299420Y-165867027D01*
X70304468Y-165849215D01*
X70304514Y-165848691D01*
X70290828Y-165846937D01*
X70253076Y-165845444D01*
X70196224Y-165844326D01*
X70125234Y-165843697D01*
X70082073Y-165843600D01*
X69996973Y-165843398D01*
X69935981Y-165842358D01*
X69894177Y-165839831D01*
X69866642Y-165835164D01*
X69848456Y-165827707D01*
X69834698Y-165816811D01*
X69828073Y-165810007D01*
X69801375Y-165763272D01*
X69799375Y-165712272D01*
X69821955Y-165666001D01*
X69830107Y-165657444D01*
X69845436Y-165644893D01*
X69863618Y-165636188D01*
X69889909Y-165630631D01*
X69929562Y-165627526D01*
X69987832Y-165626176D01*
X70068173Y-165625886D01*
X70272646Y-165625886D01*
X70288580Y-165580177D01*
X70299420Y-165547713D01*
X70304468Y-165529901D01*
X70304514Y-165529377D01*
X70290623Y-165528037D01*
X70251439Y-165526828D01*
X70190700Y-165525801D01*
X70112141Y-165525002D01*
X70019498Y-165524481D01*
X69916509Y-165524286D01*
X69519342Y-165524286D01*
X69499444Y-165571457D01*
X69479547Y-165618629D01*
X69601289Y-165625886D01*
G36*
X69700968Y-166289744D02*
G01*
X69722087Y-166346616D01*
X69722493Y-166347267D01*
X69748380Y-166382440D01*
X69778633Y-166408407D01*
X69818058Y-166426670D01*
X69871462Y-166438732D01*
X69943651Y-166446096D01*
X70039432Y-166450264D01*
X70053078Y-166450629D01*
X70258842Y-166455876D01*
X70281678Y-166411716D01*
X70297110Y-166379763D01*
X70304423Y-166360470D01*
X70304514Y-166359578D01*
X70291022Y-166356239D01*
X70254626Y-166353587D01*
X70201452Y-166351956D01*
X70158393Y-166351600D01*
X70088641Y-166351592D01*
X70044837Y-166348403D01*
X70023944Y-166337288D01*
X70022925Y-166313501D01*
X70038741Y-166272296D01*
X70067815Y-166210086D01*
X70091963Y-166164341D01*
X70112913Y-166140813D01*
X70135747Y-166133896D01*
X70136877Y-166133886D01*
X70176212Y-166145299D01*
X70197462Y-166179092D01*
X70200539Y-166230809D01*
X70200006Y-166268061D01*
X70210735Y-166287703D01*
X70236505Y-166299952D01*
X70269337Y-166307002D01*
X70287966Y-166296842D01*
X70290632Y-166293017D01*
X70301340Y-166257001D01*
X70302856Y-166206566D01*
X70295759Y-166154626D01*
X70282788Y-166117822D01*
X70239585Y-166066938D01*
X70179446Y-166038014D01*
X70132462Y-166032286D01*
X70090082Y-166036657D01*
X70055488Y-166052475D01*
X70024763Y-166083797D01*
X69993990Y-166134678D01*
X69959252Y-166209176D01*
X69957288Y-166213714D01*
X69926287Y-166280821D01*
X69900862Y-166322232D01*
X69878014Y-166339981D01*
X69854745Y-166336107D01*
X69828056Y-166312643D01*
X69821914Y-166305627D01*
X69798100Y-166258630D01*
X69799103Y-166209933D01*
X69822451Y-166167522D01*
X69865675Y-166139384D01*
X69874160Y-166136769D01*
X69915308Y-166111308D01*
X69935128Y-166079001D01*
X69954770Y-166032286D01*
X69903950Y-166032286D01*
X69830082Y-166046496D01*
X69762327Y-166088675D01*
X69739661Y-166110624D01*
X69710569Y-166160517D01*
X69697400Y-166223967D01*
X69700968Y-166289744D01*
G37*
X69700968Y-166289744D02*
X69722087Y-166346616D01*
X69722493Y-166347267D01*
X69748380Y-166382440D01*
X69778633Y-166408407D01*
X69818058Y-166426670D01*
X69871462Y-166438732D01*
X69943651Y-166446096D01*
X70039432Y-166450264D01*
X70053078Y-166450629D01*
X70258842Y-166455876D01*
X70281678Y-166411716D01*
X70297110Y-166379763D01*
X70304423Y-166360470D01*
X70304514Y-166359578D01*
X70291022Y-166356239D01*
X70254626Y-166353587D01*
X70201452Y-166351956D01*
X70158393Y-166351600D01*
X70088641Y-166351592D01*
X70044837Y-166348403D01*
X70023944Y-166337288D01*
X70022925Y-166313501D01*
X70038741Y-166272296D01*
X70067815Y-166210086D01*
X70091963Y-166164341D01*
X70112913Y-166140813D01*
X70135747Y-166133896D01*
X70136877Y-166133886D01*
X70176212Y-166145299D01*
X70197462Y-166179092D01*
X70200539Y-166230809D01*
X70200006Y-166268061D01*
X70210735Y-166287703D01*
X70236505Y-166299952D01*
X70269337Y-166307002D01*
X70287966Y-166296842D01*
X70290632Y-166293017D01*
X70301340Y-166257001D01*
X70302856Y-166206566D01*
X70295759Y-166154626D01*
X70282788Y-166117822D01*
X70239585Y-166066938D01*
X70179446Y-166038014D01*
X70132462Y-166032286D01*
X70090082Y-166036657D01*
X70055488Y-166052475D01*
X70024763Y-166083797D01*
X69993990Y-166134678D01*
X69959252Y-166209176D01*
X69957288Y-166213714D01*
X69926287Y-166280821D01*
X69900862Y-166322232D01*
X69878014Y-166339981D01*
X69854745Y-166336107D01*
X69828056Y-166312643D01*
X69821914Y-166305627D01*
X69798100Y-166258630D01*
X69799103Y-166209933D01*
X69822451Y-166167522D01*
X69865675Y-166139384D01*
X69874160Y-166136769D01*
X69915308Y-166111308D01*
X69935128Y-166079001D01*
X69954770Y-166032286D01*
X69903950Y-166032286D01*
X69830082Y-166046496D01*
X69762327Y-166088675D01*
X69739661Y-166110624D01*
X69710569Y-166160517D01*
X69697400Y-166223967D01*
X69700968Y-166289744D01*
G36*
X69699755Y-166779926D02*
G01*
X69724084Y-166845858D01*
X69767117Y-166899273D01*
X69797409Y-166920164D01*
X69852994Y-166942939D01*
X69893186Y-166942466D01*
X69920217Y-166918562D01*
X69924813Y-166909717D01*
X69939144Y-166871530D01*
X69935472Y-166852028D01*
X69911407Y-166845422D01*
X69898114Y-166845086D01*
X69849210Y-166832992D01*
X69814999Y-166801471D01*
X69798476Y-166757659D01*
X69802634Y-166708695D01*
X69824227Y-166668894D01*
X69836544Y-166655450D01*
X69851487Y-166645921D01*
X69874075Y-166639485D01*
X69909328Y-166635317D01*
X69962266Y-166632597D01*
X70037907Y-166630502D01*
X70061857Y-166629960D01*
X70143790Y-166627981D01*
X70201455Y-166625731D01*
X70239608Y-166622357D01*
X70263004Y-166617006D01*
X70276398Y-166608824D01*
X70284545Y-166596959D01*
X70288144Y-166589362D01*
X70300452Y-166557102D01*
X70304514Y-166538111D01*
X70290948Y-166531836D01*
X70249934Y-166528006D01*
X70180999Y-166526600D01*
X70083669Y-166527598D01*
X70068657Y-166527908D01*
X69979859Y-166530101D01*
X69915019Y-166532693D01*
X69869067Y-166536382D01*
X69836935Y-166541864D01*
X69813553Y-166549835D01*
X69793852Y-166560993D01*
X69785410Y-166566830D01*
X69748057Y-166600296D01*
X69719003Y-166637727D01*
X69716467Y-166642309D01*
X69696443Y-166709426D01*
X69699755Y-166779926D01*
G37*
X69699755Y-166779926D02*
X69724084Y-166845858D01*
X69767117Y-166899273D01*
X69797409Y-166920164D01*
X69852994Y-166942939D01*
X69893186Y-166942466D01*
X69920217Y-166918562D01*
X69924813Y-166909717D01*
X69939144Y-166871530D01*
X69935472Y-166852028D01*
X69911407Y-166845422D01*
X69898114Y-166845086D01*
X69849210Y-166832992D01*
X69814999Y-166801471D01*
X69798476Y-166757659D01*
X69802634Y-166708695D01*
X69824227Y-166668894D01*
X69836544Y-166655450D01*
X69851487Y-166645921D01*
X69874075Y-166639485D01*
X69909328Y-166635317D01*
X69962266Y-166632597D01*
X70037907Y-166630502D01*
X70061857Y-166629960D01*
X70143790Y-166627981D01*
X70201455Y-166625731D01*
X70239608Y-166622357D01*
X70263004Y-166617006D01*
X70276398Y-166608824D01*
X70284545Y-166596959D01*
X70288144Y-166589362D01*
X70300452Y-166557102D01*
X70304514Y-166538111D01*
X70290948Y-166531836D01*
X70249934Y-166528006D01*
X70180999Y-166526600D01*
X70083669Y-166527598D01*
X70068657Y-166527908D01*
X69979859Y-166530101D01*
X69915019Y-166532693D01*
X69869067Y-166536382D01*
X69836935Y-166541864D01*
X69813553Y-166549835D01*
X69793852Y-166560993D01*
X69785410Y-166566830D01*
X69748057Y-166600296D01*
X69719003Y-166637727D01*
X69716467Y-166642309D01*
X69696443Y-166709426D01*
X69699755Y-166779926D01*
G36*
X69815358Y-167440117D02*
G01*
X69923837Y-167439933D01*
X70007287Y-167439219D01*
X70069704Y-167437675D01*
X70115085Y-167435001D01*
X70147429Y-167430894D01*
X70170733Y-167425055D01*
X70188995Y-167417182D01*
X70199418Y-167411221D01*
X70255945Y-167361855D01*
X70291377Y-167299264D01*
X70304090Y-167230013D01*
X70292463Y-167160668D01*
X70271568Y-167119375D01*
X70235422Y-167076025D01*
X70191276Y-167046481D01*
X70133462Y-167028655D01*
X70056313Y-167020463D01*
X69999714Y-167019302D01*
X69995647Y-167019458D01*
X69995647Y-167120857D01*
X70060550Y-167121476D01*
X70103514Y-167124314D01*
X70131622Y-167130840D01*
X70151953Y-167142523D01*
X70167288Y-167156483D01*
X70196890Y-167203365D01*
X70199419Y-167253701D01*
X70174705Y-167301276D01*
X70171356Y-167304979D01*
X70153935Y-167320783D01*
X70133209Y-167330693D01*
X70102362Y-167336058D01*
X70054577Y-167338228D01*
X70001748Y-167338571D01*
X69935381Y-167337827D01*
X69891106Y-167334748D01*
X69862009Y-167328061D01*
X69841173Y-167316496D01*
X69830107Y-167307013D01*
X69802198Y-167262960D01*
X69798843Y-167212224D01*
X69820159Y-167163796D01*
X69828073Y-167154450D01*
X69845647Y-167138540D01*
X69866587Y-167128610D01*
X69897782Y-167123278D01*
X69946122Y-167121163D01*
X69995647Y-167120857D01*
X69995647Y-167019458D01*
X69908568Y-167022810D01*
X69840086Y-167034726D01*
X69788600Y-167057135D01*
X69748443Y-167092124D01*
X69727861Y-167119375D01*
X69705625Y-167168907D01*
X69695304Y-167226316D01*
X69698067Y-167279682D01*
X69709212Y-167309543D01*
X69712383Y-167321261D01*
X69700557Y-167329037D01*
X69668866Y-167334465D01*
X69620593Y-167338571D01*
X69566829Y-167343067D01*
X69534482Y-167349313D01*
X69515985Y-167360676D01*
X69503770Y-167380528D01*
X69498362Y-167393000D01*
X69478601Y-167440171D01*
X69815358Y-167440117D01*
G37*
X69815358Y-167440117D02*
X69923837Y-167439933D01*
X70007287Y-167439219D01*
X70069704Y-167437675D01*
X70115085Y-167435001D01*
X70147429Y-167430894D01*
X70170733Y-167425055D01*
X70188995Y-167417182D01*
X70199418Y-167411221D01*
X70255945Y-167361855D01*
X70291377Y-167299264D01*
X70304090Y-167230013D01*
X70292463Y-167160668D01*
X70271568Y-167119375D01*
X70235422Y-167076025D01*
X70191276Y-167046481D01*
X70133462Y-167028655D01*
X70056313Y-167020463D01*
X69999714Y-167019302D01*
X69995647Y-167019458D01*
X69995647Y-167120857D01*
X70060550Y-167121476D01*
X70103514Y-167124314D01*
X70131622Y-167130840D01*
X70151953Y-167142523D01*
X70167288Y-167156483D01*
X70196890Y-167203365D01*
X70199419Y-167253701D01*
X70174705Y-167301276D01*
X70171356Y-167304979D01*
X70153935Y-167320783D01*
X70133209Y-167330693D01*
X70102362Y-167336058D01*
X70054577Y-167338228D01*
X70001748Y-167338571D01*
X69935381Y-167337827D01*
X69891106Y-167334748D01*
X69862009Y-167328061D01*
X69841173Y-167316496D01*
X69830107Y-167307013D01*
X69802198Y-167262960D01*
X69798843Y-167212224D01*
X69820159Y-167163796D01*
X69828073Y-167154450D01*
X69845647Y-167138540D01*
X69866587Y-167128610D01*
X69897782Y-167123278D01*
X69946122Y-167121163D01*
X69995647Y-167120857D01*
X69995647Y-167019458D01*
X69908568Y-167022810D01*
X69840086Y-167034726D01*
X69788600Y-167057135D01*
X69748443Y-167092124D01*
X69727861Y-167119375D01*
X69705625Y-167168907D01*
X69695304Y-167226316D01*
X69698067Y-167279682D01*
X69709212Y-167309543D01*
X69712383Y-167321261D01*
X69700557Y-167329037D01*
X69668866Y-167334465D01*
X69620593Y-167338571D01*
X69566829Y-167343067D01*
X69534482Y-167349313D01*
X69515985Y-167360676D01*
X69503770Y-167380528D01*
X69498362Y-167393000D01*
X69478601Y-167440171D01*
X69815358Y-167440117D01*
G36*
X69708663Y-168029833D02*
G01*
X69746850Y-168032048D01*
X69804886Y-168033784D01*
X69878180Y-168034899D01*
X69955055Y-168035257D01*
X70215196Y-168035257D01*
X70261127Y-167989326D01*
X70289429Y-167957675D01*
X70300893Y-167929890D01*
X70300168Y-167891915D01*
X70298321Y-167876840D01*
X70292948Y-167829726D01*
X70289869Y-167790756D01*
X70289585Y-167781257D01*
X70291445Y-167749233D01*
X70296114Y-167703432D01*
X70298321Y-167685674D01*
X70301735Y-167642057D01*
X70294320Y-167612745D01*
X70271427Y-167583680D01*
X70261127Y-167573188D01*
X70215196Y-167527257D01*
X69728602Y-167527257D01*
X69711758Y-167564226D01*
X69699282Y-167596059D01*
X69694914Y-167614683D01*
X69708718Y-167619458D01*
X69747286Y-167623921D01*
X69806356Y-167627775D01*
X69881663Y-167630722D01*
X69945286Y-167632143D01*
X70195657Y-167636114D01*
X70200556Y-167670759D01*
X70197131Y-167702268D01*
X70186041Y-167717708D01*
X70165308Y-167722023D01*
X70121145Y-167725708D01*
X70059146Y-167728469D01*
X69984909Y-167730012D01*
X69946706Y-167730235D01*
X69726783Y-167730457D01*
X69710849Y-167776166D01*
X69700015Y-167808518D01*
X69694962Y-167826115D01*
X69694914Y-167826623D01*
X69708648Y-167828388D01*
X69746730Y-167830329D01*
X69804482Y-167832282D01*
X69877227Y-167834084D01*
X69945286Y-167835343D01*
X70195657Y-167839314D01*
X70195657Y-167926400D01*
X69967240Y-167930396D01*
X69738822Y-167934392D01*
X69716868Y-167976847D01*
X69701793Y-168008192D01*
X69694951Y-168026744D01*
X69694914Y-168027279D01*
X69708663Y-168029833D01*
G37*
X69708663Y-168029833D02*
X69746850Y-168032048D01*
X69804886Y-168033784D01*
X69878180Y-168034899D01*
X69955055Y-168035257D01*
X70215196Y-168035257D01*
X70261127Y-167989326D01*
X70289429Y-167957675D01*
X70300893Y-167929890D01*
X70300168Y-167891915D01*
X70298321Y-167876840D01*
X70292948Y-167829726D01*
X70289869Y-167790756D01*
X70289585Y-167781257D01*
X70291445Y-167749233D01*
X70296114Y-167703432D01*
X70298321Y-167685674D01*
X70301735Y-167642057D01*
X70294320Y-167612745D01*
X70271427Y-167583680D01*
X70261127Y-167573188D01*
X70215196Y-167527257D01*
X69728602Y-167527257D01*
X69711758Y-167564226D01*
X69699282Y-167596059D01*
X69694914Y-167614683D01*
X69708718Y-167619458D01*
X69747286Y-167623921D01*
X69806356Y-167627775D01*
X69881663Y-167630722D01*
X69945286Y-167632143D01*
X70195657Y-167636114D01*
X70200556Y-167670759D01*
X70197131Y-167702268D01*
X70186041Y-167717708D01*
X70165308Y-167722023D01*
X70121145Y-167725708D01*
X70059146Y-167728469D01*
X69984909Y-167730012D01*
X69946706Y-167730235D01*
X69726783Y-167730457D01*
X69710849Y-167776166D01*
X69700015Y-167808518D01*
X69694962Y-167826115D01*
X69694914Y-167826623D01*
X69708648Y-167828388D01*
X69746730Y-167830329D01*
X69804482Y-167832282D01*
X69877227Y-167834084D01*
X69945286Y-167835343D01*
X70195657Y-167839314D01*
X70195657Y-167926400D01*
X69967240Y-167930396D01*
X69738822Y-167934392D01*
X69716868Y-167976847D01*
X69701793Y-168008192D01*
X69694951Y-168026744D01*
X69694914Y-168027279D01*
X69708663Y-168029833D01*
G36*
X69706335Y-168394876D02*
G01*
X69725344Y-168436667D01*
X69748378Y-168469469D01*
X69774133Y-168493503D01*
X69807358Y-168510097D01*
X69852800Y-168520577D01*
X69915207Y-168526271D01*
X69999327Y-168528507D01*
X70054721Y-168528743D01*
X70270826Y-168528743D01*
X70287670Y-168491774D01*
X70299981Y-168462656D01*
X70304514Y-168448231D01*
X70291025Y-168445472D01*
X70254653Y-168443282D01*
X70201542Y-168441942D01*
X70159372Y-168441657D01*
X70098447Y-168440434D01*
X70050115Y-168437136D01*
X70020518Y-168432321D01*
X70014229Y-168428496D01*
X70020652Y-168402783D01*
X70037125Y-168362418D01*
X70059458Y-168315679D01*
X70083457Y-168270845D01*
X70104930Y-168236193D01*
X70119685Y-168220002D01*
X70119845Y-168219938D01*
X70147152Y-168221330D01*
X70173219Y-168233818D01*
X70194392Y-168255743D01*
X70201474Y-168287743D01*
X70200649Y-168315092D01*
X70200042Y-168353826D01*
X70209116Y-168374158D01*
X70233092Y-168386369D01*
X70237613Y-168387909D01*
X70271806Y-168393203D01*
X70292568Y-168379047D01*
X70302462Y-168342148D01*
X70304292Y-168302289D01*
X70290727Y-168230562D01*
X70271355Y-168193432D01*
X70225845Y-168147576D01*
X70169983Y-168123256D01*
X70110957Y-168121073D01*
X70055953Y-168141629D01*
X70021486Y-168172549D01*
X70002189Y-168203420D01*
X69977759Y-168251942D01*
X69952985Y-168308485D01*
X69949199Y-168317910D01*
X69921791Y-168380019D01*
X69897634Y-168415822D01*
X69873619Y-168427337D01*
X69846635Y-168416580D01*
X69825543Y-168398114D01*
X69799572Y-168354469D01*
X69797624Y-168306446D01*
X69817637Y-168262406D01*
X69857551Y-168230709D01*
X69867848Y-168226549D01*
X69905724Y-168202327D01*
X69933842Y-168166965D01*
X69956917Y-168122343D01*
X69891485Y-168122343D01*
X69851506Y-168124969D01*
X69819997Y-168136230D01*
X69786378Y-168161199D01*
X69760484Y-168185169D01*
X69723817Y-168222441D01*
X69704121Y-168251401D01*
X69696220Y-168282505D01*
X69694914Y-168317713D01*
X69706335Y-168394876D01*
G37*
X69706335Y-168394876D02*
X69725344Y-168436667D01*
X69748378Y-168469469D01*
X69774133Y-168493503D01*
X69807358Y-168510097D01*
X69852800Y-168520577D01*
X69915207Y-168526271D01*
X69999327Y-168528507D01*
X70054721Y-168528743D01*
X70270826Y-168528743D01*
X70287670Y-168491774D01*
X70299981Y-168462656D01*
X70304514Y-168448231D01*
X70291025Y-168445472D01*
X70254653Y-168443282D01*
X70201542Y-168441942D01*
X70159372Y-168441657D01*
X70098447Y-168440434D01*
X70050115Y-168437136D01*
X70020518Y-168432321D01*
X70014229Y-168428496D01*
X70020652Y-168402783D01*
X70037125Y-168362418D01*
X70059458Y-168315679D01*
X70083457Y-168270845D01*
X70104930Y-168236193D01*
X70119685Y-168220002D01*
X70119845Y-168219938D01*
X70147152Y-168221330D01*
X70173219Y-168233818D01*
X70194392Y-168255743D01*
X70201474Y-168287743D01*
X70200649Y-168315092D01*
X70200042Y-168353826D01*
X70209116Y-168374158D01*
X70233092Y-168386369D01*
X70237613Y-168387909D01*
X70271806Y-168393203D01*
X70292568Y-168379047D01*
X70302462Y-168342148D01*
X70304292Y-168302289D01*
X70290727Y-168230562D01*
X70271355Y-168193432D01*
X70225845Y-168147576D01*
X70169983Y-168123256D01*
X70110957Y-168121073D01*
X70055953Y-168141629D01*
X70021486Y-168172549D01*
X70002189Y-168203420D01*
X69977759Y-168251942D01*
X69952985Y-168308485D01*
X69949199Y-168317910D01*
X69921791Y-168380019D01*
X69897634Y-168415822D01*
X69873619Y-168427337D01*
X69846635Y-168416580D01*
X69825543Y-168398114D01*
X69799572Y-168354469D01*
X69797624Y-168306446D01*
X69817637Y-168262406D01*
X69857551Y-168230709D01*
X69867848Y-168226549D01*
X69905724Y-168202327D01*
X69933842Y-168166965D01*
X69956917Y-168122343D01*
X69891485Y-168122343D01*
X69851506Y-168124969D01*
X69819997Y-168136230D01*
X69786378Y-168161199D01*
X69760484Y-168185169D01*
X69723817Y-168222441D01*
X69704121Y-168251401D01*
X69696220Y-168282505D01*
X69694914Y-168317713D01*
X69706335Y-168394876D01*
G36*
X69708752Y-168902600D02*
G01*
X69716334Y-168919948D01*
X69749128Y-168961356D01*
X69796547Y-168996765D01*
X69847151Y-169018664D01*
X69872098Y-169022229D01*
X69906927Y-169010279D01*
X69925357Y-168984067D01*
X69936516Y-168955964D01*
X69938572Y-168943095D01*
X69923649Y-168936829D01*
X69891175Y-168924456D01*
X69876502Y-168919028D01*
X69825744Y-168888590D01*
X69800427Y-168844520D01*
X69801206Y-168788010D01*
X69802203Y-168783825D01*
X69816507Y-168753655D01*
X69844393Y-168731476D01*
X69889287Y-168716327D01*
X69954615Y-168707250D01*
X70043804Y-168703286D01*
X70091261Y-168702914D01*
X70166071Y-168702730D01*
X70217069Y-168701522D01*
X70249471Y-168698309D01*
X70268495Y-168692109D01*
X70279356Y-168681940D01*
X70287272Y-168666819D01*
X70287670Y-168665946D01*
X70299981Y-168636828D01*
X70304514Y-168622403D01*
X70290809Y-168620186D01*
X70252925Y-168618289D01*
X70195715Y-168616847D01*
X70124027Y-168615998D01*
X70071565Y-168615829D01*
X69970047Y-168616692D01*
X69893032Y-168620070D01*
X69836023Y-168627142D01*
X69794526Y-168639088D01*
X69764043Y-168657090D01*
X69740080Y-168682327D01*
X69723355Y-168707247D01*
X69701097Y-168767171D01*
X69696076Y-168836911D01*
X69708752Y-168902600D01*
G37*
X69708752Y-168902600D02*
X69716334Y-168919948D01*
X69749128Y-168961356D01*
X69796547Y-168996765D01*
X69847151Y-169018664D01*
X69872098Y-169022229D01*
X69906927Y-169010279D01*
X69925357Y-168984067D01*
X69936516Y-168955964D01*
X69938572Y-168943095D01*
X69923649Y-168936829D01*
X69891175Y-168924456D01*
X69876502Y-168919028D01*
X69825744Y-168888590D01*
X69800427Y-168844520D01*
X69801206Y-168788010D01*
X69802203Y-168783825D01*
X69816507Y-168753655D01*
X69844393Y-168731476D01*
X69889287Y-168716327D01*
X69954615Y-168707250D01*
X70043804Y-168703286D01*
X70091261Y-168702914D01*
X70166071Y-168702730D01*
X70217069Y-168701522D01*
X70249471Y-168698309D01*
X70268495Y-168692109D01*
X70279356Y-168681940D01*
X70287272Y-168666819D01*
X70287670Y-168665946D01*
X70299981Y-168636828D01*
X70304514Y-168622403D01*
X70290809Y-168620186D01*
X70252925Y-168618289D01*
X70195715Y-168616847D01*
X70124027Y-168615998D01*
X70071565Y-168615829D01*
X69970047Y-168616692D01*
X69893032Y-168620070D01*
X69836023Y-168627142D01*
X69794526Y-168639088D01*
X69764043Y-168657090D01*
X69740080Y-168682327D01*
X69723355Y-168707247D01*
X69701097Y-168767171D01*
X69696076Y-168836911D01*
X69708752Y-168902600D01*
G36*
X69716966Y-169403595D02*
G01*
X69754497Y-169461021D01*
X69788096Y-169488719D01*
X69849064Y-169510662D01*
X69897308Y-169512405D01*
X69961816Y-169508457D01*
X70026934Y-169359686D01*
X70060202Y-169287349D01*
X70086964Y-169240084D01*
X70110144Y-169215507D01*
X70132667Y-169211237D01*
X70157455Y-169224889D01*
X70173886Y-169239943D01*
X70200235Y-169283746D01*
X70202081Y-169331389D01*
X70181546Y-169375145D01*
X70140752Y-169407289D01*
X70126347Y-169413038D01*
X70081356Y-169440576D01*
X70062182Y-169472258D01*
X70045779Y-169515714D01*
X70107966Y-169515714D01*
X70150283Y-169511872D01*
X70185969Y-169496823D01*
X70226943Y-169465280D01*
X70232267Y-169460592D01*
X70268720Y-169425506D01*
X70288283Y-169395347D01*
X70297283Y-169357615D01*
X70300230Y-169326335D01*
X70300965Y-169270385D01*
X70291660Y-169230555D01*
X70277846Y-169205708D01*
X70247467Y-169166656D01*
X70214613Y-169139625D01*
X70173294Y-169122517D01*
X70117521Y-169113238D01*
X70041305Y-169109693D01*
X70002622Y-169109410D01*
X69956247Y-169110372D01*
X69956247Y-169198007D01*
X69981126Y-169199023D01*
X69985200Y-169201556D01*
X69979665Y-169218274D01*
X69965017Y-169254249D01*
X69944190Y-169302331D01*
X69939714Y-169312386D01*
X69908814Y-169373152D01*
X69881657Y-169406632D01*
X69856220Y-169413990D01*
X69830481Y-169396391D01*
X69819109Y-169381856D01*
X69796364Y-169329410D01*
X69800122Y-169280322D01*
X69827884Y-169239227D01*
X69877152Y-169210758D01*
X69916257Y-169201631D01*
X69956247Y-169198007D01*
X69956247Y-169110372D01*
X69912249Y-169111285D01*
X69845384Y-169118196D01*
X69796695Y-169131884D01*
X69760849Y-169154096D01*
X69732513Y-169186574D01*
X69723355Y-169200733D01*
X69699507Y-169265053D01*
X69698006Y-169335473D01*
X69716966Y-169403595D01*
G37*
X69716966Y-169403595D02*
X69754497Y-169461021D01*
X69788096Y-169488719D01*
X69849064Y-169510662D01*
X69897308Y-169512405D01*
X69961816Y-169508457D01*
X70026934Y-169359686D01*
X70060202Y-169287349D01*
X70086964Y-169240084D01*
X70110144Y-169215507D01*
X70132667Y-169211237D01*
X70157455Y-169224889D01*
X70173886Y-169239943D01*
X70200235Y-169283746D01*
X70202081Y-169331389D01*
X70181546Y-169375145D01*
X70140752Y-169407289D01*
X70126347Y-169413038D01*
X70081356Y-169440576D01*
X70062182Y-169472258D01*
X70045779Y-169515714D01*
X70107966Y-169515714D01*
X70150283Y-169511872D01*
X70185969Y-169496823D01*
X70226943Y-169465280D01*
X70232267Y-169460592D01*
X70268720Y-169425506D01*
X70288283Y-169395347D01*
X70297283Y-169357615D01*
X70300230Y-169326335D01*
X70300965Y-169270385D01*
X70291660Y-169230555D01*
X70277846Y-169205708D01*
X70247467Y-169166656D01*
X70214613Y-169139625D01*
X70173294Y-169122517D01*
X70117521Y-169113238D01*
X70041305Y-169109693D01*
X70002622Y-169109410D01*
X69956247Y-169110372D01*
X69956247Y-169198007D01*
X69981126Y-169199023D01*
X69985200Y-169201556D01*
X69979665Y-169218274D01*
X69965017Y-169254249D01*
X69944190Y-169302331D01*
X69939714Y-169312386D01*
X69908814Y-169373152D01*
X69881657Y-169406632D01*
X69856220Y-169413990D01*
X69830481Y-169396391D01*
X69819109Y-169381856D01*
X69796364Y-169329410D01*
X69800122Y-169280322D01*
X69827884Y-169239227D01*
X69877152Y-169210758D01*
X69916257Y-169201631D01*
X69956247Y-169198007D01*
X69956247Y-169110372D01*
X69912249Y-169111285D01*
X69845384Y-169118196D01*
X69796695Y-169131884D01*
X69760849Y-169154096D01*
X69732513Y-169186574D01*
X69723355Y-169200733D01*
X69699507Y-169265053D01*
X69698006Y-169335473D01*
X69716966Y-169403595D01*
G36*
X64992348Y-166353910D02*
G01*
X64992778Y-166432454D01*
X64993942Y-166489298D01*
X64996207Y-166528105D01*
X64999940Y-166552538D01*
X65005506Y-166566262D01*
X65013273Y-166572940D01*
X65023605Y-166576236D01*
X65024943Y-166576556D01*
X65049079Y-166581562D01*
X65096701Y-166590829D01*
X65162741Y-166603392D01*
X65242128Y-166618287D01*
X65329796Y-166634551D01*
X65332875Y-166635119D01*
X65418789Y-166651410D01*
X65494696Y-166666652D01*
X65556045Y-166679861D01*
X65598282Y-166690054D01*
X65616855Y-166696248D01*
X65617184Y-166696543D01*
X65626253Y-166714788D01*
X65641367Y-166752405D01*
X65659262Y-166801271D01*
X65659358Y-166801543D01*
X65682493Y-166863093D01*
X65711965Y-166935657D01*
X65741597Y-167004057D01*
X65743062Y-167007294D01*
X65793626Y-167118702D01*
X65625160Y-167365399D01*
X65573803Y-167441077D01*
X65527889Y-167509631D01*
X65490030Y-167567088D01*
X65462837Y-167609476D01*
X65448921Y-167632825D01*
X65447889Y-167635042D01*
X65452484Y-167652010D01*
X65474655Y-167683701D01*
X65515447Y-167731352D01*
X65575905Y-167796198D01*
X65640227Y-167862397D01*
X65703612Y-167926214D01*
X65761451Y-167983329D01*
X65810175Y-168030305D01*
X65846210Y-168063703D01*
X65865984Y-168080085D01*
X65867002Y-168080694D01*
X65880572Y-168082505D01*
X65902733Y-168075683D01*
X65936478Y-168058540D01*
X65984800Y-168029393D01*
X66050692Y-167986555D01*
X66135517Y-167929448D01*
X66210177Y-167878766D01*
X66277140Y-167833461D01*
X66332516Y-167796150D01*
X66372420Y-167769452D01*
X66392962Y-167755985D01*
X66394356Y-167755137D01*
X66414038Y-167756781D01*
X66452293Y-167769245D01*
X66501889Y-167790048D01*
X66517728Y-167797462D01*
X66588290Y-167829814D01*
X66668353Y-167864328D01*
X66737629Y-167892365D01*
X66789045Y-167912568D01*
X66828119Y-167928615D01*
X66848541Y-167937888D01*
X66850114Y-167939041D01*
X66852721Y-167956096D01*
X66859863Y-167996298D01*
X66870523Y-168054302D01*
X66883685Y-168124763D01*
X66898333Y-168202335D01*
X66913449Y-168281672D01*
X66928018Y-168357431D01*
X66941022Y-168424264D01*
X66951445Y-168476828D01*
X66958270Y-168509776D01*
X66960199Y-168517857D01*
X66964962Y-168526205D01*
X66975718Y-168532506D01*
X66996098Y-168537045D01*
X67029734Y-168540104D01*
X67080255Y-168541967D01*
X67151292Y-168542918D01*
X67246476Y-168543240D01*
X67285492Y-168543257D01*
X67602799Y-168543257D01*
X67617839Y-168467057D01*
X67625995Y-168424663D01*
X67637899Y-168361400D01*
X67652116Y-168284962D01*
X67667210Y-168203043D01*
X67671355Y-168180400D01*
X67686053Y-168104806D01*
X67700505Y-168038953D01*
X67713375Y-167988366D01*
X67723322Y-167958574D01*
X67726287Y-167953612D01*
X67747283Y-167941426D01*
X67787967Y-167923953D01*
X67840322Y-167904577D01*
X67851600Y-167900734D01*
X67921523Y-167875339D01*
X68000418Y-167843817D01*
X68071266Y-167812969D01*
X68071595Y-167812817D01*
X68182733Y-167761447D01*
X68431253Y-167930399D01*
X68679772Y-168099352D01*
X68897058Y-167882429D01*
X68961726Y-167816819D01*
X69018733Y-167756979D01*
X69065033Y-167706267D01*
X69097584Y-167668046D01*
X69113343Y-167645675D01*
X69114343Y-167642466D01*
X69106469Y-167623626D01*
X69084578Y-167585180D01*
X69051267Y-167531330D01*
X69009131Y-167466276D01*
X68961943Y-167395940D01*
X68913810Y-167324555D01*
X68871928Y-167260908D01*
X68838871Y-167209041D01*
X68817218Y-167172995D01*
X68809543Y-167156867D01*
X68816037Y-167137189D01*
X68833150Y-167099875D01*
X68857326Y-167052621D01*
X68860013Y-167047612D01*
X68891927Y-166983977D01*
X68907579Y-166940341D01*
X68907745Y-166913202D01*
X68893204Y-166899057D01*
X68893000Y-166898975D01*
X68875779Y-166891905D01*
X68834899Y-166875042D01*
X68773525Y-166849695D01*
X68694819Y-166817171D01*
X68601947Y-166778778D01*
X68498072Y-166735822D01*
X68397502Y-166694222D01*
X68286516Y-166648504D01*
X68183703Y-166606526D01*
X68092215Y-166569548D01*
X68015201Y-166538827D01*
X67955815Y-166515622D01*
X67917209Y-166501190D01*
X67902800Y-166496743D01*
X67886272Y-166507896D01*
X67859930Y-166537069D01*
X67830887Y-166575971D01*
X67739039Y-166686757D01*
X67633759Y-166773351D01*
X67517266Y-166834716D01*
X67391776Y-166869815D01*
X67259507Y-166877608D01*
X67198457Y-166871943D01*
X67071795Y-166841078D01*
X66959941Y-166787920D01*
X66864001Y-166715767D01*
X66785076Y-166627917D01*
X66724270Y-166527665D01*
X66682687Y-166418310D01*
X66661428Y-166303147D01*
X66661599Y-166185475D01*
X66684301Y-166068590D01*
X66730638Y-165955789D01*
X66801713Y-165850369D01*
X66841911Y-165806368D01*
X66945129Y-165721979D01*
X67057925Y-165663222D01*
X67177010Y-165629704D01*
X67299095Y-165621035D01*
X67420893Y-165636823D01*
X67539116Y-165676678D01*
X67650475Y-165740207D01*
X67751684Y-165827021D01*
X67830887Y-165924029D01*
X67861162Y-165964437D01*
X67887219Y-165992982D01*
X67902825Y-166003257D01*
X67919843Y-165997877D01*
X67960500Y-165982575D01*
X68021642Y-165958612D01*
X68100119Y-165927244D01*
X68192780Y-165889732D01*
X68296472Y-165847333D01*
X68397526Y-165805663D01*
X68508607Y-165759690D01*
X68611541Y-165717107D01*
X68703165Y-165679221D01*
X68780316Y-165647340D01*
X68839831Y-165622771D01*
X68878544Y-165606820D01*
X68893000Y-165600910D01*
X68907685Y-165586948D01*
X68907642Y-165559940D01*
X68892099Y-165516413D01*
X68860284Y-165452890D01*
X68860013Y-165452388D01*
X68835323Y-165404560D01*
X68817338Y-165365897D01*
X68809614Y-165344095D01*
X68809543Y-165343133D01*
X68817378Y-165326721D01*
X68839165Y-165290487D01*
X68872328Y-165238474D01*
X68914291Y-165174725D01*
X68961943Y-165104060D01*
X69010191Y-165032116D01*
X69052151Y-164967274D01*
X69085227Y-164913735D01*
X69106821Y-164875697D01*
X69114343Y-164857533D01*
X69104457Y-164840808D01*
X69076826Y-164807180D01*
X69034495Y-164760010D01*
X68980505Y-164702658D01*
X68917899Y-164638484D01*
X68896983Y-164617497D01*
X68679623Y-164400499D01*
X68437220Y-164565668D01*
X68362781Y-164615864D01*
X68295972Y-164659919D01*
X68240665Y-164695362D01*
X68200729Y-164719719D01*
X68180036Y-164730522D01*
X68178563Y-164730838D01*
X68159058Y-164725143D01*
X68119822Y-164709826D01*
X68067430Y-164687537D01*
X68032355Y-164671893D01*
X67965201Y-164642641D01*
X67897358Y-164615094D01*
X67840034Y-164593737D01*
X67822572Y-164587935D01*
X67775938Y-164571452D01*
X67739905Y-164555340D01*
X67726287Y-164546490D01*
X67717952Y-164526960D01*
X67706137Y-164484334D01*
X67692181Y-164424145D01*
X67677422Y-164351922D01*
X67671355Y-164319600D01*
X67656273Y-164237522D01*
X67641669Y-164158795D01*
X67628980Y-164091109D01*
X67619642Y-164042160D01*
X67617839Y-164032943D01*
X67602799Y-163956743D01*
X67285492Y-163956743D01*
X67181154Y-163956914D01*
X67102213Y-163957616D01*
X67045038Y-163959134D01*
X67005999Y-163961749D01*
X66981465Y-163965746D01*
X66967805Y-163971409D01*
X66961389Y-163979020D01*
X66960199Y-163982143D01*
X66955980Y-164000978D01*
X66947562Y-164042588D01*
X66935961Y-164101630D01*
X66922195Y-164172757D01*
X66907280Y-164250625D01*
X66892232Y-164329887D01*
X66878069Y-164405198D01*
X66865806Y-164471213D01*
X66856461Y-164522587D01*
X66851050Y-164553975D01*
X66850114Y-164560959D01*
X66837596Y-164567285D01*
X66804246Y-164581290D01*
X66756377Y-164600355D01*
X66737629Y-164607634D01*
X66665195Y-164636996D01*
X66585170Y-164671571D01*
X66517728Y-164702537D01*
X66466159Y-164725323D01*
X66423785Y-164740482D01*
X66397834Y-164745542D01*
X66394356Y-164744736D01*
X66377936Y-164734041D01*
X66341417Y-164709620D01*
X66288687Y-164674095D01*
X66223635Y-164630087D01*
X66150151Y-164580217D01*
X66135645Y-164570356D01*
X66049704Y-164512492D01*
X65984261Y-164469956D01*
X65936304Y-164441054D01*
X65902820Y-164424090D01*
X65880795Y-164417367D01*
X65867217Y-164419190D01*
X65867131Y-164419236D01*
X65849297Y-164433586D01*
X65814817Y-164465323D01*
X65767268Y-164511010D01*
X65710222Y-164567204D01*
X65647255Y-164630468D01*
X65640227Y-164637602D01*
X65563020Y-164717330D01*
X65506330Y-164778857D01*
X65469110Y-164823421D01*
X65450315Y-164852257D01*
X65447889Y-164864958D01*
X65458471Y-164883494D01*
X65482916Y-164921961D01*
X65518612Y-164976386D01*
X65562947Y-165042798D01*
X65613311Y-165117225D01*
X65625160Y-165134601D01*
X65793626Y-165381297D01*
X65743062Y-165492706D01*
X65713595Y-165560457D01*
X65683959Y-165633183D01*
X65660330Y-165695703D01*
X65659358Y-165698457D01*
X65641457Y-165747360D01*
X65626320Y-165785057D01*
X65617210Y-165803425D01*
X65617184Y-165803456D01*
X65600717Y-165809285D01*
X65560219Y-165819192D01*
X65500242Y-165832195D01*
X65425340Y-165847309D01*
X65340064Y-165863552D01*
X65332875Y-165864881D01*
X65245014Y-165881175D01*
X65165260Y-165896133D01*
X65098681Y-165908791D01*
X65050347Y-165918186D01*
X65025325Y-165923354D01*
X65024943Y-165923444D01*
X65014299Y-165926589D01*
X65006262Y-165932704D01*
X65000467Y-165945453D01*
X64996547Y-165968500D01*
X64994135Y-166005509D01*
X64992865Y-166060144D01*
X64992371Y-166136067D01*
X64992286Y-166236944D01*
X64992286Y-166250000D01*
X64992348Y-166353910D01*
G37*
X64992348Y-166353910D02*
X64992778Y-166432454D01*
X64993942Y-166489298D01*
X64996207Y-166528105D01*
X64999940Y-166552538D01*
X65005506Y-166566262D01*
X65013273Y-166572940D01*
X65023605Y-166576236D01*
X65024943Y-166576556D01*
X65049079Y-166581562D01*
X65096701Y-166590829D01*
X65162741Y-166603392D01*
X65242128Y-166618287D01*
X65329796Y-166634551D01*
X65332875Y-166635119D01*
X65418789Y-166651410D01*
X65494696Y-166666652D01*
X65556045Y-166679861D01*
X65598282Y-166690054D01*
X65616855Y-166696248D01*
X65617184Y-166696543D01*
X65626253Y-166714788D01*
X65641367Y-166752405D01*
X65659262Y-166801271D01*
X65659358Y-166801543D01*
X65682493Y-166863093D01*
X65711965Y-166935657D01*
X65741597Y-167004057D01*
X65743062Y-167007294D01*
X65793626Y-167118702D01*
X65625160Y-167365399D01*
X65573803Y-167441077D01*
X65527889Y-167509631D01*
X65490030Y-167567088D01*
X65462837Y-167609476D01*
X65448921Y-167632825D01*
X65447889Y-167635042D01*
X65452484Y-167652010D01*
X65474655Y-167683701D01*
X65515447Y-167731352D01*
X65575905Y-167796198D01*
X65640227Y-167862397D01*
X65703612Y-167926214D01*
X65761451Y-167983329D01*
X65810175Y-168030305D01*
X65846210Y-168063703D01*
X65865984Y-168080085D01*
X65867002Y-168080694D01*
X65880572Y-168082505D01*
X65902733Y-168075683D01*
X65936478Y-168058540D01*
X65984800Y-168029393D01*
X66050692Y-167986555D01*
X66135517Y-167929448D01*
X66210177Y-167878766D01*
X66277140Y-167833461D01*
X66332516Y-167796150D01*
X66372420Y-167769452D01*
X66392962Y-167755985D01*
X66394356Y-167755137D01*
X66414038Y-167756781D01*
X66452293Y-167769245D01*
X66501889Y-167790048D01*
X66517728Y-167797462D01*
X66588290Y-167829814D01*
X66668353Y-167864328D01*
X66737629Y-167892365D01*
X66789045Y-167912568D01*
X66828119Y-167928615D01*
X66848541Y-167937888D01*
X66850114Y-167939041D01*
X66852721Y-167956096D01*
X66859863Y-167996298D01*
X66870523Y-168054302D01*
X66883685Y-168124763D01*
X66898333Y-168202335D01*
X66913449Y-168281672D01*
X66928018Y-168357431D01*
X66941022Y-168424264D01*
X66951445Y-168476828D01*
X66958270Y-168509776D01*
X66960199Y-168517857D01*
X66964962Y-168526205D01*
X66975718Y-168532506D01*
X66996098Y-168537045D01*
X67029734Y-168540104D01*
X67080255Y-168541967D01*
X67151292Y-168542918D01*
X67246476Y-168543240D01*
X67285492Y-168543257D01*
X67602799Y-168543257D01*
X67617839Y-168467057D01*
X67625995Y-168424663D01*
X67637899Y-168361400D01*
X67652116Y-168284962D01*
X67667210Y-168203043D01*
X67671355Y-168180400D01*
X67686053Y-168104806D01*
X67700505Y-168038953D01*
X67713375Y-167988366D01*
X67723322Y-167958574D01*
X67726287Y-167953612D01*
X67747283Y-167941426D01*
X67787967Y-167923953D01*
X67840322Y-167904577D01*
X67851600Y-167900734D01*
X67921523Y-167875339D01*
X68000418Y-167843817D01*
X68071266Y-167812969D01*
X68071595Y-167812817D01*
X68182733Y-167761447D01*
X68431253Y-167930399D01*
X68679772Y-168099352D01*
X68897058Y-167882429D01*
X68961726Y-167816819D01*
X69018733Y-167756979D01*
X69065033Y-167706267D01*
X69097584Y-167668046D01*
X69113343Y-167645675D01*
X69114343Y-167642466D01*
X69106469Y-167623626D01*
X69084578Y-167585180D01*
X69051267Y-167531330D01*
X69009131Y-167466276D01*
X68961943Y-167395940D01*
X68913810Y-167324555D01*
X68871928Y-167260908D01*
X68838871Y-167209041D01*
X68817218Y-167172995D01*
X68809543Y-167156867D01*
X68816037Y-167137189D01*
X68833150Y-167099875D01*
X68857326Y-167052621D01*
X68860013Y-167047612D01*
X68891927Y-166983977D01*
X68907579Y-166940341D01*
X68907745Y-166913202D01*
X68893204Y-166899057D01*
X68893000Y-166898975D01*
X68875779Y-166891905D01*
X68834899Y-166875042D01*
X68773525Y-166849695D01*
X68694819Y-166817171D01*
X68601947Y-166778778D01*
X68498072Y-166735822D01*
X68397502Y-166694222D01*
X68286516Y-166648504D01*
X68183703Y-166606526D01*
X68092215Y-166569548D01*
X68015201Y-166538827D01*
X67955815Y-166515622D01*
X67917209Y-166501190D01*
X67902800Y-166496743D01*
X67886272Y-166507896D01*
X67859930Y-166537069D01*
X67830887Y-166575971D01*
X67739039Y-166686757D01*
X67633759Y-166773351D01*
X67517266Y-166834716D01*
X67391776Y-166869815D01*
X67259507Y-166877608D01*
X67198457Y-166871943D01*
X67071795Y-166841078D01*
X66959941Y-166787920D01*
X66864001Y-166715767D01*
X66785076Y-166627917D01*
X66724270Y-166527665D01*
X66682687Y-166418310D01*
X66661428Y-166303147D01*
X66661599Y-166185475D01*
X66684301Y-166068590D01*
X66730638Y-165955789D01*
X66801713Y-165850369D01*
X66841911Y-165806368D01*
X66945129Y-165721979D01*
X67057925Y-165663222D01*
X67177010Y-165629704D01*
X67299095Y-165621035D01*
X67420893Y-165636823D01*
X67539116Y-165676678D01*
X67650475Y-165740207D01*
X67751684Y-165827021D01*
X67830887Y-165924029D01*
X67861162Y-165964437D01*
X67887219Y-165992982D01*
X67902825Y-166003257D01*
X67919843Y-165997877D01*
X67960500Y-165982575D01*
X68021642Y-165958612D01*
X68100119Y-165927244D01*
X68192780Y-165889732D01*
X68296472Y-165847333D01*
X68397526Y-165805663D01*
X68508607Y-165759690D01*
X68611541Y-165717107D01*
X68703165Y-165679221D01*
X68780316Y-165647340D01*
X68839831Y-165622771D01*
X68878544Y-165606820D01*
X68893000Y-165600910D01*
X68907685Y-165586948D01*
X68907642Y-165559940D01*
X68892099Y-165516413D01*
X68860284Y-165452890D01*
X68860013Y-165452388D01*
X68835323Y-165404560D01*
X68817338Y-165365897D01*
X68809614Y-165344095D01*
X68809543Y-165343133D01*
X68817378Y-165326721D01*
X68839165Y-165290487D01*
X68872328Y-165238474D01*
X68914291Y-165174725D01*
X68961943Y-165104060D01*
X69010191Y-165032116D01*
X69052151Y-164967274D01*
X69085227Y-164913735D01*
X69106821Y-164875697D01*
X69114343Y-164857533D01*
X69104457Y-164840808D01*
X69076826Y-164807180D01*
X69034495Y-164760010D01*
X68980505Y-164702658D01*
X68917899Y-164638484D01*
X68896983Y-164617497D01*
X68679623Y-164400499D01*
X68437220Y-164565668D01*
X68362781Y-164615864D01*
X68295972Y-164659919D01*
X68240665Y-164695362D01*
X68200729Y-164719719D01*
X68180036Y-164730522D01*
X68178563Y-164730838D01*
X68159058Y-164725143D01*
X68119822Y-164709826D01*
X68067430Y-164687537D01*
X68032355Y-164671893D01*
X67965201Y-164642641D01*
X67897358Y-164615094D01*
X67840034Y-164593737D01*
X67822572Y-164587935D01*
X67775938Y-164571452D01*
X67739905Y-164555340D01*
X67726287Y-164546490D01*
X67717952Y-164526960D01*
X67706137Y-164484334D01*
X67692181Y-164424145D01*
X67677422Y-164351922D01*
X67671355Y-164319600D01*
X67656273Y-164237522D01*
X67641669Y-164158795D01*
X67628980Y-164091109D01*
X67619642Y-164042160D01*
X67617839Y-164032943D01*
X67602799Y-163956743D01*
X67285492Y-163956743D01*
X67181154Y-163956914D01*
X67102213Y-163957616D01*
X67045038Y-163959134D01*
X67005999Y-163961749D01*
X66981465Y-163965746D01*
X66967805Y-163971409D01*
X66961389Y-163979020D01*
X66960199Y-163982143D01*
X66955980Y-164000978D01*
X66947562Y-164042588D01*
X66935961Y-164101630D01*
X66922195Y-164172757D01*
X66907280Y-164250625D01*
X66892232Y-164329887D01*
X66878069Y-164405198D01*
X66865806Y-164471213D01*
X66856461Y-164522587D01*
X66851050Y-164553975D01*
X66850114Y-164560959D01*
X66837596Y-164567285D01*
X66804246Y-164581290D01*
X66756377Y-164600355D01*
X66737629Y-164607634D01*
X66665195Y-164636996D01*
X66585170Y-164671571D01*
X66517728Y-164702537D01*
X66466159Y-164725323D01*
X66423785Y-164740482D01*
X66397834Y-164745542D01*
X66394356Y-164744736D01*
X66377936Y-164734041D01*
X66341417Y-164709620D01*
X66288687Y-164674095D01*
X66223635Y-164630087D01*
X66150151Y-164580217D01*
X66135645Y-164570356D01*
X66049704Y-164512492D01*
X65984261Y-164469956D01*
X65936304Y-164441054D01*
X65902820Y-164424090D01*
X65880795Y-164417367D01*
X65867217Y-164419190D01*
X65867131Y-164419236D01*
X65849297Y-164433586D01*
X65814817Y-164465323D01*
X65767268Y-164511010D01*
X65710222Y-164567204D01*
X65647255Y-164630468D01*
X65640227Y-164637602D01*
X65563020Y-164717330D01*
X65506330Y-164778857D01*
X65469110Y-164823421D01*
X65450315Y-164852257D01*
X65447889Y-164864958D01*
X65458471Y-164883494D01*
X65482916Y-164921961D01*
X65518612Y-164976386D01*
X65562947Y-165042798D01*
X65613311Y-165117225D01*
X65625160Y-165134601D01*
X65793626Y-165381297D01*
X65743062Y-165492706D01*
X65713595Y-165560457D01*
X65683959Y-165633183D01*
X65660330Y-165695703D01*
X65659358Y-165698457D01*
X65641457Y-165747360D01*
X65626320Y-165785057D01*
X65617210Y-165803425D01*
X65617184Y-165803456D01*
X65600717Y-165809285D01*
X65560219Y-165819192D01*
X65500242Y-165832195D01*
X65425340Y-165847309D01*
X65340064Y-165863552D01*
X65332875Y-165864881D01*
X65245014Y-165881175D01*
X65165260Y-165896133D01*
X65098681Y-165908791D01*
X65050347Y-165918186D01*
X65025325Y-165923354D01*
X65024943Y-165923444D01*
X65014299Y-165926589D01*
X65006262Y-165932704D01*
X65000467Y-165945453D01*
X64996547Y-165968500D01*
X64994135Y-166005509D01*
X64992865Y-166060144D01*
X64992371Y-166136067D01*
X64992286Y-166236944D01*
X64992286Y-166250000D01*
X64992348Y-166353910D01*
%TO.C,J2*%
D11*
X49122380Y-67166666D02*
X49836666Y-67166666D01*
X49979523Y-67119047D01*
X50074761Y-67023809D01*
X50122380Y-66880952D01*
X50122380Y-66785714D01*
X49217619Y-67595238D02*
X49170000Y-67642857D01*
X49122380Y-67738095D01*
X49122380Y-67976190D01*
X49170000Y-68071428D01*
X49217619Y-68119047D01*
X49312857Y-68166666D01*
X49408095Y-68166666D01*
X49550952Y-68119047D01*
X50122380Y-67547619D01*
X50122380Y-68166666D01*
%TD*%
M02*
